G04 ================== begin FILE IDENTIFICATION RECORD ==================*
G04 Layout Name:  D:/MaxRuan/Projects/SPB/K1_MAX_MB/MainBoard/PCB/CATALYSTK_260107.brd*
G04 Film Name:    Art03*
G04 File Format:  Gerber RS274X*
G04 File Origin:  Cadence Allegro 17.2-S071*
G04 Origin Date:  Mon Jan 12 17:40:34 2026*
G04 *
G04 Layer:  ETCH/ART03*
G04 Layer:  PIN/ART03*
G04 Layer:  VIA CLASS/ART03*
G04 *
G04 Offset:    (0.0 0.0)*
G04 Mirror:    No*
G04 Mode:      Positive*
G04 Rotation:  0*
G04 FullContactRelief:  No*
G04 UndefLineWidth:     5.0*
G04 ================== end FILE IDENTIFICATION RECORD ====================*
%FSLAX25Y25*MOIN*%
%IR0*IPPOS*OFA0.00000B0.00000*MIA0B0*SFA1.00000B1.00000*%
%ADD12C,.1035*%
%ADD26C,.1181*%
%ADD17C,.2362*%
%ADD16C,.02*%
%ADD19C,.065*%
%ADD13C,.0614*%
%ADD25C,.0571*%
%ADD22C,.0256*%
%ADD18C,.0374*%
%ADD27C,.0276*%
%ADD10C,.0591*%
%ADD11C,.0476*%
%ADD20C,.0594*%
%ADD24O,.0827X.0394*%
%ADD15O,.0394X.0827*%
%ADD14C,.0976*%
%ADD21R,.0594X.0594*%
%ADD23O,.0394X.0669*%
%ADD28C,.007*%
%ADD29C,.01*%
%ADD30C,.05*%
%ADD31C,.017*%
%ADD37C,.112*%
%ADD45C,.108*%
%ADD32C,.2506*%
%ADD47C,.1284*%
%ADD36C,.1178*%
%ADD49C,.042*%
%ADD44C,.044*%
%ADD33C,.062*%
%ADD39C,.0344*%
%ADD48C,.0714*%
%ADD40C,.058*%
%ADD35C,.0734*%
%ADD46C,.0754*%
%ADD43C,.0718*%
%ADD41C,.0738*%
%ADD38C,.0694*%
%ADD42C,.0794*%
%ADD34C,.0758*%
G75*
%LPD*%
G75*
G36*
G01X44000Y322500D02*
X175000D01*
X181000Y316500D01*
Y300500D01*
X184000Y297500D01*
X217500D01*
X220000Y295000D01*
Y265000D01*
X224000Y261000D01*
Y250000D01*
X223000Y249000D01*
X211000D01*
X207500Y252500D01*
Y270000D01*
X205000Y272500D01*
X168500D01*
X166000Y270000D01*
Y251000D01*
X165000Y250000D01*
X156500D01*
X155500Y251000D01*
Y270500D01*
X153500Y272500D01*
X118500D01*
X116000Y270000D01*
Y180390D01*
G02X115300Y180130I-399J2D01*
G03X114000Y180720I-1300J-1137D01*
G03Y177280I0J-1720D01*
G03X115300Y177870I0J1727D01*
G02X116000Y177610I301J-262D01*
G01Y176390D01*
G02X115300Y176130I-399J2D01*
G03X114000Y176720I-1300J-1137D01*
G03Y173280I0J-1720D01*
G03X115300Y173870I0J1727D01*
G02X116000Y173610I301J-262D01*
G01Y156620D01*
G02X115580Y156220I-399J-1D01*
G01X115500D01*
G03Y152780I0J-1720D01*
G03X116720Y153280I6J1723D01*
G01X118500Y151500D01*
X120670D01*
G02X121070Y151040I4J-401D01*
G03X121030Y150560I3059J-497D01*
G03X127230I3100J0D01*
G03X127190Y151040I-3099J-17D01*
G02X127590Y151500I396J59D01*
G01X128540D01*
G02X128940Y151040I4J-401D01*
G03X128900Y150560I3059J-497D01*
G03X132000Y147460I3100J0D01*
G03X134970Y149690I0J3093D01*
G02X135640Y149860I385J-113D01*
G01X136500Y149000D01*
Y140500D01*
X135000Y139000D01*
X120900D01*
G03X118100I-1400J-1001D01*
G01X114000D01*
X110000Y135000D01*
Y107850D01*
G02X109400Y107500I-400J-4D01*
G03X108560Y107720I-840J-1494D01*
G03Y104280I0J-1720D01*
G03X109400Y104500I0J1714D01*
G02X110000Y104150I200J-346D01*
G01Y93240D01*
G02X109610Y92840I-399J-1D01*
G03Y89400I61J-1720D01*
G02X110000Y89000I-9J-399D01*
G01Y83890D01*
G02X109300Y83630I-399J2D01*
G03X108000Y84220I-1300J-1137D01*
G03Y80780I0J-1720D01*
G03X109300Y81370I0J1727D01*
G02X110000Y81110I301J-262D01*
G01Y79890D01*
G02X109300Y79630I-399J2D01*
G03X108000Y80220I-1300J-1137D01*
G03Y76780I0J-1720D01*
G03X109300Y77370I0J1727D01*
G02X110000Y77110I301J-262D01*
G01Y75890D01*
G02X109300Y75630I-399J2D01*
G03X108000Y76220I-1300J-1137D01*
G03Y72780I0J-1720D01*
G03X109300Y73370I0J1727D01*
G02X110000Y73110I301J-262D01*
G01Y16000D01*
X113000Y13000D01*
X117390D01*
G03X122610I2610J2986D01*
G01X128500D01*
X131000Y10500D01*
Y3000D01*
X129500Y1500D01*
X5000D01*
X2500Y4000D01*
Y26350D01*
G02X3200Y26610I398J1D01*
G03X6000Y25320I2800J2394D01*
G03Y32660I0J3670D01*
G03X3200Y31370I0J-3684D01*
G02X2500Y31630I-302J259D01*
G01Y36350D01*
G02X3200Y36610I398J1D01*
G03X6000Y35320I2800J2394D01*
G03Y42660I0J3670D01*
G03X3200Y41370I0J-3684D01*
G02X2500Y41630I-302J259D01*
G01Y46670D01*
G02X3220Y46910I399J3D01*
G03X6000Y45520I2780J2085D01*
G03Y52460I0J3470D01*
G03X3220Y51070I0J-3475D01*
G02X2500Y51310I-321J237D01*
G01Y56350D01*
G02X3200Y56610I398J1D01*
G03X6000Y55320I2800J2394D01*
G03Y62660I0J3670D01*
G03X3200Y61370I0J-3684D01*
G02X2500Y61630I-302J259D01*
G01Y66350D01*
G02X3200Y66610I398J1D01*
G03X6000Y65320I2800J2394D01*
G03Y72660I0J3670D01*
G03X3200Y71370I0J-3684D01*
G02X2500Y71630I-302J259D01*
G01Y76670D01*
G02X3220Y76910I399J3D01*
G03X6000Y75520I2780J2085D01*
G03Y82460I0J3470D01*
G03X3220Y81070I0J-3475D01*
G02X2500Y81310I-321J237D01*
G01Y86350D01*
G02X3200Y86610I398J1D01*
G03X6000Y85320I2800J2394D01*
G03Y92660I0J3670D01*
G03X3200Y91370I0J-3684D01*
G02X2500Y91630I-302J259D01*
G01Y96350D01*
G02X3200Y96610I398J1D01*
G03X6000Y95320I2800J2394D01*
G03Y102660I0J3670D01*
G03X3200Y101370I0J-3684D01*
G02X2500Y101630I-302J259D01*
G01Y106670D01*
G02X3220Y106910I399J3D01*
G03X6000Y105520I2780J2085D01*
G03Y112460I0J3470D01*
G03X3220Y111070I0J-3475D01*
G02X2500Y111310I-321J237D01*
G01Y116700D01*
G02X3220Y116940I400J-1D01*
G03X6010Y115530I2790J2055D01*
G03Y122470I0J3470D01*
G03X3220Y121060I0J-3465D01*
G02X2500Y121300I-320J241D01*
G01Y126380D01*
G02X3210Y126630I400J-3D01*
G03X6010Y125330I2800J2365D01*
G03Y132670I0J3670D01*
G03X3210Y131370I0J-3665D01*
G02X2500Y131620I-310J253D01*
G01Y281000D01*
X4500Y283000D01*
X39000D01*
X42500Y286500D01*
Y321000D01*
X44000Y322500D01*
G37*
G36*
G01X40000Y321000D02*
Y287500D01*
X37500Y285000D01*
X4500D01*
X2500Y287000D01*
Y321500D01*
X3500Y322500D01*
X38500D01*
X40000Y321000D01*
G37*
G36*
G01X24880Y360660D02*
X24870D01*
G03X27970Y357560I0J-3100D01*
G03X27390Y359370I-3101J4D01*
G02X27710Y360000I325J231D01*
G01X78040D01*
G02X78260Y359270I-4J-399D01*
G03X72750Y348890I7022J-10380D01*
G03X97810I12530J0D01*
G03X92300Y359270I-12532J0D01*
G02X92520Y360000I224J331D01*
G01X173000D01*
X195500Y337500D01*
X281500D01*
X282500Y336500D01*
Y270500D01*
X278500Y266500D01*
X259890D01*
G02X259500Y267010I-5J400D01*
G03X259570Y267490I-1649J486D01*
G03X258620Y269030I-1723J0D01*
G02X258460Y269590I182J355D01*
G03X258720Y270500I-1462J910D01*
G03X255280I-1720J0D01*
G03X256230Y268960I1723J0D01*
G02X256390Y268400I-182J-355D01*
G03X256130Y267490I1462J-910D01*
G03X256200Y267010I1719J6D01*
G02X255810Y266500I-385J-110D01*
G01X241210D01*
Y280040D01*
X241390Y280350D01*
Y280360D01*
G03X241710Y281350I-1388J995D01*
G03X238290I-1710J0D01*
G03X238610Y280360I1708J5D01*
G01Y280350D01*
X238790Y280040D01*
Y266500D01*
X223000D01*
X221010Y268490D01*
Y295420D01*
X221000Y295430D01*
Y296000D01*
X218000Y299000D01*
X185000D01*
X182500Y301500D01*
Y317500D01*
X176000Y324000D01*
X4500D01*
X2500Y326000D01*
Y383000D01*
X4000Y384500D01*
X20500D01*
X22000Y383000D01*
Y378730D01*
G03Y376390I2861J-1170D01*
G01Y364500D01*
X25160Y361340D01*
G02X24880Y360660I-285J-280D01*
G37*
G36*
G01X28500Y384500D02*
X222500D01*
X225000Y382000D01*
Y375630D01*
G02X224340Y375320I-402J-3D01*
G03X222000Y376170I-2348J-2817D01*
G03Y368830I0J-3670D01*
G03X224340Y369680I-8J3667D01*
G02X225000Y369370I258J-307D01*
G01Y365630D01*
G02X224340Y365320I-402J-3D01*
G03X222000Y366170I-2348J-2817D01*
G03Y358830I0J-3670D01*
G03X224340Y359680I-8J3667D01*
G02X225000Y359370I258J-307D01*
G01Y357500D01*
X227500Y355000D01*
X349500D01*
X351750Y357250D01*
X380250D01*
X400380Y337120D01*
G03X399930Y335950I1273J-1161D01*
G03X401650Y334230I1720J0D01*
G03X403080Y335000I0J1713D01*
G01X451000D01*
X457500Y341500D01*
Y351000D01*
X459000Y352500D01*
X471500D01*
X474750Y349250D01*
Y327750D01*
X475060Y327440D01*
G03X474780Y326500I1438J-940D01*
G03X476500Y324780I1720J0D01*
G03X477440Y325060I0J1718D01*
G01X484790Y317710D01*
Y317500D01*
G03X485000Y316820I1206J0D01*
G01Y309000D01*
X483000Y307000D01*
X473000D01*
X467500Y312500D01*
Y317000D01*
X464440Y320060D01*
G03X464720Y321000I-1438J940D01*
G03X463000Y322720I-1720J0D01*
G03X461290Y321180I0J-1719D01*
G01X461270Y321000D01*
X459000D01*
X458000Y320000D01*
X455000D01*
X450000Y325000D01*
X412000D01*
X403250Y316250D01*
G02X402690Y316240I-285J281D01*
G03X401500Y316720I-1190J-1235D01*
G03Y313280I0J-1720D01*
G03X402390Y313530I0J1709D01*
G02X403000Y313190I210J-341D01*
G01Y296230D01*
X402820Y296210D01*
G03Y292790I179J-1710D01*
G01X403000Y292770D01*
Y287620D01*
G02X402580Y287220I-399J-1D01*
G01X402500D01*
G03Y283780I0J-1720D01*
G01X402580D01*
G02X403000Y283380I21J-399D01*
G01Y265310D01*
G02X402390Y264970I-400J1D01*
G03X401500Y265220I-890J-1459D01*
G03Y261780I0J-1720D01*
G03X402390Y262030I0J1709D01*
G02X403000Y261690I210J-341D01*
G01Y221500D01*
X390500Y209000D01*
X370280D01*
X370260Y209180D01*
G03X366840I-1710J-179D01*
G01X366820Y209000D01*
X290690D01*
G02X290330Y209560I4J398D01*
G03X290470Y210250I-1582J680D01*
G03X288750Y211970I-1720J0D01*
G03X287520Y211450I0J-1715D01*
G02X286900Y211500I-290J276D01*
G03X285500Y212220I-1400J-1001D01*
G03X283780Y210500I0J-1720D01*
G03X284030Y209610I1709J0D01*
G02X283690Y209000I-341J-210D01*
G01X255030D01*
G02X254650Y209510I4J399D01*
G03X254720Y210000I-1651J486D01*
G03X251280I-1720J0D01*
G03X251350Y209510I1721J-4D01*
G02X250970Y209000I-384J-111D01*
G01X230500D01*
X226500Y213000D01*
Y227500D01*
X229000Y230000D01*
X240500D01*
X243500Y227000D01*
X246610D01*
G02X246870Y226300I-2J-399D01*
G03X246280Y225000I1137J-1300D01*
G03X249720I1720J0D01*
G03X249130Y226300I-1727J0D01*
G02X249390Y227000I262J301D01*
G01X250610D01*
G02X250870Y226300I-2J-399D01*
G03X250280Y225000I1137J-1300D01*
G03X253720I1720J0D01*
G03X253130Y226300I-1727J0D01*
G02X253390Y227000I262J301D01*
G01X264680D01*
G02X264920Y226280I3J-399D01*
G03X264230Y224900I1035J-1380D01*
G03X267670I1720J0D01*
G03X266980Y226280I-1725J0D01*
G02X267220Y227000I237J321D01*
G01X279350D01*
X279400Y226870D01*
G03X282600I1600J629D01*
G01X282650Y227000D01*
X315730D01*
G02X315970Y226280I3J-399D01*
G03X315280Y224900I1035J-1380D01*
G03X318720I1720J0D01*
G03X318030Y226280I-1725J0D01*
G02X318270Y227000I237J321D01*
G01X330690D01*
G02X331030Y226390I-1J-400D01*
G03X330780Y225500I1459J-890D01*
G03X334220I1720J0D01*
G03X333970Y226390I-1709J0D01*
G02X334310Y227000I341J210D01*
G01X362660D01*
G03X364340I840J1494D01*
G01X367000D01*
X380000Y240000D01*
Y254570D01*
G03X380270Y255500I-1451J926D01*
G03X380000Y256430I-1721J4D01*
G01Y257660D01*
G03Y259340I-1494J840D01*
G01Y310000D01*
X367130Y322870D01*
G02X367390Y323550I287J280D01*
G03X370090Y326440I-197J2890D01*
G03X367190Y329340I-2900J0D01*
G03X364300Y326640I0J-2897D01*
G02X363620Y326380I-400J27D01*
G01X357210Y332790D01*
G02X357320Y333440I279J287D01*
G03X358320Y335000I-717J1560D01*
G03X356600Y336720I-1720J0D01*
G03X355040Y335720I0J-1717D01*
G02X354390Y335610I-363J169D01*
G01X347500Y342500D01*
X332570D01*
X332520Y342630D01*
G03X329320I-1600J-629D01*
G01X329270Y342500D01*
X325650D01*
X325600Y342630D01*
G03X322400I-1600J-629D01*
G01X322350Y342500D01*
X318650D01*
X318600Y342630D01*
G03X315400I-1600J-629D01*
G01X315350Y342500D01*
X259730D01*
X259710Y342680D01*
G03X256290I-1710J-179D01*
G01X256270Y342500D01*
X195000D01*
X175000Y362500D01*
X146030D01*
G02X145650Y363010I4J399D01*
G03X145720Y363500I-1651J486D01*
G03X142280I-1720J0D01*
G03X142350Y363010I1721J-4D01*
G02X141970Y362500I-384J-111D01*
G01X131440D01*
G02X131060Y362990I7J398D01*
G03X131100Y363380I-1682J370D01*
G03X127660I-1720J0D01*
G03X127700Y362990I1722J-20D01*
G02X127320Y362500I-387J-92D01*
G01X29500D01*
X27000Y365000D01*
Y375310D01*
G03X27970Y377560I-2125J2250D01*
G03X27000Y379810I-3095J0D01*
G01Y383000D01*
X28500Y384500D01*
G37*
G36*
G01X460530Y117500D02*
X485500D01*
X487500Y115500D01*
Y87000D01*
X486000Y85500D01*
X475500D01*
X460500Y70500D01*
Y45500D01*
X457500Y42500D01*
Y3000D01*
X456500Y2000D01*
X379500D01*
X377500Y4000D01*
Y9500D01*
X376500Y10500D01*
X362000D01*
X357500Y15000D01*
X322500D01*
X318000Y10500D01*
X299500D01*
X295000Y15000D01*
X260000D01*
X255500Y10500D01*
X236500D01*
X232000Y15000D01*
X197500D01*
X193000Y10500D01*
X174500D01*
X170000Y15000D01*
X127500D01*
X122500Y20000D01*
X116500D01*
X115000Y21500D01*
Y65500D01*
X117000Y67500D01*
X424500D01*
X427500Y70500D01*
Y108000D01*
X437000Y117500D01*
X456470D01*
G02X456850Y116990I-4J-399D01*
G03X456780Y116500I1651J-486D01*
G03X460220I1720J0D01*
G03X460150Y116990I-1721J4D01*
G02X460530Y117500I384J111D01*
G37*
G36*
G01X535770Y384500D02*
X539500D01*
X542000Y382000D01*
Y4000D01*
X539500Y1500D01*
X462000D01*
X460000Y3500D01*
Y6660D01*
G02X460650Y6970I400J-3D01*
G03X462440Y6350I1790J2274D01*
G03Y12150I0J2900D01*
G03X460650Y11530I0J-2894D01*
G02X460000Y11840I-250J313D01*
G01Y14290D01*
G02X460630Y14610I399J-5D01*
G03X462440Y14030I1806J2521D01*
G03Y20230I0J3100D01*
G03X460630Y19650I-4J-3101D01*
G02X460000Y19970I-231J325D01*
G01Y22160D01*
G02X460630Y22480I399J-5D01*
G03X462440Y21900I1806J2521D01*
G03Y28100I0J3100D01*
G03X460630Y27520I-4J-3101D01*
G02X460000Y27840I-231J325D01*
G01Y30030D01*
G02X460630Y30350I399J-5D01*
G03X462440Y29770I1806J2521D01*
G03Y35970I0J3100D01*
G03X460630Y35390I-4J-3101D01*
G02X460000Y35710I-231J325D01*
G01Y37910D01*
G02X460630Y38230I399J-5D01*
G03X462440Y37650I1806J2521D01*
G03X465540Y40750I0J3100D01*
G03X462760Y43830I-3096J0D01*
G02X462500Y44500I36J399D01*
G01Y67110D01*
G02X463200Y67370I399J-2D01*
G03X464500Y66780I1300J1137D01*
G03Y70220I0J1720D01*
G03X463200Y69630I0J-1727D01*
G02X462500Y69890I-301J262D01*
G01Y70000D01*
X476500Y84000D01*
X487500D01*
X490000Y86500D01*
Y116500D01*
X487000Y119500D01*
X435500D01*
X424980Y108980D01*
G02X425000Y108870I-378J-125D01*
G01Y105130D01*
G02X424340Y104830I-399J2D01*
G03X421970Y105690I-2370J-2836D01*
G03Y98310I0J-3690D01*
G03X424340Y99170I0J3696D01*
G02X425000Y98870I261J-302D01*
G01Y95130D01*
G02X424340Y94830I-399J2D01*
G03X421970Y95690I-2370J-2836D01*
G03Y88310I0J-3690D01*
G03X424340Y89170I0J3696D01*
G02X425000Y88870I261J-302D01*
G01Y85130D01*
G02X424340Y84830I-399J2D01*
G03X421970Y85690I-2370J-2836D01*
G03Y78310I0J-3690D01*
G03X424340Y79170I0J3696D01*
G02X425000Y78870I261J-302D01*
G01Y75130D01*
G02X424340Y74830I-399J2D01*
G03X421970Y75690I-2370J-2836D01*
G03X418280Y72000I0J-3690D01*
G03X418680Y70330I3686J0D01*
G02X418320Y69750I-357J-180D01*
G01X375450D01*
Y74970D01*
G03X374940Y75480I-510J0D01*
G01X369000D01*
G03X368490Y74970I0J-510D01*
G01Y69750D01*
X362620D01*
G02X362260Y70330I-3J400D01*
G03X362660Y72000I-3286J1670D01*
G03X355280I-3690J0D01*
G03X355680Y70330I3686J0D01*
G02X355320Y69750I-357J-180D01*
G01X312450D01*
Y74970D01*
G03X311940Y75480I-510J0D01*
G01X306000D01*
G03X305490Y74970I0J-510D01*
G01Y69750D01*
X299620D01*
G02X299260Y70330I-3J400D01*
G03X299660Y72000I-3286J1670D01*
G03X292280I-3690J0D01*
G03X292680Y70330I3686J0D01*
G02X292320Y69750I-357J-180D01*
G01X249450D01*
Y74970D01*
G03X248940Y75480I-510J0D01*
G01X243000D01*
G03X242490Y74970I0J-510D01*
G01Y69750D01*
X236620D01*
G02X236260Y70330I-3J400D01*
G03X236660Y72000I-3286J1670D01*
G03X229280I-3690J0D01*
G03X229680Y70330I3686J0D01*
G02X229320Y69750I-357J-180D01*
G01X186450D01*
Y74970D01*
G03X185940Y75480I-510J0D01*
G01X180000D01*
G03X179490Y74970I0J-510D01*
G01Y69750D01*
X173620D01*
G02X173260Y70330I-3J400D01*
G03X173660Y72000I-3286J1670D01*
G03X166280I-3690J0D01*
G03X166680Y70330I3686J0D01*
G02X166320Y69750I-357J-180D01*
G01X123450D01*
Y74970D01*
G03X122940Y75480I-510J0D01*
G01X117000D01*
G03X116490Y74970I0J-510D01*
G01Y69750D01*
X114250D01*
X112000Y72000D01*
Y114720D01*
G02X112620Y115060I402J3D01*
G03X113550Y114780I940J1437D01*
G03X115270Y116500I0J1720D01*
G03X114740Y117740I-1716J0D01*
G02Y118300I283J280D01*
G03X115220Y119500I-1243J1193D01*
G03X113500Y121220I-1720J0D01*
G03X112610Y120970I0J-1709D01*
G02X112000Y121310I-210J341D01*
G01Y121690D01*
G02X112610Y122030I400J-1D01*
G03X113500Y121780I890J1459D01*
G03Y125220I0J1720D01*
G03X112610Y124970I0J-1709D01*
G02X112000Y125310I-210J341D01*
G01Y134500D01*
X115000Y137500D01*
X135000D01*
X138000Y140500D01*
Y147380D01*
G02X138570Y147750I401J6D01*
G03X139870Y147460I1309J2808D01*
G03X141960Y148270I0J3101D01*
G01X142010Y148320D01*
X142290D01*
Y148000D01*
G03X145710I1710J0D01*
G01Y158000D01*
G03X142290I-1710J0D01*
G01Y153420D01*
G02X141660Y153090I-400J-3D01*
G03X139870Y153660I-1790J-2526D01*
G03X137160Y152060I0J-3095D01*
G02X136530Y151970I-349J196D01*
G01X135000Y153500D01*
X125110D01*
X125080Y153510D01*
G03X124130Y153660I-953J-2950D01*
G03X123180Y153510I3J-3100D01*
G01X123150Y153500D01*
X120000D01*
X117500Y156000D01*
Y246500D01*
X118500Y247500D01*
X207500D01*
X208500Y246500D01*
Y198000D01*
X205500Y195000D01*
Y183500D01*
X208500Y180500D01*
Y159500D01*
X207710Y158710D01*
X207210Y159210D01*
G03X206000Y159710I-1210J-1214D01*
G03X204290Y158000I0J-1710D01*
G03X204790Y156790I1714J0D01*
G01X205290Y156290D01*
X204500Y155500D01*
X194000D01*
X192820Y156680D01*
G02X192990Y157350I279J286D01*
G03X194220Y158910I-489J1650D01*
G02X194880Y159200I400J-14D01*
G03X196000Y158780I1125J1298D01*
G03Y162220I0J1720D01*
G03X194280Y160590I0J-1722D01*
G02X193620Y160300I-400J14D01*
G03X192500Y160720I-1125J-1298D01*
G03X190780Y159000I0J-1720D01*
G03X191360Y157710I1725J0D01*
G02X191100Y157010I-263J-301D01*
G01X178580D01*
X178570Y157000D01*
X178500D01*
X177000Y155500D01*
Y155430D01*
X176990Y155420D01*
Y146570D01*
G02X176570Y146170I-399J-1D01*
G01X176500D01*
G03Y142730I0J-1720D01*
G03X177720Y143240I0J1714D01*
G02X178010I145J-138D01*
G01X179000Y142250D01*
X213750D01*
X222000Y150500D01*
Y164470D01*
G03Y166530I-1390J1030D01*
G01Y187000D01*
X225000Y190000D01*
X267550D01*
G02X267930Y189480I-2J-401D01*
G03X267840Y188940I1629J-549D01*
G03X271280I1720J0D01*
G03X271190Y189480I-1719J-9D01*
G02X271570Y190000I382J119D01*
G01X342500D01*
X347500Y185000D01*
Y175500D01*
X355210Y167790D01*
X355220Y167710D01*
G03X359000Y164200I3780J280D01*
G03X362730Y167330I0J3788D01*
G01X362760Y167500D01*
X415000D01*
X429750Y152750D01*
X432250D01*
X432500Y152500D01*
X444190D01*
G02X444530Y151890I-1J-400D01*
G03X444280Y151000I1459J-890D01*
G03X447720I1720J0D01*
G03X447470Y151890I-1709J0D01*
G02X447810Y152500I341J210D01*
G01X482000D01*
X484500Y155000D01*
Y168500D01*
X478000Y175000D01*
X447500D01*
X431500Y191000D01*
X428320D01*
G03X427500Y191210I-820J-1496D01*
G01X419790D01*
X416250Y194750D01*
Y236320D01*
G03Y238680I-1246J1180D01*
G01Y239820D01*
G03Y242180I-1246J1180D01*
G01Y259400D01*
G02X416710Y259800I401J4D01*
G03X416950Y259780I262J1698D01*
G03Y263220I0J1720D01*
G03X416710Y263200I22J-1718D01*
G02X416250Y263600I-59J396D01*
G01Y284240D01*
G02X416900Y284560I401J6D01*
G03X417960Y284190I1065J1348D01*
G03Y287630I0J1720D01*
G03X416900Y287260I5J-1718D01*
G02X416250Y287580I-249J314D01*
G01Y288250D01*
X419500Y291500D01*
X423290D01*
Y269310D01*
X423110Y269000D01*
Y268990D01*
G03X422790Y268000I1388J-995D01*
G03X426210I1710J0D01*
G03X425890Y268990I-1708J-5D01*
G01Y269000D01*
X425710Y269310D01*
Y291500D01*
X456000D01*
X458000Y289500D01*
Y273500D01*
X456500Y272000D01*
X447000D01*
X445500Y270500D01*
Y264000D01*
X447500Y262000D01*
X452500D01*
X453500Y261000D01*
Y255500D01*
X458000Y251000D01*
Y229000D01*
X451500Y222500D01*
Y216000D01*
X454000Y213500D01*
X464500D01*
X466500Y215500D01*
Y263890D01*
X466680Y263910D01*
G03X468220Y265620I-179J1710D01*
G03X468210Y265830I-1721J23D01*
G02X468590Y266280I395J52D01*
G03X470270Y268000I-40J1720D01*
G03X468550Y269720I-1720J0D01*
G03X467210Y269080I0J-1723D01*
G02X466500Y269330I-311J251D01*
G01Y288000D01*
X468500Y290000D01*
X474850D01*
X474900Y289870D01*
G03X478100I1600J629D01*
G01X478150Y290000D01*
X479000D01*
X480000Y289000D01*
Y204000D01*
X482500Y201500D01*
X497500D01*
X501000Y205000D01*
Y298000D01*
X503500Y300500D01*
Y313000D01*
X500500Y316000D01*
X488720D01*
X488700Y316170D01*
G03X488360Y316860I-1202J-163D01*
G01X487210Y318000D01*
Y326690D01*
X487390Y327000D01*
Y327010D01*
G03X487710Y328000I-1388J995D01*
G03X486000Y329710I-1710J0D01*
G03X485510Y329640I-6J-1711D01*
G02X485000Y330020I-111J384D01*
G01Y354500D01*
X482000Y357500D01*
X444000D01*
X442500Y356000D01*
Y348540D01*
G03X442460Y348060I3059J-497D01*
G03X442500Y347580I3099J17D01*
G01Y339000D01*
X440500Y337000D01*
X420340D01*
G02X420160Y337750I4J398D01*
G03X426940Y348890I-5762J11140D01*
G03X401880I-12530J0D01*
G03X408660Y337750I12542J0D01*
G02X408480Y337000I-184J-352D01*
G01X404000D01*
X382560Y358440D01*
G02X382760Y359110I283J280D01*
G03X385470Y362500I-765J3390D01*
G03X378530I-3470J0D01*
G03X379090Y360620I3467J9D01*
G02X378750Y360000I-337J-218D01*
G01X375490D01*
G02X375140Y360610I-7J401D01*
G03X375670Y362500I-3137J1899D01*
G03X368330I-3670J0D01*
G03X368860Y360610I3667J9D01*
G02X368510Y360000I-343J-209D01*
G01X365490D01*
G02X365140Y360610I-7J401D01*
G03X365670Y362500I-3137J1899D01*
G03X358330I-3670J0D01*
G03X358860Y360610I3667J9D01*
G02X358510Y360000I-343J-209D01*
G01X355490D01*
G02X355140Y360610I-7J401D01*
G03X355670Y362500I-3137J1899D01*
G03X348330I-3670J0D01*
G03X350430Y359180I3674J0D01*
G02X350540Y358540I-173J-359D01*
G01X348500Y356500D01*
X230000D01*
X227500Y359000D01*
Y381500D01*
X230500Y384500D01*
X430180D01*
G02X430500Y383860I0J-400D01*
G03X429990Y382360I1970J-1506D01*
G01Y379600D01*
G03X434950I2480J5D01*
G01Y382360D01*
G03X434440Y383860I-2480J-6D01*
G02X434760Y384500I320J240D01*
G01X464240D01*
G02X464560Y383860I0J-400D01*
G03X464050Y382360I1970J-1506D01*
G01Y379600D01*
G03X469010I2480J5D01*
G01Y382360D01*
G03X468500Y383860I-2480J-6D01*
G02X468820Y384500I320J240D01*
G01X530230D01*
G02X530390Y383740I-7J-398D01*
G03X526580Y377870I2617J-5870D01*
G03X539420I6420J0D01*
G03X535610Y383740I-6427J0D01*
G02X535770Y384500I167J362D01*
G37*
G36*
G01X416490Y323990D02*
X449510D01*
X454500Y319000D01*
X454570D01*
X454580Y318990D01*
X458420D01*
X458430Y319000D01*
X463000D01*
X464500Y317500D01*
Y313000D01*
X463500Y312000D01*
X449500D01*
X446500Y315000D01*
X427500D01*
X418940Y306440D01*
G03X418000Y306720I-940J-1438D01*
G03X416280Y305000I0J-1720D01*
G03X416560Y304060I1718J0D01*
G01X414500Y302000D01*
Y272000D01*
X412500Y270000D01*
Y215870D01*
G03X412290Y215050I1496J-820D01*
G01Y194000D01*
G03X412480Y193220I1696J0D01*
G01X412500Y193180D01*
Y192500D01*
X417000Y188000D01*
X417680D01*
X417720Y187980D01*
G03X418500Y187790I780J1506D01*
G01X424710D01*
X443500Y169000D01*
X480500D01*
X482500Y167000D01*
Y156500D01*
X481000Y155000D01*
X433000D01*
X415500Y172500D01*
X357500D01*
X352500Y177500D01*
Y187500D01*
X345500Y194500D01*
X266400D01*
G03X263600I-1400J-1001D01*
G01X224000D01*
X220000Y190500D01*
Y167110D01*
X219890Y167060D01*
G03Y163940I734J-1560D01*
G01X220000Y163890D01*
Y152000D01*
X212000Y144000D01*
X179500D01*
X178000Y145500D01*
Y155000D01*
X179000Y156000D01*
X191500D01*
X193500Y154000D01*
X194580D01*
Y153640D01*
X194410Y153600D01*
G03X191900Y150560I586J-3040D01*
G03X198100I3100J0D01*
G03X196540Y153250I-3099J0D01*
G02X196730Y154000I193J350D01*
G01X201140D01*
G02X201330Y153250I-3J-400D01*
G03X199770Y150560I1539J-2690D01*
G03X205970I3100J0D01*
G03X204410Y153250I-3099J0D01*
G02X204600Y154000I193J350D01*
G01X206000D01*
X206080Y154080D01*
X206320Y153980D01*
Y151940D01*
G03X209740I1710J0D01*
G01Y155970D01*
G03X209340Y157080I-1713J10D01*
G02X209350Y157350I149J130D01*
G01X210500Y158500D01*
Y181500D01*
X207500Y184500D01*
Y194000D01*
X210500Y197000D01*
Y221350D01*
X210630Y221400D01*
G03Y224600I-629J1600D01*
G01X210500Y224650D01*
Y225350D01*
X210630Y225400D01*
G03Y228600I-629J1600D01*
G01X210500Y228650D01*
Y229350D01*
X210630Y229400D01*
G03Y232600I-629J1600D01*
G01X210500Y232650D01*
Y246000D01*
X212000Y247500D01*
X223500D01*
X225250Y249250D01*
G02X225810Y249260I285J-281D01*
G03X227000Y248780I1190J1235D01*
G03Y252220I0J1720D01*
G03X226110Y251970I0J-1709D01*
G02X225500Y252310I-210J341D01*
G01Y253190D01*
G02X226110Y253530I400J-1D01*
G03X227000Y253280I890J1459D01*
G03Y256720I0J1720D01*
G03X226110Y256470I0J-1709D01*
G02X225500Y256810I-210J341D01*
G01Y262000D01*
X227500Y264000D01*
X237500D01*
X239000Y262500D01*
Y256000D01*
X242500Y252500D01*
Y232500D01*
X241500Y231500D01*
X227500D01*
X225000Y229000D01*
Y217500D01*
G02X224600Y217100I-400J0D01*
G03Y213660I20J-1720D01*
G02X225000Y213260I0J-400D01*
G01Y211500D01*
X230000Y206500D01*
X322270D01*
X322290Y206330D01*
G03X325710I1710J225D01*
G01X325730Y206500D01*
X395000D01*
X406500Y218000D01*
Y225380D01*
G02X406920Y225780I399J1D01*
G01X407000D01*
G03Y229220I0J1720D01*
G01X406920D01*
G02X406500Y229620I-21J399D01*
G01Y249470D01*
G02X407010Y249850I399J-4D01*
G03X407500Y249780I486J1651D01*
G03Y253220I0J1720D01*
G03X407010Y253150I-4J-1721D01*
G02X406500Y253530I-111J384D01*
G01Y262420D01*
G03Y264580I-1345J1080D01*
G01Y301970D01*
G02X407010Y302350I399J-4D01*
G03X407500Y302280I486J1651D01*
G03Y305720I0J1720D01*
G03X407010Y305650I-4J-1721D01*
G02X406500Y306030I-111J384D01*
G01Y308470D01*
G02X407010Y308850I399J-4D01*
G03X407500Y308780I486J1651D01*
G03Y312220I0J1720D01*
G03X407010Y312150I-4J-1721D01*
G02X406500Y312530I-111J384D01*
G01Y314000D01*
X416490Y323990D01*
G37*
G36*
G01X334000Y326500D02*
X356000D01*
X360000Y322500D01*
Y318530D01*
G02X359490Y318150I-399J4D01*
G03X359000Y318220I-486J-1651D01*
G03X357280Y316500I0J-1720D01*
G03X358950Y314780I1721J0D01*
G02X359330Y314400I-18J-398D01*
G03X360000Y313140I1717J105D01*
G01Y274000D01*
G02X359390Y273660I-400J1D01*
G03X358500Y273910I-890J-1459D01*
G03X356780Y272190I0J-1720D01*
G03X357270Y270990I1714J0D01*
G02Y270700I-140J-145D01*
G03X356780Y269500I1224J-1200D01*
G03X358500Y267780I1720J0D01*
G03X359390Y268030I0J1709D01*
G02X360000Y267690I210J-341D01*
G01Y246000D01*
X359000Y245000D01*
X351000D01*
X350000Y246000D01*
Y276500D01*
X344000Y282500D01*
X297500D01*
X292500Y277500D01*
Y259500D01*
X288000Y255000D01*
X243500D01*
X242000Y256500D01*
Y262500D01*
X243000Y263500D01*
X256450D01*
G03X259250I1400J1001D01*
G01X281000D01*
X285000Y267500D01*
Y282050D01*
G02X285510Y282430I399J-4D01*
G03X286000Y282360I486J1651D01*
G03Y285800I0J1720D01*
G03X285510Y285730I-4J-1721D01*
G02X285000Y286110I-111J384D01*
G01Y321000D01*
X290000Y326000D01*
X300500D01*
X301500Y325000D01*
Y321000D01*
X300500Y320000D01*
X292500D01*
X290500Y318000D01*
Y297000D01*
X292500Y295000D01*
X347170D01*
G03X348690Y294090I1520J814D01*
G03X350410Y295830I0J1720D01*
G01Y295910D01*
X352500Y298000D01*
Y318500D01*
X350500Y320500D01*
X333500D01*
X333000Y321000D01*
Y325500D01*
X334000Y326500D01*
G37*
G36*
G01X240430Y280100D02*
X240860Y280860D01*
X240000Y281480D01*
X239140Y280860D01*
X239570Y280100D01*
G03X240430I430J250D01*
G37*
G36*
G01X312430Y338250D02*
X312860Y339010D01*
X312000Y339620D01*
X311140Y339010D01*
X311570Y338250D01*
G03X312430I430J250D01*
G37*
G36*
G01X331330Y238260D02*
X330240Y237960D01*
X330440Y236940D01*
X331460Y236740D01*
X331760Y237830D01*
G03X331330Y238260I-340J90D01*
G37*
G36*
G01X329200Y244970D02*
X328640Y243990D01*
X329500Y243410D01*
X330360Y243990D01*
X329800Y244970D01*
G03X329200I-300J-170D01*
G37*
G36*
G01X335300Y265530D02*
X335860Y266510D01*
X335000Y267090D01*
X334140Y266510D01*
X334700Y265530D01*
G03X335300I300J170D01*
G37*
G36*
G01X330300D02*
X330860Y266510D01*
X330000Y267090D01*
X329140Y266510D01*
X329700Y265530D01*
G03X330300I300J170D01*
G37*
G36*
G01X424070Y269250D02*
X423640Y268490D01*
X424500Y267880D01*
X425360Y268490D01*
X424930Y269250D01*
G03X424070I-430J-250D01*
G37*
G36*
G01X454000Y302500D02*
X462500D01*
X465000Y300000D01*
Y266460D01*
G03Y264780I1494J-840D01*
G01Y263220D01*
G03Y261540I1494J-840D01*
G01Y216500D01*
X464000Y215500D01*
X455000D01*
X453500Y217000D01*
Y221500D01*
X460000Y228000D01*
Y251500D01*
X455000Y256500D01*
Y262000D01*
X453500Y263500D01*
X448000D01*
X447000Y264500D01*
Y269500D01*
X448000Y270500D01*
X457500D01*
X460000Y273000D01*
Y290000D01*
X457000Y293000D01*
X446650D01*
X446600Y293130D01*
G03X443400I-1600J-629D01*
G01X443350Y293000D01*
X429080D01*
G02X428700Y293510I4J399D01*
G03X428770Y294000I-1651J486D01*
G03X425330I-1720J0D01*
G03X425400Y293510I1721J-4D01*
G02X425020Y293000I-384J-111D01*
G01X417500D01*
X416000Y294500D01*
Y299000D01*
X417000Y300000D01*
X451500D01*
X454000Y302500D01*
G37*
G36*
G01X491500Y312000D02*
X499500D01*
X501000Y310500D01*
Y303500D01*
X497500Y300000D01*
Y266310D01*
G02X496890Y265970I-400J1D01*
G03X496000Y266220I-890J-1459D01*
G03Y262780I0J-1720D01*
G03X496890Y263030I0J1709D01*
G02X497500Y262690I210J-341D01*
G01Y260310D01*
G02X496890Y259970I-400J1D01*
G03X496000Y260220I-890J-1459D01*
G03Y256780I0J-1720D01*
G03X496890Y257030I0J1709D01*
G02X497500Y256690I210J-341D01*
G01Y254310D01*
G02X496890Y253970I-400J1D01*
G03X496000Y254220I-890J-1459D01*
G03Y250780I0J-1720D01*
G03X496890Y251030I0J1709D01*
G02X497500Y250690I210J-341D01*
G01Y248310D01*
G02X496890Y247970I-400J1D01*
G03X496000Y248220I-890J-1459D01*
G03Y244780I0J-1720D01*
G03X496890Y245030I0J1709D01*
G02X497500Y244690I210J-341D01*
G01Y242310D01*
G02X496890Y241970I-400J1D01*
G03X496000Y242220I-890J-1459D01*
G03Y238780I0J-1720D01*
G03X496890Y239030I0J1709D01*
G02X497500Y238690I210J-341D01*
G01Y236310D01*
G02X496890Y235970I-400J1D01*
G03X496000Y236220I-890J-1459D01*
G03Y232780I0J-1720D01*
G03X496890Y233030I0J1709D01*
G02X497500Y232690I210J-341D01*
G01Y206000D01*
X495500Y204000D01*
X484000D01*
X482500Y205500D01*
Y256690D01*
G02X483110Y257030I400J-1D01*
G03X484000Y256780I890J1459D01*
G03Y260220I0J1720D01*
G03X483110Y259970I0J-1709D01*
G02X482500Y260310I-210J341D01*
G01Y262690D01*
G02X483110Y263030I400J-1D01*
G03X484000Y262780I890J1459D01*
G03Y266220I0J1720D01*
G03X483110Y265970I0J-1709D01*
G02X482500Y266310I-210J341D01*
G01Y302790D01*
X488360Y308640D01*
G03X488650Y309120I-865J850D01*
G01X488660Y309160D01*
X491500Y312000D01*
G37*
G36*
G01X486430Y326750D02*
X486860Y327510D01*
X486000Y328120D01*
X485140Y327510D01*
X485570Y326750D01*
G03X486430I430J250D01*
G37*
%LPC*%
G75*
G36*
G01X84380Y94690D02*
G03X83840Y94670I-259J-304D01*
G02X82620Y94160I-1220J1204D01*
G02Y97600I0J1720D01*
G02X83740Y97190I5J-1722D01*
G03X84280Y97210I259J304D01*
G02X85500Y97720I1220J-1204D01*
G02Y94280I0J-1720D01*
G02X84380Y94690I-5J1722D01*
G37*
G36*
G01X39320Y155660D02*
X39140Y155970D01*
Y155980D01*
G02X38820Y156970I1388J995D01*
G02X42240I1710J0D01*
G02X41920Y155980I-1708J5D01*
G01Y155970D01*
X41740Y155660D01*
Y139340D01*
X41920Y139030D01*
Y139020D01*
G02X42240Y138030I-1388J-995D01*
G02X38820I-1710J0D01*
G02X39140Y139020I1708J-5D01*
G01Y139030D01*
X39320Y139340D01*
Y155660D01*
G37*
G36*
G01X165280Y291780D02*
G03X164720I-280J-278D01*
G02X163500Y291280I-1214J1223D01*
G02Y294720I0J1720D01*
G02X164720Y294220I6J-1723D01*
G03X165280I280J278D01*
G02X166500Y294720I1214J-1223D01*
G02Y291280I0J-1720D01*
G02X165280Y291780I-6J1723D01*
G37*
G36*
G01X97220Y97220D02*
G03X97780I280J278D01*
G02X99000Y97720I1214J-1223D01*
G02Y94280I0J-1720D01*
G02X97780Y94780I-6J1723D01*
G03X97220I-280J-278D01*
G02X96000Y94280I-1214J1223D01*
G02X94780Y94780I-6J1723D01*
G03X94220I-280J-278D01*
G02X93000Y94280I-1214J1223D01*
G02X91580Y95030I0J1719D01*
G03X90920I-330J-226D01*
G02X89500Y94280I-1420J969D01*
G02Y97720I0J1720D01*
G02X90920Y96970I0J-1719D01*
G03X91580I330J226D01*
G02X93000Y97720I1420J-969D01*
G02X94220Y97220I6J-1723D01*
G03X94780I280J278D01*
G02X96000Y97720I1214J-1223D01*
G02X97220Y97220I6J-1723D01*
G37*
G36*
G01X90680Y102750D02*
G02X89500Y102280I-1180J1246D01*
G02Y105720I0J1720D01*
G02X91160Y104440I0J-1716D01*
G03X91820Y104250I387J104D01*
G02X93000Y104720I1180J-1246D01*
G02X94220Y104220I6J-1723D01*
G03X94780I280J278D01*
G02X96000Y104720I1214J-1223D01*
G02X97220Y104220I6J-1723D01*
G03X97780I280J278D01*
G02X99000Y104720I1214J-1223D01*
G02X100720Y103000I0J-1720D01*
G02X100220Y101780I-1723J-6D01*
G03Y101220I278J-280D01*
G02X100540Y100760I-1234J-1200D01*
G03X101060Y100580I355J183D01*
G02X101750Y100720I680J-1582D01*
G02Y97280I0J-1720D01*
G02X100210Y98240I0J1715D01*
G03X99690Y98420I-355J-183D01*
G02X99000Y98280I-680J1582D01*
G02X97280Y100000I0J1720D01*
G02X97780Y101220I1723J6D01*
G03Y101780I-278J280D01*
G03X97220I-280J-278D01*
G02X96000Y101280I-1214J1223D01*
G02X94780Y101780I-6J1723D01*
G03X94220I-280J-278D01*
G03Y101220I278J-280D01*
G02X94720Y100000I-1223J-1214D01*
G02X93000Y98280I-1720J0D01*
G02X91580Y99030I0J1719D01*
G03X90920I-330J-226D01*
G02X89500Y98280I-1420J969D01*
G02Y101720I0J1720D01*
G02X90920Y100970I0J-1719D01*
G03X91580I330J226D01*
G02X91780Y101220I1439J-946D01*
G03Y101780I-278J280D01*
G02X91340Y102560I1228J1207D01*
G03X90680Y102750I-387J-104D01*
G37*
G36*
G01X94940Y271650D02*
G02X92330Y275160I1055J3510D01*
G02X99670I3670J0D01*
G02X97060Y271650I-3665J0D01*
G03X96950Y270930I113J-386D01*
G02X97720Y269500I-943J-1430D01*
G02X94280I-1720J0D01*
G02X95050Y270930I1713J0D01*
G03X94940Y271650I-223J334D01*
G37*
G36*
G01X270350Y296510D02*
G02X270280Y297000I1651J486D01*
G02X272000Y295280I1720J0D01*
G02X271620Y295320I-11J1721D01*
G03X271150Y294820I-87J-389D01*
G02X271220Y294330I-1651J-486D01*
G02X269500Y296050I-1720J0D01*
G02X269880Y296010I11J-1721D01*
G03X270350Y296510I87J389D01*
G37*
G36*
G01X360480Y213100D02*
G03X360450Y213680I-291J276D01*
G02X359830Y215000I1095J1320D01*
G02X363270I1720J0D01*
G02X362800Y213820I-1716J0D01*
G03X362830Y213240I291J-276D01*
G02X363450Y211920I-1095J-1320D01*
G02X360010I-1720J0D01*
G02X360480Y213100I1716J0D01*
G37*
G36*
G01X258130Y220680D02*
G03X258400Y221250I-86J390D01*
G02X258230Y222000I1551J746D01*
G02X261670I1720J0D01*
G02X260320Y220320I-1720J0D01*
G03X260050Y219750I86J-390D01*
G02X260220Y219000I-1551J-746D01*
G02X256780I-1720J0D01*
G02X258130Y220680I1720J0D01*
G37*
G36*
G01X333760Y220740D02*
G03Y221300I-283J280D01*
G02X333280Y222500I1243J1193D01*
G02X336720I1720J0D01*
G02X336190Y221260I-1716J0D01*
G03Y220700I283J-280D01*
G02X336670Y219500I-1243J-1193D01*
G02X333230I-1720J0D01*
G02X333760Y220740I1716J0D01*
G37*
G36*
G01X383780Y285220D02*
G03Y285780I-278J280D01*
G02X383280Y287000I1223J1214D01*
G02X386720I1720J0D01*
G02X386220Y285780I-1723J-6D01*
G03Y285220I278J-280D01*
G02X386720Y284000I-1223J-1214D01*
G02X383280I-1720J0D01*
G02X383780Y285220I1723J6D01*
G37*
G36*
G01X373960Y329340D02*
G03X374130Y329950I-146J369D01*
G02X373780Y331000I1373J1041D01*
G02X377220I1720J0D01*
G02X376640Y329710I-1725J0D01*
G03X376690Y329070I265J-301D01*
G02X378160Y326440I-1618J-2630D01*
G02X371960I-3100J0D01*
G02X373960Y329340I3103J0D01*
G37*
G36*
G01X125130Y381220D02*
G03X125790I330J229D01*
G02X130050I2130J-1465D01*
G03X130710I330J229D01*
G02X132840Y382340I2130J-1465D01*
G02Y377160I0J-2590D01*
G02X130710Y378280I0J2585D01*
G03X130050I-330J-229D01*
G02X125790I-2130J1465D01*
G03X125130I-330J-229D01*
G02X123000Y377160I-2130J1465D01*
G02X120770Y378440I0J2583D01*
G03X120090Y378450I-343J-205D01*
G02X116070I-2010J1308D01*
G03X115390Y378440I-337J-215D01*
G02X113160Y377160I-2230J1303D01*
G02Y382340I0J2590D01*
G02X115390Y381060I0J-2583D01*
G03X116070Y381050I343J205D01*
G02X120090I2010J-1308D01*
G03X120770Y381060I337J215D01*
G02X123000Y382340I2230J-1303D01*
G02X125130Y381220I0J-2585D01*
G37*
G36*
G01X395290Y275310D02*
G02X395280Y275500I1710J185D01*
G02X397000Y273780I1720J0D01*
G02X396480Y273860I0J1730D01*
G03X395960Y273440I-123J-380D01*
G02X395970Y273250I-1710J-185D01*
G02X394250Y274970I-1720J0D01*
G02X394770Y274890I0J-1730D01*
G03X395290Y275310I123J380D01*
G37*
G36*
G01X140600Y37500D02*
G02Y39500I1402J1000D01*
G02X140280Y40500I1402J1000D01*
G02X143720I1720J0D01*
G02X143400Y39500I-1723J0D01*
G02Y37500I-1402J-1000D01*
G02X143720Y36500I-1402J-1000D01*
G02X140280I-1720J0D01*
G02X140600Y37500I1723J0D01*
G37*
G36*
G01X146600D02*
G02Y39500I1403J1000D01*
G02X146280Y40500I1403J1000D01*
G02X148000Y42220I1720J0D01*
G02X149220Y41720I6J-1723D01*
G03X149780I280J278D01*
G02X151000Y42220I1214J-1223D01*
G02X152720Y40500I0J-1720D01*
G02X152400Y39500I-1723J0D01*
G02Y37500I-1403J-1000D01*
G02X152720Y36500I-1403J-1000D01*
G02X151000Y34780I-1720J0D01*
G02X149780Y35280I-6J1723D01*
G03X149220I-280J-278D01*
G02X148000Y34780I-1214J1223D01*
G02X146280Y36500I0J1720D01*
G02X146600Y37500I1723J0D01*
G37*
G36*
G01X155600D02*
G02Y39500I1403J1000D01*
G02X155280Y40500I1403J1000D01*
G02X157000Y42220I1720J0D01*
G02X158220Y41720I6J-1723D01*
G03X158780I280J278D01*
G02X160000Y42220I1214J-1223D01*
G02X161720Y40500I0J-1720D01*
G02X161400Y39500I-1723J0D01*
G02Y37500I-1403J-1000D01*
G02X161720Y36500I-1403J-1000D01*
G02X160000Y34780I-1720J0D01*
G02X158780Y35280I-6J1723D01*
G03X158220I-280J-278D01*
G02X157000Y34780I-1214J1223D01*
G02X155280Y36500I0J1720D01*
G02X155600Y37500I1723J0D01*
G37*
G36*
G01X164600D02*
G02Y39500I1402J1000D01*
G02X164280Y40500I1402J1000D01*
G02X166000Y42220I1720J0D01*
G02X167220Y41720I6J-1723D01*
G03X167780I280J278D01*
G02X169000Y42220I1214J-1223D01*
G02X170720Y40500I0J-1720D01*
G02X170400Y39500I-1723J0D01*
G02Y37500I-1402J-1000D01*
G02X170720Y36500I-1402J-1000D01*
G02X169000Y34780I-1720J0D01*
G02X167780Y35280I-6J1723D01*
G03X167220I-280J-278D01*
G02X166000Y34780I-1214J1223D01*
G02X164280Y36500I0J1720D01*
G02X164600Y37500I1723J0D01*
G37*
G36*
G01X173600D02*
G02Y39500I1403J1000D01*
G02X173280Y40500I1403J1000D01*
G02X176720I1720J0D01*
G02X176400Y39500I-1723J0D01*
G02Y37500I-1403J-1000D01*
G02X176720Y36500I-1403J-1000D01*
G02X173280I-1720J0D01*
G02X173600Y37500I1723J0D01*
G37*
G36*
G01X203600D02*
G02Y39500I1403J1000D01*
G02X203280Y40500I1403J1000D01*
G02X206720I1720J0D01*
G02X206400Y39500I-1722J0D01*
G02Y37500I-1403J-1000D01*
G02X206720Y36500I-1403J-1000D01*
G02X203280I-1720J0D01*
G02X203600Y37500I1723J0D01*
G37*
G36*
G01X209600D02*
G02Y39500I1403J1000D01*
G02X209280Y40500I1403J1000D01*
G02X211000Y42220I1720J0D01*
G02X212220Y41720I6J-1723D01*
G03X212780I280J278D01*
G02X214000Y42220I1214J-1223D01*
G02X215720Y40500I0J-1720D01*
G02X215400Y39500I-1723J0D01*
G02Y37500I-1403J-1000D01*
G02X215720Y36500I-1403J-1000D01*
G02X214000Y34780I-1720J0D01*
G02X212780Y35280I-6J1723D01*
G03X212220I-280J-278D01*
G02X211000Y34780I-1214J1223D01*
G02X209280Y36500I0J1720D01*
G02X209600Y37500I1722J0D01*
G37*
G36*
G01X218600D02*
G02Y39500I1403J1000D01*
G02X218280Y40500I1403J1000D01*
G02X220000Y42220I1720J0D01*
G02X221220Y41720I6J-1723D01*
G03X221780I280J278D01*
G02X223000Y42220I1214J-1223D01*
G02X224720Y40500I0J-1720D01*
G02X224400Y39500I-1722J0D01*
G02Y37500I-1403J-1000D01*
G02X224720Y36500I-1403J-1000D01*
G02X223000Y34780I-1720J0D01*
G02X221780Y35280I-6J1723D01*
G03X221220I-280J-278D01*
G02X220000Y34780I-1214J1223D01*
G02X218280Y36500I0J1720D01*
G02X218600Y37500I1722J0D01*
G37*
G36*
G01X227600D02*
G02Y39500I1402J1000D01*
G02X227280Y40500I1402J1000D01*
G02X229000Y42220I1720J0D01*
G02X230220Y41720I6J-1723D01*
G03X230780I280J278D01*
G02X232000Y42220I1214J-1223D01*
G02X233720Y40500I0J-1720D01*
G02X233400Y39500I-1722J0D01*
G02Y37500I-1403J-1000D01*
G02X233720Y36500I-1403J-1000D01*
G02X232000Y34780I-1720J0D01*
G02X230780Y35280I-6J1723D01*
G03X230220I-280J-278D01*
G02X229000Y34780I-1214J1223D01*
G02X227280Y36500I0J1720D01*
G02X227600Y37500I1722J0D01*
G37*
G36*
G01X236600D02*
G02Y39500I1403J1000D01*
G02X236280Y40500I1403J1000D01*
G02X239720I1720J0D01*
G02X239400Y39500I-1722J0D01*
G02Y37500I-1403J-1000D01*
G02X239720Y36500I-1403J-1000D01*
G02X236280I-1720J0D01*
G02X236600Y37500I1723J0D01*
G37*
G36*
G01X266600D02*
G02Y39500I1403J1000D01*
G02X266280Y40500I1403J1000D01*
G02X269720I1720J0D01*
G02X269400Y39500I-1723J0D01*
G02Y37500I-1403J-1000D01*
G02X269720Y36500I-1403J-1000D01*
G02X266280I-1720J0D01*
G02X266600Y37500I1722J0D01*
G37*
G36*
G01X272600D02*
G02Y39500I1403J1000D01*
G02X272280Y40500I1403J1000D01*
G02X274000Y42220I1720J0D01*
G02X275220Y41720I6J-1723D01*
G03X275780I280J278D01*
G02X277000Y42220I1214J-1223D01*
G02X278720Y40500I0J-1720D01*
G02X278400Y39500I-1722J0D01*
G02Y37500I-1403J-1000D01*
G02X278720Y36500I-1403J-1000D01*
G02X277000Y34780I-1720J0D01*
G02X275780Y35280I-6J1723D01*
G03X275220I-280J-278D01*
G02X274000Y34780I-1214J1223D01*
G02X272280Y36500I0J1720D01*
G02X272600Y37500I1722J0D01*
G37*
G36*
G01X281600D02*
G02Y39500I1403J1000D01*
G02X281280Y40500I1403J1000D01*
G02X283000Y42220I1720J0D01*
G02X284220Y41720I6J-1723D01*
G03X284780I280J278D01*
G02X286000Y42220I1214J-1223D01*
G02X287720Y40500I0J-1720D01*
G02X287400Y39500I-1722J0D01*
G02Y37500I-1403J-1000D01*
G02X287720Y36500I-1403J-1000D01*
G02X286000Y34780I-1720J0D01*
G02X284780Y35280I-6J1723D01*
G03X284220I-280J-278D01*
G02X283000Y34780I-1214J1223D01*
G02X281280Y36500I0J1720D01*
G02X281600Y37500I1722J0D01*
G37*
G36*
G01X290600D02*
G02Y39500I1403J1000D01*
G02X290280Y40500I1403J1000D01*
G02X292000Y42220I1720J0D01*
G02X293220Y41720I6J-1723D01*
G03X293780I280J278D01*
G02X295000Y42220I1214J-1223D01*
G02X296720Y40500I0J-1720D01*
G02X296400Y39500I-1723J0D01*
G02Y37500I-1403J-1000D01*
G02X296720Y36500I-1403J-1000D01*
G02X295000Y34780I-1720J0D01*
G02X293780Y35280I-6J1723D01*
G03X293220I-280J-278D01*
G02X292000Y34780I-1214J1223D01*
G02X290280Y36500I0J1720D01*
G02X290600Y37500I1723J0D01*
G37*
G36*
G01X299600D02*
G02Y39500I1403J1000D01*
G02X299280Y40500I1403J1000D01*
G02X302720I1720J0D01*
G02X302400Y39500I-1722J0D01*
G02Y37500I-1403J-1000D01*
G02X302720Y36500I-1403J-1000D01*
G02X299280I-1720J0D01*
G02X299600Y37500I1722J0D01*
G37*
G36*
G01X329600D02*
G02Y39500I1403J1000D01*
G02X329280Y40500I1403J1000D01*
G02X332720I1720J0D01*
G02X332400Y39500I-1723J0D01*
G02Y37500I-1403J-1000D01*
G02X332720Y36500I-1403J-1000D01*
G02X329280I-1720J0D01*
G02X329600Y37500I1723J0D01*
G37*
G36*
G01X335600D02*
G02Y39500I1403J1000D01*
G02X335280Y40500I1403J1000D01*
G02X337000Y42220I1720J0D01*
G02X338220Y41720I6J-1723D01*
G03X338780I280J278D01*
G02X340000Y42220I1214J-1223D01*
G02X341720Y40500I0J-1720D01*
G02X341400Y39500I-1723J0D01*
G02Y37500I-1403J-1000D01*
G02X341720Y36500I-1403J-1000D01*
G02X340000Y34780I-1720J0D01*
G02X338780Y35280I-6J1723D01*
G03X338220I-280J-278D01*
G02X337000Y34780I-1214J1223D01*
G02X335280Y36500I0J1720D01*
G02X335600Y37500I1723J0D01*
G37*
G36*
G01X344600D02*
G02Y39500I1403J1000D01*
G02X344280Y40500I1403J1000D01*
G02X346000Y42220I1720J0D01*
G02X347220Y41720I6J-1723D01*
G03X347780I280J278D01*
G02X349000Y42220I1214J-1223D01*
G02X350720Y40500I0J-1720D01*
G02X350400Y39500I-1723J0D01*
G02Y37500I-1403J-1000D01*
G02X350720Y36500I-1403J-1000D01*
G02X349000Y34780I-1720J0D01*
G02X347780Y35280I-6J1723D01*
G03X347220I-280J-278D01*
G02X346000Y34780I-1214J1223D01*
G02X344280Y36500I0J1720D01*
G02X344600Y37500I1723J0D01*
G37*
G36*
G01X353600D02*
G02Y39500I1403J1000D01*
G02X353280Y40500I1403J1000D01*
G02X355000Y42220I1720J0D01*
G02X356220Y41720I6J-1723D01*
G03X356780I280J278D01*
G02X358000Y42220I1214J-1223D01*
G02X359720Y40500I0J-1720D01*
G02X359400Y39500I-1723J0D01*
G02Y37500I-1403J-1000D01*
G02X359720Y36500I-1403J-1000D01*
G02X358000Y34780I-1720J0D01*
G02X356780Y35280I-6J1723D01*
G03X356220I-280J-278D01*
G02X355000Y34780I-1214J1223D01*
G02X353280Y36500I0J1720D01*
G02X353600Y37500I1723J0D01*
G37*
G36*
G01X362600D02*
G02Y39500I1403J1000D01*
G02X362280Y40500I1403J1000D01*
G02X365720I1720J0D01*
G02X365400Y39500I-1723J0D01*
G02Y37500I-1403J-1000D01*
G02X365720Y36500I-1403J-1000D01*
G02X362280I-1720J0D01*
G02X362600Y37500I1723J0D01*
G37*
G36*
G01X392600D02*
G02Y39500I1403J1000D01*
G02X392280Y40500I1403J1000D01*
G02X395720I1720J0D01*
G02X395400Y39500I-1723J0D01*
G02Y37500I-1403J-1000D01*
G02X395720Y36500I-1403J-1000D01*
G02X392280I-1720J0D01*
G02X392600Y37500I1723J0D01*
G37*
G36*
G01X398600D02*
G02Y39500I1403J1000D01*
G02X398280Y40500I1403J1000D01*
G02X400000Y42220I1720J0D01*
G02X401220Y41720I6J-1723D01*
G03X401780I280J278D01*
G02X403000Y42220I1214J-1223D01*
G02X404720Y40500I0J-1720D01*
G02X404400Y39500I-1723J0D01*
G02Y37500I-1403J-1000D01*
G02X404720Y36500I-1403J-1000D01*
G02X403000Y34780I-1720J0D01*
G02X401780Y35280I-6J1723D01*
G03X401220I-280J-278D01*
G02X400000Y34780I-1214J1223D01*
G02X398280Y36500I0J1720D01*
G02X398600Y37500I1723J0D01*
G37*
G36*
G01X407600D02*
G02Y39500I1403J1000D01*
G02X407280Y40500I1403J1000D01*
G02X409000Y42220I1720J0D01*
G02X410220Y41720I6J-1723D01*
G03X410780I280J278D01*
G02X412000Y42220I1214J-1223D01*
G02X413720Y40500I0J-1720D01*
G02X413400Y39500I-1723J0D01*
G02Y37500I-1403J-1000D01*
G02X413720Y36500I-1403J-1000D01*
G02X412000Y34780I-1720J0D01*
G02X410780Y35280I-6J1723D01*
G03X410220I-280J-278D01*
G02X409000Y34780I-1214J1223D01*
G02X407280Y36500I0J1720D01*
G02X407600Y37500I1723J0D01*
G37*
G36*
G01X416600D02*
G02Y39500I1403J1000D01*
G02X416280Y40500I1403J1000D01*
G02X418000Y42220I1720J0D01*
G02X419220Y41720I6J-1723D01*
G03X419780I280J278D01*
G02X421000Y42220I1214J-1223D01*
G02X422720Y40500I0J-1720D01*
G02X422400Y39500I-1723J0D01*
G02Y37500I-1403J-1000D01*
G02X422720Y36500I-1403J-1000D01*
G02X421000Y34780I-1720J0D01*
G02X419780Y35280I-6J1723D01*
G03X419220I-280J-278D01*
G02X418000Y34780I-1214J1223D01*
G02X416280Y36500I0J1720D01*
G02X416600Y37500I1723J0D01*
G37*
G36*
G01X425600D02*
G02Y39500I1403J1000D01*
G02X425280Y40500I1403J1000D01*
G02X428720I1720J0D01*
G02X428400Y39500I-1723J0D01*
G02Y37500I-1403J-1000D01*
G02X428720Y36500I-1403J-1000D01*
G02X425280I-1720J0D01*
G02X425600Y37500I1722J0D01*
G37*
G36*
G01X140940Y29280D02*
G02X140780Y30000I1559J724D01*
G02X142500Y28280I1720J0D01*
G01X142440D01*
G03X142060Y27720I-14J-400D01*
G02X142220Y27000I-1559J-724D01*
G02X142050Y26250I-1721J-4D01*
G03X142330Y25690I360J-170D01*
G02X143720Y24000I-332J-1690D01*
G02X140280I-1720J0D01*
G02X140450Y24750I1721J4D01*
G03X140170Y25310I-360J170D01*
G02X138780Y27000I332J1690D01*
G02X140500Y28720I1720J0D01*
G01X140560D01*
G03X140940Y29280I14J400D01*
G37*
G36*
G01X149940D02*
G02X149780Y30000I1559J724D01*
G02X151500Y28280I1720J0D01*
G01X151440D01*
G03X151060Y27720I-14J-400D01*
G02X151220Y27000I-1559J-724D01*
G02X151050Y26250I-1721J-4D01*
G03X151330Y25690I360J-170D01*
G02X152720Y24000I-332J-1690D01*
G02X149280I-1720J0D01*
G02X149450Y24750I1721J4D01*
G03X149170Y25310I-360J170D01*
G02X147780Y27000I332J1690D01*
G02X149500Y28720I1720J0D01*
G01X149560D01*
G03X149940Y29280I14J400D01*
G37*
G36*
G01X158940D02*
G02X158780Y30000I1559J724D01*
G02X160500Y28280I1720J0D01*
G01X160440D01*
G03X160060Y27720I-14J-400D01*
G02X160220Y27000I-1559J-724D01*
G02X160050Y26250I-1721J-4D01*
G03X160330Y25690I360J-170D01*
G02X161720Y24000I-332J-1690D01*
G02X158280I-1720J0D01*
G02X158450Y24750I1721J4D01*
G03X158170Y25310I-360J170D01*
G02X156780Y27000I332J1690D01*
G02X158500Y28720I1720J0D01*
G01X158560D01*
G03X158940Y29280I14J400D01*
G37*
G36*
G01X167940D02*
G02X167780Y30000I1559J724D01*
G02X169500Y28280I1720J0D01*
G01X169440D01*
G03X169060Y27720I-14J-400D01*
G02X169220Y27000I-1559J-724D01*
G02X169050Y26250I-1721J-4D01*
G03X169330Y25690I360J-170D01*
G02X170720Y24000I-332J-1690D01*
G02X167280I-1720J0D01*
G02X167450Y24750I1721J4D01*
G03X167170Y25310I-360J170D01*
G02X165780Y27000I332J1690D01*
G02X167500Y28720I1720J0D01*
G01X167560D01*
G03X167940Y29280I14J400D01*
G37*
G36*
G01X203940D02*
G02X203780Y30000I1559J724D01*
G02X205500Y28280I1720J0D01*
G01X205440D01*
G03X205060Y27720I-14J-400D01*
G02X205220Y27000I-1559J-724D01*
G02X205050Y26250I-1721J-4D01*
G03X205330Y25690I360J-170D01*
G02X206720Y24000I-332J-1690D01*
G02X203280I-1720J0D01*
G02X203450Y24750I1721J4D01*
G03X203170Y25310I-360J170D01*
G02X201780Y27000I332J1690D01*
G02X203500Y28720I1720J0D01*
G01X203560D01*
G03X203940Y29280I14J400D01*
G37*
G36*
G01X212940D02*
G02X212780Y30000I1559J724D01*
G02X214500Y28280I1720J0D01*
G01X214440D01*
G03X214060Y27720I-14J-400D01*
G02X214220Y27000I-1559J-724D01*
G02X214050Y26250I-1721J-4D01*
G03X214330Y25690I360J-170D01*
G02X215720Y24000I-332J-1690D01*
G02X212280I-1720J0D01*
G02X212450Y24750I1721J4D01*
G03X212170Y25310I-360J170D01*
G02X210780Y27000I332J1690D01*
G02X212500Y28720I1720J0D01*
G01X212560D01*
G03X212940Y29280I14J400D01*
G37*
G36*
G01X221940D02*
G02X221780Y30000I1559J724D01*
G02X223500Y28280I1720J0D01*
G01X223440D01*
G03X223060Y27720I-14J-400D01*
G02X223220Y27000I-1559J-724D01*
G02X223050Y26250I-1721J-4D01*
G03X223330Y25690I360J-170D01*
G02X224720Y24000I-332J-1690D01*
G02X221280I-1720J0D01*
G02X221450Y24750I1721J4D01*
G03X221170Y25310I-360J170D01*
G02X219780Y27000I332J1690D01*
G02X221500Y28720I1720J0D01*
G01X221560D01*
G03X221940Y29280I14J400D01*
G37*
G36*
G01X230940D02*
G02X230780Y30000I1559J724D01*
G02X232500Y28280I1720J0D01*
G01X232440D01*
G03X232060Y27720I-14J-400D01*
G02X232220Y27000I-1559J-724D01*
G02X232050Y26250I-1721J-4D01*
G03X232330Y25690I360J-170D01*
G02X233720Y24000I-332J-1690D01*
G02X230280I-1720J0D01*
G02X230450Y24750I1721J4D01*
G03X230170Y25310I-360J170D01*
G02X228780Y27000I332J1690D01*
G02X230500Y28720I1720J0D01*
G01X230560D01*
G03X230940Y29280I14J400D01*
G37*
G36*
G01X266940D02*
G02X266780Y30000I1559J724D01*
G02X268500Y28280I1720J0D01*
G01X268440D01*
G03X268060Y27720I-14J-400D01*
G02X268220Y27000I-1559J-724D01*
G02X268050Y26250I-1721J-4D01*
G03X268330Y25690I360J-170D01*
G02X269720Y24000I-332J-1690D01*
G02X266280I-1720J0D01*
G02X266450Y24750I1721J4D01*
G03X266170Y25310I-360J170D01*
G02X264780Y27000I332J1690D01*
G02X266500Y28720I1720J0D01*
G01X266560D01*
G03X266940Y29280I14J400D01*
G37*
G36*
G01X275940D02*
G02X275780Y30000I1559J724D01*
G02X277500Y28280I1720J0D01*
G01X277440D01*
G03X277060Y27720I-14J-400D01*
G02X277220Y27000I-1559J-724D01*
G02X277050Y26250I-1721J-4D01*
G03X277330Y25690I360J-170D01*
G02X278720Y24000I-332J-1690D01*
G02X275280I-1720J0D01*
G02X275450Y24750I1721J4D01*
G03X275170Y25310I-360J170D01*
G02X273780Y27000I332J1690D01*
G02X275500Y28720I1720J0D01*
G01X275560D01*
G03X275940Y29280I14J400D01*
G37*
G36*
G01X284940D02*
G02X284780Y30000I1559J724D01*
G02X286500Y28280I1720J0D01*
G01X286440D01*
G03X286060Y27720I-14J-400D01*
G02X286220Y27000I-1559J-724D01*
G02X286050Y26250I-1721J-4D01*
G03X286330Y25690I360J-170D01*
G02X287720Y24000I-332J-1690D01*
G02X284280I-1720J0D01*
G02X284450Y24750I1721J4D01*
G03X284170Y25310I-360J170D01*
G02X282780Y27000I332J1690D01*
G02X284500Y28720I1720J0D01*
G01X284560D01*
G03X284940Y29280I14J400D01*
G37*
G36*
G01X293940D02*
G02X293780Y30000I1559J724D01*
G02X295500Y28280I1720J0D01*
G01X295440D01*
G03X295060Y27720I-14J-400D01*
G02X295220Y27000I-1559J-724D01*
G02X295050Y26250I-1721J-4D01*
G03X295330Y25690I360J-170D01*
G02X296720Y24000I-332J-1690D01*
G02X293280I-1720J0D01*
G02X293450Y24750I1721J4D01*
G03X293170Y25310I-360J170D01*
G02X291780Y27000I332J1690D01*
G02X293500Y28720I1720J0D01*
G01X293560D01*
G03X293940Y29280I14J400D01*
G37*
G36*
G01X329940D02*
G02X329780Y30000I1559J724D01*
G02X331500Y28280I1720J0D01*
G01X331440D01*
G03X331060Y27720I-14J-400D01*
G02X331220Y27000I-1559J-724D01*
G02X331050Y26250I-1721J-4D01*
G03X331330Y25690I360J-170D01*
G02X332720Y24000I-332J-1690D01*
G02X329280I-1720J0D01*
G02X329450Y24750I1721J4D01*
G03X329170Y25310I-360J170D01*
G02X327780Y27000I332J1690D01*
G02X329500Y28720I1720J0D01*
G01X329560D01*
G03X329940Y29280I14J400D01*
G37*
G36*
G01X338940D02*
G02X338780Y30000I1559J724D01*
G02X340500Y28280I1720J0D01*
G01X340440D01*
G03X340060Y27720I-14J-400D01*
G02X340220Y27000I-1559J-724D01*
G02X340050Y26250I-1721J-4D01*
G03X340330Y25690I360J-170D01*
G02X341720Y24000I-332J-1690D01*
G02X338280I-1720J0D01*
G02X338450Y24750I1721J4D01*
G03X338170Y25310I-360J170D01*
G02X336780Y27000I332J1690D01*
G02X338500Y28720I1720J0D01*
G01X338560D01*
G03X338940Y29280I14J400D01*
G37*
G36*
G01X347940D02*
G02X347780Y30000I1559J724D01*
G02X349500Y28280I1720J0D01*
G01X349440D01*
G03X349060Y27720I-14J-400D01*
G02X349220Y27000I-1559J-724D01*
G02X349050Y26250I-1721J-4D01*
G03X349330Y25690I360J-170D01*
G02X350720Y24000I-332J-1690D01*
G02X347280I-1720J0D01*
G02X347450Y24750I1721J4D01*
G03X347170Y25310I-360J170D01*
G02X345780Y27000I332J1690D01*
G02X347500Y28720I1720J0D01*
G01X347560D01*
G03X347940Y29280I14J400D01*
G37*
G36*
G01X356940D02*
G02X356780Y30000I1559J724D01*
G02X358500Y28280I1720J0D01*
G01X358440D01*
G03X358060Y27720I-14J-400D01*
G02X358220Y27000I-1559J-724D01*
G02X358050Y26250I-1721J-4D01*
G03X358330Y25690I360J-170D01*
G02X359720Y24000I-332J-1690D01*
G02X356280I-1720J0D01*
G02X356450Y24750I1721J4D01*
G03X356170Y25310I-360J170D01*
G02X354780Y27000I332J1690D01*
G02X356500Y28720I1720J0D01*
G01X356560D01*
G03X356940Y29280I14J400D01*
G37*
G36*
G01X392940D02*
G02X392780Y30000I1559J724D01*
G02X394500Y28280I1720J0D01*
G01X394440D01*
G03X394060Y27720I-14J-400D01*
G02X394220Y27000I-1559J-724D01*
G02X394050Y26250I-1721J-4D01*
G03X394330Y25690I360J-170D01*
G02X395720Y24000I-332J-1690D01*
G02X392280I-1720J0D01*
G02X392450Y24750I1721J4D01*
G03X392170Y25310I-360J170D01*
G02X390780Y27000I332J1690D01*
G02X392500Y28720I1720J0D01*
G01X392560D01*
G03X392940Y29280I14J400D01*
G37*
G36*
G01X401940D02*
G02X401780Y30000I1559J724D01*
G02X403500Y28280I1720J0D01*
G01X403440D01*
G03X403060Y27720I-14J-400D01*
G02X403220Y27000I-1559J-724D01*
G02X403050Y26250I-1721J-4D01*
G03X403330Y25690I360J-170D01*
G02X404720Y24000I-332J-1690D01*
G02X401280I-1720J0D01*
G02X401450Y24750I1721J4D01*
G03X401170Y25310I-360J170D01*
G02X399780Y27000I332J1690D01*
G02X401500Y28720I1720J0D01*
G01X401560D01*
G03X401940Y29280I14J400D01*
G37*
G36*
G01X410940D02*
G02X410780Y30000I1559J724D01*
G02X412500Y28280I1720J0D01*
G01X412440D01*
G03X412060Y27720I-14J-400D01*
G02X412220Y27000I-1559J-724D01*
G02X412050Y26250I-1721J-4D01*
G03X412330Y25690I360J-170D01*
G02X413720Y24000I-332J-1690D01*
G02X410280I-1720J0D01*
G02X410450Y24750I1721J4D01*
G03X410170Y25310I-360J170D01*
G02X408780Y27000I332J1690D01*
G02X410500Y28720I1720J0D01*
G01X410560D01*
G03X410940Y29280I14J400D01*
G37*
G36*
G01X419940D02*
G02X419780Y30000I1559J724D01*
G02X421500Y28280I1720J0D01*
G01X421440D01*
G03X421060Y27720I-14J-400D01*
G02X421220Y27000I-1559J-724D01*
G02X421050Y26250I-1721J-4D01*
G03X421330Y25690I360J-170D01*
G02X422720Y24000I-332J-1690D01*
G02X419280I-1720J0D01*
G02X419450Y24750I1721J4D01*
G03X419170Y25310I-360J170D01*
G02X417780Y27000I332J1690D01*
G02X419500Y28720I1720J0D01*
G01X419560D01*
G03X419940Y29280I14J400D01*
G37*
G36*
G01X489740Y63310D02*
G02X488290Y65000I260J1690D01*
G02X490000Y66710I1710J0D01*
G02X491690Y65260I0J-1710D01*
G01Y65250D01*
X491780Y64930D01*
X498750Y57960D01*
X505690D01*
X506000Y58140D01*
X506010D01*
G02X507000Y58460I995J-1388D01*
G02Y55040I0J-1710D01*
G02X506010Y55360I5J1708D01*
G01X506000D01*
X505690Y55540D01*
X498250D01*
G02X497390Y55890I-8J1213D01*
G01X490070Y63220D01*
X489750Y63310D01*
X489740D01*
G37*
G36*
G01X421970Y108310D02*
G02X425660Y112000I0J3690D01*
G02X423920Y108870I-3685J0D01*
G01X423860Y108830D01*
G02X421970Y108310I-1890J3175D01*
G37*
G36*
G01X411890Y108500D02*
G02X415560Y112170I0J3670D01*
G02X414490Y109580I-3670J0D01*
G01X414480Y109570D01*
G02X411890Y108500I-2590J2600D01*
G37*
G36*
G01X476820Y128290D02*
G02Y134250I5J2980D01*
G01X481160D01*
G02Y128290I-5J-2980D01*
G01X476820D01*
G37*
G36*
G01X116490Y134970D02*
G02X117000Y135480I510J0D01*
G01X122940D01*
G02X123450Y134970I0J-510D01*
G01Y129030D01*
G02X122940Y128520I-510J0D01*
G01X117000D01*
G02X116490Y129030I0J510D01*
G01Y134970D01*
G37*
G36*
G01X179490D02*
G02X180000Y135480I510J0D01*
G01X185940D01*
G02X186450Y134970I0J-510D01*
G01Y129030D01*
G02X185940Y128520I-510J0D01*
G01X180000D01*
G02X179490Y129030I0J510D01*
G01Y134970D01*
G37*
G36*
G01X242490D02*
G02X243000Y135480I510J0D01*
G01X248940D01*
G02X249450Y134970I0J-510D01*
G01Y129030D01*
G02X248940Y128520I-510J0D01*
G01X243000D01*
G02X242490Y129030I0J510D01*
G01Y134970D01*
G37*
G36*
G01X305490D02*
G02X306000Y135480I510J0D01*
G01X311940D01*
G02X312450Y134970I0J-510D01*
G01Y129030D01*
G02X311940Y128520I-510J0D01*
G01X306000D01*
G02X305490Y129030I0J510D01*
G01Y134970D01*
G37*
G36*
G01X368490D02*
G02X369000Y135480I510J0D01*
G01X374940D01*
G02X375450Y134970I0J-510D01*
G01Y129030D01*
G02X374940Y128520I-510J0D01*
G01X369000D01*
G02X368490Y129030I0J510D01*
G01Y134970D01*
G37*
G36*
G01X476820Y142860D02*
G02Y148820I5J2980D01*
G01X481160D01*
G02Y142860I-5J-2980D01*
G01X476820D01*
G37*
G36*
G01X351000Y151780D02*
G02X352720Y153500I0J1720D01*
G01Y153400D01*
G03X353280Y153010I399J-25D01*
G02X354000Y153170I724J-1559D01*
G02X352280Y151450I0J-1720D01*
G01Y151550D01*
G03X351720Y151940I-399J25D01*
G02X351000Y151780I-724J1559D01*
G37*
G36*
G01X326320Y158300D02*
G02X325830Y159500I1224J1200D01*
G02X329270I1720J0D01*
G02X328810Y158320I-1723J-8D01*
G03Y157770I288J-275D01*
G02X329300Y156570I-1224J-1200D01*
G02X325860I-1720J0D01*
G02X326320Y157750I1723J8D01*
G03Y158300I-288J275D01*
G37*
G36*
G01X364380Y161780D02*
G02X362730Y163500I71J1720D01*
G02X364450Y165220I1720J0D01*
G02X366170Y163570I0J-1721D01*
G01Y163490D01*
X367860Y161810D01*
G02X368210Y160950I-863J-852D01*
G01Y154420D01*
G03X368780Y154060I400J3D01*
G02X369500Y154220I724J-1559D01*
G02Y150780I0J-1720D01*
G02X368780Y150940I4J1719D01*
G03X368210Y150580I-170J-363D01*
G01Y145620D01*
G02X368720Y144400I-1204J-1220D01*
G02X365280I-1720J0D01*
G02X365790Y145620I1714J0D01*
G01Y157080D01*
G03X365220Y157440I-400J-3D01*
G02X364500Y157280I-724J1559D01*
G02X363400Y157680I0J1713D01*
G03X362750Y157430I-255J-308D01*
G02X359000Y154200I-3750J562D01*
G02Y161780I0J3790D01*
G02X362300Y159850I0J-3786D01*
G03X363000Y159840I353J190D01*
G02X364540Y160720I1501J-839D01*
G01X364550D01*
G03X364840Y161400I5J400D01*
G01X364460Y161780D01*
X364380D01*
G37*
G36*
G01X164500Y198280D02*
G02Y201720I0J1720D01*
G02X166220Y200040I0J-1720D01*
G03X166720Y199660I400J8D01*
G02X167160Y199720I450J-1659D01*
G02Y196280I0J-1720D01*
G02X165440Y197960I0J1720D01*
G03X164940Y198340I-400J-8D01*
G02X164500Y198280I-450J1659D01*
G37*
G36*
G01X169720Y199780D02*
G02X171440Y201500I0J1720D01*
G02X171400Y201150I-1718J19D01*
G03X171890Y200670I393J-89D01*
G02X172280Y200720I412J-1667D01*
G02X170560Y199000I0J-1720D01*
G02X170600Y199350I1718J-19D01*
G03X170110Y199830I-393J89D01*
G02X169720Y199780I-412J1667D01*
G37*
G36*
G01X519290Y209860D02*
G02X519270Y210190I3079J352D01*
G02X525470I3100J0D01*
G02X525450Y209860I-3099J22D01*
G02X525940Y208060I-3079J-1805D01*
G02X518800I-3570J0D01*
G02X519290Y209860I3569J-5D01*
G37*
G36*
G01X519490Y234180D02*
G02X519000Y235940I2883J1751D01*
G02X525740I3370J0D01*
G02X525250Y234180I-3373J-9D01*
G02X525270Y233810I-2882J-341D01*
G02X519470I-2900J0D01*
G02X519490Y234180I2902J29D01*
G37*
G36*
G01X519290Y274860D02*
G02X519270Y275190I3079J352D01*
G02X525470I3100J0D01*
G02X525450Y274860I-3099J22D01*
G02X525940Y273060I-3079J-1805D01*
G02X518800I-3570J0D01*
G02X519290Y274860I3569J-5D01*
G37*
G36*
G01X519490Y299180D02*
G02X519000Y300940I2883J1751D01*
G02X525740I3370J0D01*
G02X525250Y299180I-3373J-9D01*
G02X525270Y298810I-2882J-341D01*
G02X519470I-2900J0D01*
G02X519490Y299180I2902J29D01*
G37*
G36*
G01X519290Y339860D02*
G02X519270Y340190I3079J352D01*
G02X525470I3100J0D01*
G02X525450Y339860I-3099J22D01*
G02X525940Y338060I-3079J-1805D01*
G02X518800I-3570J0D01*
G02X519290Y339860I3569J-5D01*
G37*
G36*
G01X429990Y366680D02*
G02X434950I2480J5D01*
G01Y362360D01*
G02X429990I-2480J-5D01*
G01Y366680D01*
G37*
G36*
G01X464050D02*
G02X469010I2480J5D01*
G01Y362360D01*
G02X464050I-2480J-5D01*
G01Y366680D01*
G37*
G36*
G01X519490Y364180D02*
G02X519000Y365940I2883J1751D01*
G02X525740I3370J0D01*
G02X525250Y364180I-3373J-9D01*
G02X525270Y363810I-2882J-341D01*
G02X519470I-2900J0D01*
G02X519490Y364180I2902J29D01*
G37*
G36*
G01X213280Y182720D02*
G03Y183280I-278J280D01*
G02X212780Y184500I1223J1214D01*
G02X214500Y186220I1720J0D01*
G02X215720Y185720I6J-1723D01*
G03X216280I280J278D01*
G02X217500Y186220I1214J-1223D01*
G02X219220Y184500I0J-1720D01*
G02X218770Y183340I-1720J0D01*
G03Y182800I295J-270D01*
G02X219220Y181640I-1270J-1160D01*
G02X217500Y179920I-1720J0D01*
G02X216340Y180370I0J1720D01*
G03X215770Y180340I-270J-294D01*
G02X214500Y179780I-1270J1160D01*
G02X212780Y181500I0J1720D01*
G02X213280Y182720I1723J6D01*
G37*
G36*
G01X212780Y228220D02*
G03Y228780I-278J280D01*
G02X212280Y230000I1223J1214D01*
G02X215720I1720J0D01*
G02X215220Y228780I-1723J-6D01*
G03Y228220I278J-280D01*
G02X215720Y227000I-1223J-1214D01*
G02X215220Y225780I-1723J-6D01*
G03Y225220I278J-280D01*
G02X215720Y224000I-1223J-1214D01*
G02X212280I-1720J0D01*
G02X212780Y225220I1723J6D01*
G03Y225780I-278J280D01*
G02X212280Y227000I1223J1214D01*
G02X212780Y228220I1723J6D01*
G37*
G54D37*
X20820Y232010D03*
Y273010D03*
X523180Y118990D03*
G54D45*
Y138990D03*
G54D32*
X85270Y58980D03*
X499050Y18400D03*
G54D47*
X533000Y196130D03*
Y247870D03*
Y261130D03*
Y312870D03*
Y326130D03*
G54D36*
X12670Y182630D03*
Y167030D03*
Y214050D03*
Y198450D03*
G54D49*
X438120Y366490D03*
X460880D03*
G54D44*
X538380Y63650D03*
Y70350D03*
Y91650D03*
Y98350D03*
G54D33*
X83560Y23870D03*
X63560Y16000D03*
X55870Y121440D03*
X48000D03*
X40130D03*
X83560Y16000D03*
Y8130D03*
X63560D03*
Y23870D03*
X103560Y8130D03*
Y16000D03*
Y23870D03*
X28440Y143000D03*
Y150870D03*
X8440Y143000D03*
Y150870D03*
X9130Y377560D03*
Y357560D03*
Y337560D03*
X24870D03*
X147130Y377560D03*
X155000D03*
X162870D03*
X75190D03*
X83060D03*
X90940D03*
X390810Y326440D03*
X382940D03*
X187130Y150560D03*
G54D39*
X91000Y37000D03*
X51000Y139500D03*
X76000Y229740D03*
X59000Y37500D03*
X72000Y37000D03*
X72380Y115880D03*
X89500Y80000D03*
X85500Y84000D03*
Y88000D03*
X89500D03*
Y84000D03*
X92120Y127380D03*
X89500Y92000D03*
X85500Y100000D03*
Y92000D03*
Y104000D03*
X76000Y237740D03*
X104000Y78500D03*
Y74500D03*
X85500Y80000D03*
X72380Y95880D03*
X97500Y49000D03*
X64000Y225740D03*
X72000Y229740D03*
X55380Y157880D03*
X68000Y237740D03*
X54880Y137120D03*
X72000Y233740D03*
X64000Y229740D03*
X76000Y225740D03*
X68000Y233740D03*
X72000Y237740D03*
X68000Y229740D03*
Y241740D03*
X72000D03*
X64000Y237740D03*
X72000Y225740D03*
X68000D03*
X76000Y233740D03*
X64000Y241740D03*
X60000D03*
Y237740D03*
Y233740D03*
Y229740D03*
Y225740D03*
X56000D03*
Y229740D03*
Y233740D03*
Y237740D03*
Y241740D03*
X52000D03*
Y237740D03*
Y233740D03*
Y229740D03*
Y225740D03*
X107620Y118380D03*
X64000Y233740D03*
X87000Y114500D03*
X76000Y241740D03*
X159040Y303500D03*
X120000Y279000D03*
X107510Y123990D03*
X104000Y149500D03*
X60000Y249740D03*
X68000D03*
X64000D03*
X72000D03*
X147500Y313000D03*
X102950Y123050D03*
X104620Y91120D03*
X173000Y293000D03*
X149990Y303500D03*
X64000Y253740D03*
X60000D03*
X94380Y215880D03*
X92000Y265500D03*
X68000Y253740D03*
X76000D03*
X92000Y269500D03*
X205380Y286000D03*
X94380Y182380D03*
X113000Y210500D03*
X95250Y204250D03*
X52000Y249740D03*
X99500Y213000D03*
Y179000D03*
X100000Y269500D03*
X165500Y315500D03*
X104000Y261500D03*
X92000D03*
X52000Y253740D03*
X56000D03*
X100000Y261500D03*
X79050Y159950D03*
X100000Y257500D03*
X48000Y249740D03*
Y253740D03*
X104000Y257500D03*
X72000Y253740D03*
X108000Y261500D03*
X96000D03*
X108000Y265500D03*
X92000Y253500D03*
X104000Y269500D03*
X108000D03*
X76000Y245740D03*
Y249740D03*
X92000Y257500D03*
X68000Y245740D03*
X64000D03*
X96000Y265500D03*
X130620Y291880D03*
X60000Y245740D03*
X100000Y265500D03*
X48000Y245740D03*
X72000D03*
X96000Y257500D03*
X52000Y245740D03*
X104000Y265500D03*
X56000Y245740D03*
X104000Y273500D03*
X56000Y249740D03*
X78050Y193950D03*
X48000Y241740D03*
Y237740D03*
X96000Y253500D03*
X48000Y233740D03*
Y229740D03*
Y225740D03*
X108000Y257500D03*
X249500Y281000D03*
X215820Y302180D03*
X246620Y303380D03*
X264400Y308000D03*
X279000Y294330D03*
X265800Y281200D03*
X260000Y296000D03*
X188000Y330500D03*
X265000Y286500D03*
X249500Y272600D03*
X260000Y305000D03*
X268950Y322000D03*
X253000Y270550D03*
X366950Y214060D03*
X397500Y227500D03*
X394000Y315000D03*
X337500Y345500D03*
X459000Y329000D03*
X388500Y224000D03*
X248000Y221000D03*
X330500Y218400D03*
X285000Y348000D03*
X132620Y368000D03*
X314000Y218400D03*
X308050Y222500D03*
X128000Y368500D03*
X391000Y246500D03*
X388000Y220000D03*
X301350Y222500D03*
X390000Y310000D03*
Y303500D03*
X167000Y365500D03*
X289000Y351500D03*
X268000D03*
X383480Y319480D03*
X394520Y285500D03*
X378950Y335950D03*
X374520Y319480D03*
X394500Y294000D03*
X470500Y332500D03*
X454520Y56480D03*
X446480Y52020D03*
X464500Y88000D03*
Y100500D03*
X363500Y24000D03*
X354000D03*
X336000Y30000D03*
X363500D03*
X354000D03*
X345000Y24000D03*
Y30000D03*
X336000Y24000D03*
X399000D03*
X408000D03*
X399000Y30000D03*
X408000D03*
X417000Y24000D03*
X426500D03*
Y30000D03*
X417000D03*
X273000Y24000D03*
X282000D03*
X291000D03*
X300500D03*
Y30000D03*
X273000D03*
X282000D03*
X291000D03*
X210000Y24000D03*
X219000D03*
X228000D03*
X237500D03*
Y30000D03*
X147000Y24000D03*
X156000D03*
X165000D03*
X174500D03*
Y30000D03*
X147000D03*
X156000D03*
X165000D03*
X210000D03*
X219000D03*
X228000D03*
X499000Y65000D03*
X472000Y67550D03*
X498000Y72500D03*
X364000Y118500D03*
X302000Y119500D03*
X433500Y124000D03*
X324500Y126500D03*
X234500Y142980D03*
X289500Y144500D03*
X297000D03*
X170000Y148620D03*
X158000Y150000D03*
X293000D03*
X300000D03*
X308000D03*
X312300D03*
X318500Y150500D03*
X240000Y153500D03*
X340990Y154000D03*
X162500Y154500D03*
X321050Y155500D03*
X225920Y155920D03*
X255000Y156000D03*
X315000Y158250D03*
X295100Y158690D03*
X279620Y163500D03*
X332500Y164000D03*
X193000Y165500D03*
X253000Y166000D03*
X260000Y167500D03*
X298160Y168000D03*
X302500D03*
X134500Y169000D03*
X121000Y171000D03*
X246500Y172000D03*
X337000D03*
X323450Y178000D03*
X488000Y183000D03*
X437500Y196000D03*
X457500Y197500D03*
X186000Y198620D03*
X177500Y199000D03*
X449000D03*
X437500Y200000D03*
X174840Y202000D03*
X179960D03*
X457550Y203500D03*
X437500Y210500D03*
X123000Y213000D03*
X127000D03*
X131000D03*
X172000Y216380D03*
X123000Y217000D03*
X131000D03*
X429500D03*
X123000Y221000D03*
X127000D03*
X131000D03*
X435500Y223000D03*
X404000Y202620D03*
X308000Y201500D03*
X441000Y321000D03*
X313000Y201500D03*
X253000D03*
X283000D03*
X243000D03*
X293000D03*
X238000D03*
X216000Y198620D03*
X298000Y201500D03*
X217380Y168120D03*
X471000Y162000D03*
X213000Y158000D03*
X233000Y261000D03*
X430000Y318000D03*
X328550Y289500D03*
X348500Y286500D03*
X280380Y260620D03*
X494000Y300000D03*
G54D48*
X522370Y218060D03*
Y225940D03*
Y283060D03*
Y290940D03*
Y348060D03*
Y355940D03*
G54D40*
X17000Y377560D03*
Y357560D03*
Y337560D03*
X461310Y348060D03*
X98810Y377560D03*
X437690Y348060D03*
G54D35*
X16010Y119000D03*
Y129000D03*
X26010Y119000D03*
Y129000D03*
X16000Y48990D03*
Y38990D03*
Y28990D03*
Y78990D03*
Y68990D03*
Y58990D03*
Y108990D03*
Y98990D03*
Y88990D03*
X60990Y380000D03*
Y370000D03*
X50990Y380000D03*
Y370000D03*
X40990D03*
X212000Y372500D03*
Y362500D03*
X202000Y372500D03*
Y362500D03*
X192000Y372500D03*
Y362500D03*
X135160Y87000D03*
X198160D03*
X261160D03*
X324160D03*
X387160D03*
X129890Y112170D03*
X139890D03*
X149890D03*
X159890D03*
X192890D03*
X202890D03*
X212890D03*
X222890D03*
X255900D03*
X265900D03*
X275900D03*
X285900D03*
X319000D03*
X329000D03*
X339000D03*
X349000D03*
X381890D03*
X391890D03*
X401890D03*
X129890Y122010D03*
X139890D03*
X149890D03*
X159890D03*
X192890D03*
X202890D03*
X212890D03*
X222890D03*
X255900D03*
X265900D03*
X275900D03*
X285900D03*
X319000D03*
X329000D03*
X339000D03*
X349000D03*
X381890D03*
X391890D03*
X401890D03*
X411890D03*
X129890Y131850D03*
X139890D03*
X149890D03*
X159890D03*
X192890D03*
X202890D03*
X212890D03*
X222890D03*
X255900D03*
X265900D03*
X275900D03*
X285900D03*
X319000D03*
X329000D03*
X339000D03*
X349000D03*
X381890D03*
X391890D03*
X401890D03*
X411890D03*
X242000Y362500D03*
X252000D03*
X262000D03*
X272000D03*
X282000D03*
X292000D03*
X302000D03*
X322000D03*
X332000D03*
X342000D03*
X232000Y372500D03*
X242000D03*
X262000D03*
X272000D03*
X292000D03*
X302000D03*
X312000D03*
X322000D03*
X342000D03*
X362000D03*
X372000D03*
X382000D03*
G54D46*
X122010Y185000D03*
G54D43*
X533170Y43000D03*
X522000Y91010D03*
X533170Y160000D03*
G54D41*
X411970Y62000D03*
X371970D03*
X401970D03*
X421970D03*
X159970D03*
X119970D03*
X149970D03*
X169970D03*
X222970D03*
X182970D03*
X212970D03*
X232970D03*
X348970D03*
X308970D03*
X338970D03*
X358970D03*
X285970D03*
X245970D03*
X275970D03*
X295970D03*
X119970Y82000D03*
X169970D03*
X182970D03*
X232970D03*
X245970D03*
X295970D03*
X308970D03*
X358970D03*
X371970D03*
X119970Y92000D03*
X169970D03*
X182970D03*
X232970D03*
X245970D03*
X295970D03*
X308970D03*
X358970D03*
X371970D03*
X119970Y102000D03*
X169970D03*
X182970D03*
X232970D03*
X245970D03*
X295970D03*
X308970D03*
X358970D03*
X371970D03*
X119970Y112000D03*
X169970D03*
X182970D03*
X232970D03*
X245970D03*
X295970D03*
X308970D03*
X358970D03*
X371970D03*
X119970Y122000D03*
X169970D03*
X182970D03*
X232970D03*
X245970D03*
X295970D03*
X308970D03*
X358970D03*
X371970D03*
X421970D03*
X169970Y132000D03*
X232970D03*
X295970D03*
X358970D03*
X421970D03*
G54D38*
X96000Y294840D03*
X40990Y380000D03*
X154840Y87000D03*
X217840D03*
X280840D03*
X343840D03*
X406840D03*
X232000Y362500D03*
X312000D03*
X252000Y372500D03*
X282000D03*
X332000D03*
X352000D03*
G54D42*
X372000Y15990D03*
X183000D03*
X309000D03*
X246000D03*
X132010Y185000D03*
X142010D03*
G54D34*
X21000Y9830D03*
X31000Y40830D03*
X41000D03*
X31000Y69830D03*
X41000D03*
X31000Y99830D03*
X41000D03*
X11000Y9830D03*
X31000D03*
X388000Y10840D03*
X398000D03*
X408000D03*
X418000D03*
X440840Y10000D03*
Y20000D03*
Y30000D03*
Y40000D03*
X533170Y23000D03*
Y33000D03*
X522000Y62010D03*
Y72010D03*
Y101010D03*
X493990Y160000D03*
X503990D03*
X533170Y170000D03*
Y180000D03*
X359000Y197990D03*
Y187990D03*
Y177990D03*
%LPD*%
G75*
G36*
G01X40100Y139280D02*
X39670Y138520D01*
X40530Y137900D01*
X41390Y138520D01*
X40960Y139280D01*
G03X40100I-430J-250D01*
G37*
G36*
G01X40960Y155720D02*
X41390Y156480D01*
X40530Y157100D01*
X39670Y156480D01*
X40100Y155720D01*
G03X40960I430J250D01*
G37*
G36*
G01X505750Y56320D02*
X506510Y55890D01*
X507120Y56750D01*
X506510Y57610D01*
X505750Y57180D01*
G03Y56320I250J-430D01*
G37*
G36*
G01X491190Y64420D02*
X490950Y65260D01*
X489910Y65090D01*
X489740Y64050D01*
X490580Y63810D01*
G03X491190Y64420I130J480D01*
G37*
G54D10*
X6000Y38990D03*
Y28990D03*
Y58990D03*
Y48990D03*
Y78990D03*
Y68990D03*
Y98990D03*
Y88990D03*
X6010Y119000D03*
X6000Y108990D03*
X6010Y129000D03*
X16000Y38990D03*
Y28990D03*
Y58990D03*
Y48990D03*
Y78990D03*
Y68990D03*
Y98990D03*
Y88990D03*
X16010Y119000D03*
X26010D03*
Y129000D03*
X16000Y108990D03*
X16010Y129000D03*
X50990Y370000D03*
X40990D03*
X50990Y380000D03*
X40990D03*
X60990Y370000D03*
Y380000D03*
X96000Y275160D03*
Y294840D03*
X135160Y87000D03*
X129890Y122010D03*
Y112170D03*
Y131850D03*
X154840Y87000D03*
X139890Y122010D03*
X149890D03*
X139890Y112170D03*
X149890D03*
X139890Y131850D03*
X149890D03*
X159890Y122010D03*
Y112170D03*
Y131850D03*
X198160Y87000D03*
X192890Y122010D03*
Y112170D03*
Y131850D03*
X192000Y372500D03*
Y362500D03*
X217840Y87000D03*
X202890Y122010D03*
X212890D03*
X202890Y112170D03*
X212890D03*
X202890Y131850D03*
X212890D03*
X212000Y372500D03*
Y362500D03*
X202000Y372500D03*
Y362500D03*
X222890Y122010D03*
Y112170D03*
Y131850D03*
X232000Y372500D03*
Y362500D03*
X222000Y372500D03*
Y362500D03*
X255900Y122010D03*
Y112170D03*
Y131850D03*
X252000Y372500D03*
Y362500D03*
X242000Y372500D03*
Y362500D03*
X261160Y87000D03*
X280840D03*
X265900Y122010D03*
X275900D03*
X265900Y112170D03*
X275900D03*
X265900Y131850D03*
X275900D03*
X272000Y372500D03*
Y362500D03*
X262000Y372500D03*
Y362500D03*
X285900Y122010D03*
Y112170D03*
Y131850D03*
X302000Y372500D03*
Y362500D03*
X292000Y372500D03*
Y362500D03*
X282000Y372500D03*
Y362500D03*
X319000Y122010D03*
Y112170D03*
Y131850D03*
X322000Y372500D03*
Y362500D03*
X312000Y372500D03*
Y362500D03*
X324160Y87000D03*
X329000Y122010D03*
X339000D03*
X329000Y112170D03*
X339000D03*
X329000Y131850D03*
X339000D03*
X342000Y372500D03*
Y362500D03*
X332000Y372500D03*
Y362500D03*
X343840Y87000D03*
X349000Y122010D03*
Y112170D03*
Y131850D03*
X362000Y372500D03*
Y362500D03*
X352000Y372500D03*
Y362500D03*
X381890Y122010D03*
Y112170D03*
Y131850D03*
X382000Y372500D03*
Y362500D03*
X372000Y372500D03*
Y362500D03*
X387160Y87000D03*
X391890Y122010D03*
X401890D03*
X391890Y112170D03*
X401890D03*
X391890Y131850D03*
X401890D03*
X406840Y87000D03*
X411890Y122010D03*
Y112170D03*
Y131850D03*
G54D20*
X119970Y62000D03*
Y82000D03*
Y102000D03*
Y92000D03*
Y122000D03*
Y112000D03*
X149970Y62000D03*
X169970D03*
X159970D03*
X169970Y72000D03*
Y82000D03*
Y92000D03*
Y102000D03*
Y112000D03*
Y122000D03*
Y132000D03*
X182970Y62000D03*
Y82000D03*
Y102000D03*
Y92000D03*
Y122000D03*
Y112000D03*
X212970Y62000D03*
X232970D03*
X222970D03*
X232970Y72000D03*
Y82000D03*
Y92000D03*
Y102000D03*
Y112000D03*
Y122000D03*
Y132000D03*
X245970Y62000D03*
Y82000D03*
Y102000D03*
Y92000D03*
Y122000D03*
Y112000D03*
X275970Y62000D03*
X295970D03*
X285970D03*
X295970Y72000D03*
Y82000D03*
Y92000D03*
Y102000D03*
Y112000D03*
Y122000D03*
Y132000D03*
X308970Y62000D03*
Y82000D03*
Y102000D03*
Y92000D03*
Y122000D03*
Y112000D03*
X338970Y62000D03*
X358970D03*
X348970D03*
X358970Y72000D03*
Y82000D03*
Y92000D03*
Y102000D03*
Y112000D03*
Y122000D03*
Y132000D03*
X371970Y62000D03*
Y82000D03*
Y102000D03*
Y92000D03*
Y122000D03*
Y112000D03*
X401970Y62000D03*
X421970D03*
X411970D03*
X421970Y72000D03*
Y82000D03*
Y92000D03*
Y102000D03*
Y112000D03*
Y122000D03*
Y132000D03*
G54D11*
X8440Y143000D03*
Y150870D03*
X9130Y337560D03*
Y357560D03*
Y377560D03*
X28440Y143000D03*
Y150870D03*
X17000Y337560D03*
X24870D03*
X17000Y357560D03*
X24870D03*
X17000Y377560D03*
X24870D03*
X48000Y121440D03*
X40130D03*
X63560Y23870D03*
Y16000D03*
Y8130D03*
X55870Y121440D03*
X83560Y23870D03*
Y16000D03*
Y8130D03*
X75190Y377560D03*
X83060D03*
X90940D03*
X103560Y23870D03*
Y16000D03*
Y8130D03*
X98810Y377560D03*
X124130Y150560D03*
X132000D03*
X139870D03*
X147130Y377560D03*
X155000D03*
X162870D03*
X187130Y150560D03*
X195000D03*
X202870D03*
X382940Y326440D03*
X375060D03*
X367190D03*
X390810D03*
X437690Y348060D03*
X445560D03*
X462440Y9250D03*
Y17130D03*
Y25000D03*
Y32870D03*
Y40750D03*
X453440Y348060D03*
X461310D03*
X522370Y210190D03*
Y225940D03*
Y218060D03*
Y233810D03*
Y290940D03*
Y283060D03*
Y275190D03*
Y298810D03*
Y355940D03*
Y348060D03*
Y340190D03*
Y363810D03*
G54D30*
G01X120000Y5990D02*
X126260D01*
X128250Y4000D01*
G01D02*
X174010D01*
X176000Y5990D01*
X183000D01*
G01D02*
X189260D01*
X191250Y4000D01*
X237010D01*
X239000Y5990D01*
X246000D01*
G01D02*
X252260D01*
X254250Y4000D01*
X300010D01*
X302000Y5990D01*
X309000D01*
G01D02*
X315260D01*
X317250Y4000D01*
X363010D01*
X365000Y5990D01*
X372000D01*
G54D21*
X119970Y72000D03*
Y132000D03*
X182970Y72000D03*
Y132000D03*
X245970Y72000D03*
Y132000D03*
X308970Y72000D03*
Y132000D03*
X371970Y72000D03*
Y132000D03*
G54D12*
X12670Y167030D03*
Y198450D03*
Y182630D03*
Y214050D03*
G54D31*
G01X6000Y45320D02*
Y48990D01*
G01D02*
Y52660D01*
G01Y48990D02*
X9670D01*
G01X6000Y75320D02*
Y78990D01*
G01D02*
Y82660D01*
G01Y78990D02*
X9670D01*
G01X6000Y105320D02*
Y108990D01*
G01D02*
Y112660D01*
G01Y108990D02*
X9670D01*
G01X6010Y115330D02*
Y119000D01*
G01D02*
Y122670D01*
G01Y119000D02*
X9680D01*
G01X17000Y334470D02*
Y337560D01*
G01Y354470D02*
Y357560D01*
G01Y337560D02*
Y340650D01*
G01X13910Y337560D02*
X17000D01*
G01D02*
X20090D01*
G01X17000Y357560D02*
Y360650D01*
G01X13910Y357560D02*
X17000D01*
G01D02*
X20090D01*
G01X17000Y374470D02*
Y377560D01*
G01D02*
Y380650D01*
G01X13910Y377560D02*
X17000D01*
G01D02*
X20090D01*
G01X40990Y376330D02*
Y380000D01*
G01X37320D02*
X40990D01*
G01D02*
X44660D01*
G01X96000Y291170D02*
Y294840D01*
G01D02*
Y298510D01*
G01X92330Y294840D02*
X96000D01*
G01D02*
X99670D01*
G01X98810Y374470D02*
Y377560D01*
G01D02*
Y380650D01*
G01X95720Y377560D02*
X98810D01*
G01D02*
X101900D01*
G01X119970Y72000D02*
Y75680D01*
G01X116290Y72000D02*
X119970D01*
G01D02*
X123650D01*
G01X119970Y128320D02*
Y132000D01*
G01D02*
Y135680D01*
G01X116290Y132000D02*
X119970D01*
G01D02*
X123650D01*
G01X122010Y181040D02*
Y185000D01*
G01D02*
Y188960D01*
G01Y185000D02*
X125970D01*
G01X118080Y377170D02*
Y379750D01*
G01D02*
Y382330D01*
G01X151170Y87000D02*
X154840D01*
G01Y83330D02*
Y87000D01*
G01D02*
Y90670D01*
G01Y87000D02*
X158510D01*
G01X182970Y72000D02*
Y75680D01*
G01X179290Y72000D02*
X182970D01*
G01D02*
X186650D01*
G01X182970Y128320D02*
Y132000D01*
G01D02*
Y135680D01*
G01X179290Y132000D02*
X182970D01*
G01D02*
X186650D01*
G01X214170Y87000D02*
X217840D01*
G01Y83330D02*
Y87000D01*
G01D02*
Y90670D01*
G01Y87000D02*
X221510D01*
G01X232000Y358830D02*
Y362500D01*
G01D02*
Y366170D01*
G01Y362500D02*
X235670D01*
G01X245970Y72000D02*
Y75680D01*
G01X242290Y72000D02*
X245970D01*
G01D02*
X249650D01*
G01X245970Y128320D02*
Y132000D01*
G01D02*
Y135680D01*
G01X242290Y132000D02*
X245970D01*
G01D02*
X249650D01*
G01X252000Y368830D02*
Y372500D01*
G01D02*
Y376170D01*
G01X248330Y372500D02*
X252000D01*
G01D02*
X255670D01*
G01X277170Y87000D02*
X280840D01*
G01X278330Y372500D02*
X282000D01*
G01X280840Y83330D02*
Y87000D01*
G01D02*
Y90670D01*
G01Y87000D02*
X284510D01*
G01X282000Y368830D02*
Y372500D01*
G01D02*
Y376170D01*
G01Y372500D02*
X285670D01*
G01X308970Y72000D02*
Y75680D01*
G01X305290Y72000D02*
X308970D01*
G01D02*
X312650D01*
G01X308970Y128320D02*
Y132000D01*
G01D02*
Y135680D01*
G01X305290Y132000D02*
X308970D01*
G01D02*
X312650D01*
G01X312000Y358830D02*
Y362500D01*
G01D02*
Y366170D01*
G01X308330Y362500D02*
X312000D01*
G01D02*
X315670D01*
G01X340170Y87000D02*
X343840D01*
G01X332000Y368830D02*
Y372500D01*
G01D02*
Y376170D01*
G01X328330Y372500D02*
X332000D01*
G01D02*
X335670D01*
G01X343840Y83330D02*
Y87000D01*
G01D02*
Y90670D01*
G01Y87000D02*
X347510D01*
G01X352000Y368830D02*
Y372500D01*
G01D02*
Y376170D01*
G01X348330Y372500D02*
X352000D01*
G01D02*
X355670D01*
G01X371970Y72000D02*
Y75680D01*
G01X368290Y72000D02*
X371970D01*
G01D02*
X375650D01*
G01X371970Y128320D02*
Y132000D01*
G01D02*
Y135680D01*
G01X368290Y132000D02*
X371970D01*
G01D02*
X375650D01*
G01X367190Y323350D02*
Y326440D01*
G01D02*
Y329530D01*
G01X364100Y326440D02*
X367190D01*
G01D02*
X370280D01*
G01X382000Y362500D02*
Y366170D01*
G01X378330Y362500D02*
X382000D01*
G01D02*
X385670D01*
G01X403170Y87000D02*
X406840D01*
G01Y83330D02*
Y87000D01*
G01D02*
Y90670D01*
G01Y87000D02*
X410510D01*
G01X437690Y344970D02*
Y348060D01*
G01D02*
Y351150D01*
G01X434600Y348060D02*
X437690D01*
G01D02*
X440780D01*
G01X432470Y359670D02*
Y364520D01*
G01D02*
Y369370D01*
G01X429790Y364520D02*
X432470D01*
G01D02*
X435150D01*
G01X432470Y376920D02*
Y380980D01*
G01X429790D02*
X432470D01*
G01D02*
X435150D01*
G01X462440Y6160D02*
Y9250D01*
G01D02*
Y12340D01*
G01Y9250D02*
X465530D01*
G01X461310Y344970D02*
Y348060D01*
G01D02*
Y351150D01*
G01Y348060D02*
X464400D01*
G01X466530Y359670D02*
Y364520D01*
G01D02*
Y369370D01*
G01X463850Y364520D02*
X466530D01*
G01D02*
X469210D01*
G01X466530Y376920D02*
Y380980D01*
G01X463850D02*
X466530D01*
G01D02*
X469210D01*
G01X522000Y87230D02*
Y91010D01*
G01D02*
Y94790D01*
G01X518220Y91010D02*
X522000D01*
G01D02*
X525780D01*
G01X523180Y133400D02*
Y138990D01*
G01D02*
Y144580D01*
G01X517590Y138990D02*
X523180D01*
G01D02*
X528770D01*
G01X526380Y196130D02*
X533000D01*
G01X509370Y235940D02*
Y236900D01*
G01X522370Y235940D02*
Y239510D01*
G01X518800Y235940D02*
X522370D01*
G01D02*
X525940D01*
G01X522370Y230720D02*
Y233810D01*
G01X519280D02*
X522370D01*
G01D02*
X525460D01*
G01X526380Y247870D02*
X533000D01*
G01X526380Y261130D02*
X533000D01*
G01X509370Y300940D02*
Y301900D01*
G01X522370Y298810D02*
Y300940D01*
G01D02*
Y304510D01*
G01X518800Y300940D02*
X522370D01*
G01D02*
X525940D01*
G01X526380Y312870D02*
X533000D01*
G01X522370Y295720D02*
Y298810D01*
G01X519280D02*
X522370D01*
G01D02*
X525460D01*
G01X526380Y326130D02*
X533000D01*
G01X509370Y365940D02*
Y366900D01*
G01X522370Y363810D02*
Y365940D01*
G01Y360720D02*
Y363810D01*
G01X519280D02*
X522370D01*
G01D02*
X525460D01*
G01X522370Y365940D02*
Y369510D01*
G01X518800Y365940D02*
X522370D01*
G01D02*
X525940D01*
G01X526380Y377870D02*
X533000D01*
G01X533170Y39220D02*
Y43000D01*
G01D02*
Y46780D01*
G01X529390Y43000D02*
X533170D01*
G01D02*
X536950D01*
G01X533170Y156220D02*
Y160000D01*
G01D02*
Y163780D01*
G01X529390Y160000D02*
X533170D01*
G01D02*
X536950D01*
G01X533000Y189510D02*
Y196130D01*
G01D02*
Y202750D01*
G01Y196130D02*
X539620D01*
G01X533000Y241250D02*
Y247870D01*
G01D02*
Y254490D01*
G01Y247870D02*
X539620D01*
G01X533000Y254510D02*
Y261130D01*
G01D02*
Y267750D01*
G01Y261130D02*
X539620D01*
G01X533000Y306250D02*
Y312870D01*
G01D02*
Y319490D01*
G01Y312870D02*
X539620D01*
G01X533000Y319510D02*
Y326130D01*
G01D02*
Y332750D01*
G01Y326130D02*
X539620D01*
G01X533000Y371250D02*
Y377870D01*
G01D02*
X539620D01*
G54D22*
X438120Y366490D03*
X460880D03*
G54D13*
X21000Y9830D03*
X31000D03*
X11000D03*
X31000Y40830D03*
Y69830D03*
Y99830D03*
X41000Y40830D03*
Y69830D03*
Y99830D03*
X156000Y10840D03*
X146000D03*
X136000D03*
X166000D03*
X219000D03*
X209000D03*
X199000D03*
X229000D03*
X272000D03*
X262000D03*
X282000D03*
X292000D03*
X335000D03*
X325000D03*
X345000D03*
X355000D03*
X359000Y167990D03*
Y157990D03*
Y187990D03*
Y177990D03*
Y197990D03*
X398000Y10840D03*
X388000D03*
X408000D03*
X418000D03*
X440840Y20000D03*
Y10000D03*
Y30000D03*
Y40000D03*
X503990Y160000D03*
X493990D03*
X522000Y62010D03*
Y72010D03*
Y91010D03*
Y101010D03*
X533170Y23000D03*
Y33000D03*
Y43000D03*
Y170000D03*
Y160000D03*
Y180000D03*
G54D23*
X432470Y380980D03*
X466530D03*
G54D14*
X20820Y232010D03*
Y252010D03*
Y273010D03*
Y293010D03*
X523180Y118990D03*
Y138990D03*
G54D15*
X20160Y313990D03*
X34730D03*
X51660D03*
X66230D03*
X432470Y364520D03*
X466530D03*
G54D24*
X478990Y99770D03*
Y114340D03*
Y145840D03*
Y131270D03*
G54D25*
X522370Y208060D03*
Y225940D03*
Y218060D03*
Y235940D03*
Y273060D03*
Y290940D03*
Y283060D03*
Y300940D03*
Y355940D03*
Y348060D03*
Y338060D03*
Y365940D03*
G54D16*
G01X144000Y148000D02*
Y158000D01*
G01X208030Y151940D02*
Y155970D01*
X206000Y158000D01*
G01X457500Y172500D02*
X444500D01*
X427500Y189500D01*
X418500D01*
X414000Y194000D01*
Y215050D01*
X29000Y374000D03*
X40530Y138030D03*
Y156970D03*
X48000Y229740D03*
Y225740D03*
Y249740D03*
Y245740D03*
Y241740D03*
Y237740D03*
Y233740D03*
Y253740D03*
X59000Y37500D03*
X54880Y137120D03*
X51000Y139500D03*
X55380Y157880D03*
X68000Y225740D03*
X64000D03*
Y229740D03*
X68000D03*
X60000D03*
Y225740D03*
X56000D03*
Y229740D03*
X52000D03*
Y225740D03*
X64000Y233740D03*
X68000D03*
Y241740D03*
Y237740D03*
X64000D03*
Y241740D03*
X60000D03*
Y237740D03*
Y233740D03*
X56000D03*
Y237740D03*
Y241740D03*
X52000D03*
Y237740D03*
Y233740D03*
X68000Y249740D03*
X64000D03*
X60000D03*
X56000D03*
X52000D03*
Y245740D03*
X56000D03*
X60000D03*
X64000D03*
X68000D03*
Y253740D03*
X64000D03*
X60000D03*
X56000D03*
X52000D03*
X91000Y37000D03*
X72000D03*
X89500Y80000D03*
X85500D03*
Y84000D03*
X89500D03*
X72380Y95880D03*
X85500Y88000D03*
X89500D03*
Y92000D03*
Y96000D03*
Y100000D03*
X85500D03*
Y96000D03*
Y92000D03*
X89500Y104000D03*
X85500D03*
X82620Y95880D03*
X72380Y115880D03*
X87000Y114500D03*
X92120Y127380D03*
X84380Y159880D03*
X79050Y159950D03*
X84500Y173000D03*
X88500D03*
Y177000D03*
Y181000D03*
X84500D03*
X80500D03*
Y177000D03*
Y173000D03*
X84500Y177000D03*
X80500Y207000D03*
X88500D03*
X84500D03*
X78050Y193950D03*
X88500Y215000D03*
X84500D03*
X80500D03*
Y211000D03*
X88500D03*
X84500D03*
X72000Y229740D03*
Y225740D03*
X76000D03*
Y229740D03*
X72000Y233740D03*
Y237740D03*
Y241740D03*
X76000Y233740D03*
Y237740D03*
Y241740D03*
Y245740D03*
Y249740D03*
X72000D03*
Y245740D03*
X92000Y257500D03*
Y261500D03*
Y265500D03*
Y269500D03*
Y253500D03*
X76000Y253740D03*
X72000D03*
X112500Y39500D03*
X97500Y49000D03*
X104000Y78500D03*
X108000D03*
Y82500D03*
Y74500D03*
X104000D03*
X108560Y106000D03*
X102000Y96000D03*
X101750Y99000D03*
X99000Y96000D03*
X93000D03*
X96000D03*
X93000Y103000D03*
X96000D03*
X99000D03*
Y100000D03*
X93000D03*
X104620Y91120D03*
X109670D03*
X102950Y123050D03*
X107620Y118380D03*
X96000Y109000D03*
X99000D03*
X93000D03*
Y114500D03*
X96000D03*
X99000D03*
X107510Y123990D03*
X104000Y149500D03*
X94380Y182380D03*
X99500Y179000D03*
X95250Y204250D03*
X94380Y215880D03*
X99500Y213000D03*
X113000Y210500D03*
X101000Y240000D03*
X108000Y257500D03*
X104000D03*
X100000D03*
X96000D03*
Y261500D03*
X100000D03*
X104000D03*
X108000D03*
Y269500D03*
Y265500D03*
X104000D03*
Y269500D03*
X96000Y265500D03*
X100000D03*
Y269500D03*
X96000D03*
Y253500D03*
X104000Y273500D03*
X109500Y324500D03*
X113500Y123500D03*
Y119500D03*
X113550Y116500D03*
X133250Y142500D03*
X119500Y138000D03*
X115500Y154500D03*
X114000Y179000D03*
X121000Y171000D03*
X114000Y175000D03*
X114500Y206500D03*
X127000Y213000D03*
X131000D03*
X123000D03*
X131000Y217000D03*
X123000D03*
X131000Y221000D03*
X127000D03*
X123000D03*
X120000Y279000D03*
X130620Y291880D03*
X125500Y324500D03*
X121500D03*
X117500D03*
X113500D03*
X126000Y354000D03*
X132620Y368000D03*
X129380Y363380D03*
X128000Y368500D03*
X149500Y27000D03*
X140500D03*
X151000Y40500D03*
Y36500D03*
Y38500D03*
X148000Y40500D03*
Y38500D03*
Y36500D03*
X142000Y38500D03*
Y36500D03*
Y40500D03*
X147000Y24000D03*
X142000D03*
X147000Y30000D03*
X142500D03*
X151000Y24000D03*
X151500Y30000D03*
X144000Y148000D03*
Y158000D03*
X154000Y160000D03*
Y186000D03*
X134500Y169000D03*
X143000Y223000D03*
X152000Y228000D03*
Y224000D03*
X148000Y228000D03*
Y224000D03*
X140000Y228000D03*
Y224000D03*
X144000Y228000D03*
X152000Y232000D03*
X148000D03*
X144000D03*
Y236000D03*
Y240000D03*
X140000D03*
Y236000D03*
Y232000D03*
X147500Y313000D03*
X149990Y303500D03*
X147500Y307000D03*
X154440Y341440D03*
X144000Y363500D03*
X158500Y27000D03*
X167500D03*
X160000Y40500D03*
Y36500D03*
Y38500D03*
X166000Y36500D03*
Y38500D03*
Y40500D03*
X169000D03*
Y36500D03*
Y38500D03*
X175000Y40500D03*
Y38500D03*
Y36500D03*
X157000D03*
Y38500D03*
Y40500D03*
X174500Y30000D03*
X169000Y24000D03*
X174500D03*
X169500Y30000D03*
X156000Y24000D03*
Y30000D03*
X165000Y24000D03*
X160000D03*
X165000Y30000D03*
X160500D03*
X162500Y154500D03*
X158000Y150000D03*
X170000Y148620D03*
X160050Y189550D03*
X164500Y200000D03*
X169720Y201500D03*
X167160Y198000D03*
X172280Y199000D03*
X174840Y202000D03*
X172000Y216380D03*
X156000Y228000D03*
X160000D03*
Y231000D03*
X156000Y225000D03*
Y231000D03*
X160000Y225000D03*
X172500Y223000D03*
Y227000D03*
Y231000D03*
X164500Y251500D03*
X157500D03*
X172500Y235000D03*
Y239000D03*
Y243000D03*
Y251000D03*
Y247000D03*
X168500D03*
Y251000D03*
X157500Y256000D03*
X161000D03*
X164500D03*
X172500Y267000D03*
Y263000D03*
Y259000D03*
Y255000D03*
X168500D03*
Y259000D03*
Y263000D03*
Y267000D03*
X173000Y293000D03*
X163500D03*
X166500D03*
X159040Y303500D03*
X163050Y309000D03*
X165500Y315500D03*
X171500Y365500D03*
X159000D03*
X167000D03*
X176500Y144450D03*
X192500Y159000D03*
X196000Y160500D03*
X193000Y165500D03*
X179500Y154500D03*
X187000Y173000D03*
X186000Y198620D03*
X177500Y199000D03*
X179960Y202000D03*
X176500Y231000D03*
Y227000D03*
Y223000D03*
Y235000D03*
Y239000D03*
Y243000D03*
Y247000D03*
Y251000D03*
Y255000D03*
Y259000D03*
Y263000D03*
Y267000D03*
X194000Y291500D03*
Y288500D03*
Y285000D03*
X190500D03*
Y288500D03*
Y291500D03*
X195820Y310180D03*
Y314180D03*
X191820Y310180D03*
Y314180D03*
X183820Y310180D03*
Y314180D03*
X191820Y306180D03*
X183820D03*
X191820Y302180D03*
X183820D03*
X195820Y318180D03*
X191820D03*
X183820D03*
X188000Y330500D03*
X203500Y27000D03*
X212500D03*
X214000Y40500D03*
Y36500D03*
Y38500D03*
X211000Y40500D03*
Y38500D03*
Y36500D03*
X205000Y38500D03*
Y36500D03*
Y40500D03*
X210000Y24000D03*
X205000D03*
X210000Y30000D03*
X205500D03*
X214000Y24000D03*
X214500Y30000D03*
X208030Y151940D03*
X213000Y158000D03*
X206000D03*
X200500Y189000D03*
Y185000D03*
X207500Y180000D03*
X203500Y175000D03*
X199000D03*
X207500D03*
X214500Y181500D03*
Y184500D03*
X216000Y198620D03*
X201000Y222000D03*
X210000Y231000D03*
Y223000D03*
Y227000D03*
X214000Y224000D03*
Y230000D03*
Y227000D03*
X206000Y231000D03*
Y223000D03*
Y227000D03*
X202000Y231000D03*
X198000D03*
Y227000D03*
Y223000D03*
X202000Y227000D03*
X215500Y250500D03*
X202000Y235000D03*
Y239000D03*
X198000D03*
Y235000D03*
X215500Y255000D03*
X197500Y285000D03*
Y288500D03*
Y291500D03*
X205380Y286000D03*
X199820Y310180D03*
Y314180D03*
X203820Y310180D03*
Y314180D03*
X207820Y310180D03*
Y314180D03*
X211820Y310180D03*
Y314180D03*
X215820D03*
Y310180D03*
Y302180D03*
X199820Y318180D03*
X203820D03*
X207820D03*
X211820D03*
X215820D03*
X221500Y27000D03*
X230500D03*
X223000Y40500D03*
Y36500D03*
Y38500D03*
X229000Y36500D03*
Y38500D03*
Y40500D03*
X238000D03*
Y38500D03*
Y36500D03*
X232000Y40500D03*
Y36500D03*
Y38500D03*
X220000Y36500D03*
Y38500D03*
Y40500D03*
X237500Y30000D03*
X232000Y24000D03*
X237500D03*
X232500Y30000D03*
X219000Y24000D03*
Y30000D03*
X228000Y24000D03*
X223000D03*
X228000Y30000D03*
X223500D03*
X234500Y142980D03*
X218500Y155500D03*
X217380Y168120D03*
X225920Y155920D03*
X220620Y165500D03*
X223110Y185110D03*
X217500Y184500D03*
Y181640D03*
X233000Y201500D03*
X238000D03*
X236000Y220000D03*
Y216000D03*
X232000Y220000D03*
Y216000D03*
X224620Y215380D03*
X237000Y247000D03*
Y243500D03*
X222500Y250500D03*
X227000D03*
X222500Y255000D03*
X219000D03*
X233000Y261000D03*
X227000Y255000D03*
X222000Y284000D03*
X226000D03*
X230000D03*
X222000Y292000D03*
Y288000D03*
X226000D03*
X230000D03*
Y292000D03*
X226000D03*
X219820Y310180D03*
Y314180D03*
X222000Y296000D03*
X230000D03*
X226000D03*
X219820Y318180D03*
X255000Y156000D03*
X240000Y153500D03*
X253000Y166000D03*
X250120Y171620D03*
X246500Y172000D03*
X258000Y201500D03*
X248000D03*
X253000D03*
X243000D03*
X253000Y210000D03*
X240000Y220000D03*
Y216000D03*
X252000Y229000D03*
Y225000D03*
X248000Y221000D03*
Y225000D03*
Y229000D03*
X258500Y219000D03*
X241000Y247000D03*
Y243500D03*
X252000Y249000D03*
Y245000D03*
Y241000D03*
Y237000D03*
Y233000D03*
X249500Y272600D03*
X248000Y261000D03*
Y257000D03*
X252000Y261000D03*
Y257000D03*
Y253000D03*
X257850Y264500D03*
Y267490D03*
X253000Y270550D03*
X257000Y270500D03*
X240000Y281350D03*
X249500Y285000D03*
Y281000D03*
X246620Y303380D03*
X258000Y342500D03*
X275500Y27000D03*
X266500D03*
X277000Y40500D03*
Y36500D03*
Y38500D03*
X268000Y40500D03*
Y36500D03*
Y38500D03*
X274000Y36500D03*
Y38500D03*
Y40500D03*
X273000Y24000D03*
X268000D03*
X273000Y30000D03*
X268500D03*
X277000Y24000D03*
X277500Y30000D03*
X279620Y163500D03*
X260000Y167500D03*
Y183000D03*
X269560Y188940D03*
X265000Y193500D03*
X269450Y229500D03*
X259950Y222000D03*
X274000Y230500D03*
X265950Y224900D03*
X269450Y232680D03*
X269000Y237000D03*
X269400Y248500D03*
X264900Y238500D03*
X259900Y232500D03*
X266000Y233000D03*
X278500Y240500D03*
X264670Y242280D03*
X277000Y289000D03*
X265000Y286500D03*
X265800Y281200D03*
X279000Y294330D03*
X269500D03*
X272000Y297000D03*
X264400Y308000D03*
X260000Y305000D03*
Y296000D03*
X268950Y322000D03*
X268000Y351500D03*
X295000Y40500D03*
Y36500D03*
Y38500D03*
X286000Y40500D03*
Y36500D03*
Y38500D03*
X292000Y36500D03*
Y38500D03*
Y40500D03*
X284500Y27000D03*
X293500D03*
X283000Y36500D03*
Y38500D03*
Y40500D03*
X282000Y24000D03*
Y30000D03*
X291000Y24000D03*
X286000D03*
X291000Y30000D03*
X286500D03*
X300500D03*
X295000Y24000D03*
X300500D03*
X295500Y30000D03*
X297000Y144500D03*
X289500D03*
X298160Y168000D03*
X295100Y158690D03*
X293000Y150000D03*
X300000D03*
X290480Y181020D03*
X288000Y201500D03*
X298000D03*
X293000D03*
X283000D03*
X288750Y210250D03*
X297100Y229000D03*
X293500D03*
X281000Y230500D03*
X285500Y210500D03*
X281000Y227500D03*
Y251360D03*
X299300Y239550D03*
X297000Y241950D03*
X286500Y258000D03*
X280380Y260620D03*
X286000Y284080D03*
X287150Y307000D03*
X280500Y310000D03*
X300000Y322500D03*
X285000Y348000D03*
X289000Y351500D03*
X301000Y40500D03*
Y38500D03*
Y36500D03*
X302000Y119500D03*
X315000Y150000D03*
X302500Y168000D03*
X318500Y150500D03*
X321050Y155500D03*
X315000Y158250D03*
X308000Y150000D03*
X312300D03*
X318000Y201500D03*
X303000D03*
X313000D03*
X308000D03*
X314500Y231050D03*
X308050Y222500D03*
X301350D03*
X314000Y218400D03*
X317000Y224900D03*
X320000Y237000D03*
X313500Y243000D03*
X307000Y241500D03*
X304000Y241950D03*
X313500Y272450D03*
X317500Y279500D03*
Y276500D03*
X311050Y279000D03*
X308000Y304050D03*
X301000Y297000D03*
X321500Y299500D03*
X318380Y322120D03*
X315600Y334000D03*
Y328500D03*
X301500Y333000D03*
X313160Y318840D03*
X312000Y339500D03*
X315600Y338000D03*
X301500Y337000D03*
X317000Y342000D03*
X337000Y36500D03*
Y38500D03*
Y40500D03*
X331000D03*
Y38500D03*
Y36500D03*
X329500Y27000D03*
X338500D03*
X340000Y40500D03*
Y38500D03*
Y36500D03*
X336000Y30000D03*
X331500D03*
X336000Y24000D03*
X331000D03*
X340500Y30000D03*
X340000Y24000D03*
X324500Y126500D03*
X332500Y164000D03*
X327550Y159500D03*
X327580Y156570D03*
X340990Y154000D03*
X323450Y178000D03*
X337000Y172000D03*
X323000Y201500D03*
X324000Y206550D03*
X342050Y192000D03*
X324890Y230500D03*
X322500Y229000D03*
X332500Y225500D03*
X335000Y222500D03*
X334950Y219500D03*
X330500Y218400D03*
X339000Y238000D03*
X330500Y237000D03*
X329500Y243500D03*
X335000Y267000D03*
X330000D03*
X328550Y289500D03*
X335050Y278500D03*
X330000Y276500D03*
X325000Y299500D03*
X340000Y322750D03*
X335000D03*
Y331000D03*
X340000D03*
X332400Y330000D03*
Y334000D03*
X324000Y342000D03*
X330920D03*
X337500Y345500D03*
X358000Y40500D03*
Y38500D03*
Y36500D03*
X349000Y40500D03*
X355000Y36500D03*
Y38500D03*
Y40500D03*
X349000Y38500D03*
Y36500D03*
X347500Y27000D03*
X356500D03*
X346000Y36500D03*
Y38500D03*
Y40500D03*
X345000Y30000D03*
Y24000D03*
X349500Y30000D03*
X354000D03*
Y24000D03*
X349000D03*
X358500Y30000D03*
X358000Y24000D03*
X351000Y153500D03*
X354000Y151450D03*
X350000Y179500D03*
X361550Y215000D03*
X361730Y211920D03*
X352000Y246500D03*
Y238000D03*
X348000D03*
X343000D03*
X363000Y242000D03*
X358500Y272190D03*
Y269500D03*
X348500Y286500D03*
X359000Y307620D03*
X348690Y295810D03*
X361050Y314500D03*
X359000Y316500D03*
X352500Y335000D03*
X350450Y333000D03*
X356600Y335000D03*
X356750Y330250D03*
X344000Y339000D03*
X364000Y36500D03*
Y38500D03*
Y40500D03*
X363500Y30000D03*
Y24000D03*
X364000Y118500D03*
X367000Y144400D03*
X364500Y159000D03*
X364450Y163500D03*
X369500Y152500D03*
X368550Y209000D03*
X363500Y228500D03*
X366950Y214060D03*
X363500Y231500D03*
X378500Y258500D03*
X378550Y255500D03*
X366050Y291000D03*
X373000Y285050D03*
X364000Y293760D03*
X375450Y282950D03*
X367000Y302000D03*
X373500Y297500D03*
Y301000D03*
X375500Y331000D03*
X374520Y319480D03*
X383480D03*
X378950Y335950D03*
X392500Y27000D03*
X401500D03*
X403000Y40500D03*
Y36500D03*
Y38500D03*
X394000Y40500D03*
Y36500D03*
Y38500D03*
X400000Y36500D03*
Y38500D03*
Y40500D03*
X399000Y30000D03*
Y24000D03*
X394000D03*
X394500Y30000D03*
X403000Y24000D03*
X403500Y30000D03*
X404000Y202620D03*
X394000Y215050D03*
X388500Y224000D03*
X397500Y227500D03*
X388000Y220000D03*
X391000Y246500D03*
X401500Y263500D03*
X402500Y285500D03*
X394520D03*
X397000Y275500D03*
X394250Y273250D03*
X385000Y284000D03*
Y287000D03*
X390000Y310000D03*
Y303500D03*
X403000Y294500D03*
X394500Y294000D03*
X394000Y315000D03*
X401500D03*
X401650Y335950D03*
X410500Y27000D03*
X419500D03*
X412000Y40500D03*
Y36500D03*
Y38500D03*
X418000Y36500D03*
Y38500D03*
Y40500D03*
X421000D03*
Y36500D03*
Y38500D03*
X409000Y36500D03*
Y38500D03*
Y40500D03*
X421000Y24000D03*
X421500Y30000D03*
X408000D03*
Y24000D03*
X417000Y30000D03*
Y24000D03*
X412000D03*
X412500Y30000D03*
X423120Y157380D03*
X419000Y195500D03*
X414000Y215050D03*
X407000Y227500D03*
X415000Y241000D03*
Y237500D03*
X407500Y251500D03*
X416950Y261500D03*
X405160Y263500D03*
X425000Y253000D03*
X424500Y268000D03*
X417960Y285910D03*
X407500Y310500D03*
Y304000D03*
X418000Y305000D03*
X420880Y302620D03*
X418000Y296500D03*
X427000Y40500D03*
Y38500D03*
Y36500D03*
X426500Y30000D03*
Y24000D03*
X446480Y52020D03*
X433500Y124000D03*
X446000Y151000D03*
X430000Y160620D03*
X437500Y200000D03*
Y196000D03*
X427500Y227500D03*
Y222500D03*
X429500Y217000D03*
X435500Y223000D03*
X437500Y210500D03*
X427500Y237500D03*
Y232500D03*
X444500Y266000D03*
X445000Y292500D03*
X431500Y290000D03*
Y286000D03*
X427050Y310550D03*
Y294000D03*
Y304000D03*
X445000Y303000D03*
X443620Y312380D03*
X437000Y331000D03*
Y333500D03*
X435000Y321000D03*
X441000D03*
X430000Y318000D03*
X454520Y56480D03*
X463480Y51020D03*
X464500Y68500D03*
Y100500D03*
Y88000D03*
X458500Y116500D03*
X457000Y156500D03*
X457500Y172500D03*
Y177500D03*
Y197500D03*
X457550Y203500D03*
X449000Y199000D03*
X455000Y209000D03*
X462000D03*
Y217500D03*
X455030D03*
X457000Y244500D03*
X452000Y260000D03*
X466500Y262380D03*
X448000Y268000D03*
X456000Y260000D03*
X466500Y265620D03*
X453000Y281000D03*
X457000D03*
Y285000D03*
X453000D03*
X449000D03*
Y281000D03*
Y277000D03*
X453000D03*
X457000D03*
X462000Y314500D03*
X464000Y304000D03*
X456000Y298000D03*
Y301500D03*
X456750Y321130D03*
X462000Y318000D03*
X458000D03*
X459000Y329000D03*
X463000Y321000D03*
X470620Y51120D03*
X477120Y82620D03*
X472000Y67550D03*
X479500Y162000D03*
X471000D03*
X467500Y177500D03*
X473380Y184500D03*
X488000Y183000D03*
X484000Y206500D03*
Y212500D03*
Y264500D03*
Y258500D03*
X473000Y272000D03*
X470000Y257000D03*
X468550Y268000D03*
X484000Y270500D03*
X473000Y278000D03*
X476500Y290500D03*
X484000Y276500D03*
X480000Y310000D03*
Y314000D03*
X484000Y310000D03*
X476000D03*
Y314000D03*
X472000Y310000D03*
X475600Y295500D03*
X482500Y326500D03*
Y332500D03*
X476500D03*
Y326500D03*
X470500Y332500D03*
X486000Y328000D03*
X506120Y38500D03*
X507000Y56750D03*
X498000Y72500D03*
X490000Y65000D03*
X489000Y78000D03*
X499000Y65000D03*
X492500Y168000D03*
X491500Y189000D03*
X490000Y206500D03*
X506000Y229500D03*
Y214500D03*
X490000Y212500D03*
X508000Y246500D03*
X502000D03*
Y240500D03*
Y234500D03*
X496000D03*
Y240500D03*
Y246500D03*
Y264500D03*
X502000D03*
X508000D03*
Y258500D03*
Y252500D03*
X496000Y258500D03*
X502000D03*
Y252500D03*
X496000D03*
X490000Y270500D03*
X506000Y280000D03*
X490000Y276500D03*
X506000Y294000D03*
X500000D03*
Y300000D03*
X494000D03*
X495000Y310000D03*
Y306000D03*
X499000Y310000D03*
Y306000D03*
X500500Y319500D03*
Y325500D03*
Y331500D03*
X494500Y332500D03*
X488500D03*
X506000Y344500D03*
Y359500D03*
X516000Y39500D03*
Y53000D03*
X513380Y55620D03*
X511000Y61500D03*
X513000Y78500D03*
X519000Y175000D03*
X533500Y83000D03*
X539170Y109830D03*
X534000Y107000D03*
G54D17*
X85270Y58980D03*
X85280Y348890D03*
X414410D03*
X499050Y18400D03*
G54D26*
X533000Y196130D03*
Y247870D03*
Y261130D03*
Y312870D03*
Y326130D03*
Y377870D03*
G54D27*
X538380Y63650D03*
Y70350D03*
Y91650D03*
Y98350D03*
G54D18*
X113160Y379750D03*
X118080D03*
X123000D03*
X127920D03*
X132840D03*
G54D28*
G01X330500Y237000D02*
X335000Y241500D01*
Y267000D01*
G01X330000D02*
Y245860D01*
X329500Y245360D01*
Y243500D01*
G54D19*
X120000Y15990D03*
Y5990D03*
Y25990D03*
X122010Y185000D03*
X132010D03*
X142010D03*
X183000Y15990D03*
Y5990D03*
Y25990D03*
X246000Y15990D03*
Y5990D03*
Y25990D03*
X309000Y15990D03*
Y5990D03*
Y25990D03*
X372000Y15990D03*
Y5990D03*
Y25990D03*
G54D29*
G01X40530Y156970D02*
Y138030D01*
G01X236500Y261000D02*
X240000Y264500D01*
Y281350D01*
G01X299500Y324500D02*
X308000D01*
X312000Y328500D01*
Y339500D01*
G01X355500Y246000D02*
X356000Y245500D01*
G01X367000Y144400D02*
Y160950D01*
X364450Y163500D01*
G01X424500Y296500D02*
Y268000D01*
G01X458000Y301500D02*
X479500D01*
X487500Y309500D01*
Y316000D01*
X486000Y317500D01*
Y328000D01*
G01X507000Y56750D02*
X498250D01*
X490000Y65000D01*
M02*
