G04 ================== begin FILE IDENTIFICATION RECORD ==================*
G04 Layout Name:  D:/MaxRuan/Projects/SPB/K1_MAX_MB/MainBoard/PCB/CATALYSTK_260108.brd*
G04 Film Name:    Board_SilkTop*
G04 File Format:  Gerber RS274X*
G04 File Origin:  Cadence Allegro 17.2-S071*
G04 Origin Date:  Mon Jan 12 17:48:41 2026*
G04 *
G04 Layer:  BOARD GEOMETRY/SILKSCREEN_TOP*
G04 Layer:  BOARD GEOMETRY/OUTLINE*
G04 Layer:  PACKAGE GEOMETRY/SILKSCREEN_TOP*
G04 *
G04 Offset:    (0.0 0.0)*
G04 Mirror:    No*
G04 Mode:      Positive*
G04 Rotation:  0*
G04 FullContactRelief:  No*
G04 UndefLineWidth:     6.0*
G04 ================== end FILE IDENTIFICATION RECORD ====================*
%FSLAX25Y25*MOIN*%
%IR0*IPPOS*OFA0.00000B0.00000*MIA0B0*SFA1.00000B1.00000*%
%ADD10C,.006*%
%ADD11C,.007*%
%ADD12C,.008*%
%ADD13C,.0047*%
%ADD14C,.0059*%
%ADD15C,.0079*%
%ADD16C,.0098*%
%ADD17C,.01*%
%ADD18C,.0118*%
G75*
%LPD*%
G75*
G36*
G01X23340Y30250D02*
G03I-592J-2D01*
G37*
G36*
G01X33340Y164750D02*
G03I-588J-2D01*
G37*
G36*
G01Y193750D02*
G03I-588J-2D01*
G37*
G36*
G01X52340Y38750D02*
G03I-588J-2D01*
G37*
G36*
G01Y63750D02*
G03I-588J-2D01*
G37*
G36*
G01Y92750D02*
G03I-588J-2D01*
G37*
G36*
G01X82910Y77010D02*
G03I-792J2D01*
G37*
G36*
G01Y97010D02*
G03I-792J2D01*
G37*
G36*
G01X85050Y122970D02*
G03I-593J-1D01*
G37*
G36*
G01X71840Y134250D02*
G03I-592J2D01*
G37*
G36*
G01X96000Y264980D02*
G03X116020Y285000I0J20020D01*
G01X96000D01*
X75980D01*
G03X96000Y264980I20022J2D01*
G37*
G36*
G01X104910Y77010D02*
G03I-792J2D01*
G37*
G36*
G01X291020Y87000D02*
G03X271000Y107020I-20020J0D01*
G01Y87000D01*
Y66980D01*
G03X291020Y87000I-2J20022D01*
G37*
G36*
G01X264240Y211160D02*
Y214570D01*
X271710Y210260D01*
X264240Y205950D01*
Y209360D01*
X258320Y205950D01*
Y214570D01*
X264240Y211160D01*
G37*
G36*
G01X277280Y211170D02*
X280750D01*
Y210440D01*
X277280D01*
Y206500D01*
X276480D01*
Y214930D01*
X280990D01*
Y214200D01*
X277280D01*
Y211170D01*
G37*
G36*
G01X258020Y225560D02*
X257890Y225900D01*
X257760Y226280D01*
X257660Y226690D01*
X257580Y227120D01*
X257510Y227590D01*
X257470Y228080D01*
X257440Y228600D01*
X257430Y229140D01*
Y229190D01*
X257440Y229740D01*
X257470Y230270D01*
X257530Y230780D01*
X257600Y231250D01*
X257700Y231710D01*
X257810Y232130D01*
X257950Y232520D01*
X258100Y232900D01*
X258290Y233240D01*
X258490Y233560D01*
X258700Y233850D01*
X258950Y234120D01*
X259010Y234170D01*
X259300Y234430D01*
X259620Y234660D01*
X259960Y234870D01*
X260320Y235050D01*
X260710Y235210D01*
X261120Y235350D01*
X261550Y235460D01*
X262000Y235550D01*
X262480Y235610D01*
X262980Y235640D01*
X263500Y235660D01*
X263560Y235670D01*
X264080Y235660D01*
X264570Y235630D01*
X265040Y235580D01*
X265480Y235520D01*
X265900Y235430D01*
X266290Y235330D01*
X266590Y235230D01*
Y232480D01*
X266180Y232620D01*
X265770Y232730D01*
X265330Y232820D01*
X264890Y232880D01*
X264430Y232920D01*
X263950Y232940D01*
X263800D01*
X263290Y232920D01*
X262820Y232840D01*
X262420Y232730D01*
X262140Y232600D01*
X261810Y232350D01*
X261530Y232030D01*
X261300Y231630D01*
X261220Y231420D01*
X261120Y231070D01*
X261040Y230670D01*
X260980Y230230D01*
X260940Y229740D01*
X260930Y229200D01*
Y229190D01*
X260940Y228640D01*
X260980Y228140D01*
X261040Y227690D01*
X261120Y227300D01*
X261220Y226960D01*
X261240Y226920D01*
X261440Y226480D01*
X261710Y226130D01*
X262030Y225880D01*
X262140Y225800D01*
X262500Y225660D01*
X262910Y225560D01*
X263380Y225490D01*
X263820Y225480D01*
X264300Y225490D01*
X264760Y225520D01*
X265220Y225580D01*
X265650Y225650D01*
X266070Y225750D01*
X266490Y225870D01*
X266740Y225960D01*
Y223210D01*
X266350Y223080D01*
X265920Y222960D01*
X265450Y222870D01*
X265330Y222850D01*
X264880Y222780D01*
X264430Y222730D01*
X263980Y222710D01*
X263660D01*
X263140D01*
X262640Y222740D01*
X262170Y222790D01*
X261720Y222850D01*
X261300Y222940D01*
X260890Y223040D01*
X260510Y223160D01*
X260280Y223240D01*
X259890Y223430D01*
X259520Y223650D01*
X259180Y223920D01*
X258870Y224220D01*
X258580Y224560D01*
X258340Y224950D01*
X258180Y225230D01*
X258020Y225560D01*
G37*
G36*
G01X271770Y225750D02*
X270780Y222880D01*
X267450D01*
X272110Y235480D01*
X276430D01*
X281060Y222880D01*
X277650D01*
X276680Y225750D01*
X271770D01*
G37*
G36*
G01X289260Y208300D02*
X289200Y208120D01*
X289010Y207730D01*
X288790Y207400D01*
X288530Y207120D01*
X288230Y206880D01*
X288050Y206780D01*
X287730Y206640D01*
X287380Y206520D01*
X286990Y206450D01*
X286580Y206400D01*
X286120Y206380D01*
X286020D01*
X285560Y206400D01*
X285130Y206440D01*
X284740Y206520D01*
X284380Y206620D01*
X284060Y206750D01*
X284010Y206780D01*
X283690Y206980D01*
X283410Y207220D01*
X283160Y207530D01*
X282950Y207880D01*
X282850Y208120D01*
X282740Y208410D01*
X282660Y208750D01*
X282580Y209120D01*
X282530Y209520D01*
X282490Y209960D01*
X282460Y210420D01*
Y210720D01*
X282470Y211200D01*
X282500Y211660D01*
X282540Y212070D01*
X282600Y212460D01*
X282690Y212810D01*
X282780Y213130D01*
X282850Y213320D01*
X283030Y213700D01*
X283260Y214040D01*
X283510Y214320D01*
X283810Y214550D01*
X284010Y214670D01*
X284320Y214800D01*
X284670Y214910D01*
X285060Y214990D01*
X285480Y215040D01*
X285930Y215060D01*
X286020D01*
X286490Y215040D01*
X286910Y215000D01*
X287300Y214920D01*
X287660Y214830D01*
X287980Y214690D01*
X288050Y214670D01*
X288360Y214470D01*
X288630Y214210D01*
X288880Y213910D01*
X289090Y213560D01*
X289200Y213320D01*
X289300Y213010D01*
X289400Y212680D01*
X289470Y212310D01*
X289530Y211910D01*
X289560Y211480D01*
X289580Y211020D01*
Y210720D01*
Y210240D01*
X289550Y209790D01*
X289510Y209360D01*
X289440Y208980D01*
X289370Y208620D01*
X289260Y208300D01*
G37*
G36*
G01X294900Y210150D02*
X294890D01*
X297460Y206500D01*
X296500D01*
X294060Y210050D01*
X293700Y210040D01*
X293500D01*
X292390D01*
Y206500D01*
X291590D01*
Y214930D01*
X293460D01*
X293940Y214920D01*
X294380Y214890D01*
X294770Y214850D01*
X295120Y214790D01*
X295380Y214720D01*
X295770Y214550D01*
X296080Y214320D01*
X296320Y214040D01*
X296360Y213990D01*
X296500Y213680D01*
X296590Y213320D01*
X296650Y212890D01*
X296660Y212520D01*
X296640Y212050D01*
X296580Y211640D01*
X296460Y211280D01*
X296320Y210980D01*
X296250Y210880D01*
X296000Y210620D01*
X295700Y210420D01*
X295330Y210260D01*
X294900Y210150D01*
G37*
G36*
G01X295500Y225750D02*
X294520Y222880D01*
X291180D01*
X295850Y235480D01*
X300160D01*
X304790Y222880D01*
X301380D01*
X300420Y225750D01*
X295500D01*
G37*
G36*
G01X284500Y222880D02*
Y232670D01*
X281360D01*
Y235480D01*
X290830D01*
Y232670D01*
X287700D01*
Y222880D01*
X284500D01*
G37*
G36*
G01X311860Y206500D02*
X311060D01*
Y214170D01*
X308940Y213760D01*
Y214440D01*
X311380Y214930D01*
X311860D01*
Y206500D01*
G37*
G36*
G01X322550Y210770D02*
X322900Y210550D01*
X323180Y210270D01*
X323350Y210020D01*
X323480Y209700D01*
X323570Y209320D01*
X323600Y208880D01*
X323610Y208730D01*
X323580Y208290D01*
X323500Y207890D01*
X323350Y207540D01*
X323160Y207240D01*
X322900Y206990D01*
X322880Y206960D01*
X322600Y206780D01*
X322280Y206630D01*
X321930Y206520D01*
X321530Y206440D01*
X321080Y206390D01*
X320690Y206380D01*
X320280Y206390D01*
X319880Y206410D01*
X319480Y206450D01*
X319220Y206490D01*
X318740Y206570D01*
X318380Y206660D01*
X318180Y206720D01*
Y207500D01*
X318500Y207390D01*
X318900Y207290D01*
X319290Y207220D01*
X319690Y207160D01*
X320090Y207120D01*
X320490Y207100D01*
X320690Y207090D01*
X321160Y207120D01*
X321580Y207180D01*
X321930Y207290D01*
X322220Y207450D01*
X322280Y207480D01*
X322530Y207730D01*
X322700Y208050D01*
X322800Y208440D01*
X322820Y208720D01*
X322780Y209170D01*
X322690Y209530D01*
X322630Y209640D01*
X322390Y209920D01*
X322060Y210160D01*
X322010Y210190D01*
X321710Y210310D01*
X321340Y210430D01*
X320900Y210560D01*
X320740Y210600D01*
X320270Y210720D01*
X319860Y210840D01*
X319530Y210980D01*
X319320Y211070D01*
X318970Y211290D01*
X318700Y211570D01*
X318610Y211720D01*
X318470Y212040D01*
X318400Y212430D01*
X318380Y212850D01*
X318400Y213240D01*
X318460Y213580D01*
X318580Y213890D01*
X318730Y214160D01*
X318940Y214400D01*
X319180Y214600D01*
X319460Y214770D01*
X319800Y214900D01*
X320180Y215000D01*
X320600Y215040D01*
X321060Y215070D01*
X321090D01*
X321480Y215060D01*
X321870Y215030D01*
X322240Y214980D01*
X322700Y214900D01*
X323060Y214800D01*
X323180Y214760D01*
Y214000D01*
X322820Y214120D01*
X322420Y214210D01*
X322210Y214250D01*
X321810Y214310D01*
X321410Y214340D01*
X321070Y214360D01*
X320590Y214320D01*
X320180Y214260D01*
X319850Y214150D01*
X319630Y214020D01*
X319390Y213770D01*
X319240Y213440D01*
X319170Y213020D01*
Y212850D01*
X319210Y212410D01*
X319310Y212110D01*
X319540Y211840D01*
X319850Y211660D01*
X320140Y211530D01*
X320520Y211410D01*
X320980Y211290D01*
X321030Y211280D01*
X321490Y211160D01*
X321900Y211040D01*
X322250Y210910D01*
X322550Y210770D01*
G37*
G36*
G01X303260Y211320D02*
X306410Y214930D01*
X307420D01*
X303900Y211000D01*
X307530Y206500D01*
X306490D01*
X303260Y210610D01*
X302560D01*
Y206500D01*
X301750D01*
Y214930D01*
X302560D01*
Y211320D01*
X303260D01*
G37*
G36*
G01X322380Y222880D02*
X319130D01*
Y227700D01*
X314520Y235480D01*
X318290D01*
X320700Y230730D01*
X322380Y227790D01*
Y222880D01*
G37*
G36*
G01X314080D02*
X306040D01*
Y235480D01*
X309260D01*
Y225660D01*
X314080D01*
Y222880D01*
G37*
G36*
G01X318390Y326620D02*
G02I-984J-2D01*
G37*
G36*
G01X354030Y87000D02*
G03X334000Y107030I-20030J0D01*
G01Y87000D01*
Y66970D01*
G03X354030Y87000I2J20028D01*
G37*
G36*
G01X336700Y210980D02*
X336620Y210880D01*
X336380Y210620D01*
X336070Y210420D01*
X335700Y210260D01*
X335270Y210150D01*
X335260D01*
X337840Y206500D01*
X336880D01*
X334440Y210050D01*
X334080Y210040D01*
X333870D01*
X332770D01*
Y206500D01*
X331970D01*
Y214930D01*
X333820D01*
X334310Y214920D01*
X334750Y214890D01*
X335140Y214850D01*
X335500Y214790D01*
X335750Y214720D01*
X336140Y214550D01*
X336460Y214320D01*
X336700Y214040D01*
X336740Y213990D01*
X336870Y213680D01*
X336970Y213320D01*
X337020Y212890D01*
X337040Y212520D01*
X337020Y212050D01*
X336950Y211640D01*
X336840Y211280D01*
X336700Y210980D01*
G37*
G36*
G01X329630Y210570D02*
X326170D01*
Y207240D01*
X330240D01*
Y206500D01*
X325370D01*
Y214930D01*
X329880D01*
Y214200D01*
X326170D01*
Y211270D01*
X329630D01*
Y210570D01*
G37*
G36*
G01X320700Y230730D02*
X320810D01*
X323370Y235480D01*
X327000D01*
X322380Y227790D01*
X320700Y230730D01*
G37*
G36*
G01X336460Y225170D02*
X336310Y224770D01*
X336130Y224400D01*
X335900Y224080D01*
X335620Y223790D01*
X335510Y223680D01*
X335240Y223480D01*
X334930Y223300D01*
X334580Y223150D01*
X334200Y223010D01*
X333780Y222900D01*
X333330Y222820D01*
X332840Y222760D01*
X332300Y222720D01*
X331740Y222710D01*
X331660D01*
X331210D01*
X330760Y222730D01*
X330300Y222760D01*
X329860Y222810D01*
X329700Y222830D01*
X329210Y222900D01*
X328740Y222980D01*
X328330Y223070D01*
X328020Y223140D01*
Y225920D01*
X328380Y225810D01*
X328810Y225720D01*
X329280Y225630D01*
X329650Y225570D01*
X330120Y225510D01*
X330580Y225470D01*
X331020Y225440D01*
X331450Y225430D01*
X331500D01*
X332040Y225440D01*
X332460Y225490D01*
X332720Y225560D01*
X333130Y225760D01*
X333280Y225930D01*
X333420Y226310D01*
X333440Y226680D01*
X333380Y227140D01*
X333300Y227330D01*
X333020Y227600D01*
X332720Y227760D01*
X332380Y227900D01*
X331950Y228040D01*
X331420Y228160D01*
X331410D01*
X330880Y228300D01*
X330400Y228440D01*
X329980Y228590D01*
X329610Y228750D01*
X329290Y228910D01*
X328900Y229180D01*
X328590Y229480D01*
X328350Y229840D01*
X328270Y230020D01*
X328150Y230370D01*
X328060Y230780D01*
X328000Y231240D01*
X327980Y231760D01*
Y231850D01*
X328000Y232370D01*
X328060Y232840D01*
X328180Y233280D01*
X328320Y233680D01*
X328510Y234040D01*
X328740Y234360D01*
X329020Y234640D01*
X329190Y234770D01*
X329500Y234980D01*
X329840Y235150D01*
X330210Y235300D01*
X330620Y235420D01*
X331050Y235520D01*
X331510Y235600D01*
X332020Y235640D01*
X332540Y235660D01*
X332750Y235670D01*
X333260Y235660D01*
X333760Y235630D01*
X334220Y235590D01*
X334670Y235530D01*
X335100Y235450D01*
X335500Y235360D01*
X335880Y235240D01*
X336000Y235210D01*
Y232610D01*
X335670Y232720D01*
X335240Y232810D01*
X334710Y232910D01*
X334610Y232920D01*
X334110Y232980D01*
X333650Y233020D01*
X333220Y233040D01*
X332900Y233050D01*
X332340Y233030D01*
X331890Y232960D01*
X331550Y232840D01*
X331500Y232810D01*
X331220Y232520D01*
X331090Y232120D01*
X331080Y231960D01*
X331170Y231510D01*
X331230Y231400D01*
X331540Y231160D01*
X331790Y231040D01*
X332120Y230920D01*
X332550Y230790D01*
X333060Y230650D01*
X333590Y230510D01*
X334080Y230360D01*
X334510Y230200D01*
X334890Y230040D01*
X335220Y229870D01*
X335370Y229780D01*
X335750Y229490D01*
X336060Y229160D01*
X336290Y228810D01*
X336400Y228560D01*
X336500Y228210D01*
X336580Y227800D01*
X336620Y227350D01*
X336650Y226840D01*
X336660Y226590D01*
X336630Y226080D01*
X336570Y225610D01*
X336460Y225170D01*
G37*
G36*
G01X341100Y222880D02*
Y232670D01*
X337960D01*
Y235480D01*
X347430D01*
Y232670D01*
X344300D01*
Y222880D01*
X341100D01*
G37*
G36*
G01X342990Y211270D02*
X346460D01*
Y210570D01*
X342990D01*
Y207240D01*
X347070D01*
Y206500D01*
X342190D01*
Y214930D01*
X346700D01*
Y214200D01*
X342990D01*
Y211270D01*
G37*
G36*
G01X353280Y207240D02*
X353030Y206990D01*
X353000Y206960D01*
X352730Y206780D01*
X352410Y206630D01*
X352050Y206520D01*
X351650Y206440D01*
X351210Y206390D01*
X350820Y206380D01*
X350410Y206390D01*
X350010Y206410D01*
X349610Y206450D01*
X349350Y206490D01*
X348870Y206570D01*
X348500Y206660D01*
X348310Y206720D01*
Y207500D01*
X348630Y207390D01*
X349030Y207290D01*
X349420Y207220D01*
X349820Y207160D01*
X350220Y207120D01*
X350610Y207100D01*
X350820Y207090D01*
X351290Y207120D01*
X351700Y207180D01*
X352060Y207290D01*
X352350Y207450D01*
X352410Y207480D01*
X352660Y207730D01*
X352830Y208050D01*
X352920Y208440D01*
X352940Y208720D01*
X352910Y209170D01*
X352810Y209530D01*
X352750Y209640D01*
X352520Y209920D01*
X352180Y210160D01*
X352140Y210190D01*
X351840Y210310D01*
X351470Y210430D01*
X351020Y210560D01*
X350860Y210600D01*
X350390Y210720D01*
X349990Y210840D01*
X349650Y210980D01*
X349450Y211070D01*
X349100Y211290D01*
X348830Y211570D01*
X348740Y211720D01*
X348600Y212040D01*
X348530Y212430D01*
X348500Y212850D01*
X348520Y213240D01*
X348590Y213580D01*
X348700Y213890D01*
X348860Y214160D01*
X349060Y214400D01*
X349300Y214600D01*
X349590Y214770D01*
X349930Y214900D01*
X350300Y215000D01*
X350730Y215040D01*
X351190Y215070D01*
X351220D01*
X351600Y215060D01*
X352000Y215030D01*
X352370Y214980D01*
X352830Y214900D01*
X353190Y214800D01*
X353300Y214760D01*
Y214000D01*
X352940Y214120D01*
X352550Y214210D01*
X352330Y214250D01*
X351940Y214310D01*
X351540Y214340D01*
X351200Y214360D01*
X350720Y214320D01*
X350300Y214260D01*
X349970Y214150D01*
X349750Y214020D01*
X349520Y213770D01*
X349370Y213440D01*
X349300Y213020D01*
X349290Y212850D01*
X349330Y212410D01*
X349440Y212110D01*
X349660Y211840D01*
X349970Y211660D01*
X350260Y211530D01*
X350650Y211410D01*
X351110Y211290D01*
X351150Y211280D01*
X351620Y211160D01*
X352020Y211040D01*
X352380Y210910D01*
X352680Y210770D01*
X352690D01*
X353030Y210550D01*
X353300Y210270D01*
X353470Y210020D01*
X353610Y209700D01*
X353690Y209320D01*
X353730Y208880D01*
Y208730D01*
X353700Y208290D01*
X353620Y207890D01*
X353480Y207540D01*
X353280Y207240D01*
G37*
G36*
G01X357240Y227990D02*
X357290Y228410D01*
X357300Y228960D01*
Y229360D01*
X357260Y229830D01*
X357190Y230160D01*
X357060Y230410D01*
X356700Y230650D01*
X356500Y230710D01*
X356080Y230760D01*
X355530Y230780D01*
X355140Y230770D01*
X354680Y230730D01*
X354340Y230650D01*
X354100Y230520D01*
X353870Y230160D01*
X353820Y229950D01*
X353780Y229520D01*
X353770Y228960D01*
Y228590D01*
X353810Y228120D01*
X353870Y227790D01*
X354000Y227540D01*
X354340Y227290D01*
X354540Y227240D01*
X354960Y227190D01*
X355530Y227170D01*
X355900D01*
X356370Y227220D01*
X356700Y227290D01*
X356950Y227430D01*
X357190Y227790D01*
X357240Y227990D01*
G37*
G36*
G01X376650Y222880D02*
X371580Y230950D01*
X370710D01*
Y222880D01*
X365900D01*
Y241780D01*
X370710D01*
Y234760D01*
X371580D01*
X376560Y241780D01*
X381740D01*
Y241510D01*
Y241240D01*
X375580Y233040D01*
X381740Y223890D01*
Y223390D01*
Y222880D01*
X376650D01*
G37*
G36*
G01X417020Y87000D02*
G03X397000Y107020I-20020J0D01*
G01Y87000D01*
Y66980D01*
G03X417020Y87000I-2J20022D01*
G37*
G36*
G01X393390Y299620D02*
G02I-984J-2D01*
G37*
G36*
G01X443580Y307380D02*
G02I-986J2D01*
G37*
%LPC*%
G75*
G36*
G01X274360Y232710D02*
X274140D01*
X272660Y228360D01*
X275820D01*
X274360Y232710D01*
G37*
G36*
G01X288750Y210720D02*
X288740Y211200D01*
X288710Y211640D01*
X288670Y212040D01*
X288620Y212410D01*
X288540Y212730D01*
X288520Y212840D01*
X288360Y213240D01*
X288140Y213570D01*
X287890Y213840D01*
X287690Y213990D01*
X287390Y214130D01*
X287040Y214240D01*
X286640Y214320D01*
X286180Y214350D01*
X286020Y214360D01*
X285550Y214330D01*
X285140Y214280D01*
X284780Y214170D01*
X284460Y214040D01*
X284380Y213990D01*
X284080Y213750D01*
X283830Y213450D01*
X283640Y213110D01*
X283540Y212830D01*
X283460Y212520D01*
X283400Y212160D01*
X283340Y211770D01*
X283320Y211360D01*
X283300Y210880D01*
Y210720D01*
X283310Y210240D01*
X283340Y209790D01*
X283380Y209390D01*
X283440Y209020D01*
X283510Y208700D01*
X283540Y208600D01*
X283700Y208200D01*
X283900Y207860D01*
X284170Y207600D01*
X284380Y207450D01*
X284670Y207300D01*
X285020Y207190D01*
X285420Y207120D01*
X285870Y207080D01*
X286020D01*
X286500Y207110D01*
X286910Y207160D01*
X287280Y207260D01*
X287590Y207400D01*
X287690Y207450D01*
X287980Y207680D01*
X288230Y207960D01*
X288420Y208320D01*
X288520Y208580D01*
X288600Y208890D01*
X288660Y209240D01*
X288700Y209630D01*
X288740Y210060D01*
X288750Y210530D01*
Y210720D01*
G37*
G36*
G01X295260Y211020D02*
X295550Y211260D01*
X295630Y211380D01*
X295760Y211680D01*
X295830Y212050D01*
X295860Y212520D01*
X295830Y212980D01*
X295740Y213360D01*
X295620Y213580D01*
X295360Y213850D01*
X295020Y214040D01*
X294860Y214100D01*
X294540Y214160D01*
X294170Y214200D01*
X293720Y214230D01*
X292390D01*
Y210730D01*
X293440D01*
X293920Y210740D01*
X294340Y210770D01*
X294700Y210830D01*
X294890Y210870D01*
X295260Y211020D01*
G37*
G36*
G01X298100Y232710D02*
X297870D01*
X296380Y228360D01*
X299540D01*
X298100Y232710D01*
G37*
G36*
G01X336210Y212050D02*
X336240Y212520D01*
X336200Y212980D01*
X336110Y213360D01*
X335990Y213580D01*
X335740Y213850D01*
X335390Y214040D01*
X335240Y214100D01*
X334920Y214160D01*
X334540Y214200D01*
X334100Y214230D01*
X332770D01*
Y210730D01*
X333820D01*
X334300Y210740D01*
X334720Y210770D01*
X335070Y210830D01*
X335260Y210870D01*
X335640Y211020D01*
X335930Y211260D01*
X336010Y211380D01*
X336140Y211680D01*
X336210Y212050D01*
G37*
%LPD*%
G75*
G36*
G01X278000Y238000D02*
Y245870D01*
X317370D01*
Y238000D01*
X278000D01*
G37*
G36*
G01X339140Y206500D02*
Y214930D01*
X339940D01*
Y206500D01*
X339140D01*
G37*
G54D10*
G01X38000Y29000D02*
Y30000D01*
X27000D01*
X26000Y29000D01*
G01Y25000D02*
X27000Y24000D01*
X38000D01*
Y25000D01*
G01X26000Y58000D02*
X28000D01*
G01X26000Y88000D02*
X28000D01*
G01X45000Y59000D02*
Y57000D01*
G01X44000Y58000D02*
X46000D01*
G01X44000Y88000D02*
X46000D01*
G01X45000Y89000D02*
Y87000D01*
G01X34000Y180000D02*
X33000D01*
Y169000D01*
X34000Y168000D01*
G01X38000D02*
X39000Y169000D01*
Y180000D01*
X38000D01*
G01X34000Y209000D02*
X33000D01*
Y198000D01*
X34000Y197000D01*
G01X38000D02*
X39000Y198000D01*
Y209000D01*
X38000D01*
G01X53000Y54000D02*
X52000D01*
Y43000D01*
X53000Y42000D01*
G01X57000D02*
X58000Y43000D01*
Y54000D01*
X57000D01*
G01X53000Y79000D02*
X52000D01*
Y68000D01*
X53000Y67000D01*
G01X57000D02*
X58000Y68000D01*
Y79000D01*
X57000D01*
G01X53000Y108000D02*
X52000D01*
Y97000D01*
X53000Y96000D01*
G01X57000D02*
X58000Y97000D01*
Y108000D01*
X57000D01*
G01X70000Y119000D02*
X71000D01*
Y130000D01*
X70000Y131000D01*
G01X66000D02*
X65000Y130000D01*
Y119000D01*
X66000D01*
G01X87500Y122500D02*
Y119500D01*
G01X89000Y122500D02*
Y119500D01*
X87500Y121000D01*
X89000Y122500D01*
G01X123430Y248930D02*
Y243610D01*
X152570D01*
Y249000D01*
G01Y270390D02*
X123430D01*
Y265020D01*
G01X152570Y264940D02*
Y270390D01*
G01X181430Y248930D02*
Y243610D01*
X210570D01*
Y249000D01*
G01Y270390D02*
X181430D01*
Y265020D01*
G01X210570Y264940D02*
Y270390D01*
G01X223600Y305320D02*
Y303150D01*
X246200D01*
Y304390D01*
G01X223600Y312560D02*
Y311440D01*
G01X225700Y313000D02*
X228700Y312000D01*
X225700Y312500D01*
G01Y314000D02*
X228700Y312000D01*
X225700Y313500D01*
G01Y310500D02*
X228700Y312000D01*
X225700Y311000D01*
G01Y310000D02*
X228700Y312000D01*
X225700Y309500D01*
Y314500D01*
X228700Y312000D01*
X225700Y311500D01*
G01X228700Y309500D02*
Y314500D01*
G01X224700Y312000D02*
X229700D01*
G01X216430Y326930D02*
Y321610D01*
X245570D01*
Y327000D01*
G01X246200Y319610D02*
Y320850D01*
X223600D01*
Y318680D01*
G01X245570Y348390D02*
X216430D01*
Y343020D01*
G01X245570Y342940D02*
Y348390D01*
G01X262240Y296000D02*
G03I-2240J0D01*
G01Y305000D02*
G03I-2240J0D01*
G01X379930Y315220D02*
X384070D01*
G01X379930Y318780D02*
X384070D01*
G01X378070D02*
X373930D01*
G01X378070Y315220D02*
X373930D01*
G01X423240Y253000D02*
G03I-2240J0D01*
G01X416240Y259000D02*
G03I-2240J0D01*
G01X440070Y55780D02*
X435930D01*
G01X440070Y52220D02*
X435930D01*
G01X442930D02*
X447070D01*
G01X442930Y55780D02*
X447070D01*
G01X432240Y327000D02*
G03I-2240J0D01*
G01Y318000D02*
G03I-2240J0D01*
G01X458070Y55780D02*
X453930D01*
G01X458070Y52220D02*
X453930D01*
G01X459930D02*
X464070D01*
G01X459930Y55780D02*
X464070D01*
G01X460240Y197000D02*
G03I-2240J0D01*
G01X462240Y257000D02*
G03I-2240J0D01*
G01X472240D02*
G03I-2240J0D01*
G01X474240Y293000D02*
G03I-2240J0D01*
G01Y299000D02*
G03I-2240J0D01*
G01X507780Y223430D02*
Y227570D01*
G01X504220Y223430D02*
Y227570D01*
G01Y220570D02*
Y216430D01*
G01X507780Y220570D02*
Y216430D01*
G01Y287930D02*
Y292070D01*
G01X504220Y287930D02*
Y292070D01*
G01Y286070D02*
Y281930D01*
G01X507780Y286070D02*
Y281930D01*
G01Y353430D02*
Y357570D01*
G01X504220Y353430D02*
Y357570D01*
G01Y350570D02*
Y346430D01*
G01X507780Y350570D02*
Y346430D01*
G01X514220Y45070D02*
Y40930D01*
G01X517780Y45070D02*
Y40930D01*
G01Y46930D02*
Y51070D01*
G01X514220Y46930D02*
Y51070D01*
G01X70Y385740D02*
Y-90D01*
X543380D01*
Y385740D01*
X70D01*
G01X322380Y227790D02*
X320700Y230730D01*
G01X371580Y234760D02*
X370710D01*
G01D02*
X371580D01*
G54D11*
G01X43500Y3300D02*
X46500D01*
Y5300D01*
G01Y6400D02*
X43500Y7650D01*
X46500Y8900D01*
G01X45450Y8450D02*
Y6850D01*
G01X46100Y9950D02*
X46350Y10350D01*
X46500Y10800D01*
Y11200D01*
X46350Y11600D01*
X46100Y11900D01*
X45750Y12050D01*
X45400Y11950D01*
X45100Y11700D01*
X44900Y11250D01*
X44800Y10650D01*
X44600Y10300D01*
X44250Y10150D01*
X43900Y10250D01*
X43650Y10500D01*
X43500Y10850D01*
Y11200D01*
X43600Y11550D01*
X43850Y11850D01*
G01X46500Y15350D02*
Y13350D01*
X43500D01*
Y15350D01*
G01X44950Y14550D02*
Y13350D01*
G01X46500Y16700D02*
X43500D01*
Y17950D01*
X43650Y18350D01*
X43850Y18600D01*
X44250Y18700D01*
X44650Y18600D01*
X44900Y18300D01*
X45050Y17950D01*
Y16700D01*
G01Y17950D02*
X46500Y18700D01*
G01X41650Y28500D02*
Y25500D01*
X43650D01*
G01X47000D02*
X45000D01*
Y28500D01*
X47000D01*
G01X46200Y27050D02*
X45000D01*
G01X48250Y25500D02*
Y28500D01*
X49250D01*
X49650Y28350D01*
X49950Y28150D01*
X50200Y27850D01*
X50400Y27500D01*
X50450Y27000D01*
X50400Y26500D01*
X50200Y26150D01*
X49950Y25850D01*
X49650Y25650D01*
X49250Y25500D01*
X48250D01*
G01X30030Y56500D02*
Y59500D01*
X31930D01*
G01X31230Y58050D02*
X30030D01*
G01X33080Y56500D02*
X34330Y59500D01*
X35580Y56500D01*
G01X35130Y57550D02*
X33530D01*
G01X36530Y56500D02*
Y59500D01*
X38830Y56500D01*
Y59500D01*
G01X40080Y59000D02*
X40380Y59300D01*
X40730Y59450D01*
X41130Y59500D01*
X41630Y59400D01*
X41980Y59150D01*
X42080Y58850D01*
X42030Y58550D01*
X41830Y58300D01*
X40830Y57800D01*
X40380Y57450D01*
X40080Y56950D01*
X39980Y56500D01*
X42080D01*
G01X30030Y86500D02*
Y89500D01*
X31930D01*
G01X31230Y88050D02*
X30030D01*
G01X33080Y86500D02*
X34330Y89500D01*
X35580Y86500D01*
G01X35130Y87550D02*
X33530D01*
G01X36530Y86500D02*
Y89500D01*
X38830Y86500D01*
Y89500D01*
G01X41030Y86500D02*
Y89500D01*
X40430Y88900D01*
G01Y86500D02*
X41630D01*
G01X44500Y169700D02*
X41500D01*
Y171600D01*
G01X42950Y170900D02*
Y169700D01*
G01X44500Y172750D02*
X41500Y174000D01*
X44500Y175250D01*
G01X43450Y174800D02*
Y173200D01*
G01X44500Y176200D02*
X41500D01*
X44500Y178500D01*
X41500D01*
G01X44500Y198930D02*
X41500D01*
G01Y201030D02*
X44500D01*
G01X43000D02*
Y198930D01*
G01X44500Y204330D02*
Y202330D01*
X41500D01*
Y204330D01*
G01X42950Y203530D02*
Y202330D01*
G01X44500Y205430D02*
X41500Y206680D01*
X44500Y207930D01*
G01X43450Y207480D02*
Y205880D01*
G01X41500Y210030D02*
X44500D01*
G01X41500Y208880D02*
Y211180D01*
G01X44900Y239050D02*
X44750Y239250D01*
X44500Y239400D01*
X44150Y239500D01*
X43850Y239400D01*
X43650Y239200D01*
X43500Y238850D01*
Y237500D01*
X46500D01*
Y239150D01*
X46300Y239500D01*
X46000Y239700D01*
X45650Y239800D01*
X45300Y239700D01*
X45000Y239400D01*
X44900Y239050D01*
Y237500D01*
G01X46500Y243000D02*
Y241000D01*
X43500D01*
Y243000D01*
G01X44950Y242200D02*
Y241000D01*
G01X46500Y244250D02*
X43500D01*
Y245250D01*
X43650Y245650D01*
X43850Y245950D01*
X44150Y246200D01*
X44500Y246400D01*
X45000Y246450D01*
X45500Y246400D01*
X45850Y246200D01*
X46150Y245950D01*
X46350Y245650D01*
X46500Y245250D01*
Y244250D01*
G01X46000Y278700D02*
X45700Y279000D01*
X45550Y279350D01*
X45500Y279750D01*
X45600Y280250D01*
X45850Y280600D01*
X46150Y280700D01*
X46450Y280650D01*
X46700Y280450D01*
X47200Y279450D01*
X47550Y279000D01*
X48050Y278700D01*
X48500Y278600D01*
Y280700D01*
G01Y283600D02*
X45500D01*
X47650Y281750D01*
Y284250D01*
G01X45500Y285100D02*
X48500Y286350D01*
X45500Y287600D01*
G01X38500Y327300D02*
X38450Y326900D01*
X38250Y326550D01*
X37950Y326250D01*
X37600Y326050D01*
X37200Y325950D01*
X36800D01*
X36400Y326050D01*
X36050Y326250D01*
X35750Y326550D01*
X35550Y326900D01*
X35500Y327300D01*
X35550Y327700D01*
X35750Y328050D01*
X36050Y328350D01*
X36400Y328550D01*
X36800Y328650D01*
X37200D01*
X37600Y328550D01*
X37950Y328350D01*
X38250Y328050D01*
X38450Y327700D01*
X38500Y327300D01*
G01Y329650D02*
X35500D01*
Y330850D01*
X35650Y331250D01*
X36000Y331550D01*
X36400Y331650D01*
X36800Y331550D01*
X37100Y331300D01*
X37250Y330850D01*
Y329650D01*
G01X38500Y335000D02*
Y333000D01*
X35500D01*
Y335000D01*
G01X36950Y334200D02*
Y333000D01*
G01X38500Y336200D02*
X35500D01*
X38500Y338500D01*
X35500D01*
G01X38500Y340700D02*
X35500D01*
X36100Y340100D01*
G01X38500D02*
Y341300D01*
G01Y346300D02*
X38450Y345900D01*
X38250Y345550D01*
X37950Y345250D01*
X37600Y345050D01*
X37200Y344950D01*
X36800D01*
X36400Y345050D01*
X36050Y345250D01*
X35750Y345550D01*
X35550Y345900D01*
X35500Y346300D01*
X35550Y346700D01*
X35750Y347050D01*
X36050Y347350D01*
X36400Y347550D01*
X36800Y347650D01*
X37200D01*
X37600Y347550D01*
X37950Y347350D01*
X38250Y347050D01*
X38450Y346700D01*
X38500Y346300D01*
G01Y348650D02*
X35500D01*
Y349850D01*
X35650Y350250D01*
X36000Y350550D01*
X36400Y350650D01*
X36800Y350550D01*
X37100Y350300D01*
X37250Y349850D01*
Y348650D01*
G01X38500Y354000D02*
Y352000D01*
X35500D01*
Y354000D01*
G01X36950Y353200D02*
Y352000D01*
G01X38500Y355200D02*
X35500D01*
X38500Y357500D01*
X35500D01*
G01X36000Y358750D02*
X35700Y359050D01*
X35550Y359400D01*
X35500Y359800D01*
X35600Y360300D01*
X35850Y360650D01*
X36150Y360750D01*
X36450Y360700D01*
X36700Y360500D01*
X37200Y359500D01*
X37550Y359050D01*
X38050Y358750D01*
X38500Y358650D01*
Y360750D01*
G01X35500Y362950D02*
X32500D01*
Y364200D01*
X32650Y364600D01*
X32850Y364850D01*
X33250Y364950D01*
X33650Y364850D01*
X33900Y364550D01*
X34050Y364200D01*
Y362950D01*
G01Y364200D02*
X35500Y364950D01*
G01Y368300D02*
Y366300D01*
X32500D01*
Y368300D01*
G01X33950Y367500D02*
Y366300D01*
G01X35100Y369600D02*
X35350Y370000D01*
X35500Y370450D01*
Y370850D01*
X35350Y371250D01*
X35100Y371550D01*
X34750Y371700D01*
X34400Y371600D01*
X34100Y371350D01*
X33900Y370900D01*
X33800Y370300D01*
X33600Y369950D01*
X33250Y369800D01*
X32900Y369900D01*
X32650Y370150D01*
X32500Y370500D01*
Y370850D01*
X32600Y371200D01*
X32850Y371500D01*
G01X35500Y375000D02*
Y373000D01*
X32500D01*
Y375000D01*
G01X33950Y374200D02*
Y373000D01*
G01X35500Y376350D02*
X32500D01*
Y377600D01*
X32650Y378000D01*
X32850Y378250D01*
X33250Y378350D01*
X33650Y378250D01*
X33900Y377950D01*
X34050Y377600D01*
Y376350D01*
G01Y377600D02*
X35500Y378350D01*
G01X32500Y379450D02*
X35500Y380700D01*
X32500Y381950D01*
G01X35500Y385050D02*
Y383050D01*
X32500D01*
Y385050D01*
G01X33950Y384250D02*
Y383050D01*
G01X59500Y137380D02*
X56500Y138630D01*
X59500Y139880D01*
G01X58450Y139430D02*
Y137830D01*
G01X59500Y140880D02*
X56500D01*
Y141880D01*
X56650Y142280D01*
X56850Y142580D01*
X57150Y142830D01*
X57500Y143030D01*
X58000Y143080D01*
X58500Y143030D01*
X58850Y142830D01*
X59150Y142580D01*
X59350Y142280D01*
X59500Y141880D01*
Y140880D01*
G01X56750Y146430D02*
X56600Y146130D01*
X56500Y145780D01*
Y145380D01*
X56650Y144930D01*
X56900Y144580D01*
X57200Y144330D01*
X57700Y144130D01*
X58150Y144080D01*
X58600Y144180D01*
X58900Y144330D01*
X59200Y144630D01*
X59400Y144980D01*
X59500Y145330D01*
Y145680D01*
X59400Y146030D01*
X59250Y146330D01*
X59050Y146580D01*
G01X58500Y148030D02*
Y149330D01*
G01X56500Y152030D02*
X59500D01*
G01X56500Y150880D02*
Y153180D01*
G01X57900Y155780D02*
X57750Y155980D01*
X57500Y156130D01*
X57150Y156230D01*
X56850Y156130D01*
X56650Y155930D01*
X56500Y155580D01*
Y154230D01*
X59500D01*
Y155880D01*
X59300Y156230D01*
X59000Y156430D01*
X58650Y156530D01*
X58300Y156430D01*
X58000Y156130D01*
X57900Y155780D01*
Y154230D01*
G01X64500Y134030D02*
X61500Y135280D01*
X64500Y136530D01*
G01X63450Y136080D02*
Y134480D01*
G01X64500Y137530D02*
X61500D01*
Y138530D01*
X61650Y138930D01*
X61850Y139230D01*
X62150Y139480D01*
X62500Y139680D01*
X63000Y139730D01*
X63500Y139680D01*
X63850Y139480D01*
X64150Y139230D01*
X64350Y138930D01*
X64500Y138530D01*
Y137530D01*
G01X61750Y143080D02*
X61600Y142780D01*
X61500Y142430D01*
Y142030D01*
X61650Y141580D01*
X61900Y141230D01*
X62200Y140980D01*
X62700Y140780D01*
X63150Y140730D01*
X63600Y140830D01*
X63900Y140980D01*
X64200Y141280D01*
X64400Y141630D01*
X64500Y141980D01*
Y142330D01*
X64400Y142680D01*
X64250Y142980D01*
X64050Y143230D01*
G01X63500Y144680D02*
Y145980D01*
G01X64500Y147630D02*
X61500D01*
G01Y149730D02*
X64500D01*
G01X63000D02*
Y147630D01*
G01X64500Y153030D02*
Y151030D01*
X61500D01*
Y153030D01*
G01X62950Y152230D02*
Y151030D01*
G01X64500Y154130D02*
X61500Y155380D01*
X64500Y156630D01*
G01X63450Y156180D02*
Y154580D01*
G01X61500Y158730D02*
X64500D01*
G01X61500Y157580D02*
Y159880D01*
G01X74380Y118250D02*
X74080Y118400D01*
X73730Y118500D01*
X73330D01*
X72880Y118350D01*
X72530Y118100D01*
X72280Y117800D01*
X72080Y117300D01*
X72030Y116850D01*
X72130Y116400D01*
X72280Y116100D01*
X72580Y115800D01*
X72930Y115600D01*
X73280Y115500D01*
X73630D01*
X73980Y115600D01*
X74280Y115750D01*
X74530Y115950D01*
G01X76630Y115500D02*
X76230Y115550D01*
X75880Y115750D01*
X75580Y116050D01*
X75380Y116400D01*
X75280Y116800D01*
Y117200D01*
X75380Y117600D01*
X75580Y117950D01*
X75880Y118250D01*
X76230Y118450D01*
X76630Y118500D01*
X77030Y118450D01*
X77380Y118250D01*
X77680Y117950D01*
X77880Y117600D01*
X77980Y117200D01*
Y116800D01*
X77880Y116400D01*
X77680Y116050D01*
X77380Y115750D01*
X77030Y115550D01*
X76630Y115500D01*
G01X79980D02*
X79580Y115550D01*
X79230Y115750D01*
X78930Y116050D01*
X78730Y116400D01*
X78630Y116800D01*
Y117200D01*
X78730Y117600D01*
X78930Y117950D01*
X79230Y118250D01*
X79580Y118450D01*
X79980Y118500D01*
X80380Y118450D01*
X80730Y118250D01*
X81030Y117950D01*
X81230Y117600D01*
X81330Y117200D01*
Y116800D01*
X81230Y116400D01*
X81030Y116050D01*
X80730Y115750D01*
X80380Y115550D01*
X79980Y115500D01*
G01X82330Y118500D02*
Y115500D01*
X84330D01*
G01X85700D02*
Y118500D01*
X87600D01*
G01X86900Y117050D02*
X85700D01*
G01X88750Y115500D02*
X90000Y118500D01*
X91250Y115500D01*
G01X90800Y116550D02*
X89200D01*
G01X92200Y115500D02*
Y118500D01*
X94500Y115500D01*
Y118500D01*
G01X112650Y304500D02*
Y307500D01*
X112050Y306900D01*
G01Y304500D02*
X113250D01*
G01X115050Y307000D02*
X115350Y307300D01*
X115700Y307450D01*
X116100Y307500D01*
X116600Y307400D01*
X116950Y307150D01*
X117050Y306850D01*
X117000Y306550D01*
X116800Y306300D01*
X115800Y305800D01*
X115350Y305450D01*
X115050Y304950D01*
X114950Y304500D01*
X117050D01*
G01X118100Y307500D02*
X119350Y304500D01*
X120600Y307500D01*
G01X111700Y300000D02*
X112000Y300300D01*
X112350Y300450D01*
X112750Y300500D01*
X113250Y300400D01*
X113600Y300150D01*
X113700Y299850D01*
X113650Y299550D01*
X113450Y299300D01*
X112450Y298800D01*
X112000Y298450D01*
X111700Y297950D01*
X111600Y297500D01*
X113700D01*
G01X116600D02*
Y300500D01*
X114750Y298350D01*
X117250D01*
G01X118100Y300500D02*
X119350Y297500D01*
X120600Y300500D01*
G01X111550Y319100D02*
X111850Y318750D01*
X112250Y318550D01*
X112700Y318500D01*
X113100Y318550D01*
X113500Y318800D01*
X113750Y319100D01*
X113800Y319400D01*
X113700Y319750D01*
X113350Y320000D01*
X113000Y320100D01*
X112550D01*
G01X113000D02*
X113300Y320250D01*
X113550Y320500D01*
X113650Y320800D01*
X113550Y321100D01*
X113300Y321350D01*
X112850Y321500D01*
X112400Y321450D01*
X111950Y321250D01*
G01X114750Y321500D02*
X116000Y318500D01*
X117250Y321500D01*
G01X118250Y319100D02*
X118550Y318750D01*
X118950Y318550D01*
X119400Y318500D01*
X119800Y318550D01*
X120200Y318800D01*
X120450Y319100D01*
X120500Y319400D01*
X120400Y319750D01*
X120050Y320000D01*
X119700Y320100D01*
X119250D01*
G01X119700D02*
X120000Y320250D01*
X120250Y320500D01*
X120350Y320800D01*
X120250Y321100D01*
X120000Y321350D01*
X119550Y321500D01*
X119100Y321450D01*
X118650Y321250D01*
G01X92380Y360500D02*
X93630Y363500D01*
X94880Y360500D01*
G01X94430Y361550D02*
X92830D01*
G01X98080Y363250D02*
X97780Y363400D01*
X97430Y363500D01*
X97030D01*
X96580Y363350D01*
X96230Y363100D01*
X95980Y362800D01*
X95780Y362300D01*
X95730Y361850D01*
X95830Y361400D01*
X95980Y361100D01*
X96280Y360800D01*
X96630Y360600D01*
X96980Y360500D01*
X97330D01*
X97680Y360600D01*
X97980Y360750D01*
X98230Y360950D01*
G01X99680Y361500D02*
X100980D01*
G01X104080Y362100D02*
X104280Y362250D01*
X104430Y362500D01*
X104530Y362850D01*
X104430Y363150D01*
X104230Y363350D01*
X103880Y363500D01*
X102530D01*
Y360500D01*
X104180D01*
X104530Y360700D01*
X104730Y361000D01*
X104830Y361350D01*
X104730Y361700D01*
X104430Y362000D01*
X104080Y362100D01*
X102530D01*
G01X108030Y360500D02*
X106030D01*
Y363500D01*
X108030D01*
G01X107230Y362050D02*
X106030D01*
G01X109280Y360500D02*
Y363500D01*
X110280D01*
X110680Y363350D01*
X110980Y363150D01*
X111230Y362850D01*
X111430Y362500D01*
X111480Y362000D01*
X111430Y361500D01*
X111230Y361150D01*
X110980Y360850D01*
X110680Y360650D01*
X110280Y360500D01*
X109280D01*
G01X111680Y368100D02*
X111880Y368250D01*
X112030Y368500D01*
X112130Y368850D01*
X112030Y369150D01*
X111830Y369350D01*
X111480Y369500D01*
X110130D01*
Y366500D01*
X111780D01*
X112130Y366700D01*
X112330Y367000D01*
X112430Y367350D01*
X112330Y367700D01*
X112030Y368000D01*
X111680Y368100D01*
X110130D01*
G01X113630Y369500D02*
Y366500D01*
X115630D01*
G01X117330Y367500D02*
X118630D01*
G01X121330Y369500D02*
Y366500D01*
G01X120180Y369500D02*
X122480D01*
G01X124680Y366500D02*
X124280Y366550D01*
X123930Y366750D01*
X123630Y367050D01*
X123430Y367400D01*
X123330Y367800D01*
Y368200D01*
X123430Y368600D01*
X123630Y368950D01*
X123930Y369250D01*
X124280Y369450D01*
X124680Y369500D01*
X125080Y369450D01*
X125430Y369250D01*
X125730Y368950D01*
X125930Y368600D01*
X126030Y368200D01*
Y367800D01*
X125930Y367400D01*
X125730Y367050D01*
X125430Y366750D01*
X125080Y366550D01*
X124680Y366500D01*
G01X126930Y369500D02*
Y367350D01*
X127130Y366900D01*
X127530Y366600D01*
X128030Y366500D01*
X128530Y366600D01*
X128930Y366900D01*
X129130Y367350D01*
Y369500D01*
G01X132480Y369250D02*
X132180Y369400D01*
X131830Y369500D01*
X131430D01*
X130980Y369350D01*
X130630Y369100D01*
X130380Y368800D01*
X130180Y368300D01*
X130130Y367850D01*
X130230Y367400D01*
X130380Y367100D01*
X130680Y366800D01*
X131030Y366600D01*
X131380Y366500D01*
X131730D01*
X132080Y366600D01*
X132380Y366750D01*
X132630Y366950D01*
G01X133680Y366500D02*
Y369500D01*
G01X135780D02*
Y366500D01*
G01Y368000D02*
X133680D01*
G01X116950Y194000D02*
X117950D01*
Y193100D01*
X117650Y192800D01*
X117300Y192600D01*
X116800Y192500D01*
X116300Y192600D01*
X115950Y192800D01*
X115650Y193100D01*
X115450Y193450D01*
X115350Y193850D01*
Y194200D01*
X115450Y194500D01*
X115650Y194850D01*
X115950Y195150D01*
X116250Y195350D01*
X116650Y195500D01*
X117000D01*
X117400Y195400D01*
X117700Y195200D01*
G01X118850Y192500D02*
Y195500D01*
X121150Y192500D01*
Y195500D01*
G01X122250Y192500D02*
Y195500D01*
X123250D01*
X123650Y195350D01*
X123950Y195150D01*
X124200Y194850D01*
X124400Y194500D01*
X124450Y194000D01*
X124400Y193500D01*
X124200Y193150D01*
X123950Y192850D01*
X123650Y192650D01*
X123250Y192500D01*
X122250D01*
G01X127600Y192900D02*
X128000Y192650D01*
X128450Y192500D01*
X128850D01*
X129250Y192650D01*
X129550Y192900D01*
X129700Y193250D01*
X129600Y193600D01*
X129350Y193900D01*
X128900Y194100D01*
X128300Y194200D01*
X127950Y194400D01*
X127800Y194750D01*
X127900Y195100D01*
X128150Y195350D01*
X128500Y195500D01*
X128850D01*
X129200Y195400D01*
X129500Y195150D01*
G01X131400Y195500D02*
X132600D01*
G01X132000D02*
Y192500D01*
G01X131400D02*
X132600D01*
G01X135650Y194000D02*
X136650D01*
Y193100D01*
X136350Y192800D01*
X136000Y192600D01*
X135500Y192500D01*
X135000Y192600D01*
X134650Y192800D01*
X134350Y193100D01*
X134150Y193450D01*
X134050Y193850D01*
Y194200D01*
X134150Y194500D01*
X134350Y194850D01*
X134650Y195150D01*
X134950Y195350D01*
X135350Y195500D01*
X135700D01*
X136100Y195400D01*
X136400Y195200D01*
G01X113650Y215500D02*
Y218500D01*
X113050Y217900D01*
G01Y215500D02*
X114250D01*
G01X116050Y218000D02*
X116350Y218300D01*
X116700Y218450D01*
X117100Y218500D01*
X117600Y218400D01*
X117950Y218150D01*
X118050Y217850D01*
X118000Y217550D01*
X117800Y217300D01*
X116800Y216800D01*
X116350Y216450D01*
X116050Y215950D01*
X115950Y215500D01*
X118050D01*
G01X119100Y218500D02*
X120350Y215500D01*
X121600Y218500D01*
G01X113230Y311950D02*
X113530Y311700D01*
X113880Y311550D01*
X114330Y311500D01*
X114780Y311600D01*
X115130Y311800D01*
X115380Y312150D01*
X115430Y312550D01*
X115330Y312950D01*
X115080Y313200D01*
X114730Y313400D01*
X114380Y313450D01*
X114030Y313400D01*
X113580Y313200D01*
X113730Y314500D01*
X115080D01*
G01X116430D02*
X117680Y311500D01*
X118930Y314500D01*
G01X141230Y192950D02*
X141530Y192700D01*
X141880Y192550D01*
X142330Y192500D01*
X142780Y192600D01*
X143130Y192800D01*
X143380Y193150D01*
X143430Y193550D01*
X143330Y193950D01*
X143080Y194200D01*
X142730Y194400D01*
X142380Y194450D01*
X142030Y194400D01*
X141580Y194200D01*
X141730Y195500D01*
X143080D01*
G01X144430D02*
X145680Y192500D01*
X146930Y195500D01*
G01X140330Y349500D02*
Y352500D01*
X142230D01*
G01X141530Y351050D02*
X140330D01*
G01X144030Y352500D02*
X145230D01*
G01X144630D02*
Y349500D01*
G01X144030D02*
X145230D01*
G01X146980Y352500D02*
Y349500D01*
X148980D01*
G01X150080D02*
X151330Y352500D01*
X152580Y349500D01*
G01X152130Y350550D02*
X150530D01*
G01X153380Y349500D02*
Y352500D01*
X154680Y350000D01*
X155980Y352500D01*
Y349500D01*
G01X159030D02*
X157030D01*
Y352500D01*
X159030D01*
G01X158230Y351050D02*
X157030D01*
G01X160230Y349500D02*
Y352500D01*
X162530Y349500D01*
Y352500D01*
G01X164730D02*
Y349500D01*
G01X163580Y352500D02*
X165880D01*
G01X173230Y215950D02*
X173530Y215700D01*
X173880Y215550D01*
X174330Y215500D01*
X174780Y215600D01*
X175130Y215800D01*
X175380Y216150D01*
X175430Y216550D01*
X175330Y216950D01*
X175080Y217200D01*
X174730Y217400D01*
X174380Y217450D01*
X174030Y217400D01*
X173580Y217200D01*
X173730Y218500D01*
X175080D01*
G01X176430D02*
X177680Y215500D01*
X178930Y218500D01*
G01X159500Y321300D02*
X156500D01*
Y322500D01*
X156650Y322900D01*
X157000Y323200D01*
X157400Y323300D01*
X157800Y323200D01*
X158100Y322950D01*
X158250Y322500D01*
Y321300D01*
G01X156500Y325050D02*
Y326250D01*
G01Y325650D02*
X159500D01*
G01Y325050D02*
Y326250D01*
G01X159050Y331250D02*
X159300Y331550D01*
X159450Y331900D01*
X159500Y332350D01*
X159400Y332800D01*
X159200Y333150D01*
X158850Y333400D01*
X158450Y333450D01*
X158050Y333350D01*
X157800Y333100D01*
X157600Y332750D01*
X157550Y332400D01*
X157600Y332050D01*
X157800Y331600D01*
X156500Y331750D01*
Y333100D01*
G01Y334450D02*
X159500Y335700D01*
X156500Y336950D01*
G01X192000Y354500D02*
Y357500D01*
X191400Y356900D01*
G01Y354500D02*
X192600D01*
G01X191050Y380000D02*
X191350Y380300D01*
X191700Y380450D01*
X192100Y380500D01*
X192600Y380400D01*
X192950Y380150D01*
X193050Y379850D01*
X193000Y379550D01*
X192800Y379300D01*
X191800Y378800D01*
X191350Y378450D01*
X191050Y377950D01*
X190950Y377500D01*
X193050D01*
G01X289050Y319100D02*
X289250Y319250D01*
X289400Y319500D01*
X289500Y319850D01*
X289400Y320150D01*
X289200Y320350D01*
X288850Y320500D01*
X287500D01*
Y317500D01*
X289150D01*
X289500Y317700D01*
X289700Y318000D01*
X289800Y318350D01*
X289700Y318700D01*
X289400Y319000D01*
X289050Y319100D01*
X287500D01*
G01X292000Y320500D02*
Y317500D01*
G01X290850Y320500D02*
X293150D01*
G01X295350D02*
X294950Y320400D01*
X294650Y320150D01*
X294450Y319850D01*
X294300Y319450D01*
X294250Y319000D01*
X294300Y318550D01*
X294450Y318150D01*
X294650Y317850D01*
X294950Y317600D01*
X295350Y317500D01*
X295750Y317600D01*
X296050Y317850D01*
X296250Y318150D01*
X296400Y318550D01*
X296450Y319000D01*
X296400Y319450D01*
X296250Y319850D01*
X296050Y320150D01*
X295750Y320400D01*
X295350Y320500D01*
G01X287650Y333500D02*
Y336500D01*
X288900D01*
X289300Y336350D01*
X289550Y336150D01*
X289650Y335750D01*
X289550Y335350D01*
X289250Y335100D01*
X288900Y334950D01*
X287650D01*
G01X288900D02*
X289650Y333500D01*
G01X290950Y333900D02*
X291350Y333650D01*
X291800Y333500D01*
X292200D01*
X292600Y333650D01*
X292900Y333900D01*
X293050Y334250D01*
X292950Y334600D01*
X292700Y334900D01*
X292250Y335100D01*
X291650Y335200D01*
X291300Y335400D01*
X291150Y335750D01*
X291250Y336100D01*
X291500Y336350D01*
X291850Y336500D01*
X292200D01*
X292550Y336400D01*
X292850Y336150D01*
G01X295350Y336500D02*
Y333500D01*
G01X294200Y336500D02*
X296500D01*
G01X360230Y340950D02*
X360530Y340700D01*
X360880Y340550D01*
X361330Y340500D01*
X361780Y340600D01*
X362130Y340800D01*
X362380Y341150D01*
X362430Y341550D01*
X362330Y341950D01*
X362080Y342200D01*
X361730Y342400D01*
X361380Y342450D01*
X361030Y342400D01*
X360580Y342200D01*
X360730Y343500D01*
X362080D01*
G01X363430D02*
X364680Y340500D01*
X365930Y343500D01*
G01X366550Y157100D02*
X366850Y156750D01*
X367250Y156550D01*
X367700Y156500D01*
X368100Y156550D01*
X368500Y156800D01*
X368750Y157100D01*
X368800Y157400D01*
X368700Y157750D01*
X368350Y158000D01*
X368000Y158100D01*
X367550D01*
G01X368000D02*
X368300Y158250D01*
X368550Y158500D01*
X368650Y158800D01*
X368550Y159100D01*
X368300Y159350D01*
X367850Y159500D01*
X367400Y159450D01*
X366950Y159250D01*
G01X369750Y159500D02*
X371000Y156500D01*
X372250Y159500D01*
G01X373250Y157100D02*
X373550Y156750D01*
X373950Y156550D01*
X374400Y156500D01*
X374800Y156550D01*
X375200Y156800D01*
X375450Y157100D01*
X375500Y157400D01*
X375400Y157750D01*
X375050Y158000D01*
X374700Y158100D01*
X374250D01*
G01X374700D02*
X375000Y158250D01*
X375250Y158500D01*
X375350Y158800D01*
X375250Y159100D01*
X375000Y159350D01*
X374550Y159500D01*
X374100Y159450D01*
X373650Y159250D01*
G01X368700Y168100D02*
X368900Y168250D01*
X369050Y168500D01*
X369150Y168850D01*
X369050Y169150D01*
X368850Y169350D01*
X368500Y169500D01*
X367150D01*
Y166500D01*
X368800D01*
X369150Y166700D01*
X369350Y167000D01*
X369450Y167350D01*
X369350Y167700D01*
X369050Y168000D01*
X368700Y168100D01*
X367150D01*
G01X371650Y166500D02*
X371250Y166550D01*
X370900Y166750D01*
X370600Y167050D01*
X370400Y167400D01*
X370300Y167800D01*
Y168200D01*
X370400Y168600D01*
X370600Y168950D01*
X370900Y169250D01*
X371250Y169450D01*
X371650Y169500D01*
X372050Y169450D01*
X372400Y169250D01*
X372700Y168950D01*
X372900Y168600D01*
X373000Y168200D01*
Y167800D01*
X372900Y167400D01*
X372700Y167050D01*
X372400Y166750D01*
X372050Y166550D01*
X371650Y166500D01*
G01X375000D02*
X374600Y166550D01*
X374250Y166750D01*
X373950Y167050D01*
X373750Y167400D01*
X373650Y167800D01*
Y168200D01*
X373750Y168600D01*
X373950Y168950D01*
X374250Y169250D01*
X374600Y169450D01*
X375000Y169500D01*
X375400Y169450D01*
X375750Y169250D01*
X376050Y168950D01*
X376250Y168600D01*
X376350Y168200D01*
Y167800D01*
X376250Y167400D01*
X376050Y167050D01*
X375750Y166750D01*
X375400Y166550D01*
X375000Y166500D01*
G01X378350Y169500D02*
Y166500D01*
G01X377200Y169500D02*
X379500D01*
G01X381700D02*
X381300Y169400D01*
X381000Y169150D01*
X380800Y168850D01*
X380650Y168450D01*
X380600Y168000D01*
X380650Y167550D01*
X380800Y167150D01*
X381000Y166850D01*
X381300Y166600D01*
X381700Y166500D01*
X382100Y166600D01*
X382400Y166850D01*
X382600Y167150D01*
X382750Y167550D01*
X382800Y168000D01*
X382750Y168450D01*
X382600Y168850D01*
X382400Y169150D01*
X382100Y169400D01*
X381700Y169500D01*
G01X368950Y178000D02*
X369950D01*
Y177100D01*
X369650Y176800D01*
X369300Y176600D01*
X368800Y176500D01*
X368300Y176600D01*
X367950Y176800D01*
X367650Y177100D01*
X367450Y177450D01*
X367350Y177850D01*
Y178200D01*
X367450Y178500D01*
X367650Y178850D01*
X367950Y179150D01*
X368250Y179350D01*
X368650Y179500D01*
X369000D01*
X369400Y179400D01*
X369700Y179200D01*
G01X370850Y176500D02*
Y179500D01*
X373150Y176500D01*
Y179500D01*
G01X374250Y176500D02*
Y179500D01*
X375250D01*
X375650Y179350D01*
X375950Y179150D01*
X376200Y178850D01*
X376400Y178500D01*
X376450Y178000D01*
X376400Y177500D01*
X376200Y177150D01*
X375950Y176850D01*
X375650Y176650D01*
X375250Y176500D01*
X374250D01*
G01X367550Y186500D02*
Y189500D01*
X368550D01*
X368950Y189350D01*
X369250Y189150D01*
X369500Y188850D01*
X369700Y188500D01*
X369750Y188000D01*
X369700Y187500D01*
X369500Y187150D01*
X369250Y186850D01*
X368950Y186650D01*
X368550Y186500D01*
X367550D01*
G01X371400Y189500D02*
X372600D01*
G01X372000D02*
Y186500D01*
G01X371400D02*
X372600D01*
G01X375350D02*
X374950Y186550D01*
X374600Y186750D01*
X374300Y187050D01*
X374100Y187400D01*
X374000Y187800D01*
Y188200D01*
X374100Y188600D01*
X374300Y188950D01*
X374600Y189250D01*
X374950Y189450D01*
X375350Y189500D01*
X375750Y189450D01*
X376100Y189250D01*
X376400Y188950D01*
X376600Y188600D01*
X376700Y188200D01*
Y187800D01*
X376600Y187400D01*
X376400Y187050D01*
X376100Y186750D01*
X375750Y186550D01*
X375350Y186500D01*
G01X369750Y199250D02*
X369450Y199400D01*
X369100Y199500D01*
X368700D01*
X368250Y199350D01*
X367900Y199100D01*
X367650Y198800D01*
X367450Y198300D01*
X367400Y197850D01*
X367500Y197400D01*
X367650Y197100D01*
X367950Y196800D01*
X368300Y196600D01*
X368650Y196500D01*
X369000D01*
X369350Y196600D01*
X369650Y196750D01*
X369900Y196950D01*
G01X371000Y199500D02*
Y196500D01*
X373000D01*
G01X374250D02*
Y199500D01*
G01X376150D02*
X374250Y197650D01*
G01X376450Y196500D02*
X375100Y198500D01*
G01X369550Y340500D02*
Y343500D01*
X370550D01*
X370950Y343350D01*
X371250Y343150D01*
X371500Y342850D01*
X371700Y342500D01*
X371750Y342000D01*
X371700Y341500D01*
X371500Y341150D01*
X371250Y340850D01*
X370950Y340650D01*
X370550Y340500D01*
X369550D01*
G01X372700D02*
Y343500D01*
X374000Y341000D01*
X375300Y343500D01*
Y340500D01*
G01X377350D02*
Y343500D01*
X376750Y342900D01*
G01Y340500D02*
X377950D01*
G01X380550D02*
Y343500D01*
X381550D01*
X381950Y343350D01*
X382250Y343150D01*
X382500Y342850D01*
X382700Y342500D01*
X382750Y342000D01*
X382700Y341500D01*
X382500Y341150D01*
X382250Y340850D01*
X381950Y340650D01*
X381550Y340500D01*
X380550D01*
G01X384000D02*
Y343500D01*
X385200D01*
X385600Y343350D01*
X385900Y343000D01*
X386000Y342600D01*
X385900Y342200D01*
X385650Y341900D01*
X385200Y341750D01*
X384000D01*
G01X388350Y340500D02*
Y343500D01*
X387750Y342900D01*
G01Y340500D02*
X388950D01*
G01X379230Y355100D02*
X379530Y354750D01*
X379930Y354550D01*
X380380Y354500D01*
X380780Y354550D01*
X381180Y354800D01*
X381430Y355100D01*
X381480Y355400D01*
X381380Y355750D01*
X381030Y356000D01*
X380680Y356100D01*
X380230D01*
G01X380680D02*
X380980Y356250D01*
X381230Y356500D01*
X381330Y356800D01*
X381230Y357100D01*
X380980Y357350D01*
X380530Y357500D01*
X380080Y357450D01*
X379630Y357250D01*
G01X382830Y354850D02*
X383180Y354600D01*
X383580Y354500D01*
X383980Y354600D01*
X384330Y354900D01*
X384580Y355350D01*
X384680Y355800D01*
Y356350D01*
X384580Y356800D01*
X384330Y357200D01*
X384030Y357400D01*
X383680Y357500D01*
X383280Y357400D01*
X382980Y357200D01*
X382780Y356900D01*
X382680Y356500D01*
X382780Y356150D01*
X383030Y355800D01*
X383330Y355600D01*
X383680Y355550D01*
X384080Y355650D01*
X384380Y355900D01*
X384680Y356350D01*
G01X380930Y376500D02*
Y379500D01*
X379080Y377350D01*
X381580D01*
G01X383680Y379500D02*
X383280Y379400D01*
X382980Y379150D01*
X382780Y378850D01*
X382630Y378450D01*
X382580Y378000D01*
X382630Y377550D01*
X382780Y377150D01*
X382980Y376850D01*
X383280Y376600D01*
X383680Y376500D01*
X384080Y376600D01*
X384380Y376850D01*
X384580Y377150D01*
X384730Y377550D01*
X384780Y378000D01*
X384730Y378450D01*
X384580Y378850D01*
X384380Y379150D01*
X384080Y379400D01*
X383680Y379500D01*
G01X400550Y330500D02*
Y328350D01*
X400750Y327900D01*
X401150Y327600D01*
X401650Y327500D01*
X402150Y327600D01*
X402550Y327900D01*
X402750Y328350D01*
Y330500D01*
G01X403950Y327900D02*
X404350Y327650D01*
X404800Y327500D01*
X405200D01*
X405600Y327650D01*
X405900Y327900D01*
X406050Y328250D01*
X405950Y328600D01*
X405700Y328900D01*
X405250Y329100D01*
X404650Y329200D01*
X404300Y329400D01*
X404150Y329750D01*
X404250Y330100D01*
X404500Y330350D01*
X404850Y330500D01*
X405200D01*
X405550Y330400D01*
X405850Y330150D01*
G01X408750Y329100D02*
X408950Y329250D01*
X409100Y329500D01*
X409200Y329850D01*
X409100Y330150D01*
X408900Y330350D01*
X408550Y330500D01*
X407200D01*
Y327500D01*
X408850D01*
X409200Y327700D01*
X409400Y328000D01*
X409500Y328350D01*
X409400Y328700D01*
X409100Y329000D01*
X408750Y329100D01*
X407200D01*
G01X411700Y327500D02*
Y330500D01*
X411100Y329900D01*
G01Y327500D02*
X412300D01*
G01X400350Y322500D02*
Y325500D01*
X401650Y323000D01*
X402950Y325500D01*
Y322500D01*
G01X406100Y325250D02*
X405800Y325400D01*
X405450Y325500D01*
X405050D01*
X404600Y325350D01*
X404250Y325100D01*
X404000Y324800D01*
X403800Y324300D01*
X403750Y323850D01*
X403850Y323400D01*
X404000Y323100D01*
X404300Y322800D01*
X404650Y322600D01*
X405000Y322500D01*
X405350D01*
X405700Y322600D01*
X406000Y322750D01*
X406250Y322950D01*
G01X407250Y325500D02*
Y323350D01*
X407450Y322900D01*
X407850Y322600D01*
X408350Y322500D01*
X408850Y322600D01*
X409250Y322900D01*
X409450Y323350D01*
Y325500D01*
G01X393950Y342000D02*
X394950D01*
Y341100D01*
X394650Y340800D01*
X394300Y340600D01*
X393800Y340500D01*
X393300Y340600D01*
X392950Y340800D01*
X392650Y341100D01*
X392450Y341450D01*
X392350Y341850D01*
Y342200D01*
X392450Y342500D01*
X392650Y342850D01*
X392950Y343150D01*
X393250Y343350D01*
X393650Y343500D01*
X394000D01*
X394400Y343400D01*
X394700Y343200D01*
G01X395850Y340500D02*
Y343500D01*
X398150Y340500D01*
Y343500D01*
G01X399250Y340500D02*
Y343500D01*
X400250D01*
X400650Y343350D01*
X400950Y343150D01*
X401200Y342850D01*
X401400Y342500D01*
X401450Y342000D01*
X401400Y341500D01*
X401200Y341150D01*
X400950Y340850D01*
X400650Y340650D01*
X400250Y340500D01*
X399250D01*
G01X432300Y57500D02*
Y60500D01*
X433550D01*
X433950Y60350D01*
X434200Y60150D01*
X434300Y59750D01*
X434200Y59350D01*
X433900Y59100D01*
X433550Y58950D01*
X432300D01*
G01X433550D02*
X434300Y57500D01*
G01X435600Y57900D02*
X436000Y57650D01*
X436450Y57500D01*
X436850D01*
X437250Y57650D01*
X437550Y57900D01*
X437700Y58250D01*
X437600Y58600D01*
X437350Y58900D01*
X436900Y59100D01*
X436300Y59200D01*
X435950Y59400D01*
X435800Y59750D01*
X435900Y60100D01*
X436150Y60350D01*
X436500Y60500D01*
X436850D01*
X437200Y60400D01*
X437500Y60150D01*
G01X439050Y60000D02*
X439350Y60300D01*
X439700Y60450D01*
X440100Y60500D01*
X440600Y60400D01*
X440950Y60150D01*
X441050Y59850D01*
X441000Y59550D01*
X440800Y59300D01*
X439800Y58800D01*
X439350Y58450D01*
X439050Y57950D01*
X438950Y57500D01*
X441050D01*
G01X442250Y58100D02*
X442550Y57750D01*
X442950Y57550D01*
X443400Y57500D01*
X443800Y57550D01*
X444200Y57800D01*
X444450Y58100D01*
X444500Y58400D01*
X444400Y58750D01*
X444050Y59000D01*
X443700Y59100D01*
X443250D01*
G01X443700D02*
X444000Y59250D01*
X444250Y59500D01*
X444350Y59800D01*
X444250Y60100D01*
X444000Y60350D01*
X443550Y60500D01*
X443100Y60450D01*
X442650Y60250D01*
G01X445750Y60000D02*
X446050Y60300D01*
X446400Y60450D01*
X446800Y60500D01*
X447300Y60400D01*
X447650Y60150D01*
X447750Y59850D01*
X447700Y59550D01*
X447500Y59300D01*
X446500Y58800D01*
X446050Y58450D01*
X445750Y57950D01*
X445650Y57500D01*
X447750D01*
G01X451300Y60500D02*
Y63500D01*
X452550D01*
X452950Y63350D01*
X453200Y63150D01*
X453300Y62750D01*
X453200Y62350D01*
X452900Y62100D01*
X452550Y61950D01*
X451300D01*
G01X452550D02*
X453300Y60500D01*
G01X454600Y60900D02*
X455000Y60650D01*
X455450Y60500D01*
X455850D01*
X456250Y60650D01*
X456550Y60900D01*
X456700Y61250D01*
X456600Y61600D01*
X456350Y61900D01*
X455900Y62100D01*
X455300Y62200D01*
X454950Y62400D01*
X454800Y62750D01*
X454900Y63100D01*
X455150Y63350D01*
X455500Y63500D01*
X455850D01*
X456200Y63400D01*
X456500Y63150D01*
G01X458050Y63000D02*
X458350Y63300D01*
X458700Y63450D01*
X459100Y63500D01*
X459600Y63400D01*
X459950Y63150D01*
X460050Y62850D01*
X460000Y62550D01*
X459800Y62300D01*
X458800Y61800D01*
X458350Y61450D01*
X458050Y60950D01*
X457950Y60500D01*
X460050D01*
G01X461250Y61100D02*
X461550Y60750D01*
X461950Y60550D01*
X462400Y60500D01*
X462800Y60550D01*
X463200Y60800D01*
X463450Y61100D01*
X463500Y61400D01*
X463400Y61750D01*
X463050Y62000D01*
X462700Y62100D01*
X462250D01*
G01X462700D02*
X463000Y62250D01*
X463250Y62500D01*
X463350Y62800D01*
X463250Y63100D01*
X463000Y63350D01*
X462550Y63500D01*
X462100Y63450D01*
X461650Y63250D01*
G01X464750Y63000D02*
X465050Y63300D01*
X465400Y63450D01*
X465800Y63500D01*
X466300Y63400D01*
X466650Y63150D01*
X466750Y62850D01*
X466700Y62550D01*
X466500Y62300D01*
X465500Y61800D01*
X465050Y61450D01*
X464750Y60950D01*
X464650Y60500D01*
X466750D01*
G01X500700Y67100D02*
X500900Y67250D01*
X501050Y67500D01*
X501150Y67850D01*
X501050Y68150D01*
X500850Y68350D01*
X500500Y68500D01*
X499150D01*
Y65500D01*
X500800D01*
X501150Y65700D01*
X501350Y66000D01*
X501450Y66350D01*
X501350Y66700D01*
X501050Y67000D01*
X500700Y67100D01*
X499150D01*
G01X503650Y65500D02*
X503250Y65550D01*
X502900Y65750D01*
X502600Y66050D01*
X502400Y66400D01*
X502300Y66800D01*
Y67200D01*
X502400Y67600D01*
X502600Y67950D01*
X502900Y68250D01*
X503250Y68450D01*
X503650Y68500D01*
X504050Y68450D01*
X504400Y68250D01*
X504700Y67950D01*
X504900Y67600D01*
X505000Y67200D01*
Y66800D01*
X504900Y66400D01*
X504700Y66050D01*
X504400Y65750D01*
X504050Y65550D01*
X503650Y65500D01*
G01X507000D02*
X506600Y65550D01*
X506250Y65750D01*
X505950Y66050D01*
X505750Y66400D01*
X505650Y66800D01*
Y67200D01*
X505750Y67600D01*
X505950Y67950D01*
X506250Y68250D01*
X506600Y68450D01*
X507000Y68500D01*
X507400Y68450D01*
X507750Y68250D01*
X508050Y67950D01*
X508250Y67600D01*
X508350Y67200D01*
Y66800D01*
X508250Y66400D01*
X508050Y66050D01*
X507750Y65750D01*
X507400Y65550D01*
X507000Y65500D01*
G01X510350Y68500D02*
Y65500D01*
G01X509200Y68500D02*
X511500D01*
G01X513700D02*
X513300Y68400D01*
X513000Y68150D01*
X512800Y67850D01*
X512650Y67450D01*
X512600Y67000D01*
X512650Y66550D01*
X512800Y66150D01*
X513000Y65850D01*
X513300Y65600D01*
X513700Y65500D01*
X514100Y65600D01*
X514400Y65850D01*
X514600Y66150D01*
X514750Y66550D01*
X514800Y67000D01*
X514750Y67450D01*
X514600Y67850D01*
X514400Y68150D01*
X514100Y68400D01*
X513700Y68500D01*
G01X505650Y99500D02*
Y102500D01*
X506900D01*
X507300Y102350D01*
X507550Y102150D01*
X507650Y101750D01*
X507550Y101350D01*
X507250Y101100D01*
X506900Y100950D01*
X505650D01*
G01X506900D02*
X507650Y99500D01*
G01X508950Y99900D02*
X509350Y99650D01*
X509800Y99500D01*
X510200D01*
X510600Y99650D01*
X510900Y99900D01*
X511050Y100250D01*
X510950Y100600D01*
X510700Y100900D01*
X510250Y101100D01*
X509650Y101200D01*
X509300Y101400D01*
X509150Y101750D01*
X509250Y102100D01*
X509500Y102350D01*
X509850Y102500D01*
X510200D01*
X510550Y102400D01*
X510850Y102150D01*
G01X513350Y102500D02*
Y99500D01*
G01X512200Y102500D02*
X514500D01*
G01X496500Y125250D02*
X493500D01*
X495650Y123400D01*
Y125900D01*
G01X496500Y128000D02*
X496450Y128350D01*
X496300Y128750D01*
X496050Y129000D01*
X495700Y129100D01*
X495350Y129000D01*
X495050Y128700D01*
X494900Y128250D01*
Y127750D01*
X494800Y127450D01*
X494550Y127200D01*
X494200Y127100D01*
X493850Y127250D01*
X493600Y127600D01*
X493500Y128000D01*
X493600Y128400D01*
X493850Y128750D01*
X494200Y128900D01*
X494550Y128800D01*
X494800Y128550D01*
X494900Y128250D01*
Y127750D01*
X495050Y127300D01*
X495350Y127000D01*
X495700Y126900D01*
X496050Y127000D01*
X496300Y127250D01*
X496450Y127650D01*
X496500Y128000D01*
G01X493500Y130100D02*
X496500Y131350D01*
X493500Y132600D01*
G01X495880Y211500D02*
Y209350D01*
X496080Y208900D01*
X496480Y208600D01*
X496980Y208500D01*
X497480Y208600D01*
X497880Y208900D01*
X498080Y209350D01*
Y211500D01*
G01X499280Y208900D02*
X499680Y208650D01*
X500130Y208500D01*
X500530D01*
X500930Y208650D01*
X501230Y208900D01*
X501380Y209250D01*
X501280Y209600D01*
X501030Y209900D01*
X500580Y210100D01*
X499980Y210200D01*
X499630Y210400D01*
X499480Y210750D01*
X499580Y211100D01*
X499830Y211350D01*
X500180Y211500D01*
X500530D01*
X500880Y211400D01*
X501180Y211150D01*
G01X504080Y210100D02*
X504280Y210250D01*
X504430Y210500D01*
X504530Y210850D01*
X504430Y211150D01*
X504230Y211350D01*
X503880Y211500D01*
X502530D01*
Y208500D01*
X504180D01*
X504530Y208700D01*
X504730Y209000D01*
X504830Y209350D01*
X504730Y209700D01*
X504430Y210000D01*
X504080Y210100D01*
X502530D01*
G01X507630Y208500D02*
Y211500D01*
X505780Y209350D01*
X508280D01*
G01X494880Y277500D02*
Y275350D01*
X495080Y274900D01*
X495480Y274600D01*
X495980Y274500D01*
X496480Y274600D01*
X496880Y274900D01*
X497080Y275350D01*
Y277500D01*
G01X498280Y274900D02*
X498680Y274650D01*
X499130Y274500D01*
X499530D01*
X499930Y274650D01*
X500230Y274900D01*
X500380Y275250D01*
X500280Y275600D01*
X500030Y275900D01*
X499580Y276100D01*
X498980Y276200D01*
X498630Y276400D01*
X498480Y276750D01*
X498580Y277100D01*
X498830Y277350D01*
X499180Y277500D01*
X499530D01*
X499880Y277400D01*
X500180Y277150D01*
G01X503080Y276100D02*
X503280Y276250D01*
X503430Y276500D01*
X503530Y276850D01*
X503430Y277150D01*
X503230Y277350D01*
X502880Y277500D01*
X501530D01*
Y274500D01*
X503180D01*
X503530Y274700D01*
X503730Y275000D01*
X503830Y275350D01*
X503730Y275700D01*
X503430Y276000D01*
X503080Y276100D01*
X501530D01*
G01X504930Y275100D02*
X505230Y274750D01*
X505630Y274550D01*
X506080Y274500D01*
X506480Y274550D01*
X506880Y274800D01*
X507130Y275100D01*
X507180Y275400D01*
X507080Y275750D01*
X506730Y276000D01*
X506380Y276100D01*
X505930D01*
G01X506380D02*
X506680Y276250D01*
X506930Y276500D01*
X507030Y276800D01*
X506930Y277100D01*
X506680Y277350D01*
X506230Y277500D01*
X505780Y277450D01*
X505330Y277250D01*
G01X494880Y341500D02*
Y339350D01*
X495080Y338900D01*
X495480Y338600D01*
X495980Y338500D01*
X496480Y338600D01*
X496880Y338900D01*
X497080Y339350D01*
Y341500D01*
G01X498280Y338900D02*
X498680Y338650D01*
X499130Y338500D01*
X499530D01*
X499930Y338650D01*
X500230Y338900D01*
X500380Y339250D01*
X500280Y339600D01*
X500030Y339900D01*
X499580Y340100D01*
X498980Y340200D01*
X498630Y340400D01*
X498480Y340750D01*
X498580Y341100D01*
X498830Y341350D01*
X499180Y341500D01*
X499530D01*
X499880Y341400D01*
X500180Y341150D01*
G01X503080Y340100D02*
X503280Y340250D01*
X503430Y340500D01*
X503530Y340850D01*
X503430Y341150D01*
X503230Y341350D01*
X502880Y341500D01*
X501530D01*
Y338500D01*
X503180D01*
X503530Y338700D01*
X503730Y339000D01*
X503830Y339350D01*
X503730Y339700D01*
X503430Y340000D01*
X503080Y340100D01*
X501530D01*
G01X505930Y338500D02*
X506030Y339150D01*
X506180Y339700D01*
X506380Y340200D01*
X506630Y340750D01*
X507030Y341500D01*
X505030D01*
G01X514750Y17500D02*
X516000Y20500D01*
X517250Y17500D01*
G01X516800Y18550D02*
X515200D01*
G01X524300Y8500D02*
Y11500D01*
X525550D01*
X525950Y11350D01*
X526200Y11150D01*
X526300Y10750D01*
X526200Y10350D01*
X525900Y10100D01*
X525550Y9950D01*
X524300D01*
G01X525550D02*
X526300Y8500D01*
G01X527600Y8900D02*
X528000Y8650D01*
X528450Y8500D01*
X528850D01*
X529250Y8650D01*
X529550Y8900D01*
X529700Y9250D01*
X529600Y9600D01*
X529350Y9900D01*
X528900Y10100D01*
X528300Y10200D01*
X527950Y10400D01*
X527800Y10750D01*
X527900Y11100D01*
X528150Y11350D01*
X528500Y11500D01*
X528850D01*
X529200Y11400D01*
X529500Y11150D01*
G01X532600Y8500D02*
Y11500D01*
X530750Y9350D01*
X533250D01*
G01X535350Y8500D02*
X535700Y8550D01*
X536100Y8700D01*
X536350Y8950D01*
X536450Y9300D01*
X536350Y9650D01*
X536050Y9950D01*
X535600Y10100D01*
X535100D01*
X534800Y10200D01*
X534550Y10450D01*
X534450Y10800D01*
X534600Y11150D01*
X534950Y11400D01*
X535350Y11500D01*
X535750Y11400D01*
X536100Y11150D01*
X536250Y10800D01*
X536150Y10450D01*
X535900Y10200D01*
X535600Y10100D01*
X535100D01*
X534650Y9950D01*
X534350Y9650D01*
X534250Y9300D01*
X534350Y8950D01*
X534600Y8700D01*
X535000Y8550D01*
X535350Y8500D01*
G01X537600Y8950D02*
X537900Y8700D01*
X538250Y8550D01*
X538700Y8500D01*
X539150Y8600D01*
X539500Y8800D01*
X539750Y9150D01*
X539800Y9550D01*
X539700Y9950D01*
X539450Y10200D01*
X539100Y10400D01*
X538750Y10450D01*
X538400Y10400D01*
X537950Y10200D01*
X538100Y11500D01*
X539450D01*
G01X516400Y26100D02*
X516600Y26250D01*
X516750Y26500D01*
X516850Y26850D01*
X516750Y27150D01*
X516550Y27350D01*
X516200Y27500D01*
X514850D01*
Y24500D01*
X516500D01*
X516850Y24700D01*
X517050Y25000D01*
X517150Y25350D01*
X517050Y25700D01*
X516750Y26000D01*
X516400Y26100D01*
X514850D01*
G01X516000Y31950D02*
Y32950D01*
X516900D01*
X517200Y32650D01*
X517400Y32300D01*
X517500Y31800D01*
X517400Y31300D01*
X517200Y30950D01*
X516900Y30650D01*
X516550Y30450D01*
X516150Y30350D01*
X515800D01*
X515500Y30450D01*
X515150Y30650D01*
X514850Y30950D01*
X514650Y31250D01*
X514500Y31650D01*
Y32000D01*
X514600Y32400D01*
X514800Y32700D01*
G01X517500Y33850D02*
X514500D01*
X517500Y36150D01*
X514500D01*
G01X517500Y37250D02*
X514500D01*
Y38250D01*
X514650Y38650D01*
X514850Y38950D01*
X515150Y39200D01*
X515500Y39400D01*
X516000Y39450D01*
X516500Y39400D01*
X516850Y39200D01*
X517150Y38950D01*
X517350Y38650D01*
X517500Y38250D01*
Y37250D01*
G01X516000Y153950D02*
Y154950D01*
X516900D01*
X517200Y154650D01*
X517400Y154300D01*
X517500Y153800D01*
X517400Y153300D01*
X517200Y152950D01*
X516900Y152650D01*
X516550Y152450D01*
X516150Y152350D01*
X515800D01*
X515500Y152450D01*
X515150Y152650D01*
X514850Y152950D01*
X514650Y153250D01*
X514500Y153650D01*
Y154000D01*
X514600Y154400D01*
X514800Y154700D01*
G01X517500Y155850D02*
X514500D01*
X517500Y158150D01*
X514500D01*
G01X517500Y159250D02*
X514500D01*
Y160250D01*
X514650Y160650D01*
X514850Y160950D01*
X515150Y161200D01*
X515500Y161400D01*
X516000Y161450D01*
X516500Y161400D01*
X516850Y161200D01*
X517150Y160950D01*
X517350Y160650D01*
X517500Y160250D01*
Y159250D01*
G01X514500Y165000D02*
X517500D01*
Y167000D01*
G01Y183950D02*
X514500D01*
G01Y186050D02*
X517500D01*
G01X516000D02*
Y183950D01*
G01X529730Y211500D02*
X530980Y208500D01*
X532230Y211500D01*
G01X534730Y210100D02*
X534930Y210250D01*
X535080Y210500D01*
X535180Y210850D01*
X535080Y211150D01*
X534880Y211350D01*
X534530Y211500D01*
X533180D01*
Y208500D01*
X534830D01*
X535180Y208700D01*
X535380Y209000D01*
X535480Y209350D01*
X535380Y209700D01*
X535080Y210000D01*
X534730Y210100D01*
X533180D01*
G01X536580Y211500D02*
Y209350D01*
X536780Y208900D01*
X537180Y208600D01*
X537680Y208500D01*
X538180Y208600D01*
X538580Y208900D01*
X538780Y209350D01*
Y211500D01*
G01X539980Y208900D02*
X540380Y208650D01*
X540830Y208500D01*
X541230D01*
X541630Y208650D01*
X541930Y208900D01*
X542080Y209250D01*
X541980Y209600D01*
X541730Y209900D01*
X541280Y210100D01*
X540680Y210200D01*
X540330Y210400D01*
X540180Y210750D01*
X540280Y211100D01*
X540530Y211350D01*
X540880Y211500D01*
X541230D01*
X541580Y211400D01*
X541880Y211150D01*
G01X530550Y217500D02*
Y220500D01*
X531550D01*
X531950Y220350D01*
X532250Y220150D01*
X532500Y219850D01*
X532700Y219500D01*
X532750Y219000D01*
X532700Y218500D01*
X532500Y218150D01*
X532250Y217850D01*
X531950Y217650D01*
X531550Y217500D01*
X530550D01*
G01X533700D02*
Y220500D01*
X535000Y218000D01*
X536300Y220500D01*
Y217500D01*
G01X538950D02*
Y220500D01*
X537100Y218350D01*
X539600D01*
G01X530550Y224500D02*
Y227500D01*
X531550D01*
X531950Y227350D01*
X532250Y227150D01*
X532500Y226850D01*
X532700Y226500D01*
X532750Y226000D01*
X532700Y225500D01*
X532500Y225150D01*
X532250Y224850D01*
X531950Y224650D01*
X531550Y224500D01*
X530550D01*
G01X534000D02*
Y227500D01*
X535200D01*
X535600Y227350D01*
X535900Y227000D01*
X536000Y226600D01*
X535900Y226200D01*
X535650Y225900D01*
X535200Y225750D01*
X534000D01*
G01X538950Y224500D02*
Y227500D01*
X537100Y225350D01*
X539600D01*
G01X531950Y235000D02*
X532950D01*
Y234100D01*
X532650Y233800D01*
X532300Y233600D01*
X531800Y233500D01*
X531300Y233600D01*
X530950Y233800D01*
X530650Y234100D01*
X530450Y234450D01*
X530350Y234850D01*
Y235200D01*
X530450Y235500D01*
X530650Y235850D01*
X530950Y236150D01*
X531250Y236350D01*
X531650Y236500D01*
X532000D01*
X532400Y236400D01*
X532700Y236200D01*
G01X533850Y233500D02*
Y236500D01*
X536150Y233500D01*
Y236500D01*
G01X537250Y233500D02*
Y236500D01*
X538250D01*
X538650Y236350D01*
X538950Y236150D01*
X539200Y235850D01*
X539400Y235500D01*
X539450Y235000D01*
X539400Y234500D01*
X539200Y234150D01*
X538950Y233850D01*
X538650Y233650D01*
X538250Y233500D01*
X537250D01*
G01X529730Y276500D02*
X530980Y273500D01*
X532230Y276500D01*
G01X534730Y275100D02*
X534930Y275250D01*
X535080Y275500D01*
X535180Y275850D01*
X535080Y276150D01*
X534880Y276350D01*
X534530Y276500D01*
X533180D01*
Y273500D01*
X534830D01*
X535180Y273700D01*
X535380Y274000D01*
X535480Y274350D01*
X535380Y274700D01*
X535080Y275000D01*
X534730Y275100D01*
X533180D01*
G01X536580Y276500D02*
Y274350D01*
X536780Y273900D01*
X537180Y273600D01*
X537680Y273500D01*
X538180Y273600D01*
X538580Y273900D01*
X538780Y274350D01*
Y276500D01*
G01X539980Y273900D02*
X540380Y273650D01*
X540830Y273500D01*
X541230D01*
X541630Y273650D01*
X541930Y273900D01*
X542080Y274250D01*
X541980Y274600D01*
X541730Y274900D01*
X541280Y275100D01*
X540680Y275200D01*
X540330Y275400D01*
X540180Y275750D01*
X540280Y276100D01*
X540530Y276350D01*
X540880Y276500D01*
X541230D01*
X541580Y276400D01*
X541880Y276150D01*
G01X530550Y289500D02*
Y292500D01*
X531550D01*
X531950Y292350D01*
X532250Y292150D01*
X532500Y291850D01*
X532700Y291500D01*
X532750Y291000D01*
X532700Y290500D01*
X532500Y290150D01*
X532250Y289850D01*
X531950Y289650D01*
X531550Y289500D01*
X530550D01*
G01X534000D02*
Y292500D01*
X535200D01*
X535600Y292350D01*
X535900Y292000D01*
X536000Y291600D01*
X535900Y291200D01*
X535650Y290900D01*
X535200Y290750D01*
X534000D01*
G01X537250Y290100D02*
X537550Y289750D01*
X537950Y289550D01*
X538400Y289500D01*
X538800Y289550D01*
X539200Y289800D01*
X539450Y290100D01*
X539500Y290400D01*
X539400Y290750D01*
X539050Y291000D01*
X538700Y291100D01*
X538250D01*
G01X538700D02*
X539000Y291250D01*
X539250Y291500D01*
X539350Y291800D01*
X539250Y292100D01*
X539000Y292350D01*
X538550Y292500D01*
X538100Y292450D01*
X537650Y292250D01*
G01X530550Y282500D02*
Y285500D01*
X531550D01*
X531950Y285350D01*
X532250Y285150D01*
X532500Y284850D01*
X532700Y284500D01*
X532750Y284000D01*
X532700Y283500D01*
X532500Y283150D01*
X532250Y282850D01*
X531950Y282650D01*
X531550Y282500D01*
X530550D01*
G01X533700D02*
Y285500D01*
X535000Y283000D01*
X536300Y285500D01*
Y282500D01*
G01X537250Y283100D02*
X537550Y282750D01*
X537950Y282550D01*
X538400Y282500D01*
X538800Y282550D01*
X539200Y282800D01*
X539450Y283100D01*
X539500Y283400D01*
X539400Y283750D01*
X539050Y284000D01*
X538700Y284100D01*
X538250D01*
G01X538700D02*
X539000Y284250D01*
X539250Y284500D01*
X539350Y284800D01*
X539250Y285100D01*
X539000Y285350D01*
X538550Y285500D01*
X538100Y285450D01*
X537650Y285250D01*
G01X531950Y300000D02*
X532950D01*
Y299100D01*
X532650Y298800D01*
X532300Y298600D01*
X531800Y298500D01*
X531300Y298600D01*
X530950Y298800D01*
X530650Y299100D01*
X530450Y299450D01*
X530350Y299850D01*
Y300200D01*
X530450Y300500D01*
X530650Y300850D01*
X530950Y301150D01*
X531250Y301350D01*
X531650Y301500D01*
X532000D01*
X532400Y301400D01*
X532700Y301200D01*
G01X533850Y298500D02*
Y301500D01*
X536150Y298500D01*
Y301500D01*
G01X537250Y298500D02*
Y301500D01*
X538250D01*
X538650Y301350D01*
X538950Y301150D01*
X539200Y300850D01*
X539400Y300500D01*
X539450Y300000D01*
X539400Y299500D01*
X539200Y299150D01*
X538950Y298850D01*
X538650Y298650D01*
X538250Y298500D01*
X537250D01*
G01X530550Y347500D02*
Y350500D01*
X531550D01*
X531950Y350350D01*
X532250Y350150D01*
X532500Y349850D01*
X532700Y349500D01*
X532750Y349000D01*
X532700Y348500D01*
X532500Y348150D01*
X532250Y347850D01*
X531950Y347650D01*
X531550Y347500D01*
X530550D01*
G01X533700D02*
Y350500D01*
X535000Y348000D01*
X536300Y350500D01*
Y347500D01*
G01X538250D02*
X538350Y348150D01*
X538500Y348700D01*
X538700Y349200D01*
X538950Y349750D01*
X539350Y350500D01*
X537350D01*
G01X530550Y354500D02*
Y357500D01*
X531550D01*
X531950Y357350D01*
X532250Y357150D01*
X532500Y356850D01*
X532700Y356500D01*
X532750Y356000D01*
X532700Y355500D01*
X532500Y355150D01*
X532250Y354850D01*
X531950Y354650D01*
X531550Y354500D01*
X530550D01*
G01X534000D02*
Y357500D01*
X535200D01*
X535600Y357350D01*
X535900Y357000D01*
X536000Y356600D01*
X535900Y356200D01*
X535650Y355900D01*
X535200Y355750D01*
X534000D01*
G01X538250Y354500D02*
X538350Y355150D01*
X538500Y355700D01*
X538700Y356200D01*
X538950Y356750D01*
X539350Y357500D01*
X537350D01*
G01X529730Y341500D02*
X530980Y338500D01*
X532230Y341500D01*
G01X534730Y340100D02*
X534930Y340250D01*
X535080Y340500D01*
X535180Y340850D01*
X535080Y341150D01*
X534880Y341350D01*
X534530Y341500D01*
X533180D01*
Y338500D01*
X534830D01*
X535180Y338700D01*
X535380Y339000D01*
X535480Y339350D01*
X535380Y339700D01*
X535080Y340000D01*
X534730Y340100D01*
X533180D01*
G01X536580Y341500D02*
Y339350D01*
X536780Y338900D01*
X537180Y338600D01*
X537680Y338500D01*
X538180Y338600D01*
X538580Y338900D01*
X538780Y339350D01*
Y341500D01*
G01X539980Y338900D02*
X540380Y338650D01*
X540830Y338500D01*
X541230D01*
X541630Y338650D01*
X541930Y338900D01*
X542080Y339250D01*
X541980Y339600D01*
X541730Y339900D01*
X541280Y340100D01*
X540680Y340200D01*
X540330Y340400D01*
X540180Y340750D01*
X540280Y341100D01*
X540530Y341350D01*
X540880Y341500D01*
X541230D01*
X541580Y341400D01*
X541880Y341150D01*
G01X531950Y365000D02*
X532950D01*
Y364100D01*
X532650Y363800D01*
X532300Y363600D01*
X531800Y363500D01*
X531300Y363600D01*
X530950Y363800D01*
X530650Y364100D01*
X530450Y364450D01*
X530350Y364850D01*
Y365200D01*
X530450Y365500D01*
X530650Y365850D01*
X530950Y366150D01*
X531250Y366350D01*
X531650Y366500D01*
X532000D01*
X532400Y366400D01*
X532700Y366200D01*
G01X533850Y363500D02*
Y366500D01*
X536150Y363500D01*
Y366500D01*
G01X537250Y363500D02*
Y366500D01*
X538250D01*
X538650Y366350D01*
X538950Y366150D01*
X539200Y365850D01*
X539400Y365500D01*
X539450Y365000D01*
X539400Y364500D01*
X539200Y364150D01*
X538950Y363850D01*
X538650Y363650D01*
X538250Y363500D01*
X537250D01*
G54D12*
G01X41000Y165000D02*
X45000D01*
G01X43000Y167000D02*
Y163000D01*
G01Y186000D02*
Y182000D01*
G01Y197000D02*
Y193000D01*
G01X41000Y195000D02*
X45000D01*
G01Y234000D02*
Y230000D01*
G01X43000Y217000D02*
Y213000D01*
G01X45000Y254000D02*
Y250000D01*
G01X43000Y252000D02*
X47000D01*
G01Y275000D02*
Y271000D01*
G01Y295000D02*
Y291000D01*
G01X45000Y293000D02*
X49000D01*
G01X493000Y118000D02*
X497000D01*
G01X495000Y120000D02*
Y116000D01*
G01Y140000D02*
Y136000D01*
G54D13*
G01X46540Y135700D02*
X41460D01*
G01X46540D02*
Y146300D01*
X41460D01*
Y135700D01*
G01X54250Y146930D02*
X47750D01*
Y143380D01*
G01Y138620D02*
Y135070D01*
X54250D01*
Y138620D01*
G01X41460Y159300D02*
X46540D01*
G01X41460D02*
Y148700D01*
X46540D01*
Y159300D01*
G01X47750Y148070D02*
X54250D01*
Y151620D01*
G01X47750D02*
Y148070D01*
G01X54250Y156380D02*
Y159930D01*
X47750D01*
Y156380D01*
G01X42150Y331540D02*
Y338460D01*
X45850D01*
Y331540D01*
G01X42150D02*
X45850D01*
G01X42150Y353540D02*
Y360460D01*
X45850D01*
Y353540D01*
G01X42150D02*
X45850D01*
G01X42150Y342540D02*
Y349460D01*
X45850D01*
Y342540D01*
G01X42150D02*
X45850D01*
G01X61540Y35850D02*
X68460D01*
Y32150D01*
X61540D01*
G01Y35850D02*
Y32150D01*
G01X66150Y47540D02*
Y54460D01*
X69850D01*
Y47540D01*
G01X66150D02*
X69850D01*
G01X65460Y66150D02*
X58540D01*
Y69850D01*
X65460D01*
G01Y66150D02*
Y69850D01*
G01Y94150D02*
X58540D01*
Y97850D01*
X65460D01*
G01Y94150D02*
Y97850D01*
G01X54250Y143380D02*
Y146930D01*
G01X68850Y160460D02*
Y153540D01*
X65150D01*
Y160460D01*
G01X68850D02*
X65150D01*
G01X61540Y192850D02*
X68460D01*
Y189150D01*
X61540D01*
G01Y192850D02*
Y189150D01*
G01X63850Y338460D02*
Y331540D01*
X60150D01*
Y338460D01*
G01X63850Y360460D02*
Y353540D01*
X60150D01*
Y360460D01*
G01X63850Y349460D02*
Y342540D01*
X60150D01*
Y349460D01*
G01X63850D02*
X60150D01*
G01X63850Y338460D02*
X60150D01*
G01X63850Y360460D02*
X60150D01*
G01X80540Y35850D02*
X87460D01*
Y32150D01*
X80540D01*
G01Y35850D02*
Y32150D01*
G01X92850Y44460D02*
Y37540D01*
X89150D01*
Y44460D01*
G01X73850D02*
Y37540D01*
X70150D01*
Y44460D01*
G01X92850D02*
X89150D01*
G01X73850D02*
X70150D01*
G01X84460Y91150D02*
X77540D01*
Y94850D01*
X84460D01*
G01Y91150D02*
Y94850D01*
G01X70540D02*
X77460D01*
Y91150D01*
X70540D01*
G01Y94850D02*
Y91150D01*
G01X84460Y111150D02*
X77540D01*
Y114850D01*
X84460D01*
G01Y111150D02*
Y114850D01*
G01X70540D02*
X77460D01*
Y111150D01*
X70540D01*
G01Y114850D02*
Y111150D01*
G01X90850Y132460D02*
Y125540D01*
X87150D01*
Y132460D01*
G01X74540Y122850D02*
X81460D01*
Y119150D01*
X74540D01*
G01Y122850D02*
Y119150D01*
G01X82150Y138540D02*
Y145460D01*
X85850D01*
Y138540D01*
G01X82150D02*
X85850D01*
G01X90850Y132460D02*
X87150D01*
G01X89460Y155150D02*
X82540D01*
Y158850D01*
X89460D01*
G01Y155150D02*
Y158850D01*
G01X88960Y189650D02*
X82040D01*
Y193350D01*
X88960D01*
G01Y189650D02*
Y193350D01*
G01X100540Y35850D02*
X107460D01*
Y32150D01*
X100540D01*
G01Y35850D02*
Y32150D01*
G01X112850Y44460D02*
Y37540D01*
X109150D01*
Y44460D01*
G01X112850D02*
X109150D01*
G01X106460Y91150D02*
X99540D01*
Y94850D01*
X106460D01*
G01Y91150D02*
Y94850D01*
G01X92540D02*
X99460D01*
Y91150D01*
X92540D01*
G01Y94850D02*
Y91150D01*
G01X109460Y97150D02*
X102540D01*
Y100850D01*
X109460D01*
G01Y97150D02*
Y100850D01*
G01X102540Y116850D02*
X109460D01*
Y113150D01*
X102540D01*
G01Y116850D02*
Y113150D01*
G01X105850Y141460D02*
Y134540D01*
X102150D01*
Y141460D01*
G01X105850D02*
X102150D01*
G01X105850Y148460D02*
Y141540D01*
X102150D01*
Y148460D01*
G01X105850D02*
X102150D01*
G01X99540Y180850D02*
X106460D01*
Y177150D01*
X99540D01*
G01Y180850D02*
Y177150D01*
G01X92540Y180850D02*
X99460D01*
Y177150D01*
X92540D01*
G01Y180850D02*
Y177150D01*
G01X99540Y214850D02*
X106460D01*
Y211150D01*
X99540D01*
G01Y214850D02*
Y211150D01*
G01X92540Y214850D02*
X99460D01*
Y211150D01*
X92540D01*
G01Y214850D02*
Y211150D01*
G01X102540Y241850D02*
X109460D01*
Y238150D01*
X102540D01*
G01Y241850D02*
Y238150D01*
G01X128700Y25460D02*
Y30540D01*
G01Y25460D02*
X139300D01*
Y30540D01*
X128700D01*
G01X125540Y286850D02*
X132460D01*
Y283150D01*
X125540D01*
G01Y286850D02*
Y283150D01*
G01X132460Y287150D02*
X125540D01*
Y290850D01*
X132460D01*
G01Y287150D02*
Y290850D01*
G01X127540Y355850D02*
X134460D01*
Y352150D01*
X127540D01*
G01Y355850D02*
Y352150D01*
G01X120150Y337540D02*
Y344460D01*
X123850D01*
Y337540D01*
G01X120150D02*
X123850D01*
G01Y352460D02*
Y345540D01*
X120150D01*
Y352460D01*
G01X123850D02*
X120150D01*
G01X119850Y344460D02*
Y337540D01*
X116150D01*
Y344460D01*
G01X119850D02*
X116150D01*
G01X134460Y359150D02*
X127540D01*
Y362850D01*
X134460D01*
G01X151980Y28850D02*
X149540D01*
Y25150D01*
X151980D01*
G01X145020Y28850D02*
X147460D01*
Y25150D01*
X145020D01*
G01X142980Y28850D02*
X140540D01*
Y25150D01*
X142980D01*
G01X151460Y36760D02*
Y40300D01*
X156540D01*
Y36760D01*
G01X151460Y33240D02*
Y29700D01*
X156540D01*
Y33240D01*
G01X142460Y36760D02*
Y40300D01*
X147540D01*
Y36760D01*
G01X142460Y33240D02*
Y29700D01*
X147540D01*
Y33240D01*
G01X148540Y141850D02*
X155460D01*
Y138150D01*
X148540D01*
G01Y141850D02*
Y138150D01*
G01X149150Y143540D02*
Y150460D01*
X152850D01*
Y143540D01*
G01X149150D02*
X152850D01*
G01X155850Y167460D02*
Y160540D01*
X152150D01*
Y167460D01*
G01X155850Y185460D02*
Y178540D01*
X152150D01*
Y185460D01*
G01X155850D02*
X152150D01*
G01X155850Y167460D02*
X152150D01*
G01X151700Y197460D02*
Y202540D01*
G01Y197460D02*
X162300D01*
Y202540D01*
X151700D01*
G01X133150Y219020D02*
Y221460D01*
X136850D01*
Y219020D01*
G01X133150Y216980D02*
Y214540D01*
X136850D01*
Y216980D01*
G01X134980Y228150D02*
X132540D01*
Y231850D01*
X134980D01*
G01X137020Y228150D02*
X139460D01*
Y231850D01*
X137020D01*
G01X141150Y214540D02*
Y221460D01*
X144850D01*
Y214540D01*
G01X141150D02*
X144850D01*
G01X140850Y221460D02*
Y214540D01*
X137150D01*
Y221460D01*
G01X140850D02*
X137150D01*
G01X147150Y283540D02*
Y290460D01*
X150850D01*
Y283540D01*
G01X147150D02*
X150850D01*
G01X135700Y303460D02*
Y308540D01*
G01Y303460D02*
X146300D01*
Y308540D01*
X135700D01*
G01Y310460D02*
Y315540D01*
G01Y310460D02*
X146300D01*
Y315540D01*
X135700D01*
G01Y296460D02*
Y301540D01*
G01Y296460D02*
X146300D01*
Y301540D01*
X135700D01*
G01Y317460D02*
Y322540D01*
G01Y317460D02*
X146300D01*
Y322540D01*
X135700D01*
G01X142150Y355540D02*
Y362460D01*
X145850D01*
Y355540D01*
G01X142150D02*
X145850D01*
G01X134460Y359150D02*
Y362850D01*
G01X163020Y28850D02*
X165460D01*
Y25150D01*
X163020D01*
G01X160980Y28850D02*
X158540D01*
Y25150D01*
X160980D01*
G01X154020Y28850D02*
X156460D01*
Y25150D01*
X154020D01*
G01X172020Y28850D02*
X174460D01*
Y25150D01*
X172020D01*
G01X169980Y28850D02*
X167540D01*
Y25150D01*
X169980D01*
G01X169460Y36760D02*
Y40300D01*
X174540D01*
Y36760D01*
G01X169460Y33240D02*
Y29700D01*
X174540D01*
Y33240D01*
G01X160460Y36760D02*
Y40300D01*
X165540D01*
Y36760D01*
G01X160460Y33240D02*
Y29700D01*
X165540D01*
Y33240D01*
G01X168850Y150460D02*
Y143540D01*
X165150D01*
Y150460D01*
G01X168850D02*
X165150D01*
G01X167150Y221540D02*
Y228460D01*
X170850D01*
Y221540D01*
G01X167150D02*
X170850D01*
G01X167150Y214540D02*
Y221460D01*
X170850D01*
Y214540D01*
G01X167150D02*
X170850D01*
G01X167150Y239020D02*
Y241460D01*
X170850D01*
Y239020D01*
G01X167150Y236980D02*
Y234540D01*
X170850D01*
Y236980D01*
G01X159980Y245150D02*
X157540D01*
Y248850D01*
X159980D01*
G01X162020Y245150D02*
X164460D01*
Y248850D01*
X162020D01*
G01X160150Y355540D02*
Y362460D01*
X163850D01*
Y355540D01*
G01X160150D02*
X163850D01*
G01X191700Y25460D02*
Y30540D01*
G01Y25460D02*
X202300D01*
Y30540D01*
X191700D01*
G01X188850Y167980D02*
Y165540D01*
X185150D01*
Y167980D01*
G01X197240Y161460D02*
X193700D01*
Y166540D01*
X197240D01*
G01X188850Y170020D02*
Y172460D01*
X185150D01*
Y170020D01*
G01X193070Y190250D02*
Y183750D01*
X196620D01*
G01X181150Y193540D02*
Y200460D01*
X184850D01*
Y193540D01*
G01X181150D02*
X184850D01*
G01X196620Y190250D02*
X193070D01*
G01X192980Y227150D02*
X190540D01*
Y230850D01*
X192980D01*
G01X195020Y227150D02*
X197460D01*
Y230850D01*
X195020D01*
G01X191150Y218020D02*
Y220460D01*
X194850D01*
Y218020D01*
G01X191150Y215980D02*
Y213540D01*
X194850D01*
Y215980D01*
G01X189150Y329020D02*
Y331460D01*
X192850D01*
Y329020D01*
G01X189150Y326980D02*
Y324540D01*
X192850D01*
Y326980D01*
G01X214980Y28850D02*
X212540D01*
Y25150D01*
X214980D01*
G01X208020Y28850D02*
X210460D01*
Y25150D01*
X208020D01*
G01X205980Y28850D02*
X203540D01*
Y25150D01*
X205980D01*
G01X214460Y36760D02*
Y40300D01*
X219540D01*
Y36760D01*
G01X214460Y33240D02*
Y29700D01*
X219540D01*
Y33240D01*
G01X205460Y36760D02*
Y40300D01*
X210540D01*
Y36760D01*
G01X205460Y33240D02*
Y29700D01*
X210540D01*
Y33240D01*
G01X211540Y141850D02*
X218460D01*
Y138150D01*
X211540D01*
G01Y141850D02*
Y138150D01*
G01X212150Y147540D02*
Y154460D01*
X215850D01*
Y147540D01*
G01X212150D02*
X215850D01*
G01X200760Y161460D02*
X204300D01*
Y166540D01*
X200760D01*
G01X222460Y169150D02*
X215540D01*
Y172850D01*
X222460D01*
G01Y173150D02*
X215540D01*
Y176850D01*
X222460D01*
G01Y177150D02*
X215540D01*
Y180850D01*
X222460D01*
G01X214540Y173240D02*
Y169700D01*
X209460D01*
Y173240D01*
G01X214540Y176760D02*
Y180300D01*
X209460D01*
Y176760D01*
G01X201380Y183750D02*
X204930D01*
Y190250D01*
X201380D01*
G01X199150Y213540D02*
Y220460D01*
X202850D01*
Y213540D01*
G01X199150D02*
X202850D01*
G01X198850Y220460D02*
Y213540D01*
X195150D01*
Y220460D01*
G01X198850D02*
X195150D01*
G01X217980Y244150D02*
X215540D01*
Y247850D01*
X217980D01*
G01X210460Y286150D02*
X203540D01*
Y289850D01*
X210460D01*
G01Y286150D02*
Y289850D01*
G01Y282150D02*
X203540D01*
Y285850D01*
X210460D01*
G01Y282150D02*
Y285850D01*
G01X199150Y282540D02*
Y289460D01*
X202850D01*
Y282540D01*
G01X199150D02*
X202850D01*
G01X235020Y28850D02*
X237460D01*
Y25150D01*
X235020D01*
G01X232980Y28850D02*
X230540D01*
Y25150D01*
X232980D01*
G01X226020Y28850D02*
X228460D01*
Y25150D01*
X226020D01*
G01X223980Y28850D02*
X221540D01*
Y25150D01*
X223980D01*
G01X217020Y28850D02*
X219460D01*
Y25150D01*
X217020D01*
G01X232460Y36760D02*
Y40300D01*
X237540D01*
Y36760D01*
G01X232460Y33240D02*
Y29700D01*
X237540D01*
Y33240D01*
G01X223460Y36760D02*
Y40300D01*
X228540D01*
Y36760D01*
G01X223460Y33240D02*
Y29700D01*
X228540D01*
Y33240D01*
G01X231850Y154460D02*
Y147540D01*
X228150D01*
Y154460D01*
G01X231850D02*
X228150D01*
G01X222460Y169150D02*
Y172850D01*
G01Y173150D02*
Y176850D01*
G01Y177150D02*
Y180850D01*
G01X224850Y200460D02*
Y193540D01*
X221150D01*
Y200460D01*
G01X224850D02*
X221150D01*
G01X229850D02*
Y193540D01*
X226150D01*
Y200460D01*
G01X229850D02*
X226150D01*
G01X234850D02*
Y193540D01*
X231150D01*
Y200460D01*
G01X234850D02*
X231150D01*
G01X239850D02*
Y193540D01*
X236150D01*
Y200460D01*
G01X239850D02*
X236150D01*
G01X220850D02*
Y193540D01*
X217150D01*
Y200460D01*
G01X220850D02*
X217150D01*
G01X225150Y220540D02*
Y227460D01*
X228850D01*
Y220540D01*
G01X225150D02*
X228850D01*
G01X225150Y213540D02*
Y220460D01*
X228850D01*
Y213540D01*
G01X225150D02*
X228850D01*
G01X220020Y244150D02*
X222460D01*
Y247850D01*
X220020D01*
G01X225150Y238020D02*
Y240460D01*
X228850D01*
Y238020D01*
G01X225150Y235980D02*
Y233540D01*
X228850D01*
Y235980D01*
G01X253700Y25460D02*
Y30540D01*
G01Y25460D02*
X264300D01*
Y30540D01*
X253700D01*
G01X254850Y168980D02*
Y166540D01*
X251150D01*
Y168980D01*
G01X254850Y171020D02*
Y173460D01*
X251150D01*
Y171020D01*
G01X244850Y200460D02*
Y193540D01*
X241150D01*
Y200460D01*
G01X244850D02*
X241150D01*
G01X249850D02*
Y193540D01*
X246150D01*
Y200460D01*
G01X249850D02*
X246150D01*
G01X254850D02*
Y193540D01*
X251150D01*
Y200460D01*
G01X254850D02*
X251150D01*
G01X256150Y193540D02*
Y200460D01*
X259850D01*
Y193540D01*
G01X256150D02*
X259850D01*
G01X241240Y222460D02*
X237700D01*
Y227540D01*
X241240D01*
G01X244760Y222460D02*
X248300D01*
Y227540D01*
X244760D01*
G01X237070Y254250D02*
Y247750D01*
X240620D01*
G01X245380D02*
X248930D01*
Y254250D01*
X245380D01*
G01X244760Y266540D02*
X248300D01*
Y261460D01*
X244760D01*
G01X241240Y266540D02*
X237700D01*
Y261460D01*
X241240D01*
G01Y255460D02*
X237700D01*
Y260540D01*
X241240D01*
G01X244760Y255460D02*
X248300D01*
Y260540D01*
X244760D01*
G01X240620Y254250D02*
X237070D01*
G01X248850Y293980D02*
Y291540D01*
X245150D01*
Y293980D01*
G01X244850D02*
Y291540D01*
X241150D01*
Y293980D01*
G01X241540Y290850D02*
X248460D01*
Y287150D01*
X241540D01*
G01Y290850D02*
Y287150D01*
G01Y286850D02*
X248460D01*
Y283150D01*
X241540D01*
G01Y286850D02*
Y283150D01*
G01X248460Y279150D02*
X241540D01*
Y282850D01*
X248460D01*
G01Y279150D02*
Y282850D01*
G01X246020Y302850D02*
X248460D01*
Y299150D01*
X246020D01*
G01X243980Y302850D02*
X241540D01*
Y299150D01*
X243980D01*
G01X248850Y296020D02*
Y298460D01*
X245150D01*
Y296020D01*
G01X244850D02*
Y298460D01*
X241150D01*
Y296020D01*
G01X277980Y28850D02*
X275540D01*
Y25150D01*
X277980D01*
G01X271020Y28850D02*
X273460D01*
Y25150D01*
X271020D01*
G01X268980Y28850D02*
X266540D01*
Y25150D01*
X268980D01*
G01X277460Y36760D02*
Y40300D01*
X282540D01*
Y36760D01*
G01X277460Y33240D02*
Y29700D01*
X282540D01*
Y33240D01*
G01X268460Y36760D02*
Y40300D01*
X273540D01*
Y36760D01*
G01X268460Y33240D02*
Y29700D01*
X273540D01*
Y33240D01*
G01X278460Y138150D02*
X271540D01*
Y141850D01*
X278460D01*
G01Y138150D02*
Y141850D01*
G01X274540Y168850D02*
X281460D01*
Y165150D01*
X274540D01*
G01Y168850D02*
Y165150D01*
G01X261850Y177980D02*
Y175540D01*
X258150D01*
Y177980D01*
G01X261850Y180020D02*
Y182460D01*
X258150D01*
Y180020D01*
G01X274540Y186850D02*
X281460D01*
Y183150D01*
X274540D01*
G01Y186850D02*
Y183150D01*
G01X298020Y28850D02*
X300460D01*
Y25150D01*
X298020D01*
G01X295980Y28850D02*
X293540D01*
Y25150D01*
X295980D01*
G01X289020Y28850D02*
X291460D01*
Y25150D01*
X289020D01*
G01X286980Y28850D02*
X284540D01*
Y25150D01*
X286980D01*
G01X280020Y28850D02*
X282460D01*
Y25150D01*
X280020D01*
G01X295460Y36760D02*
Y40300D01*
X300540D01*
Y36760D01*
G01X295460Y33240D02*
Y29700D01*
X300540D01*
Y33240D01*
G01X286460Y36760D02*
Y40300D01*
X291540D01*
Y36760D01*
G01X286460Y33240D02*
Y29700D01*
X291540D01*
Y33240D01*
G01X294850Y157460D02*
Y150540D01*
X291150D01*
Y157460D01*
G01X294850D02*
X291150D01*
G01X301850D02*
Y150540D01*
X298150D01*
Y157460D01*
G01X301850D02*
X298150D01*
G01X284850Y200460D02*
Y193540D01*
X281150D01*
Y200460D01*
G01X284850D02*
X281150D01*
G01X289850D02*
Y193540D01*
X286150D01*
Y200460D01*
G01X289850D02*
X286150D01*
G01X294850D02*
Y193540D01*
X291150D01*
Y200460D01*
G01X294850D02*
X291150D01*
G01X299850D02*
Y193540D01*
X296150D01*
Y200460D01*
G01X299850D02*
X296150D01*
G01X283020Y259850D02*
X285460D01*
Y256150D01*
X283020D01*
G01X280980Y259850D02*
X278540D01*
Y256150D01*
X280980D01*
G01X283020Y264850D02*
X285460D01*
Y261150D01*
X283020D01*
G01X280980Y264850D02*
X278540D01*
Y261150D01*
X280980D01*
G01X283020Y255850D02*
X285460D01*
Y252150D01*
X283020D01*
G01X280980Y255850D02*
X278540D01*
Y252150D01*
X280980D01*
G01X285460Y287150D02*
X278540D01*
Y290850D01*
X285460D01*
G01Y287150D02*
Y290850D01*
G01X283020Y308850D02*
X285460D01*
Y305150D01*
X283020D01*
G01X280980Y308850D02*
X278540D01*
Y305150D01*
X280980D01*
G01X301850Y330460D02*
Y323540D01*
X298150D01*
Y330460D01*
G01X301850D02*
X298150D01*
G01X316700Y25460D02*
Y30540D01*
G01Y25460D02*
X327300D01*
Y30540D01*
X316700D01*
G01X313150Y155020D02*
Y157460D01*
X316850D01*
Y155020D01*
G01X313150Y152980D02*
Y150540D01*
X316850D01*
Y152980D01*
G01X309850Y157460D02*
Y150540D01*
X306150D01*
Y157460D01*
G01X309850D02*
X306150D01*
G01X304850Y200460D02*
Y193540D01*
X301150D01*
Y200460D01*
G01X304850D02*
X301150D01*
G01X309850D02*
Y193540D01*
X306150D01*
Y200460D01*
G01X309850D02*
X306150D01*
G01X314850D02*
Y193540D01*
X311150D01*
Y200460D01*
G01X314850D02*
X311150D01*
G01X316150Y193540D02*
Y200460D01*
X319850D01*
Y193540D01*
G01X316150D02*
X319850D01*
G01X304980Y323150D02*
X302540D01*
Y326850D01*
X304980D01*
G01X307020Y323150D02*
X309460D01*
Y326850D01*
X307020D01*
G01X304980Y327150D02*
X302540D01*
Y330850D01*
X304980D01*
G01X307020Y327150D02*
X309460D01*
Y330850D01*
X307020D01*
G01X318980Y326850D02*
X316540D01*
Y323150D01*
X318980D01*
G01X310150Y331540D02*
Y338460D01*
X313850D01*
Y331540D01*
G01X310150D02*
X313850D01*
G01Y330460D02*
Y323540D01*
X310150D01*
Y330460D01*
G01X313850D02*
X310150D01*
G01X309460Y331150D02*
X302540D01*
Y334850D01*
X309460D01*
G01Y331150D02*
Y334850D01*
G01X307020Y338850D02*
X309460D01*
Y335150D01*
X307020D01*
G01X304980Y338850D02*
X302540D01*
Y335150D01*
X304980D01*
G01X340980Y28850D02*
X338540D01*
Y25150D01*
X340980D01*
G01X334020Y28850D02*
X336460D01*
Y25150D01*
X334020D01*
G01X331980Y28850D02*
X329540D01*
Y25150D01*
X331980D01*
G01X340460Y36760D02*
Y40300D01*
X345540D01*
Y36760D01*
G01X340460Y33240D02*
Y29700D01*
X345540D01*
Y33240D01*
G01X331460Y36760D02*
Y40300D01*
X336540D01*
Y36760D01*
G01X331460Y33240D02*
Y29700D01*
X336540D01*
Y33240D01*
G01X341460Y138150D02*
X334540D01*
Y141850D01*
X341460D01*
G01X321150Y193540D02*
Y200460D01*
X324850D01*
Y193540D01*
G01X321150D02*
X324850D01*
G01X337150Y243020D02*
Y245460D01*
X340850D01*
Y243020D01*
G01X337150Y240980D02*
Y238540D01*
X340850D01*
Y240980D01*
G01X341850Y325980D02*
Y323540D01*
X338150D01*
Y325980D01*
G01X341850Y328020D02*
Y330460D01*
X338150D01*
Y328020D01*
G01X336850Y325980D02*
Y323540D01*
X333150D01*
Y325980D01*
G01X336850Y328020D02*
Y330460D01*
X333150D01*
Y328020D01*
G01X326980Y323150D02*
X324540D01*
Y326850D01*
X326980D01*
G01X329020Y323150D02*
X331460D01*
Y326850D01*
X329020D01*
G01X321020D02*
X323460D01*
Y323150D01*
X321020D01*
G01X361020Y28850D02*
X363460D01*
Y25150D01*
X361020D01*
G01X358980Y28850D02*
X356540D01*
Y25150D01*
X358980D01*
G01X352020Y28850D02*
X354460D01*
Y25150D01*
X352020D01*
G01X349980Y28850D02*
X347540D01*
Y25150D01*
X349980D01*
G01X343020Y28850D02*
X345460D01*
Y25150D01*
X343020D01*
G01X358460Y36760D02*
Y40300D01*
X363540D01*
Y36760D01*
G01X358460Y33240D02*
Y29700D01*
X363540D01*
Y33240D01*
G01X349460Y36760D02*
Y40300D01*
X354540D01*
Y36760D01*
G01X349460Y33240D02*
Y29700D01*
X354540D01*
Y33240D01*
G01X341460Y138150D02*
Y141850D01*
G01X346150Y243020D02*
Y245460D01*
X349850D01*
Y243020D01*
G01X346150Y240980D02*
Y238540D01*
X349850D01*
Y240980D01*
G01X350150Y243020D02*
Y245460D01*
X353850D01*
Y243020D01*
G01X350150Y240980D02*
Y238540D01*
X353850D01*
Y240980D01*
G01X341150Y238540D02*
Y245460D01*
X344850D01*
Y238540D01*
G01X341150D02*
X344850D01*
G01X363980Y303150D02*
X361540D01*
Y306850D01*
X363980D01*
G01X345850Y330460D02*
Y323540D01*
X342150D01*
Y330460D01*
G01X345850D02*
X342150D01*
G01X379700Y25460D02*
Y30540D01*
G01Y25460D02*
X390300D01*
Y30540D01*
X379700D01*
G01X384850Y204460D02*
Y197540D01*
X381150D01*
Y204460D01*
G01X384850D02*
X381150D01*
G01X366020Y303150D02*
X368460D01*
Y306850D01*
X366020D01*
G01X403980Y28850D02*
X401540D01*
Y25150D01*
X403980D01*
G01X397020Y28850D02*
X399460D01*
Y25150D01*
X397020D01*
G01X394980Y28850D02*
X392540D01*
Y25150D01*
X394980D01*
G01X403460Y36760D02*
Y40300D01*
X408540D01*
Y36760D01*
G01X403460Y33240D02*
Y29700D01*
X408540D01*
Y33240D01*
G01X394460Y36760D02*
Y40300D01*
X399540D01*
Y36760D01*
G01X394460Y33240D02*
Y29700D01*
X399540D01*
Y33240D01*
G01X404460Y138150D02*
X397540D01*
Y141850D01*
X404460D01*
G01X393850Y162460D02*
Y155540D01*
X390150D01*
Y162460D01*
G01X393850D02*
X390150D01*
G01X397850D02*
Y155540D01*
X394150D01*
Y162460D01*
G01X397850D02*
X394150D01*
G01X403850D02*
Y155540D01*
X400150D01*
Y162460D01*
G01X403850D02*
X400150D01*
G01X402850Y199980D02*
Y197540D01*
X399150D01*
Y199980D01*
G01X402850Y202020D02*
Y204460D01*
X399150D01*
Y202020D01*
G01X393150Y197540D02*
Y204460D01*
X396850D01*
Y197540D01*
G01X393150D02*
X396850D01*
G01X389150D02*
Y204460D01*
X392850D01*
Y197540D01*
G01X389150D02*
X392850D01*
G01X388850Y204460D02*
Y197540D01*
X385150D01*
Y204460D01*
G01X388850D02*
X385150D01*
G01X394020Y225850D02*
X396460D01*
Y222150D01*
X394020D01*
G01X391980Y225850D02*
X389540D01*
Y222150D01*
X391980D01*
G01X389540Y230850D02*
X396460D01*
Y227150D01*
X389540D01*
G01Y230850D02*
Y227150D01*
G01Y238850D02*
X396460D01*
Y235150D01*
X389540D01*
G01Y238850D02*
Y235150D01*
G01Y234850D02*
X396460D01*
Y231150D01*
X389540D01*
G01Y234850D02*
Y231150D01*
G01Y242850D02*
X396460D01*
Y239150D01*
X389540D01*
G01Y242850D02*
Y239150D01*
G01X401150Y258020D02*
Y260460D01*
X404850D01*
Y258020D01*
G01X401150Y255980D02*
Y253540D01*
X404850D01*
Y255980D01*
G01X396020Y299850D02*
X398460D01*
Y296150D01*
X396020D01*
G01X393980Y299850D02*
X391540D01*
Y296150D01*
X393980D01*
G01X401980D02*
X399540D01*
Y299850D01*
X401980D01*
G01X424020Y28850D02*
X426460D01*
Y25150D01*
X424020D01*
G01X421980Y28850D02*
X419540D01*
Y25150D01*
X421980D01*
G01X415020Y28850D02*
X417460D01*
Y25150D01*
X415020D01*
G01X412980Y28850D02*
X410540D01*
Y25150D01*
X412980D01*
G01X406020Y28850D02*
X408460D01*
Y25150D01*
X406020D01*
G01X421460Y36760D02*
Y40300D01*
X426540D01*
Y36760D01*
G01X421460Y33240D02*
Y29700D01*
X426540D01*
Y33240D01*
G01X412460Y36760D02*
Y40300D01*
X417540D01*
Y36760D01*
G01X412460Y33240D02*
Y29700D01*
X417540D01*
Y33240D01*
G01X404460Y138150D02*
Y141850D01*
G01X424150Y160020D02*
Y162460D01*
X427850D01*
Y160020D01*
G01X424150Y157980D02*
Y155540D01*
X427850D01*
Y157980D01*
G01X404150Y155540D02*
Y162460D01*
X407850D01*
Y155540D01*
G01X404150D02*
X407850D01*
G01X427850Y199980D02*
Y197540D01*
X424150D01*
Y199980D01*
G01X427850Y202020D02*
Y204460D01*
X424150D01*
Y202020D01*
G01X422850Y199980D02*
Y197540D01*
X419150D01*
Y199980D01*
G01X422850Y202020D02*
Y204460D01*
X419150D01*
Y202020D01*
G01X405150D02*
Y204460D01*
X408850D01*
Y202020D01*
G01X405150Y199980D02*
Y197540D01*
X408850D01*
Y199980D01*
G01Y260460D02*
Y253540D01*
X405150D01*
Y260460D01*
G01X408850D02*
X405150D01*
G01X404020Y296150D02*
X406460D01*
Y299850D01*
X404020D01*
G01X419850Y299980D02*
Y297540D01*
X416150D01*
Y299980D01*
G01X419850Y302020D02*
Y304460D01*
X416150D01*
Y302020D01*
G01X415460Y308150D02*
X408540D01*
Y311850D01*
X415460D01*
G01Y308150D02*
Y311850D01*
G01X437020Y287850D02*
X439460D01*
Y284150D01*
X437020D01*
G01X434980Y287850D02*
X432540D01*
Y284150D01*
X434980D01*
G01X439460Y288150D02*
X432540D01*
Y291850D01*
X439460D01*
G01Y288150D02*
Y291850D01*
G01X444930Y287710D02*
Y289070D01*
X446290D01*
G01Y272930D02*
X444930D01*
Y274290D01*
G01X437020Y310850D02*
X439460D01*
Y307150D01*
X437020D01*
G01X434980Y310850D02*
X432540D01*
Y307150D01*
X434980D01*
G01X442850Y328460D02*
Y321540D01*
X439150D01*
Y328460D01*
G01X442850D02*
X439150D01*
G01X436850D02*
Y321540D01*
X433150D01*
Y328460D01*
G01X436850D02*
X433150D01*
G01X465540Y55850D02*
X472460D01*
Y52150D01*
X465540D01*
G01Y55850D02*
Y52150D01*
G01X472460Y56150D02*
X465540D01*
Y59850D01*
X472460D01*
G01X456850Y173980D02*
Y171540D01*
X453150D01*
Y173980D01*
G01X456850Y176020D02*
Y178460D01*
X453150D01*
Y176020D01*
G01X460150Y214020D02*
Y216460D01*
X463850D01*
Y214020D01*
G01X460150Y211980D02*
Y209540D01*
X463850D01*
Y211980D01*
G01X453150Y214020D02*
Y216460D01*
X456850D01*
Y214020D01*
G01X453150Y211980D02*
Y209540D01*
X456850D01*
Y211980D01*
G01X452850Y216460D02*
Y209540D01*
X449150D01*
Y216460D01*
G01X452850D02*
X449150D01*
G01X450150Y265020D02*
Y267460D01*
X453850D01*
Y265020D01*
G01X450150Y262980D02*
Y260540D01*
X453850D01*
Y262980D01*
G01X446150Y265020D02*
Y267460D01*
X449850D01*
Y265020D01*
G01X446150Y262980D02*
Y260540D01*
X449850D01*
Y262980D01*
G01X457850Y267460D02*
Y260540D01*
X454150D01*
Y267460D01*
G01X457850D02*
X454150D01*
G01X465540Y273850D02*
X472460D01*
Y270150D01*
X465540D01*
G01Y273850D02*
Y270150D01*
G01X462850Y267460D02*
Y260540D01*
X459150D01*
Y267460D01*
G01X462850D02*
X459150D01*
G01X467980Y276150D02*
X465540D01*
Y279850D01*
X467980D01*
G01X459000Y291000D02*
G03I-500J0D01*
G01X459710Y289070D02*
X461070D01*
Y287710D01*
G01Y274290D02*
Y272930D01*
X459710D01*
G01X458980Y302150D02*
X456540D01*
Y305850D01*
X458980D01*
G01X461020Y302150D02*
X463460D01*
Y305850D01*
X461020D01*
G01X458980Y298150D02*
X456540D01*
Y301850D01*
X458980D01*
G01X461020Y298150D02*
X463460D01*
Y301850D01*
X461020D01*
G01X449850Y309460D02*
Y302540D01*
X446150D01*
Y309460D01*
G01X449850D02*
X446150D01*
G01X453850D02*
Y302540D01*
X450150D01*
Y309460D01*
G01X453850D02*
X450150D01*
G01X456460Y310240D02*
Y306700D01*
X461540D01*
Y310240D01*
G01X460850Y323980D02*
Y321540D01*
X457150D01*
Y323980D01*
G01X460850Y326020D02*
Y328460D01*
X457150D01*
Y326020D01*
G01X464850Y328460D02*
Y321540D01*
X461150D01*
Y328460D01*
G01X464850D02*
X461150D01*
G01X456460Y313760D02*
Y317300D01*
X461540D01*
Y313760D01*
G01X480150Y57540D02*
Y64460D01*
X483850D01*
Y57540D01*
G01X480150D02*
X483850D01*
G01X472460Y56150D02*
Y59850D01*
G01X484150Y57540D02*
Y64460D01*
X487850D01*
Y57540D01*
G01X484150D02*
X487850D01*
G01X476150D02*
Y64460D01*
X479850D01*
Y57540D01*
G01X476150D02*
X479850D01*
G01X478150Y69540D02*
Y76460D01*
X481850D01*
Y69540D01*
G01X478150D02*
X481850D01*
G01X478150Y77540D02*
Y84460D01*
X481850D01*
Y77540D01*
G01X478150D02*
X481850D01*
G01X476020Y163850D02*
X478460D01*
Y160150D01*
X476020D01*
G01X473980Y163850D02*
X471540D01*
Y160150D01*
X473980D01*
G01X471540Y189850D02*
X478460D01*
Y186150D01*
X471540D01*
G01Y189850D02*
Y186150D01*
G01X470020Y276150D02*
X472460D01*
Y279850D01*
X470020D01*
G01X486540Y329850D02*
X493460D01*
Y326150D01*
X486540D01*
G01Y329850D02*
Y326150D01*
G01X477150Y316540D02*
Y323460D01*
X480850D01*
Y316540D01*
G01X477150D02*
X480850D01*
G01X508850Y59980D02*
Y57540D01*
X505150D01*
Y59980D01*
G01X508850Y62020D02*
Y64460D01*
X505150D01*
Y62020D01*
G01X501150Y57540D02*
Y64460D01*
X504850D01*
Y57540D01*
G01X501150D02*
X504850D01*
G01X488150D02*
Y64460D01*
X491850D01*
Y57540D01*
G01X488150D02*
X491850D01*
G01X492150D02*
Y64460D01*
X495850D01*
Y57540D01*
G01X492150D02*
X495850D01*
G01X497150D02*
Y64460D01*
X500850D01*
Y57540D01*
G01X497150D02*
X500850D01*
G01X499850Y75980D02*
Y73540D01*
X496150D01*
Y75980D01*
G01X499850Y78020D02*
Y80460D01*
X496150D01*
Y78020D01*
G01X498020Y169850D02*
X500460D01*
Y166150D01*
X498020D01*
G01X495980Y169850D02*
X493540D01*
Y166150D01*
X495980D01*
G01X497020Y190850D02*
X499460D01*
Y187150D01*
X497020D01*
G01X494980Y190850D02*
X492540D01*
Y187150D01*
X494980D01*
G01X500930Y186250D02*
X489070D01*
G01D02*
Y179750D01*
G01D02*
X500930D01*
Y186250D01*
G01X493540Y221850D02*
X500460D01*
Y218150D01*
X493540D01*
G01Y221850D02*
Y218150D01*
G01Y225850D02*
X500460D01*
Y222150D01*
X493540D01*
G01Y225850D02*
Y222150D01*
G01Y286850D02*
X500460D01*
Y283150D01*
X493540D01*
G01Y286850D02*
Y283150D01*
G01Y290850D02*
X500460D01*
Y287150D01*
X493540D01*
G01Y290850D02*
Y287150D01*
G01Y351850D02*
X500460D01*
Y348150D01*
X493540D01*
G01Y351850D02*
Y348150D01*
G01Y355850D02*
X500460D01*
Y352150D01*
X493540D01*
G01Y355850D02*
Y352150D01*
G01X508150Y34540D02*
Y41460D01*
X511850D01*
Y34540D01*
G01X508150D02*
X511850D01*
G01X508150Y42540D02*
Y49460D01*
X511850D01*
Y42540D01*
G01X508150D02*
X511850D01*
G01X508150Y50540D02*
Y57460D01*
X511850D01*
Y50540D01*
G01X508150D02*
X511850D01*
G01X514850Y77460D02*
Y70540D01*
X511150D01*
Y77460D01*
G01X514850D02*
X511150D01*
G54D14*
G01X4000Y139870D02*
Y154000D01*
X1550D01*
G01Y139870D02*
X4000D01*
G01X1550Y135130D02*
X20450D01*
G01X1550Y139730D02*
Y135130D01*
G01Y154140D02*
Y158750D01*
X20450D01*
Y154140D01*
G01X1250Y325550D02*
X5860D01*
G01X1250Y344450D02*
Y325550D01*
G01X6000Y344450D02*
Y342000D01*
X28000D01*
Y344450D01*
G01X5860D02*
X1250D01*
G01Y345550D02*
X5860D01*
G01X1250Y364450D02*
Y345550D01*
G01X6000Y364450D02*
Y362000D01*
X28000D01*
Y364450D01*
G01X5860D02*
X1250D01*
G01Y365550D02*
X5860D01*
G01X1250Y384450D02*
Y365550D01*
G01X6000Y384450D02*
Y382000D01*
X28000D01*
Y384450D01*
G01X5860D02*
X1250D01*
G01X28060Y27000D02*
X35940D01*
G01X24000Y139870D02*
Y154000D01*
X21550D01*
G01Y139870D02*
X24000D01*
G01X21550Y135130D02*
X40450D01*
G01X21550Y139730D02*
Y135130D01*
G01X20450D02*
Y139730D01*
G01X21550Y154140D02*
Y158750D01*
X40450D01*
Y154140D01*
G01X28140Y344450D02*
X32750D01*
Y325550D01*
X28140D01*
G01Y364450D02*
X32750D01*
Y345550D01*
X28140D01*
G01Y384450D02*
X32750D01*
Y365550D01*
X28140D01*
G01X31020Y27000D02*
X33970Y29950D01*
Y24050D01*
X31020Y27000D01*
G01X59000Y114550D02*
Y117000D01*
X37000D01*
Y114550D01*
G01X36860D02*
X32250D01*
Y133450D01*
X36860D01*
G01X40450Y135130D02*
Y139730D01*
G01X36000Y173020D02*
X33050Y175970D01*
X38950D01*
X36000Y173020D01*
G01Y170060D02*
Y177940D01*
G01Y202020D02*
X33050Y204970D01*
X38950D01*
X36000Y202020D01*
G01Y199060D02*
Y206940D01*
G01X70450Y4860D02*
Y250D01*
X51550D01*
Y4860D01*
G01X70450Y27000D02*
X68000D01*
Y5000D01*
X70450D01*
G01X51550Y31750D02*
Y27140D01*
G01X70450Y31750D02*
X51550D01*
G01X55000Y47020D02*
X52050Y49970D01*
X57950D01*
X55000Y47020D01*
G01Y44060D02*
Y51940D01*
G01X64950Y47080D02*
Y45110D01*
G01X59050Y46090D02*
Y54950D01*
X60030Y55940D01*
G01X63970Y46090D02*
X65940D01*
G01X63970Y55940D02*
X64950Y54950D01*
Y49050D01*
G01X62000Y52980D02*
X63970Y51020D01*
X60030D01*
X62000Y52980D01*
G01X55000Y72020D02*
X52050Y74970D01*
X57950D01*
X55000Y72020D01*
G01Y69060D02*
Y76940D01*
G01X64950Y71080D02*
Y69110D01*
G01X59050Y70090D02*
Y78950D01*
X60030Y79940D01*
G01X63970Y70090D02*
X65940D01*
G01X63970Y79940D02*
X64950Y78950D01*
Y73050D01*
G01X62000Y76980D02*
X63970Y75020D01*
X60030D01*
X62000Y76980D01*
G01X55000Y101020D02*
X52050Y103970D01*
X57950D01*
X55000Y101020D01*
G01Y98060D02*
Y105940D01*
G01X64950Y100080D02*
Y98110D01*
G01X59050Y99090D02*
Y107950D01*
X60030Y108940D01*
G01X63970Y99090D02*
X65940D01*
G01X63970Y108940D02*
X64950Y107950D01*
Y102050D01*
G01X62000Y105980D02*
X63970Y104020D01*
X60030D01*
X62000Y105980D01*
G01X68000Y125980D02*
X70950Y123030D01*
X65050D01*
X68000Y125980D01*
G01Y128940D02*
Y121060D01*
G01X63750Y114550D02*
Y133450D01*
G01X59140Y114550D02*
X63750D01*
G01Y133450D02*
X59140D01*
G01X71080Y154050D02*
X69110D01*
G01X70080Y188050D02*
X68110D01*
G01X69090Y189030D02*
Y187060D01*
G01Y193950D02*
X77950D01*
X78940Y192970D01*
G01X71920Y384450D02*
X67310D01*
Y365550D01*
X71920D01*
G01X90450Y4860D02*
Y250D01*
X71550D01*
Y4860D01*
G01X90450Y27000D02*
X88000D01*
Y5000D01*
X90450D01*
G01X70450Y27140D02*
Y31750D01*
G01X71550D02*
Y27140D01*
G01X90450Y31750D02*
X71550D01*
G01X90450Y27140D02*
Y31750D01*
G01X90360Y122180D02*
Y122970D01*
X86030D01*
X85240Y122180D01*
G01X90360Y119430D02*
Y119030D01*
X86030D01*
X85240Y119820D01*
G01X83280Y122180D02*
Y119820D01*
G01X82880Y122180D02*
Y119820D01*
G01X70090Y159950D02*
X78950D01*
X79940Y158970D01*
G01X70090Y155030D02*
Y153060D01*
G01X79940Y155030D02*
X78950Y154050D01*
X73050D01*
G01X76980Y157000D02*
X75020Y155030D01*
Y158970D01*
X76980Y157000D01*
G01X78940Y189030D02*
X77950Y188050D01*
X72050D01*
G01X75980Y191000D02*
X74020Y189030D01*
Y192970D01*
X75980Y191000D01*
G01X72000Y384450D02*
Y382000D01*
X102000D01*
Y384450D01*
G01X110450Y4860D02*
Y250D01*
X91550D01*
Y4860D01*
G01X110450Y27000D02*
X108000D01*
Y5000D01*
X110450D01*
G01X91550Y31750D02*
Y27140D01*
G01X110450Y31750D02*
X91550D01*
G01X110450Y27140D02*
Y31750D01*
G01X100470Y114860D02*
Y97140D01*
X91530D01*
G01D02*
Y114860D01*
X100470D01*
G01X110920Y247950D02*
X112890D01*
G01X111910Y242050D02*
X103050D01*
X102060Y243030D01*
G01Y246970D02*
X103050Y247950D01*
X108950D01*
G01X105020Y245000D02*
X106980Y246970D01*
Y243030D01*
X105020Y245000D01*
G01X102080Y365550D02*
X106690D01*
Y384450D01*
X102080D01*
G01X115130Y384280D02*
X107250D01*
Y371680D01*
X138750D01*
Y384280D01*
X130870D01*
G01X131260Y64560D02*
Y59440D01*
G01X116250Y138550D02*
X120860D01*
G01X116250Y157450D02*
Y138550D01*
G01X121000Y157450D02*
Y155000D01*
X143000D01*
Y157450D01*
G01X120860D02*
X116250D01*
G01X122530Y215140D02*
Y232860D01*
X131470D01*
G01D02*
Y215140D01*
X122530D01*
G01X111910Y246970D02*
Y248940D01*
G01X127460Y242470D02*
X122140D01*
G01X127460Y233530D02*
X122140D01*
Y242470D01*
G01X133910Y303050D02*
X125050D01*
X124060Y304030D01*
G01Y307970D02*
X125050Y308950D01*
X130950D01*
G01X127020Y306000D02*
X128980Y307970D01*
Y304030D01*
X127020Y306000D01*
G01X133910Y296050D02*
X125050D01*
X124060Y297030D01*
G01Y300970D02*
X125050Y301950D01*
X130950D01*
G01X127020Y299000D02*
X128980Y300970D01*
Y297030D01*
X127020Y299000D01*
G01X133910Y310050D02*
X125050D01*
X124060Y311030D01*
G01X127020Y313000D02*
X128980Y314970D01*
Y311030D01*
X127020Y313000D01*
G01X124060Y314970D02*
X125050Y315950D01*
X130950D01*
G01X133910Y317050D02*
X125050D01*
X124060Y318030D01*
G01Y321970D02*
X125050Y322950D01*
X130950D01*
G01X127020Y320000D02*
X128980Y321970D01*
Y318030D01*
X127020Y320000D01*
G01X115000Y384280D02*
Y382750D01*
X131000D01*
Y384280D01*
G01X140740Y66060D02*
Y59440D01*
G01X143140Y157450D02*
X147750D01*
Y138550D01*
X143140D01*
G01X152080Y190050D02*
X150110D01*
G01X151090Y195950D02*
X159950D01*
X160940Y194970D01*
G01X151090Y191030D02*
Y189060D01*
G01X134540Y233530D02*
X139860D01*
G01X134540Y242470D02*
X139860D01*
Y233530D01*
G01X132920Y308950D02*
X134890D01*
G01X133910Y307970D02*
Y309940D01*
G01X132920Y301950D02*
X134890D01*
G01X133910Y300970D02*
Y302940D01*
G01X132920Y315950D02*
X134890D01*
G01X133910Y314970D02*
Y316940D01*
G01X132920Y322950D02*
X134890D01*
G01X133910Y321970D02*
Y323940D01*
G01X139250Y365550D02*
X143860D01*
G01X139250Y384450D02*
Y365550D01*
G01X144000Y384450D02*
Y382000D01*
X166000D01*
Y384450D01*
G01X143860D02*
X139250D01*
G01X160940Y191030D02*
X159950Y190050D01*
X154050D01*
G01X157980Y193000D02*
X156020Y191030D01*
Y194970D01*
X157980Y193000D01*
G01X156530Y255460D02*
Y250140D01*
G01X165470Y255460D02*
Y250140D01*
X156530D01*
G01X165470Y262540D02*
Y267860D01*
G01X156530Y262540D02*
Y267860D01*
X165470D01*
G01X166140Y384450D02*
X170750D01*
Y365550D01*
X166140D01*
G01X194260Y64560D02*
Y59440D01*
G01X179250Y138550D02*
X183860D01*
G01X179250Y157450D02*
Y138550D01*
G01X184000Y157450D02*
Y155000D01*
X206000D01*
Y157450D01*
G01X183860D02*
X179250D01*
G01X183300Y189150D02*
G03I-686J0D01*
G01X180530Y214140D02*
Y231860D01*
X189470D01*
G01D02*
Y214140D01*
X180530D01*
G01X185460Y241470D02*
X180140D01*
G01X192540Y232530D02*
X197860D01*
G01X185460D02*
X180140D01*
Y241470D01*
G01X192540D02*
X197860D01*
Y232530D01*
G01X191530Y296460D02*
Y291140D01*
G01X200470Y296460D02*
Y291140D01*
X191530D01*
G01Y303540D02*
Y308860D01*
X200470D01*
G01X193530Y324460D02*
Y319140D01*
G01Y331540D02*
Y336860D01*
X202470D01*
G01Y324460D02*
Y319140D01*
X193530D01*
G01X194140Y347470D02*
X211860D01*
Y338530D01*
G01D02*
X194140D01*
Y347470D01*
G01X203740Y66060D02*
Y59440D01*
G01X206140Y157450D02*
X210750D01*
Y138550D01*
X206140D01*
G01X214530Y254460D02*
Y249140D01*
G01X223470Y254460D02*
Y249140D01*
X214530D01*
G01Y261540D02*
Y266860D01*
X223470D01*
G01X201530Y296460D02*
Y291140D01*
G01X210470Y296460D02*
Y291140D01*
X201530D01*
G01X210470Y303540D02*
Y308860D01*
G01X201530Y303540D02*
Y308860D01*
X210470D01*
G01X200470Y303540D02*
Y308860D01*
G01X202470Y331540D02*
Y336860D01*
G01X212470Y331540D02*
Y336860D01*
G01X203530Y324460D02*
Y319140D01*
G01Y331540D02*
Y336860D01*
X212470D01*
G01Y324460D02*
Y319140D01*
X203530D01*
G01X223470Y261540D02*
Y266860D01*
G01X257260Y64560D02*
Y59440D01*
G01X249300Y189150D02*
G03I-686J0D01*
G01X266740Y66060D02*
Y59440D01*
G01X270280Y185810D02*
G03I-686J-3D01*
G01X314300Y189150D02*
G03I-686J0D01*
G01X320260Y64560D02*
Y59440D01*
G01X329740Y66060D02*
Y59440D01*
G01X322030Y329080D02*
X325970D01*
G01X322030Y338920D02*
X325970D01*
G01X363920Y338450D02*
X359310D01*
Y319550D01*
X363920D01*
G01X394000D02*
Y322000D01*
X364000D01*
Y319550D01*
G01X383260Y64560D02*
Y59440D01*
G01X392740Y66060D02*
Y59440D01*
G01X398070Y263850D02*
G03I-684J0D01*
G01X397030Y302080D02*
X400970D01*
G01X397030Y311920D02*
X400970D01*
G01X394080Y319550D02*
X398690D01*
Y338450D01*
X394080D01*
G01X409050Y306920D02*
Y308890D01*
G01X414950Y307910D02*
Y299050D01*
X413970Y298060D01*
G01X410030Y307910D02*
X408060D01*
G01X410030Y298060D02*
X409050Y299050D01*
Y304950D01*
G01X412000Y301020D02*
X410030Y302980D01*
X413970D01*
X412000Y301020D01*
G01X437970Y304920D02*
X434030D01*
G01X437970Y295080D02*
X434030D01*
G01X434500Y354950D02*
Y352500D01*
X464500D01*
Y354950D01*
G01X434420D02*
X429810D01*
Y336050D01*
X434420D01*
G01X455550Y1380D02*
X474450D01*
G01Y44020D02*
Y48620D01*
X455550D01*
Y44020D01*
X458000Y44000D01*
Y6000D01*
X455550Y5980D01*
Y1380D01*
G01X446080Y310330D02*
Y301670D01*
G01X453920Y310330D02*
Y301670D01*
G01X464580Y336050D02*
X469190D01*
Y354950D01*
X464580D01*
G01X474450Y1380D02*
Y5980D01*
G01X480530Y219460D02*
Y214140D01*
G01X489470Y219460D02*
Y214140D01*
X480530D01*
G01Y226540D02*
Y231860D01*
X489470D01*
G01X480530Y283460D02*
Y278140D01*
G01X489470Y283460D02*
Y278140D01*
X480530D01*
G01Y290540D02*
Y295860D01*
X489470D01*
G01X467530Y316460D02*
Y311140D01*
G01X476470Y316460D02*
Y311140D01*
X467530D01*
G01X476470Y323540D02*
Y328860D01*
G01X467530Y323540D02*
Y328860D01*
X476470D01*
G01X480530Y348460D02*
Y343140D01*
G01X489470Y348460D02*
Y343140D01*
X480530D01*
G01Y355540D02*
Y360860D01*
X489470D01*
G01X491670Y171080D02*
X500330D01*
G01X491670Y178920D02*
X500330D01*
G01X489470Y226540D02*
Y231860D01*
G01X492670Y218080D02*
X501330D01*
G01X492670Y225920D02*
X501330D01*
G01X489470Y290540D02*
Y295860D01*
G01X492670Y283080D02*
X501330D01*
G01X492670Y290920D02*
X501330D01*
G01X492670Y348080D02*
X501330D01*
G01X489470Y355540D02*
Y360860D01*
G01X492670Y355920D02*
X501330D01*
G01X529260Y237000D02*
X526810D01*
Y207000D01*
X529260D01*
G01X510360Y206920D02*
Y202310D01*
X529260D01*
Y206920D01*
G01Y237080D02*
Y241690D01*
X510360D01*
Y237080D01*
G01Y271920D02*
Y267310D01*
X529260D01*
Y271920D01*
G01Y302000D02*
X526810D01*
Y272000D01*
X529260D01*
G01Y302080D02*
Y306690D01*
X510360D01*
Y302080D01*
G01Y336920D02*
Y332310D01*
X529260D01*
Y336920D01*
G01Y367000D02*
X526810D01*
Y337000D01*
X529260D01*
G01Y367080D02*
Y371690D01*
X510360D01*
Y367080D01*
G54D15*
G01X1240Y23410D02*
Y580D01*
G01D02*
X40760D01*
G01X1120Y53990D02*
Y23990D01*
X14300D01*
G01X27540Y23410D02*
X1240D01*
G01X1120Y83990D02*
Y53990D01*
X14300D01*
G01X20880D02*
X1120D01*
G01X20880Y83990D02*
X1120D01*
G01Y113990D02*
Y83990D01*
X14300D01*
G01X1010Y114120D02*
X31010D01*
Y127300D01*
G01X1010Y133880D02*
Y114120D01*
G01X20880Y113990D02*
X1120D01*
G01X24420Y133880D02*
X1010D01*
G01X3220Y164990D02*
Y184670D01*
G01X1650Y164990D02*
Y184670D01*
G01X5190Y164990D02*
X70D01*
Y184670D01*
X5190D01*
G01Y159240D02*
X31570D01*
Y190420D01*
X5190D01*
Y159240D01*
G01X3220Y196410D02*
Y216090D01*
G01X1650Y196410D02*
Y216090D01*
G01X5190Y196410D02*
X70D01*
Y216090D01*
X5190D01*
G01Y190660D02*
X31570D01*
Y221840D01*
X5190D01*
Y190660D01*
G01X8030Y229010D02*
X1130D01*
G01D02*
Y222010D01*
G01D02*
X42470D01*
G01X1130Y235010D02*
X8030D01*
G01X1130D02*
Y242010D01*
G01Y255010D02*
X8030D01*
Y249010D01*
X1130D01*
Y242010D01*
G01X8030Y270010D02*
X1130D01*
G01D02*
Y263010D01*
G01D02*
X42470D01*
G01X1130Y255010D02*
Y262010D01*
X42470D01*
G01X-50Y252010D02*
G03I-390J0D01*
G01X1130Y276010D02*
X8030D01*
G01X1130D02*
Y283010D01*
G01Y296010D02*
X8030D01*
Y290010D01*
X1130D01*
Y283010D01*
G01X-50Y293010D02*
G03I-390J0D01*
G01X1130Y296010D02*
Y303010D01*
X42470D01*
G01X14000Y3830D02*
Y580D01*
G01X28000D02*
Y3830D01*
G01X8000Y580D02*
Y3830D01*
G01D02*
X14000D01*
G01X28000D02*
X34000D01*
G01X28000Y34830D02*
X33000D01*
G01X28000Y31580D02*
Y34830D01*
G01X37540Y54410D02*
X21240D01*
Y31580D01*
X37540D01*
G01X20880Y30580D02*
Y53990D01*
G01X27540Y23410D02*
X40760D01*
Y580D01*
G01X28000Y60580D02*
Y63830D01*
G01X37540Y83410D02*
X21240D01*
Y60580D01*
X37540D01*
G01X20880D02*
Y83990D01*
G01X28000Y63830D02*
X33000D01*
G01X28000Y93830D02*
X33000D01*
G01X28000Y90580D02*
Y93830D01*
G01X37540Y113410D02*
X21240D01*
Y90580D01*
X37540D01*
G01X20880D02*
Y113990D01*
G01X8030Y235010D02*
Y229010D01*
G01Y276010D02*
Y270010D01*
G01X72130Y304550D02*
X14260D01*
G01D02*
Y323450D01*
G01X72130D02*
X14260D01*
G01X34000Y3830D02*
Y580D01*
G01X31020Y24050D02*
Y29950D01*
G01X33000Y34830D02*
Y31580D01*
G01X39000Y34830D02*
X44000D01*
G01D02*
Y31580D01*
G01X39000D02*
Y34830D01*
G01X37540Y54410D02*
X50760D01*
Y31580D01*
X37540D01*
G01X31390Y24990D02*
G03I-390J-3D01*
G01X41390Y55990D02*
G03I-390J-3D01*
G01X33000Y63830D02*
Y60580D01*
G01X44000Y63830D02*
Y60580D01*
G01X39000D02*
Y63830D01*
G01X37540Y83410D02*
X50760D01*
Y60580D01*
X37540D01*
G01X39000Y63830D02*
X44000D01*
G01X41390Y84990D02*
G03I-390J-3D01*
G01X33000Y93830D02*
Y90580D01*
G01X39000Y93830D02*
X44000D01*
G01D02*
Y90580D01*
G01X39000D02*
Y93830D01*
G01X37540Y113410D02*
X50760D01*
Y90580D01*
X37540D01*
G01X41390Y114990D02*
G03I-390J-3D01*
G01X38950Y173020D02*
X33050D01*
G01X38950Y202020D02*
X33050D01*
G01X42470Y237290D02*
Y222010D01*
G01Y262010D02*
Y246730D01*
G01Y278290D02*
Y263010D01*
G01Y303010D02*
Y287730D01*
G01X65990Y384880D02*
X35990D01*
Y371700D01*
G01X42580Y365120D02*
X65990D01*
G01X69370Y36280D02*
X61320D01*
Y38830D01*
G01X57950Y47020D02*
X52050D01*
G01X60430Y57520D02*
X63570D01*
G01X66680Y45720D02*
X61320D01*
Y43170D01*
G01X57950Y72020D02*
X52050D01*
G01X60430Y81520D02*
X63570D01*
G01X57950Y101020D02*
X52050D01*
G01X60430Y110520D02*
X63570D01*
G01X65050Y125980D02*
X70950D01*
G01X76350Y160730D02*
X51870D01*
G01Y187270D02*
X76350D01*
G01Y194730D02*
X51870D01*
G01Y221270D02*
X76350D01*
G01X53720Y264000D02*
X91720D01*
Y222000D01*
X53720D01*
G01X56110Y270220D02*
X51190D01*
Y295810D01*
X55130Y299750D01*
G01X70870D02*
X74810Y295810D01*
Y270220D01*
X69890D01*
G01X53160Y269240D02*
Y265300D01*
G01X51190Y267270D02*
X55130D01*
G01X74620Y288920D02*
X51380D01*
G01X63000D02*
X52170Y278090D01*
X73830D01*
X63000Y288920D01*
G01X58370Y330280D02*
X50320D01*
Y332830D01*
G01X60730Y332440D02*
G03I-387J1D01*
G01X55680Y339720D02*
X50320D01*
Y337170D01*
G01X55680Y350720D02*
X50320D01*
Y348170D01*
G01X58370Y341280D02*
X50320D01*
Y343830D01*
G01X60730Y343440D02*
G03I-387J1D01*
G01X58370Y352280D02*
X50320D01*
Y354830D01*
G01X60730Y354440D02*
G03I-387J1D01*
G01X55680Y361720D02*
X50320D01*
Y359170D01*
G01X65990Y365120D02*
Y384880D01*
G01X71730Y38440D02*
G03I-387J1D01*
G01X88370Y36280D02*
X80320D01*
Y38830D01*
G01X90730Y38440D02*
G03I-387J1D01*
G01X85680Y45720D02*
X80320D01*
Y43170D01*
G01X76900Y77500D02*
X70500D01*
Y80460D01*
G01X80440Y77500D02*
X83500D01*
Y77900D01*
G01X70500Y90100D02*
Y90500D01*
X75520D01*
G01X83500Y90100D02*
Y90500D01*
X78480D01*
G01X76900Y97500D02*
X70500D01*
Y100460D01*
G01X80440Y97500D02*
X83500D01*
Y97900D01*
G01X85370Y124280D02*
X77320D01*
Y126830D01*
G01X70500Y110100D02*
Y110500D01*
X75520D01*
G01X83500Y110100D02*
Y110500D01*
X78480D01*
G01X82680Y133720D02*
X77320D01*
Y131170D01*
G01X87730Y126440D02*
G03I-387J1D01*
G01X81520Y158570D02*
Y155430D01*
G01X92230Y165000D02*
G03I-785J4D01*
G01X89460Y161400D02*
X76350D01*
G01X80520Y192570D02*
Y189430D01*
G01X92230Y199000D02*
G03I-785J4D01*
G01X89460Y195400D02*
X76350D01*
G01X115690Y285000D02*
G03I-19690J0D01*
G01X72130Y304550D02*
Y323450D01*
G01X108370Y36280D02*
X100320D01*
Y38830D01*
G01X110730Y38440D02*
G03I-387J1D01*
G01X105680Y45720D02*
X100320D01*
Y43170D01*
G01X98900Y77500D02*
X92500D01*
Y80460D01*
G01X102440Y77500D02*
X105500D01*
Y77900D01*
G01X101280Y109680D02*
Y104320D01*
X103830D01*
G01X110720Y112370D02*
Y104320D01*
X108170D01*
G01X92500Y90100D02*
Y90500D01*
X97520D01*
G01X105500Y90100D02*
Y90500D01*
X100480D01*
G01X108950Y114340D02*
G03I-391J3D01*
G01X100480Y243430D02*
Y246570D01*
G01X104000Y298000D02*
Y292000D01*
G01X101000Y295000D02*
X107000D01*
G01X111420Y300030D02*
G03I-389J1D01*
G01X125000Y9570D02*
Y990D01*
X115000D01*
Y9570D01*
G01X126970Y5990D02*
G03I-395J0D01*
G01X126240Y24420D02*
Y1590D01*
G01D02*
X162540D01*
G01X124050Y43310D02*
Y32690D01*
G01X135860Y34060D02*
Y32090D01*
X120110D01*
X118140Y34060D01*
G01Y41940D02*
X120110Y43910D01*
X135860D01*
Y41940D01*
G01X124050Y38000D02*
X128970Y33080D01*
Y42920D01*
X124050Y38000D01*
G01X115000Y30990D02*
Y28120D01*
G01X125000Y30990D02*
X115000D01*
G01X125000Y28120D02*
Y30990D01*
G01X162540Y24420D02*
X126240D01*
G01X164690Y87000D02*
G03I-19690J0D01*
G01X132000Y95000D02*
X138000D01*
G01X130360Y102030D02*
G03I-391J1D01*
G01X124890Y117170D02*
Y107170D01*
G01X164890Y117170D02*
X124890D01*
G01X164890Y107170D02*
X124890D01*
G01Y127010D02*
Y117010D01*
G01X164890D02*
X124890D01*
G01X164890Y127010D02*
X124890D01*
G01Y136850D02*
Y126850D01*
G01X164890Y136850D02*
X124890D01*
G01X164890Y126850D02*
X124890D01*
G01X117010Y180000D02*
X119880D01*
G01X117010Y190000D02*
Y180000D01*
G01X119880Y190000D02*
X117010D01*
G01X133560Y289560D02*
G03I-588J-1D01*
G01X122480Y304430D02*
Y307570D01*
G01Y297430D02*
Y300570D01*
G01Y311430D02*
Y314570D01*
G01Y318430D02*
Y321570D01*
G01X133000Y4840D02*
X139000D01*
G01D02*
Y1590D01*
G01X133000D02*
Y4840D01*
G01X139540Y67730D02*
G03I-390J-2D01*
G01X135000Y92000D02*
Y98000D01*
G01X138430Y190000D02*
X147010D01*
Y180000D01*
X138430D01*
G01X142400Y191570D02*
G03I-390J5D01*
G01X146140Y235870D02*
Y220130D01*
G01X137320Y282670D02*
X142680D01*
G01X134630Y291330D02*
X142680D01*
G01X150320Y354280D02*
X155680D01*
Y356830D01*
G01X149680Y348330D02*
X144320D01*
G01X152370Y339670D02*
X144320D01*
G01X154620Y341440D02*
G03I-592J1D01*
G01X147630Y363720D02*
X155680D01*
Y361170D01*
G01X146050Y361560D02*
G03I-393J-1D01*
G01X163000Y4840D02*
X169000D01*
G01D02*
Y1590D01*
G01X163000D02*
Y4840D01*
G01X162540Y24420D02*
X175760D01*
Y1590D01*
X162540D01*
G01X166390Y26000D02*
G03I-390J-3D01*
G01X164890Y117170D02*
Y107170D01*
G01Y127010D02*
Y117010D01*
G01X164370Y142280D02*
X156320D01*
Y144830D01*
G01X166740Y144440D02*
G03I-397J1D01*
G01X164890Y136850D02*
Y126850D01*
G01X161680Y151720D02*
X156320D01*
Y149170D01*
G01X157540Y182860D02*
Y165140D01*
G01X162520Y194570D02*
Y191430D01*
G01X165860Y241230D02*
Y220130D01*
G01X164290Y243200D02*
G03I-790J-3D01*
G01X171060Y320160D02*
G02Y339840I3182J9840D01*
G01X170630Y316610D02*
X161610D01*
Y338030D01*
X166970Y343390D01*
X170630D01*
G01X172040Y350180D02*
Y384820D01*
X401960D01*
Y350180D01*
X172040D01*
G01X188000Y9570D02*
Y990D01*
X178000D01*
Y9570D01*
G01X189970Y5990D02*
G03I-395J0D01*
G01X189240Y24420D02*
Y1590D01*
G01D02*
X225540D01*
G01X187050Y43310D02*
Y32690D01*
G01X198860Y34060D02*
Y32090D01*
X183110D01*
X181140Y34060D01*
G01Y41940D02*
X183110Y43910D01*
X198860D01*
Y41940D01*
G01X187050Y38000D02*
X191970Y33080D01*
Y42920D01*
X187050Y38000D01*
G01X178000Y30990D02*
Y28120D01*
G01X188000Y30990D02*
X178000D01*
G01X188000Y28120D02*
Y30990D01*
G01X225540Y24420D02*
X189240D01*
G01X227690Y87000D02*
G03I-19690J0D01*
G01X195000Y95000D02*
X201000D01*
G01X193360Y102030D02*
G03I-391J1D01*
G01X187890Y117170D02*
Y107170D01*
G01X227890Y117170D02*
X187890D01*
G01X227890Y107170D02*
X187890D01*
G01Y127010D02*
Y117010D01*
G01X227890D02*
X187890D01*
G01X227890Y127010D02*
X187890D01*
G01Y136850D02*
Y126850D01*
G01X227890Y136850D02*
X187890D01*
G01X227890Y126850D02*
X187890D01*
G01X196050Y166100D02*
G03I-790J2D01*
G01X184460Y182860D02*
Y165140D01*
G01X192880Y168070D02*
Y178460D01*
G01X178940Y320160D02*
G03Y339840I-3174J9840D01*
G01X179370Y316610D02*
X188390D01*
Y338030D01*
X183030Y343390D01*
X179370D01*
G01X186810Y341810D02*
Y345750D01*
G01X184840Y343780D02*
X188780D01*
G01X193000Y353500D02*
X192000Y354500D01*
X191000Y353500D01*
G01X189000D02*
X192000Y356500D01*
X195000Y353500D01*
G01X278000D02*
X175000D01*
Y381500D01*
X399000D01*
G01X196000Y4840D02*
X202000D01*
G01D02*
Y1590D01*
G01X196000D02*
Y4840D01*
G01X202540Y67730D02*
G03I-390J-2D01*
G01X198000Y92000D02*
Y98000D01*
G01X205120Y171540D02*
Y178460D01*
G01X204140Y234870D02*
Y219130D01*
G01X212770Y301860D02*
X233870D01*
G01X211600Y299500D02*
G03I-797J0D01*
G01X226000Y4840D02*
X232000D01*
G01D02*
Y1590D01*
G01X226000D02*
Y4840D01*
G01X225540Y24420D02*
X238760D01*
Y1590D01*
X225540D01*
G01X229390Y26000D02*
G03I-390J-3D01*
G01X227890Y117170D02*
Y107170D01*
G01Y127010D02*
Y117010D01*
G01X227370Y146280D02*
X219320D01*
Y148830D01*
G01X227890Y136850D02*
Y126850D01*
G01X224680Y155720D02*
X219320D01*
Y153170D01*
G01X229740Y148440D02*
G03I-397J1D01*
G01X223540Y182860D02*
Y165140D01*
G01X223860Y240230D02*
Y219130D01*
G01X236880Y231070D02*
Y241460D01*
G01X222290Y242200D02*
G03I-790J-3D01*
G01X218130Y282140D02*
X233870D01*
G01X251000Y9570D02*
Y990D01*
X241000D01*
Y9570D01*
G01X252970Y5990D02*
G03I-395J0D01*
G01X252240Y24420D02*
Y1590D01*
G01D02*
X288540D01*
G01X250050Y43310D02*
Y32690D01*
G01X261860Y34060D02*
Y32090D01*
X246110D01*
X244140Y34060D01*
G01Y41940D02*
X246110Y43910D01*
X261860D01*
Y41940D01*
G01X250050Y38000D02*
X254970Y33080D01*
Y42920D01*
X250050Y38000D01*
G01X241000Y30990D02*
Y28120D01*
G01X251000Y30990D02*
X241000D01*
G01X251000Y28120D02*
Y30990D01*
G01X288540Y24420D02*
X252240D01*
G01X290690Y87000D02*
G03I-19690J0D01*
G01X256360Y102030D02*
G03I-391J1D01*
G01X250900Y117170D02*
Y107170D01*
G01X290900Y117170D02*
X250900D01*
G01X290900Y107170D02*
X250900D01*
G01Y127010D02*
Y117010D01*
G01X290900D02*
X250900D01*
G01X290900Y127010D02*
X250900D01*
G01Y136850D02*
Y126850D01*
G01X290900Y136850D02*
X250900D01*
G01X290900Y126850D02*
X250900D01*
G01X250460Y182860D02*
Y165140D01*
G01X240050Y229100D02*
G03I-790J2D01*
G01X249120Y234540D02*
Y241460D01*
G01X259000Y4840D02*
X265000D01*
G01D02*
Y1590D01*
G01X259000D02*
Y4840D01*
G01X265540Y67730D02*
G03I-390J-2D01*
G01X258000Y95000D02*
X264000D01*
G01X261000Y92000D02*
Y98000D01*
G01X273280Y179680D02*
Y174320D01*
X275830D01*
G01X271230Y181760D02*
Y176240D01*
G01X262770D02*
Y181760D01*
G01X268000Y326000D02*
X264000D01*
X268000Y328000D01*
X264000D01*
G01X267000Y322000D02*
G03Y324000I0J1000D01*
G01X265000Y322000D02*
G02Y324000I0J1000D01*
G01D02*
X267000D01*
G01X265000Y322000D02*
X267000D01*
G01X276000Y326000D02*
Y323000D01*
G01Y328000D02*
Y331000D01*
G01X270000D02*
X280000D01*
Y328000D01*
X272000D01*
Y331000D01*
G01X270000Y326000D02*
X280000D01*
Y323000D01*
X272000D01*
Y326000D01*
G01X285020Y331960D02*
Y335540D01*
X262980D01*
Y331960D01*
G01X285020Y322040D02*
Y318460D01*
X262980D01*
Y322040D01*
G01X278000Y350500D02*
Y355500D01*
X296000D01*
Y350500D01*
G01X289000Y4840D02*
X295000D01*
G01D02*
Y1590D01*
G01X289000D02*
Y4840D01*
G01X288540Y24420D02*
X301760D01*
Y1590D01*
X288540D01*
G01X292390Y26000D02*
G03I-390J-3D01*
G01X290900Y117170D02*
Y107170D01*
G01Y127010D02*
Y117010D01*
G01Y136850D02*
Y126850D01*
G01X288540Y182860D02*
Y165140D01*
G01X282720Y182370D02*
Y174320D01*
X280170D01*
G01X280950Y184340D02*
G03I-391J3D01*
G01X297690Y256240D02*
X295240D01*
Y258690D01*
G01X297690Y311760D02*
X295240D01*
Y309310D01*
G01X399000Y381500D02*
Y353500D01*
X296000D01*
G01X314000Y9570D02*
Y990D01*
X304000D01*
Y9570D01*
G01X315970Y5990D02*
G03I-395J0D01*
G01X315240Y24420D02*
Y1590D01*
G01D02*
X351540D01*
G01X313050Y43310D02*
Y32690D01*
G01X324860Y34060D02*
Y32090D01*
X309110D01*
X307140Y34060D01*
G01Y41940D02*
X309110Y43910D01*
X324860D01*
Y41940D01*
G01X313050Y38000D02*
X317970Y33080D01*
Y42920D01*
X313050Y38000D01*
G01X304000Y30990D02*
Y28120D01*
G01X314000Y30990D02*
X304000D01*
G01X314000Y28120D02*
Y30990D01*
G01X351540Y24420D02*
X315240D01*
G01X353690Y87000D02*
G03I-19690J0D01*
G01X319360Y102030D02*
G03I-391J1D01*
G01X314000Y117170D02*
Y107170D01*
G01X354000Y117170D02*
X314000D01*
G01X354000Y107170D02*
X314000D01*
G01Y127010D02*
Y117010D01*
G01X354000D02*
X314000D01*
G01X354000Y127010D02*
X314000D01*
G01Y136850D02*
Y126850D01*
G01X354000Y136850D02*
X314000D01*
G01X354000Y126850D02*
X314000D01*
G01X315460Y182860D02*
Y165140D01*
G01X330300Y334000D02*
X317700D01*
G01X322000Y4840D02*
X328000D01*
G01D02*
Y1590D01*
G01X322000D02*
Y4840D01*
G01X328540Y67730D02*
G03I-390J-2D01*
G01X321000Y95000D02*
X327000D01*
G01X323990Y92000D02*
X324000Y98000D01*
G01X352000Y4840D02*
X358000D01*
G01D02*
Y1590D01*
G01X352000D02*
Y4840D01*
G01X351540Y24420D02*
X364760D01*
Y1590D01*
X351540D01*
G01X355390Y26000D02*
G03I-390J-3D01*
G01X354000Y117170D02*
Y107170D01*
G01Y127010D02*
Y117010D01*
G01Y136850D02*
Y126850D01*
G01X364000Y161570D02*
Y152990D01*
X354000D01*
Y161570D01*
G01Y202990D02*
Y200120D01*
G01X364000Y202990D02*
X354000D01*
G01X348310Y256240D02*
X350760D01*
Y258690D01*
G01X348310Y316340D02*
Y311760D01*
X350760D01*
Y309310D01*
G01X347410Y318700D02*
G03I-788J5D01*
G01X377000Y9570D02*
Y990D01*
X367000D01*
Y9570D01*
G01X378970Y5990D02*
G03I-395J0D01*
G01X378240Y24420D02*
Y1590D01*
G01D02*
X414540D01*
G01X376050Y43310D02*
Y32690D01*
G01X387860Y34060D02*
Y32090D01*
X372110D01*
X370140Y34060D01*
G01Y41940D02*
X372110Y43910D01*
X387860D01*
Y41940D01*
G01X376050Y38000D02*
X380970Y33080D01*
Y42920D01*
X376050Y38000D01*
G01X367000Y30990D02*
Y28120D01*
G01X377000Y30990D02*
X367000D01*
G01X377000Y28120D02*
Y30990D01*
G01X414540Y24420D02*
X378240D01*
G01X416690Y87000D02*
G03I-19690J0D01*
G01X382360Y102030D02*
G03I-391J1D01*
G01X376890Y117170D02*
Y107170D01*
G01X416890Y117170D02*
X376890D01*
G01X416890Y107170D02*
X376890D01*
G01Y127010D02*
Y117010D01*
G01X416890D02*
X376890D01*
G01X416890Y127010D02*
X376890D01*
G01Y136850D02*
Y126850D01*
G01X416890Y136850D02*
X376890D01*
G01X416890Y126850D02*
X376890D01*
G01X365970Y157990D02*
G03I-395J0D01*
G01X364000Y200120D02*
Y202990D01*
G01X385000Y4840D02*
X391000D01*
G01D02*
Y1590D01*
G01X385000D02*
Y4840D01*
G01X391540Y67730D02*
G03I-390J-2D01*
G01X384000Y95000D02*
X390000D01*
G01X387000Y92000D02*
Y98000D01*
G01X388920Y186990D02*
Y171010D01*
G01X395540Y270140D02*
Y287860D01*
G01X405300Y307000D02*
X392700D01*
G01X415000Y4840D02*
X421000D01*
G01D02*
Y1590D01*
G01X415000D02*
Y4840D01*
G01X414540Y24420D02*
X427760D01*
Y1590D01*
X414540D01*
G01X418390Y26000D02*
G03I-390J-3D01*
G01X416890Y117170D02*
Y107170D01*
G01Y127010D02*
Y117010D01*
G01Y136850D02*
Y126850D01*
G01X410030Y220160D02*
Y222130D01*
X413970D01*
Y220160D01*
G01X425230Y220140D02*
X404130D01*
G01X419870Y239860D02*
X404130D01*
G01X422460Y270140D02*
Y287860D01*
G01X413570Y296480D02*
X410430D01*
G01X454420Y13460D02*
Y240D01*
X431590D01*
Y13460D01*
G01Y49760D02*
Y13460D01*
G01X434840Y13000D02*
Y7000D01*
G01D02*
X431590D01*
G01Y13000D02*
X434840D01*
G01Y43000D02*
Y37000D01*
G01D02*
X431590D01*
G01X454420Y49760D02*
X431590D01*
G01Y43000D02*
X434840D01*
G01X429080Y192460D02*
Y171010D01*
G01X427290Y194430D02*
G03I-790J3D01*
G01X427990Y222500D02*
G03I-793J0D01*
G01X429700Y300000D02*
X442300D01*
G01X443960Y328350D02*
Y321650D01*
G01X462390Y388970D02*
X431900D01*
Y365190D01*
G01X436610Y360030D02*
X431900D01*
Y365190D01*
G01X454420Y13460D02*
Y49760D01*
G01X456390Y10000D02*
G03I-393J0D01*
G01X464130Y165140D02*
X479870D01*
G01X458770Y184860D02*
X479870D01*
G01X457590Y182500D02*
G03I-787J0D01*
G01X463000Y230000D02*
X461000D01*
Y232000D01*
X463000D01*
G01X450980Y237100D02*
Y224900D01*
G01X463020Y242080D02*
Y224900D01*
G01X461530Y244050D02*
G03I-593J1D01*
G01X452260Y313520D02*
G03I-390J0D01*
G01X456040Y331750D02*
Y321650D01*
G01X454330Y333720D02*
G03I-590J0D01*
G01X467100Y383810D02*
Y360030D01*
X462390D01*
G01X467100Y383810D02*
Y388970D01*
X462390D01*
G01X483130Y36140D02*
X498870D01*
G01X477770Y55860D02*
X498870D01*
G01X476590Y53500D02*
G03I-787J0D01*
G01X482880Y80460D02*
Y73540D01*
G01X469550Y93870D02*
X488450D01*
G01X469550D02*
Y151740D01*
G01D02*
X488450D01*
G01X473970Y184840D02*
Y182870D01*
X470030D01*
Y184840D01*
G01X496750Y312960D02*
X486650D01*
G01X493350Y325040D02*
X486650D01*
G01X492970Y55840D02*
Y53870D01*
X489030D01*
Y55840D01*
G01X495120Y83930D02*
Y73540D01*
G01X488450Y93870D02*
Y151740D01*
G01X493530Y85900D02*
G03I-790J-2D01*
G01X501530Y108990D02*
Y124270D01*
G01X542870Y115990D02*
Y108990D01*
X501530D01*
G01Y133710D02*
Y148990D01*
G01X542870D02*
X501530D01*
G01X508990Y165000D02*
X506120D01*
G01Y155000D02*
X508990D01*
G01X497570D02*
X488990D01*
Y165000D01*
X497570D01*
G01X488870Y176870D02*
G03I-390J0D01*
G01X489870Y223870D02*
G03I-390J0D01*
G01Y288870D02*
G03I-390J0D01*
G01X499310Y315260D02*
G03I-590J0D01*
G01X489870Y353870D02*
G03I-390J0D01*
G01X519590Y13240D02*
X542420D01*
G01X519590Y39540D02*
Y13240D01*
G01Y39540D02*
Y52760D01*
X542420D01*
G01X527000Y57010D02*
Y59880D01*
G01X517000Y57010D02*
X527000D01*
G01X517000Y59880D02*
Y57010D01*
G01X518400Y43000D02*
G03I-387J0D01*
G01X517000Y68430D02*
Y77010D01*
X527000D01*
Y68430D01*
G01Y86010D02*
Y88880D01*
G01X517000Y86010D02*
X527000D01*
G01X517000Y88880D02*
Y86010D01*
G01Y97430D02*
Y106010D01*
X527000D01*
Y97430D01*
G01X508990Y155000D02*
Y165000D01*
G01X519590Y150240D02*
X542420D01*
G01X519590Y176540D02*
Y150240D01*
G01Y176540D02*
Y189760D01*
X542420D01*
G01X518410Y180000D02*
G03I-397J0D01*
G01X519210Y206050D02*
X518410Y205250D01*
G01X518420Y202060D02*
X519100Y202290D01*
G01X518070D02*
X518190D01*
G01D02*
Y202170D01*
G01D02*
X518300D01*
G01D02*
Y202060D01*
G01D02*
X518410D01*
G01X516930Y202400D02*
X517050D01*
G01D02*
Y202290D01*
G01D02*
X517280D01*
G01D02*
X517390Y202170D01*
G01D02*
X517850D01*
G01D02*
X517960Y202060D01*
G01D02*
X518410D01*
G01X519100Y202290D02*
X519670Y202740D01*
G01D02*
X519780Y203430D01*
G01X517050Y195340D02*
X517500Y195000D01*
G01D02*
X518070Y194770D01*
G01X518980Y198070D02*
X518410Y197960D01*
G01X519210Y206050D02*
X519780D01*
G01X516930Y203430D02*
X518070D01*
G01X516930Y202740D02*
Y202400D01*
G01Y202740D02*
X518070D01*
G01D02*
Y202290D01*
G01Y219040D02*
Y202740D01*
G01X519780Y218470D02*
Y203430D01*
G01X519210Y203660D02*
Y206050D01*
G01Y203660D02*
X518410Y202860D01*
G01X519780Y203660D02*
X519210D01*
G01X518420Y205250D02*
Y202060D01*
G01X518410D02*
Y198750D01*
G01Y198760D02*
Y197960D01*
G01X518070Y197390D02*
Y198760D01*
G01X519210Y197390D02*
X516930D01*
G01X519210Y198070D02*
X518980D01*
G01X516930Y198760D02*
X519210D01*
G01X518410Y197960D02*
X519210D01*
G01Y197730D02*
X571970D01*
G01X516930Y196020D02*
X517050Y195340D01*
G01X516930Y196020D02*
X518070D01*
G01X518410Y196140D02*
Y197390D01*
G01X518070Y196020D02*
Y196140D01*
G01X517620Y197390D02*
Y196140D01*
G01X518070Y194770D02*
Y196020D01*
G01X516930Y247980D02*
Y196020D01*
G01X519210Y196140D02*
Y198750D01*
G01X520690Y196140D02*
X521150Y196020D01*
G01X525590Y194770D02*
X518070D01*
G01X525590Y196020D02*
X518070D01*
G01X523310Y196140D02*
Y196020D01*
G01X525590D02*
Y194770D01*
G01X524340Y196020D02*
Y194770D01*
G01X523430Y196140D02*
Y196020D01*
G01X516930Y196140D02*
X572420D01*
G01X519210Y228040D02*
X519780D01*
G01X518190Y224160D02*
Y224280D01*
G01D02*
X518070Y224390D01*
G01D02*
Y224850D01*
G01X517500Y224160D02*
Y224280D01*
G01D02*
X517280D01*
G01D02*
X517160Y224390D01*
G01D02*
X517050D01*
G01D02*
X516930Y224510D01*
G01D02*
Y224850D01*
G01D02*
X518070D01*
G01X519100Y224280D02*
X519670Y224850D01*
G01D02*
X519780Y225530D01*
G01X517960Y219830D02*
X517850Y219720D01*
G01D02*
X517390D01*
G01D02*
X517280Y219610D01*
G01D02*
X517050D01*
G01D02*
Y219490D01*
G01D02*
X516930D01*
G01D02*
Y219040D01*
G01X518300Y219830D02*
Y219720D01*
G01D02*
X518190D01*
G01D02*
Y219610D01*
G01D02*
X518070D01*
G01D02*
Y219040D01*
G01X519100Y219610D02*
X518410Y219830D01*
G01X519670Y219150D02*
X519100Y219610D01*
G01X519210Y210380D02*
X519780D01*
G01X518410Y232820D02*
Y228840D01*
G01X516930Y225530D02*
X518070D01*
G01X519210Y233620D02*
Y228040D01*
G01X519780Y225530D02*
Y240460D01*
G01X518410Y228840D02*
X519210Y228040D01*
G01X518410Y224160D02*
X517500D01*
G01X518410D02*
X518190D01*
G01X518070Y241140D02*
Y224850D01*
G01X518410Y224160D02*
X519100Y224280D01*
G01X518410Y219830D02*
X518300D01*
G01X518410D02*
X517960D01*
G01X516930Y218470D02*
X518070D01*
G01X516930Y219040D02*
X518070D01*
G01X518410Y224160D02*
Y219830D01*
G01X519780Y218470D02*
X519670Y219150D01*
G01X519210Y215850D02*
X519780D01*
G01X518410Y215050D02*
X519210Y215850D01*
G01X518410Y211180D02*
Y215050D01*
G01X519210Y210380D02*
Y215850D01*
G01X518410Y211180D02*
X519210Y210380D01*
G01X517500Y249010D02*
X517050Y248550D01*
G01D02*
X516930Y247980D01*
G01X518980Y245930D02*
X518410Y246040D01*
G01X516930Y241480D02*
X517160Y241710D01*
G01D02*
X517500D01*
G01D02*
Y241830D01*
G01D02*
X518410D01*
G01X518070Y241600D02*
X518190Y241710D01*
G01D02*
Y241830D01*
G01D02*
X518410D01*
G01X519670Y241140D02*
X519100Y241710D01*
G01D02*
X518410Y241830D01*
G01X519210Y240350D02*
X518410Y241030D01*
G01Y238750D02*
Y241830D01*
G01X518070Y249120D02*
X517500Y249010D01*
G01X516930Y247980D02*
X518070D01*
G01X518410Y246610D02*
Y247750D01*
G01X518070Y247980D02*
Y247750D01*
G01X517620D02*
Y246610D01*
G01X518070Y249120D02*
Y247980D01*
G01X518410Y246040D02*
X519210D01*
G01Y245810D02*
X518980Y245930D01*
G01X516930Y246610D02*
X519210D01*
G01X520690Y247750D02*
X521150Y247980D01*
G01X525590D02*
X518070D01*
G01X525590Y249120D02*
X518070D01*
G01X523310Y247750D02*
Y247980D01*
G01X525590D02*
Y249120D01*
G01X524340Y247980D02*
Y249120D01*
G01X523430Y247750D02*
Y247980D01*
G01X519210Y246160D02*
X571970D01*
G01X572420Y247750D02*
X516930D01*
G01X518410Y245240D02*
Y246040D01*
G01X518070Y246610D02*
Y245250D01*
G01X518410Y245240D02*
Y241830D01*
G01X516930Y245240D02*
X519210D01*
G01Y247750D02*
Y245250D01*
G01X516930Y240460D02*
X518070D01*
G01Y241140D02*
X516930D01*
G01X518070D02*
Y241600D01*
G01X516930Y241140D02*
Y241480D01*
G01X519780Y240350D02*
X519210D01*
G01X519780Y240460D02*
X519670Y241140D01*
G01X519210Y237950D02*
X519780D01*
G01X519210D02*
X518410Y238750D01*
G01X519210Y240350D02*
Y237950D01*
G01Y233620D02*
X519780D01*
G01X518410Y232830D02*
X519210Y233620D01*
G01Y271050D02*
X518410Y270250D01*
G01X518420Y267060D02*
X519100Y267290D01*
G01X518070D02*
X518190D01*
G01D02*
Y267170D01*
G01D02*
X518300D01*
G01D02*
Y267060D01*
G01D02*
X518410D01*
G01X516930Y267400D02*
X517050D01*
G01D02*
Y267290D01*
G01D02*
X517280D01*
G01D02*
X517390Y267170D01*
G01D02*
X517850D01*
G01D02*
X517960Y267060D01*
G01D02*
X518410D01*
G01X519100Y267290D02*
X519670Y267740D01*
G01D02*
X519780Y268430D01*
G01X517050Y260340D02*
X517500Y260000D01*
G01D02*
X518070Y259770D01*
G01X518980Y263070D02*
X518410Y262960D01*
G01X519210Y271050D02*
X519780D01*
G01X516930Y268430D02*
X518070D01*
G01X516930Y267740D02*
Y267400D01*
G01Y267740D02*
X518070D01*
G01D02*
Y267290D01*
G01Y284040D02*
Y267740D01*
G01X519780Y283470D02*
Y268430D01*
G01X519210Y268660D02*
Y271050D01*
G01Y268660D02*
X518410Y267860D01*
G01X519780Y268660D02*
X519210D01*
G01X518420Y270250D02*
Y267060D01*
G01X518410D02*
Y263750D01*
G01Y263760D02*
Y262960D01*
G01X518070Y262390D02*
Y263760D01*
G01X519210Y262390D02*
X516930D01*
G01X519210Y263070D02*
X518980D01*
G01X516930Y263760D02*
X519210D01*
G01X518410Y262960D02*
X519210D01*
G01Y262730D02*
X571970D01*
G01X516930Y261020D02*
X517050Y260340D01*
G01X516930Y261020D02*
X518070D01*
G01X518410Y261140D02*
Y262390D01*
G01X518070Y261020D02*
Y261140D01*
G01X517620Y262390D02*
Y261140D01*
G01X518070Y259770D02*
Y261020D01*
G01X516930Y312980D02*
Y261020D01*
G01X519210Y261140D02*
Y263750D01*
G01X520690Y261140D02*
X521150Y261020D01*
G01X525590Y259770D02*
X518070D01*
G01X525590Y261020D02*
X518070D01*
G01X523310Y261140D02*
Y261020D01*
G01X525590D02*
Y259770D01*
G01X524340Y261020D02*
Y259770D01*
G01X523430Y261140D02*
Y261020D01*
G01X516930Y261140D02*
X572420D01*
G01X518190Y289160D02*
Y289280D01*
G01D02*
X518070Y289390D01*
G01D02*
Y289850D01*
G01X517500Y289160D02*
Y289280D01*
G01D02*
X517280D01*
G01D02*
X517160Y289390D01*
G01D02*
X517050D01*
G01D02*
X516930Y289510D01*
G01D02*
Y289850D01*
G01D02*
X518070D01*
G01X519100Y289280D02*
X519670Y289850D01*
G01D02*
X519780Y290530D01*
G01X517960Y284830D02*
X517850Y284720D01*
G01D02*
X517390D01*
G01D02*
X517280Y284610D01*
G01D02*
X517050D01*
G01D02*
Y284490D01*
G01D02*
X516930D01*
G01D02*
Y284040D01*
G01X518300Y284830D02*
Y284720D01*
G01D02*
X518190D01*
G01D02*
Y284610D01*
G01D02*
X518070D01*
G01D02*
Y284040D01*
G01X519100Y284610D02*
X518410Y284830D01*
G01X519670Y284150D02*
X519100Y284610D01*
G01X519210Y275380D02*
X519780D01*
G01X516930Y290530D02*
X518070D01*
G01X519780D02*
Y305460D01*
G01X518410Y289160D02*
X517500D01*
G01X518410D02*
X518190D01*
G01X518070Y306140D02*
Y289850D01*
G01X518410Y289160D02*
X519100Y289280D01*
G01X518410Y284830D02*
X518300D01*
G01X518410D02*
X517960D01*
G01X516930Y283470D02*
X518070D01*
G01X516930Y284040D02*
X518070D01*
G01X518410Y289160D02*
Y284830D01*
G01X519780Y283470D02*
X519670Y284150D01*
G01X519210Y280850D02*
X519780D01*
G01X518410Y280050D02*
X519210Y280850D01*
G01X518410Y276180D02*
Y280050D01*
G01X519210Y275380D02*
Y280850D01*
G01X518410Y276180D02*
X519210Y275380D01*
G01X517500Y314010D02*
X517050Y313550D01*
G01D02*
X516930Y312980D01*
G01X518980Y310930D02*
X518410Y311040D01*
G01X516930Y306480D02*
X517160Y306710D01*
G01D02*
X517500D01*
G01D02*
Y306830D01*
G01D02*
X518410D01*
G01X518070Y306600D02*
X518190Y306710D01*
G01D02*
Y306830D01*
G01D02*
X518410D01*
G01X519670Y306140D02*
X519100Y306710D01*
G01D02*
X518410Y306830D01*
G01X519210Y305350D02*
X518410Y306030D01*
G01Y303750D02*
Y306830D01*
G01X519210Y293040D02*
X519780D01*
G01X516930Y312980D02*
X518070D01*
G01X518410Y311610D02*
Y312750D01*
G01X518070Y312980D02*
Y312750D01*
G01X517620D02*
Y311610D01*
G01X518070Y314120D02*
Y312980D01*
G01X518410Y311040D02*
X519210D01*
G01Y310810D02*
X518980Y310930D01*
G01X516930Y311610D02*
X519210D01*
G01X520690Y312750D02*
X521150Y312980D01*
G01X525590D02*
X518070D01*
G01X523310Y312750D02*
Y312980D01*
G01X525590D02*
Y314120D01*
G01X524340Y312980D02*
Y314120D01*
G01X523430Y312750D02*
Y312980D01*
G01X519210Y311160D02*
X571970D01*
G01X572420Y312750D02*
X516930D01*
G01X518410Y310240D02*
Y311040D01*
G01X518070Y311610D02*
Y310250D01*
G01X518410Y310240D02*
Y306830D01*
G01X516930Y310240D02*
X519210D01*
G01Y312750D02*
Y310250D01*
G01X516930Y305460D02*
X518070D01*
G01Y306140D02*
X516930D01*
G01X518070D02*
Y306600D01*
G01X516930Y306140D02*
Y306480D01*
G01X519780Y305350D02*
X519210D01*
G01X519780Y305460D02*
X519670Y306140D01*
G01X519210Y302950D02*
X519780D01*
G01X519210D02*
X518410Y303750D01*
G01X519210Y305350D02*
Y302950D01*
G01Y298620D02*
X519780D01*
G01X518410Y297830D02*
X519210Y298620D01*
G01X518410Y297820D02*
Y293840D01*
G01X519210Y298620D02*
Y293040D01*
G01X518410Y293840D02*
X519210Y293040D01*
G01X518420Y332060D02*
X519100Y332290D01*
G01X518070D02*
X518190D01*
G01D02*
Y332170D01*
G01D02*
X518300D01*
G01D02*
Y332060D01*
G01D02*
X518410D01*
G01X516930Y332400D02*
X517050D01*
G01D02*
Y332290D01*
G01D02*
X517280D01*
G01D02*
X517390Y332170D01*
G01D02*
X517850D01*
G01D02*
X517960Y332060D01*
G01D02*
X518410D01*
G01X519100Y332290D02*
X519670Y332740D01*
G01D02*
X519780Y333430D01*
G01X517050Y325340D02*
X517500Y325000D01*
G01D02*
X518070Y324770D01*
G01X518980Y328070D02*
X518410Y327960D01*
G01X516930Y333430D02*
X518070D01*
G01X516930Y332740D02*
Y332400D01*
G01Y332740D02*
X518070D01*
G01D02*
Y332290D01*
G01Y349040D02*
Y332740D01*
G01X519780Y348470D02*
Y333430D01*
G01X519210Y333660D02*
Y336050D01*
G01Y333660D02*
X518410Y332860D01*
G01X519780Y333660D02*
X519210D01*
G01X518420Y335250D02*
Y332060D01*
G01X518410D02*
Y328750D01*
G01Y328760D02*
Y327960D01*
G01X518070Y327390D02*
Y328760D01*
G01X519210Y327390D02*
X516930D01*
G01X519210Y328070D02*
X518980D01*
G01X516930Y328760D02*
X519210D01*
G01X518410Y327960D02*
X519210D01*
G01Y327730D02*
X571970D01*
G01X516930Y326020D02*
X517050Y325340D01*
G01X516930Y326020D02*
X518070D01*
G01X518410Y326140D02*
Y327390D01*
G01X518070Y326020D02*
Y326140D01*
G01X517620Y327390D02*
Y326140D01*
G01X518070Y324770D02*
Y326020D01*
G01X516930Y377980D02*
Y326020D01*
G01X519210Y326140D02*
Y328750D01*
G01X520690Y326140D02*
X521150Y326020D01*
G01X525590Y324770D02*
X518070D01*
G01X525590Y326020D02*
X518070D01*
G01X523310Y326140D02*
Y326020D01*
G01X525590D02*
Y324770D01*
G01X524340Y326020D02*
Y324770D01*
G01X523430Y326140D02*
Y326020D01*
G01X516930Y326140D02*
X572420D01*
G01X518070Y314120D02*
X517500Y314010D01*
G01X525590Y314120D02*
X518070D01*
G01X518190Y354160D02*
Y354280D01*
G01D02*
X518070Y354390D01*
G01D02*
Y354850D01*
G01X517500Y354160D02*
Y354280D01*
G01D02*
X517280D01*
G01D02*
X517160Y354390D01*
G01D02*
X517050D01*
G01D02*
X516930Y354510D01*
G01D02*
Y354850D01*
G01D02*
X518070D01*
G01X519100Y354280D02*
X519670Y354850D01*
G01D02*
X519780Y355530D01*
G01X517960Y349830D02*
X517850Y349720D01*
G01D02*
X517390D01*
G01D02*
X517280Y349610D01*
G01D02*
X517050D01*
G01D02*
Y349490D01*
G01D02*
X516930D01*
G01D02*
Y349040D01*
G01X518300Y349830D02*
Y349720D01*
G01D02*
X518190D01*
G01D02*
Y349610D01*
G01D02*
X518070D01*
G01D02*
Y349040D01*
G01X519100Y349610D02*
X518410Y349830D01*
G01X519670Y349150D02*
X519100Y349610D01*
G01X519210Y340380D02*
X519780D01*
G01X519210Y336050D02*
X518410Y335250D01*
G01Y354160D02*
X517500D01*
G01X518410D02*
X518190D01*
G01X518070Y371140D02*
Y354850D01*
G01X518410Y354160D02*
X519100Y354280D01*
G01X518410Y349830D02*
X518300D01*
G01X518410D02*
X517960D01*
G01X516930Y348470D02*
X518070D01*
G01X516930Y349040D02*
X518070D01*
G01X518410Y354160D02*
Y349830D01*
G01X519780Y348470D02*
X519670Y349150D01*
G01X519210Y345850D02*
X519780D01*
G01X518410Y345050D02*
X519210Y345850D01*
G01X518410Y341180D02*
Y345050D01*
G01X519210Y340380D02*
Y345850D01*
G01X518410Y341180D02*
X519210Y340380D01*
G01Y336050D02*
X519780D01*
G01X518980Y375930D02*
X518410Y376040D01*
G01X516930Y371480D02*
X517160Y371710D01*
G01D02*
X517500D01*
G01D02*
Y371830D01*
G01D02*
X518410D01*
G01X518070Y371600D02*
X518190Y371710D01*
G01D02*
Y371830D01*
G01D02*
X518410D01*
G01X519670Y371140D02*
X519100Y371710D01*
G01D02*
X518410Y371830D01*
G01X519210Y370350D02*
X518410Y371030D01*
G01Y368750D02*
Y371830D01*
G01X519210Y358040D02*
X519780D01*
G01X518410Y376040D02*
X519210D01*
G01Y375810D02*
X518980Y375930D01*
G01X518410Y375240D02*
Y376040D01*
G01X518070Y376610D02*
Y375250D01*
G01X518410Y375240D02*
Y371830D01*
G01X516930Y375240D02*
X519210D01*
G01Y377750D02*
Y375250D01*
G01X516930Y370460D02*
X518070D01*
G01Y371140D02*
X516930D01*
G01X518070D02*
Y371600D01*
G01X516930Y371140D02*
Y371480D01*
G01X519780Y370350D02*
X519210D01*
G01X519780Y370460D02*
X519670Y371140D01*
G01X519210Y367950D02*
X519780D01*
G01X519210D02*
X518410Y368750D01*
G01X519210Y370350D02*
Y367950D01*
G01Y363620D02*
X519780D01*
G01X518410Y362830D02*
X519210Y363620D01*
G01X518410Y362820D02*
Y358840D01*
G01X516930Y355530D02*
X518070D01*
G01X519210Y363620D02*
Y358040D01*
G01X519780Y355530D02*
Y370460D01*
G01X518410Y358840D02*
X519210Y358040D01*
G01X517500Y379010D02*
X517050Y378550D01*
G01D02*
X516930Y377980D01*
G01X518070Y379120D02*
X517500Y379010D01*
G01X516930Y377980D02*
X518070D01*
G01X518410Y376610D02*
Y377750D01*
G01X518070Y377980D02*
Y377750D01*
G01X517620D02*
Y376610D01*
G01X518070Y379120D02*
Y377980D01*
G01X516930Y376610D02*
X519210D01*
G01X520690Y377750D02*
X521150Y377980D01*
G01X525590D02*
X518070D01*
G01X525590Y379120D02*
X518070D01*
G01X523310Y377750D02*
Y377980D01*
G01X525590D02*
Y379120D01*
G01X524340Y377980D02*
Y379120D01*
G01X523430Y377750D02*
Y377980D01*
G01X519210Y376160D02*
X571970D01*
G01X572420Y377750D02*
X516930D01*
G01X542420Y13240D02*
Y52760D01*
G01X539170Y20000D02*
Y26000D01*
G01X542420Y20000D02*
X539170D01*
G01Y26000D02*
X542420D01*
G01X539170Y40000D02*
Y46000D01*
G01X542420Y40000D02*
X539170D01*
G01Y46000D02*
X542420D01*
G01X531690Y75860D02*
Y58140D01*
X541920D01*
Y75860D01*
X531690D01*
G01X541920Y69560D02*
X546650D01*
Y64050D01*
X541920D01*
G01Y97560D02*
X546650D01*
Y92050D01*
X541920D01*
G01X531690Y103860D02*
Y86140D01*
X541920D01*
Y103860D01*
X531690D01*
G01X542870Y115990D02*
X535970D01*
Y121990D01*
X542870D01*
Y128990D01*
G01X544830Y118990D02*
G03I-390J0D01*
G01X535970Y141990D02*
X542870D01*
G01D02*
Y148990D01*
G01X535970Y135990D02*
Y141990D01*
G01X542870Y135990D02*
X535970D01*
G01X542870D02*
Y128990D01*
G01X542420Y150240D02*
Y189760D01*
G01X539170Y157000D02*
Y163000D01*
G01D02*
X542420D01*
G01Y157000D02*
X539170D01*
G01Y177000D02*
Y183000D01*
G01D02*
X542420D01*
G01Y177000D02*
X539170D01*
G01X548840Y206500D02*
X548610Y205930D01*
G01D02*
X548840Y205480D01*
G01D02*
X549410Y205250D01*
G01X529580Y196140D02*
X529470D01*
G01X529920Y192030D02*
Y192490D01*
G01D02*
X529810Y192600D01*
G01X536190D02*
Y192260D01*
G01D02*
X536080Y192150D01*
G01D02*
Y191920D01*
G01D02*
X535960D01*
G01X549290Y206730D02*
X548840Y206500D01*
G01X549410Y213570D02*
Y206730D01*
G01X560460Y207070D02*
X549290Y206730D01*
G01X568210Y205930D02*
X549410Y205250D01*
G01X529580Y196020D02*
Y196140D01*
G01Y196020D02*
X529810Y192600D01*
G01X536530Y196140D02*
Y196020D01*
G01X529810Y192600D02*
X536190D01*
G01X529580Y196020D02*
X536530D01*
G01X530040Y191920D02*
X529920Y192030D01*
G01X536530Y196020D02*
X536190Y192600D01*
G01X535960Y191920D02*
X530040D01*
G01X548840Y230090D02*
X548610Y229630D01*
G01D02*
X548840Y229060D01*
G01D02*
X549410Y228950D01*
G01X548840Y214820D02*
X548610Y214370D01*
G01D02*
X548840Y213800D01*
G01D02*
X549290Y213570D01*
G01Y230320D02*
X548840Y230090D01*
G01X549410Y228950D02*
X568210Y229520D01*
G01X549410Y215050D02*
X548840Y214820D01*
G01X560460Y213230D02*
X549290Y213570D01*
G01X549410Y215050D02*
X568210Y214370D01*
G01X529580Y247870D02*
X529470D01*
G01D02*
Y247750D01*
G01X536530Y247980D02*
X536190Y251280D01*
G01X548840Y238520D02*
X548610Y237950D01*
G01D02*
X548840Y237500D01*
G01D02*
X549290Y237270D01*
G01X529580Y247980D02*
X529810Y251280D01*
G01X529580Y247980D02*
Y247870D01*
G01X536530Y247750D02*
Y247980D01*
G01X529580D02*
X536530D01*
G01X549410Y238640D02*
X548840Y238520D01*
G01X568210Y238070D02*
X549410Y238640D01*
G01X549290Y237270D02*
X560460Y236810D01*
G01X549410Y230320D02*
Y237270D01*
G01X560460Y230660D02*
X549290Y230320D01*
G01X530040Y251970D02*
X529920D01*
G01X536080Y251850D02*
Y251970D01*
G01D02*
X535960Y252080D01*
G01X529920Y251970D02*
Y251400D01*
G01D02*
X529810Y251280D01*
G01X536190Y251740D02*
X536080Y251850D01*
G01X530040Y252080D02*
Y251970D01*
G01X536190Y251280D02*
Y251740D01*
G01X529810Y251280D02*
X536190D01*
G01X535970Y252080D02*
X530040D01*
G01X548840Y271500D02*
X548610Y270930D01*
G01D02*
X548840Y270480D01*
G01D02*
X549410Y270250D01*
G01X529580Y261140D02*
X529470D01*
G01X529920Y257030D02*
Y257490D01*
G01D02*
X529810Y257600D01*
G01X536190D02*
Y257260D01*
G01D02*
X536080Y257150D01*
G01D02*
Y256920D01*
G01D02*
X535960D01*
G01X549290Y271730D02*
X548840Y271500D01*
G01X549410Y278570D02*
Y271730D01*
G01X560460Y272070D02*
X549290Y271730D01*
G01X568210Y270930D02*
X549410Y270250D01*
G01X529580Y261020D02*
Y261140D01*
G01Y261020D02*
X529810Y257600D01*
G01X536530Y261140D02*
Y261020D01*
G01X529810Y257600D02*
X536190D01*
G01X529580Y261020D02*
X536530D01*
G01X530040Y256920D02*
X529920Y257030D01*
G01X536530Y261020D02*
X536190Y257600D01*
G01X535960Y256920D02*
X530040D01*
G01X548840Y279820D02*
X548610Y279370D01*
G01D02*
X548840Y278800D01*
G01D02*
X549290Y278570D01*
G01X549410Y280050D02*
X548840Y279820D01*
G01X560460Y278230D02*
X549290Y278570D01*
G01X549410Y280050D02*
X568210Y279370D01*
G01X529580Y312870D02*
X529470D01*
G01D02*
Y312750D01*
G01X536530Y312980D02*
X536190Y316280D01*
G01X548840Y303520D02*
X548610Y302950D01*
G01D02*
X548840Y302500D01*
G01D02*
X549290Y302270D01*
G01X548840Y295090D02*
X548610Y294630D01*
G01D02*
X548840Y294060D01*
G01D02*
X549410Y293950D01*
G01X529580Y312980D02*
X529810Y316280D01*
G01X529580Y312980D02*
Y312870D01*
G01X536530Y312750D02*
Y312980D01*
G01X529580D02*
X536530D01*
G01X549410Y303640D02*
X548840Y303520D01*
G01X568210Y303070D02*
X549410Y303640D01*
G01X549290Y302270D02*
X560460Y301810D01*
G01X549410Y295320D02*
Y302270D01*
G01X560460Y295660D02*
X549290Y295320D01*
G01D02*
X548840Y295090D01*
G01X549410Y293950D02*
X568210Y294520D01*
G01X529580Y326140D02*
X529470D01*
G01X529920Y322030D02*
Y322490D01*
G01D02*
X529810Y322600D01*
G01X536190D02*
Y322260D01*
G01D02*
X536080Y322150D01*
G01D02*
Y321920D01*
G01D02*
X535960D01*
G01X529580Y326020D02*
Y326140D01*
G01Y326020D02*
X529810Y322600D01*
G01X536530Y326140D02*
Y326020D01*
G01X529810Y322600D02*
X536190D01*
G01X529580Y326020D02*
X536530D01*
G01X530040Y321920D02*
X529920Y322030D01*
G01X536530Y326020D02*
X536190Y322600D01*
G01X535960Y321920D02*
X530040D01*
G01Y316970D02*
X529920D01*
G01X536080Y316850D02*
Y316970D01*
G01D02*
X535960Y317080D01*
G01X529920Y316970D02*
Y316400D01*
G01D02*
X529810Y316280D01*
G01X536190Y316740D02*
X536080Y316850D01*
G01X530040Y317080D02*
Y316970D01*
G01X536190Y316280D02*
Y316740D01*
G01X529810Y316280D02*
X536190D01*
G01X535970Y317080D02*
X530040D01*
G01X548840Y344820D02*
X548610Y344370D01*
G01D02*
X548840Y343800D01*
G01D02*
X549290Y343570D01*
G01X548840Y336500D02*
X548610Y335930D01*
G01D02*
X548840Y335480D01*
G01D02*
X549410Y335250D01*
G01Y345050D02*
X548840Y344820D01*
G01X560460Y343230D02*
X549290Y343570D01*
G01X549410Y345050D02*
X568210Y344370D01*
G01X549290Y336730D02*
X548840Y336500D01*
G01X549410Y343570D02*
Y336730D01*
G01X560460Y337070D02*
X549290Y336730D01*
G01X568210Y335930D02*
X549410Y335250D01*
G01X548840Y368520D02*
X548610Y367950D01*
G01D02*
X548840Y367500D01*
G01D02*
X549290Y367270D01*
G01X548840Y360090D02*
X548610Y359630D01*
G01D02*
X548840Y359060D01*
G01D02*
X549410Y358950D01*
G01Y368640D02*
X548840Y368520D01*
G01X568210Y368070D02*
X549410Y368640D01*
G01X549290Y367270D02*
X560460Y366810D01*
G01X549410Y360320D02*
Y367270D01*
G01X560460Y360660D02*
X549290Y360320D01*
G01D02*
X548840Y360090D01*
G01X549410Y358950D02*
X568210Y359520D01*
G01X530040Y381970D02*
X529920D01*
G01X536080Y381850D02*
Y381970D01*
G01D02*
X535960Y382080D01*
G01X529580Y377870D02*
X529470D01*
G01D02*
Y377750D01*
G01X529920Y381970D02*
Y381400D01*
G01D02*
X529810Y381280D01*
G01X536530Y377980D02*
X536190Y381280D01*
G01Y381740D02*
X536080Y381850D01*
G01X530040Y382080D02*
Y381970D01*
G01X536190Y381280D02*
Y381740D01*
G01X529810Y381280D02*
X536190D01*
G01X535970Y382080D02*
X530040D01*
G01X529580Y377980D02*
X529810Y381280D01*
G01X529580Y377980D02*
Y377870D01*
G01X536530Y377750D02*
Y377980D01*
G01X529580D02*
X536530D01*
G01X567870Y207410D02*
X567750Y207300D01*
G01D02*
X567530D01*
G01X568550Y208100D02*
X568440Y207990D01*
G01D02*
Y207870D01*
G01D02*
X568210Y207640D01*
G01D02*
Y207530D01*
G01D02*
X568090D01*
G01D02*
X567980Y207410D01*
G01D02*
X567870D01*
G01X569920Y208440D02*
X569690Y208560D01*
G01X569010Y206160D02*
X569690Y206620D01*
G01D02*
X570030Y207420D01*
G01D02*
Y208210D01*
G01X558870Y213340D02*
Y207070D01*
G01X558070Y213340D02*
Y206960D01*
G01X559780Y213230D02*
Y207070D01*
G01X567640Y207300D02*
Y205930D01*
G01X561490Y207070D02*
X567530Y207300D01*
G01X569240Y211750D02*
Y208560D01*
G01X568550Y211860D02*
Y208440D01*
G01X570030Y208210D02*
X569920Y208440D01*
G01X568210Y205930D02*
X569010Y206160D01*
G01X568550Y208440D02*
Y208100D01*
G01X569240Y208560D02*
X569690D01*
G01X569010Y229750D02*
X569690Y230320D01*
G01X567870Y213000D02*
Y212880D01*
G01D02*
X567980D01*
G01D02*
X568100Y212770D01*
G01D02*
X568210D01*
G01D02*
Y212660D01*
G01D02*
X568320D01*
G01D02*
Y212540D01*
G01D02*
X568440Y212430D01*
G01D02*
Y212320D01*
G01D02*
X568550Y212200D01*
G01D02*
Y211860D01*
G01X570030Y212880D02*
X569690Y213680D01*
G01D02*
X569010Y214140D01*
G01D02*
X568210Y214370D01*
G01X569690Y211750D02*
X569920Y211860D01*
G01D02*
X570030Y212090D01*
G01X567640Y231000D02*
Y229520D01*
G01X568210D02*
X569010Y229750D01*
G01X561490Y213230D02*
X567530Y213000D01*
G01X567640Y214370D02*
Y213000D01*
G01X569240Y211750D02*
X569690D01*
G01X570030Y212090D02*
Y212880D01*
G01X567530Y213000D02*
X567870D01*
G01X567410Y236590D02*
X567530Y236470D01*
G01D02*
X567640D01*
G01D02*
Y236360D01*
G01D02*
X567750D01*
G01D02*
Y236240D01*
G01D02*
X567870Y236130D01*
G01D02*
Y236020D01*
G01D02*
X567980D01*
G01D02*
Y235790D01*
G01X567870Y236580D02*
X567530D01*
G01X567980Y235790D02*
X568100Y235670D01*
G01D02*
Y235450D01*
G01X568550Y235900D02*
X568320Y236130D01*
G01D02*
Y236240D01*
G01D02*
X568090Y236470D01*
G01D02*
X567980D01*
G01D02*
X567870Y236580D01*
G01X569920Y235440D02*
X570030Y235670D01*
G01Y236590D02*
X569690Y237270D01*
G01D02*
X569010Y237840D01*
G01D02*
X568210Y238070D01*
G01X567980Y231570D02*
X567750Y231340D01*
G01D02*
Y231230D01*
G01D02*
X567640D01*
G01X569240Y232250D02*
X569690D01*
G01X568320Y231460D02*
X568440D01*
G01D02*
Y231570D01*
G01D02*
X568550Y231690D01*
G01D02*
Y232140D01*
G01X569920D02*
X569690Y232250D01*
G01X568090Y231910D02*
X567980Y231800D01*
G01D02*
Y231570D01*
G01X567530Y230890D02*
X567640Y231000D01*
G01D02*
X567870D01*
G01D02*
X567980Y231120D01*
G01X567640Y231230D02*
Y231120D01*
G01D02*
X567530D01*
G01D02*
X567410Y231000D01*
G01D02*
X567180D01*
G01D02*
X567070Y230890D01*
G01X567980Y231120D02*
X568090D01*
G01D02*
X568320Y231340D01*
G01D02*
Y231460D01*
G01X569690Y230320D02*
X570030Y231000D01*
G01D02*
Y231910D01*
G01X561030Y236810D02*
X561490D01*
G01X567640Y238070D02*
Y236590D01*
G01X567530D02*
X567070D01*
G01X560800Y236810D02*
X567070Y236580D01*
G01X561490Y236810D02*
X567530Y236580D01*
G01X570030Y235670D02*
Y236590D01*
G01X569690Y235330D02*
X569920Y235440D01*
G01X568550D02*
Y235900D01*
G01X569240Y235330D02*
X569690D01*
G01X568550Y235440D02*
X568090D01*
G01X567070Y236590D02*
X567410D01*
G01X558870Y230660D02*
Y236930D01*
G01X558070Y230660D02*
Y236930D01*
G01X559780Y230660D02*
Y236930D01*
G01X561030Y230770D02*
X561490D01*
G01X561030D02*
Y236810D01*
G01X560800Y230770D02*
X567070Y230890D01*
G01X567530D02*
X567070D01*
G01X568090Y232140D02*
Y231910D01*
G01X570030D02*
X569920Y232140D01*
G01X561490Y230770D02*
X567530Y230890D01*
G01X568550Y232140D02*
X568090D01*
G01X569240Y235330D02*
Y232250D01*
G01X568550Y232140D02*
Y235450D01*
G01X568090Y232140D02*
Y235450D01*
G01X569010Y271160D02*
X569690Y271620D01*
G01D02*
X570030Y272420D01*
G01X567640Y272300D02*
Y270930D01*
G01X568210D02*
X569010Y271160D01*
G01X567870Y278000D02*
Y277880D01*
G01D02*
X567980D01*
G01D02*
X568100Y277770D01*
G01D02*
X568210D01*
G01D02*
Y277660D01*
G01D02*
X568320D01*
G01D02*
Y277540D01*
G01D02*
X568440Y277430D01*
G01D02*
Y277320D01*
G01D02*
X568550Y277200D01*
G01D02*
Y276860D01*
G01X570030Y277880D02*
X569690Y278680D01*
G01D02*
X569010Y279140D01*
G01D02*
X568210Y279370D01*
G01X569690Y276750D02*
X569920Y276860D01*
G01D02*
X570030Y277090D01*
G01X567870Y272410D02*
X567750Y272300D01*
G01D02*
X567530D01*
G01X568550Y273100D02*
X568440Y272990D01*
G01D02*
Y272870D01*
G01D02*
X568210Y272640D01*
G01D02*
Y272530D01*
G01D02*
X568090D01*
G01D02*
X567980Y272410D01*
G01D02*
X567870D01*
G01X569920Y273440D02*
X569690Y273560D01*
G01X570030Y272420D02*
Y273210D01*
G01X561490Y278230D02*
X567530Y278000D01*
G01X567640Y279370D02*
Y278000D01*
G01X569240Y276750D02*
X569690D01*
G01X570030Y277090D02*
Y277880D01*
G01X567530Y278000D02*
X567870D01*
G01X558870Y278340D02*
Y272070D01*
G01X558070Y278340D02*
Y271960D01*
G01X559780Y278230D02*
Y272070D01*
G01X561490D02*
X567530Y272300D01*
G01X569240Y276750D02*
Y273560D01*
G01X568550Y276860D02*
Y273440D01*
G01X570030Y273210D02*
X569920Y273440D01*
G01X568550D02*
Y273100D01*
G01X569240Y273560D02*
X569690D01*
G01X567410Y301590D02*
X567530Y301470D01*
G01D02*
X567640D01*
G01D02*
Y301360D01*
G01D02*
X567750D01*
G01D02*
Y301240D01*
G01D02*
X567870Y301130D01*
G01D02*
Y301020D01*
G01D02*
X567980D01*
G01D02*
Y300790D01*
G01X567870Y301580D02*
X567530D01*
G01X567980Y300790D02*
X568100Y300670D01*
G01D02*
Y300450D01*
G01X568550Y300900D02*
X568320Y301130D01*
G01D02*
Y301240D01*
G01D02*
X568090Y301470D01*
G01D02*
X567980D01*
G01D02*
X567870Y301580D01*
G01X569920Y300440D02*
X570030Y300670D01*
G01Y301590D02*
X569690Y302270D01*
G01D02*
X569010Y302840D01*
G01D02*
X568210Y303070D01*
G01X567980Y296570D02*
X567750Y296340D01*
G01D02*
Y296230D01*
G01D02*
X567640D01*
G01X569240Y297250D02*
X569690D01*
G01X568320Y296460D02*
X568440D01*
G01D02*
Y296570D01*
G01D02*
X568550Y296690D01*
G01D02*
Y297140D01*
G01X569920D02*
X569690Y297250D01*
G01X568090Y296910D02*
X567980Y296800D01*
G01D02*
Y296570D01*
G01X567530Y295890D02*
X567640Y296000D01*
G01D02*
X567870D01*
G01D02*
X567980Y296120D01*
G01X567640Y296230D02*
Y296120D01*
G01D02*
X567530D01*
G01D02*
X567410Y296000D01*
G01D02*
X567180D01*
G01D02*
X567070Y295890D01*
G01X567980Y296120D02*
X568090D01*
G01D02*
X568320Y296340D01*
G01D02*
Y296460D01*
G01X569010Y294750D02*
X569690Y295320D01*
G01D02*
X570030Y296000D01*
G01D02*
Y296910D01*
G01X561030Y301810D02*
X561490D01*
G01X567640Y303070D02*
Y301590D01*
G01X567530D02*
X567070D01*
G01X560800Y301810D02*
X567070Y301580D01*
G01X561490Y301810D02*
X567530Y301580D01*
G01X570030Y300670D02*
Y301590D01*
G01X569690Y300330D02*
X569920Y300440D01*
G01X568550D02*
Y300900D01*
G01X569240Y300330D02*
X569690D01*
G01X568550Y300440D02*
X568090D01*
G01X567070Y301590D02*
X567410D01*
G01X558870Y295660D02*
Y301930D01*
G01X558070Y295660D02*
Y301930D01*
G01X559780Y295660D02*
Y301930D01*
G01X561030Y295770D02*
X561490D01*
G01X561030D02*
Y301810D01*
G01X567640Y296000D02*
Y294520D01*
G01X560800Y295770D02*
X567070Y295890D01*
G01X567530D02*
X567070D01*
G01X568090Y297140D02*
Y296910D01*
G01X570030D02*
X569920Y297140D01*
G01X568210Y294520D02*
X569010Y294750D01*
G01X561490Y295770D02*
X567530Y295890D01*
G01X568550Y297140D02*
X568090D01*
G01X569240Y300330D02*
Y297250D01*
G01X568550Y297140D02*
Y300450D01*
G01X568090Y297140D02*
Y300450D01*
G01X567870Y343000D02*
Y342880D01*
G01D02*
X567980D01*
G01D02*
X568100Y342770D01*
G01D02*
X568210D01*
G01D02*
Y342660D01*
G01D02*
X568320D01*
G01D02*
Y342540D01*
G01D02*
X568440Y342430D01*
G01D02*
Y342320D01*
G01D02*
X568550Y342200D01*
G01D02*
Y341860D01*
G01X570030Y342880D02*
X569690Y343680D01*
G01D02*
X569010Y344140D01*
G01D02*
X568210Y344370D01*
G01X569690Y341750D02*
X569920Y341860D01*
G01D02*
X570030Y342090D01*
G01X567870Y337410D02*
X567750Y337300D01*
G01D02*
X567530D01*
G01X568550Y338100D02*
X568440Y337990D01*
G01D02*
Y337870D01*
G01D02*
X568210Y337640D01*
G01D02*
Y337530D01*
G01D02*
X568090D01*
G01D02*
X567980Y337410D01*
G01D02*
X567870D01*
G01X569920Y338440D02*
X569690Y338560D01*
G01X569010Y336160D02*
X569690Y336620D01*
G01D02*
X570030Y337420D01*
G01D02*
Y338210D01*
G01X561490Y343230D02*
X567530Y343000D01*
G01X567640Y344370D02*
Y343000D01*
G01X569240Y341750D02*
X569690D01*
G01X570030Y342090D02*
Y342880D01*
G01X567530Y343000D02*
X567870D01*
G01X558870Y343340D02*
Y337070D01*
G01X558070Y343340D02*
Y336960D01*
G01X559780Y343230D02*
Y337070D01*
G01X567640Y337300D02*
Y335930D01*
G01X561490Y337070D02*
X567530Y337300D01*
G01X569240Y341750D02*
Y338560D01*
G01X568550Y341860D02*
Y338440D01*
G01X570030Y338210D02*
X569920Y338440D01*
G01X568210Y335930D02*
X569010Y336160D01*
G01X568550Y338440D02*
Y338100D01*
G01X569240Y338560D02*
X569690D01*
G01X567410Y366590D02*
X567530Y366470D01*
G01D02*
X567640D01*
G01D02*
Y366360D01*
G01D02*
X567750D01*
G01D02*
Y366240D01*
G01D02*
X567870Y366130D01*
G01D02*
Y366020D01*
G01D02*
X567980D01*
G01D02*
Y365790D01*
G01X567870Y366580D02*
X567530D01*
G01X567980Y365790D02*
X568100Y365670D01*
G01D02*
Y365450D01*
G01X568550Y365900D02*
X568320Y366130D01*
G01D02*
Y366240D01*
G01D02*
X568090Y366470D01*
G01D02*
X567980D01*
G01D02*
X567870Y366580D01*
G01X569920Y365440D02*
X570030Y365670D01*
G01Y366590D02*
X569690Y367270D01*
G01D02*
X569010Y367840D01*
G01D02*
X568210Y368070D01*
G01X567980Y361570D02*
X567750Y361340D01*
G01D02*
Y361230D01*
G01D02*
X567640D01*
G01X569240Y362250D02*
X569690D01*
G01X568320Y361460D02*
X568440D01*
G01D02*
Y361570D01*
G01D02*
X568550Y361690D01*
G01D02*
Y362140D01*
G01X569920D02*
X569690Y362250D01*
G01X568090Y361910D02*
X567980Y361800D01*
G01D02*
Y361570D01*
G01X567530Y360890D02*
X567640Y361000D01*
G01D02*
X567870D01*
G01D02*
X567980Y361120D01*
G01X567640Y361230D02*
Y361120D01*
G01D02*
X567530D01*
G01D02*
X567410Y361000D01*
G01D02*
X567180D01*
G01D02*
X567070Y360890D01*
G01X567980Y361120D02*
X568090D01*
G01D02*
X568320Y361340D01*
G01D02*
Y361460D01*
G01X569010Y359750D02*
X569690Y360320D01*
G01D02*
X570030Y361000D01*
G01D02*
Y361910D01*
G01X561030Y366810D02*
X561490D01*
G01X567640Y368070D02*
Y366590D01*
G01X567530D02*
X567070D01*
G01X560800Y366810D02*
X567070Y366580D01*
G01X561490Y366810D02*
X567530Y366580D01*
G01X570030Y365670D02*
Y366590D01*
G01X569690Y365330D02*
X569920Y365440D01*
G01X568550D02*
Y365900D01*
G01X569240Y365330D02*
X569690D01*
G01X568550Y365440D02*
X568090D01*
G01X567070Y366590D02*
X567410D01*
G01X558870Y360660D02*
Y366930D01*
G01X558070Y360660D02*
Y366930D01*
G01X559780Y360660D02*
Y366930D01*
G01X561030Y360770D02*
X561490D01*
G01X561030D02*
Y366810D01*
G01X567640Y361000D02*
Y359520D01*
G01X560800Y360770D02*
X567070Y360890D01*
G01X567530D02*
X567070D01*
G01X568090Y362140D02*
Y361910D01*
G01X570030D02*
X569920Y362140D01*
G01X568210Y359520D02*
X569010Y359750D01*
G01X561490Y360770D02*
X567530Y360890D01*
G01X568550Y362140D02*
X568090D01*
G01X569240Y365330D02*
Y362250D01*
G01X568550Y362140D02*
Y365450D01*
G01X568090Y362140D02*
Y365450D01*
G01X571970Y197390D02*
X572420D01*
G01X571970Y199900D02*
X572420D01*
Y243990D01*
X571970D01*
Y247750D01*
G01Y196140D02*
Y199900D01*
G01X572420Y196140D02*
Y197390D01*
G01Y247750D02*
Y246610D01*
G01X571970D02*
X572420D01*
G01X571970Y262390D02*
X572420D01*
G01X571970Y264900D02*
X572420D01*
Y308990D01*
X571970D01*
Y312750D01*
G01Y261140D02*
Y264900D01*
G01X572420Y261140D02*
Y262390D01*
G01Y312750D02*
Y311610D01*
G01X571970D02*
X572420D01*
G01X571970Y327390D02*
X572420D01*
G01X571970Y329900D02*
X572420D01*
Y373990D01*
X571970D01*
Y377750D01*
G01Y326140D02*
Y329900D01*
G01X572420Y326140D02*
Y327390D01*
G01Y377750D02*
Y376610D01*
G01X571970D02*
X572420D01*
G54D16*
G01X113550Y228460D02*
G03I-495J5D01*
G01X170370Y362500D02*
G03I-496J0D01*
G54D17*
G01X53350Y33000D02*
X56150Y37000D01*
G01X53350D02*
X56150Y33000D01*
G01X58380Y34330D02*
X60120D01*
G01X73750Y33000D02*
Y34800D01*
X72420Y37000D01*
G01X75080D02*
X73750Y34800D01*
G01X77380Y34330D02*
X79120D01*
G01X71500Y148500D02*
Y145000D01*
X70500D01*
Y148500D01*
X76200D01*
G01X71500Y135500D02*
Y139000D01*
X70500D01*
Y135500D01*
X76200D01*
G01X91500Y148500D02*
Y145000D01*
X90500D01*
Y148500D01*
X96200D01*
G01X91500Y135500D02*
Y139000D01*
X90500D01*
Y135500D01*
X96200D01*
G01X92480Y37000D02*
X95020D01*
X92480Y33000D01*
X95020D01*
G01X97380Y34330D02*
X99120D01*
G01X92500Y166500D02*
X96000D01*
Y165500D01*
X92500D01*
Y171200D01*
G01X105500Y166500D02*
X102000D01*
Y165500D01*
X105500D01*
Y171200D01*
G01X92500Y200500D02*
X96000D01*
Y199500D01*
X92500D01*
Y205200D01*
G01X105500Y200500D02*
X102000D01*
Y199500D01*
X105500D01*
Y205200D01*
G01X133500Y338500D02*
Y342000D01*
X134500D01*
Y338500D01*
X128800D01*
G01X133500Y351500D02*
Y348000D01*
X134500D01*
Y351500D01*
X128800D01*
G01X148080Y46000D02*
X145420D01*
Y50000D01*
X148080D01*
G01X147020Y48070D02*
X145420D01*
G01X151250Y46000D02*
Y50000D01*
X150450Y49200D01*
G01Y46000D02*
X152050D01*
G01X211080D02*
X208420D01*
Y50000D01*
X211080D01*
G01X210020Y48070D02*
X208420D01*
G01X214250Y50000D02*
X213720Y49870D01*
X213320Y49530D01*
X213050Y49130D01*
X212850Y48600D01*
X212780Y48000D01*
X212850Y47400D01*
X213050Y46870D01*
X213320Y46470D01*
X213720Y46130D01*
X214250Y46000D01*
X214780Y46130D01*
X215180Y46470D01*
X215450Y46870D01*
X215650Y47400D01*
X215720Y48000D01*
X215650Y48600D01*
X215450Y49130D01*
X215180Y49530D01*
X214780Y49870D01*
X214250Y50000D01*
G01X271600Y46000D02*
X274400Y50000D01*
G01X271600D02*
X274400Y46000D01*
G01X335000D02*
Y47800D01*
X333670Y50000D01*
G01X336330D02*
X335000Y47800D01*
G01X396730Y50000D02*
X399270D01*
X396730Y46000D01*
X399270D01*
G01X513500Y168500D02*
Y172000D01*
X514500D01*
Y168500D01*
X508800D01*
G01X513500Y181500D02*
Y178000D01*
X514500D01*
Y181500D01*
X508800D01*
G54D18*
G01X370Y150870D02*
G03I-590J4D01*
G01X20370D02*
G03I-590J4D01*
G01X25470Y346220D02*
G03I-596J0D01*
G01Y366220D02*
G03I-596J0D01*
G01Y386220D02*
G03I-596J0D01*
G01X40720Y112780D02*
G03I-594J0D01*
G01X72810Y8130D02*
G03I-590J-4D01*
G01X92810D02*
G03I-590J-4D01*
G01X112810D02*
G03I-590J-4D01*
G01X99400Y386220D02*
G03I-589J0D01*
G01X114850Y137300D02*
Y56500D01*
G01X125070D02*
X114850D01*
G01X125070Y137300D02*
Y56500D01*
G01X125090Y137300D02*
X114970D01*
G01X175090Y56700D02*
X144980D01*
G01Y67120D02*
Y56700D01*
G01X164470Y67120D02*
X144980D01*
G01X140460Y159220D02*
G03I-586J0D01*
G01X175090Y57000D02*
X164970D01*
G01Y137300D02*
Y57000D01*
G01X175090Y137300D02*
X164970D01*
G01X163470Y386220D02*
G03I-596J0D01*
G01X175090Y137300D02*
Y57000D01*
G01X177850Y137300D02*
Y56500D01*
G01X188070D02*
X177850D01*
G01X188070Y137300D02*
Y56500D01*
G01X188090Y137300D02*
X177970D01*
G01X238090Y56700D02*
X207980D01*
G01Y67120D02*
Y56700D01*
G01X227470Y67120D02*
X207980D01*
G01X203460Y159220D02*
G03I-586J0D01*
G01X238090Y57000D02*
X227970D01*
G01Y137300D02*
Y57000D01*
G01X238090Y137300D02*
X227970D01*
G01X240850D02*
Y56500D01*
G01X251070D02*
X240850D01*
G01X251070Y137300D02*
Y56500D01*
G01X238090Y137300D02*
Y57000D01*
G01X251090Y137300D02*
X240970D01*
G01X301090Y56700D02*
X270980D01*
G01Y67120D02*
Y56700D01*
G01X290470Y67120D02*
X270980D01*
G01X301090Y57000D02*
X290970D01*
G01Y137300D02*
Y57000D01*
G01X301090Y137300D02*
X290970D01*
G01X301090D02*
Y57000D01*
G01X303850Y137300D02*
Y56500D01*
G01X314070D02*
X303850D01*
G01X314070Y137300D02*
Y56500D01*
G01X314090Y137300D02*
X303970D01*
G01X364090Y56700D02*
X333980D01*
G01Y67120D02*
Y56700D01*
G01X353470Y67120D02*
X333980D01*
G01X364090Y57000D02*
X353970D01*
G01Y137300D02*
Y57000D01*
G01X364090Y137300D02*
X353970D01*
G01X364090D02*
Y57000D01*
G01X366850Y137300D02*
Y56500D01*
G01X377070D02*
X366850D01*
G01X377070Y137300D02*
Y56500D01*
G01X377090Y137300D02*
X366970D01*
G01X367780Y317780D02*
G03I-591J0D01*
G01X427090Y56700D02*
X396980D01*
G01Y67120D02*
Y56700D01*
G01X416470Y67120D02*
X396980D01*
G01X427090Y57000D02*
X416970D01*
G01Y137300D02*
Y57000D01*
G01X427090Y137300D02*
X416970D01*
G01X427090D02*
Y57000D01*
G01X454370Y40750D02*
G03I-590J-2D01*
G01X461900Y356720D02*
G03I-589J0D01*
G01X531620Y210190D02*
G03I-590J-1D01*
G01Y275190D02*
G03I-590J-1D01*
G01Y340190D02*
G03I-590J-1D01*
M02*
