G04 ================== begin FILE IDENTIFICATION RECORD ==================*
G04 Layout Name:  D:/MaxRuan/Projects/SPB/K1_MAX_MB/MainBoard/PCB/CATALYSTK_260107.brd*
G04 Film Name:    BOTTOM*
G04 File Format:  Gerber RS274X*
G04 File Origin:  Cadence Allegro 17.2-S071*
G04 Origin Date:  Mon Jan 12 17:40:34 2026*
G04 *
G04 Layer:  ETCH/BOTTOM*
G04 Layer:  PIN/BOTTOM*
G04 Layer:  VIA CLASS/BOTTOM*
G04 *
G04 Offset:    (0.0 0.0)*
G04 Mirror:    No*
G04 Mode:      Positive*
G04 Rotation:  0*
G04 FullContactRelief:  No*
G04 UndefLineWidth:     6.0*
G04 ================== end FILE IDENTIFICATION RECORD ====================*
%FSLAX25Y25*MOIN*%
%IR0*IPPOS*OFA0.00000B0.00000*MIA0B0*SFA1.00000B1.00000*%
%ADD17C,.1035*%
%ADD37C,.1181*%
%ADD25C,.2362*%
%ADD35O,.122X.0787*%
%ADD20O,.0787X.122*%
%ADD12R,.1035X.1035*%
%ADD23C,.02*%
%ADD24R,.05X.025*%
%ADD22R,.025X.05*%
%ADD27C,.065*%
%ADD14C,.0614*%
%ADD36C,.0571*%
%ADD32C,.0256*%
%ADD26C,.0374*%
%ADD38C,.0276*%
%ADD10C,.0591*%
%ADD11C,.0476*%
%ADD29C,.0594*%
%ADD28R,.065X.065*%
%ADD15R,.0614X.0614*%
%ADD31R,.0374X.0374*%
%ADD33O,.0394X.0827*%
%ADD18C,.0976*%
%ADD16R,.0591X.0591*%
%ADD21R,.0197X.0197*%
%ADD13R,.0476X.0476*%
%ADD30R,.0594X.0594*%
%ADD34O,.0394X.0669*%
%ADD19R,.0976X.0976*%
%ADD39C,.007*%
%ADD40C,.01*%
%ADD41C,.04*%
%ADD42C,.015*%
%ADD43C,.025*%
%ADD44C,.017*%
%ADD57C,.108*%
%ADD47C,.2506*%
%ADD55C,.1284*%
%ADD59C,.042*%
%ADD51C,.062*%
%ADD45C,.044*%
%ADD60C,.0344*%
%ADD56C,.0714*%
%ADD52C,.058*%
%ADD48C,.0734*%
%ADD54C,.0754*%
%ADD50C,.0718*%
%ADD46C,.0738*%
%ADD58C,.0694*%
%ADD53C,.0794*%
%ADD49C,.0758*%
G75*
%LPD*%
G75*
G36*
G01X92500Y105000D02*
X99500D01*
X100000Y104500D01*
Y75500D01*
X108750Y66750D01*
Y38750D01*
X97000Y27000D01*
X32500D01*
X16500Y11000D01*
Y6000D01*
X15710Y5210D01*
X6710D01*
X5210Y6710D01*
Y17210D01*
X8000Y20000D01*
X14000D01*
X28500Y34500D01*
X92000D01*
X99500Y42000D01*
Y64000D01*
X92000Y71500D01*
Y104500D01*
X92500Y105000D01*
G37*
G36*
G01X6870Y24580D02*
X8550Y27520D01*
X6000Y29240D01*
X3450Y27520D01*
X5130Y24580D01*
G03X6870I870J500D01*
G37*
G36*
G01X8090Y42610D02*
X5240Y41840D01*
X5780Y38770D01*
X8850Y38230D01*
X9620Y41080D01*
G03X8090Y42610I-1210J320D01*
G37*
G36*
G01Y72610D02*
X5240Y71840D01*
X5780Y68770D01*
X8850Y68230D01*
X9620Y71080D01*
G03X8090Y72610I-1210J320D01*
G37*
G36*
G01X9620Y66900D02*
X8850Y69750D01*
X5780Y69210D01*
X5240Y66140D01*
X8090Y65370D01*
G03X9620Y66900I320J1210D01*
G37*
G36*
G01X9440Y102970D02*
X5240Y101840D01*
X5750Y98800D01*
X8690Y97870D01*
X10800Y101070D01*
G03X9440Y102970I-1041J691D01*
G37*
G36*
G01X9620Y96900D02*
X8850Y99750D01*
X5780Y99210D01*
X5240Y96140D01*
X8090Y95370D01*
G03X9620Y96900I320J1210D01*
G37*
G36*
G01X4500Y384500D02*
X9500D01*
X11000Y383000D01*
Y380740D01*
G02X10430Y380370I-401J-6D01*
G03X9130Y380660I-1309J-2808D01*
G03Y374460I0J-3100D01*
G03X10430Y374750I-9J3098D01*
G02X11000Y374380I169J-364D01*
G01Y360740D01*
G02X10430Y360370I-401J-6D01*
G03X9130Y360660I-1309J-2808D01*
G03Y354460I0J-3100D01*
G03X10430Y354750I-9J3098D01*
G02X11000Y354380I169J-364D01*
G01Y340740D01*
G02X10430Y340370I-401J-6D01*
G03X9130Y340660I-1309J-2808D01*
G03Y334460I0J-3100D01*
G03X10430Y334750I-9J3098D01*
G02X11000Y334380I169J-364D01*
G01Y292500D01*
X12000Y291500D01*
Y291000D01*
X15000Y288000D01*
X15230D01*
X15280Y287870D01*
G03X15940Y287420I660J259D01*
G01X25700D01*
G03X26360Y287870I0J709D01*
G01X26410Y288000D01*
X112500D01*
X121000Y279500D01*
Y233500D01*
X132500Y222000D01*
Y212500D01*
X131500Y211500D01*
X121000D01*
X110000Y222500D01*
Y272000D01*
X103500Y278500D01*
X97520D01*
G03X94480I-1520J-3336D01*
G01X21910D01*
G03X20820Y278610I-1104J-5489D01*
G03X19730Y278500I14J-5599D01*
G01X12000D01*
X8500Y275000D01*
Y220000D01*
X6000Y217500D01*
Y153970D01*
X5860Y153930D01*
G03X5350Y153250I198J-680D01*
G01Y148490D01*
G03X5860Y147810I708J0D01*
G01X6000Y147770D01*
Y144910D01*
G03X5340Y143000I2434J-1910D01*
G03X5750Y141460I3097J0D01*
G01X5830Y141330D01*
X4000Y139500D01*
X2500D01*
X1500Y140500D01*
Y381500D01*
X4500Y384500D01*
G37*
G36*
G01X430370Y384730D02*
G02X430660Y384060I0J-398D01*
G03X429990Y382370I1812J-1696D01*
G01Y379600D01*
G03X434950I2480J5D01*
G01Y382370D01*
G03X434280Y384060I-2482J-6D01*
G02X434570Y384730I290J272D01*
G01X464430D01*
G02X464720Y384060I0J-398D01*
G03X464050Y382370I1812J-1696D01*
G01Y379600D01*
G03X469010I2480J5D01*
G01Y382370D01*
G03X468340Y384060I-2482J-6D01*
G02X468630Y384730I290J272D01*
G01X542370D01*
Y920D01*
X430000D01*
Y28500D01*
X429510Y28990D01*
Y30920D01*
X428420Y32010D01*
X420080D01*
X419250Y31180D01*
X418420Y32010D01*
X411080D01*
X410000Y30930D01*
X408920Y32010D01*
X402080D01*
X401000Y30930D01*
X399920Y32010D01*
X392580D01*
X391490Y30920D01*
Y30000D01*
X366510D01*
Y30920D01*
X365420Y32010D01*
X357080D01*
X356250Y31180D01*
X355420Y32010D01*
X348080D01*
X347000Y30930D01*
X345920Y32010D01*
X339080D01*
X338000Y30930D01*
X336920Y32010D01*
X329580D01*
X328490Y30920D01*
Y30000D01*
X303510D01*
Y30920D01*
X302420Y32010D01*
X294080D01*
X293250Y31180D01*
X292420Y32010D01*
X285080D01*
X284000Y30930D01*
X282920Y32010D01*
X276080D01*
X275000Y30930D01*
X273920Y32010D01*
X266580D01*
X265490Y30920D01*
Y30000D01*
X240510D01*
Y30920D01*
X239420Y32010D01*
X231080D01*
X230250Y31180D01*
X229420Y32010D01*
X222080D01*
X221000Y30930D01*
X219920Y32010D01*
X213080D01*
X212000Y30930D01*
X210920Y32010D01*
X203580D01*
X202490Y30920D01*
Y28490D01*
X201500Y27500D01*
X186670D01*
G03X179330I-3670J-1508D01*
G01X177510D01*
Y30920D01*
X176420Y32010D01*
X168080D01*
X167250Y31180D01*
X166420Y32010D01*
X159080D01*
X158000Y30930D01*
X156920Y32010D01*
X150080D01*
X149000Y30930D01*
X147920Y32010D01*
X140580D01*
X139490Y30920D01*
Y27500D01*
X139000D01*
Y26500D01*
X126500Y14000D01*
X124070D01*
G02X123700Y14550I0J400D01*
G03X123970Y15990I-3705J1440D01*
G03X116030I-3970J0D01*
G03X116300Y14550I3975J0D01*
G02X115930Y14000I-370J-150D01*
G01X106450D01*
G02X106100Y14590I-1J398D01*
G03X106460Y16000I-2543J1400D01*
G03X100660I-2900J0D01*
G03X101020Y14590I2903J-10D01*
G02X100670Y14000I-349J-192D01*
G01X86450D01*
G02X86100Y14590I-1J398D01*
G03X86460Y16000I-2543J1400D01*
G03X80660I-2900J0D01*
G03X81020Y14590I2903J-10D01*
G02X80670Y14000I-349J-192D01*
G01X66450D01*
G02X66100Y14590I-1J398D01*
G03X66460Y16000I-2543J1400D01*
G03X60660I-2900J0D01*
G03X61020Y14590I2903J-10D01*
G02X60670Y14000I-349J-192D01*
G01X46500D01*
X38000Y5500D01*
X26500D01*
X25500Y6500D01*
Y17500D01*
X33500Y25500D01*
X60290D01*
G02X60660Y24960I-5J-400D01*
G03X60460Y23870I2899J-1095D01*
G03X66660I3100J0D01*
G03X66460Y24960I-3099J-5D01*
G02X66830Y25500I375J140D01*
G01X80290D01*
G02X80660Y24960I-5J-400D01*
G03X80460Y23870I2899J-1095D01*
G03X86660I3100J0D01*
G03X86460Y24960I-3099J-5D01*
G02X86830Y25500I375J140D01*
G01X97500D01*
X109000Y37000D01*
X127570D01*
X130080Y34490D01*
X148920D01*
X149500Y35070D01*
X150080Y34490D01*
X157920D01*
X158610Y35180D01*
G02X158750Y35240I142J-139D01*
G01X158880Y35190D01*
G03X160000Y34780I1115J1312D01*
G03X161720Y36500I0J1720D01*
G03X161400Y37500I-1723J0D01*
G03Y39500I-1403J1000D01*
G03X161720Y40500I-1403J1000D01*
G03X160190Y42210I-1721J0D01*
G01X160010Y42230D01*
Y58310D01*
G03X163660Y62000I-40J3690D01*
G03X159970Y65690I-3690J0D01*
G03X156880Y64010I0J-3682D01*
G01X153060D01*
G03X149970Y65690I-3090J-2002D01*
G03X149400Y65650I-27J-3692D01*
G01X149300Y65630D01*
X147500Y67430D01*
Y95000D01*
X144000Y98500D01*
X125000D01*
X124500Y99000D01*
Y115120D01*
X126720D01*
G02X127030Y114470I-2J-400D01*
G03X126220Y112170I2860J-2300D01*
G03X133560I3670J0D01*
G03X132750Y114470I-3670J0D01*
G02X133060Y115120I312J250D01*
G01X136720D01*
G02X137030Y114470I-2J-400D01*
G03X136220Y112170I2860J-2300D01*
G03X143560I3670J0D01*
G03X142750Y114470I-3670J0D01*
G02X143060Y115120I312J250D01*
G01X146720D01*
G02X147030Y114470I-2J-400D01*
G03X146220Y112170I2860J-2300D01*
G03X153560I3670J0D01*
G03X152750Y114470I-3670J0D01*
G02X153060Y115120I312J250D01*
G01X156720D01*
G02X157030Y114470I-2J-400D01*
G03X156220Y112170I2860J-2300D01*
G03X163560I3670J0D01*
G03X162750Y114470I-3670J0D01*
G02X163060Y115120I312J250D01*
G01X166920D01*
G02X167210Y114450I-4J-400D01*
G03X166280Y112000I2762J-2450D01*
G03X173660I3690J0D01*
G03X172730Y114450I-3692J0D01*
G02X173020Y115120I294J270D01*
G01X179920D01*
G02X180210Y114450I-4J-400D01*
G03X179280Y112000I2762J-2450D01*
G03X186660I3690J0D01*
G03X185730Y114450I-3692J0D01*
G02X186020Y115120I294J270D01*
G01X189720D01*
G02X190030Y114470I-2J-400D01*
G03X189220Y112170I2860J-2300D01*
G03X196560I3670J0D01*
G03X195750Y114470I-3670J0D01*
G02X196060Y115120I312J250D01*
G01X199720D01*
G02X200030Y114470I-2J-400D01*
G03X199220Y112170I2860J-2300D01*
G03X206560I3670J0D01*
G03X205750Y114470I-3670J0D01*
G02X206060Y115120I312J250D01*
G01X209720D01*
G02X210030Y114470I-2J-400D01*
G03X209220Y112170I2860J-2300D01*
G03X216560I3670J0D01*
G03X215750Y114470I-3670J0D01*
G02X216060Y115120I312J250D01*
G01X219720D01*
G02X220030Y114470I-2J-400D01*
G03X219220Y112170I2860J-2300D01*
G03X226560I3670J0D01*
G03X225750Y114470I-3670J0D01*
G02X226060Y115120I312J250D01*
G01X229920D01*
G02X230210Y114450I-4J-400D01*
G03X229280Y112000I2762J-2450D01*
G03X236660I3690J0D01*
G03X235730Y114450I-3692J0D01*
G02X236020Y115120I294J270D01*
G01X242920D01*
G02X243210Y114450I-4J-400D01*
G03X242280Y112000I2762J-2450D01*
G03X249660I3690J0D01*
G03X248730Y114450I-3692J0D01*
G02X249020Y115120I294J270D01*
G01X252730D01*
G02X253040Y114470I-2J-400D01*
G03X252230Y112170I2860J-2300D01*
G03X259570I3670J0D01*
G03X258760Y114470I-3670J0D01*
G02X259070Y115120I312J250D01*
G01X262730D01*
G02X263040Y114470I-2J-400D01*
G03X262230Y112170I2860J-2300D01*
G03X269570I3670J0D01*
G03X268760Y114470I-3670J0D01*
G02X269070Y115120I312J250D01*
G01X272730D01*
G02X273040Y114470I-2J-400D01*
G03X272230Y112170I2860J-2300D01*
G03X279570I3670J0D01*
G03X278760Y114470I-3670J0D01*
G02X279070Y115120I312J250D01*
G01X282730D01*
G02X283040Y114470I-2J-400D01*
G03X282230Y112170I2860J-2300D01*
G03X289570I3670J0D01*
G03X288760Y114470I-3670J0D01*
G02X289070Y115120I312J250D01*
G01X292920D01*
G02X293210Y114450I-4J-400D01*
G03X292280Y112000I2762J-2450D01*
G03X299660I3690J0D01*
G03X298730Y114450I-3692J0D01*
G02X299020Y115120I294J270D01*
G01X305920D01*
G02X306210Y114450I-4J-400D01*
G03X305280Y112000I2762J-2450D01*
G03X312660I3690J0D01*
G03X311730Y114450I-3692J0D01*
G02X312020Y115120I294J270D01*
G01X315830D01*
G02X316140Y114470I-2J-400D01*
G03X315330Y112170I2860J-2300D01*
G03X322670I3670J0D01*
G03X321860Y114470I-3670J0D01*
G02X322170Y115120I312J250D01*
G01X325830D01*
G02X326140Y114470I-2J-400D01*
G03X325330Y112170I2860J-2300D01*
G03X332670I3670J0D01*
G03X331860Y114470I-3670J0D01*
G02X332170Y115120I312J250D01*
G01X335830D01*
G02X336140Y114470I-2J-400D01*
G03X335330Y112170I2860J-2300D01*
G03X342670I3670J0D01*
G03X341860Y114470I-3670J0D01*
G02X342170Y115120I312J250D01*
G01X345830D01*
G02X346140Y114470I-2J-400D01*
G03X345330Y112170I2860J-2300D01*
G03X352670I3670J0D01*
G03X351860Y114470I-3670J0D01*
G02X352170Y115120I312J250D01*
G01X355920D01*
G02X356210Y114450I-4J-400D01*
G03X355280Y112000I2762J-2450D01*
G03X362660I3690J0D01*
G03X361410Y114770I-3694J0D01*
G01X361340Y114830D01*
Y115120D01*
X361680D01*
G03X362430Y115430I0J1062D01*
G01X363790Y116790D01*
X363880Y116780D01*
X364000D01*
G03X365400Y117500I0J1721D01*
G01X390500D01*
X391380Y118380D01*
X391470Y118360D01*
G03X391890Y118340I384J3652D01*
G03X395560Y122010I0J3670D01*
G03X392660Y125600I-3672J0D01*
G01X392500Y125630D01*
Y128230D01*
X392660Y128260D01*
G03X395560Y131850I-772J3590D01*
G03X394630Y134290I-3666J0D01*
G02X394930Y134960I296J270D01*
G01X398850D01*
G02X399150Y134290I4J-400D01*
G03X398220Y131850I2736J-2440D01*
G03X405560I3670J0D01*
G03X404630Y134290I-3666J0D01*
G02X404930Y134960I296J270D01*
G01X407280D01*
X408660Y133580D01*
G03X408220Y131850I3227J-1742D01*
G03X411890Y135520I3670J0D01*
G03X410280Y135150I-4J-3671D01*
G01X410150Y135090D01*
X408470Y136770D01*
G03X407720Y137080I-750J-752D01*
G01X375920D01*
X372500Y140500D01*
Y150000D01*
X370940Y151560D01*
X371020Y151690D01*
G03X371220Y152500I-1521J805D01*
G03X367780I-1720J0D01*
G01Y152380D01*
X367790Y152290D01*
X367500Y152000D01*
X365560D01*
Y157650D01*
G03X366220Y159000I-1051J1350D01*
G03X364500Y160720I-1720J0D01*
G03X363430Y160350I0J-1732D01*
G02X362780Y160660I-251J310D01*
G01Y161060D01*
G03X362070Y161770I-710J0D01*
G01X355930D01*
G03X355220Y161060I0J-710D01*
G01Y154920D01*
G03X355930Y154210I710J0D01*
G01X362070D01*
G03X362780Y154920I0J710D01*
G01Y157830D01*
G02X363140Y157950I201J-2D01*
G03X363440Y157650I1356J1056D01*
G01Y152000D01*
X355640D01*
X355580Y152120D01*
G03X354000Y153170I-1580J-664D01*
G03X353280Y153010I4J-1719D01*
G02X352720Y153400I-161J365D01*
G01Y153500D01*
G03X351000Y155220I-1720J0D01*
G03X349650Y154560I0J-1711D01*
G01X348000D01*
G03X347250Y154250I0J-1062D01*
G01X345000Y152000D01*
X342380D01*
G02X342120Y152700I2J399D01*
G03X342710Y154000I-1137J1300D01*
G03X340990Y155720I-1720J0D01*
G03X339770Y155210I0J-1714D01*
G01X330000D01*
Y164040D01*
G02X330680Y164320I400J-5D01*
G01X330790Y164210D01*
X330780Y164120D01*
Y164000D01*
G03X332500Y165720I1720J0D01*
G01X332380D01*
X332290Y165710D01*
X330000Y168000D01*
Y174440D01*
X333060D01*
X335290Y172210D01*
X335280Y172120D01*
Y172000D01*
G03X337000Y173720I1720J0D01*
G01X336880D01*
X336790Y173710D01*
X334240Y176260D01*
G02X334530Y176940I285J280D01*
G01X348500D01*
G03X349250Y177250I0J1062D01*
G01X349790Y177790D01*
X349880Y177780D01*
X350000D01*
G03X348280Y179500I0J1720D01*
G01Y179380D01*
X348290Y179290D01*
X348060Y179060D01*
X324800D01*
G03X323450Y179720I-1350J-1051D01*
G03X321730Y178000I0J-1720D01*
G01Y177920D01*
G02X321330Y177500I-399J-21D01*
G01X222000D01*
X220500Y179000D01*
Y186000D01*
X219000Y187500D01*
X212000D01*
X210500Y186000D01*
Y169500D01*
X209500Y168500D01*
X155000D01*
X152000Y171500D01*
Y189500D01*
X150000Y191500D01*
X136500D01*
X133620Y188620D01*
G03X132010Y188960I-1606J-3621D01*
G03X128050Y185000I0J-3960D01*
G03X128770Y182720I3970J0D01*
G01X130950Y179150D01*
Y175000D01*
X115770D01*
X115680Y175320D01*
Y175330D01*
G03X114000Y176710I-1680J-333D01*
G03X112300Y175180I0J-1709D01*
G01X112280Y175000D01*
X89890D01*
G02X89630Y175700I2J399D01*
G03X90220Y177000I-1137J1300D01*
G03X86780I-1720J0D01*
G03X87370Y175700I1727J0D01*
G02X87110Y175000I-262J-301D01*
G01X85890D01*
G02X85630Y175700I2J399D01*
G03X86220Y177000I-1137J1300D01*
G03X82780I-1720J0D01*
G03X83370Y175700I1727J0D01*
G02X83110Y175000I-262J-301D01*
G01X81890D01*
G02X81630Y175700I2J399D01*
G03X82220Y177000I-1137J1300D01*
G03X78780I-1720J0D01*
G03X79370Y175700I1727J0D01*
G02X79110Y175000I-262J-301D01*
G01X11500D01*
X8500Y178000D01*
Y192560D01*
X17840D01*
G03X18560Y193280I5J715D01*
G01Y203620D01*
G03X17840Y204340I-715J5D01*
G01X8500D01*
Y217500D01*
X11000Y220000D01*
X79000D01*
X81000Y222000D01*
Y255000D01*
X78500Y257500D01*
X30000D01*
X28000Y255500D01*
Y245500D01*
X26000Y243500D01*
X12000D01*
X10000Y245500D01*
Y274000D01*
X13000Y277000D01*
X92410D01*
G02X92780Y276450I-1J-400D01*
G03X92530Y275160I3219J-1293D01*
G03X99470I3470J0D01*
G03X99220Y276450I-3469J-3D01*
G02X99590Y277000I371J150D01*
G01X101500D01*
X108500Y270000D01*
Y221000D01*
X119500Y210000D01*
X132500D01*
X134000Y211500D01*
Y222500D01*
X122500Y234000D01*
Y281000D01*
X113500Y290000D01*
X74500D01*
X72500Y292000D01*
Y319500D01*
X70000Y322000D01*
Y382500D01*
X72230Y384730D01*
X430370D01*
G37*
G36*
G01X137500Y190000D02*
X149000D01*
X150500Y188500D01*
Y171000D01*
X154500Y167000D01*
X212500D01*
X214500Y165000D01*
Y157000D01*
X214000Y156500D01*
X120500D01*
X117500Y159500D01*
X86500D01*
G02X86100Y159900I0J400D01*
G03X82660I-1720J-20D01*
G02X82260Y159500I-400J0D01*
G01X81170D01*
G02X80770Y159910I-1J400D01*
G03X77330I-1720J40D01*
G02X76930Y159500I-399J-10D01*
G01X55960D01*
X55930Y159510D01*
G03X54830I-550J-1636D01*
G01X54800Y159500D01*
X42000D01*
X41100Y158600D01*
X40990Y158630D01*
G03X40530Y158690I-451J-1661D01*
G03X38810Y156970I0J-1720D01*
G03X38870Y156510I1721J-9D01*
G01X38900Y156400D01*
X36000Y153500D01*
Y116500D01*
X34000Y114500D01*
X22000D01*
X20500Y116000D01*
Y165500D01*
X26500Y171500D01*
X79660D01*
G03X81340I840J1494D01*
G01X83660D01*
G03X85340I840J1494D01*
G01X87660D01*
G03X89340I840J1494D01*
G01X119000D01*
X119130Y171370D01*
X119320Y170680D01*
Y170670D01*
G03X121000Y169290I1680J333D01*
G03X122710Y171000I0J1710D01*
G01Y171080D01*
G02X123110Y171500I399J21D01*
G01X130940D01*
X130960Y171330D01*
G03X131260Y170740I1049J162D01*
G01X132630Y169370D01*
X132820Y168680D01*
Y168670D01*
G03X134500Y167290I1680J333D01*
G03X136210Y169000I0J1710D01*
G03X134830Y170680I-1713J0D01*
G01X134820D01*
X134130Y170870D01*
X133500Y171500D01*
X136500Y174500D01*
Y189000D01*
X137500Y190000D01*
G37*
G36*
G01X12390Y121090D02*
X13160Y118240D01*
X16230Y118780D01*
X16770Y121850D01*
X13920Y122620D01*
G03X12390Y121090I-320J-1210D01*
G37*
G36*
G01X13920Y115380D02*
X16770Y116150D01*
X16230Y119220D01*
X13160Y119760D01*
X12390Y116910D01*
G03X13920Y115380I1210J-320D01*
G37*
G36*
G01X14500Y222000D02*
X12500Y224000D01*
Y240500D01*
X14000Y242000D01*
X26500D01*
X29500Y245000D01*
Y254500D01*
X31000Y256000D01*
X77500D01*
X79000Y254500D01*
Y223000D01*
X78000Y222000D01*
X14500D01*
G37*
G36*
G01X28680Y334870D02*
X27750Y333500D01*
X29000Y330750D01*
X30250Y333500D01*
X29320Y334870D01*
G03X28680I-320J-950D01*
G37*
G36*
G01X21420Y327030D02*
X22250Y328500D01*
X21000Y331190D01*
X19750Y328500D01*
X20580Y327030D01*
G03X21420I420J620D01*
G37*
G36*
G01X20580Y334970D02*
X19750Y333500D01*
X21000Y330810D01*
X22250Y333500D01*
X21420Y334970D01*
G03X20580I-420J-620D01*
G37*
G36*
G01X24680Y334870D02*
X23750Y333500D01*
X25000Y330750D01*
X26250Y333500D01*
X25320Y334870D01*
G03X24680I-320J-950D01*
G37*
G36*
G01X25740Y332050D02*
X27250Y335180D01*
X24860Y337810D01*
X22490Y335180D01*
X24300Y332010D01*
G03X25740Y332050I701J718D01*
G37*
G36*
G01X29320Y347130D02*
X30250Y348500D01*
X29000Y351250D01*
X27750Y348500D01*
X28680Y347130D01*
G03X29320I320J950D01*
G37*
G36*
G01X28680Y354870D02*
X27750Y353500D01*
X29000Y350750D01*
X30250Y353500D01*
X29320Y354870D01*
G03X28680I-320J-950D01*
G37*
G36*
G01X21420Y347030D02*
X22250Y348500D01*
X21000Y351190D01*
X19750Y348500D01*
X20580Y347030D01*
G03X21420I420J620D01*
G37*
G36*
G01X20580Y354970D02*
X19750Y353500D01*
X21000Y350810D01*
X22250Y353500D01*
X21420Y354970D01*
G03X20580I-420J-620D01*
G37*
G36*
G01X24680Y354870D02*
X23750Y353500D01*
X25000Y350750D01*
X26250Y353500D01*
X25320Y354870D01*
G03X24680I-320J-950D01*
G37*
G36*
G01X25740Y352050D02*
X27250Y355180D01*
X24860Y357810D01*
X22490Y355180D01*
X24300Y352010D01*
G03X25740Y352050I701J718D01*
G37*
G36*
G01X24680Y374870D02*
X23750Y373500D01*
X25000Y370750D01*
X26250Y373500D01*
X25320Y374870D01*
G03X24680I-320J-950D01*
G37*
G36*
G01X25740Y372050D02*
X27250Y375180D01*
X24860Y377810D01*
X22490Y375180D01*
X24300Y372010D01*
G03X25740Y372050I701J718D01*
G37*
G36*
G01X28680Y374870D02*
X27750Y373500D01*
X29000Y370750D01*
X30250Y373500D01*
X29320Y374870D01*
G03X28680I-320J-950D01*
G37*
G36*
G01X29320Y367130D02*
X30250Y368500D01*
X29000Y371250D01*
X27750Y368500D01*
X28680Y367130D01*
G03X29320I320J950D01*
G37*
G36*
G01X21420Y367030D02*
X22250Y368500D01*
X21000Y371190D01*
X19750Y368500D01*
X20580Y367030D01*
G03X21420I420J620D01*
G37*
G36*
G01X48900Y376380D02*
X51750Y377150D01*
X51210Y380220D01*
X48140Y380760D01*
X47370Y377910D01*
G03X48900Y376380I1210J-320D01*
G37*
G36*
G01X60870Y8320D02*
X59500Y9250D01*
X56750Y8000D01*
X59500Y6750D01*
X60870Y7680D01*
G03Y8320I-950J320D01*
G37*
G36*
G01X58050Y7260D02*
X61180Y5750D01*
X63810Y8140D01*
X61180Y10510D01*
X58010Y8700D01*
G03X58050Y7260I718J-701D01*
G37*
G36*
G01X53130Y11680D02*
X54500Y10750D01*
X57250Y12000D01*
X54500Y13250D01*
X53130Y12320D01*
G03Y11680I950J-320D01*
G37*
G36*
G01X60970Y12420D02*
X59500Y13250D01*
X56810Y12000D01*
X59500Y10750D01*
X60970Y11580D01*
G03Y12420I-620J420D01*
G37*
G36*
G01X60870Y4320D02*
X59500Y5250D01*
X56750Y4000D01*
X59500Y2750D01*
X60870Y3680D01*
G03Y4320I-950J320D01*
G37*
G36*
G01X59830Y38760D02*
X58740Y38460D01*
X58940Y37440D01*
X59960Y37240D01*
X60260Y38330D01*
G03X59830Y38760I-340J90D01*
G37*
G36*
G01X131540Y142500D02*
G03X131920Y141420I1712J-5D01*
G01X130310Y139810D01*
X127640D01*
G03X126890Y139500I0J-1062D01*
G01X123730Y136340D01*
G03X123440Y135800I750J-750D01*
G02X123000Y135480I-391J76D01*
G01X117000D01*
G03X116490Y134970I0J-510D01*
G01Y130500D01*
X94500D01*
X92910Y128910D01*
X92790Y128960D01*
G03X92120Y129100I-679J-1578D01*
G03X90400Y127380I0J-1720D01*
G03X90540Y126710I1718J9D01*
G01X90590Y126590D01*
X90500Y126500D01*
Y74000D01*
X89000Y72500D01*
X54000D01*
X52000Y74500D01*
Y148000D01*
X56000Y152000D01*
X120790D01*
G02X121170Y151480I-1J-400D01*
G03X121030Y150560I2953J-920D01*
G03X127230I3100J0D01*
G03X127090Y151480I-3093J0D01*
G02X127470Y152000I381J120D01*
G01X128870D01*
G02X129250Y151470I1J-401D01*
G03X129100Y150560I2748J-920D01*
G03X132000Y147660I2900J0D01*
G01X132090D01*
G02X132500Y147260I11J-399D01*
G01Y144040D01*
G03X131540Y142500I755J-1540D01*
G37*
G36*
G01X64610Y377910D02*
X63840Y380760D01*
X60770Y380220D01*
X60230Y377150D01*
X63080Y376380D01*
G03X64610Y377910I320J1210D01*
G37*
G36*
G01X73030Y11580D02*
X74500Y10750D01*
X77190Y12000D01*
X74500Y13250D01*
X73030Y12420D01*
G03Y11580I620J-420D01*
G37*
G36*
G01X80970Y12420D02*
X79500Y13250D01*
X76810Y12000D01*
X79500Y10750D01*
X80970Y11580D01*
G03Y12420I-620J420D01*
G37*
G36*
G01X80870Y8320D02*
X79500Y9250D01*
X76750Y8000D01*
X79500Y6750D01*
X80870Y7680D01*
G03Y8320I-950J320D01*
G37*
G36*
G01X78050Y7260D02*
X81180Y5750D01*
X83810Y8140D01*
X81180Y10510D01*
X78010Y8700D01*
G03X78050Y7260I718J-701D01*
G37*
G36*
G01X73130Y3680D02*
X74500Y2750D01*
X77250Y4000D01*
X74500Y5250D01*
X73130Y4320D01*
G03Y3680I950J-320D01*
G37*
G36*
G01X80870Y4320D02*
X79500Y5250D01*
X76750Y4000D01*
X79500Y2750D01*
X80870Y3680D01*
G03Y4320I-950J320D01*
G37*
G36*
G01X73250Y37430D02*
X72490Y37860D01*
X71880Y37000D01*
X72490Y36140D01*
X73250Y36570D01*
G03Y37430I-250J430D01*
G37*
G36*
G01X89750Y36570D02*
X90510Y36140D01*
X91120Y37000D01*
X90510Y37860D01*
X89750Y37430D01*
G03Y36570I250J-430D01*
G37*
G36*
G01X93030Y11580D02*
X94500Y10750D01*
X97190Y12000D01*
X94500Y13250D01*
X93030Y12420D01*
G03Y11580I620J-420D01*
G37*
G36*
G01X100870Y4320D02*
X99500Y5250D01*
X96750Y4000D01*
X99500Y2750D01*
X100870Y3680D01*
G03Y4320I-950J320D01*
G37*
G36*
G01X93130Y3680D02*
X94500Y2750D01*
X97250Y4000D01*
X94500Y5250D01*
X93130Y4320D01*
G03Y3680I950J-320D01*
G37*
G36*
G01X100870Y8320D02*
X99500Y9250D01*
X96750Y8000D01*
X99500Y6750D01*
X100870Y7680D01*
G03Y8320I-950J320D01*
G37*
G36*
G01X98050Y7260D02*
X101180Y5750D01*
X103810Y8140D01*
X101180Y10510D01*
X98010Y8700D01*
G03X98050Y7260I718J-701D01*
G37*
G36*
G01X96670Y47740D02*
X97760Y48040D01*
X97560Y49060D01*
X96540Y49260D01*
X96240Y48170D01*
G03X96670Y47740I340J-90D01*
G37*
G36*
G01X109500Y73000D02*
X104000D01*
X102000Y75000D01*
Y85500D01*
X102500Y86000D01*
X109500D01*
X110500Y85000D01*
Y74000D01*
X109500Y73000D01*
G37*
G36*
G01X103190Y95420D02*
X102950Y96260D01*
X101910Y96090D01*
X101740Y95050D01*
X102580Y94810D01*
G03X103190Y95420I130J480D01*
G37*
G36*
G01X102540Y94810D02*
X103510Y93790D01*
X106120Y95000D01*
X103510Y96210D01*
X102540Y95190D01*
G03Y94810I460J-190D01*
G37*
G36*
G01X101860Y98640D02*
X103500Y97750D01*
X106120Y99000D01*
X103500Y100250D01*
X101860Y99360D01*
G03Y98640I350J-360D01*
G37*
G36*
G01X103000Y99430D02*
X102240Y99860D01*
X101620Y99000D01*
X102240Y98140D01*
X103000Y98570D01*
G03Y99430I-250J430D01*
G37*
G36*
G01X92500Y116000D02*
X100000D01*
X100500Y115500D01*
Y108000D01*
X100000Y107500D01*
X92500D01*
X92000Y108000D01*
Y115500D01*
X92500Y116000D01*
G37*
G36*
G01X114360Y5530D02*
X116770Y3070D01*
X120250Y5990D01*
X116770Y8910D01*
X114360Y6450D01*
G03Y5530I890J-460D01*
G37*
G36*
G01X141510Y31000D02*
X147500D01*
X148000Y30500D01*
Y27840D01*
G03Y26160I1494J-840D01*
G01Y23500D01*
X140500Y16000D01*
Y8000D01*
X139500Y7000D01*
X132000D01*
X131000Y8000D01*
Y16000D01*
X140290Y25290D01*
X140380Y25280D01*
X140500D01*
G03X142220Y27000I0J1720D01*
G03X141710Y28220I-1714J0D01*
G01Y29000D01*
G03X141510Y29670I-1222J0D01*
G01Y31000D01*
G37*
G36*
G01X115500Y86000D02*
X128500D01*
X133500Y81000D01*
Y45000D01*
X136500Y42000D01*
X148500D01*
X149000Y41500D01*
Y36000D01*
X148500Y35500D01*
X130500D01*
X124500Y41500D01*
Y63000D01*
X123000Y64500D01*
X122690D01*
X122630Y64560D01*
G03X117310I-2660J-2566D01*
G01X117250Y64500D01*
X116500D01*
X115000Y66000D01*
Y85500D01*
X115500Y86000D01*
G37*
G36*
G01X116000Y97000D02*
X143500D01*
X146000Y94500D01*
Y67500D01*
X147880Y65620D01*
G02X147830Y65010I-280J-284D01*
G03X146280Y62000I2148J-3010D01*
G03X153660I3690J0D01*
G03X153620Y62540I-3690J-2D01*
G02X154020Y63000I395J60D01*
G01X155920D01*
G02X156320Y62540I5J-400D01*
G03X156280Y62000I3650J-542D01*
G03X158860Y58480I3691J0D01*
G01X159000Y58440D01*
Y42500D01*
X158000Y41500D01*
Y36000D01*
X157500Y35500D01*
X150500D01*
X150010Y35990D01*
Y41920D01*
X150000Y41930D01*
Y42000D01*
X149000Y43000D01*
X148930D01*
X148920Y43010D01*
X137490D01*
X135000Y45500D01*
Y81500D01*
X133850Y82650D01*
G02X134130Y83330I281J282D01*
G01X138120D01*
G03X138830Y84040I-5J715D01*
G01Y89960D01*
G03X138120Y90670I-715J-5D01*
G01X132200D01*
G03X131490Y89960I5J-715D01*
G01Y85970D01*
G02X130810Y85690I-398J1D01*
G01X129500Y87000D01*
X128930D01*
X128920Y87010D01*
X115490D01*
X115000Y87500D01*
Y96000D01*
X116000Y97000D01*
G37*
G36*
G01X115260Y174170D02*
X114960Y175260D01*
X113940Y175060D01*
X113740Y174040D01*
X114830Y173740D01*
G03X115260Y174170I90J340D01*
G37*
G36*
G01X119740Y171830D02*
X120040Y170740D01*
X121060Y170940D01*
X121260Y171960D01*
X120170Y172260D01*
G03X119740Y171830I-90J-340D01*
G37*
G36*
G01X132310Y179270D02*
X134770Y183300D01*
X132010Y185090D01*
X129250Y183300D01*
X131710Y179270D01*
G03X132310I300J180D01*
G37*
G36*
G01X150510Y31000D02*
X156500D01*
X157000Y30500D01*
Y27840D01*
G03Y26160I1494J-840D01*
G01Y22000D01*
X150500Y15500D01*
Y8000D01*
X149500Y7000D01*
X143000D01*
X142000Y8000D01*
Y15500D01*
X150000Y23500D01*
Y25350D01*
X150130Y25400D01*
G03X151220Y27000I-629J1600D01*
G03X150710Y28220I-1714J0D01*
G01Y29000D01*
G03X150510Y29670I-1222J0D01*
G01Y31000D01*
G37*
G36*
G01X159510D02*
X166000D01*
X166090Y30910D01*
Y29200D01*
G03X166260Y28580I1216J0D01*
G01X166290Y28530D01*
Y28220D01*
X166240Y28170D01*
G03X165780Y27000I1258J-1170D01*
G03X166500Y25600I1721J0D01*
G01Y20500D01*
X160500Y14500D01*
Y8000D01*
X159500Y7000D01*
X153000D01*
X152000Y8000D01*
Y15000D01*
X159000Y22000D01*
Y25350D01*
X159130Y25400D01*
G03X160220Y27000I-629J1600D01*
G03X159710Y28220I-1714J0D01*
G01Y29000D01*
G03X159510Y29670I-1222J0D01*
G01Y31000D01*
G37*
G36*
G01X133240Y169830D02*
X133540Y168740D01*
X134560Y168940D01*
X134760Y169960D01*
X133670Y170260D01*
G03X133240Y169830I-90J-340D01*
G37*
G36*
G01X168510Y31000D02*
X176000D01*
X176500Y30500D01*
Y10500D01*
X173000Y7000D01*
X163000D01*
X162000Y8000D01*
Y14000D01*
X168000Y20000D01*
Y25350D01*
X168130Y25400D01*
G03X169220Y27000I-629J1600D01*
G03X168710Y28220I-1714J0D01*
G01Y29000D01*
G03X168510Y29670I-1222J0D01*
G01Y31000D01*
G37*
G36*
G01X204510D02*
X210500D01*
X211000Y30500D01*
Y27840D01*
G03Y26160I1494J-840D01*
G01Y23500D01*
X203500Y16000D01*
Y8000D01*
X202500Y7000D01*
X195000D01*
X194000Y8000D01*
Y16000D01*
X203290Y25290D01*
X203380Y25280D01*
X203500D01*
G03X205220Y27000I0J1720D01*
G03X204710Y28220I-1714J0D01*
G01Y29000D01*
G03X204510Y29670I-1222J0D01*
G01Y31000D01*
G37*
G36*
G01X213510D02*
X219500D01*
X220000Y30500D01*
Y27840D01*
G03Y26160I1494J-840D01*
G01Y22000D01*
X213500Y15500D01*
Y8000D01*
X212500Y7000D01*
X206000D01*
X205000Y8000D01*
Y15500D01*
X213000Y23500D01*
Y25350D01*
X213130Y25400D01*
G03X214220Y27000I-629J1600D01*
G03X213710Y28220I-1714J0D01*
G01Y29000D01*
G03X213510Y29670I-1222J0D01*
G01Y31000D01*
G37*
G36*
G01X222510D02*
X229000D01*
X229090Y30910D01*
Y29200D01*
G03X229260Y28580I1216J0D01*
G01X229290Y28530D01*
Y28220D01*
X229240Y28170D01*
G03X228780Y27000I1258J-1170D01*
G03X229500Y25600I1721J0D01*
G01Y20500D01*
X223500Y14500D01*
Y8000D01*
X222500Y7000D01*
X216000D01*
X215000Y8000D01*
Y15000D01*
X222000Y22000D01*
Y25350D01*
X222130Y25400D01*
G03X223220Y27000I-629J1600D01*
G03X222710Y28220I-1714J0D01*
G01Y29000D01*
G03X222510Y29670I-1222J0D01*
G01Y31000D01*
G37*
G36*
G01X213250Y186000D02*
X218000D01*
X219000Y185000D01*
Y178500D01*
X229000Y168500D01*
X281500D01*
X293500Y156500D01*
X308000D01*
X311000Y159500D01*
X316500D01*
X317500Y158500D01*
Y151900D01*
G03X316950Y151240I1004J-1396D01*
G02X316290Y151140I-363J168D01*
G03X315000Y151720I-1290J-1145D01*
G03X313280Y150000I0J-1720D01*
G03X313350Y149520I1719J6D01*
G02X312960Y149010I-385J-110D01*
G01X290990D01*
X277500Y162500D01*
X225000D01*
X222310Y165190D01*
X222330Y165280D01*
G03X222340Y165500I-1711J188D01*
G03X220620Y167220I-1720J0D01*
G03X220400Y167210I-32J-1721D01*
G01X220310Y167190D01*
X219070Y168430D01*
X219060Y168480D01*
G03X217740Y169800I-1680J-360D01*
G01X217690Y169810D01*
X212000Y175500D01*
Y184750D01*
X213250Y186000D01*
G37*
G36*
G01X231510Y31000D02*
X239000D01*
X239500Y30500D01*
Y10500D01*
X236000Y7000D01*
X226000D01*
X225000Y8000D01*
Y14000D01*
X231000Y20000D01*
Y25350D01*
X231130Y25400D01*
G03X232220Y27000I-629J1600D01*
G03X231710Y28220I-1714J0D01*
G01Y29000D01*
G03X231510Y29670I-1222J0D01*
G01Y31000D01*
G37*
G36*
G01X267510D02*
X273500D01*
X274000Y30500D01*
Y27840D01*
G03Y26160I1494J-840D01*
G01Y23500D01*
X266500Y16000D01*
Y8000D01*
X265500Y7000D01*
X258000D01*
X257000Y8000D01*
Y16000D01*
X266290Y25290D01*
X266380Y25280D01*
X266500D01*
G03X268220Y27000I0J1720D01*
G03X267710Y28220I-1714J0D01*
G01Y29000D01*
G03X267510Y29670I-1222J0D01*
G01Y31000D01*
G37*
G36*
G01X247330Y173260D02*
X246240Y172960D01*
X246440Y171940D01*
X247460Y171740D01*
X247760Y172830D01*
G03X247330Y173260I-340J90D01*
G37*
G36*
G01X276510Y31000D02*
X282500D01*
X283000Y30500D01*
Y27840D01*
G03Y26160I1494J-840D01*
G01Y22000D01*
X276500Y15500D01*
Y8000D01*
X275500Y7000D01*
X269000D01*
X268000Y8000D01*
Y15500D01*
X276000Y23500D01*
Y25350D01*
X276130Y25400D01*
G03X277220Y27000I-629J1600D01*
G03X276710Y28220I-1714J0D01*
G01Y29000D01*
G03X276510Y29670I-1222J0D01*
G01Y31000D01*
G37*
G36*
G01X285510D02*
X292000D01*
X292090Y30910D01*
Y29200D01*
G03X292260Y28580I1216J0D01*
G01X292290Y28530D01*
Y28220D01*
X292240Y28170D01*
G03X291780Y27000I1258J-1170D01*
G03X292500Y25600I1721J0D01*
G01Y20500D01*
X286500Y14500D01*
Y8000D01*
X285500Y7000D01*
X279000D01*
X278000Y8000D01*
Y15000D01*
X285000Y22000D01*
Y25350D01*
X285130Y25400D01*
G03X286220Y27000I-629J1600D01*
G03X285710Y28220I-1714J0D01*
G01Y29000D01*
G03X285510Y29670I-1222J0D01*
G01Y31000D01*
G37*
G36*
G01X294510D02*
X302000D01*
X302500Y30500D01*
Y10500D01*
X299000Y7000D01*
X289000D01*
X288000Y8000D01*
Y14000D01*
X294000Y20000D01*
Y25350D01*
X294130Y25400D01*
G03X295220Y27000I-629J1600D01*
G03X294710Y28220I-1714J0D01*
G01Y29000D01*
G03X294510Y29670I-1222J0D01*
G01Y31000D01*
G37*
G36*
G01X299420Y167170D02*
X299120Y168260D01*
X298100Y168060D01*
X297900Y167040D01*
X298990Y166740D01*
G03X299420Y167170I90J340D01*
G37*
G36*
G01X296570Y158990D02*
X295590Y159550D01*
X295010Y158690D01*
X295590Y157830D01*
X296570Y158390D01*
G03Y158990I-170J300D01*
G37*
G36*
G01X330510Y31000D02*
X336500D01*
X337000Y30500D01*
Y27840D01*
G03Y26160I1494J-840D01*
G01Y23500D01*
X329500Y16000D01*
Y8000D01*
X328500Y7000D01*
X321000D01*
X320000Y8000D01*
Y16000D01*
X329290Y25290D01*
X329380Y25280D01*
X329500D01*
G03X331220Y27000I0J1720D01*
G03X330710Y28220I-1714J0D01*
G01Y29000D01*
G03X330510Y29670I-1222J0D01*
G01Y31000D01*
G37*
G36*
G01X339510D02*
X345500D01*
X346000Y30500D01*
Y27840D01*
G03Y26160I1494J-840D01*
G01Y22000D01*
X339500Y15500D01*
Y8000D01*
X338500Y7000D01*
X332000D01*
X331000Y8000D01*
Y15500D01*
X339000Y23500D01*
Y25350D01*
X339130Y25400D01*
G03X340220Y27000I-629J1600D01*
G03X339710Y28220I-1714J0D01*
G01Y29000D01*
G03X339510Y29670I-1222J0D01*
G01Y31000D01*
G37*
G36*
G01X348510D02*
X355000D01*
X355090Y30910D01*
Y29200D01*
G03X355260Y28580I1216J0D01*
G01X355290Y28530D01*
Y28220D01*
X355240Y28170D01*
G03X354780Y27000I1258J-1170D01*
G03X355500Y25600I1721J0D01*
G01Y20500D01*
X349500Y14500D01*
Y8000D01*
X348500Y7000D01*
X342000D01*
X341000Y8000D01*
Y15000D01*
X348000Y22000D01*
Y25350D01*
X348130Y25400D01*
G03X349220Y27000I-629J1600D01*
G03X348710Y28220I-1714J0D01*
G01Y29000D01*
G03X348510Y29670I-1222J0D01*
G01Y31000D01*
G37*
G36*
G01X357510D02*
X365000D01*
X365500Y30500D01*
Y10500D01*
X362000Y7000D01*
X352000D01*
X351000Y8000D01*
Y14000D01*
X357000Y20000D01*
Y25350D01*
X357130Y25400D01*
G03X358220Y27000I-629J1600D01*
G03X357710Y28220I-1714J0D01*
G01Y29000D01*
G03X357510Y29670I-1222J0D01*
G01Y31000D01*
G37*
G36*
G01X393510D02*
X399500D01*
X400000Y30500D01*
Y27840D01*
G03Y26160I1494J-840D01*
G01Y23500D01*
X392500Y16000D01*
Y8000D01*
X391500Y7000D01*
X384000D01*
X383000Y8000D01*
Y16000D01*
X392290Y25290D01*
X392380Y25280D01*
X392500D01*
G03X394220Y27000I0J1720D01*
G03X393710Y28220I-1714J0D01*
G01Y29000D01*
G03X393510Y29670I-1222J0D01*
G01Y31000D01*
G37*
G36*
G01X402510D02*
X408500D01*
X409000Y30500D01*
Y27840D01*
G03Y26160I1494J-840D01*
G01Y22000D01*
X402500Y15500D01*
Y8000D01*
X401500Y7000D01*
X395000D01*
X394000Y8000D01*
Y15500D01*
X402000Y23500D01*
Y25350D01*
X402130Y25400D01*
G03X403220Y27000I-629J1600D01*
G03X402710Y28220I-1714J0D01*
G01Y29000D01*
G03X402510Y29670I-1222J0D01*
G01Y31000D01*
G37*
G36*
G01X420510D02*
X428000D01*
X428500Y30500D01*
Y10500D01*
X425000Y7000D01*
X415000D01*
X414000Y8000D01*
Y14000D01*
X420000Y20000D01*
Y25350D01*
X420130Y25400D01*
G03X421220Y27000I-629J1600D01*
G03X420710Y28220I-1714J0D01*
G01Y29000D01*
G03X420510Y29670I-1222J0D01*
G01Y31000D01*
G37*
G36*
G01X411510D02*
X418000D01*
X418090Y30910D01*
Y29200D01*
G03X418260Y28580I1216J0D01*
G01X418290Y28530D01*
Y28220D01*
X418240Y28170D01*
G03X417780Y27000I1258J-1170D01*
G03X418500Y25600I1721J0D01*
G01Y20500D01*
X412500Y14500D01*
Y8000D01*
X411500Y7000D01*
X405000D01*
X404000Y8000D01*
Y15000D01*
X411000Y22000D01*
Y25350D01*
X411130Y25400D01*
G03X412220Y27000I-629J1600D01*
G03X411710Y28220I-1714J0D01*
G01Y29000D01*
G03X411510Y29670I-1222J0D01*
G01Y31000D01*
G37*
%LPC*%
G75*
G36*
G01X7420Y6760D02*
Y12900D01*
G02X7930Y13410I510J0D01*
G01X14070D01*
G02X14580Y12900I0J-510D01*
G01Y6760D01*
G02X14070Y6250I-510J0D01*
G01X7930D01*
G02X7420Y6760I0J510D01*
G37*
G36*
G01X270790Y249500D02*
X330500D01*
X333000Y247000D01*
Y244000D01*
X334500Y242500D01*
X361360D01*
X361410Y242630D01*
G02X364590I1590J-630D01*
G01X364640Y242500D01*
X371500D01*
X381500Y232500D01*
Y218060D01*
X384560D01*
X386130Y219630D01*
X386320Y220320D01*
Y220330D01*
G02X389680I1680J-333D01*
G01Y220320D01*
X389870Y219630D01*
X390940Y218560D01*
X417500D01*
G02X418250Y218250I0J-1062D01*
G01X424940Y211560D01*
X435930D01*
X436490Y211880D01*
X436500Y211890D01*
G02X437500Y212210I1000J-1403D01*
G02Y208790I0J-1710D01*
G02X436500Y209110I0J1722D01*
G01X436490Y209120D01*
X435930Y209440D01*
X424500D01*
G02X423750Y209750I0J1062D01*
G01X417060Y216440D01*
X415860D01*
G03X415510Y215850I3J-400D01*
G02X415710Y215050I-1500J-800D01*
G02X414000Y213340I-1710J0D01*
G01X394000D01*
G02X392290Y215050I0J1710D01*
G02X392490Y215850I1700J0D01*
G03X392140Y216440I-353J190D01*
G01X390500D01*
G02X389750Y216750I0J1062D01*
G01X388370Y218130D01*
X388000Y218230D01*
X387630Y218130D01*
X385750Y216250D01*
G02X385000Y215940I-750J752D01*
G01X381500D01*
Y209500D01*
X377000Y205000D01*
X366000D01*
X365750Y204750D01*
G02X365000Y204440I-750J752D01*
G01X346940D01*
X345500Y203000D01*
X324850D01*
X324650Y202800D01*
G02X324510Y202680I-758J743D01*
G03X324460Y202410I117J-161D01*
G02X324720Y201500I-1463J-910D01*
G02X321280I-1720J0D01*
G02X321350Y201980I1719J-6D01*
G03X320960Y202490I-385J110D01*
G01X320040D01*
G03X319650Y201980I-5J-400D01*
G02X319720Y201500I-1649J-486D01*
G02X316280I-1720J0D01*
G02X316350Y201980I1719J-6D01*
G03X315960Y202490I-385J110D01*
G01X305040D01*
G03X304650Y201980I-5J-400D01*
G02X304720Y201500I-1649J-486D01*
G02X301280I-1720J0D01*
G02X301350Y201980I1719J-6D01*
G03X300960Y202490I-385J110D01*
G01X290040D01*
G03X289650Y201980I-5J-400D01*
G02X289720Y201500I-1649J-486D01*
G02X286280I-1720J0D01*
G02X286350Y201980I1719J-6D01*
G03X285960Y202490I-385J110D01*
G01X260040D01*
G03X259650Y201980I-5J-400D01*
G02X259720Y201500I-1649J-486D01*
G02X256280I-1720J0D01*
G02X256350Y201980I1719J-6D01*
G03X255960Y202490I-385J110D01*
G01X250040D01*
G03X249650Y201980I-5J-400D01*
G02X249720Y201500I-1649J-486D01*
G02X246280I-1720J0D01*
G02X246350Y201980I1719J-6D01*
G03X245960Y202490I-385J110D01*
G01X235030D01*
G03X234640Y201980I-5J-400D01*
G02X234710Y201500I-1639J-484D01*
G02X233000Y199790I-1710J0D01*
G02X232000Y200110I0J1722D01*
G01X231990Y200120D01*
X231430Y200440D01*
X189320D01*
X187870Y198990D01*
X187680Y198300D01*
Y198290D01*
G02X186000Y196910I-1680J333D01*
G02X184290Y198620I0J1710D01*
G02X185670Y200300I1713J0D01*
G01X185680D01*
X186370Y200490D01*
X187690Y201810D01*
G03X187400Y202490I-285J280D01*
G01X185990D01*
X181750Y198250D01*
G02X181000Y197940I-750J752D01*
G01X179070D01*
X178510Y197620D01*
X178500Y197610D01*
G02X177500Y197290I-1000J1403D01*
G02Y200710I0J1710D01*
G02X178500Y200390I0J-1722D01*
G01X178510Y200380D01*
X179070Y200060D01*
X179370D01*
Y200390D01*
X179250Y200440D01*
G02X178250Y202000I717J1560D01*
G02X178320Y202490I1711J6D01*
G03X177940Y203000I-384J111D01*
G01X177340D01*
X176710Y202370D01*
X176520Y201680D01*
Y201670D01*
G02X174840Y200290I-1680J333D01*
G02X173700Y200720I-5J1712D01*
G01X173590Y200820D01*
X173350Y200680D01*
Y200560D01*
X173660Y200010D01*
X173670Y200000D01*
G02X173990Y199000I-1403J-1000D01*
G02X170570I-1710J0D01*
G02X170610Y199360I1709J-8D01*
G03X170120Y199840I-391J91D01*
G02X169720Y199790I-410J1659D01*
G02X168830Y200040I0J1709D01*
G03X168220Y199700I-210J-341D01*
G01Y199570D01*
X168540Y199010D01*
X168550Y199000D01*
G02X168870Y198000I-1402J-1000D01*
G02X167160Y196290I-1710J0D01*
G02X165450Y197970I0J1710D01*
G03X164950Y198350I-400J-7D01*
G02X164500Y198290I-450J1658D01*
G02X162790Y200000I0J1710D01*
G02X163110Y201000I1722J0D01*
G01X163120Y201010D01*
X163440Y201570D01*
Y203500D01*
G02X163750Y204250I1062J0D01*
G01X172000Y212500D01*
Y214620D01*
X171760Y214690D01*
X171750D01*
G02X170290Y216380I248J1690D01*
G02X172000Y218090I1710J0D01*
G02X173020Y217760I9J-1713D01*
G01X173150Y217650D01*
X174500Y219000D01*
X229970D01*
G03X230350Y219510I-4J399D01*
G02X230280Y220000I1651J486D01*
G02X233720I1720J0D01*
G02X233650Y219510I-1721J-4D01*
G03X234030Y219000I384J-111D01*
G01X234450D01*
Y219240D01*
X234440Y219280D01*
G02X234280Y220000I1559J724D01*
G02X237720I1720J0D01*
G02X237650Y219510I-1721J-4D01*
G03X238030Y219000I384J-111D01*
G01X238450D01*
Y219240D01*
X238440Y219280D01*
G02X238280Y220000I1559J724D01*
G02X241720I1720J0D01*
G02X241650Y219510I-1721J-4D01*
G03X242030Y219000I384J-111D01*
G01X255000D01*
X257500Y221500D01*
Y241500D01*
X265500Y249500D01*
X268010D01*
G02X270790I1390J-1006D01*
G37*
G36*
G01X188330Y359540D02*
Y365460D01*
G02X189040Y366170I715J-5D01*
G01X194960D01*
G02X195670Y365460I-5J-715D01*
G01Y359540D01*
G02X194960Y358830I-715J5D01*
G01X189040D01*
G02X188330Y359540I5J715D01*
G37*
G36*
G01X437060Y36930D02*
Y43070D01*
G02X437770Y43780I710J0D01*
G01X443910D01*
G02X444620Y43070I0J-710D01*
G01Y36930D01*
G02X443910Y36220I-710J0D01*
G01X437770D01*
G02X437060Y36930I0J710D01*
G37*
G36*
G01X529390Y19930D02*
Y26070D01*
G02X530100Y26780I710J0D01*
G01X536240D01*
G02X536950Y26070I0J-710D01*
G01Y19930D01*
G02X536240Y19220I-710J0D01*
G01X530100D01*
G02X529390Y19930I0J710D01*
G37*
G36*
G01X529590Y156930D02*
Y163070D01*
G02X530100Y163580I510J0D01*
G01X536240D01*
G02X536750Y163070I0J-510D01*
G01Y156930D01*
G02X536240Y156420I-510J0D01*
G01X530100D01*
G02X529590Y156930I0J510D01*
G37*
G36*
G01X92330Y291880D02*
Y297800D01*
G02X93040Y298510I715J-5D01*
G01X98960D01*
G02X99670Y297800I-5J-715D01*
G01Y291880D01*
G02X98960Y291170I-715J5D01*
G01X93040D01*
G02X92330Y291880I5J715D01*
G37*
G36*
G01X476820Y150490D02*
X481160D01*
G02Y141190I-5J-4650D01*
G01X476820D01*
G02Y150490I5J4650D01*
G37*
G36*
G01Y135920D02*
X481160D01*
G02Y126620I-5J-4650D01*
G01X476820D01*
G02Y135920I5J4650D01*
G37*
G36*
G01Y104420D02*
X481160D01*
G02Y95120I-5J-4650D01*
G01X476820D01*
G02Y104420I5J4650D01*
G37*
G36*
G01Y118990D02*
X481160D01*
G02Y109690I-5J-4650D01*
G01X476820D01*
G02Y118990I5J4650D01*
G37*
G36*
G01X15230Y247130D02*
Y256890D01*
G02X15940Y257600I710J0D01*
G01X25700D01*
G02X26410Y256890I0J-710D01*
G01Y247130D01*
G02X25700Y246420I-710J0D01*
G01X15940D01*
G02X15230Y247130I0J710D01*
G37*
G36*
G01X517590Y114110D02*
Y123870D01*
G02X518300Y124580I710J0D01*
G01X528060D01*
G02X528770Y123870I0J-710D01*
G01Y114110D01*
G02X528060Y113400I-710J0D01*
G01X518300D01*
G02X517590Y114110I0J710D01*
G37*
G36*
G01X464050Y362360D02*
Y366680D01*
G02X469010I2480J5D01*
G01Y362360D01*
G02X464050I-2480J-5D01*
G37*
G36*
G01X429990D02*
Y366680D01*
G02X434950I2480J5D01*
G01Y362360D01*
G02X429990I-2480J-5D01*
G37*
G36*
G01X364100Y324060D02*
Y328820D01*
G02X364810Y329530I710J0D01*
G01X369570D01*
G02X370280Y328820I0J-710D01*
G01Y324060D01*
G02X369570Y323350I-710J0D01*
G01X364810D01*
G02X364100Y324060I0J710D01*
G37*
G36*
G01X95720Y375180D02*
Y379940D01*
G02X96430Y380650I710J0D01*
G01X101190D01*
G02X101900Y379940I0J-710D01*
G01Y375180D01*
G02X101190Y374470I-710J0D01*
G01X96430D01*
G02X95720Y375180I0J710D01*
G37*
G36*
G01X458220Y345680D02*
Y350440D01*
G02X458930Y351150I710J0D01*
G01X463690D01*
G02X464400Y350440I0J-710D01*
G01Y345680D01*
G02X463690Y344970I-710J0D01*
G01X458930D01*
G02X458220Y345680I0J710D01*
G37*
G36*
G01X459350Y38370D02*
Y43130D01*
G02X460060Y43840I710J0D01*
G01X464820D01*
G02X465530Y43130I0J-710D01*
G01Y38370D01*
G02X464820Y37660I-710J0D01*
G01X460060D01*
G02X459350Y38370I0J710D01*
G37*
G36*
G01X518220Y97940D02*
Y104080D01*
G02X518930Y104790I710J0D01*
G01X525070D01*
G02X525780Y104080I0J-710D01*
G01Y97940D01*
G02X525070Y97230I-710J0D01*
G01X518930D01*
G02X518220Y97940I0J710D01*
G37*
G36*
G01Y68940D02*
Y75080D01*
G02X518930Y75790I710J0D01*
G01X525070D01*
G02X525780Y75080I0J-710D01*
G01Y68940D01*
G02X525070Y68230I-710J0D01*
G01X518930D01*
G02X518220Y68940I0J710D01*
G37*
G36*
G01X164600Y37500D02*
G02Y39500I1402J1000D01*
G02X164280Y40500I1402J1000D01*
G02X166000Y42220I1720J0D01*
G02X167220Y41720I6J-1723D01*
G03X167780I280J278D01*
G02X169000Y42220I1214J-1223D01*
G02X170720Y40500I0J-1720D01*
G02X170400Y39500I-1723J0D01*
G02Y37500I-1402J-1000D01*
G02X170720Y36500I-1402J-1000D01*
G02X169000Y34780I-1720J0D01*
G02X167780Y35280I-6J1723D01*
G03X167220I-280J-278D01*
G02X166000Y34780I-1214J1223D01*
G02X164280Y36500I0J1720D01*
G02X164600Y37500I1723J0D01*
G37*
G36*
G01X173600D02*
G02Y39500I1403J1000D01*
G02X173280Y40500I1403J1000D01*
G02X176720I1720J0D01*
G02X176400Y39500I-1723J0D01*
G02Y37500I-1403J-1000D01*
G02X176720Y36500I-1403J-1000D01*
G02X173280I-1720J0D01*
G02X173600Y37500I1723J0D01*
G37*
G36*
G01X227600D02*
G02Y39500I1402J1000D01*
G02X227280Y40500I1402J1000D01*
G02X229000Y42220I1720J0D01*
G02X230220Y41720I6J-1723D01*
G03X230780I280J278D01*
G02X232000Y42220I1214J-1223D01*
G02X233720Y40500I0J-1720D01*
G02X233400Y39500I-1722J0D01*
G02Y37500I-1403J-1000D01*
G02X233720Y36500I-1403J-1000D01*
G02X232000Y34780I-1720J0D01*
G02X230780Y35280I-6J1723D01*
G03X230220I-280J-278D01*
G02X229000Y34780I-1214J1223D01*
G02X227280Y36500I0J1720D01*
G02X227600Y37500I1722J0D01*
G37*
G36*
G01X236600D02*
G02Y39500I1403J1000D01*
G02X236280Y40500I1403J1000D01*
G02X239720I1720J0D01*
G02X239400Y39500I-1722J0D01*
G02Y37500I-1403J-1000D01*
G02X239720Y36500I-1403J-1000D01*
G02X236280I-1720J0D01*
G02X236600Y37500I1723J0D01*
G37*
G36*
G01X290600D02*
G02Y39500I1403J1000D01*
G02X290280Y40500I1403J1000D01*
G02X292000Y42220I1720J0D01*
G02X293220Y41720I6J-1723D01*
G03X293780I280J278D01*
G02X295000Y42220I1214J-1223D01*
G02X296720Y40500I0J-1720D01*
G02X296400Y39500I-1723J0D01*
G02Y37500I-1403J-1000D01*
G02X296720Y36500I-1403J-1000D01*
G02X295000Y34780I-1720J0D01*
G02X293780Y35280I-6J1723D01*
G03X293220I-280J-278D01*
G02X292000Y34780I-1214J1223D01*
G02X290280Y36500I0J1720D01*
G02X290600Y37500I1723J0D01*
G37*
G36*
G01X299600D02*
G02Y39500I1403J1000D01*
G02X299280Y40500I1403J1000D01*
G02X302720I1720J0D01*
G02X302400Y39500I-1722J0D01*
G02Y37500I-1403J-1000D01*
G02X302720Y36500I-1403J-1000D01*
G02X299280I-1720J0D01*
G02X299600Y37500I1722J0D01*
G37*
G36*
G01X353600D02*
G02Y39500I1403J1000D01*
G02X353280Y40500I1403J1000D01*
G02X355000Y42220I1720J0D01*
G02X356220Y41720I6J-1723D01*
G03X356780I280J278D01*
G02X358000Y42220I1214J-1223D01*
G02X359720Y40500I0J-1720D01*
G02X359400Y39500I-1723J0D01*
G02Y37500I-1403J-1000D01*
G02X359720Y36500I-1403J-1000D01*
G02X358000Y34780I-1720J0D01*
G02X356780Y35280I-6J1723D01*
G03X356220I-280J-278D01*
G02X355000Y34780I-1214J1223D01*
G02X353280Y36500I0J1720D01*
G02X353600Y37500I1723J0D01*
G37*
G36*
G01X362600D02*
G02Y39500I1403J1000D01*
G02X362280Y40500I1403J1000D01*
G02X365720I1720J0D01*
G02X365400Y39500I-1723J0D01*
G02Y37500I-1403J-1000D01*
G02X365720Y36500I-1403J-1000D01*
G02X362280I-1720J0D01*
G02X362600Y37500I1723J0D01*
G37*
G36*
G01X416600D02*
G02Y39500I1403J1000D01*
G02X416280Y40500I1403J1000D01*
G02X418000Y42220I1720J0D01*
G02X419220Y41720I6J-1723D01*
G03X419780I280J278D01*
G02X421000Y42220I1214J-1223D01*
G02X422720Y40500I0J-1720D01*
G02X422400Y39500I-1723J0D01*
G02Y37500I-1403J-1000D01*
G02X422720Y36500I-1403J-1000D01*
G02X421000Y34780I-1720J0D01*
G02X419780Y35280I-6J1723D01*
G03X419220I-280J-278D01*
G02X418000Y34780I-1214J1223D01*
G02X416280Y36500I0J1720D01*
G02X416600Y37500I1723J0D01*
G37*
G36*
G01X425600D02*
G02Y39500I1403J1000D01*
G02X425280Y40500I1403J1000D01*
G02X428720I1720J0D01*
G02X428400Y39500I-1723J0D01*
G02Y37500I-1403J-1000D01*
G02X428720Y36500I-1403J-1000D01*
G02X425280I-1720J0D01*
G02X425600Y37500I1722J0D01*
G37*
G36*
G01X472000Y65840D02*
G02Y69260I0J1710D01*
G02X473000Y68940I0J-1722D01*
G01X473010Y68930D01*
X473570Y68610D01*
X496450D01*
G02X497200Y68300I0J-1062D01*
G01X498630Y66870D01*
X499320Y66680D01*
X499330D01*
G02X500710Y65000I-333J-1680D01*
G02X499000Y63290I-1710J0D01*
G02X497320Y64670I0J1713D01*
G01Y64680D01*
X497130Y65370D01*
X496010Y66490D01*
X491820D01*
G03X491480Y65880I-1J-399D01*
G02X491720Y65000I-1493J-880D01*
G02X488280I-1720J0D01*
G02X488520Y65880I1733J0D01*
G03X488180Y66490I-339J211D01*
G01X473570D01*
X473010Y66170D01*
X473000Y66160D01*
G02X472000Y65840I-1000J1402D01*
G37*
G36*
G01X468500Y73710D02*
X496690D01*
X497000Y73890D01*
X497010D01*
G02X498000Y74210I995J-1388D01*
G02Y70790I0J-1710D01*
G02X497010Y71110I5J1708D01*
G01X497000D01*
X496690Y71290D01*
X469000D01*
X466280Y68570D01*
X466190Y68250D01*
Y68240D01*
G02X464500Y66790I-1690J260D01*
G02X462790Y68500I0J1710D01*
G02X464240Y70190I1710J0D01*
G01X464250D01*
X464570Y70280D01*
X467640Y73360D01*
G02X468500Y73710I852J-863D01*
G37*
G36*
G01X462790Y100500D02*
G02X466210I1710J0D01*
G02X465890Y99500I-1723J0D01*
G01X465880Y99490D01*
X465560Y98930D01*
Y89570D01*
X465880Y89010D01*
X465890Y89000D01*
G02X466210Y88000I-1403J-1000D01*
G02X462790I-1710J0D01*
G02X463110Y89000I1723J0D01*
G01X463120Y89010D01*
X463440Y89570D01*
Y98930D01*
X463120Y99490D01*
X463110Y99500D01*
G02X462790Y100500I1403J1000D01*
G37*
G36*
G01X431790Y124000D02*
G02X433500Y125710I1710J0D01*
G02X435190Y124260I0J-1710D01*
G01Y124250D01*
X435280Y123930D01*
X438000Y121210D01*
X455000D01*
G02X455860Y120860I8J-1213D01*
G01X458430Y118280D01*
X458750Y118190D01*
X458760D01*
G02X460210Y116500I-260J-1690D01*
G02X458500Y114790I-1710J0D01*
G02X456810Y116240I0J1710D01*
G01Y116250D01*
X456720Y116570D01*
X454500Y118790D01*
X437500D01*
G02X436640Y119140I-8J1213D01*
G01X433570Y122220D01*
X433250Y122310D01*
X433240D01*
G02X431790Y124000I260J1690D01*
G37*
G36*
G01X455790Y172500D02*
G02X459210I1710J0D01*
G02X458890Y171510I-1708J5D01*
G01Y171500D01*
X458710Y171190D01*
Y162500D01*
G02X458360Y161640I-1213J-8D01*
G01X447780Y151070D01*
X447690Y150750D01*
Y150740D01*
G02X446000Y149290I-1690J260D01*
G02X444290Y151000I0J1710D01*
G02X445740Y152690I1710J0D01*
G01X445750D01*
X446070Y152780D01*
X456290Y163000D01*
Y171190D01*
X456110Y171500D01*
Y171510D01*
G02X455790Y172500I1388J995D01*
G37*
G36*
G01X114000Y180710D02*
G02Y177290I0J-1710D01*
G02X113000Y177610I0J1723D01*
G01X112990Y177620D01*
X112430Y177940D01*
X101070D01*
X100510Y177620D01*
X100500Y177610D01*
G02X99500Y177290I-1000J1403D01*
G02Y180710I0J1710D01*
G02X100500Y180390I0J-1723D01*
G01X100510Y180380D01*
X101070Y180060D01*
X112430D01*
X112990Y180380D01*
X113000Y180390D01*
G02X114000Y180710I1000J-1403D01*
G37*
G36*
G01X486290Y183000D02*
G02X489710I1710J0D01*
G02X489390Y182010I-1708J5D01*
G01Y182000D01*
X489210Y181690D01*
Y163010D01*
X489530Y162690D01*
G03X490210Y162980I280J286D01*
G01Y163070D01*
G02X490920Y163780I710J0D01*
G01X497060D01*
G02X497770Y163070I0J-710D01*
G01Y156930D01*
G02X497060Y156220I-710J0D01*
G01X490920D01*
G02X490210Y156930I0J710D01*
G01Y158610D01*
X489860Y158980D01*
X489840Y158990D01*
G02X489650Y159140I653J1023D01*
G01X487140Y161650D01*
G02X486790Y162510I863J852D01*
G01Y181690D01*
X486610Y182000D01*
Y182010D01*
G02X486290Y183000I1388J995D01*
G37*
G36*
G01X340340Y192000D02*
G02X342050Y193710I1710J0D01*
G02X343730Y192330I0J-1713D01*
G01Y192320D01*
X343920Y191630D01*
X346500Y189050D01*
X353280D01*
X356880Y191120D01*
X356890Y191130D01*
G02X359000Y191770I2105J-3142D01*
G02Y184210I0J-3780D01*
G02X356890Y184850I-5J3782D01*
G01X356880Y184860D01*
X353280Y186930D01*
X346060D01*
G02X345310Y187240I0J1062D01*
G01X342420Y190130D01*
X341730Y190320D01*
X341720D01*
G02X340340Y192000I333J1680D01*
G37*
G36*
G01X263290Y193500D02*
G02X265000Y195210I1710J0D01*
G02X266680Y193830I0J-1713D01*
G01Y193820D01*
X266870Y193130D01*
X269190Y190810D01*
X269880Y190620D01*
X269890D01*
G02X271270Y188940I-333J-1680D01*
G02X269560Y187230I-1710J0D01*
G02X267880Y188610I0J1713D01*
G01Y188620D01*
X267690Y189310D01*
X265370Y191630D01*
X264680Y191820D01*
X264670D01*
G02X263290Y193500I333J1680D01*
G37*
G36*
G01X519280Y209850D02*
Y212570D01*
G02X519990Y213280I710J0D01*
G01X524750D01*
G02X525460Y212570I0J-710D01*
G01Y209850D01*
G02X525940Y208060I-3098J-1790D01*
G02X518800I-3570J0D01*
G02X519280Y209850I3578J0D01*
G37*
G36*
G01X99500Y211290D02*
G02Y214710I0J1710D01*
G02X100500Y214390I0J-1723D01*
G01X100510Y214380D01*
X101070Y214060D01*
X110500D01*
G02X111250Y213750I0J-1062D01*
G01X112630Y212370D01*
X113320Y212180D01*
X113330D01*
G02X114710Y210500I-333J-1680D01*
G02X113000Y208790I-1710J0D01*
G02X111320Y210170I0J1713D01*
G01Y210180D01*
X111130Y210870D01*
X110060Y211940D01*
X101070D01*
X100510Y211620D01*
X100500Y211610D01*
G02X99500Y211290I-1000J1403D01*
G37*
G36*
G01X462000Y219210D02*
G02Y215790I0J-1710D01*
G02X461010Y216110I5J1708D01*
G01X461000D01*
X460690Y216290D01*
X456340D01*
X456030Y216110D01*
X456020D01*
G02X455030Y215790I-995J1388D01*
G02Y219210I0J1710D01*
G02X456020Y218890I-5J-1708D01*
G01X456030D01*
X456340Y218710D01*
X460690D01*
X461000Y218890D01*
X461010D01*
G02X462000Y219210I995J-1388D01*
G37*
G36*
G01X435500Y224710D02*
G02X437210Y223000I0J-1710D01*
G02X435830Y221320I-1713J0D01*
G01X435820D01*
X435130Y221130D01*
X431370Y217370D01*
X431180Y216680D01*
Y216670D01*
G02X429500Y215290I-1680J333D01*
G02X427790Y217000I0J1710D01*
G02X429170Y218680I1713J0D01*
G01X429180D01*
X429870Y218870D01*
X433630Y222630D01*
X433820Y223320D01*
Y223330D01*
G02X435500Y224710I1680J-333D01*
G37*
G36*
G01X519470Y233810D02*
G02X519490Y234180I2902J29D01*
G02X519000Y235940I2883J1751D01*
G02X525740I3370J0D01*
G02X525250Y234180I-3373J-9D01*
G02X525270Y233810I-2882J-341D01*
G02X519470I-2900J0D01*
G37*
G36*
G01X391000Y248210D02*
G02Y244790I0J-1710D01*
G02X390010Y245110I5J1708D01*
G01X390000D01*
X389690Y245290D01*
X353310D01*
X353000Y245110D01*
X352990D01*
G02X352000Y244790I-995J1388D01*
G02Y248210I0J1710D01*
G02X352990Y247890I-5J-1708D01*
G01X353000D01*
X353310Y247710D01*
X389690D01*
X390000Y247890D01*
X390010D01*
G02X391000Y248210I995J-1388D01*
G37*
G36*
G01X402980Y264350D02*
G03X403680I350J201D01*
G02X405160Y265210I1480J-843D01*
G02X406870Y263500I0J-1710D01*
G02X405490Y261820I-1713J0D01*
G01X405480D01*
X404790Y261630D01*
X401910Y258750D01*
G02X401160Y258440I-750J752D01*
G01X382990D01*
X380420Y255870D01*
X380230Y255180D01*
Y255170D01*
G02X378550Y253790I-1680J333D01*
G02X376840Y255500I0J1710D01*
G02X377330Y256700I1714J0D01*
G03X377320Y257260I-289J275D01*
G02X376790Y258500I1186J1240D01*
G02X378170Y260180I1713J0D01*
G01X378180D01*
X378870Y260370D01*
X380250Y261750D01*
G02X381000Y262060I750J-752D01*
G01X398560D01*
X399630Y263130D01*
X399820Y263820D01*
Y263830D01*
G02X401500Y265210I1680J-333D01*
G02X402980Y264350I0J-1703D01*
G37*
G36*
G01X390500Y276560D02*
X395430D01*
X395990Y276880D01*
X396000Y276890D01*
G02X397000Y277210I1000J-1402D01*
G02Y273790I0J-1710D01*
G02X396470Y273870I-13J1712D01*
G03X395950Y273450I-124J-378D01*
G02X395960Y273250I-1701J-185D01*
G02X394250Y271540I-1710J0D01*
G02X393230Y271870I-9J1713D01*
G01X393220Y271880D01*
X392680Y272190D01*
X391190D01*
X388250Y269250D01*
G02X387500Y268940I-750J752D01*
G01X361300D01*
X361110Y268750D01*
G02X360360Y268440I-750J752D01*
G01X360070D01*
X359510Y268120D01*
X359500Y268110D01*
G02X358500Y267790I-1000J1402D01*
G02X356790Y269500I0J1710D01*
G02X357290Y270700I1707J-7D01*
G03Y270990I-147J145D01*
G02X356790Y272190I1207J1207D01*
G02X358500Y273900I1710J0D01*
G02X359500Y273580I0J-1722D01*
G01X359510Y273570D01*
X360070Y273250D01*
X386750D01*
X389750Y276250D01*
G02X390500Y276560I750J-752D01*
G37*
G36*
G01X519280Y274850D02*
Y277570D01*
G02X519990Y278280I710J0D01*
G01X524750D01*
G02X525460Y277570I0J-710D01*
G01Y274850D01*
G02X525940Y273060I-3098J-1790D01*
G02X518800I-3570J0D01*
G02X519280Y274850I3578J0D01*
G37*
G36*
G01X416250Y285910D02*
G02X419670I1710J0D01*
G02X419340Y284890I-1713J-9D01*
G01X419330Y284880D01*
X419020Y284340D01*
Y264980D01*
X419750Y264250D01*
G02X420060Y263500I-752J-750D01*
G01Y255000D01*
G02X419750Y254250I-1062J0D01*
G01X418110Y252610D01*
Y239550D01*
G02X417800Y238800I-1062J0D01*
G01X416870Y237870D01*
X416680Y237180D01*
Y237170D01*
G02X415000Y235790I-1680J333D01*
G02X413290Y237500I0J1710D01*
G02X414040Y238920I1719J0D01*
G03Y239580I-219J330D01*
G02X413290Y241000I969J1420D01*
G02X413610Y242000I1723J0D01*
G01X413620Y242010D01*
X413940Y242570D01*
Y253990D01*
G02X414250Y254740I1062J0D01*
G01X415890Y256380D01*
Y259930D01*
X415570Y260490D01*
X415560Y260500D01*
G02X415240Y261500I1403J1000D01*
G02X416950Y263210I1710J0D01*
G02X417310Y263170I-8J-1709D01*
G01X417410Y263150D01*
X417630Y263370D01*
X417210Y263790D01*
G02X416900Y264540I752J750D01*
G01Y284340D01*
X416590Y284880D01*
X416580Y284890D01*
G02X416250Y285910I1383J1011D01*
G37*
G36*
G01X473890Y295500D02*
G02X477310I1710J0D01*
G02X476990Y294500I-1723J0D01*
G01X476980Y294490D01*
X476660Y293930D01*
Y292600D01*
G02X476640Y292410I-1058J15D01*
G03X476810Y292180I199J-30D01*
G02X478210Y290500I-308J-1680D01*
G02X476830Y288820I-1713J0D01*
G01X476820D01*
X476130Y288630D01*
X469610Y282110D01*
Y269570D01*
X469930Y269010D01*
X469940Y269000D01*
G02X470260Y268000I-1403J-1000D01*
G02X468580Y266290I-1710J0D01*
G03X468200Y265840I15J-398D01*
G02X468210Y265620I-1701J-188D01*
G02X464790I-1710J0D01*
G02X465110Y266620I1723J0D01*
G01X465120Y266630D01*
X465440Y267190D01*
Y283500D01*
G02X465750Y284250I1062J0D01*
G01X474540Y293040D01*
Y293930D01*
X474220Y294490D01*
X474210Y294500D01*
G02X473890Y295500I1403J1000D01*
G37*
G36*
G01X519470Y298810D02*
G02X519490Y299180I2902J29D01*
G02X519000Y300940I2883J1751D01*
G02X525740I3370J0D01*
G02X525250Y299180I-3373J-9D01*
G02X525270Y298810I-2882J-341D01*
G02X519470I-2900J0D01*
G37*
G36*
G01X239380Y304590D02*
X245310D01*
X245620Y304770D01*
X245630D01*
G02X246620Y305090I995J-1388D01*
G02Y301670I0J-1710D01*
G02X245630Y301990I5J1708D01*
G01X245620D01*
X245310Y302170D01*
X239880D01*
X239040Y301320D01*
G02X238180Y300970I-852J863D01*
G01X217130D01*
X216820Y300790D01*
X216810D01*
G02X215820Y300470I-995J1388D01*
G02Y303890I0J1710D01*
G02X216810Y303570I-5J-1708D01*
G01X216820D01*
X217130Y303390D01*
X237680D01*
X238520Y304240D01*
G02X239380Y304590I852J-863D01*
G37*
G36*
G01X159040Y305210D02*
G02Y301790I0J-1710D01*
G02X158050Y302110I5J1708D01*
G01X158040D01*
X157730Y302290D01*
X151300D01*
X150990Y302110D01*
X150980D01*
G02X149990Y301790I-995J1388D01*
G02Y305210I0J1710D01*
G02X150980Y304890I-5J-1708D01*
G01X150990D01*
X151300Y304710D01*
X157730D01*
X158040Y304890D01*
X158050D01*
G02X159040Y305210I995J-1388D01*
G37*
G36*
G01X163050Y310710D02*
G02X164760Y309000I0J-1710D01*
G02X163310Y307310I-1710J0D01*
G01X163300D01*
X162980Y307220D01*
X161910Y306140D01*
G02X161050Y305790I-852J863D01*
G01X148810D01*
X148500Y305610D01*
X148490D01*
G02X147500Y305290I-995J1388D01*
G02Y308710I0J1710D01*
G02X148490Y308390I-5J-1708D01*
G01X148500D01*
X148810Y308210D01*
X160550D01*
X161270Y308930D01*
X161360Y309250D01*
Y309260D01*
G02X163050Y310710I1690J-260D01*
G37*
G36*
G01X165500Y317210D02*
G02X167210Y315500I0J-1710D01*
G02X165760Y313810I-1710J0D01*
G01X165750D01*
X165430Y313720D01*
X163860Y312140D01*
G02X163000Y311790I-852J863D01*
G01X148810D01*
X148500Y311610D01*
X148490D01*
G02X147500Y311290I-995J1388D01*
G02Y314710I0J1710D01*
G02X148490Y314390I-5J-1708D01*
G01X148500D01*
X148810Y314210D01*
X162500D01*
X163720Y315430D01*
X163810Y315750D01*
Y315760D01*
G02X165500Y317210I1690J-260D01*
G37*
G36*
G01X456520Y318880D02*
G03X456290Y319470I-340J207D01*
G02X455030Y321130I463J1660D01*
G02X458470I1720J0D01*
G02X458230Y320250I-1733J0D01*
G03X458460Y319660I340J-207D01*
G02X459720Y318000I-463J-1660D01*
G02X456280I-1720J0D01*
G02X456520Y318880I1733J0D01*
G37*
G36*
G01X267240Y322000D02*
G02X268950Y323710I1710J0D01*
G02X270630Y322330I0J-1713D01*
G01Y322320D01*
X270820Y321630D01*
X272550Y319900D01*
X311590D01*
X312150Y320220D01*
X312160Y320230D01*
G02X313160Y320550I1000J-1403D01*
G02Y317130I0J-1710D01*
G02X312160Y317450I0J1723D01*
G01X312150Y317460D01*
X311590Y317780D01*
X272110D01*
G02X271360Y318090I0J1062D01*
G01X269320Y320130D01*
X268630Y320320D01*
X268620D01*
G02X267240Y322000I333J1680D01*
G37*
G36*
G01X435690Y332120D02*
G03Y332380I-147J130D01*
G02X435280Y333500I1312J1115D01*
G02X438720I1720J0D01*
G02X438310Y332380I-1722J-5D01*
G03Y332120I147J-130D01*
G02X438720Y331000I-1312J-1115D01*
G02X435280I-1720J0D01*
G02X435690Y332120I1722J5D01*
G37*
G36*
G01X519280Y339850D02*
Y342570D01*
G02X519990Y343280I710J0D01*
G01X524750D01*
G02X525460Y342570I0J-710D01*
G01Y339850D01*
G02X525940Y338060I-3098J-1790D01*
G02X518800I-3570J0D01*
G02X519280Y339850I3578J0D01*
G37*
G36*
G01X289000Y353210D02*
G02Y349790I0J-1710D01*
G02X288000Y350110I0J1723D01*
G01X287990Y350120D01*
X287430Y350440D01*
X269570D01*
X269010Y350120D01*
X269000Y350110D01*
G02X268000Y349790I-1000J1403D01*
G02Y353210I0J1710D01*
G02X269000Y352890I0J-1723D01*
G01X269010Y352880D01*
X269570Y352560D01*
X287430D01*
X287990Y352880D01*
X288000Y352890D01*
G02X289000Y353210I1000J-1403D01*
G37*
G36*
G01X519470Y363810D02*
G02X519490Y364180I2902J29D01*
G02X519000Y365940I2883J1751D01*
G02X525740I3370J0D01*
G02X525250Y364180I-3373J-9D01*
G02X525270Y363810I-2882J-341D01*
G02X519470I-2900J0D01*
G37*
G36*
G01X126290Y368500D02*
G02X128000Y370210I1710J0D01*
G02X129680Y368830I0J-1713D01*
G01Y368820D01*
X129870Y368130D01*
X130230Y367770D01*
G03X130910Y368040I281J285D01*
G02X132620Y369710I1710J-40D01*
G02X133620Y369390I0J-1723D01*
G01X133630Y369380D01*
X134190Y369060D01*
X148000D01*
G02X148750Y368750I0J-1062D01*
G01X168440Y349060D01*
X283430D01*
X283990Y349380D01*
X284000Y349390D01*
G02X285000Y349710I1000J-1403D01*
G02Y346290I0J-1710D01*
G02X284000Y346610I0J1723D01*
G01X283990Y346620D01*
X283430Y346940D01*
X256030D01*
G03X255740Y346260I-5J-400D01*
G01X257630Y344370D01*
X258320Y344180D01*
X258330D01*
G02X259710Y342500I-333J-1680D01*
G02X258000Y340790I-1710J0D01*
G02X256320Y342170I0J1713D01*
G01Y342180D01*
X256130Y342870D01*
X253560Y345440D01*
X167000D01*
G02X166250Y345750I0J1062D01*
G01X147110Y364890D01*
X145860D01*
G03X145510Y364300I3J-400D01*
G02X145710Y363500I-1500J-800D01*
G02X144000Y361790I-1710J0D01*
G02X143010Y362110I5J1708D01*
G01X143000D01*
X142690Y362290D01*
X142410D01*
X142370Y362270D01*
G02X141880Y362170I-482J1112D01*
G01X130690D01*
X130380Y361990D01*
X130370D01*
G02X129380Y361670I-995J1388D01*
G02X127670Y363380I0J1710D01*
G02X129060Y365060I1710J0D01*
G03X129270Y365740I-74J395D01*
G01X128370Y366630D01*
X127680Y366820D01*
X127670D01*
G02X126290Y368500I333J1680D01*
G37*
G36*
G01X115170Y381050D02*
G03X115850Y381060I337J215D01*
G02X118080Y382340I2230J-1303D01*
G02X120210Y381220I0J-2585D01*
G03X120870I330J229D01*
G02X123000Y382340I2130J-1465D01*
G02X125230Y381060I0J-2583D01*
G03X125910Y381050I343J205D01*
G02X127920Y382140I2010J-1308D01*
G02X129890Y381100I0J-2386D01*
G01X129950Y381010D01*
X130260D01*
Y381620D01*
G02X130970Y382330I710J0D01*
G01X134710D01*
G02X135420Y381620I0J-710D01*
G01Y377880D01*
G02X134710Y377170I-710J0D01*
G01X130970D01*
G02X130260Y377880I0J710D01*
G01Y378490D01*
X129950D01*
X129890Y378400D01*
G02X127920Y377360I-1970J1346D01*
G02X125910Y378450I0J2398D01*
G03X125230Y378440I-337J-215D01*
G02X123000Y377160I-2230J1303D01*
G02X120870Y378280I0J2585D01*
G03X120210I-330J-229D01*
G02X118080Y377160I-2130J1465D01*
G02X115850Y378440I0J2583D01*
G03X115170Y378450I-343J-205D01*
G02X113160Y377360I-2010J1308D01*
G02Y382140I0J2390D01*
G02X115170Y381050I0J-2398D01*
G37*
G36*
G01X181200Y98760D02*
G02X179280Y102000I1774J3240D01*
G02X186660I3690J0D01*
G02X184740Y98760I-3694J0D01*
G03X184930Y98010I191J-351D01*
G01X206920D01*
X210010Y94920D01*
Y67920D01*
X212300Y65630D01*
X212400Y65650D01*
G02X212970Y65690I543J-3652D01*
G02X216060Y64010I0J-3682D01*
G01X219880D01*
G02X222970Y65690I3090J-2002D01*
G02X226660Y62000I0J-3690D01*
G02X223010Y58310I-3690J0D01*
G01Y42230D01*
X223190Y42210D01*
G02X224720Y40500I-191J-1710D01*
G02X224400Y39500I-1722J0D01*
G02Y37500I-1403J-1000D01*
G02X224720Y36500I-1403J-1000D01*
G02X223000Y34780I-1720J0D01*
G02X221880Y35190I-5J1722D01*
G01X221740Y35310D01*
X220920Y34490D01*
X213080D01*
X212500Y35070D01*
X211920Y34490D01*
X193080D01*
X186490Y41080D01*
Y59360D01*
G03X185780Y59610I-400J-3D01*
G02X182970Y58310I-2810J2387D01*
G02X179280Y62000I0J3690D01*
G02X179410Y62980I3691J9D01*
G03X179090Y63490I-384J114D01*
G01X176990Y65580D01*
Y85920D01*
X177570Y86500D01*
X176990Y87080D01*
Y96420D01*
X178580Y98010D01*
X181010D01*
G03X181200Y98760I-1J399D01*
G37*
G36*
G01X244200D02*
G02X242280Y102000I1774J3240D01*
G02X249660I3690J0D01*
G02X247740Y98760I-3694J0D01*
G03X247930Y98010I191J-351D01*
G01X269920D01*
X273010Y94920D01*
Y67920D01*
X275300Y65630D01*
X275400Y65650D01*
G02X275970Y65690I543J-3652D01*
G02X279060Y64010I0J-3682D01*
G01X282880D01*
G02X285970Y65690I3090J-2002D01*
G02X289660Y62000I0J-3690D01*
G02X286010Y58310I-3690J0D01*
G01Y42230D01*
X286190Y42210D01*
G02X287720Y40500I-191J-1710D01*
G02X287400Y39500I-1722J0D01*
G02Y37500I-1403J-1000D01*
G02X287720Y36500I-1403J-1000D01*
G02X286000Y34780I-1720J0D01*
G02X284880Y35190I-5J1722D01*
G01X284740Y35310D01*
X283920Y34490D01*
X276080D01*
X275500Y35070D01*
X274920Y34490D01*
X256080D01*
X249490Y41080D01*
Y59360D01*
G03X248780Y59610I-400J-3D01*
G02X245970Y58310I-2810J2387D01*
G02X242280Y62000I0J3690D01*
G02X242410Y62980I3691J9D01*
G03X242090Y63490I-384J114D01*
G01X239990Y65580D01*
Y85920D01*
X240570Y86500D01*
X239990Y87080D01*
Y96420D01*
X241580Y98010D01*
X244010D01*
G03X244200Y98760I-1J399D01*
G37*
G36*
G01X307200D02*
G02X305280Y102000I1774J3240D01*
G02X312660I3690J0D01*
G02X310740Y98760I-3694J0D01*
G03X310930Y98010I191J-351D01*
G01X332920D01*
X336010Y94920D01*
Y67920D01*
X338300Y65630D01*
X338400Y65650D01*
G02X338970Y65690I543J-3652D01*
G02X342060Y64010I0J-3682D01*
G01X345880D01*
G02X348970Y65690I3090J-2002D01*
G02X352660Y62000I0J-3690D01*
G02X349010Y58310I-3690J0D01*
G01Y42230D01*
X349190Y42210D01*
G02X350720Y40500I-191J-1710D01*
G02X350400Y39500I-1723J0D01*
G02Y37500I-1403J-1000D01*
G02X350720Y36500I-1403J-1000D01*
G02X349000Y34780I-1720J0D01*
G02X347880Y35190I-5J1722D01*
G01X347740Y35310D01*
X346920Y34490D01*
X339080D01*
X338500Y35070D01*
X337920Y34490D01*
X319080D01*
X312490Y41080D01*
Y59360D01*
G03X311780Y59610I-400J-3D01*
G02X308970Y58310I-2810J2387D01*
G02X305280Y62000I0J3690D01*
G02X305410Y62980I3691J9D01*
G03X305090Y63490I-384J114D01*
G01X302990Y65580D01*
Y85920D01*
X303570Y86500D01*
X302990Y87080D01*
Y96420D01*
X304580Y98010D01*
X307010D01*
G03X307200Y98760I-1J399D01*
G37*
G36*
G01X370200D02*
G02X368280Y102000I1774J3240D01*
G02X375660I3690J0D01*
G02X373740Y98760I-3694J0D01*
G03X373930Y98010I191J-351D01*
G01X395920D01*
X399010Y94920D01*
Y67920D01*
X401300Y65630D01*
X401400Y65650D01*
G02X401970Y65690I543J-3652D01*
G02X405060Y64010I0J-3682D01*
G01X408880D01*
G02X411970Y65690I3090J-2002D01*
G02X415660Y62000I0J-3690D01*
G02X412010Y58310I-3690J0D01*
G01Y42230D01*
X412190Y42210D01*
G02X413720Y40500I-191J-1710D01*
G02X413400Y39500I-1723J0D01*
G02Y37500I-1403J-1000D01*
G02X413720Y36500I-1403J-1000D01*
G02X412000Y34780I-1720J0D01*
G02X410880Y35190I-5J1722D01*
G01X410740Y35310D01*
X409920Y34490D01*
X402080D01*
X401500Y35070D01*
X400920Y34490D01*
X382080D01*
X375490Y41080D01*
Y59360D01*
G03X374780Y59610I-400J-3D01*
G02X371970Y58310I-2810J2387D01*
G02X368280Y62000I0J3690D01*
G02X368410Y62980I3691J9D01*
G03X368090Y63490I-384J114D01*
G01X365990Y65580D01*
Y85920D01*
X366570Y86500D01*
X365990Y87080D01*
Y96420D01*
X367580Y98010D01*
X370010D01*
G03X370200Y98760I-1J399D01*
G37*
G36*
G01X457550Y205210D02*
G02Y201790I0J-1710D01*
G02X456530Y202120I-9J1713D01*
G01X456520Y202130D01*
X455980Y202440D01*
X441440D01*
X439370Y200370D01*
X439190Y199720D01*
G03X439530Y199520I193J-60D01*
G01X439750Y199750D01*
G02X440500Y200060I750J-752D01*
G01X447430D01*
X447990Y200380D01*
X448000Y200390D01*
G02X449000Y200710I1000J-1402D01*
G02Y197290I0J-1710D01*
G02X448000Y197610I0J1722D01*
G01X447990Y197620D01*
X447430Y197940D01*
X440940D01*
X439370Y196370D01*
X439180Y195680D01*
Y195670D01*
G02X437500Y194290I-1680J333D01*
G02X435790Y196000I0J1710D01*
G02X437170Y197680I1713J0D01*
G01X437180D01*
X437870Y197870D01*
X437980Y197980D01*
G03X437970Y198260I-147J135D01*
G01X437900Y198330D01*
X437800Y198320D01*
G02X437500Y198290I-319J1678D01*
G02X435790Y200000I0J1710D01*
G02X437170Y201680I1713J0D01*
G01X437180D01*
X437870Y201870D01*
X440250Y204250D01*
G02X441000Y204560I750J-752D01*
G01X455980D01*
X456520Y204870D01*
X456530Y204880D01*
G02X457550Y205210I1011J-1383D01*
G37*
G36*
G01X236030Y245580D02*
G02X235280Y247000I969J1420D01*
G02X238720I1720J0D01*
G02X237970Y245580I-1719J0D01*
G03Y244920I226J-330D01*
G02X238720Y243500I-969J-1420D01*
G02X235280I-1720J0D01*
G02X236030Y244920I1719J0D01*
G03Y245580I-226J330D01*
G37*
G36*
G01X240030D02*
G02X239280Y247000I969J1420D01*
G02X242720I1720J0D01*
G02X241970Y245580I-1719J0D01*
G03Y244920I226J-330D01*
G02X242720Y243500I-969J-1420D01*
G02X239280I-1720J0D01*
G02X240030Y244920I1719J0D01*
G03Y245580I-226J330D01*
G37*
G36*
G01X217580Y255970D02*
G02X220420I1420J-969D01*
G03X221080I330J226D01*
G02X222500Y256720I1420J-969D01*
G02Y253280I0J-1720D01*
G02X221080Y254030I0J1719D01*
G03X220420I-330J-226D01*
G02X217580I-1420J969D01*
G03X216920I-330J-226D01*
G02X215500Y253280I-1420J969D01*
G02Y256720I0J1720D01*
G02X216920Y255970I0J-1719D01*
G03X217580I330J226D01*
G37*
G36*
G01X159580Y256970D02*
G02X162420I1420J-969D01*
G03X163080I330J226D01*
G02X164500Y257720I1420J-969D01*
G02Y254280I0J-1720D01*
G02X163080Y255030I0J1719D01*
G03X162420I-330J-226D01*
G02X159580I-1420J969D01*
G03X158920I-330J-226D01*
G02X157500Y254280I-1420J969D01*
G02Y257720I0J1720D01*
G02X158920Y256970I0J-1719D01*
G03X159580I330J226D01*
G37*
G36*
G01X455030Y300080D02*
G02X454280Y301500I969J1420D01*
G02X457720I1720J0D01*
G02X456970Y300080I-1719J0D01*
G03Y299420I226J-330D01*
G02X457720Y298000I-969J-1420D01*
G02X454280I-1720J0D01*
G02X455030Y299420I1719J0D01*
G03Y300080I-226J330D01*
G37*
G36*
G01X461030Y316580D02*
G02X460280Y318000I969J1420D01*
G02X463720I1720J0D01*
G02X462970Y316580I-1719J0D01*
G03Y315920I226J-330D01*
G02X463720Y314500I-969J-1420D01*
G02X460280I-1720J0D01*
G02X461030Y315920I1719J0D01*
G03Y316580I-226J330D01*
G37*
G36*
G01X257500Y307500D02*
X262290D01*
G03X262690Y307920I1J399D01*
G01Y308000D01*
G02X264400Y309710I1710J0D01*
G02X266080Y308330I0J-1713D01*
G01Y308320D01*
X266270Y307630D01*
X266400Y307500D01*
X285500D01*
X285550Y307630D01*
G02X288750I1600J-629D01*
G01X288800Y307500D01*
X350040D01*
Y325950D01*
X349700Y326290D01*
G02X349390Y327040I752J750D01*
G01Y331430D01*
X349070Y331990D01*
X349060Y332000D01*
G02X348740Y333000I1402J1000D01*
G02X350400Y334710I1711J0D01*
G03X350790Y335090I-9J399D01*
G02X352500Y336710I1710J-92D01*
G02X354210Y335000I0J-1710D01*
G02X354160Y334580I-1711J-9D01*
G01X354130Y334470D01*
X354350Y334250D01*
X354730Y334630D01*
X354920Y335320D01*
Y335330D01*
G02X355780Y336500I1678J-332D01*
G03X355870Y337130I-195J349D01*
G01X355060Y337940D01*
X345570D01*
X345010Y337620D01*
X345000Y337610D01*
G02X344000Y337290I-1000J1402D01*
G02Y340710I0J1710D01*
G02X345000Y340390I0J-1722D01*
G01X345010Y340380D01*
X345570Y340060D01*
X354470D01*
G03X354760Y340740I5J400D01*
G01X351060Y344440D01*
X339070D01*
X338510Y344120D01*
X338500Y344110D01*
G02X337500Y343790I-1000J1402D01*
G02Y347210I0J1710D01*
G02X338500Y346890I0J-1722D01*
G01X338510Y346880D01*
X339070Y346560D01*
X351500D01*
G02X352250Y346250I0J-1062D01*
G01X361250Y337250D01*
G02X361560Y336500I-752J-750D01*
G01Y320940D01*
X374250Y308250D01*
G02X374560Y307500I-752J-750D01*
G01Y302570D01*
X374880Y302010D01*
X374890Y302000D01*
G02X375210Y301000I-1403J-1000D01*
G02X374460Y299580I-1719J0D01*
G03Y298920I219J-330D01*
G02X375210Y297500I-969J-1420D01*
G02X373500Y295790I-1710J0D01*
G02X371820Y297170I0J1713D01*
G01Y297180D01*
X371630Y297870D01*
X370700Y298800D01*
G02X370390Y299550I752J750D01*
G01Y307110D01*
X363350Y314150D01*
G03X362680Y313990I-288J-279D01*
G02X362440Y313500I-1636J498D01*
G01X362430Y313490D01*
X362110Y312930D01*
Y312390D01*
X364750Y309750D01*
G02X365060Y309000I-752J-750D01*
G01Y295330D01*
X365380Y294770D01*
X365390Y294760D01*
G02X365710Y293760I-1403J-1000D01*
G02X365630Y293230I-1712J-13D01*
G03X366020Y292710I380J-122D01*
G02X367760Y291000I30J-1710D01*
G02X367690Y290520I-1709J4D01*
G03X368080Y290010I385J-110D01*
G01X383050D01*
G02X383800Y289700I0J-1062D01*
G01X384630Y288870D01*
X385320Y288680D01*
X385330D01*
G02X386710Y287000I-333J-1680D01*
G02X386200Y285780I-1714J0D01*
G03Y285220I284J-280D01*
G02X386710Y284000I-1204J-1220D01*
G02X385000Y282290I-1710J0D01*
G02X383320Y283670I0J1713D01*
G01Y283680D01*
X383130Y284370D01*
X381060Y286440D01*
X374860D01*
G03X374510Y285850I3J-400D01*
G02X374710Y285040I-1510J-802D01*
G01Y285030D01*
G03X375170Y284640I399J4D01*
G02X375450Y284660I262J-1691D01*
G02Y281240I0J-1710D01*
G02X374430Y281570I-9J1713D01*
G01X374420Y281580D01*
X373880Y281890D01*
X362050D01*
G02X361300Y282200I0J1062D01*
G01X353750Y289750D01*
X352500Y288500D01*
Y277500D01*
X347500Y272500D01*
X334000D01*
X330670Y269170D01*
G03X330780Y268530I286J-280D01*
G02X331720Y267000I-775J-1530D01*
G02X328280I-1720J0D01*
G01Y267080D01*
G03X327880Y267500I-399J21D01*
G01X325550D01*
G02X324830Y267220I-720J786D01*
G01X262070D01*
X259720Y264870D01*
X259530Y264180D01*
Y264170D01*
G02X257850Y262790I-1680J333D01*
G02X256140Y264500I0J1710D01*
G02X256640Y265710I1714J0D01*
G03Y266280I-279J285D01*
G02X256140Y267490I1214J1210D01*
G02X256400Y268400I1722J0D01*
G03X256240Y268970I-339J212D01*
G02X255330Y270130I759J1532D01*
G01X255320Y270180D01*
X255050Y270450D01*
G03X254720Y270360I-138J-142D01*
G01X254680Y270230D01*
Y270220D01*
G02X253000Y268840I-1680J333D01*
G02X251290Y270550I0J1710D01*
G02X251440Y271260I1712J9D01*
G01X251460Y271300D01*
Y271540D01*
X251070D01*
X250510Y271220D01*
X250500Y271210D01*
G02X249500Y270890I-1000J1403D01*
G02X247790Y272600I0J1710D01*
G02X248010Y273440I1714J0D01*
G03X247660Y274040I-346J200D01*
G01X181400D01*
G02X180650Y274350I0J1062D01*
G01X163870Y291130D01*
X163180Y291320D01*
X163170D01*
G02X161790Y293000I333J1680D01*
G02X163500Y294710I1710J0D01*
G02X164720Y294200I0J-1714D01*
G03X165280I280J284D01*
G02X166500Y294710I1220J-1204D01*
G02X168180Y293330I0J-1713D01*
G01Y293320D01*
X168370Y292630D01*
X171260Y289740D01*
G03X171940Y290030I280J285D01*
G01Y291430D01*
X171620Y291990D01*
X171610Y292000D01*
G02X171290Y293000I1403J1000D01*
G02X174710I1710J0D01*
G02X174390Y292000I-1723J0D01*
G01X174380Y291990D01*
X174060Y291430D01*
Y289940D01*
X185040Y278960D01*
X190570D01*
G03X190860Y279640I5J400D01*
G01X187250Y283250D01*
G02X186940Y284000I752J750D01*
G01Y328930D01*
X186620Y329490D01*
X186610Y329500D01*
G02X186290Y330500I1402J1000D01*
G02X189710I1710J0D01*
G02X189390Y329500I-1722J0D01*
G01X189380Y329490D01*
X189060Y328930D01*
Y293350D01*
G03X189660Y293000I400J-3D01*
G02X190500Y293220I840J-1494D01*
G02X191920Y292470I0J-1719D01*
G03X192580I330J226D01*
G02X195420I1420J-969D01*
G03X196080I330J226D01*
G02X197500Y293220I1420J-969D01*
G02X199220Y291500I0J-1720D01*
G02X198720Y290280I-1723J-6D01*
G03Y289720I278J-280D01*
G02X199220Y288500I-1223J-1214D01*
G02X198470Y287080I-1719J0D01*
G03Y286420I226J-330D01*
G02X199220Y285000I-969J-1420D01*
G02X197500Y283280I-1720J0D01*
G02X196080Y284030I0J1719D01*
G03X195420I-330J-226D01*
G02X192580I-1420J969D01*
G03X191920I-330J-226D01*
G02X190990Y283350I-1422J969D01*
G03X190820Y282680I109J-384D01*
G01X193140Y280360D01*
X237960D01*
G03X238350Y280870I5J400D01*
G02X238280Y281350I1649J486D01*
G02X241720I1720J0D01*
G02X241650Y280870I-1719J6D01*
G03X242040Y280360I385J-110D01*
G01X245500D01*
X246890Y281750D01*
G02X247640Y282060I750J-752D01*
G01X247930D01*
X248490Y282380D01*
X248500Y282390D01*
G02X249500Y282710I1000J-1403D01*
G02X251030Y281770I0J-1715D01*
G03X251670Y281670I356J180D01*
G01X252500Y282500D01*
Y302500D01*
X257500Y307500D01*
G37*
G36*
G01X160490Y380650D02*
X165250D01*
G02X165960Y379940I0J-710D01*
G01Y375180D01*
G02X165900Y374890I-711J-4D01*
G01X165160Y373250D01*
X165420Y373130D01*
X165500Y373160D01*
G02X165750Y373210I262J-658D01*
G01X168250D01*
G02X168960Y372500I0J-710D01*
G01Y367500D01*
G02X168870Y367160I-709J6D01*
G01X168460Y366400D01*
X168510Y366300D01*
G02X168710Y365500I-1500J-800D01*
G02X165290I-1710J0D01*
G02X165490Y366300I1700J0D01*
G01X165540Y366400D01*
X165300Y366830D01*
G03X164700Y366950I-350J-190D01*
G02X164250Y366790I-450J553D01*
G01X161750D01*
G02X161160Y367100I0J716D01*
G01X161140Y367130D01*
X160950Y367260D01*
X160710Y366910D01*
Y365500D01*
G02X157290I-1710J0D01*
G01Y366910D01*
X157160Y367100D01*
G02X157040Y367500I591J395D01*
G01Y372500D01*
G02X157750Y373210I710J0D01*
G01X160250D01*
G02X160380Y373200I11J-711D01*
G01X160450Y373180D01*
X160690Y373310D01*
X159870Y374840D01*
G02X159780Y375180I619J346D01*
G01Y379940D01*
G02X160490Y380650I710J0D01*
G37*
G36*
G01X25350Y148490D02*
Y153250D01*
G02X26060Y153960I710J0D01*
G01X30820D01*
G02X31530Y153250I0J-710D01*
G01Y148490D01*
G02X30820Y147780I-710J0D01*
G01X26060D01*
G02X25350Y148490I0J710D01*
G37*
G36*
G01X22340Y126040D02*
Y131960D01*
G02X23060Y132670I715J-5D01*
G01X28960D01*
G02X29680Y131960I5J-715D01*
G01Y126040D01*
G02X28960Y125330I-715J5D01*
G01X23060D01*
G02X22340Y126040I-5J715D01*
G37*
G36*
G01X138250Y181750D02*
Y188250D01*
G02X138760Y188760I510J0D01*
G01X145260D01*
G02X145770Y188250I0J-510D01*
G01Y181750D01*
G02X145260Y181240I-510J0D01*
G01X138760D01*
G02X138250Y181750I0J510D01*
G37*
G36*
G01X87000Y116210D02*
G02X88710Y114500I0J-1710D01*
G02X87330Y112820I-1713J0D01*
G01X87320D01*
X86640Y112630D01*
X86560Y112550D01*
Y108500D01*
G02X86250Y107750I-1062J0D01*
G01X83680Y105180D01*
Y97450D01*
X84000Y96890D01*
X84010Y96880D01*
G02X84330Y95880I-1402J-1000D01*
G02X80910I-1710J0D01*
G02X81230Y96880I1723J0D01*
G01X81240Y96890D01*
X81560Y97450D01*
Y105620D01*
G02X81870Y106370I1062J0D01*
G01X84440Y108940D01*
Y112880D01*
G02X84430Y113000I1058J149D01*
G02X84750Y113750I1065J-11D01*
G01X85130Y114140D01*
X85320Y114820D01*
Y114830D01*
G02X87000Y116210I1680J-333D01*
G37*
G36*
G01X116290Y69030D02*
Y74970D01*
G02X117000Y75680I710J0D01*
G01X122940D01*
G02X123650Y74970I0J-710D01*
G01Y69030D01*
G02X122940Y68320I-710J0D01*
G01X117000D01*
G02X116290Y69030I0J710D01*
G37*
G54D57*
X523180Y138990D03*
G54D47*
X499050Y18400D03*
X414410Y348890D03*
X85280D03*
G54D55*
X533000Y377870D03*
Y326130D03*
Y247870D03*
Y196130D03*
Y312870D03*
Y261130D03*
G54D59*
X460880Y366490D03*
X438120D03*
G54D51*
X147130Y377560D03*
X462440Y17130D03*
Y25000D03*
Y32870D03*
X445560Y348060D03*
X453440D03*
X75190Y377560D03*
X83060D03*
X382940Y326440D03*
X375060D03*
X103560Y23870D03*
X28440Y143000D03*
G54D45*
X538380Y98350D03*
Y70350D03*
Y91650D03*
Y63650D03*
G54D60*
X335000Y322750D03*
X248000Y261000D03*
X215500Y250500D03*
X286500Y258000D03*
X340000Y322750D03*
X312000Y339500D03*
X364450Y163500D03*
X335000Y267000D03*
X222500Y250500D03*
X300000Y322500D03*
X252000Y261000D03*
X164500Y251500D03*
X157500D03*
X248000Y257000D03*
X479500Y162000D03*
X252000Y257000D03*
X88500Y215000D03*
X80500Y181000D03*
Y211000D03*
X171500Y365500D03*
X84500Y207000D03*
Y181000D03*
X80500Y215000D03*
X84500Y211000D03*
X88500D03*
Y207000D03*
X80500D03*
X88500Y181000D03*
X84500Y215000D03*
X499000Y310000D03*
X101000Y240000D03*
X114500Y206500D03*
X435000Y321000D03*
X490000Y270500D03*
X430000Y160620D03*
X457500Y197500D03*
X490000Y276500D03*
X424500Y268000D03*
X486000Y328000D03*
X490000Y206500D03*
X484000Y212500D03*
Y206500D03*
X456000Y260000D03*
X484000Y276500D03*
Y270500D03*
X490000Y212500D03*
X495000Y310000D03*
Y306000D03*
X499000D03*
X457000Y156500D03*
X480000Y310000D03*
X418000Y296500D03*
X476000Y314000D03*
X472000Y310000D03*
X476000D03*
X448000Y268000D03*
X484000Y310000D03*
X480000Y314000D03*
X507000Y56750D03*
X154000Y160000D03*
G54D56*
X522370Y348060D03*
Y355940D03*
Y218060D03*
Y225940D03*
Y283060D03*
Y290940D03*
G54D52*
X155000Y377560D03*
X462440Y9250D03*
X437690Y348060D03*
X90940Y377560D03*
X390810Y326440D03*
X55870Y121440D03*
G54D48*
X411890Y112170D03*
Y122010D03*
X401890Y112170D03*
Y122010D03*
X391890Y112170D03*
X381890D03*
X222000Y372500D03*
Y362500D03*
X212000D03*
X382000Y372500D03*
X202000D03*
X372000D03*
Y362500D03*
X362000Y372500D03*
Y362500D03*
X352000D03*
X342000Y372500D03*
Y362500D03*
X202000D03*
X332000D03*
X322000Y372500D03*
Y362500D03*
X312000Y372500D03*
X302000D03*
Y362500D03*
X292000Y372500D03*
Y362500D03*
X192000Y372500D03*
X282000Y362500D03*
X272000Y372500D03*
Y362500D03*
X262000Y372500D03*
Y362500D03*
X252000D03*
X242000Y372500D03*
Y362500D03*
X232000Y372500D03*
G54D54*
X122010Y185000D03*
G54D50*
X522000Y91010D03*
X359000Y177990D03*
X31000Y9830D03*
X533170Y43000D03*
X440840Y10000D03*
G54D46*
X421970Y112000D03*
Y122000D03*
Y102000D03*
Y92000D03*
Y82000D03*
Y72000D03*
Y62000D03*
Y132000D03*
X371970Y112000D03*
X169970Y102000D03*
Y92000D03*
Y82000D03*
Y72000D03*
Y62000D03*
X232970Y102000D03*
Y92000D03*
Y82000D03*
Y72000D03*
Y62000D03*
X358970Y102000D03*
Y92000D03*
Y82000D03*
Y72000D03*
Y62000D03*
X295970Y102000D03*
Y92000D03*
Y82000D03*
Y72000D03*
Y62000D03*
G54D58*
X406840Y87000D03*
X154840D03*
X217840D03*
X343840D03*
X280840D03*
X232000Y362500D03*
X212000Y372500D03*
X382000Y362500D03*
X352000Y372500D03*
X332000D03*
X312000Y362500D03*
X282000Y372500D03*
X252000D03*
X26010Y119000D03*
G54D53*
X120000Y25990D03*
G54D49*
X522000Y62010D03*
X359000Y197990D03*
Y167990D03*
X533170Y180000D03*
Y170000D03*
Y33000D03*
X440840Y20000D03*
Y30000D03*
X503990Y160000D03*
%LPD*%
G75*
G36*
G01X82320Y97350D02*
X81760Y96370D01*
X82620Y95790D01*
X83480Y96370D01*
X82920Y97350D01*
G03X82320I-300J-170D01*
G37*
G36*
G01X86170Y113240D02*
X87260Y113540D01*
X87060Y114560D01*
X86040Y114760D01*
X85740Y113670D01*
G03X86170Y113240I340J-90D01*
G37*
G36*
G01X100970Y179300D02*
X99990Y179860D01*
X99410Y179000D01*
X99990Y178140D01*
X100970Y178700D01*
G03Y179300I-170J300D01*
G37*
G36*
G01Y213300D02*
X99990Y213860D01*
X99410Y213000D01*
X99990Y212140D01*
X100970Y212700D01*
G03Y213300I-170J300D01*
G37*
G36*
G01X112530Y178700D02*
X113510Y178140D01*
X114090Y179000D01*
X113510Y179860D01*
X112530Y179300D01*
G03Y178700I170J-300D01*
G37*
G36*
G01X111740Y211330D02*
X112040Y210240D01*
X113060Y210440D01*
X113260Y211460D01*
X112170Y211760D01*
G03X111740Y211330I-90J-340D01*
G37*
G36*
G01X130630Y363810D02*
X129870Y364240D01*
X129260Y363380D01*
X129870Y362520D01*
X130630Y362950D01*
G03Y363810I-250J430D01*
G37*
G36*
G01X129260Y367670D02*
X128960Y368760D01*
X127940Y368560D01*
X127740Y367540D01*
X128830Y367240D01*
G03X129260Y367670I90J340D01*
G37*
G36*
G01X148750Y313430D02*
X147990Y313860D01*
X147380Y313000D01*
X147990Y312140D01*
X148750Y312570D01*
G03Y313430I-250J430D01*
G37*
G36*
G01X151240Y303930D02*
X150480Y304360D01*
X149860Y303500D01*
X150480Y302640D01*
X151240Y303070D01*
G03Y303930I-250J430D01*
G37*
G36*
G01X148750Y307430D02*
X147990Y307860D01*
X147380Y307000D01*
X147990Y306140D01*
X148750Y306570D01*
G03Y307430I-250J430D01*
G37*
G36*
G01X134090Y368300D02*
X133110Y368860D01*
X132530Y368000D01*
X133110Y367140D01*
X134090Y367700D01*
G03Y368300I-170J300D01*
G37*
G36*
G01X142750Y363070D02*
X143510Y362640D01*
X144120Y363500D01*
X143510Y364360D01*
X142750Y363930D01*
G03Y363070I250J-430D01*
G37*
G36*
G01X164200Y201470D02*
X163640Y200490D01*
X164500Y199910D01*
X165360Y200490D01*
X164800Y201470D01*
G03X164200I-300J-170D01*
G37*
G36*
G01X169420Y202970D02*
X168860Y201990D01*
X169720Y201410D01*
X170580Y201990D01*
X170020Y202970D01*
G03X169420I-300J-170D01*
G37*
G36*
G01X166860Y199470D02*
X166300Y198490D01*
X167160Y197910D01*
X168020Y198490D01*
X167460Y199470D01*
G03X166860I-300J-170D01*
G37*
G36*
G01X171980Y200470D02*
X171420Y199490D01*
X172280Y198910D01*
X173140Y199490D01*
X172580Y200470D01*
G03X171980I-300J-170D01*
G37*
G36*
G01X173330Y215830D02*
X172930Y216710D01*
X171910Y216460D01*
X171740Y215430D01*
X172740Y215150D01*
G03X173330Y215830I131J482D01*
G37*
G36*
G01X173300Y291530D02*
X173860Y292510D01*
X173000Y293090D01*
X172140Y292510D01*
X172700Y291530D01*
G03X173300I300J170D01*
G37*
G36*
G01X164760Y292170D02*
X164460Y293260D01*
X163440Y293060D01*
X163240Y292040D01*
X164330Y291740D01*
G03X164760Y292170I90J340D01*
G37*
G36*
G01X167760D02*
X167460Y293260D01*
X166440Y293060D01*
X166240Y292040D01*
X167330Y291740D01*
G03X167760Y292170I90J340D01*
G37*
G36*
G01X157790Y303070D02*
X158550Y302640D01*
X159160Y303500D01*
X158550Y304360D01*
X157790Y303930D01*
G03Y303070I250J-430D01*
G37*
G36*
G01X162470Y307810D02*
X163310Y308050D01*
X163140Y309090D01*
X162100Y309260D01*
X161860Y308420D01*
G03X162470Y307810I480J-130D01*
G37*
G36*
G01X164920Y314310D02*
X165760Y314550D01*
X165590Y315590D01*
X164550Y315760D01*
X164310Y314920D01*
G03X164920Y314310I480J-130D01*
G37*
G36*
G01X159320Y366130D02*
X160250Y367500D01*
X159000Y370250D01*
X157750Y367500D01*
X158680Y366130D01*
G03X159320I320J950D01*
G37*
G36*
G01X163870Y372110D02*
X165250Y375180D01*
X162860Y377870D01*
X160490Y375180D01*
X162180Y372060D01*
G03X163870Y372110I818J948D01*
G37*
G36*
G01X166570Y366750D02*
X166140Y365990D01*
X167000Y365380D01*
X167860Y365990D01*
X167430Y366750D01*
G03X166570I-430J-250D01*
G37*
G36*
G01X167360Y365860D02*
X168250Y367500D01*
X167000Y370120D01*
X165750Y367500D01*
X166640Y365860D01*
G03X167360I360J350D01*
G37*
G36*
G01X178490Y85990D02*
X191510D01*
X196500Y81000D01*
Y45000D01*
X199500Y42000D01*
X200070D01*
X200080Y41990D01*
X211510D01*
X211990Y41510D01*
Y35990D01*
X211500Y35500D01*
X193500D01*
X187500Y41500D01*
Y63000D01*
X186000Y64500D01*
X185690D01*
X185630Y64560D01*
G03X180310I-2660J-2566D01*
G01X180250Y64500D01*
X179500D01*
X178000Y66000D01*
Y85500D01*
X178490Y85990D01*
G37*
G36*
G01X179000Y97000D02*
X206500D01*
X209000Y94500D01*
Y67500D01*
X210880Y65620D01*
G02X210830Y65010I-280J-284D01*
G03X209280Y62000I2148J-3010D01*
G03X216660I3690J0D01*
G03X216620Y62540I-3690J-2D01*
G02X217020Y63000I395J60D01*
G01X218920D01*
G02X219320Y62540I5J-400D01*
G03X219280Y62000I3650J-542D01*
G03X221860Y58480I3691J0D01*
G01X222000Y58440D01*
Y42500D01*
X221000Y41500D01*
Y36000D01*
X220500Y35500D01*
X213500D01*
X213000Y36000D01*
Y42000D01*
X212000Y43000D01*
X200500D01*
X198000Y45500D01*
Y81500D01*
X196850Y82650D01*
G02X197130Y83330I281J282D01*
G01X201120D01*
G03X201830Y84040I-5J715D01*
G01Y89960D01*
G03X201120Y90670I-715J-5D01*
G01X195200D01*
G03X194490Y89960I5J-715D01*
G01Y85970D01*
G02X193810Y85690I-398J1D01*
G01X192500Y87000D01*
X178500D01*
X178000Y87500D01*
Y96000D01*
X179000Y97000D01*
G37*
G36*
G01X186830Y199880D02*
X185740Y199580D01*
X185940Y198560D01*
X186960Y198360D01*
X187260Y199450D01*
G03X186830Y199880I-340J90D01*
G37*
G36*
G01X178970Y199300D02*
X177990Y199860D01*
X177410Y199000D01*
X177990Y198140D01*
X178970Y198700D01*
G03Y199300I-170J300D01*
G37*
G36*
G01X180790Y203260D02*
X179700Y202960D01*
X179900Y201940D01*
X180920Y201740D01*
X181220Y202830D01*
G03X180790Y203260I-340J90D01*
G37*
G36*
G01X175670D02*
X174580Y202960D01*
X174780Y201940D01*
X175800Y201740D01*
X176100Y202830D01*
G03X175670Y203260I-340J90D01*
G37*
G36*
G01X188300Y329030D02*
X188860Y330010D01*
X188000Y330590D01*
X187140Y330010D01*
X187700Y329030D01*
G03X188300I300J170D01*
G37*
G36*
G01X231530Y201200D02*
X232510Y200640D01*
X233090Y201500D01*
X232510Y202360D01*
X231530Y201800D01*
G03Y201200I170J-300D01*
G37*
G36*
G01X223370Y214950D02*
X224130Y214520D01*
X224740Y215380D01*
X224130Y216240D01*
X223370Y215810D01*
G03Y214950I250J-430D01*
G37*
G36*
G01X217070Y302610D02*
X216310Y303040D01*
X215700Y302180D01*
X216310Y301320D01*
X217070Y301750D01*
G03Y302610I-250J430D01*
G37*
G36*
G01X241500Y86000D02*
X254500D01*
X259500Y81000D01*
Y45000D01*
X262500Y42000D01*
X274500D01*
X275000Y41500D01*
Y36000D01*
X274500Y35500D01*
X256500D01*
X250500Y41500D01*
Y63000D01*
X249000Y64500D01*
X248690D01*
X248630Y64560D01*
G03X243310I-2660J-2566D01*
G01X243250Y64500D01*
X242500D01*
X241000Y66000D01*
Y85500D01*
X241500Y86000D01*
G37*
G36*
G01X242000Y97000D02*
X269500D01*
X272000Y94500D01*
Y67500D01*
X273880Y65620D01*
G02X273830Y65010I-280J-284D01*
G03X272280Y62000I2148J-3010D01*
G03X279660I3690J0D01*
G03X279620Y62540I-3690J-2D01*
G02X280020Y63000I395J60D01*
G01X281920D01*
G02X282320Y62540I5J-400D01*
G03X282280Y62000I3650J-542D01*
G03X284860Y58480I3691J0D01*
G01X285000Y58440D01*
Y42500D01*
X284000Y41500D01*
Y36000D01*
X283500Y35500D01*
X276500D01*
X276010Y35990D01*
Y41920D01*
X276000Y41930D01*
Y42000D01*
X275000Y43000D01*
X274930D01*
X274920Y43010D01*
X263490D01*
X261000Y45500D01*
Y81500D01*
X259850Y82650D01*
G02X260130Y83330I281J282D01*
G01X264120D01*
G03X264830Y84040I-5J715D01*
G01Y89960D01*
G03X264120Y90670I-715J-5D01*
G01X258200D01*
G03X257490Y89960I5J-715D01*
G01Y85970D01*
G02X256810Y85690I-398J1D01*
G01X255500Y87000D01*
X254930D01*
X254920Y87010D01*
X241490D01*
X241000Y87500D01*
Y96000D01*
X242000Y97000D01*
G37*
G36*
G01X251530Y209700D02*
X252510Y209140D01*
X253090Y210000D01*
X252510Y210860D01*
X251530Y210300D01*
G03Y209700I170J-300D01*
G37*
G36*
G01X253830Y271810D02*
X252740Y271510D01*
X252940Y270490D01*
X253960Y270290D01*
X254260Y271380D01*
G03X253830Y271810I-340J90D01*
G37*
G36*
G01X257830Y271760D02*
X256740Y271460D01*
X256940Y270440D01*
X257960Y270240D01*
X258260Y271330D01*
G03X257830Y271760I-340J90D01*
G37*
G36*
G01X250970Y272900D02*
X249990Y273460D01*
X249410Y272600D01*
X249990Y271740D01*
X250970Y272300D01*
G03Y272900I-170J300D01*
G37*
G36*
G01X248030Y280700D02*
X249010Y280140D01*
X249590Y281000D01*
X249010Y281860D01*
X248030Y281300D01*
G03Y280700I170J-300D01*
G37*
G36*
G01X245370Y302950D02*
X246130Y302520D01*
X246740Y303380D01*
X246130Y304240D01*
X245370Y303810D01*
G03Y302950I250J-430D01*
G37*
G36*
G01X256740Y343330D02*
X257040Y342240D01*
X258060Y342440D01*
X258260Y343460D01*
X257170Y343760D01*
G03X256740Y343330I-90J-340D01*
G37*
G36*
G01X268300Y189770D02*
X268600Y188680D01*
X269620Y188880D01*
X269820Y189900D01*
X268730Y190200D01*
G03X268300Y189770I-90J-340D01*
G37*
G36*
G01X266260Y192670D02*
X265960Y193760D01*
X264940Y193560D01*
X264740Y192540D01*
X265830Y192240D01*
G03X266260Y192670I90J340D01*
G37*
G36*
G01X259970Y219300D02*
X258990Y219860D01*
X258410Y219000D01*
X258990Y218140D01*
X259970Y218700D01*
G03Y219300I-170J300D01*
G37*
G36*
G01X267980Y229200D02*
X268950Y228650D01*
X269540Y229500D01*
X268950Y230350D01*
X267980Y229800D01*
G03Y229200I170J-300D01*
G37*
G36*
G01X261420Y222300D02*
X260450Y222850D01*
X259860Y222000D01*
X260450Y221150D01*
X261420Y221700D01*
G03Y222300I-170J300D01*
G37*
G36*
G01X275260Y229670D02*
X274960Y230760D01*
X273940Y230560D01*
X273740Y229540D01*
X274830Y229240D01*
G03X275260Y229670I90J340D01*
G37*
G36*
G01X267420Y225200D02*
X266450Y225750D01*
X265860Y224900D01*
X266450Y224050D01*
X267420Y224600D01*
G03Y225200I-170J300D01*
G37*
G36*
G01X270920Y232980D02*
X269950Y233530D01*
X269360Y232680D01*
X269950Y231830D01*
X270920Y232380D01*
G03Y232980I-170J300D01*
G37*
G36*
G01X270470Y237300D02*
X269490Y237860D01*
X268910Y237000D01*
X269490Y236140D01*
X270470Y236700D01*
G03Y237300I-170J300D01*
G37*
G36*
G01X270660Y247670D02*
X270360Y248760D01*
X269340Y248560D01*
X269140Y247540D01*
X270230Y247240D01*
G03X270660Y247670I90J340D01*
G37*
G36*
G01X265730Y239760D02*
X264640Y239460D01*
X264840Y238440D01*
X265860Y238240D01*
X266160Y239330D01*
G03X265730Y239760I-340J90D01*
G37*
G36*
G01X261160Y231670D02*
X260860Y232760D01*
X259840Y232560D01*
X259640Y231540D01*
X260730Y231240D01*
G03X261160Y231670I90J340D01*
G37*
G36*
G01X266830Y234260D02*
X265740Y233960D01*
X265940Y232940D01*
X266960Y232740D01*
X267260Y233830D01*
G03X266830Y234260I-340J90D01*
G37*
G36*
G01X266140Y242580D02*
X265170Y243130D01*
X264580Y242280D01*
X265170Y241430D01*
X266140Y241980D01*
G03Y242580I-170J300D01*
G37*
G36*
G01X277240Y241330D02*
X277540Y240240D01*
X278560Y240440D01*
X278760Y241460D01*
X277670Y241760D01*
G03X277240Y241330I-90J-340D01*
G37*
G36*
G01X258680Y265760D02*
X257590Y265460D01*
X257790Y264440D01*
X258810Y264240D01*
X259110Y265330D01*
G03X258680Y265760I-340J90D01*
G37*
G36*
G01Y268750D02*
X257590Y268450D01*
X257790Y267430D01*
X258810Y267230D01*
X259110Y268320D01*
G03X258680Y268750I-340J90D01*
G37*
G36*
G01X266470Y286800D02*
X265490Y287360D01*
X264910Y286500D01*
X265490Y285640D01*
X266470Y286200D01*
G03Y286800I-170J300D01*
G37*
G36*
G01X264330Y280900D02*
X265310Y280340D01*
X265890Y281200D01*
X265310Y282060D01*
X264330Y281500D01*
G03Y280900I170J-300D01*
G37*
G36*
G01X270970Y294630D02*
X269990Y295190D01*
X269410Y294330D01*
X269990Y293470D01*
X270970Y294030D01*
G03Y294630I-170J300D01*
G37*
G36*
G01X277530Y294030D02*
X278510Y293470D01*
X279090Y294330D01*
X278510Y295190D01*
X277530Y294630D01*
G03Y294030I170J-300D01*
G37*
G36*
G01X273470Y297300D02*
X272490Y297860D01*
X271910Y297000D01*
X272490Y296140D01*
X273470Y296700D01*
G03Y297300I-170J300D01*
G37*
G36*
G01X265660Y307170D02*
X265360Y308260D01*
X264340Y308060D01*
X264140Y307040D01*
X265230Y306740D01*
G03X265660Y307170I90J340D01*
G37*
G36*
G01X261470Y305300D02*
X260490Y305860D01*
X259910Y305000D01*
X260490Y304140D01*
X261470Y304700D01*
G03Y305300I-170J300D01*
G37*
G36*
G01X260830Y297260D02*
X259740Y296960D01*
X259940Y295940D01*
X260960Y295740D01*
X261260Y296830D01*
G03X260830Y297260I-340J90D01*
G37*
G36*
G01X270210Y321170D02*
X269910Y322260D01*
X268890Y322060D01*
X268690Y321040D01*
X269780Y320740D01*
G03X270210Y321170I90J340D01*
G37*
G36*
G01X269470Y351800D02*
X268490Y352360D01*
X267910Y351500D01*
X268490Y350640D01*
X269470Y351200D01*
G03Y351800I-170J300D01*
G37*
G36*
G01X298570Y229300D02*
X297590Y229860D01*
X297010Y229000D01*
X297590Y228140D01*
X298570Y228700D01*
G03Y229300I-170J300D01*
G37*
G36*
G01X294330Y230260D02*
X293240Y229960D01*
X293440Y228940D01*
X294460Y228740D01*
X294760Y229830D01*
G03X294330Y230260I-340J90D01*
G37*
G36*
G01X282260Y229670D02*
X281960Y230760D01*
X280940Y230560D01*
X280740Y229540D01*
X281830Y229240D01*
G03X282260Y229670I90J340D01*
G37*
G36*
G01X284670Y209240D02*
X285760Y209540D01*
X285560Y210560D01*
X284540Y210760D01*
X284240Y209670D01*
G03X284670Y209240I340J-90D01*
G37*
G36*
G01X287920Y208990D02*
X289010Y209290D01*
X288810Y210310D01*
X287790Y210510D01*
X287490Y209420D01*
G03X287920Y208990I340J-90D01*
G37*
G36*
G01X279530Y227200D02*
X280510Y226640D01*
X281090Y227500D01*
X280510Y228360D01*
X279530Y227800D01*
G03Y227200I170J-300D01*
G37*
G36*
G01X298470Y242250D02*
X297490Y242810D01*
X296910Y241950D01*
X297490Y241090D01*
X298470Y241650D01*
G03Y242250I-170J300D01*
G37*
G36*
G01X284530Y283780D02*
X285510Y283220D01*
X286090Y284080D01*
X285510Y284940D01*
X284530Y284380D01*
G03Y283780I170J-300D01*
G37*
G36*
G01X283530Y347700D02*
X284510Y347140D01*
X285090Y348000D01*
X284510Y348860D01*
X283530Y348300D01*
G03Y347700I170J-300D01*
G37*
G36*
G01X287530Y351200D02*
X288510Y350640D01*
X289090Y351500D01*
X288510Y352360D01*
X287530Y351800D01*
G03Y351200I170J-300D01*
G37*
G36*
G01X304490Y85990D02*
X317510D01*
X322500Y81000D01*
Y45000D01*
X325500Y42000D01*
X326070D01*
X326080Y41990D01*
X337510D01*
X337990Y41510D01*
Y35990D01*
X337500Y35500D01*
X319500D01*
X313500Y41500D01*
Y63000D01*
X312000Y64500D01*
X311690D01*
X311630Y64560D01*
G03X306310I-2660J-2566D01*
G01X306250Y64500D01*
X305500D01*
X304000Y66000D01*
Y85500D01*
X304490Y85990D01*
G37*
G36*
G01X305000Y97000D02*
X332500D01*
X335000Y94500D01*
Y67500D01*
X336880Y65620D01*
G02X336830Y65010I-280J-284D01*
G03X335280Y62000I2148J-3010D01*
G03X342660I3690J0D01*
G03X342620Y62540I-3690J-2D01*
G02X343020Y63000I395J60D01*
G01X344920D01*
G02X345320Y62540I5J-400D01*
G03X345280Y62000I3650J-542D01*
G03X347860Y58480I3691J0D01*
G01X348000Y58440D01*
Y42500D01*
X347000Y41500D01*
Y36000D01*
X346500Y35500D01*
X339500D01*
X339000Y36000D01*
Y42000D01*
X338000Y43000D01*
X326500D01*
X324000Y45500D01*
Y81500D01*
X322850Y82650D01*
G02X323130Y83330I281J282D01*
G01X327120D01*
G03X327830Y84040I-5J715D01*
G01Y89960D01*
G03X327120Y90670I-715J-5D01*
G01X321200D01*
G03X320490Y89960I5J-715D01*
G01Y85970D01*
G02X319810Y85690I-398J1D01*
G01X318500Y87000D01*
X304500D01*
X304000Y87500D01*
Y96000D01*
X305000Y97000D01*
G37*
G36*
G01X309520Y222800D02*
X308550Y223350D01*
X307960Y222500D01*
X308550Y221650D01*
X309520Y222200D01*
G03Y222800I-170J300D01*
G37*
G36*
G01X302610Y221670D02*
X302310Y222760D01*
X301290Y222560D01*
X301090Y221540D01*
X302180Y221240D01*
G03X302610Y221670I90J340D01*
G37*
G36*
G01X315470Y218700D02*
X314490Y219260D01*
X313910Y218400D01*
X314490Y217540D01*
X315470Y218100D01*
G03Y218700I-170J300D01*
G37*
G36*
G01X315530Y224600D02*
X316510Y224040D01*
X317090Y224900D01*
X316510Y225760D01*
X315530Y225200D01*
G03Y224600I170J-300D01*
G37*
G36*
G01X318530Y236700D02*
X319510Y236140D01*
X320090Y237000D01*
X319510Y237860D01*
X318530Y237300D01*
G03Y236700I170J-300D01*
G37*
G36*
G01X312240Y243830D02*
X312540Y242740D01*
X313560Y242940D01*
X313760Y243960D01*
X312670Y244260D01*
G03X312240Y243830I-90J-340D01*
G37*
G36*
G01X300770Y239850D02*
X299790Y240410D01*
X299210Y239550D01*
X299790Y238690D01*
X300770Y239250D01*
G03Y239850I-170J300D01*
G37*
G36*
G01X306170Y240240D02*
X307260Y240540D01*
X307060Y241560D01*
X306040Y241760D01*
X305740Y240670D01*
G03X306170Y240240I340J-90D01*
G37*
G36*
G01X302530Y241650D02*
X303510Y241090D01*
X304090Y241950D01*
X303510Y242810D01*
X302530Y242250D01*
G03Y241650I170J-300D01*
G37*
G36*
G01X313030Y230750D02*
X314010Y230190D01*
X314590Y231050D01*
X314010Y231910D01*
X313030Y231350D01*
G03Y230750I170J-300D01*
G37*
G36*
G01X316670Y278240D02*
X317760Y278540D01*
X317560Y279560D01*
X316540Y279760D01*
X316240Y278670D01*
G03X316670Y278240I340J-90D01*
G37*
G36*
G01Y275240D02*
X317760Y275540D01*
X317560Y276560D01*
X316540Y276760D01*
X316240Y275670D01*
G03X316670Y275240I340J-90D01*
G37*
G36*
G01X309580Y278700D02*
X310550Y278150D01*
X311140Y279000D01*
X310550Y279850D01*
X309580Y279300D01*
G03Y278700I170J-300D01*
G37*
G36*
G01X312030Y272150D02*
X313010Y271590D01*
X313590Y272450D01*
X313010Y273310D01*
X312030Y272750D01*
G03Y272150I170J-300D01*
G37*
G36*
G01X306530Y303750D02*
X307510Y303190D01*
X308090Y304050D01*
X307510Y304910D01*
X306530Y304350D01*
G03Y303750I170J-300D01*
G37*
G36*
G01X302470Y297300D02*
X301490Y297860D01*
X300910Y297000D01*
X301490Y296140D01*
X302470Y296700D01*
G03Y297300I-170J300D01*
G37*
G36*
G01X320030Y299200D02*
X321010Y298640D01*
X321590Y299500D01*
X321010Y300360D01*
X320030Y299800D01*
G03Y299200I170J-300D01*
G37*
G36*
G01X311690Y318540D02*
X312670Y317980D01*
X313250Y318840D01*
X312670Y319700D01*
X311690Y319140D01*
G03Y318540I170J-300D01*
G37*
G36*
G01X323170Y205290D02*
X324260Y205590D01*
X324060Y206610D01*
X323040Y206810D01*
X322740Y205720D01*
G03X323170Y205290I340J-90D01*
G37*
G36*
G01X321030Y228700D02*
X322010Y228140D01*
X322590Y229000D01*
X322010Y229860D01*
X321030Y229300D01*
G03Y228700I170J-300D01*
G37*
G36*
G01X331240Y226330D02*
X331540Y225240D01*
X332560Y225440D01*
X332760Y226460D01*
X331670Y226760D01*
G03X331240Y226330I-90J-340D01*
G37*
G36*
G01X333530Y222200D02*
X334510Y221640D01*
X335090Y222500D01*
X334510Y223360D01*
X333530Y222800D01*
G03Y222200I170J-300D01*
G37*
G36*
G01X333480Y219200D02*
X334450Y218650D01*
X335040Y219500D01*
X334450Y220350D01*
X333480Y219800D01*
G03Y219200I170J-300D01*
G37*
G36*
G01X329030Y218100D02*
X330010Y217540D01*
X330590Y218400D01*
X330010Y219260D01*
X329030Y218700D01*
G03Y218100I170J-300D01*
G37*
G36*
G01X323630Y231330D02*
X323930Y230240D01*
X324950Y230440D01*
X325150Y231460D01*
X324060Y231760D01*
G03X323630Y231330I-90J-340D01*
G37*
G36*
G01X329670Y235740D02*
X330760Y236040D01*
X330560Y237060D01*
X329540Y237260D01*
X329240Y236170D01*
G03X329670Y235740I340J-90D01*
G37*
G36*
G01X327080Y289200D02*
X328050Y288650D01*
X328640Y289500D01*
X328050Y290350D01*
X327080Y289800D01*
G03Y289200I170J-300D01*
G37*
G36*
G01X334220Y277240D02*
X335310Y277540D01*
X335110Y278560D01*
X334090Y278760D01*
X333790Y277670D01*
G03X334220Y277240I340J-90D01*
G37*
G36*
G01X329170Y275240D02*
X330260Y275540D01*
X330060Y276560D01*
X329040Y276760D01*
X328740Y275670D01*
G03X329170Y275240I340J-90D01*
G37*
G36*
G01X323740Y300330D02*
X324040Y299240D01*
X325060Y299440D01*
X325260Y300460D01*
X324170Y300760D01*
G03X323740Y300330I-90J-340D01*
G37*
G36*
G01X338970Y345800D02*
X337990Y346360D01*
X337410Y345500D01*
X337990Y344640D01*
X338970Y345200D01*
G03Y345800I-170J300D01*
G37*
G36*
G01X353380Y187690D02*
X357470Y185340D01*
X359090Y187990D01*
X357470Y190640D01*
X353380Y188290D01*
G03Y187690I180J-300D01*
G37*
G36*
G01X343310Y191170D02*
X343010Y192260D01*
X341990Y192060D01*
X341790Y191040D01*
X342880Y190740D01*
G03X343310Y191170I90J340D01*
G37*
G36*
G01X360720Y213740D02*
X361810Y214040D01*
X361610Y215060D01*
X360590Y215260D01*
X360290Y214170D01*
G03X360720Y213740I340J-90D01*
G37*
G36*
G01X360900Y210660D02*
X361990Y210960D01*
X361790Y211980D01*
X360770Y212180D01*
X360470Y211090D01*
G03X360900Y210660I340J-90D01*
G37*
G36*
G01X353250Y246930D02*
X352490Y247360D01*
X351880Y246500D01*
X352490Y245640D01*
X353250Y246070D01*
G03Y246930I-250J430D01*
G37*
G36*
G01X359970Y272490D02*
X358990Y273050D01*
X358410Y272190D01*
X358990Y271330D01*
X359970Y271890D01*
G03Y272490I-170J300D01*
G37*
G36*
G01Y269800D02*
X358990Y270360D01*
X358410Y269500D01*
X358990Y268640D01*
X359970Y269200D01*
G03Y269800I-170J300D01*
G37*
G36*
G01X347030Y286200D02*
X348010Y285640D01*
X348590Y286500D01*
X348010Y287360D01*
X347030Y286800D01*
G03Y286200I170J-300D01*
G37*
G36*
G01X347220Y295510D02*
X348190Y294960D01*
X348780Y295810D01*
X348190Y296660D01*
X347220Y296110D01*
G03Y295510I170J-300D01*
G37*
G36*
G01X361350Y313030D02*
X361910Y314010D01*
X361050Y314590D01*
X360190Y314010D01*
X360750Y313030D01*
G03X361350I300J170D01*
G37*
G36*
G01X359300Y315030D02*
X359860Y316010D01*
X359000Y316590D01*
X358140Y316010D01*
X358700Y315030D01*
G03X359300I300J170D01*
G37*
G36*
G01X352800Y333530D02*
X353360Y334510D01*
X352500Y335090D01*
X351640Y334510D01*
X352200Y333530D01*
G03X352800I300J170D01*
G37*
G36*
G01X350750Y331530D02*
X351310Y332510D01*
X350450Y333090D01*
X349590Y332510D01*
X350150Y331530D01*
G03X350750I300J170D01*
G37*
G36*
G01X355770Y333740D02*
X356860Y334040D01*
X356660Y335060D01*
X355640Y335260D01*
X355340Y334170D01*
G03X355770Y333740I340J-90D01*
G37*
G36*
G01X357050Y328780D02*
X357600Y329750D01*
X356750Y330340D01*
X355900Y329750D01*
X356450Y328780D01*
G03X357050I300J170D01*
G37*
G36*
G01X345470Y339300D02*
X344490Y339860D01*
X343910Y339000D01*
X344490Y338140D01*
X345470Y338700D01*
G03Y339300I-170J300D01*
G37*
G36*
G01X367490Y85990D02*
X380510D01*
X385500Y81000D01*
Y45000D01*
X388500Y42000D01*
X389070D01*
X389080Y41990D01*
X400510D01*
X400990Y41510D01*
Y35990D01*
X400500Y35500D01*
X382500D01*
X376500Y41500D01*
Y63000D01*
X375000Y64500D01*
X374690D01*
X374630Y64560D01*
G03X369310I-2660J-2566D01*
G01X369250Y64500D01*
X368500D01*
X367000Y66000D01*
Y85500D01*
X367490Y85990D01*
G37*
G36*
G01X368000Y97000D02*
X395500D01*
X398000Y94500D01*
Y67500D01*
X399880Y65620D01*
G02X399830Y65010I-280J-284D01*
G03X398280Y62000I2148J-3010D01*
G03X405660I3690J0D01*
G03X405620Y62540I-3690J-2D01*
G02X406020Y63000I395J60D01*
G01X407920D01*
G02X408320Y62540I5J-400D01*
G03X408280Y62000I3650J-542D01*
G03X410860Y58480I3691J0D01*
G01X411000Y58440D01*
Y42500D01*
X410000Y41500D01*
Y36000D01*
X409500Y35500D01*
X402500D01*
X402000Y36000D01*
Y42000D01*
X401000Y43000D01*
X389500D01*
X387000Y45500D01*
Y81500D01*
X385850Y82650D01*
G02X386130Y83330I281J282D01*
G01X390120D01*
G03X390830Y84040I-5J715D01*
G01Y89960D01*
G03X390120Y90670I-715J-5D01*
G01X384200D01*
G03X383490Y89960I5J-715D01*
G01Y85970D01*
G02X382810Y85690I-398J1D01*
G01X381500Y87000D01*
X367500D01*
X367000Y87500D01*
Y96000D01*
X368000Y97000D01*
G37*
G36*
G01X367720Y207740D02*
X368810Y208040D01*
X368610Y209060D01*
X367590Y209260D01*
X367290Y208170D01*
G03X367720Y207740I340J-90D01*
G37*
G36*
G01X362670Y227240D02*
X363760Y227540D01*
X363560Y228560D01*
X362540Y228760D01*
X362240Y227670D01*
G03X362670Y227240I340J-90D01*
G37*
G36*
G01X362170Y240740D02*
X363260Y241040D01*
X363060Y242060D01*
X362040Y242260D01*
X361740Y241170D01*
G03X362170Y240740I340J-90D01*
G37*
G36*
G01X362670Y230240D02*
X363760Y230540D01*
X363560Y231560D01*
X362540Y231760D01*
X362240Y230670D01*
G03X362670Y230240I340J-90D01*
G37*
G36*
G01X379330Y259760D02*
X378240Y259460D01*
X378440Y258440D01*
X379460Y258240D01*
X379760Y259330D01*
G03X379330Y259760I-340J90D01*
G37*
G36*
G01X379380Y256760D02*
X378290Y256460D01*
X378490Y255440D01*
X379510Y255240D01*
X379810Y256330D01*
G03X379380Y256760I-340J90D01*
G37*
G36*
G01X364580Y290700D02*
X365550Y290150D01*
X366140Y291000D01*
X365550Y291850D01*
X364580Y291300D01*
G03Y290700I170J-300D01*
G37*
G36*
G01X371530Y284750D02*
X372510Y284190D01*
X373090Y285050D01*
X372510Y285910D01*
X371530Y285350D01*
G03Y284750I170J-300D01*
G37*
G36*
G01X373980Y282650D02*
X374950Y282100D01*
X375540Y282950D01*
X374950Y283800D01*
X373980Y283250D01*
G03Y282650I170J-300D01*
G37*
G36*
G01X372240Y298330D02*
X372540Y297240D01*
X373560Y297440D01*
X373760Y298460D01*
X372670Y298760D01*
G03X372240Y298330I-90J-340D01*
G37*
G36*
G01X373200Y302470D02*
X372640Y301490D01*
X373500Y300910D01*
X374360Y301490D01*
X373800Y302470D01*
G03X373200I-300J-170D01*
G37*
G36*
G01X363700Y295230D02*
X363140Y294250D01*
X364000Y293670D01*
X364860Y294250D01*
X364300Y295230D01*
G03X363700I-300J-170D01*
G37*
G36*
G01X389260Y219170D02*
X388960Y220260D01*
X387940Y220060D01*
X387740Y219040D01*
X388830Y218740D01*
G03X389260Y219170I90J340D01*
G37*
G36*
G01X387170Y218740D02*
X388260Y219040D01*
X388060Y220060D01*
X387040Y220260D01*
X386740Y219170D01*
G03X387170Y218740I340J-90D01*
G37*
G36*
G01X389750Y246070D02*
X390510Y245640D01*
X391120Y246500D01*
X390510Y247360D01*
X389750Y246930D01*
G03Y246070I250J-430D01*
G37*
G36*
G01X400670Y262240D02*
X401760Y262540D01*
X401560Y263560D01*
X400540Y263760D01*
X400240Y262670D01*
G03X400670Y262240I340J-90D01*
G37*
G36*
G01X395530Y275200D02*
X396510Y274640D01*
X397090Y275500D01*
X396510Y276360D01*
X395530Y275800D01*
G03Y275200I170J-300D01*
G37*
G36*
G01X392780Y272950D02*
X393750Y272400D01*
X394340Y273250D01*
X393750Y274100D01*
X392780Y273550D01*
G03Y272950I170J-300D01*
G37*
G36*
G01X383740Y284830D02*
X384040Y283740D01*
X385060Y283940D01*
X385260Y284960D01*
X384170Y285260D01*
G03X383740Y284830I-90J-340D01*
G37*
G36*
G01Y287830D02*
X384040Y286740D01*
X385060Y286940D01*
X385260Y287960D01*
X384170Y288260D01*
G03X383740Y287830I-90J-340D01*
G37*
G36*
G01X414700Y242470D02*
X414140Y241490D01*
X415000Y240910D01*
X415860Y241490D01*
X415300Y242470D01*
G03X414700I-300J-170D01*
G37*
G36*
G01X415830Y238760D02*
X414740Y238460D01*
X414940Y237440D01*
X415960Y237240D01*
X416260Y238330D01*
G03X415830Y238760I-340J90D01*
G37*
G36*
G01X417250Y260030D02*
X417810Y261010D01*
X416950Y261590D01*
X416090Y261010D01*
X416650Y260030D01*
G03X417250I300J170D01*
G37*
G36*
G01X404330Y262240D02*
X405420Y262540D01*
X405220Y263560D01*
X404200Y263760D01*
X403900Y262670D01*
G03X404330Y262240I340J-90D01*
G37*
G36*
G01X418260Y284440D02*
X418810Y285410D01*
X417960Y286000D01*
X417110Y285410D01*
X417660Y284440D01*
G03X418260I300J170D01*
G37*
G36*
G01X434690Y123420D02*
X434450Y124260D01*
X433410Y124090D01*
X433240Y123050D01*
X434080Y122810D01*
G03X434690Y123420I130J480D01*
G37*
G36*
G01X438330Y201260D02*
X437240Y200960D01*
X437440Y199940D01*
X438460Y199740D01*
X438760Y200830D01*
G03X438330Y201260I-340J90D01*
G37*
G36*
G01Y197260D02*
X437240Y196960D01*
X437440Y195940D01*
X438460Y195740D01*
X438760Y196830D01*
G03X438330Y197260I-340J90D01*
G37*
G36*
G01X434670Y221740D02*
X435760Y222040D01*
X435560Y223060D01*
X434540Y223260D01*
X434240Y222170D01*
G03X434670Y221740I340J-90D01*
G37*
G36*
G01X430330Y218260D02*
X429240Y217960D01*
X429440Y216940D01*
X430460Y216740D01*
X430760Y217830D01*
G03X430330Y218260I-340J90D01*
G37*
G36*
G01X436030Y210200D02*
X437010Y209640D01*
X437590Y210500D01*
X437010Y211360D01*
X436030Y210800D01*
G03Y210200I170J-300D01*
G37*
G36*
G01X465080Y69690D02*
X464240Y69450D01*
X464410Y68410D01*
X465450Y68240D01*
X465690Y69080D01*
G03X465080Y69690I-480J130D01*
G37*
G36*
G01X464200Y89470D02*
X463640Y88490D01*
X464500Y87910D01*
X465360Y88490D01*
X464800Y89470D01*
G03X464200I-300J-170D01*
G37*
G36*
G01X464800Y99030D02*
X465360Y100010D01*
X464500Y100590D01*
X463640Y100010D01*
X464200Y99030D01*
G03X464800I300J170D01*
G37*
G36*
G01X457310Y117080D02*
X457550Y116240D01*
X458590Y116410D01*
X458760Y117450D01*
X457920Y117690D01*
G03X457310Y117080I-130J-480D01*
G37*
G36*
G01X446580Y152190D02*
X445740Y151950D01*
X445910Y150910D01*
X446950Y150740D01*
X447190Y151580D01*
G03X446580Y152190I-480J130D01*
G37*
G36*
G01X457930Y171250D02*
X458360Y172010D01*
X457500Y172620D01*
X456640Y172010D01*
X457070Y171250D01*
G03X457930I430J250D01*
G37*
G36*
G01X456080Y203200D02*
X457050Y202650D01*
X457640Y203500D01*
X457050Y204350D01*
X456080Y203800D01*
G03Y203200I170J-300D01*
G37*
G36*
G01X447530Y198700D02*
X448510Y198140D01*
X449090Y199000D01*
X448510Y199860D01*
X447530Y199300D01*
G03Y198700I170J-300D01*
G37*
G36*
G01X456280Y217930D02*
X455520Y218360D01*
X454900Y217500D01*
X455520Y216640D01*
X456280Y217070D01*
G03Y217930I-250J430D01*
G37*
G36*
G01X460750Y217070D02*
X461510Y216640D01*
X462120Y217500D01*
X461510Y218360D01*
X460750Y217930D01*
G03Y217070I250J-430D01*
G37*
G36*
G01X466200Y267090D02*
X465640Y266110D01*
X466500Y265530D01*
X467360Y266110D01*
X466800Y267090D01*
G03X466200I-300J-170D01*
G37*
G36*
G01X473470Y67850D02*
X472490Y68410D01*
X471910Y67550D01*
X472490Y66690D01*
X473470Y67250D01*
G03Y67850I-170J300D01*
G37*
G36*
G01X468250Y269470D02*
X467690Y268490D01*
X468550Y267910D01*
X469410Y268490D01*
X468850Y269470D01*
G03X468250I-300J-170D01*
G37*
G36*
G01X475670Y289240D02*
X476760Y289540D01*
X476560Y290560D01*
X475540Y290760D01*
X475240Y289670D01*
G03X475670Y289240I340J-90D01*
G37*
G36*
G01X475900Y294030D02*
X476460Y295010D01*
X475600Y295590D01*
X474740Y295010D01*
X475300Y294030D01*
G03X475900I300J170D01*
G37*
G36*
G01X496750Y72070D02*
X497510Y71640D01*
X498120Y72500D01*
X497510Y73360D01*
X496750Y72930D01*
G03Y72070I250J-430D01*
G37*
G36*
G01X497740Y65830D02*
X498040Y64740D01*
X499060Y64940D01*
X499260Y65960D01*
X498170Y66260D01*
G03X497740Y65830I-90J-340D01*
G37*
G36*
G01X490040Y159820D02*
X490930Y158880D01*
X494120Y160000D01*
X490930Y161120D01*
X490040Y160180D01*
G03Y159820I470J-180D01*
G37*
G36*
G01X488430Y181750D02*
X488860Y182510D01*
X488000Y183120D01*
X487140Y182510D01*
X487570Y181750D01*
G03X488430I430J250D01*
G37*
%LPC*%
G75*
G36*
G01X179290Y69030D02*
Y74970D01*
G02X180000Y75680I710J0D01*
G01X185940D01*
G02X186650Y74970I0J-710D01*
G01Y69030D01*
G02X185940Y68320I-710J0D01*
G01X180000D01*
G02X179290Y69030I0J710D01*
G37*
G36*
G01X242290D02*
Y74970D01*
G02X243000Y75680I710J0D01*
G01X248940D01*
G02X249650Y74970I0J-710D01*
G01Y69030D01*
G02X248940Y68320I-710J0D01*
G01X243000D01*
G02X242290Y69030I0J710D01*
G37*
G36*
G01X305290D02*
Y74970D01*
G02X306000Y75680I710J0D01*
G01X311940D01*
G02X312650Y74970I0J-710D01*
G01Y69030D01*
G02X311940Y68320I-710J0D01*
G01X306000D01*
G02X305290Y69030I0J710D01*
G37*
G36*
G01X368290D02*
Y74970D01*
G02X369000Y75680I710J0D01*
G01X374940D01*
G02X375650Y74970I0J-710D01*
G01Y69030D01*
G02X374940Y68320I-710J0D01*
G01X369000D01*
G02X368290Y69030I0J710D01*
G37*
%LPD*%
G75*
G54D10*
X6000Y38990D03*
Y28990D03*
Y58990D03*
Y48990D03*
Y78990D03*
Y68990D03*
Y98990D03*
Y88990D03*
X6010Y119000D03*
X6000Y108990D03*
X6010Y129000D03*
X16000Y38990D03*
Y48990D03*
Y78990D03*
Y68990D03*
Y98990D03*
X16010Y119000D03*
X26010D03*
X16000Y108990D03*
X16010Y129000D03*
X50990Y370000D03*
Y380000D03*
X40990D03*
X60990Y370000D03*
Y380000D03*
X96000Y275160D03*
X129890Y122010D03*
Y112170D03*
Y131850D03*
X154840Y87000D03*
X139890Y122010D03*
X149890D03*
X139890Y112170D03*
X149890D03*
X139890Y131850D03*
X149890D03*
X159890Y122010D03*
Y112170D03*
Y131850D03*
X192890Y122010D03*
Y112170D03*
Y131850D03*
X192000Y372500D03*
X217840Y87000D03*
X202890Y122010D03*
X212890D03*
X202890Y112170D03*
X212890D03*
X202890Y131850D03*
X212890D03*
X212000Y372500D03*
Y362500D03*
X202000Y372500D03*
Y362500D03*
X222890Y122010D03*
Y112170D03*
Y131850D03*
X232000Y372500D03*
Y362500D03*
X222000Y372500D03*
Y362500D03*
X255900Y122010D03*
Y112170D03*
Y131850D03*
X252000Y372500D03*
Y362500D03*
X242000Y372500D03*
Y362500D03*
X280840Y87000D03*
X265900Y122010D03*
X275900D03*
X265900Y112170D03*
X275900D03*
X265900Y131850D03*
X275900D03*
X272000Y372500D03*
Y362500D03*
X262000Y372500D03*
Y362500D03*
X285900Y122010D03*
Y112170D03*
Y131850D03*
X302000Y372500D03*
Y362500D03*
X292000Y372500D03*
Y362500D03*
X282000Y372500D03*
Y362500D03*
X319000Y122010D03*
Y112170D03*
Y131850D03*
X322000Y372500D03*
Y362500D03*
X312000Y372500D03*
Y362500D03*
X329000Y122010D03*
X339000D03*
X329000Y112170D03*
X339000D03*
X329000Y131850D03*
X339000D03*
X342000Y372500D03*
Y362500D03*
X332000Y372500D03*
Y362500D03*
X343840Y87000D03*
X349000Y122010D03*
Y112170D03*
Y131850D03*
X362000Y372500D03*
Y362500D03*
X352000Y372500D03*
Y362500D03*
X381890Y122010D03*
Y112170D03*
Y131850D03*
X382000Y372500D03*
Y362500D03*
X372000Y372500D03*
Y362500D03*
X391890Y122010D03*
X401890D03*
X391890Y112170D03*
X401890D03*
X391890Y131850D03*
X401890D03*
X406840Y87000D03*
X411890Y122010D03*
Y112170D03*
Y131850D03*
G54D11*
X8440Y143000D03*
X9130Y337560D03*
Y357560D03*
Y377560D03*
X28440Y143000D03*
X17000Y337560D03*
Y357560D03*
Y377560D03*
X48000Y121440D03*
X63560Y23870D03*
Y16000D03*
X55870Y121440D03*
X83560Y23870D03*
Y16000D03*
X75190Y377560D03*
X83060D03*
X90940D03*
X103560Y23870D03*
Y16000D03*
X124130Y150560D03*
X132000D03*
X147130Y377560D03*
X155000D03*
X187130Y150560D03*
X195000D03*
X382940Y326440D03*
X375060D03*
X390810D03*
X437690Y348060D03*
X445560D03*
X462440Y9250D03*
Y17130D03*
Y25000D03*
Y32870D03*
X453440Y348060D03*
X522370Y225940D03*
Y218060D03*
Y233810D03*
Y290940D03*
Y283060D03*
Y298810D03*
Y355940D03*
Y348060D03*
Y363810D03*
G54D20*
X20160Y313990D03*
X34730D03*
X51660D03*
X66230D03*
G54D30*
X119970Y72000D03*
Y132000D03*
X182970Y72000D03*
Y132000D03*
X245970Y72000D03*
Y132000D03*
X308970Y72000D03*
Y132000D03*
X371970Y72000D03*
Y132000D03*
G54D21*
X27500Y331000D03*
X26500D03*
X27500Y351000D03*
X26500D03*
X27500Y371000D03*
X26500D03*
X57000Y10500D03*
Y9500D03*
X77000Y10500D03*
Y9500D03*
X97000Y10500D03*
Y9500D03*
X106000Y101500D03*
Y100500D03*
X142500Y144000D03*
X141500D03*
X160500Y370000D03*
X161500D03*
X205500Y144000D03*
X204500D03*
G54D12*
X12670Y167030D03*
Y198450D03*
G54D40*
G01X40530Y156970D02*
X43000Y154500D01*
X115500D01*
G01X72000Y37000D02*
X91000D01*
G01X106000Y103000D02*
X107510D01*
X108560Y104050D01*
Y106000D01*
G01X106000Y101500D02*
Y103000D01*
G01Y95000D02*
X103000D01*
X102000Y96000D01*
G01X106000Y100500D02*
Y99000D01*
G01D02*
X101750D01*
G01X109670Y91120D02*
X104620D01*
G01X102950Y123050D02*
X107620Y118380D01*
G01X92120Y127380D02*
X98620D01*
X102950Y123050D01*
G01X112500Y39500D02*
Y41500D01*
X113000Y42000D01*
Y104000D01*
X111000Y106000D01*
X108560D01*
G01X115500Y154500D02*
X162500D01*
G01X129380Y363380D02*
X141880D01*
X142000Y363500D01*
X144000D01*
G01X140300Y32300D02*
Y29200D01*
X140500Y29000D01*
Y27000D01*
G01X149300Y32300D02*
Y29200D01*
X149500Y29000D01*
Y27000D01*
G01X199000Y144000D02*
X186500D01*
X184500Y142000D01*
X154510D01*
X152810Y140300D01*
X136870D01*
X136000Y141170D01*
Y142520D01*
G01X147500Y313000D02*
X163000D01*
X165500Y315500D01*
G01X149990Y303500D02*
X159040D01*
G01X163050Y309000D02*
X161050Y307000D01*
X147500D01*
G01X158300Y32300D02*
Y29200D01*
X158500Y29000D01*
Y27000D01*
G01X167300Y32300D02*
Y29200D01*
X167500Y29000D01*
Y27000D01*
G01X162500Y154500D02*
X179500D01*
G01X224620Y215380D02*
X173120D01*
X172120Y216380D01*
X172000D01*
G01X160500Y370000D02*
X159000D01*
G01X161500D02*
X163000D01*
G01X167000D02*
Y365500D01*
G01X203300Y32300D02*
Y29200D01*
X203500Y29000D01*
Y27000D01*
G01X212300Y32300D02*
Y29200D01*
X212500Y29000D01*
Y27000D01*
G01X205500Y144000D02*
X207000D01*
G01X203000D02*
X204500D01*
G01X215820Y302180D02*
X238180D01*
X239380Y303380D01*
X246620D01*
G01X221300Y32300D02*
Y29200D01*
X221500Y29000D01*
Y27000D01*
G01X230300Y32300D02*
Y29200D01*
X230500Y29000D01*
Y27000D01*
G01X275300Y32300D02*
Y29200D01*
X275500Y29000D01*
Y27000D01*
G01X266300Y32300D02*
Y29200D01*
X266500Y29000D01*
Y27000D01*
G01X284300Y32300D02*
Y29200D01*
X284500Y29000D01*
Y27000D01*
G01X293300Y32300D02*
Y29200D01*
X293500Y29000D01*
Y27000D01*
G01X315000Y158250D02*
X322750D01*
X327000Y154000D01*
X340990D01*
G01X329300Y32300D02*
Y29200D01*
X329500Y29000D01*
Y27000D01*
G01X338300Y32300D02*
Y29200D01*
X338500Y29000D01*
Y27000D01*
G01X347300Y32300D02*
Y29200D01*
X347500Y29000D01*
Y27000D01*
G01X356300Y32300D02*
Y29200D01*
X356500Y29000D01*
Y27000D01*
G01X391000Y246500D02*
X352000D01*
G01X392300Y32300D02*
Y29200D01*
X392500Y29000D01*
Y27000D01*
G01X401300Y32300D02*
Y29200D01*
X401500Y29000D01*
Y27000D01*
G01X419300Y32300D02*
Y29200D01*
X419500Y29000D01*
Y27000D01*
G01X410300Y32300D02*
Y29200D01*
X410500Y29000D01*
Y27000D01*
G01X458500Y116500D02*
X455000Y120000D01*
X437500D01*
X433500Y124000D01*
G01X498000Y72500D02*
X468500D01*
X464500Y68500D01*
G01X446000Y151000D02*
X457500Y162500D01*
Y172500D01*
G01X462000Y217500D02*
X455030D01*
G01X488000Y183000D02*
Y162510D01*
X490510Y160000D01*
X493990D01*
G54D13*
X8440Y150870D03*
X28440D03*
X24870Y337560D03*
Y357560D03*
Y377560D03*
X40130Y121440D03*
X63560Y8130D03*
X83560D03*
X103560D03*
X98810Y377560D03*
X139870Y150560D03*
X162870Y377560D03*
X202870Y150560D03*
X367190Y326440D03*
X462440Y40750D03*
X461310Y348060D03*
X522370Y210190D03*
Y275190D03*
Y340190D03*
G54D31*
X132840Y379750D03*
G54D22*
X21000Y331000D03*
X25000D03*
X29000D03*
X21000Y351000D03*
X25000D03*
X29000D03*
X21000Y371000D03*
X25000D03*
X29000D03*
X136000Y144000D03*
X140000D03*
X144000D03*
X167000Y370000D03*
X163000D03*
X159000D03*
X199000Y144000D03*
X203000D03*
X207000D03*
G54D41*
G01X120000Y5990D02*
X125750D01*
X128580Y3160D01*
X174420D01*
X177250Y5990D01*
X183000D01*
G01D02*
X188750D01*
X191580Y3160D01*
X237420D01*
X240250Y5990D01*
X246000D01*
G01D02*
X251750D01*
X254580Y3160D01*
X300420D01*
X303250Y5990D01*
X309000D01*
G01X372000D02*
X366250D01*
X363420Y3160D01*
X317580D01*
X314750Y5990D01*
X309000D01*
G54D32*
X438120Y366490D03*
X460880D03*
G54D14*
X21000Y9830D03*
X31000D03*
Y40830D03*
Y69830D03*
Y99830D03*
X156000Y10840D03*
X146000D03*
X136000D03*
X219000D03*
X209000D03*
X199000D03*
X272000D03*
X262000D03*
X282000D03*
X335000D03*
X325000D03*
X345000D03*
X359000Y167990D03*
Y187990D03*
Y177990D03*
Y197990D03*
X398000Y10840D03*
X388000D03*
X408000D03*
X440840Y20000D03*
Y10000D03*
Y30000D03*
X503990Y160000D03*
X522000Y62010D03*
Y91010D03*
X533170Y33000D03*
Y43000D03*
Y170000D03*
Y180000D03*
G54D23*
G01X57000Y12000D02*
X47500D01*
X39000Y3500D01*
X6000D01*
X3500Y6000D01*
Y20500D01*
X6000Y23000D01*
Y28990D01*
G01X27500Y331000D02*
X29000D01*
G01Y351000D02*
Y331000D01*
G01X25000D02*
Y337430D01*
X24870Y337560D01*
G01X26500Y331000D02*
X25000D01*
G01X27500Y351000D02*
X29000D01*
G01Y371000D02*
Y351000D01*
G01X25000D02*
Y357430D01*
X24870Y357560D01*
G01X26500Y351000D02*
X25000D01*
G01Y371000D02*
Y377430D01*
X24870Y377560D01*
G01X26500Y371000D02*
X25000D01*
G01X27500D02*
X29000D01*
G01D02*
Y374000D01*
G01X57000Y8000D02*
X63430D01*
X63560Y8130D01*
G01X57000Y9500D02*
Y8000D01*
G01Y10500D02*
Y12000D01*
G01X77000Y4000D02*
X57000D01*
G01X77000Y10500D02*
Y12000D01*
G01Y8000D02*
X83430D01*
X83560Y8130D01*
G01X77000Y9500D02*
Y8000D01*
G01X97000Y4000D02*
X77000D01*
G01X97000Y10500D02*
Y12000D01*
G01Y4000D02*
X113260D01*
X115250Y5990D01*
X120000D01*
G01X97000Y8000D02*
X103430D01*
X103560Y8130D01*
G01X97000Y9500D02*
Y8000D01*
G01X133250Y142500D02*
X135980D01*
X136000Y142520D01*
G01X142500Y144000D02*
X144000D01*
G01D02*
Y148000D01*
G01X136000Y144000D02*
Y142520D01*
G01X140000Y144000D02*
Y150430D01*
X139870Y150560D01*
G01X141500Y144000D02*
X140000D01*
G01X159000Y370000D02*
Y365500D01*
G01X208030Y151940D02*
Y149040D01*
X207000Y148010D01*
Y144000D01*
G01X202870Y150560D02*
X203000Y150430D01*
Y144000D01*
G01X414000Y215050D02*
X394000D01*
X29000Y374000D03*
X40530Y138030D03*
Y156970D03*
X48000Y229740D03*
Y225740D03*
Y249740D03*
Y245740D03*
Y241740D03*
Y237740D03*
Y233740D03*
Y253740D03*
X59000Y37500D03*
X54880Y137120D03*
X51000Y139500D03*
X55380Y157880D03*
X68000Y225740D03*
X64000D03*
Y229740D03*
X68000D03*
X60000D03*
Y225740D03*
X56000D03*
Y229740D03*
X52000D03*
Y225740D03*
X64000Y233740D03*
X68000D03*
Y241740D03*
Y237740D03*
X64000D03*
Y241740D03*
X60000D03*
Y237740D03*
Y233740D03*
X56000D03*
Y237740D03*
Y241740D03*
X52000D03*
Y237740D03*
Y233740D03*
X68000Y249740D03*
X64000D03*
X60000D03*
X56000D03*
X52000D03*
Y245740D03*
X56000D03*
X60000D03*
X64000D03*
X68000D03*
Y253740D03*
X64000D03*
X60000D03*
X56000D03*
X52000D03*
X91000Y37000D03*
X72000D03*
X89500Y80000D03*
X85500D03*
Y84000D03*
X89500D03*
X72380Y95880D03*
X85500Y88000D03*
X89500D03*
Y92000D03*
Y96000D03*
Y100000D03*
X85500D03*
Y96000D03*
Y92000D03*
X89500Y104000D03*
X85500D03*
X82620Y95880D03*
X72380Y115880D03*
X87000Y114500D03*
X92120Y127380D03*
X84380Y159880D03*
X79050Y159950D03*
X84500Y173000D03*
X88500D03*
Y177000D03*
Y181000D03*
X84500D03*
X80500D03*
Y177000D03*
Y173000D03*
X84500Y177000D03*
X80500Y207000D03*
X88500D03*
X84500D03*
X78050Y193950D03*
X88500Y215000D03*
X84500D03*
X80500D03*
Y211000D03*
X88500D03*
X84500D03*
X72000Y229740D03*
Y225740D03*
X76000D03*
Y229740D03*
X72000Y233740D03*
Y237740D03*
Y241740D03*
X76000Y233740D03*
Y237740D03*
Y241740D03*
Y245740D03*
Y249740D03*
X72000D03*
Y245740D03*
X92000Y257500D03*
Y261500D03*
Y265500D03*
Y269500D03*
Y253500D03*
X76000Y253740D03*
X72000D03*
X112500Y39500D03*
X97500Y49000D03*
X104000Y78500D03*
X108000D03*
Y82500D03*
Y74500D03*
X104000D03*
X108560Y106000D03*
X102000Y96000D03*
X101750Y99000D03*
X99000Y96000D03*
X93000D03*
X96000D03*
X93000Y103000D03*
X96000D03*
X99000D03*
Y100000D03*
X93000D03*
X104620Y91120D03*
X109670D03*
X102950Y123050D03*
X107620Y118380D03*
X96000Y109000D03*
X99000D03*
X93000D03*
Y114500D03*
X96000D03*
X99000D03*
X107510Y123990D03*
X104000Y149500D03*
X94380Y182380D03*
X99500Y179000D03*
X95250Y204250D03*
X94380Y215880D03*
X99500Y213000D03*
X113000Y210500D03*
X101000Y240000D03*
X108000Y257500D03*
X104000D03*
X100000D03*
X96000D03*
Y261500D03*
X100000D03*
X104000D03*
X108000D03*
Y269500D03*
Y265500D03*
X104000D03*
Y269500D03*
X96000Y265500D03*
X100000D03*
Y269500D03*
X96000D03*
Y253500D03*
X104000Y273500D03*
X109500Y324500D03*
X113500Y123500D03*
Y119500D03*
X113550Y116500D03*
X133250Y142500D03*
X119500Y138000D03*
X115500Y154500D03*
X114000Y179000D03*
X121000Y171000D03*
X114000Y175000D03*
X114500Y206500D03*
X127000Y213000D03*
X131000D03*
X123000D03*
X131000Y217000D03*
X123000D03*
X131000Y221000D03*
X127000D03*
X123000D03*
X120000Y279000D03*
X130620Y291880D03*
X125500Y324500D03*
X121500D03*
X117500D03*
X113500D03*
X126000Y354000D03*
X132620Y368000D03*
X129380Y363380D03*
X128000Y368500D03*
X149500Y27000D03*
X140500D03*
X151000Y40500D03*
Y36500D03*
Y38500D03*
X148000Y40500D03*
Y38500D03*
Y36500D03*
X142000Y38500D03*
Y36500D03*
Y40500D03*
X147000Y24000D03*
X142000D03*
X147000Y30000D03*
X142500D03*
X151000Y24000D03*
X151500Y30000D03*
X144000Y148000D03*
Y158000D03*
X154000Y160000D03*
Y186000D03*
X134500Y169000D03*
X143000Y223000D03*
X152000Y228000D03*
Y224000D03*
X148000Y228000D03*
Y224000D03*
X140000Y228000D03*
Y224000D03*
X144000Y228000D03*
X152000Y232000D03*
X148000D03*
X144000D03*
Y236000D03*
Y240000D03*
X140000D03*
Y236000D03*
Y232000D03*
X147500Y313000D03*
X149990Y303500D03*
X147500Y307000D03*
X154440Y341440D03*
X144000Y363500D03*
X158500Y27000D03*
X167500D03*
X160000Y40500D03*
Y36500D03*
Y38500D03*
X166000Y36500D03*
Y38500D03*
Y40500D03*
X169000D03*
Y36500D03*
Y38500D03*
X175000Y40500D03*
Y38500D03*
Y36500D03*
X157000D03*
Y38500D03*
Y40500D03*
X174500Y30000D03*
X169000Y24000D03*
X174500D03*
X169500Y30000D03*
X156000Y24000D03*
Y30000D03*
X165000Y24000D03*
X160000D03*
X165000Y30000D03*
X160500D03*
X162500Y154500D03*
X158000Y150000D03*
X170000Y148620D03*
X160050Y189550D03*
X164500Y200000D03*
X169720Y201500D03*
X167160Y198000D03*
X172280Y199000D03*
X174840Y202000D03*
X172000Y216380D03*
X156000Y228000D03*
X160000D03*
Y231000D03*
X156000Y225000D03*
Y231000D03*
X160000Y225000D03*
X172500Y223000D03*
Y227000D03*
Y231000D03*
X164500Y251500D03*
X157500D03*
X172500Y235000D03*
Y239000D03*
Y243000D03*
Y251000D03*
Y247000D03*
X168500D03*
Y251000D03*
X157500Y256000D03*
X161000D03*
X164500D03*
X172500Y267000D03*
Y263000D03*
Y259000D03*
Y255000D03*
X168500D03*
Y259000D03*
Y263000D03*
Y267000D03*
X173000Y293000D03*
X163500D03*
X166500D03*
X159040Y303500D03*
X163050Y309000D03*
X165500Y315500D03*
X171500Y365500D03*
X159000D03*
X167000D03*
X176500Y144450D03*
X192500Y159000D03*
X196000Y160500D03*
X193000Y165500D03*
X179500Y154500D03*
X187000Y173000D03*
X186000Y198620D03*
X177500Y199000D03*
X179960Y202000D03*
X176500Y231000D03*
Y227000D03*
Y223000D03*
Y235000D03*
Y239000D03*
Y243000D03*
Y247000D03*
Y251000D03*
Y255000D03*
Y259000D03*
Y263000D03*
Y267000D03*
X194000Y291500D03*
Y288500D03*
Y285000D03*
X190500D03*
Y288500D03*
Y291500D03*
X195820Y310180D03*
Y314180D03*
X191820Y310180D03*
Y314180D03*
X183820Y310180D03*
Y314180D03*
X191820Y306180D03*
X183820D03*
X191820Y302180D03*
X183820D03*
X195820Y318180D03*
X191820D03*
X183820D03*
X188000Y330500D03*
X203500Y27000D03*
X212500D03*
X214000Y40500D03*
Y36500D03*
Y38500D03*
X211000Y40500D03*
Y38500D03*
Y36500D03*
X205000Y38500D03*
Y36500D03*
Y40500D03*
X210000Y24000D03*
X205000D03*
X210000Y30000D03*
X205500D03*
X214000Y24000D03*
X214500Y30000D03*
X208030Y151940D03*
X213000Y158000D03*
X206000D03*
X200500Y189000D03*
Y185000D03*
X207500Y180000D03*
X203500Y175000D03*
X199000D03*
X207500D03*
X214500Y181500D03*
Y184500D03*
X216000Y198620D03*
X201000Y222000D03*
X210000Y231000D03*
Y223000D03*
Y227000D03*
X214000Y224000D03*
Y230000D03*
Y227000D03*
X206000Y231000D03*
Y223000D03*
Y227000D03*
X202000Y231000D03*
X198000D03*
Y227000D03*
Y223000D03*
X202000Y227000D03*
X215500Y250500D03*
X202000Y235000D03*
Y239000D03*
X198000D03*
Y235000D03*
X215500Y255000D03*
X197500Y285000D03*
Y288500D03*
Y291500D03*
X205380Y286000D03*
X199820Y310180D03*
Y314180D03*
X203820Y310180D03*
Y314180D03*
X207820Y310180D03*
Y314180D03*
X211820Y310180D03*
Y314180D03*
X215820D03*
Y310180D03*
Y302180D03*
X199820Y318180D03*
X203820D03*
X207820D03*
X211820D03*
X215820D03*
X221500Y27000D03*
X230500D03*
X223000Y40500D03*
Y36500D03*
Y38500D03*
X229000Y36500D03*
Y38500D03*
Y40500D03*
X238000D03*
Y38500D03*
Y36500D03*
X232000Y40500D03*
Y36500D03*
Y38500D03*
X220000Y36500D03*
Y38500D03*
Y40500D03*
X237500Y30000D03*
X232000Y24000D03*
X237500D03*
X232500Y30000D03*
X219000Y24000D03*
Y30000D03*
X228000Y24000D03*
X223000D03*
X228000Y30000D03*
X223500D03*
X234500Y142980D03*
X218500Y155500D03*
X217380Y168120D03*
X225920Y155920D03*
X220620Y165500D03*
X223110Y185110D03*
X217500Y184500D03*
Y181640D03*
X233000Y201500D03*
X238000D03*
X236000Y220000D03*
Y216000D03*
X232000Y220000D03*
Y216000D03*
X224620Y215380D03*
X237000Y247000D03*
Y243500D03*
X222500Y250500D03*
X227000D03*
X222500Y255000D03*
X219000D03*
X233000Y261000D03*
X227000Y255000D03*
X222000Y284000D03*
X226000D03*
X230000D03*
X222000Y292000D03*
Y288000D03*
X226000D03*
X230000D03*
Y292000D03*
X226000D03*
X219820Y310180D03*
Y314180D03*
X222000Y296000D03*
X230000D03*
X226000D03*
X219820Y318180D03*
X255000Y156000D03*
X240000Y153500D03*
X253000Y166000D03*
X250120Y171620D03*
X246500Y172000D03*
X258000Y201500D03*
X248000D03*
X253000D03*
X243000D03*
X253000Y210000D03*
X240000Y220000D03*
Y216000D03*
X252000Y229000D03*
Y225000D03*
X248000Y221000D03*
Y225000D03*
Y229000D03*
X258500Y219000D03*
X241000Y247000D03*
Y243500D03*
X252000Y249000D03*
Y245000D03*
Y241000D03*
Y237000D03*
Y233000D03*
X249500Y272600D03*
X248000Y261000D03*
Y257000D03*
X252000Y261000D03*
Y257000D03*
Y253000D03*
X257850Y264500D03*
Y267490D03*
X253000Y270550D03*
X257000Y270500D03*
X240000Y281350D03*
X249500Y285000D03*
Y281000D03*
X246620Y303380D03*
X258000Y342500D03*
X275500Y27000D03*
X266500D03*
X277000Y40500D03*
Y36500D03*
Y38500D03*
X268000Y40500D03*
Y36500D03*
Y38500D03*
X274000Y36500D03*
Y38500D03*
Y40500D03*
X273000Y24000D03*
X268000D03*
X273000Y30000D03*
X268500D03*
X277000Y24000D03*
X277500Y30000D03*
X279620Y163500D03*
X260000Y167500D03*
Y183000D03*
X269560Y188940D03*
X265000Y193500D03*
X269450Y229500D03*
X259950Y222000D03*
X274000Y230500D03*
X265950Y224900D03*
X269450Y232680D03*
X269000Y237000D03*
X269400Y248500D03*
X264900Y238500D03*
X259900Y232500D03*
X266000Y233000D03*
X278500Y240500D03*
X264670Y242280D03*
X277000Y289000D03*
X265000Y286500D03*
X265800Y281200D03*
X279000Y294330D03*
X269500D03*
X272000Y297000D03*
X264400Y308000D03*
X260000Y305000D03*
Y296000D03*
X268950Y322000D03*
X268000Y351500D03*
X295000Y40500D03*
Y36500D03*
Y38500D03*
X286000Y40500D03*
Y36500D03*
Y38500D03*
X292000Y36500D03*
Y38500D03*
Y40500D03*
X284500Y27000D03*
X293500D03*
X283000Y36500D03*
Y38500D03*
Y40500D03*
X282000Y24000D03*
Y30000D03*
X291000Y24000D03*
X286000D03*
X291000Y30000D03*
X286500D03*
X300500D03*
X295000Y24000D03*
X300500D03*
X295500Y30000D03*
X297000Y144500D03*
X289500D03*
X298160Y168000D03*
X295100Y158690D03*
X293000Y150000D03*
X300000D03*
X290480Y181020D03*
X288000Y201500D03*
X298000D03*
X293000D03*
X283000D03*
X288750Y210250D03*
X297100Y229000D03*
X293500D03*
X281000Y230500D03*
X285500Y210500D03*
X281000Y227500D03*
Y251360D03*
X299300Y239550D03*
X297000Y241950D03*
X286500Y258000D03*
X280380Y260620D03*
X286000Y284080D03*
X287150Y307000D03*
X280500Y310000D03*
X300000Y322500D03*
X285000Y348000D03*
X289000Y351500D03*
X301000Y40500D03*
Y38500D03*
Y36500D03*
X302000Y119500D03*
X315000Y150000D03*
X302500Y168000D03*
X318500Y150500D03*
X321050Y155500D03*
X315000Y158250D03*
X308000Y150000D03*
X312300D03*
X318000Y201500D03*
X303000D03*
X313000D03*
X308000D03*
X314500Y231050D03*
X308050Y222500D03*
X301350D03*
X314000Y218400D03*
X317000Y224900D03*
X320000Y237000D03*
X313500Y243000D03*
X307000Y241500D03*
X304000Y241950D03*
X313500Y272450D03*
X317500Y279500D03*
Y276500D03*
X311050Y279000D03*
X308000Y304050D03*
X301000Y297000D03*
X321500Y299500D03*
X318380Y322120D03*
X315600Y334000D03*
Y328500D03*
X301500Y333000D03*
X313160Y318840D03*
X312000Y339500D03*
X315600Y338000D03*
X301500Y337000D03*
X317000Y342000D03*
X337000Y36500D03*
Y38500D03*
Y40500D03*
X331000D03*
Y38500D03*
Y36500D03*
X329500Y27000D03*
X338500D03*
X340000Y40500D03*
Y38500D03*
Y36500D03*
X336000Y30000D03*
X331500D03*
X336000Y24000D03*
X331000D03*
X340500Y30000D03*
X340000Y24000D03*
X324500Y126500D03*
X332500Y164000D03*
X327550Y159500D03*
X327580Y156570D03*
X340990Y154000D03*
X323450Y178000D03*
X337000Y172000D03*
X323000Y201500D03*
X324000Y206550D03*
X342050Y192000D03*
X324890Y230500D03*
X322500Y229000D03*
X332500Y225500D03*
X335000Y222500D03*
X334950Y219500D03*
X330500Y218400D03*
X339000Y238000D03*
X330500Y237000D03*
X329500Y243500D03*
X335000Y267000D03*
X330000D03*
X328550Y289500D03*
X335050Y278500D03*
X330000Y276500D03*
X325000Y299500D03*
X340000Y322750D03*
X335000D03*
Y331000D03*
X340000D03*
X332400Y330000D03*
Y334000D03*
X324000Y342000D03*
X330920D03*
X337500Y345500D03*
X358000Y40500D03*
Y38500D03*
Y36500D03*
X349000Y40500D03*
X355000Y36500D03*
Y38500D03*
Y40500D03*
X349000Y38500D03*
Y36500D03*
X347500Y27000D03*
X356500D03*
X346000Y36500D03*
Y38500D03*
Y40500D03*
X345000Y30000D03*
Y24000D03*
X349500Y30000D03*
X354000D03*
Y24000D03*
X349000D03*
X358500Y30000D03*
X358000Y24000D03*
X351000Y153500D03*
X354000Y151450D03*
X350000Y179500D03*
X361550Y215000D03*
X361730Y211920D03*
X352000Y246500D03*
Y238000D03*
X348000D03*
X343000D03*
X363000Y242000D03*
X358500Y272190D03*
Y269500D03*
X348500Y286500D03*
X359000Y307620D03*
X348690Y295810D03*
X361050Y314500D03*
X359000Y316500D03*
X352500Y335000D03*
X350450Y333000D03*
X356600Y335000D03*
X356750Y330250D03*
X344000Y339000D03*
X364000Y36500D03*
Y38500D03*
Y40500D03*
X363500Y30000D03*
Y24000D03*
X364000Y118500D03*
X367000Y144400D03*
X364500Y159000D03*
X364450Y163500D03*
X369500Y152500D03*
X368550Y209000D03*
X363500Y228500D03*
X366950Y214060D03*
X363500Y231500D03*
X378500Y258500D03*
X378550Y255500D03*
X366050Y291000D03*
X373000Y285050D03*
X364000Y293760D03*
X375450Y282950D03*
X367000Y302000D03*
X373500Y297500D03*
Y301000D03*
X375500Y331000D03*
X374520Y319480D03*
X383480D03*
X378950Y335950D03*
X392500Y27000D03*
X401500D03*
X403000Y40500D03*
Y36500D03*
Y38500D03*
X394000Y40500D03*
Y36500D03*
Y38500D03*
X400000Y36500D03*
Y38500D03*
Y40500D03*
X399000Y30000D03*
Y24000D03*
X394000D03*
X394500Y30000D03*
X403000Y24000D03*
X403500Y30000D03*
X404000Y202620D03*
X394000Y215050D03*
X388500Y224000D03*
X397500Y227500D03*
X388000Y220000D03*
X391000Y246500D03*
X401500Y263500D03*
X402500Y285500D03*
X394520D03*
X397000Y275500D03*
X394250Y273250D03*
X385000Y284000D03*
Y287000D03*
X390000Y310000D03*
Y303500D03*
X403000Y294500D03*
X394500Y294000D03*
X394000Y315000D03*
X401500D03*
X401650Y335950D03*
X410500Y27000D03*
X419500D03*
X412000Y40500D03*
Y36500D03*
Y38500D03*
X418000Y36500D03*
Y38500D03*
Y40500D03*
X421000D03*
Y36500D03*
Y38500D03*
X409000Y36500D03*
Y38500D03*
Y40500D03*
X421000Y24000D03*
X421500Y30000D03*
X408000D03*
Y24000D03*
X417000Y30000D03*
Y24000D03*
X412000D03*
X412500Y30000D03*
X423120Y157380D03*
X419000Y195500D03*
X414000Y215050D03*
X407000Y227500D03*
X415000Y241000D03*
Y237500D03*
X407500Y251500D03*
X416950Y261500D03*
X405160Y263500D03*
X425000Y253000D03*
X424500Y268000D03*
X417960Y285910D03*
X407500Y310500D03*
Y304000D03*
X418000Y305000D03*
X420880Y302620D03*
X418000Y296500D03*
X427000Y40500D03*
Y38500D03*
Y36500D03*
X426500Y30000D03*
Y24000D03*
X446480Y52020D03*
X433500Y124000D03*
X446000Y151000D03*
X430000Y160620D03*
X437500Y200000D03*
Y196000D03*
X427500Y227500D03*
Y222500D03*
X429500Y217000D03*
X435500Y223000D03*
X437500Y210500D03*
X427500Y237500D03*
Y232500D03*
X444500Y266000D03*
X445000Y292500D03*
X431500Y290000D03*
Y286000D03*
X427050Y310550D03*
Y294000D03*
Y304000D03*
X445000Y303000D03*
X443620Y312380D03*
X437000Y331000D03*
Y333500D03*
X435000Y321000D03*
X441000D03*
X430000Y318000D03*
X454520Y56480D03*
X463480Y51020D03*
X464500Y68500D03*
Y100500D03*
Y88000D03*
X458500Y116500D03*
X457000Y156500D03*
X457500Y172500D03*
Y177500D03*
Y197500D03*
X457550Y203500D03*
X449000Y199000D03*
X455000Y209000D03*
X462000D03*
Y217500D03*
X455030D03*
X457000Y244500D03*
X452000Y260000D03*
X466500Y262380D03*
X448000Y268000D03*
X456000Y260000D03*
X466500Y265620D03*
X453000Y281000D03*
X457000D03*
Y285000D03*
X453000D03*
X449000D03*
Y281000D03*
Y277000D03*
X453000D03*
X457000D03*
X462000Y314500D03*
X464000Y304000D03*
X456000Y298000D03*
Y301500D03*
X456750Y321130D03*
X462000Y318000D03*
X458000D03*
X459000Y329000D03*
X463000Y321000D03*
X470620Y51120D03*
X477120Y82620D03*
X472000Y67550D03*
X479500Y162000D03*
X471000D03*
X467500Y177500D03*
X473380Y184500D03*
X488000Y183000D03*
X484000Y206500D03*
Y212500D03*
Y264500D03*
Y258500D03*
X473000Y272000D03*
X470000Y257000D03*
X468550Y268000D03*
X484000Y270500D03*
X473000Y278000D03*
X476500Y290500D03*
X484000Y276500D03*
X480000Y310000D03*
Y314000D03*
X484000Y310000D03*
X476000D03*
Y314000D03*
X472000Y310000D03*
X475600Y295500D03*
X482500Y326500D03*
Y332500D03*
X476500D03*
Y326500D03*
X470500Y332500D03*
X486000Y328000D03*
X506120Y38500D03*
X507000Y56750D03*
X498000Y72500D03*
X490000Y65000D03*
X489000Y78000D03*
X499000Y65000D03*
X492500Y168000D03*
X491500Y189000D03*
X490000Y206500D03*
X506000Y229500D03*
Y214500D03*
X490000Y212500D03*
X508000Y246500D03*
X502000D03*
Y240500D03*
Y234500D03*
X496000D03*
Y240500D03*
Y246500D03*
Y264500D03*
X502000D03*
X508000D03*
Y258500D03*
Y252500D03*
X496000Y258500D03*
X502000D03*
Y252500D03*
X496000D03*
X490000Y270500D03*
X506000Y280000D03*
X490000Y276500D03*
X506000Y294000D03*
X500000D03*
Y300000D03*
X494000D03*
X495000Y310000D03*
Y306000D03*
X499000Y310000D03*
Y306000D03*
X500500Y319500D03*
Y325500D03*
Y331500D03*
X494500Y332500D03*
X488500D03*
X506000Y344500D03*
Y359500D03*
X516000Y39500D03*
Y53000D03*
X513380Y55620D03*
X511000Y61500D03*
X513000Y78500D03*
X519000Y175000D03*
X533500Y83000D03*
X539170Y109830D03*
X534000Y107000D03*
G54D42*
G01X21000Y351000D02*
Y331000D01*
G01X51660Y313990D02*
Y321350D01*
X49010Y324000D01*
X23000D01*
X21000Y326000D01*
Y331000D01*
G01Y371000D02*
Y351000D01*
G01X77000Y12000D02*
X57000D01*
G01X97000D02*
X77000D01*
G54D33*
X432470Y364520D03*
X466530D03*
G54D15*
X11000Y9830D03*
X41000Y40830D03*
Y69830D03*
Y99830D03*
X166000Y10840D03*
X229000D03*
X292000D03*
X355000D03*
X359000Y157990D03*
X418000Y10840D03*
X440840Y40000D03*
X493990Y160000D03*
X522000Y72010D03*
Y101010D03*
X533170Y23000D03*
Y160000D03*
G54D24*
X57000Y4000D03*
Y8000D03*
Y12000D03*
X77000Y4000D03*
Y8000D03*
Y12000D03*
X97000Y4000D03*
Y8000D03*
Y12000D03*
X106000Y95000D03*
Y99000D03*
Y103000D03*
G54D43*
G01X6000Y38990D02*
X10910Y43900D01*
Y64080D01*
X6000Y68990D01*
G01Y98990D02*
X11000Y93990D01*
Y73990D01*
X6000Y68990D01*
G01X16010Y119000D02*
X11000Y113990D01*
Y103000D01*
X6990Y98990D01*
X6000D01*
G01X3500Y141000D02*
X11000Y133500D01*
Y124010D01*
X16010Y119000D01*
G01X3500Y216000D02*
Y141000D01*
G01X7500Y383000D02*
X3500Y379000D01*
Y232000D01*
G01X50990Y380000D02*
X46080Y375090D01*
X34920D01*
X27010Y383000D01*
X7500D01*
G01X66230Y313990D02*
Y321850D01*
X66500Y322120D01*
Y374490D01*
X60990Y380000D01*
G01X163000Y370000D02*
Y377430D01*
X162870Y377560D01*
G54D34*
X432470Y380980D03*
X466530D03*
G54D16*
X16000Y28990D03*
Y58990D03*
Y88990D03*
X26010Y129000D03*
X40990Y370000D03*
X96000Y294840D03*
X135160Y87000D03*
X198160D03*
X192000Y362500D03*
X261160Y87000D03*
X324160D03*
X387160D03*
G54D25*
X85270Y58980D03*
X85280Y348890D03*
X414410D03*
X499050Y18400D03*
G54D44*
G01X7220Y9830D02*
X11000D01*
G01X27220D02*
X31000D01*
G01X11000D02*
Y13610D01*
G01Y9830D02*
X14780D01*
G01X26010Y119000D02*
Y122670D01*
G01X22340Y119000D02*
X26010D01*
G01D02*
X29680D01*
G01X31000Y9830D02*
Y13610D01*
G01Y9830D02*
X34780D01*
G01X63560Y16000D02*
Y19090D01*
G01X60470Y16000D02*
X63560D01*
G01D02*
X66650D01*
G01X55870Y118350D02*
Y121440D01*
G01D02*
Y124530D01*
G01Y121440D02*
X58960D01*
G01X83560Y16000D02*
Y19090D01*
G01X80470Y16000D02*
X83560D01*
G01D02*
X86650D01*
G01X90940Y374470D02*
Y377560D01*
G01D02*
Y380650D01*
G01X87850Y377560D02*
X90940D01*
G01D02*
X94030D01*
G01X103560Y16000D02*
Y19090D01*
G01X100470Y16000D02*
X103560D01*
G01D02*
X106650D01*
G01X96000Y271490D02*
Y275160D01*
G01X92330D02*
X96000D01*
G01D02*
X99670D01*
G01X110580Y379750D02*
X113160D01*
G01X119970Y132000D02*
Y135680D01*
G01X116290Y132000D02*
X119970D01*
G01X132000Y147470D02*
Y150560D01*
G01X128910D02*
X132000D01*
G01X122010Y181040D02*
Y185000D01*
G01D02*
Y188960D01*
G01X118050Y185000D02*
X122010D01*
G01D02*
X125970D01*
G01X127920Y377170D02*
Y379750D01*
G01D02*
Y382330D01*
G01X113160Y377170D02*
Y379750D01*
G01D02*
Y382330D01*
G01X151170Y87000D02*
X154840D01*
G01X142010Y181040D02*
Y185000D01*
G01D02*
Y188960D01*
G01X138050Y185000D02*
X142010D01*
G01D02*
X145970D01*
G01X151910Y377560D02*
X155000D01*
G01X154840Y83330D02*
Y87000D01*
G01D02*
Y90670D01*
G01Y87000D02*
X158510D01*
G01X155000Y374470D02*
Y377560D01*
G01D02*
Y380650D01*
G01Y377560D02*
X158090D01*
G01X214170Y87000D02*
X217840D01*
G01X212000Y368830D02*
Y372500D01*
G01D02*
Y376170D01*
G01X208330Y372500D02*
X212000D01*
G01D02*
X215670D01*
G01X217840Y83330D02*
Y87000D01*
G01D02*
Y90670D01*
G01Y87000D02*
X221510D01*
G01X232000Y358830D02*
Y362500D01*
G01D02*
Y366170D01*
G01X228330Y362500D02*
X232000D01*
G01D02*
X235670D01*
G01X252000Y368830D02*
Y372500D01*
G01D02*
Y376170D01*
G01X248330Y372500D02*
X252000D01*
G01D02*
X255670D01*
G01X277170Y87000D02*
X280840D01*
G01X278330Y372500D02*
X282000D01*
G01X280840Y83330D02*
Y87000D01*
G01D02*
Y90670D01*
G01Y87000D02*
X284510D01*
G01X282000Y368830D02*
Y372500D01*
G01D02*
Y376170D01*
G01Y372500D02*
X285670D01*
G01X312000Y358830D02*
Y362500D01*
G01D02*
Y366170D01*
G01X308330Y362500D02*
X312000D01*
G01D02*
X315670D01*
G01X340170Y87000D02*
X343840D01*
G01X332000Y368830D02*
Y372500D01*
G01D02*
Y376170D01*
G01X328330Y372500D02*
X332000D01*
G01D02*
X335670D01*
G01X343840Y83330D02*
Y87000D01*
G01D02*
Y90670D01*
G01Y87000D02*
X347510D01*
G01X359000Y174210D02*
Y177990D01*
G01D02*
Y181770D01*
G01X355220Y177990D02*
X359000D01*
G01D02*
X362780D01*
G01X352000Y368830D02*
Y372500D01*
G01D02*
Y376170D01*
G01X348330Y372500D02*
X352000D01*
G01D02*
X355670D01*
G01X382000Y358830D02*
Y362500D01*
G01D02*
Y366170D01*
G01X378330Y362500D02*
X382000D01*
G01D02*
X385670D01*
G01X403170Y87000D02*
X406840D01*
G01X390810Y323350D02*
Y326440D01*
G01D02*
Y329530D01*
G01X387720Y326440D02*
X390810D01*
G01D02*
X393900D01*
G01X406840Y83330D02*
Y87000D01*
G01D02*
Y90670D01*
G01Y87000D02*
X410510D01*
G01X440840Y6220D02*
Y10000D01*
G01D02*
Y13780D01*
G01X437060Y10000D02*
X440840D01*
G01D02*
X444620D01*
G01X437690Y344970D02*
Y348060D01*
G01D02*
Y351150D01*
G01X434600Y348060D02*
X437690D01*
G01D02*
X440780D01*
G01X432470Y359670D02*
Y364520D01*
G01D02*
Y369370D01*
G01X429790Y364520D02*
X432470D01*
G01D02*
X435150D01*
G01X432470Y376920D02*
Y380980D01*
G01X429790D02*
X432470D01*
G01D02*
X435150D01*
G01X462440Y6160D02*
Y9250D01*
G01D02*
Y12340D01*
G01X459350Y9250D02*
X462440D01*
G01D02*
X465530D01*
G01X466530Y359670D02*
Y364520D01*
G01D02*
Y369370D01*
G01X463850Y364520D02*
X466530D01*
G01D02*
X469210D01*
G01X466530Y376920D02*
Y380980D01*
G01X463850D02*
X466530D01*
G01D02*
X469210D01*
G01X522000Y87230D02*
Y91010D01*
G01D02*
Y94790D01*
G01X518220Y91010D02*
X522000D01*
G01D02*
X525780D01*
G01X523180Y133400D02*
Y138990D01*
G01D02*
Y144580D01*
G01X517590Y138990D02*
X523180D01*
G01D02*
X528770D01*
G01X526380Y196130D02*
X533000D01*
G01X509370Y235940D02*
Y236900D01*
G01X522370Y235940D02*
Y239510D01*
G01X518800Y235940D02*
X522370D01*
G01D02*
X525940D01*
G01X522370Y230720D02*
Y233810D01*
G01X519280D02*
X522370D01*
G01D02*
X525460D01*
G01X526380Y247870D02*
X533000D01*
G01X526380Y261130D02*
X533000D01*
G01X509370Y300940D02*
Y301900D01*
G01X522370Y298810D02*
Y300940D01*
G01D02*
Y304510D01*
G01X518800Y300940D02*
X522370D01*
G01D02*
X525940D01*
G01X526380Y312870D02*
X533000D01*
G01X522370Y295720D02*
Y298810D01*
G01X519280D02*
X522370D01*
G01D02*
X525460D01*
G01X526380Y326130D02*
X533000D01*
G01X509370Y365940D02*
Y366900D01*
G01X522370Y363810D02*
Y365940D01*
G01Y360720D02*
Y363810D01*
G01X519280D02*
X522370D01*
G01D02*
X525460D01*
G01X522370Y365940D02*
Y369510D01*
G01X518800Y365940D02*
X522370D01*
G01D02*
X525940D01*
G01X526380Y377870D02*
X533000D01*
G01X533170Y39220D02*
Y43000D01*
G01D02*
Y46780D01*
G01X529390Y43000D02*
X533170D01*
G01D02*
X536950D01*
G01X533170Y156220D02*
Y160000D01*
G01D02*
Y163780D01*
G01X529390Y160000D02*
X533170D01*
G01D02*
X536950D01*
G01X533000Y189510D02*
Y196130D01*
G01D02*
Y202750D01*
G01Y196130D02*
X539620D01*
G01X533000Y241250D02*
Y247870D01*
G01D02*
Y254490D01*
G01Y247870D02*
X539620D01*
G01X533000Y254510D02*
Y261130D01*
G01D02*
Y267750D01*
G01Y261130D02*
X539620D01*
G01X533000Y306250D02*
Y312870D01*
G01D02*
Y319490D01*
G01Y312870D02*
X539620D01*
G01X533000Y319510D02*
Y326130D01*
G01D02*
Y332750D01*
G01Y326130D02*
X539620D01*
G01X533000Y371250D02*
Y377870D01*
G01D02*
X539620D01*
G54D26*
X113160Y379750D03*
X118080D03*
X123000D03*
X127920D03*
G54D35*
X478990Y99770D03*
Y114340D03*
Y145840D03*
Y131270D03*
G54D17*
X12670Y182630D03*
Y214050D03*
G54D18*
X20820Y232010D03*
Y273010D03*
X523180Y138990D03*
G54D36*
X522370Y208060D03*
Y225940D03*
Y218060D03*
Y235940D03*
Y273060D03*
Y290940D03*
Y283060D03*
Y300940D03*
Y355940D03*
Y348060D03*
Y338060D03*
Y365940D03*
G54D27*
X120000Y15990D03*
Y25990D03*
X122010Y185000D03*
X132010D03*
X183000Y15990D03*
Y25990D03*
X246000Y15990D03*
Y25990D03*
X309000Y15990D03*
Y25990D03*
X372000Y15990D03*
Y25990D03*
G54D19*
X20820Y252010D03*
Y293010D03*
X523180Y118990D03*
G54D28*
X120000Y5990D03*
X142010Y185000D03*
X183000Y5990D03*
X246000D03*
X309000D03*
X372000D03*
G54D37*
X533000Y196130D03*
Y247870D03*
Y261130D03*
Y312870D03*
Y326130D03*
Y377870D03*
G54D29*
X119970Y62000D03*
Y82000D03*
Y102000D03*
Y92000D03*
Y122000D03*
Y112000D03*
X149970Y62000D03*
X169970D03*
X159970D03*
X169970Y72000D03*
Y82000D03*
Y92000D03*
Y102000D03*
Y112000D03*
Y122000D03*
Y132000D03*
X182970Y62000D03*
Y82000D03*
Y102000D03*
Y92000D03*
Y122000D03*
Y112000D03*
X212970Y62000D03*
X232970D03*
X222970D03*
X232970Y72000D03*
Y82000D03*
Y92000D03*
Y102000D03*
Y112000D03*
Y122000D03*
Y132000D03*
X245970Y62000D03*
Y82000D03*
Y102000D03*
Y92000D03*
Y122000D03*
Y112000D03*
X275970Y62000D03*
X295970D03*
X285970D03*
X295970Y72000D03*
Y82000D03*
Y92000D03*
Y102000D03*
Y112000D03*
Y122000D03*
Y132000D03*
X308970Y62000D03*
Y82000D03*
Y102000D03*
Y92000D03*
Y122000D03*
Y112000D03*
X338970Y62000D03*
X358970D03*
X348970D03*
X358970Y72000D03*
Y82000D03*
Y92000D03*
Y102000D03*
Y112000D03*
Y122000D03*
Y132000D03*
X371970Y62000D03*
Y82000D03*
Y102000D03*
Y92000D03*
Y122000D03*
Y112000D03*
X401970Y62000D03*
X421970D03*
X411970D03*
X421970Y72000D03*
Y82000D03*
Y92000D03*
Y102000D03*
Y112000D03*
Y122000D03*
Y132000D03*
G54D38*
X538380Y63650D03*
Y70350D03*
Y91650D03*
Y98350D03*
G54D39*
G01X97500Y49000D02*
X91000Y42500D01*
X64000D01*
X59000Y37500D01*
G01X87000Y114500D02*
X85500Y113000D01*
Y108500D01*
X82620Y105620D01*
Y95880D01*
G01X107510Y123990D02*
X110940Y127420D01*
X123320D01*
X124480Y128580D01*
Y135590D01*
X127640Y138750D01*
X154250D01*
X155800Y140300D01*
X286700D01*
X287400Y139600D01*
X319100D01*
X323000Y143500D01*
X360500D01*
X369500Y152500D01*
G01X99500Y179000D02*
X114000D01*
G01X99500Y213000D02*
X110500D01*
X113000Y210500D01*
G01X367000Y144400D02*
X364100Y141500D01*
X323500D01*
X320200Y138200D01*
X286800D01*
X286100Y138900D01*
X157400D01*
X155760Y137260D01*
X128130D01*
X125880Y135010D01*
Y128000D01*
X123900Y126020D01*
X116020D01*
X113500Y123500D01*
G01Y119500D02*
X115790D01*
X117310Y117980D01*
X298620D01*
X300140Y119500D01*
X302000D01*
G01X364000Y118500D02*
X361680Y116180D01*
X115730D01*
X115410Y116500D01*
X113550D01*
G01X129890Y131850D02*
X133900Y135860D01*
X142140D01*
X145000Y133000D01*
Y129500D01*
X146660Y127840D01*
X188880D01*
X192890Y131850D01*
G01X114000Y175000D02*
X116000Y173000D01*
X119000D01*
X121000Y171000D01*
G01X132010Y185000D02*
Y171490D01*
X134500Y169000D01*
G01X285000Y348000D02*
X168000D01*
X148000Y368000D01*
X132620D01*
G01X258000Y342500D02*
X254000Y346500D01*
X167000D01*
X147550Y365950D01*
X130550D01*
X128000Y368500D01*
G01X202890Y131850D02*
X197480Y126440D01*
X145300D01*
X139890Y131850D01*
G01X222890D02*
X217240Y137500D01*
X165540D01*
X159890Y131850D01*
G01X158000Y150000D02*
X160000Y152000D01*
X181000D01*
X184390Y155390D01*
X214240D01*
X221680Y147950D01*
X315850D01*
X315900Y148000D01*
X316000D01*
X318500Y150500D01*
G01X176500Y144450D02*
X172330Y148620D01*
X170000D01*
G01X361550Y215000D02*
X359000Y212450D01*
X302050D01*
X299000Y215500D01*
X249020D01*
X246850Y213330D01*
X174330D01*
X164500Y203500D01*
Y200000D01*
G01X253000Y210000D02*
X176360D01*
X169720Y203360D01*
Y201500D01*
G01X167160Y198000D02*
Y203160D01*
X175580Y211580D01*
X247080D01*
X249050Y213550D01*
X298450D01*
X301500Y210500D01*
X360310D01*
X361730Y211920D01*
G01X172280Y199000D02*
Y203280D01*
X176800Y207800D01*
X282800D01*
X285500Y210500D01*
G01X173000Y293000D02*
Y289500D01*
X184600Y277900D01*
X249400D01*
X255580Y284080D01*
X286000D01*
G01X163500Y293000D02*
X181400Y275100D01*
X251600D01*
X255500Y279000D01*
X311050D01*
G01X166500Y293000D02*
X183000Y276500D01*
X250500D01*
X255200Y281200D01*
X265800D01*
G01X192890Y131850D02*
X196900Y135860D01*
X205140D01*
X208000Y133000D01*
Y129500D01*
X209660Y127840D01*
X251890D01*
X255900Y131850D01*
G01X321050Y155500D02*
Y150050D01*
X317550Y146550D01*
X220950D01*
X213510Y153990D01*
X184990D01*
X180000Y149000D01*
Y147950D01*
X176500Y144450D01*
G01X186000Y198620D02*
X188880Y201500D01*
X233000D01*
G01X368550Y209000D02*
X367230Y207680D01*
X367180D01*
X365000Y205500D01*
X325850D01*
X323900Y203550D01*
X185550D01*
X181000Y199000D01*
X177500D01*
G01X179960Y202000D02*
X182960Y205000D01*
X322450D01*
X324000Y206550D01*
G01X174840Y202000D02*
X179240Y206400D01*
X284900D01*
X288750Y210250D01*
G01X188000Y330500D02*
Y284000D01*
X192700Y279300D01*
X245940D01*
X247640Y281000D01*
X249500D01*
G01X265900Y131850D02*
X260490Y126440D01*
X208300D01*
X202890Y131850D01*
G01X234500Y142980D02*
X286020D01*
X288000Y141000D01*
X318500D01*
X323000Y145500D01*
X358500D01*
X364500Y151500D01*
Y159000D01*
G01X222890Y131850D02*
X228300Y137260D01*
X280490D01*
X285900Y131850D01*
G01X225920Y155920D02*
X237580D01*
X240000Y153500D01*
G01X319000Y131850D02*
X314990Y127840D01*
X272660D01*
X271000Y129500D01*
Y133500D01*
X268640Y135860D01*
X259910D01*
X255900Y131850D01*
G01X240000Y153500D02*
X242500Y156000D01*
X255000D01*
G01X337000Y172000D02*
X333500Y175500D01*
X250000D01*
X246500Y172000D01*
G01X257850Y264500D02*
X261630Y268280D01*
X324830D01*
X335050Y278500D01*
G01X257850Y267490D02*
X260140Y269780D01*
X323280D01*
X330000Y276500D01*
G01X253000Y270550D02*
X256950Y274500D01*
X315500D01*
X317500Y276500D01*
G01X257000Y270500D02*
X259000Y272500D01*
X311590D01*
X311640Y272450D01*
X313500D01*
G01X249500Y272600D02*
X251960D01*
X255860Y276500D01*
X314500D01*
X317500Y279500D01*
G01X329000Y131850D02*
X325180D01*
X319770Y126440D01*
X271310D01*
X265900Y131850D01*
G01X265000Y193500D02*
X269560Y188940D01*
G01X363500Y228500D02*
X349500Y214500D01*
X303500D01*
X299000Y219000D01*
X258500D01*
G01X259900Y232500D02*
X262900Y229500D01*
X269450D01*
G01X363500Y231500D02*
X347900Y215900D01*
X304580D01*
X298480Y222000D01*
X259950D01*
G01X281000Y227500D02*
X277000D01*
X274000Y230500D01*
G01X265950Y224900D02*
X317000D01*
G01X269450Y232680D02*
X293320D01*
X293840Y233200D01*
X322190D01*
X324890Y230500D01*
G01X320000Y237000D02*
X313140D01*
X312140Y236000D01*
X297410D01*
X296410Y237000D01*
X269000D01*
G01X269400Y248500D02*
X273580Y244320D01*
X312180D01*
X313500Y243000D01*
G01X363000Y242000D02*
X361500Y240500D01*
X312000D01*
X309000Y237500D01*
X297890D01*
X296940Y238450D01*
X276550D01*
X275180Y239820D01*
X266220D01*
X264900Y238500D01*
G01X266000Y233000D02*
X267950Y234950D01*
X295320D01*
X295330Y234960D01*
X296470D01*
X296830Y234600D01*
X328100D01*
X330500Y237000D01*
G01X264670Y242280D02*
X276720D01*
X278500Y240500D01*
G01X348500Y286500D02*
X265000D01*
G01X279000Y294330D02*
X269500D01*
G01X272000Y297000D02*
X293500D01*
X301000Y289500D01*
X328550D01*
G01X308000Y304050D02*
X268350D01*
X264400Y308000D01*
G01X260000Y305000D02*
X264000D01*
X267000Y302000D01*
X322500D01*
X325000Y299500D01*
G01X260000Y296000D02*
X263500Y299500D01*
X321500D01*
G01X268950Y322000D02*
X272110Y318840D01*
X313160D01*
G01X268000Y351500D02*
X289000D01*
G01X349000Y131850D02*
X341850Y139000D01*
X323500D01*
X320520Y136020D01*
X290070D01*
X285900Y131850D01*
G01X351000Y153500D02*
X348000D01*
X344500Y150000D01*
X323000D01*
X317500Y144500D01*
X297000D01*
G01X354000Y151450D02*
X348450D01*
X344950Y147950D01*
X322950D01*
X317450Y142450D01*
X291550D01*
X289500Y144500D01*
G01X327550Y159500D02*
X323050Y164000D01*
X309500D01*
X308000Y165500D01*
X300660D01*
X298160Y168000D01*
G01X327580Y156570D02*
X323150Y161000D01*
X302010D01*
X299700Y158690D01*
X295100D01*
G01X297100Y229000D02*
X322500D01*
G01X314500Y231050D02*
X295550D01*
X293500Y229000D01*
G01X281000Y230500D02*
X284500Y227000D01*
Y226950D01*
X331050D01*
X332500Y225500D01*
G01X299300Y239550D02*
X305050D01*
X307000Y241500D01*
G01X304000Y241950D02*
X297000D01*
G01X324500Y126500D02*
Y121000D01*
X321480Y117980D01*
X305520D01*
X304000Y119500D01*
X302000D01*
G01X381890Y131850D02*
X377880Y127840D01*
X335660D01*
X334000Y129500D01*
Y134000D01*
X332000Y136000D01*
X323150D01*
X319000Y131850D01*
G01X332500Y164000D02*
X328500Y168000D01*
X302500D01*
G01X308050Y222500D02*
X335000D01*
G01X301350D02*
X303400Y220450D01*
X331500D01*
X332450Y219500D01*
X334950D01*
G01X314000Y218400D02*
X330500D01*
G01X301000Y297000D02*
X317500D01*
X318690Y295810D01*
X348690D01*
G01X329000Y131850D02*
X334410Y126440D01*
X386480D01*
X391890Y131850D01*
G01X350000Y179500D02*
X348500Y178000D01*
X323450D01*
G01X373500Y301000D02*
Y307500D01*
X360500Y320500D01*
Y336500D01*
X351500Y345500D01*
X337500D01*
G01X411890Y131850D02*
X407720Y136020D01*
X353170D01*
X349000Y131850D01*
G01X359000Y187990D02*
X346060D01*
X342050Y192000D01*
G01X394250Y273250D02*
X390750D01*
X387500Y270000D01*
X360860D01*
X360360Y269500D01*
X358500D01*
G01X397000Y275500D02*
X390500D01*
X387190Y272190D01*
X358500D01*
G01X373000Y285050D02*
X361950D01*
X352500Y294500D01*
Y335000D01*
G01X375450Y282950D02*
X362050D01*
X351100Y293900D01*
Y326390D01*
X350450Y327040D01*
Y333000D01*
G01X356600Y335000D02*
X354500Y332900D01*
Y295000D01*
X362000Y287500D01*
X381500D01*
X385000Y284000D01*
G01Y287000D02*
X383050Y288950D01*
X363010D01*
X356750Y295210D01*
Y330250D01*
G01X359000Y316500D02*
Y311000D01*
X361950Y308050D01*
Y292650D01*
X363600Y291000D01*
X366050D01*
G01X361050Y314500D02*
Y311950D01*
X364000Y309000D01*
Y293760D01*
G01X373500Y297500D02*
X371450Y299550D01*
Y307550D01*
X359000Y320000D01*
Y335500D01*
X355500Y339000D01*
X344000D01*
G01X366950Y214060D02*
X369890Y217000D01*
X385000D01*
X388000Y220000D01*
G01X378500Y258500D02*
X381000Y261000D01*
X399000D01*
X401500Y263500D01*
G01X378550Y255500D02*
X382550Y259500D01*
X401160D01*
X405160Y263500D01*
G01X437500Y210500D02*
X424500D01*
X417500Y217500D01*
X390500D01*
X388000Y220000D01*
G01X415000Y241000D02*
Y253990D01*
X416950Y255940D01*
Y261500D01*
G01X415000Y237500D02*
X417050Y239550D01*
Y253050D01*
X419000Y255000D01*
Y263500D01*
X417960Y264540D01*
Y285910D01*
G01X457550Y203500D02*
X441000D01*
X437500Y200000D01*
G01X449000Y199000D02*
X440500D01*
X437500Y196000D01*
G01X435500Y223000D02*
X429500Y217000D01*
G01X464500Y100500D02*
Y88000D01*
G01X472000Y67550D02*
X496450D01*
X499000Y65000D01*
G01X475600Y295500D02*
Y292600D01*
X466500Y283500D01*
Y265620D01*
G01X468550Y268000D02*
Y282550D01*
X476500Y290500D01*
M02*
