M48
INCH
T01C.01
T02C.0217
T03C.0315
T04C.0354
T05C.0374
T06C.0394
T07C.0409
T08C.0433
T09C.065
T10C.0689
T11C.0882
T12C.1181
T13C.0256
T14C.0276
;LEADER: 12 
;HEADER: 
;CODE  : ASCII 
;FILE  : CATALYSTK_260107-1-4.drl for board D:/MaxRuan/Projects/SPB/K1_MAX_MB/MainBoard/PCB/#Taaaagp10232.tmp ... layers TOP and BOTTOM
;T01 Holesize 1. = 10.000000 Tolerance = +0.000000/-0.000000 PLATED MILS Quantity = 1030
;T02 Holesize 2. = 21.700000 Tolerance = +0.000000/-0.000000 PLATED MILS Quantity = 5
;T03 Holesize 3. = 31.500000 Tolerance = +0.000000/-0.000000 PLATED MILS Quantity = 63
;T04 Holesize 4. = 35.400000 Tolerance = +0.000000/-0.000000 PLATED MILS Quantity = 90
;T05 Holesize 5. = 37.400000 Tolerance = +0.000000/-0.000000 PLATED MILS Quantity = 12
;T06 Holesize 6. = 39.400000 Tolerance = +0.000000/-0.000000 PLATED MILS Quantity = 142
;T07 Holesize 7. = 40.900000 Tolerance = +0.000000/-0.000000 PLATED MILS Quantity = 50
;T08 Holesize 8. = 43.300000 Tolerance = +0.000000/-0.000000 PLATED MILS Quantity = 18
;T09 Holesize 9. = 65.000000 Tolerance = +0.000000/-0.000000 PLATED MILS Quantity = 6
;T10 Holesize 10. = 68.900000 Tolerance = +0.000000/-0.000000 PLATED MILS Quantity = 4
;T11 Holesize 11. = 88.200000 Tolerance = +0.000000/-0.000000 PLATED MILS Quantity = 6
;T12 Holesize 12. = 118.100000 Tolerance = +0.000000/-0.000000 PLATED MILS Quantity = 4
%
G90
T01
X014050Y002700
X014200Y002400
X014700Y002400
X014950Y002700
X015100Y002400
X015600Y002400
X015850Y002700
X016000Y002400
X016500Y002400
X016750Y002700
X016900Y002400
X017450Y002400
X020350Y002700
X020500Y002400
X021000Y002400
X021250Y002700
X021400Y002400
X021900Y002400
X022150Y002700
X022300Y002400
X022800Y002400
X023050Y002700
X023200Y002400
X023750Y002400
X026650Y002700
X026800Y002400
X027300Y002400
X027550Y002700
X027700Y002400
X028200Y002400
X028450Y002700
X028600Y002400
X029100Y002400
X029350Y002700
X029500Y002400
X030050Y002400
X032950Y002700
X033100Y002400
X033600Y002400
X033850Y002700
X034000Y002400
X034500Y002400
X034750Y002700
X034900Y002400
X035400Y002400
X035650Y002700
X035800Y002400
X036350Y002400
X039250Y002700
X039400Y002400
X039900Y002400
X040150Y002700
X040300Y002400
X040800Y002400
X041050Y002700
X041200Y002400
X041700Y002400
X041950Y002700
X042100Y002400
X042650Y002400
X051600Y005300
X051600Y003950
X051338Y005562
X050700Y005675
X050612Y003850
X047062Y005112
X046348Y005102
X045452Y005648
X044648Y005202
X042700Y004050
X042700Y003850
X042700Y003650
X042650Y003000
X042150Y003000
X042100Y004050
R02Y-000200
X041800Y004050
R02Y-000200
X041700Y003000
X041250Y003000
X041200Y004050
R02Y-000200
X040900Y004050
R02Y-000200
X040800Y003000
X040350Y003000
X040300Y004050
R02Y-000200
X040000Y004050
R02Y-000200
X039900Y003000
X039450Y003000
X039400Y004050
R02Y-000200
X036400Y004050
R02Y-000200
X036350Y003000
X035850Y003000
X035800Y004050
R02Y-000200
X035500Y004050
R02Y-000200
X035400Y003000
X034950Y003000
X034900Y004050
R02Y-000200
X034600Y004050
R02Y-000200
X034500Y003000
X034050Y003000
X034000Y004050
R02Y-000200
X033700Y004050
R02Y-000200
X033600Y003000
X033150Y003000
X033100Y004050
R02Y-000200
X030100Y004050
R02Y-000200
X030050Y003000
X029550Y003000
X029500Y004050
R02Y-000200
X029200Y004050
R02Y-000200
X029100Y003000
X028650Y003000
X028600Y004050
R02Y-000200
X028300Y004050
R02Y-000200
X028200Y003000
X027750Y003000
X027700Y004050
R02Y-000200
X027400Y004050
R02Y-000200
X027300Y003000
X026850Y003000
X026800Y004050
R02Y-000200
X023800Y004050
R02Y-000200
X023750Y003000
X023250Y003000
X023200Y004050
R02Y-000200
X022900Y004050
R02Y-000200
X022800Y003000
X022350Y003000
X022300Y004050
R02Y-000200
X022000Y004050
R02Y-000200
X021900Y003000
X021450Y003000
X021400Y004050
R02Y-000200
X021100Y004050
R02Y-000200
X021000Y003000
X020550Y003000
X020500Y004050
R02Y-000200
X017500Y004050
R02Y-000200
X017450Y003000
X016950Y003000
X016900Y004050
R02Y-000200
X016600Y004050
R02Y-000200
X016500Y003000
X016050Y003000
X016000Y004050
R02Y-000200
X015700Y004050
R02Y-000200
X015600Y003000
X015150Y003000
X015100Y004050
R02Y-000200
X014800Y004050
R02Y-000200
X014700Y003000
X014250Y003000
X014200Y004050
R02Y-000200
X011250Y003950
X009750Y004900
X009100Y003700
X007200Y003700
X005900Y003750
X008550Y008000
X008550Y008400
X008550Y008800
X008950Y008000
R02Y000400
X010400Y007450
X010400Y007850
X010800Y007450
R02Y000400
X046450Y006850
X046450Y008800
X047200Y006755
X047712Y008262
X048900Y007800
X049000Y006500
X049800Y007250
X049900Y006500
X051100Y006150
X051300Y007850
X053350Y008300
X053917Y010983
X053400Y010700
X046450Y010050
X045850Y011650
X036400Y011850
X030200Y011950
X011355Y011650
X011350Y011950
X010967Y009112
X010856Y010600
X010762Y011838
X010462Y009112
X010200Y009600
X010175Y009900
X009900Y011450
X009900Y010900
X009900Y010300
X009900Y010000
X009900Y009600
X009600Y011450
X009600Y010900
X009600Y010300
X009600Y009600
X009300Y011450
X009300Y010900
X009300Y010300
X009300Y010000
X009300Y009600
X008950Y010400
X008950Y010000
R02Y-000400
X008700Y011450
X008550Y010400
X008550Y010000
R02Y-000400
X008262Y009588
X007238Y011588
X007238Y009588
X004053Y013803
X005100Y013950
X005488Y013712
X009212Y012738
X010295Y012305
X010400Y014950
X010751Y012399
X011350Y012350
X011950Y013800
X013325Y014250
X014400Y014800
X017000Y014862
X017650Y014445
X023450Y014298
X028950Y014450
X029700Y014450
X032450Y012650
X036700Y014440
X043350Y012400
X051900Y017500
X049250Y016800
X047950Y016200
X047100Y016200
X046750Y017750
X045750Y017750
X045750Y017250
X045700Y015650
X044600Y015100
X043000Y016062
X042312Y015738
X036950Y015250
X036450Y015900
X036445Y016350
X035400Y015145
X035100Y015350
X035000Y017950
X034099Y015400
X033700Y017200
X033250Y016400
X032755Y015950
X032758Y015657
X032345Y017800
X032105Y015550
X031850Y015050
X031500Y015825
X031500Y015000
X031230Y015000
X030800Y015000
X030250Y016800
X030000Y015000
X029816Y016800
X029510Y015869
X029300Y015000
X027962Y016350
X026000Y016750
X025500Y015600
X025300Y016600
X025012Y017162
X024650Y017200
X024000Y015350
X022592Y015592
X022062Y016550
X021850Y015550
X021738Y016812
X021300Y015800
X020803Y015194
X020750Y017500
X020600Y015800
X020350Y017500
X019900Y017500
X019600Y016050
X019300Y016550
X019250Y015900
X018700Y017300
X017950Y015450
X016250Y015450
X015800Y015000
X015400Y016000
X014400Y015800
X013450Y016900
X012100Y017100
X011550Y015450
X011400Y017900
X011400Y017500
X009950Y017900
X008850Y017700
X008850Y017300
X008450Y017700
X008450Y017300
X008438Y015988
X008050Y017700
X008050Y017300
X007905Y015995
X005538Y015788
X004053Y015697
X007805Y019395
X008050Y018100
X008050Y020700
X008450Y018100
X008450Y020700
X008850Y018100
X008850Y020700
X009438Y018238
X009525Y020425
X011450Y020650
X015400Y018600
X016005Y018955
X016450Y020000
X016716Y019800
X016972Y020150
X017228Y019900
X017484Y020200
X017750Y019900
X017996Y020200
X018600Y019862
X020050Y018500
X020050Y018900
X020750Y018000
X021450Y018150
X021450Y018450
X021600Y019862
X021750Y018164
X021750Y018450
X022311Y018511
X023300Y020150
X023800Y020150
R04X000500
X026000Y018300
X026500Y019350
X026956Y018894
X028300Y020150
X028800Y020150
X029048Y018102
X029300Y020150
R06X000500
X032400Y020655
X034205Y019200
X036855Y020900
X040400Y020262
X041900Y019550
X043750Y019600
X043750Y020000
X044900Y019900
X045500Y020900
X045750Y019750
X045755Y020350
X046200Y020900
X047338Y018450
X048400Y020650
X048800Y018300
X049000Y020650
X049150Y018900
X050600Y022950
X050600Y021450
X050200Y023450
X049600Y023450
X049000Y021250
X048400Y021250
X046200Y021750
X045503Y021750
X043750Y021050
X043550Y022300
X042950Y021700
X042750Y023750
R03Y-000500
X041500Y023750
X041400Y021505
X040700Y022750
X039750Y022750
X039400Y021505
X038850Y022400
X038800Y022000
X036695Y021406
X036350Y023150
X036350Y022850
X036173Y021192
X036155Y021500
X035200Y023800
X034800Y023800
X034300Y023800
X033900Y023800
X033500Y022250
X033495Y021950
X033250Y022550
X033050Y023700
X033050Y021840
X032489Y023050
X032250Y022900
X032000Y023700
X031700Y022490
X031450Y023105
X031400Y021840
X030805Y022250
X030135Y022250
X029930Y023955
X029710Y022900
X029350Y022900
X028875Y021025
X028550Y021050
X028100Y023050
X028100Y022750
X027400Y023050
X026945Y023268
X026945Y022950
X026900Y023700
X026600Y023300
X026595Y022490
X026490Y023850
X025995Y022200
X025990Y023250
X025850Y021900
X025300Y021000
X025200Y023700
X025200Y023300
R02Y-000400
X024800Y022900
R02Y-000400
X024000Y022000
X024000Y021600
X023600Y022000
X023600Y021600
X023200Y022000
X023200Y021600
X022462Y021538
X021400Y023000
X021400Y022700
X021400Y022400
X021000Y023100
R02Y-000400
X020600Y023100
R02Y-000400
X020200Y023900
R03Y-000400
X020100Y022200
X019800Y023900
X019800Y023500
R03Y-000400
X017650Y023900
R04Y-000400
X017250Y023900
R04Y-000400
X017200Y021638
X016000Y023100
X016000Y022800
X016000Y022500
X015600Y023100
R02Y-000300
X015200Y023200
R02Y-000400
X014800Y023200
R02Y-000400
X014400Y023600
R02Y-000400
X014300Y022300
X014000Y023600
X014000Y023200
R02Y-000400
X013100Y022100
R02Y-000400
X012700Y022100
X012700Y021300
X012300Y022100
R02Y-000400
X011300Y021050
X009950Y021300
X009438Y021588
X008850Y021500
X008850Y021100
X008450Y021500
X008450Y021100
X008050Y021500
X008050Y021100
X007600Y023774
X007600Y023374
R02Y-000400
X007200Y023774
R03Y-000400
X006800Y023774
R03Y-000400
X006400Y023774
R03Y-000400
X006000Y023774
R03Y-000400
X005600Y023774
R03Y-000400
X005200Y023774
R03Y-000400
X004800Y023774
R03Y-000400
X004800Y024174
R03Y000400
X005200Y024174
R03Y000400
X005600Y024174
R03Y000400
X006000Y024174
R03Y000400
X006400Y024174
R03Y000400
X006800Y024174
R03Y000400
X007200Y024174
R03Y000400
X007600Y024174
R03Y000400
X009200Y025350
R04Y000400
X009600Y025350
R04Y000400
X010000Y025750
R03Y000400
X010100Y024000
X010400Y025750
X010400Y026150
R02Y000400
X010800Y025750
R03Y000400
X014000Y024000
X014400Y024000
X015750Y025150
X015750Y025600
X016100Y025600
X016450Y025150
X016450Y025600
X016850Y024700
X016850Y025100
R04Y000400
X017250Y024300
R06Y000400
X017650Y024300
R06Y000400
X021550Y025050
X021550Y025500
X021900Y025500
X022250Y025050
X022250Y025500
X022700Y025050
X022700Y025500
X023300Y026100
X023700Y024350
X023700Y024700
X024100Y024350
X024100Y024700
X024800Y025700
X024800Y026100
X025200Y024100
R05Y000400
X025785Y026450
X025785Y026749
X026467Y024228
X026940Y024850
X027850Y024050
X028038Y026062
X028100Y025136
X028650Y025800
X029700Y024195
X030400Y024195
X030700Y024150
X031350Y024300
X032950Y024350
X033000Y026700
X033500Y026700
X035200Y024650
X035850Y026950
X036300Y024200
X037850Y025850
X037855Y025550
X039100Y024650
X040150Y026350
X040516Y026350
X040750Y025150
X041500Y024100
X041695Y026150
X042450Y026800
X042500Y025300
X044450Y026600
X044800Y026800
X045200Y026000
X045600Y026000
X045700Y024450
X046650Y026238
X046650Y026562
X046855Y026800
X047000Y025700
X048400Y025850
X048400Y026450
X049600Y024050
X049600Y024650
R03Y000600
X050200Y024050
R04Y000600
X050800Y024650
R03Y000600
X050600Y029400
X050600Y028000
X050000Y029400
X049000Y027650
X049000Y027050
X048400Y027650
X048400Y027050
X047650Y029050
X047560Y029550
X047300Y027800
X047300Y027200
X045700Y028500
X045700Y028100
X045700Y027700
X045600Y029800
X045300Y028500
X045300Y028100
X045300Y027700
X044900Y028500
R02Y-000400
X044500Y029250
X043150Y029000
X043150Y028600
X042705Y029400
X041800Y029650
X041796Y028591
X040300Y029450
X040250Y028550
X039700Y027550
X039450Y029400
X039452Y028550
X039425Y027325
X038500Y028700
X038500Y028400
X037545Y028295
X037350Y029750
X037300Y028505
X036605Y029100
X036400Y029376
X035850Y027219
X034869Y029581
X034850Y028650
X033505Y027850
X033000Y027650
X032855Y028950
X032500Y029950
X032150Y029950
X031750Y027950
X031750Y027650
X031350Y027245
X031105Y027900
X030100Y029700
X028600Y028408
X027900Y029433
X027700Y028900
X027200Y029700
X026950Y029433
X026580Y028120
X026500Y028650
X026000Y029600
X025700Y027050
X025300Y027055
X024950Y028500
X024950Y028100
X024950Y027260
X024000Y028135
X023000Y029600
R03Y-000400
X022600Y029600
R03Y-000400
X022200Y029600
R03Y-000400
X020538Y028600
X019750Y029150
X019750Y028850
X019750Y028500
X019400Y029150
X019400Y028850
X019400Y028500
X019050Y029150
X019050Y028850
X019050Y028500
X017300Y029300
X016650Y029300
X016350Y029300
X013062Y029188
X012000Y027900
X010400Y027350
X010950Y032450
R04X000400
X014750Y030700
X014750Y031300
X014999Y030350
X015904Y030350
X016305Y030900
X016550Y031550
X018382Y030218
R04Y000400
X019182Y030218
R04Y000400
X019582Y031018
R02Y000400
X019982Y031018
R02Y000400
X020382Y031018
R02Y000400
X020782Y031018
R02Y000400
X021182Y031018
R02Y000400
X021582Y030218
X021582Y031018
X021582Y031418
X021582Y031818
X021982Y031018
R02Y000400
X024662Y030338
X026000Y030500
X026440Y030800
X026895Y032200
X028050Y031000
X028715Y030700
X030000Y032250
X030800Y030405
X031316Y031884
X031560Y032850
X031838Y032212
X033500Y032275
X034000Y032275
X035900Y030762
X035900Y031650
X036105Y031450
X036700Y030200
X037350Y030100
X037452Y031948
X038348Y031948
X039000Y030350
X039000Y031000
X039400Y031500
X040150Y031500
X040750Y030400
X040750Y031050
X041800Y030500
X042088Y030262
X042705Y030400
X042705Y031055
X043000Y031800
X043500Y032100
X044100Y032100
X044362Y031238
X044500Y030300
X045600Y030150
X045675Y032113
X045800Y031800
X045900Y032900
X046200Y031450
X046200Y031800
X046300Y032100
X046400Y030400
X047200Y031000
X047600Y031000
X047600Y031400
X047650Y032650
X048000Y031000
X048000Y031400
X048250Y032650
X048400Y031000
X048600Y032800
X049400Y030000
X049500Y030600
X049500Y031000
X049900Y030600
X049900Y031000
X050000Y030000
X050050Y031950
X050050Y032550
X050600Y035950
X050600Y034450
X050050Y033150
X049450Y033250
X048850Y033250
R03X-000600
X043700Y033350
X043700Y033100
X040165Y033595
X037895Y033595
X037550Y033100
X035675Y033025
X035660Y033500
X035250Y033500
X035045Y033300
X034400Y033900
X034000Y033100
X033750Y034550
X033500Y033100
X033240Y033400
X033240Y033000
X033092Y034200
X032400Y034200
X031700Y034200
X031560Y033800
X031560Y033400
X031200Y033950
X030150Y033700
X030150Y033300
X028900Y035150
X028500Y034800
X026800Y035150
X025800Y034250
X018800Y033050
X015444Y034144
X012600Y035400
X017150Y036550
X016700Y036550
X015900Y036550
X014400Y036350
X013262Y036800
X012938Y036338
X012800Y036850
X002900Y037400
T02
X011316Y037975
R04X000492
T03
X006356Y000813
X008356Y000813
X006356Y001600
X008356Y001600
X006356Y002387
X008356Y002387
X004013Y012144
R02X000787
X000844Y014300
X002844Y014300
X000844Y015087
X002844Y015087
X000913Y033756
R02X000787
X000913Y035756
R02X000787
X000913Y037756
R02X000787
X007519Y037756
X008306Y037756
X016287Y037756
R02X-000787
X009881Y037756
X009094Y037756
X013987Y015056
R02X-000787
X010356Y002387
R02Y-000787
X018713Y015056
R02X000787
X036719Y032644
X037506Y032644
X038294Y032644
X039081Y032644
X043769Y034806
X044556Y034806
X052237Y036381
X052237Y035594
X052237Y034806
X046131Y034806
X045344Y034806
X052237Y034019
X052237Y029881
X052237Y029094
X052237Y028306
X052237Y027519
X052237Y023381
X052237Y022594
X052237Y021806
X052237Y021019
X046244Y004075
X046244Y003287
X046244Y002500
X046244Y001713
X046244Y000925
T04
X011997Y013200
R07Y-001000
X014997Y006200
R02X001000
X016997Y007200
R06Y001000
X018297Y013200
R07Y-001000
X021297Y006200
R02X001000
X023297Y007200
R06Y001000
X024597Y013200
R07Y-001000
X027597Y006200
R02X001000
X029597Y007200
R06Y001000
X030897Y013200
R07Y-001000
X033897Y006200
R02X001000
X035897Y007200
R06Y001000
X037197Y013200
R07Y-001000
X040197Y006200
R02X001000
X042197Y007200
R06Y001000
T05
X052237Y020806
X052237Y021806
X052237Y022594
X052237Y023594
X052237Y027306
X052237Y028306
X052237Y029094
X052237Y030094
X052237Y033806
X052237Y034806
X052237Y035594
X052237Y036594
T06
X000600Y002899
R02Y001000
X001600Y002899
R02Y001000
X000600Y005899
R04Y001000
X001600Y005899
R04Y001000
X013516Y008700
X015484Y008700
X019816Y008700
X021784Y008700
X026116Y008700
X028084Y008700
X032416Y008700
X034384Y008700
X038716Y008700
X040684Y008700
X041189Y013185
R02Y-000984
X040189Y013185
R02Y-000984
X039189Y013185
R02Y-000984
X038189Y013185
R02Y-000984
X034900Y013185
R02Y-000984
X033900Y013185
R02Y-000984
X032900Y013185
R02Y-000984
X031900Y013185
R02Y-000984
X028590Y013185
R02Y-000984
X027590Y013185
R02Y-000984
X026590Y013185
R02Y-000984
X025590Y013185
R02Y-000984
X022289Y013185
R02Y-000984
X021289Y013185
R02Y-000984
X020289Y013185
R02Y-000984
X019289Y013185
R02Y-000984
X015989Y013185
R02Y-000984
X014989Y013185
R02Y-000984
X013989Y013185
R02Y-000984
X012989Y013185
R02Y-000984
X002601Y012900
X002601Y011900
X001601Y012900
X001601Y011900
X001600Y010899
X000601Y012900
X000601Y011900
X000600Y010899
X009600Y027516
X009600Y029484
X004099Y037000
X004099Y038000
X005099Y037000
X005099Y038000
X006099Y037000
X006099Y038000
X019200Y036250
X019200Y037250
X020200Y036250
X020200Y037250
X021200Y036250
X021200Y037250
X022200Y036250
X022200Y037250
X023200Y036250
X023200Y037250
X024200Y036250
X024200Y037250
X025200Y036250
X025200Y037250
X026200Y036250
X026200Y037250
X027200Y036250
X027200Y037250
X028200Y036250
X028200Y037250
X029200Y036250
X029200Y037250
X030200Y036250
X030200Y037250
X031200Y036250
X031200Y037250
X032200Y036250
X032200Y037250
X033200Y036250
X033200Y037250
X034200Y036250
X034200Y037250
X035200Y036250
X035200Y037250
X036200Y036250
X036200Y037250
X037200Y036250
X037200Y037250
X038200Y036250
X038200Y037250
T07
X001100Y000983
R02X001000
X003100Y004083
X004100Y004083
X003100Y006983
X004100Y006983
X003100Y009983
X004100Y009983
X013600Y001084
R03X001000
X019900Y001084
R03X001000
X026200Y001084
R03X001000
X032500Y001084
R03X001000
X035900Y015799
R04Y001000
X038800Y001084
R03X001000
X044084Y001000
R03Y001000
X053317Y002300
R02Y001000
X052200Y006201
X052200Y007201
X052200Y009101
X052200Y010101
X049399Y016000
X050399Y016000
X053317Y016000
R02Y001000
T08
X012000Y000599
R02Y001000
X012201Y018500
R02X001000
X018300Y002599
R02Y-001000
X024600Y000599
R02Y001000
X030900Y002599
R02Y-001000
X037200Y000599
R02Y001000
T09
X052318Y011899
X052318Y013899
X002082Y023201
X002082Y025201
X002082Y027301
X002082Y029301
T10
X001267Y016703
X001267Y018263
X001267Y019845
X001267Y021405
T11
X053300Y019613
X053300Y024787
X053300Y026113
X053300Y031287
X053300Y032613
X053300Y037787
T12
X008527Y005898
X008528Y034889
X041441Y034889
X049905Y001840
M30
