M48
INCH
T01C.0236
T02C.0394
;EXTENTS: -6.600  -5.000  99.579  73.881  
;LEADER: 12 
;HEADER: 
;CODE  : ASCII 
;FILE  : D:/MaxRuan/Projects/SPB/K1_MAX_MB/MainBoard/PCB/Gerber/CATALYSTK_260107_1-4.rou for board D:/MaxRuan/Projects/SPB/K1_MAX_MB/MainBoard/PCB/#Taaaagu10232.tmp, layers TOP to BOTTOM
%
G90
F1
M16
T01
M16
G00X046653Y036235
G40
M15
G01X046653Y036667
M16
G00X046653Y037960
G40
M15
G01X046653Y038236
M16
G00X043246Y037960
G40
M15
G01X043246Y038236
M16
G00X043246Y036235
G40
M15
G01X043246Y036667
M16
T02
M16
G00X047681Y011434
G40
M15
G01X048115Y011434
M16
G00X047681Y009977
G40
M15
G01X048115Y009977
M16
G00X047681Y013127
G40
M15
G01X048115Y013127
M16
G00X047681Y014584
G40
M15
G01X048115Y014584
M16
G00X005166Y031182
G40
M15
G01X005166Y031616
M16
G00X006622Y031182
G40
M15
G01X006622Y031616
M16
G00X003473Y031182
G40
M15
G01X003473Y031616
M16
G00X002015Y031182
G40
M15
G01X002015Y031616
M16
G40
M30
