G04 ================== begin FILE IDENTIFICATION RECORD ==================*
G04 Layout Name:  D:/MaxRuan/Projects/SPB/K1_MAX_MB/MainBoard/PCB/CATALYSTK_260107.brd*
G04 Film Name:    drill*
G04 File Format:  Gerber RS274X*
G04 File Origin:  Cadence Allegro 17.2-S071*
G04 Origin Date:  Mon Jan 12 17:40:34 2026*
G04 *
G04 Layer:  MANUFACTURING/NCLEGEND-1-6*
G04 Layer:  BOARD GEOMETRY/DIMENSION*
G04 Layer:  BOARD GEOMETRY/OUTLINE*
G04 Layer:  MANUFACTURING/NCLEGEND-1-2*
G04 Layer:  MANUFACTURING/NCLEGEND-1-4*
G04 *
G04 Offset:    (0.0 0.0)*
G04 Mirror:    No*
G04 Mode:      Positive*
G04 Rotation:  0*
G04 FullContactRelief:  No*
G04 UndefLineWidth:     5.0*
G04 ================== end FILE IDENTIFICATION RECORD ====================*
%FSLAX25Y25*MOIN*%
%IR0*IPPOS*OFA0.00000B0.00000*MIA0B0*SFA1.00000B1.00000*%
%AMMACRO18*
1,1,.005,.005,0.0*
20,1,.005,.005,0.0,-.005,0.0,0.0*
1,1,.005,-.005,0.0*
1,1,.005,0.0,.005*
20,1,.005,0.0,.005,0.0,-.005,0.0*
1,1,.005,0.0,-.005*
%
%ADD18MACRO18*%
%AMMACRO20*
1,1,.005,.01085,.01085*
20,1,.005,.01085,.01085,.01085,-.01085,0.0*
1,1,.005,.01085,-.01085*
20,1,.005,.01085,-.01085,-.01085,-.01085,0.0*
1,1,.005,-.01085,-.01085*
20,1,.005,-.01085,-.01085,-.01085,.01085,0.0*
1,1,.005,-.01085,.01085*
20,1,.005,-.01085,.01085,.01085,.01085,0.0*
1,1,.005,.01085,.01085*
%
%ADD20MACRO20*%
%AMMACRO27*
1,1,.005,.007746,-.0187*
20,1,.005,.007746,-.0187,-.007746,-.0187,0.0*
1,1,.005,-.007746,-.0187*
20,1,.005,-.007746,-.0187,-.0187,-.007746,0.0*
1,1,.005,-.0187,-.007746*
20,1,.005,-.0187,-.007746,-.0187,.007746,0.0*
1,1,.005,-.0187,.007746*
20,1,.005,-.0187,.007746,-.007746,.0187,0.0*
1,1,.005,-.007746,.0187*
20,1,.005,-.007746,.0187,.007746,.0187,0.0*
1,1,.005,.007746,.0187*
20,1,.005,.007746,.0187,.0187,.007746,0.0*
1,1,.005,.0187,.007746*
20,1,.005,.0187,.007746,.0187,-.007746,0.0*
1,1,.005,.0187,-.007746*
20,1,.005,.0187,-.007746,.007746,-.0187,0.0*
1,1,.005,.007746,-.0187*
%
%ADD27MACRO27*%
%AMMACRO16*
1,1,.005,.0325,.0244*
20,1,.005,.0325,.0244,.0325,-.0244,0.0*
1,1,.005,.0325,-.0244*
20,1,.005,.0325,-.0244,-.0325,-.0244,0.0*
1,1,.005,-.0325,-.0244*
20,1,.005,-.0325,-.0244,-.0325,.0244,0.0*
1,1,.005,-.0325,.0244*
20,1,.005,-.0325,.0244,.0325,.0244,0.0*
1,1,.005,.0325,.0244*
%
%ADD16MACRO16*%
%AMMACRO14*
1,1,.005,.0197,0.0*
20,1,.005,.0197,0.0,0.0,-.0197,0.0*
1,1,.005,0.0,-.0197*
20,1,.005,0.0,-.0197,-.0197,0.0,0.0*
1,1,.005,-.0197,0.0*
20,1,.005,-.0197,0.0,0.0,.0197,0.0*
1,1,.005,0.0,.0197*
20,1,.005,0.0,.0197,.0197,0.0,0.0*
1,1,.005,.0197,0.0*
%
%ADD14MACRO14*%
%AMMACRO15*
1,1,.005,.03445,0.0*
20,1,.005,.03445,0.0,.033927,-.005982,0.0*
1,1,.005,.033927,-.005982*
20,1,.005,.033927,-.005982,.032372,-.011783,0.0*
1,1,.005,.032372,-.011783*
20,1,.005,.032372,-.011783,.029835,-.017225,0.0*
1,1,.005,.029835,-.017225*
20,1,.005,.029835,-.017225,.02639,-.022144,0.0*
1,1,.005,.02639,-.022144*
20,1,.005,.02639,-.022144,.022144,-.02639,0.0*
1,1,.005,.022144,-.02639*
20,1,.005,.022144,-.02639,.017225,-.029835,0.0*
1,1,.005,.017225,-.029835*
20,1,.005,.017225,-.029835,.011783,-.032372,0.0*
1,1,.005,.011783,-.032372*
20,1,.005,.011783,-.032372,.005982,-.033927,0.0*
1,1,.005,.005982,-.033927*
20,1,.005,.005982,-.033927,0.0,-.03445,0.0*
1,1,.005,0.0,-.03445*
20,1,.005,0.0,-.03445,-.005982,-.033927,0.0*
1,1,.005,-.005982,-.033927*
20,1,.005,-.005982,-.033927,-.011783,-.032372,0.0*
1,1,.005,-.011783,-.032372*
20,1,.005,-.011783,-.032372,-.017225,-.029835,0.0*
1,1,.005,-.017225,-.029835*
20,1,.005,-.017225,-.029835,-.022144,-.02639,0.0*
1,1,.005,-.022144,-.02639*
20,1,.005,-.022144,-.02639,-.02639,-.022144,0.0*
1,1,.005,-.02639,-.022144*
20,1,.005,-.02639,-.022144,-.029835,-.017225,0.0*
1,1,.005,-.029835,-.017225*
20,1,.005,-.029835,-.017225,-.032372,-.011783,0.0*
1,1,.005,-.032372,-.011783*
20,1,.005,-.032372,-.011783,-.033927,-.005982,0.0*
1,1,.005,-.033927,-.005982*
20,1,.005,-.033927,-.005982,-.03445,0.0,0.0*
1,1,.005,-.03445,0.0*
20,1,.005,-.03445,0.0,-.033927,.005982,0.0*
1,1,.005,-.033927,.005982*
20,1,.005,-.033927,.005982,-.032372,.011783,0.0*
1,1,.005,-.032372,.011783*
20,1,.005,-.032372,.011783,-.029835,.017225,0.0*
1,1,.005,-.029835,.017225*
20,1,.005,-.029835,.017225,-.02639,.022144,0.0*
1,1,.005,-.02639,.022144*
20,1,.005,-.02639,.022144,-.022144,.02639,0.0*
1,1,.005,-.022144,.02639*
20,1,.005,-.022144,.02639,-.017225,.029835,0.0*
1,1,.005,-.017225,.029835*
20,1,.005,-.017225,.029835,-.011783,.032372,0.0*
1,1,.005,-.011783,.032372*
20,1,.005,-.011783,.032372,-.005982,.033927,0.0*
1,1,.005,-.005982,.033927*
20,1,.005,-.005982,.033927,0.0,.03445,0.0*
1,1,.005,0.0,.03445*
20,1,.005,0.0,.03445,.005982,.033927,0.0*
1,1,.005,.005982,.033927*
20,1,.005,.005982,.033927,.011783,.032372,0.0*
1,1,.005,.011783,.032372*
20,1,.005,.011783,.032372,.017225,.029835,0.0*
1,1,.005,.017225,.029835*
20,1,.005,.017225,.029835,.022144,.02639,0.0*
1,1,.005,.022144,.02639*
20,1,.005,.022144,.02639,.02639,.022144,0.0*
1,1,.005,.02639,.022144*
20,1,.005,.02639,.022144,.029835,.017225,0.0*
1,1,.005,.029835,.017225*
20,1,.005,.029835,.017225,.032372,.011783,0.0*
1,1,.005,.032372,.011783*
20,1,.005,.032372,.011783,.033927,.005982,0.0*
1,1,.005,.033927,.005982*
20,1,.005,.033927,.005982,.03445,0.0,0.0*
1,1,.005,.03445,0.0*
%
%ADD15MACRO15*%
%AMMACRO19*
1,1,.005,.0434,.0493*
20,1,.005,.0434,.0493,.0315,.0552,0.0*
1,1,.005,.0315,.0552*
20,1,.005,.0315,.0552,.0178,.0591,0.0*
1,1,.005,.0178,.0591*
20,1,.005,.0178,.0591,.002,.0591,0.0*
1,1,.005,.002,.0591*
20,1,.005,.002,.0591,-.0157,.0532,0.0*
1,1,.005,-.0157,.0532*
20,1,.005,-.0157,.0532,-.0295,.0434,0.0*
1,1,.005,-.0295,.0434*
20,1,.005,-.0295,.0434,-.0393,.0315,0.0*
1,1,.005,-.0393,.0315*
20,1,.005,-.0393,.0315,-.0472,.0119,0.0*
1,1,.005,-.0472,.0119*
20,1,.005,-.0472,.0119,-.0492,-.0059,0.0*
1,1,.005,-.0492,-.0059*
20,1,.005,-.0492,-.0059,-.0452,-.0236,0.0*
1,1,.005,-.0452,-.0236*
20,1,.005,-.0452,-.0236,-.0393,-.0354,0.0*
1,1,.005,-.0393,-.0354*
20,1,.005,-.0393,-.0354,-.0275,-.0472,0.0*
1,1,.005,-.0275,-.0472*
20,1,.005,-.0275,-.0472,-.0137,-.0551,0.0*
1,1,.005,-.0137,-.0551*
20,1,.005,-.0137,-.0551,0.0,-.059,0.0*
1,1,.005,0.0,-.059*
20,1,.005,0.0,-.059,.0138,-.059,0.0*
1,1,.005,.0138,-.059*
20,1,.005,.0138,-.059,.0276,-.0551,0.0*
1,1,.005,.0276,-.0551*
20,1,.005,.0276,-.0551,.0394,-.0492,0.0*
1,1,.005,.0394,-.0492*
20,1,.005,.0394,-.0492,.0493,-.0413,0.0*
1,1,.005,.0493,-.0413*
%
%ADD19MACRO19*%
%AMMACRO23*
1,1,.005,-.0094,-.0128*
20,1,.005,-.0094,-.0128,-.0094,.0128,0.0*
1,1,.005,-.0094,.0128*
20,1,.005,-.0094,.0128,-.0009,.0128,0.0*
1,1,.005,-.0009,.0128*
20,1,.005,-.0009,.0128,.0026,.0115,0.0*
1,1,.005,.0026,.0115*
20,1,.005,.0026,.0115,.0051,.0098,0.0*
1,1,.005,.0051,.0098*
20,1,.005,.0051,.0098,.0073,.0073,0.0*
1,1,.005,.0073,.0073*
20,1,.005,.0073,.0073,.009,.0043,0.0*
1,1,.005,.009,.0043*
20,1,.005,.009,.0043,.0094,0.0,0.0*
1,1,.005,.0094,0.0*
20,1,.005,.0094,0.0,.009,-.0043,0.0*
1,1,.005,.009,-.0043*
20,1,.005,.009,-.0043,.0073,-.0073,0.0*
1,1,.005,.0073,-.0073*
20,1,.005,.0073,-.0073,.0051,-.0098,0.0*
1,1,.005,.0051,-.0098*
20,1,.005,.0051,-.0098,.0026,-.0115,0.0*
1,1,.005,.0026,-.0115*
20,1,.005,.0026,-.0115,-.0009,-.0128,0.0*
1,1,.005,-.0009,-.0128*
20,1,.005,-.0009,-.0128,-.0094,-.0128,0.0*
1,1,.005,-.0094,-.0128*
%
%ADD23MACRO23*%
%AMMACRO29*
1,1,.005,.0092,-.0138*
20,1,.005,.0092,-.0138,-.0092,-.0138,0.0*
1,1,.005,-.0092,-.0138*
20,1,.005,-.0092,-.0138,-.0092,.0138,0.0*
1,1,.005,-.0092,.0138*
20,1,.005,-.0092,.0138,.0092,.0138,0.0*
1,1,.005,.0092,.0138*
1,1,.005,.0018,.0005*
20,1,.005,.0018,.0005,-.0092,.0005,0.0*
1,1,.005,-.0092,.0005*
%
%ADD29MACRO29*%
%AMMACRO28*
1,1,.005,.0118,.0029*
20,1,.005,.0118,.0029,.0176,.0073,0.0*
1,1,.005,.0176,.0073*
20,1,.005,.0176,.0073,.022,.0147,0.0*
1,1,.005,.022,.0147*
20,1,.005,.022,.0147,.025,.025,0.0*
1,1,.005,.025,.025*
20,1,.005,.025,.025,.022,.0338,0.0*
1,1,.005,.022,.0338*
20,1,.005,.022,.0338,.0162,.0397,0.0*
1,1,.005,.0162,.0397*
20,1,.005,.0162,.0397,.0059,.0441,0.0*
1,1,.005,.0059,.0441*
20,1,.005,.0059,.0441,-.0338,.0441,0.0*
1,1,.005,-.0338,.0441*
20,1,.005,-.0338,.0441,-.0338,-.0441,0.0*
1,1,.005,-.0338,-.0441*
20,1,.005,-.0338,-.0441,.0147,-.0441,0.0*
1,1,.005,.0147,-.0441*
20,1,.005,.0147,-.0441,.025,-.0382,0.0*
1,1,.005,.025,-.0382*
20,1,.005,.025,-.0382,.0309,-.0294,0.0*
1,1,.005,.0309,-.0294*
20,1,.005,.0309,-.0294,.0338,-.0191,0.0*
1,1,.005,.0338,-.0191*
20,1,.005,.0338,-.0191,.0309,-.0088,0.0*
1,1,.005,.0309,-.0088*
20,1,.005,.0309,-.0088,.022,0.0,0.0*
1,1,.005,.022,0.0*
20,1,.005,.022,0.0,.0118,.0029,0.0*
1,1,.005,.0118,.0029*
20,1,.005,.0118,.0029,-.0338,.0029,0.0*
1,1,.005,-.0338,.0029*
%
%ADD28MACRO28*%
%AMMACRO21*
1,1,.005,-.01625,.0054*
20,1,.005,-.01625,.0054,-.016003,.008222,0.0*
1,1,.005,-.016003,.008222*
20,1,.005,-.016003,.008222,-.01527,.010958,0.0*
1,1,.005,-.01527,.010958*
20,1,.005,-.01527,.010958,-.014073,.013525,0.0*
1,1,.005,-.014073,.013525*
20,1,.005,-.014073,.013525,-.012448,.015845,0.0*
1,1,.005,-.012448,.015845*
20,1,.005,-.012448,.015845,-.010445,.017848,0.0*
1,1,.005,-.010445,.017848*
20,1,.005,-.010445,.017848,-.008125,.019473,0.0*
1,1,.005,-.008125,.019473*
20,1,.005,-.008125,.019473,-.005558,.02067,0.0*
1,1,.005,-.005558,.02067*
20,1,.005,-.005558,.02067,-.002822,.021403,0.0*
1,1,.005,-.002822,.021403*
20,1,.005,-.002822,.021403,0.0,.02165,0.0*
1,1,.005,0.0,.02165*
20,1,.005,0.0,.02165,.002822,.021403,0.0*
1,1,.005,.002822,.021403*
20,1,.005,.002822,.021403,.005558,.02067,0.0*
1,1,.005,.005558,.02067*
20,1,.005,.005558,.02067,.008125,.019473,0.0*
1,1,.005,.008125,.019473*
20,1,.005,.008125,.019473,.010445,.017848,0.0*
1,1,.005,.010445,.017848*
20,1,.005,.010445,.017848,.012448,.015845,0.0*
1,1,.005,.012448,.015845*
20,1,.005,.012448,.015845,.014073,.013525,0.0*
1,1,.005,.014073,.013525*
20,1,.005,.014073,.013525,.01527,.010958,0.0*
1,1,.005,.01527,.010958*
20,1,.005,.01527,.010958,.016003,.008222,0.0*
1,1,.005,.016003,.008222*
20,1,.005,.016003,.008222,.01625,.0054,0.0*
1,1,.005,.01625,.0054*
20,1,.005,.01625,.0054,.01625,-.0054,0.0*
1,1,.005,.01625,-.0054*
20,1,.005,.01625,-.0054,.016003,-.008222,0.0*
1,1,.005,.016003,-.008222*
20,1,.005,.016003,-.008222,.01527,-.010958,0.0*
1,1,.005,.01527,-.010958*
20,1,.005,.01527,-.010958,.014073,-.013525,0.0*
1,1,.005,.014073,-.013525*
20,1,.005,.014073,-.013525,.012448,-.015845,0.0*
1,1,.005,.012448,-.015845*
20,1,.005,.012448,-.015845,.010445,-.017848,0.0*
1,1,.005,.010445,-.017848*
20,1,.005,.010445,-.017848,.008125,-.019473,0.0*
1,1,.005,.008125,-.019473*
20,1,.005,.008125,-.019473,.005558,-.02067,0.0*
1,1,.005,.005558,-.02067*
20,1,.005,.005558,-.02067,.002822,-.021403,0.0*
1,1,.005,.002822,-.021403*
20,1,.005,.002822,-.021403,0.0,-.02165,0.0*
1,1,.005,0.0,-.02165*
20,1,.005,0.0,-.02165,-.002822,-.021403,0.0*
1,1,.005,-.002822,-.021403*
20,1,.005,-.002822,-.021403,-.005558,-.02067,0.0*
1,1,.005,-.005558,-.02067*
20,1,.005,-.005558,-.02067,-.008125,-.019473,0.0*
1,1,.005,-.008125,-.019473*
20,1,.005,-.008125,-.019473,-.010445,-.017848,0.0*
1,1,.005,-.010445,-.017848*
20,1,.005,-.010445,-.017848,-.012448,-.015845,0.0*
1,1,.005,-.012448,-.015845*
20,1,.005,-.012448,-.015845,-.014073,-.013525,0.0*
1,1,.005,-.014073,-.013525*
20,1,.005,-.014073,-.013525,-.01527,-.010958,0.0*
1,1,.005,-.01527,-.010958*
20,1,.005,-.01527,-.010958,-.016003,-.008222,0.0*
1,1,.005,-.016003,-.008222*
20,1,.005,-.016003,-.008222,-.01625,-.0054,0.0*
1,1,.005,-.01625,-.0054*
20,1,.005,-.01625,-.0054,-.01625,.0054,0.0*
1,1,.005,-.01625,.0054*
%
%ADD21MACRO21*%
%AMMACRO11*
1,1,.005,.01575,0.0*
20,1,.005,.01575,0.0,.007875,.01364,0.0*
1,1,.005,.007875,.01364*
20,1,.005,.007875,.01364,-.007875,.01364,0.0*
1,1,.005,-.007875,.01364*
20,1,.005,-.007875,.01364,-.01575,0.0,0.0*
1,1,.005,-.01575,0.0*
20,1,.005,-.01575,0.0,-.007875,-.01364,0.0*
1,1,.005,-.007875,-.01364*
20,1,.005,-.007875,-.01364,.007875,-.01364,0.0*
1,1,.005,.007875,-.01364*
20,1,.005,.007875,-.01364,.01575,0.0,0.0*
1,1,.005,.01575,0.0*
%
%ADD11MACRO11*%
%AMMACRO13*
1,1,.005,-.0051,.01535*
20,1,.005,-.0051,.01535,.0051,.01535,0.0*
1,1,.005,.0051,.01535*
20,1,.005,.0051,.01535,.007765,.015117,0.0*
1,1,.005,.007765,.015117*
20,1,.005,.007765,.015117,.01035,.014424,0.0*
1,1,.005,.01035,.014424*
20,1,.005,.01035,.014424,.012775,.013293,0.0*
1,1,.005,.012775,.013293*
20,1,.005,.012775,.013293,.014967,.011759,0.0*
1,1,.005,.014967,.011759*
20,1,.005,.014967,.011759,.016859,.009867,0.0*
1,1,.005,.016859,.009867*
20,1,.005,.016859,.009867,.018393,.007675,0.0*
1,1,.005,.018393,.007675*
20,1,.005,.018393,.007675,.019524,.00525,0.0*
1,1,.005,.019524,.00525*
20,1,.005,.019524,.00525,.020217,.002665,0.0*
1,1,.005,.020217,.002665*
20,1,.005,.020217,.002665,.02045,0.0,0.0*
1,1,.005,.02045,0.0*
20,1,.005,.02045,0.0,.020217,-.002665,0.0*
1,1,.005,.020217,-.002665*
20,1,.005,.020217,-.002665,.019524,-.00525,0.0*
1,1,.005,.019524,-.00525*
20,1,.005,.019524,-.00525,.018393,-.007675,0.0*
1,1,.005,.018393,-.007675*
20,1,.005,.018393,-.007675,.016859,-.009867,0.0*
1,1,.005,.016859,-.009867*
20,1,.005,.016859,-.009867,.014967,-.011759,0.0*
1,1,.005,.014967,-.011759*
20,1,.005,.014967,-.011759,.012775,-.013293,0.0*
1,1,.005,.012775,-.013293*
20,1,.005,.012775,-.013293,.01035,-.014424,0.0*
1,1,.005,.01035,-.014424*
20,1,.005,.01035,-.014424,.007765,-.015117,0.0*
1,1,.005,.007765,-.015117*
20,1,.005,.007765,-.015117,.0051,-.01535,0.0*
1,1,.005,.0051,-.01535*
20,1,.005,.0051,-.01535,-.0051,-.01535,0.0*
1,1,.005,-.0051,-.01535*
20,1,.005,-.0051,-.01535,-.007765,-.015117,0.0*
1,1,.005,-.007765,-.015117*
20,1,.005,-.007765,-.015117,-.01035,-.014424,0.0*
1,1,.005,-.01035,-.014424*
20,1,.005,-.01035,-.014424,-.012775,-.013293,0.0*
1,1,.005,-.012775,-.013293*
20,1,.005,-.012775,-.013293,-.014967,-.011759,0.0*
1,1,.005,-.014967,-.011759*
20,1,.005,-.014967,-.011759,-.016859,-.009867,0.0*
1,1,.005,-.016859,-.009867*
20,1,.005,-.016859,-.009867,-.018393,-.007675,0.0*
1,1,.005,-.018393,-.007675*
20,1,.005,-.018393,-.007675,-.019524,-.00525,0.0*
1,1,.005,-.019524,-.00525*
20,1,.005,-.019524,-.00525,-.020217,-.002665,0.0*
1,1,.005,-.020217,-.002665*
20,1,.005,-.020217,-.002665,-.02045,0.0,0.0*
1,1,.005,-.02045,0.0*
20,1,.005,-.02045,0.0,-.020217,.002665,0.0*
1,1,.005,-.020217,.002665*
20,1,.005,-.020217,.002665,-.019524,.00525,0.0*
1,1,.005,-.019524,.00525*
20,1,.005,-.019524,.00525,-.018393,.007675,0.0*
1,1,.005,-.018393,.007675*
20,1,.005,-.018393,.007675,-.016859,.009867,0.0*
1,1,.005,-.016859,.009867*
20,1,.005,-.016859,.009867,-.014967,.011759,0.0*
1,1,.005,-.014967,.011759*
20,1,.005,-.014967,.011759,-.012775,.013293,0.0*
1,1,.005,-.012775,.013293*
20,1,.005,-.012775,.013293,-.01035,.014424,0.0*
1,1,.005,-.01035,.014424*
20,1,.005,-.01035,.014424,-.007765,.015117,0.0*
1,1,.005,-.007765,.015117*
20,1,.005,-.007765,.015117,-.0051,.01535,0.0*
1,1,.005,-.0051,.01535*
%
%ADD13MACRO13*%
%AMMACRO25*
1,1,.005,-.0118,-.0138*
20,1,.005,-.0118,-.0138,-.0118,.0138,0.0*
1,1,.005,-.0118,.0138*
20,1,.005,-.0118,.0138,-.011621,.015849,0.0*
1,1,.005,-.011621,.015849*
20,1,.005,-.011621,.015849,-.011088,.017836,0.0*
1,1,.005,-.011088,.017836*
20,1,.005,-.011088,.017836,-.010219,.0197,0.0*
1,1,.005,-.010219,.0197*
20,1,.005,-.010219,.0197,-.009039,.021385,0.0*
1,1,.005,-.009039,.021385*
20,1,.005,-.009039,.021385,-.007585,.022839,0.0*
1,1,.005,-.007585,.022839*
20,1,.005,-.007585,.022839,-.0059,.024019,0.0*
1,1,.005,-.0059,.024019*
20,1,.005,-.0059,.024019,-.004036,.024888,0.0*
1,1,.005,-.004036,.024888*
20,1,.005,-.004036,.024888,-.002049,.025421,0.0*
1,1,.005,-.002049,.025421*
20,1,.005,-.002049,.025421,0.0,.0256,0.0*
1,1,.005,0.0,.0256*
20,1,.005,0.0,.0256,.002049,.025421,0.0*
1,1,.005,.002049,.025421*
20,1,.005,.002049,.025421,.004036,.024888,0.0*
1,1,.005,.004036,.024888*
20,1,.005,.004036,.024888,.0059,.024019,0.0*
1,1,.005,.0059,.024019*
20,1,.005,.0059,.024019,.007585,.022839,0.0*
1,1,.005,.007585,.022839*
20,1,.005,.007585,.022839,.009039,.021385,0.0*
1,1,.005,.009039,.021385*
20,1,.005,.009039,.021385,.010219,.0197,0.0*
1,1,.005,.010219,.0197*
20,1,.005,.010219,.0197,.011088,.017836,0.0*
1,1,.005,.011088,.017836*
20,1,.005,.011088,.017836,.011621,.015849,0.0*
1,1,.005,.011621,.015849*
20,1,.005,.011621,.015849,.0118,.0138,0.0*
1,1,.005,.0118,.0138*
20,1,.005,.0118,.0138,.0118,-.0138,0.0*
1,1,.005,.0118,-.0138*
20,1,.005,.0118,-.0138,.011621,-.015849,0.0*
1,1,.005,.011621,-.015849*
20,1,.005,.011621,-.015849,.011088,-.017836,0.0*
1,1,.005,.011088,-.017836*
20,1,.005,.011088,-.017836,.010219,-.0197,0.0*
1,1,.005,.010219,-.0197*
20,1,.005,.010219,-.0197,.009039,-.021385,0.0*
1,1,.005,.009039,-.021385*
20,1,.005,.009039,-.021385,.007585,-.022839,0.0*
1,1,.005,.007585,-.022839*
20,1,.005,.007585,-.022839,.0059,-.024019,0.0*
1,1,.005,.0059,-.024019*
20,1,.005,.0059,-.024019,.004036,-.024888,0.0*
1,1,.005,.004036,-.024888*
20,1,.005,.004036,-.024888,.002049,-.025421,0.0*
1,1,.005,.002049,-.025421*
20,1,.005,.002049,-.025421,0.0,-.0256,0.0*
1,1,.005,0.0,-.0256*
20,1,.005,0.0,-.0256,-.002049,-.025421,0.0*
1,1,.005,-.002049,-.025421*
20,1,.005,-.002049,-.025421,-.004036,-.024888,0.0*
1,1,.005,-.004036,-.024888*
20,1,.005,-.004036,-.024888,-.0059,-.024019,0.0*
1,1,.005,-.0059,-.024019*
20,1,.005,-.0059,-.024019,-.007585,-.022839,0.0*
1,1,.005,-.007585,-.022839*
20,1,.005,-.007585,-.022839,-.009039,-.021385,0.0*
1,1,.005,-.009039,-.021385*
20,1,.005,-.009039,-.021385,-.010219,-.0197,0.0*
1,1,.005,-.010219,-.0197*
20,1,.005,-.010219,-.0197,-.011088,-.017836,0.0*
1,1,.005,-.011088,-.017836*
20,1,.005,-.011088,-.017836,-.011621,-.015849,0.0*
1,1,.005,-.011621,-.015849*
20,1,.005,-.011621,-.015849,-.0118,-.0138,0.0*
1,1,.005,-.0118,-.0138*
1,1,.005,-.0059,-.0059*
20,1,.005,-.0059,-.0059,-.0075,-.0057,0.0*
1,1,.005,-.0075,-.0057*
20,1,.005,-.0075,-.0057,-.0088,-.0049,0.0*
1,1,.005,-.0088,-.0049*
20,1,.005,-.0088,-.0049,-.01,-.0037,0.0*
1,1,.005,-.01,-.0037*
20,1,.005,-.01,-.0037,-.0108,-.0024,0.0*
1,1,.005,-.0108,-.0024*
20,1,.005,-.0108,-.0024,-.0112,-.0008,0.0*
1,1,.005,-.0112,-.0008*
20,1,.005,-.0112,-.0008,-.0112,.0008,0.0*
1,1,.005,-.0112,.0008*
20,1,.005,-.0112,.0008,-.0108,.0024,0.0*
1,1,.005,-.0108,.0024*
20,1,.005,-.0108,.0024,-.01,.0037,0.0*
1,1,.005,-.01,.0037*
20,1,.005,-.01,.0037,-.0088,.0049,0.0*
1,1,.005,-.0088,.0049*
20,1,.005,-.0088,.0049,-.0075,.0057,0.0*
1,1,.005,-.0075,.0057*
20,1,.005,-.0075,.0057,-.0059,.0059,0.0*
1,1,.005,-.0059,.0059*
20,1,.005,-.0059,.0059,-.0043,.0057,0.0*
1,1,.005,-.0043,.0057*
20,1,.005,-.0043,.0057,-.003,.0049,0.0*
1,1,.005,-.003,.0049*
20,1,.005,-.003,.0049,-.0018,.0037,0.0*
1,1,.005,-.0018,.0037*
20,1,.005,-.0018,.0037,-.001,.0024,0.0*
1,1,.005,-.001,.0024*
20,1,.005,-.001,.0024,-.0006,.0008,0.0*
1,1,.005,-.0006,.0008*
20,1,.005,-.0006,.0008,-.0006,-.0008,0.0*
1,1,.005,-.0006,-.0008*
20,1,.005,-.0006,-.0008,-.001,-.0024,0.0*
1,1,.005,-.001,-.0024*
20,1,.005,-.001,-.0024,-.0018,-.0037,0.0*
1,1,.005,-.0018,-.0037*
20,1,.005,-.0018,-.0037,-.003,-.0049,0.0*
1,1,.005,-.003,-.0049*
20,1,.005,-.003,-.0049,-.0043,-.0057,0.0*
1,1,.005,-.0043,-.0057*
20,1,.005,-.0043,-.0057,-.0059,-.0059,0.0*
1,1,.005,-.0059,-.0059*
1,1,.005,.0011,-.0059*
20,1,.005,.0011,-.0059,.006,.0059,0.0*
1,1,.005,.006,.0059*
20,1,.005,.006,.0059,.0109,-.0059,0.0*
1,1,.005,.0109,-.0059*
1,1,.005,.0091,-.0018*
20,1,.005,.0091,-.0018,.0029,-.0018,0.0*
1,1,.005,.0029,-.0018*
%
%ADD25MACRO25*%
%AMMACRO22*
1,1,.005,0.0,.0177*
20,1,.005,0.0,.0177,-.015329,.00885,0.0*
1,1,.005,-.015329,.00885*
20,1,.005,-.015329,.00885,-.015329,-.00885,0.0*
1,1,.005,-.015329,-.00885*
20,1,.005,-.015329,-.00885,0.0,-.0177,0.0*
1,1,.005,0.0,-.0177*
20,1,.005,0.0,-.0177,.015329,-.00885,0.0*
1,1,.005,.015329,-.00885*
20,1,.005,.015329,-.00885,.015329,.00885,0.0*
1,1,.005,.015329,.00885*
20,1,.005,.015329,.00885,0.0,.0177,0.0*
1,1,.005,0.0,.0177*
%
%ADD22MACRO22*%
%AMMACRO12*
1,1,.005,-.0287,-.0344*
20,1,.005,-.0287,-.0344,0.0,.0345,0.0*
1,1,.005,0.0,.0345*
20,1,.005,0.0,.0345,.0288,-.0344,0.0*
1,1,.005,.0288,-.0344*
1,1,.005,.0184,-.0103*
20,1,.005,.0184,-.0103,-.0183,-.0103,0.0*
1,1,.005,-.0183,-.0103*
%
%ADD12MACRO12*%
%AMMACRO10*
1,1,.005,0.0,.0197*
20,1,.005,0.0,.0197,.017061,-.00985,0.0*
1,1,.005,.017061,-.00985*
20,1,.005,.017061,-.00985,-.017061,-.00985,0.0*
1,1,.005,-.017061,-.00985*
20,1,.005,-.017061,-.00985,0.0,.0197,0.0*
1,1,.005,0.0,.0197*
%
%ADD10MACRO10*%
%AMMACRO24*
1,1,.005,-.0118,-.0216*
20,1,.005,-.0118,-.0216,-.0118,.0216,0.0*
1,1,.005,-.0118,.0216*
20,1,.005,-.0118,.0216,-.011621,.023649,0.0*
1,1,.005,-.011621,.023649*
20,1,.005,-.011621,.023649,-.011088,.025636,0.0*
1,1,.005,-.011088,.025636*
20,1,.005,-.011088,.025636,-.010219,.0275,0.0*
1,1,.005,-.010219,.0275*
20,1,.005,-.010219,.0275,-.009039,.029185,0.0*
1,1,.005,-.009039,.029185*
20,1,.005,-.009039,.029185,-.007585,.030639,0.0*
1,1,.005,-.007585,.030639*
20,1,.005,-.007585,.030639,-.0059,.031819,0.0*
1,1,.005,-.0059,.031819*
20,1,.005,-.0059,.031819,-.004036,.032688,0.0*
1,1,.005,-.004036,.032688*
20,1,.005,-.004036,.032688,-.002049,.033221,0.0*
1,1,.005,-.002049,.033221*
20,1,.005,-.002049,.033221,0.0,.0334,0.0*
1,1,.005,0.0,.0334*
20,1,.005,0.0,.0334,.002049,.033221,0.0*
1,1,.005,.002049,.033221*
20,1,.005,.002049,.033221,.004036,.032688,0.0*
1,1,.005,.004036,.032688*
20,1,.005,.004036,.032688,.0059,.031819,0.0*
1,1,.005,.0059,.031819*
20,1,.005,.0059,.031819,.007585,.030639,0.0*
1,1,.005,.007585,.030639*
20,1,.005,.007585,.030639,.009039,.029185,0.0*
1,1,.005,.009039,.029185*
20,1,.005,.009039,.029185,.010219,.0275,0.0*
1,1,.005,.010219,.0275*
20,1,.005,.010219,.0275,.011088,.025636,0.0*
1,1,.005,.011088,.025636*
20,1,.005,.011088,.025636,.011621,.023649,0.0*
1,1,.005,.011621,.023649*
20,1,.005,.011621,.023649,.0118,.0216,0.0*
1,1,.005,.0118,.0216*
20,1,.005,.0118,.0216,.0118,-.0216,0.0*
1,1,.005,.0118,-.0216*
20,1,.005,.0118,-.0216,.011621,-.023649,0.0*
1,1,.005,.011621,-.023649*
20,1,.005,.011621,-.023649,.011088,-.025636,0.0*
1,1,.005,.011088,-.025636*
20,1,.005,.011088,-.025636,.010219,-.0275,0.0*
1,1,.005,.010219,-.0275*
20,1,.005,.010219,-.0275,.009039,-.029185,0.0*
1,1,.005,.009039,-.029185*
20,1,.005,.009039,-.029185,.007585,-.030639,0.0*
1,1,.005,.007585,-.030639*
20,1,.005,.007585,-.030639,.0059,-.031819,0.0*
1,1,.005,.0059,-.031819*
20,1,.005,.0059,-.031819,.004036,-.032688,0.0*
1,1,.005,.004036,-.032688*
20,1,.005,.004036,-.032688,.002049,-.033221,0.0*
1,1,.005,.002049,-.033221*
20,1,.005,.002049,-.033221,0.0,-.0334,0.0*
1,1,.005,0.0,-.0334*
20,1,.005,0.0,-.0334,-.002049,-.033221,0.0*
1,1,.005,-.002049,-.033221*
20,1,.005,-.002049,-.033221,-.004036,-.032688,0.0*
1,1,.005,-.004036,-.032688*
20,1,.005,-.004036,-.032688,-.0059,-.031819,0.0*
1,1,.005,-.0059,-.031819*
20,1,.005,-.0059,-.031819,-.007585,-.030639,0.0*
1,1,.005,-.007585,-.030639*
20,1,.005,-.007585,-.030639,-.009039,-.029185,0.0*
1,1,.005,-.009039,-.029185*
20,1,.005,-.009039,-.029185,-.010219,-.0275,0.0*
1,1,.005,-.010219,-.0275*
20,1,.005,-.010219,-.0275,-.011088,-.025636,0.0*
1,1,.005,-.011088,-.025636*
20,1,.005,-.011088,-.025636,-.011621,-.023649,0.0*
1,1,.005,-.011621,-.023649*
20,1,.005,-.011621,-.023649,-.0118,-.0216,0.0*
1,1,.005,-.0118,-.0216*
1,1,.005,-.0059,-.0059*
20,1,.005,-.0059,-.0059,-.0075,-.0057,0.0*
1,1,.005,-.0075,-.0057*
20,1,.005,-.0075,-.0057,-.0088,-.0049,0.0*
1,1,.005,-.0088,-.0049*
20,1,.005,-.0088,-.0049,-.01,-.0037,0.0*
1,1,.005,-.01,-.0037*
20,1,.005,-.01,-.0037,-.0108,-.0024,0.0*
1,1,.005,-.0108,-.0024*
20,1,.005,-.0108,-.0024,-.0112,-.0008,0.0*
1,1,.005,-.0112,-.0008*
20,1,.005,-.0112,-.0008,-.0112,.0008,0.0*
1,1,.005,-.0112,.0008*
20,1,.005,-.0112,.0008,-.0108,.0024,0.0*
1,1,.005,-.0108,.0024*
20,1,.005,-.0108,.0024,-.01,.0037,0.0*
1,1,.005,-.01,.0037*
20,1,.005,-.01,.0037,-.0088,.0049,0.0*
1,1,.005,-.0088,.0049*
20,1,.005,-.0088,.0049,-.0075,.0057,0.0*
1,1,.005,-.0075,.0057*
20,1,.005,-.0075,.0057,-.0059,.0059,0.0*
1,1,.005,-.0059,.0059*
20,1,.005,-.0059,.0059,-.0043,.0057,0.0*
1,1,.005,-.0043,.0057*
20,1,.005,-.0043,.0057,-.003,.0049,0.0*
1,1,.005,-.003,.0049*
20,1,.005,-.003,.0049,-.0018,.0037,0.0*
1,1,.005,-.0018,.0037*
20,1,.005,-.0018,.0037,-.001,.0024,0.0*
1,1,.005,-.001,.0024*
20,1,.005,-.001,.0024,-.0006,.0008,0.0*
1,1,.005,-.0006,.0008*
20,1,.005,-.0006,.0008,-.0006,-.0008,0.0*
1,1,.005,-.0006,-.0008*
20,1,.005,-.0006,-.0008,-.001,-.0024,0.0*
1,1,.005,-.001,-.0024*
20,1,.005,-.001,-.0024,-.0018,-.0037,0.0*
1,1,.005,-.0018,-.0037*
20,1,.005,-.0018,-.0037,-.003,-.0049,0.0*
1,1,.005,-.003,-.0049*
20,1,.005,-.003,-.0049,-.0043,-.0057,0.0*
1,1,.005,-.0043,-.0057*
20,1,.005,-.0043,-.0057,-.0059,-.0059,0.0*
1,1,.005,-.0059,-.0059*
1,1,.005,.0076,.0004*
20,1,.005,.0076,.0004,.0084,.001,0.0*
1,1,.005,.0084,.001*
20,1,.005,.0084,.001,.0089,.002,0.0*
1,1,.005,.0089,.002*
20,1,.005,.0089,.002,.0093,.0033,0.0*
1,1,.005,.0093,.0033*
20,1,.005,.0093,.0033,.0089,.0045,0.0*
1,1,.005,.0089,.0045*
20,1,.005,.0089,.0045,.0082,.0053,0.0*
1,1,.005,.0082,.0053*
20,1,.005,.0082,.0053,.0068,.0059,0.0*
1,1,.005,.0068,.0059*
20,1,.005,.0068,.0059,.0015,.0059,0.0*
1,1,.005,.0015,.0059*
20,1,.005,.0015,.0059,.0015,-.0059,0.0*
1,1,.005,.0015,-.0059*
20,1,.005,.0015,-.0059,.008,-.0059,0.0*
1,1,.005,.008,-.0059*
20,1,.005,.008,-.0059,.0093,-.0051,0.0*
1,1,.005,.0093,-.0051*
20,1,.005,.0093,-.0051,.0101,-.0039,0.0*
1,1,.005,.0101,-.0039*
20,1,.005,.0101,-.0039,.0105,-.0026,0.0*
1,1,.005,.0105,-.0026*
20,1,.005,.0105,-.0026,.0101,-.0012,0.0*
1,1,.005,.0101,-.0012*
20,1,.005,.0101,-.0012,.0089,0.0,0.0*
1,1,.005,.0089,0.0*
20,1,.005,.0089,0.0,.0076,.0004,0.0*
1,1,.005,.0076,.0004*
20,1,.005,.0076,.0004,.0015,.0004,0.0*
1,1,.005,.0015,.0004*
%
%ADD24MACRO24*%
%AMMACRO17*
1,1,.005,-.0197,-.0216*
20,1,.005,-.0197,-.0216,-.0197,.0216,0.0*
1,1,.005,-.0197,.0216*
20,1,.005,-.0197,.0216,-.019401,.025021,0.0*
1,1,.005,-.019401,.025021*
20,1,.005,-.019401,.025021,-.018512,.028338,0.0*
1,1,.005,-.018512,.028338*
20,1,.005,-.018512,.028338,-.017061,.03145,0.0*
1,1,.005,-.017061,.03145*
20,1,.005,-.017061,.03145,-.015091,.034263,0.0*
1,1,.005,-.015091,.034263*
20,1,.005,-.015091,.034263,-.012663,.036691,0.0*
1,1,.005,-.012663,.036691*
20,1,.005,-.012663,.036691,-.00985,.038661,0.0*
1,1,.005,-.00985,.038661*
20,1,.005,-.00985,.038661,-.006738,.040112,0.0*
1,1,.005,-.006738,.040112*
20,1,.005,-.006738,.040112,-.003421,.041001,0.0*
1,1,.005,-.003421,.041001*
20,1,.005,-.003421,.041001,0.0,.0413,0.0*
1,1,.005,0.0,.0413*
20,1,.005,0.0,.0413,.003421,.041001,0.0*
1,1,.005,.003421,.041001*
20,1,.005,.003421,.041001,.006738,.040112,0.0*
1,1,.005,.006738,.040112*
20,1,.005,.006738,.040112,.00985,.038661,0.0*
1,1,.005,.00985,.038661*
20,1,.005,.00985,.038661,.012663,.036691,0.0*
1,1,.005,.012663,.036691*
20,1,.005,.012663,.036691,.015091,.034263,0.0*
1,1,.005,.015091,.034263*
20,1,.005,.015091,.034263,.017061,.03145,0.0*
1,1,.005,.017061,.03145*
20,1,.005,.017061,.03145,.018512,.028338,0.0*
1,1,.005,.018512,.028338*
20,1,.005,.018512,.028338,.019401,.025021,0.0*
1,1,.005,.019401,.025021*
20,1,.005,.019401,.025021,.0197,.0216,0.0*
1,1,.005,.0197,.0216*
20,1,.005,.0197,.0216,.0197,-.0216,0.0*
1,1,.005,.0197,-.0216*
20,1,.005,.0197,-.0216,.019401,-.025021,0.0*
1,1,.005,.019401,-.025021*
20,1,.005,.019401,-.025021,.018512,-.028338,0.0*
1,1,.005,.018512,-.028338*
20,1,.005,.018512,-.028338,.017061,-.03145,0.0*
1,1,.005,.017061,-.03145*
20,1,.005,.017061,-.03145,.015091,-.034263,0.0*
1,1,.005,.015091,-.034263*
20,1,.005,.015091,-.034263,.012663,-.036691,0.0*
1,1,.005,.012663,-.036691*
20,1,.005,.012663,-.036691,.00985,-.038661,0.0*
1,1,.005,.00985,-.038661*
20,1,.005,.00985,-.038661,.006738,-.040112,0.0*
1,1,.005,.006738,-.040112*
20,1,.005,.006738,-.040112,.003421,-.041001,0.0*
1,1,.005,.003421,-.041001*
20,1,.005,.003421,-.041001,0.0,-.0413,0.0*
1,1,.005,0.0,-.0413*
20,1,.005,0.0,-.0413,-.003421,-.041001,0.0*
1,1,.005,-.003421,-.041001*
20,1,.005,-.003421,-.041001,-.006738,-.040112,0.0*
1,1,.005,-.006738,-.040112*
20,1,.005,-.006738,-.040112,-.00985,-.038661,0.0*
1,1,.005,-.00985,-.038661*
20,1,.005,-.00985,-.038661,-.012663,-.036691,0.0*
1,1,.005,-.012663,-.036691*
20,1,.005,-.012663,-.036691,-.015091,-.034263,0.0*
1,1,.005,-.015091,-.034263*
20,1,.005,-.015091,-.034263,-.017061,-.03145,0.0*
1,1,.005,-.017061,-.03145*
20,1,.005,-.017061,-.03145,-.018512,-.028338,0.0*
1,1,.005,-.018512,-.028338*
20,1,.005,-.018512,-.028338,-.019401,-.025021,0.0*
1,1,.005,-.019401,-.025021*
20,1,.005,-.019401,-.025021,-.0197,-.0216,0.0*
1,1,.005,-.0197,-.0216*
1,1,.005,-.0099,-.0098*
20,1,.005,-.0099,-.0098,-.0125,-.0095,0.0*
1,1,.005,-.0125,-.0095*
20,1,.005,-.0125,-.0095,-.0148,-.0082,0.0*
1,1,.005,-.0148,-.0082*
20,1,.005,-.0148,-.0082,-.0167,-.0062,0.0*
1,1,.005,-.0167,-.0062*
20,1,.005,-.0167,-.0062,-.0181,-.0039,0.0*
1,1,.005,-.0181,-.0039*
20,1,.005,-.0181,-.0039,-.0187,-.0013,0.0*
1,1,.005,-.0187,-.0013*
20,1,.005,-.0187,-.0013,-.0187,.0014,0.0*
1,1,.005,-.0187,.0014*
20,1,.005,-.0187,.0014,-.0181,.004,0.0*
1,1,.005,-.0181,.004*
20,1,.005,-.0181,.004,-.0167,.0063,0.0*
1,1,.005,-.0167,.0063*
20,1,.005,-.0167,.0063,-.0148,.0083,0.0*
1,1,.005,-.0148,.0083*
20,1,.005,-.0148,.0083,-.0125,.0096,0.0*
1,1,.005,-.0125,.0096*
20,1,.005,-.0125,.0096,-.0099,.0099,0.0*
1,1,.005,-.0099,.0099*
20,1,.005,-.0099,.0099,-.0072,.0096,0.0*
1,1,.005,-.0072,.0096*
20,1,.005,-.0072,.0096,-.0049,.0083,0.0*
1,1,.005,-.0049,.0083*
20,1,.005,-.0049,.0083,-.003,.0063,0.0*
1,1,.005,-.003,.0063*
20,1,.005,-.003,.0063,-.0016,.004,0.0*
1,1,.005,-.0016,.004*
20,1,.005,-.0016,.004,-.001,.0014,0.0*
1,1,.005,-.001,.0014*
20,1,.005,-.001,.0014,-.001,-.0013,0.0*
1,1,.005,-.001,-.0013*
20,1,.005,-.001,-.0013,-.0016,-.0039,0.0*
1,1,.005,-.0016,-.0039*
20,1,.005,-.0016,-.0039,-.003,-.0062,0.0*
1,1,.005,-.003,-.0062*
20,1,.005,-.003,-.0062,-.0049,-.0082,0.0*
1,1,.005,-.0049,-.0082*
20,1,.005,-.0049,-.0082,-.0072,-.0095,0.0*
1,1,.005,-.0072,-.0095*
20,1,.005,-.0072,-.0095,-.0099,-.0098,0.0*
1,1,.005,-.0099,-.0098*
1,1,.005,.0172,.0083*
20,1,.005,.0172,.0083,.0152,.0092,0.0*
1,1,.005,.0152,.0092*
20,1,.005,.0152,.0092,.0129,.0099,0.0*
1,1,.005,.0129,.0099*
20,1,.005,.0129,.0099,.0103,.0099,0.0*
1,1,.005,.0103,.0099*
20,1,.005,.0103,.0099,.0073,.0089,0.0*
1,1,.005,.0073,.0089*
20,1,.005,.0073,.0089,.005,.0073,0.0*
1,1,.005,.005,.0073*
20,1,.005,.005,.0073,.0034,.0053,0.0*
1,1,.005,.0034,.0053*
20,1,.005,.0034,.0053,.0021,.002,0.0*
1,1,.005,.0021,.002*
20,1,.005,.0021,.002,.0017,-.0009,0.0*
1,1,.005,.0017,-.0009*
20,1,.005,.0017,-.0009,.0024,-.0039,0.0*
1,1,.005,.0024,-.0039*
20,1,.005,.0024,-.0039,.0034,-.0059,0.0*
1,1,.005,.0034,-.0059*
20,1,.005,.0034,-.0059,.0054,-.0078,0.0*
1,1,.005,.0054,-.0078*
20,1,.005,.0054,-.0078,.0077,-.0091,0.0*
1,1,.005,.0077,-.0091*
20,1,.005,.0077,-.0091,.0099,-.0098,0.0*
1,1,.005,.0099,-.0098*
20,1,.005,.0099,-.0098,.0122,-.0098,0.0*
1,1,.005,.0122,-.0098*
20,1,.005,.0122,-.0098,.0145,-.0091,0.0*
1,1,.005,.0145,-.0091*
20,1,.005,.0145,-.0091,.0165,-.0082,0.0*
1,1,.005,.0165,-.0082*
20,1,.005,.0165,-.0082,.0182,-.0068,0.0*
1,1,.005,.0182,-.0068*
%
%ADD17MACRO17*%
%AMMACRO26*
1,1,.005,-.02165,.0197*
20,1,.005,-.02165,.0197,.02165,.0197,0.0*
1,1,.005,.02165,.0197*
20,1,.005,.02165,.0197,.025071,.019401,0.0*
1,1,.005,.025071,.019401*
20,1,.005,.025071,.019401,.028388,.018512,0.0*
1,1,.005,.028388,.018512*
20,1,.005,.028388,.018512,.0315,.017061,0.0*
1,1,.005,.0315,.017061*
20,1,.005,.0315,.017061,.034313,.015091,0.0*
1,1,.005,.034313,.015091*
20,1,.005,.034313,.015091,.036741,.012663,0.0*
1,1,.005,.036741,.012663*
20,1,.005,.036741,.012663,.038711,.00985,0.0*
1,1,.005,.038711,.00985*
20,1,.005,.038711,.00985,.040162,.006738,0.0*
1,1,.005,.040162,.006738*
20,1,.005,.040162,.006738,.041051,.003421,0.0*
1,1,.005,.041051,.003421*
20,1,.005,.041051,.003421,.04135,0.0,0.0*
1,1,.005,.04135,0.0*
20,1,.005,.04135,0.0,.041051,-.003421,0.0*
1,1,.005,.041051,-.003421*
20,1,.005,.041051,-.003421,.040162,-.006738,0.0*
1,1,.005,.040162,-.006738*
20,1,.005,.040162,-.006738,.038711,-.00985,0.0*
1,1,.005,.038711,-.00985*
20,1,.005,.038711,-.00985,.036741,-.012663,0.0*
1,1,.005,.036741,-.012663*
20,1,.005,.036741,-.012663,.034313,-.015091,0.0*
1,1,.005,.034313,-.015091*
20,1,.005,.034313,-.015091,.0315,-.017061,0.0*
1,1,.005,.0315,-.017061*
20,1,.005,.0315,-.017061,.028388,-.018512,0.0*
1,1,.005,.028388,-.018512*
20,1,.005,.028388,-.018512,.025071,-.019401,0.0*
1,1,.005,.025071,-.019401*
20,1,.005,.025071,-.019401,.02165,-.0197,0.0*
1,1,.005,.02165,-.0197*
20,1,.005,.02165,-.0197,-.02165,-.0197,0.0*
1,1,.005,-.02165,-.0197*
20,1,.005,-.02165,-.0197,-.025071,-.019401,0.0*
1,1,.005,-.025071,-.019401*
20,1,.005,-.025071,-.019401,-.028388,-.018512,0.0*
1,1,.005,-.028388,-.018512*
20,1,.005,-.028388,-.018512,-.0315,-.017061,0.0*
1,1,.005,-.0315,-.017061*
20,1,.005,-.0315,-.017061,-.034313,-.015091,0.0*
1,1,.005,-.034313,-.015091*
20,1,.005,-.034313,-.015091,-.036741,-.012663,0.0*
1,1,.005,-.036741,-.012663*
20,1,.005,-.036741,-.012663,-.038711,-.00985,0.0*
1,1,.005,-.038711,-.00985*
20,1,.005,-.038711,-.00985,-.040162,-.006738,0.0*
1,1,.005,-.040162,-.006738*
20,1,.005,-.040162,-.006738,-.041051,-.003421,0.0*
1,1,.005,-.041051,-.003421*
20,1,.005,-.041051,-.003421,-.04135,0.0,0.0*
1,1,.005,-.04135,0.0*
20,1,.005,-.04135,0.0,-.041051,.003421,0.0*
1,1,.005,-.041051,.003421*
20,1,.005,-.041051,.003421,-.040162,.006738,0.0*
1,1,.005,-.040162,.006738*
20,1,.005,-.040162,.006738,-.038711,.00985,0.0*
1,1,.005,-.038711,.00985*
20,1,.005,-.038711,.00985,-.036741,.012663,0.0*
1,1,.005,-.036741,.012663*
20,1,.005,-.036741,.012663,-.034313,.015091,0.0*
1,1,.005,-.034313,.015091*
20,1,.005,-.034313,.015091,-.0315,.017061,0.0*
1,1,.005,-.0315,.017061*
20,1,.005,-.0315,.017061,-.028388,.018512,0.0*
1,1,.005,-.028388,.018512*
20,1,.005,-.028388,.018512,-.025071,.019401,0.0*
1,1,.005,-.025071,.019401*
20,1,.005,-.025071,.019401,-.02165,.0197,0.0*
1,1,.005,-.02165,.0197*
1,1,.005,-.0099,-.0098*
20,1,.005,-.0099,-.0098,-.0125,-.0095,0.0*
1,1,.005,-.0125,-.0095*
20,1,.005,-.0125,-.0095,-.0148,-.0082,0.0*
1,1,.005,-.0148,-.0082*
20,1,.005,-.0148,-.0082,-.0167,-.0062,0.0*
1,1,.005,-.0167,-.0062*
20,1,.005,-.0167,-.0062,-.0181,-.0039,0.0*
1,1,.005,-.0181,-.0039*
20,1,.005,-.0181,-.0039,-.0187,-.0013,0.0*
1,1,.005,-.0187,-.0013*
20,1,.005,-.0187,-.0013,-.0187,.0014,0.0*
1,1,.005,-.0187,.0014*
20,1,.005,-.0187,.0014,-.0181,.004,0.0*
1,1,.005,-.0181,.004*
20,1,.005,-.0181,.004,-.0167,.0063,0.0*
1,1,.005,-.0167,.0063*
20,1,.005,-.0167,.0063,-.0148,.0083,0.0*
1,1,.005,-.0148,.0083*
20,1,.005,-.0148,.0083,-.0125,.0096,0.0*
1,1,.005,-.0125,.0096*
20,1,.005,-.0125,.0096,-.0099,.0099,0.0*
1,1,.005,-.0099,.0099*
20,1,.005,-.0099,.0099,-.0072,.0096,0.0*
1,1,.005,-.0072,.0096*
20,1,.005,-.0072,.0096,-.0049,.0083,0.0*
1,1,.005,-.0049,.0083*
20,1,.005,-.0049,.0083,-.003,.0063,0.0*
1,1,.005,-.003,.0063*
20,1,.005,-.003,.0063,-.0016,.004,0.0*
1,1,.005,-.0016,.004*
20,1,.005,-.0016,.004,-.001,.0014,0.0*
1,1,.005,-.001,.0014*
20,1,.005,-.001,.0014,-.001,-.0013,0.0*
1,1,.005,-.001,-.0013*
20,1,.005,-.001,-.0013,-.0016,-.0039,0.0*
1,1,.005,-.0016,-.0039*
20,1,.005,-.0016,-.0039,-.003,-.0062,0.0*
1,1,.005,-.003,-.0062*
20,1,.005,-.003,-.0062,-.0049,-.0082,0.0*
1,1,.005,-.0049,-.0082*
20,1,.005,-.0049,-.0082,-.0072,-.0095,0.0*
1,1,.005,-.0072,-.0095*
20,1,.005,-.0072,-.0095,-.0099,-.0098,0.0*
1,1,.005,-.0099,-.0098*
1,1,.005,.0172,.0083*
20,1,.005,.0172,.0083,.0152,.0092,0.0*
1,1,.005,.0152,.0092*
20,1,.005,.0152,.0092,.0129,.0099,0.0*
1,1,.005,.0129,.0099*
20,1,.005,.0129,.0099,.0103,.0099,0.0*
1,1,.005,.0103,.0099*
20,1,.005,.0103,.0099,.0073,.0089,0.0*
1,1,.005,.0073,.0089*
20,1,.005,.0073,.0089,.005,.0073,0.0*
1,1,.005,.005,.0073*
20,1,.005,.005,.0073,.0034,.0053,0.0*
1,1,.005,.0034,.0053*
20,1,.005,.0034,.0053,.0021,.002,0.0*
1,1,.005,.0021,.002*
20,1,.005,.0021,.002,.0017,-.0009,0.0*
1,1,.005,.0017,-.0009*
20,1,.005,.0017,-.0009,.0024,-.0039,0.0*
1,1,.005,.0024,-.0039*
20,1,.005,.0024,-.0039,.0034,-.0059,0.0*
1,1,.005,.0034,-.0059*
20,1,.005,.0034,-.0059,.0054,-.0078,0.0*
1,1,.005,.0054,-.0078*
20,1,.005,.0054,-.0078,.0077,-.0091,0.0*
1,1,.005,.0077,-.0091*
20,1,.005,.0077,-.0091,.0099,-.0098,0.0*
1,1,.005,.0099,-.0098*
20,1,.005,.0099,-.0098,.0122,-.0098,0.0*
1,1,.005,.0122,-.0098*
20,1,.005,.0122,-.0098,.0145,-.0091,0.0*
1,1,.005,.0145,-.0091*
20,1,.005,.0145,-.0091,.0165,-.0082,0.0*
1,1,.005,.0165,-.0082*
20,1,.005,.0165,-.0082,.0182,-.0068,0.0*
1,1,.005,.0182,-.0068*
%
%ADD26MACRO26*%
%ADD30C,.002*%
%ADD31C,.005*%
%ADD32C,.015*%
G75*
%LPD*%
G75*
G54D10*
X6000Y38990D03*
Y28990D03*
Y58990D03*
Y48990D03*
Y78990D03*
Y68990D03*
Y98990D03*
Y88990D03*
X6010Y119000D03*
X6000Y108990D03*
X6010Y129000D03*
X16000Y38990D03*
Y48990D03*
Y78990D03*
Y68990D03*
Y98990D03*
X16010Y119000D03*
X26010D03*
X16000Y108990D03*
X16010Y129000D03*
X50990Y370000D03*
Y380000D03*
X40990D03*
X60990Y370000D03*
Y380000D03*
X96000Y275160D03*
X129890Y122010D03*
Y112170D03*
Y131850D03*
X154840Y87000D03*
X139890Y122010D03*
X149890D03*
X139890Y112170D03*
X149890D03*
X139890Y131850D03*
X149890D03*
X159890Y122010D03*
Y112170D03*
Y131850D03*
X192890Y122010D03*
Y112170D03*
Y131850D03*
X192000Y372500D03*
X217840Y87000D03*
X202890Y122010D03*
X212890D03*
X202890Y112170D03*
X212890D03*
X202890Y131850D03*
X212890D03*
X212000Y372500D03*
Y362500D03*
X202000Y372500D03*
Y362500D03*
X222890Y122010D03*
Y112170D03*
Y131850D03*
X232000Y372500D03*
Y362500D03*
X222000Y372500D03*
Y362500D03*
X255900Y122010D03*
Y112170D03*
Y131850D03*
X252000Y372500D03*
Y362500D03*
X242000Y372500D03*
Y362500D03*
X280840Y87000D03*
X265900Y122010D03*
X275900D03*
X265900Y112170D03*
X275900D03*
X265900Y131850D03*
X275900D03*
X272000Y372500D03*
Y362500D03*
X262000Y372500D03*
Y362500D03*
X285900Y122010D03*
Y112170D03*
Y131850D03*
X302000Y372500D03*
Y362500D03*
X292000Y372500D03*
Y362500D03*
X282000Y372500D03*
Y362500D03*
X319000Y122010D03*
Y112170D03*
Y131850D03*
X322000Y372500D03*
Y362500D03*
X312000Y372500D03*
Y362500D03*
X329000Y122010D03*
X339000D03*
X329000Y112170D03*
X339000D03*
X329000Y131850D03*
X339000D03*
X342000Y372500D03*
Y362500D03*
X332000Y372500D03*
Y362500D03*
X343840Y87000D03*
X349000Y122010D03*
Y112170D03*
Y131850D03*
X362000Y372500D03*
Y362500D03*
X352000Y372500D03*
Y362500D03*
X381890Y122010D03*
Y112170D03*
Y131850D03*
X382000Y372500D03*
Y362500D03*
X372000Y372500D03*
Y362500D03*
X391890Y122010D03*
X401890D03*
X391890Y112170D03*
X401890D03*
X391890Y131850D03*
X401890D03*
X406840Y87000D03*
X411890Y122010D03*
Y112170D03*
Y131850D03*
X661800Y235850D03*
G54D11*
X8440Y143000D03*
Y150870D03*
X9130Y337560D03*
Y357560D03*
Y377560D03*
X28440Y143000D03*
Y150870D03*
X17000Y337560D03*
X24870D03*
X17000Y357560D03*
X24870D03*
X17000Y377560D03*
X24870D03*
X48000Y121440D03*
X40130D03*
X63560Y23870D03*
Y16000D03*
Y8130D03*
X55870Y121440D03*
X83560Y23870D03*
Y16000D03*
Y8130D03*
X75190Y377560D03*
X83060D03*
X90940D03*
X103560Y23870D03*
Y16000D03*
Y8130D03*
X98810Y377560D03*
X124130Y150560D03*
X132000D03*
X139870D03*
X147130Y377560D03*
X155000D03*
X162870D03*
X187130Y150560D03*
X195000D03*
X202870D03*
X382940Y326440D03*
X375060D03*
X367190D03*
X390810D03*
X437690Y348060D03*
X445560D03*
X462440Y9250D03*
Y17130D03*
Y25000D03*
Y32870D03*
Y40750D03*
X453440Y348060D03*
X461310D03*
X522370Y210190D03*
Y225940D03*
Y218060D03*
Y233810D03*
Y290940D03*
Y283060D03*
Y275190D03*
Y298810D03*
Y355940D03*
Y348060D03*
Y340190D03*
Y363810D03*
X661800Y306710D03*
G54D20*
X113160Y379750D03*
X118080D03*
X123000D03*
X127920D03*
X132840D03*
X661800Y324430D03*
G54D30*
G01X655670Y352000D02*
Y354000D01*
X656930D01*
G01X656470Y353030D02*
X655670D01*
G01X658100Y354000D02*
X658900D01*
G01X658500D02*
Y352000D01*
G01X658100D02*
X658900D01*
G01X660900Y353000D02*
X661570D01*
Y352400D01*
X661370Y352200D01*
X661130Y352070D01*
X660800Y352000D01*
X660470Y352070D01*
X660230Y352200D01*
X660030Y352400D01*
X659900Y352630D01*
X659830Y352900D01*
Y353130D01*
X659900Y353330D01*
X660030Y353570D01*
X660230Y353770D01*
X660430Y353900D01*
X660700Y354000D01*
X660930D01*
X661200Y353930D01*
X661400Y353800D01*
G01X662170Y354000D02*
Y352570D01*
X662300Y352270D01*
X662570Y352070D01*
X662900Y352000D01*
X663230Y352070D01*
X663500Y352270D01*
X663630Y352570D01*
Y354000D01*
G01X664430Y352000D02*
Y354000D01*
X665270D01*
X665530Y353900D01*
X665700Y353770D01*
X665770Y353500D01*
X665700Y353230D01*
X665500Y353070D01*
X665270Y352970D01*
X664430D01*
G01X665270D02*
X665770Y352000D01*
G01X667970D02*
X666630D01*
Y354000D01*
X667970D01*
G01X667430Y353030D02*
X666630D01*
G01X673470Y352000D02*
Y354000D01*
X674730D01*
G01X674270Y353030D02*
X673470D01*
G01X675900Y354000D02*
X676700D01*
G01X676300D02*
Y352000D01*
G01X675900D02*
X676700D01*
G01X677730D02*
Y354000D01*
X679270Y352000D01*
Y354000D01*
G01X680300D02*
X681100D01*
G01X680700D02*
Y352000D01*
G01X680300D02*
X681100D01*
G01X682200Y352270D02*
X682470Y352100D01*
X682770Y352000D01*
X683030D01*
X683300Y352100D01*
X683500Y352270D01*
X683600Y352500D01*
X683530Y352730D01*
X683370Y352930D01*
X683070Y353070D01*
X682670Y353130D01*
X682430Y353270D01*
X682330Y353500D01*
X682400Y353730D01*
X682570Y353900D01*
X682800Y354000D01*
X683030D01*
X683270Y353930D01*
X683470Y353770D01*
G01X684400Y352000D02*
Y354000D01*
G01X685800D02*
Y352000D01*
G01Y353000D02*
X684400D01*
G01X687970Y352000D02*
X686630D01*
Y354000D01*
X687970D01*
G01X687430Y353030D02*
X686630D01*
G01X688770Y352000D02*
Y354000D01*
X689430D01*
X689700Y353900D01*
X689900Y353770D01*
X690070Y353570D01*
X690200Y353330D01*
X690230Y353000D01*
X690200Y352670D01*
X690070Y352430D01*
X689900Y352230D01*
X689700Y352100D01*
X689430Y352000D01*
X688770D01*
G01X690700Y351330D02*
X692700D01*
G01X693200Y352270D02*
X693470Y352100D01*
X693770Y352000D01*
X694030D01*
X694300Y352100D01*
X694500Y352270D01*
X694600Y352500D01*
X694530Y352730D01*
X694370Y352930D01*
X694070Y353070D01*
X693670Y353130D01*
X693430Y353270D01*
X693330Y353500D01*
X693400Y353730D01*
X693570Y353900D01*
X693800Y354000D01*
X694030D01*
X694270Y353930D01*
X694470Y353770D01*
G01X695700Y354000D02*
X696500D01*
G01X696100D02*
Y352000D01*
G01X695700D02*
X696500D01*
G01X697670Y354000D02*
X698930D01*
X697670Y352000D01*
X698930D01*
G01X701170D02*
X699830D01*
Y354000D01*
X701170D01*
G01X700630Y353030D02*
X699830D01*
G01X678500Y4560D02*
X678730Y4590D01*
X679000Y4690D01*
X679170Y4860D01*
X679230Y5090D01*
X679170Y5330D01*
X678970Y5530D01*
X678670Y5630D01*
X678330D01*
X678130Y5690D01*
X677970Y5860D01*
X677900Y6090D01*
X678000Y6330D01*
X678230Y6490D01*
X678500Y6560D01*
X678770Y6490D01*
X679000Y6330D01*
X679100Y6090D01*
X679030Y5860D01*
X678870Y5690D01*
X678670Y5630D01*
X678330D01*
X678030Y5530D01*
X677830Y5330D01*
X677770Y5090D01*
X677830Y4860D01*
X678000Y4690D01*
X678270Y4590D01*
X678500Y4560D01*
G01X680070Y6230D02*
X680270Y6430D01*
X680500Y6530D01*
X680770Y6560D01*
X681100Y6490D01*
X681330Y6330D01*
X681400Y6130D01*
X681370Y5930D01*
X681230Y5760D01*
X680570Y5430D01*
X680270Y5190D01*
X680070Y4860D01*
X680000Y4560D01*
X681400D01*
G01X682900Y4490D02*
X682830Y4530D01*
Y4590D01*
X682900Y4630D01*
X682970Y4590D01*
Y4530D01*
X682900Y4490D01*
G01X685030Y4560D02*
X685100Y4990D01*
X685200Y5360D01*
X685330Y5690D01*
X685500Y6060D01*
X685770Y6560D01*
X684430D01*
G01X686800Y5890D02*
X687800Y4560D01*
G01Y5890D02*
X686800Y4560D01*
G01X688770Y4960D02*
X688970Y4730D01*
X689230Y4590D01*
X689530Y4560D01*
X689800Y4590D01*
X690070Y4760D01*
X690230Y4960D01*
X690270Y5160D01*
X690200Y5390D01*
X689970Y5560D01*
X689730Y5630D01*
X689430D01*
G01X689730D02*
X689930Y5730D01*
X690100Y5890D01*
X690170Y6090D01*
X690100Y6290D01*
X689930Y6460D01*
X689630Y6560D01*
X689330Y6530D01*
X689030Y6390D01*
G01X691130Y4790D02*
X691370Y4630D01*
X691630Y4560D01*
X691900Y4630D01*
X692130Y4830D01*
X692300Y5130D01*
X692370Y5430D01*
Y5790D01*
X692300Y6090D01*
X692130Y6360D01*
X691930Y6490D01*
X691700Y6560D01*
X691430Y6490D01*
X691230Y6360D01*
X691100Y6160D01*
X691030Y5890D01*
X691100Y5660D01*
X691270Y5430D01*
X691470Y5290D01*
X691700Y5260D01*
X691970Y5330D01*
X692170Y5490D01*
X692370Y5790D01*
G01X693900Y4490D02*
X693830Y4530D01*
Y4590D01*
X693900Y4630D01*
X693970Y4590D01*
Y4530D01*
X693900Y4490D01*
G01X696500Y4560D02*
Y6560D01*
X695270Y5130D01*
X696930D01*
G01X677870Y40820D02*
X678100Y41060D01*
X678300Y41190D01*
X678570Y41260D01*
X678800Y41190D01*
X678970Y41060D01*
X679100Y40860D01*
X679130Y40620D01*
X679100Y40420D01*
X678970Y40220D01*
X678770Y40060D01*
X678530Y39990D01*
X678270Y40060D01*
X678030Y40260D01*
X677900Y40560D01*
X677870Y40890D01*
X677930Y41320D01*
X678030Y41560D01*
X678200Y41790D01*
X678430Y41960D01*
X678670Y41990D01*
X678900Y41920D01*
X679070Y41760D01*
G01X680070Y40820D02*
X680300Y41060D01*
X680500Y41190D01*
X680770Y41260D01*
X681000Y41190D01*
X681170Y41060D01*
X681300Y40860D01*
X681330Y40620D01*
X681300Y40420D01*
X681170Y40220D01*
X680970Y40060D01*
X680730Y39990D01*
X680470Y40060D01*
X680230Y40260D01*
X680100Y40560D01*
X680070Y40890D01*
X680130Y41320D01*
X680230Y41560D01*
X680400Y41790D01*
X680630Y41960D01*
X680870Y41990D01*
X681100Y41920D01*
X681270Y41760D01*
G01X682900Y39920D02*
X682830Y39960D01*
Y40020D01*
X682900Y40060D01*
X682970Y40020D01*
Y39960D01*
X682900Y39920D01*
G01X684530Y40220D02*
X684770Y40060D01*
X685030Y39990D01*
X685300Y40060D01*
X685530Y40260D01*
X685700Y40560D01*
X685770Y40860D01*
Y41220D01*
X685700Y41520D01*
X685530Y41790D01*
X685330Y41920D01*
X685100Y41990D01*
X684830Y41920D01*
X684630Y41790D01*
X684500Y41590D01*
X684430Y41320D01*
X684500Y41090D01*
X684670Y40860D01*
X684870Y40720D01*
X685100Y40690D01*
X685370Y40760D01*
X685570Y40920D01*
X685770Y41220D01*
G01X686800Y41320D02*
X687800Y39990D01*
G01Y41320D02*
X686800Y39990D01*
G01X688870Y41660D02*
X689070Y41860D01*
X689300Y41960D01*
X689570Y41990D01*
X689900Y41920D01*
X690130Y41760D01*
X690200Y41560D01*
X690170Y41360D01*
X690030Y41190D01*
X689370Y40860D01*
X689070Y40620D01*
X688870Y40290D01*
X688800Y39990D01*
X690200D01*
G01X690970Y40390D02*
X691170Y40160D01*
X691430Y40020D01*
X691730Y39990D01*
X692000Y40020D01*
X692270Y40190D01*
X692430Y40390D01*
X692470Y40590D01*
X692400Y40820D01*
X692170Y40990D01*
X691930Y41060D01*
X691630D01*
G01X691930D02*
X692130Y41160D01*
X692300Y41320D01*
X692370Y41520D01*
X692300Y41720D01*
X692130Y41890D01*
X691830Y41990D01*
X691530Y41960D01*
X691230Y41820D01*
G01X693900Y39920D02*
X693830Y39960D01*
Y40020D01*
X693900Y40060D01*
X693970Y40020D01*
Y39960D01*
X693900Y39920D01*
G01X695470Y40820D02*
X695700Y41060D01*
X695900Y41190D01*
X696170Y41260D01*
X696400Y41190D01*
X696570Y41060D01*
X696700Y40860D01*
X696730Y40620D01*
X696700Y40420D01*
X696570Y40220D01*
X696370Y40060D01*
X696130Y39990D01*
X695870Y40060D01*
X695630Y40260D01*
X695500Y40560D01*
X695470Y40890D01*
X695530Y41320D01*
X695630Y41560D01*
X695800Y41790D01*
X696030Y41960D01*
X696270Y41990D01*
X696500Y41920D01*
X696670Y41760D01*
G01X678500Y22270D02*
X678730Y22300D01*
X679000Y22400D01*
X679170Y22570D01*
X679230Y22800D01*
X679170Y23040D01*
X678970Y23240D01*
X678670Y23340D01*
X678330D01*
X678130Y23400D01*
X677970Y23570D01*
X677900Y23800D01*
X678000Y24040D01*
X678230Y24200D01*
X678500Y24270D01*
X678770Y24200D01*
X679000Y24040D01*
X679100Y23800D01*
X679030Y23570D01*
X678870Y23400D01*
X678670Y23340D01*
X678330D01*
X678030Y23240D01*
X677830Y23040D01*
X677770Y22800D01*
X677830Y22570D01*
X678000Y22400D01*
X678270Y22300D01*
X678500Y22270D01*
G01X680070Y23940D02*
X680270Y24140D01*
X680500Y24240D01*
X680770Y24270D01*
X681100Y24200D01*
X681330Y24040D01*
X681400Y23840D01*
X681370Y23640D01*
X681230Y23470D01*
X680570Y23140D01*
X680270Y22900D01*
X680070Y22570D01*
X680000Y22270D01*
X681400D01*
G01X682900Y22200D02*
X682830Y22240D01*
Y22300D01*
X682900Y22340D01*
X682970Y22300D01*
Y22240D01*
X682900Y22200D01*
G01X685030Y22270D02*
X685100Y22700D01*
X685200Y23070D01*
X685330Y23400D01*
X685500Y23770D01*
X685770Y24270D01*
X684430D01*
G01X686800Y23600D02*
X687800Y22270D01*
G01Y23600D02*
X686800Y22270D01*
G01X688770Y22670D02*
X688970Y22440D01*
X689230Y22300D01*
X689530Y22270D01*
X689800Y22300D01*
X690070Y22470D01*
X690230Y22670D01*
X690270Y22870D01*
X690200Y23100D01*
X689970Y23270D01*
X689730Y23340D01*
X689430D01*
G01X689730D02*
X689930Y23440D01*
X690100Y23600D01*
X690170Y23800D01*
X690100Y24000D01*
X689930Y24170D01*
X689630Y24270D01*
X689330Y24240D01*
X689030Y24100D01*
G01X691130Y22500D02*
X691370Y22340D01*
X691630Y22270D01*
X691900Y22340D01*
X692130Y22540D01*
X692300Y22840D01*
X692370Y23140D01*
Y23500D01*
X692300Y23800D01*
X692130Y24070D01*
X691930Y24200D01*
X691700Y24270D01*
X691430Y24200D01*
X691230Y24070D01*
X691100Y23870D01*
X691030Y23600D01*
X691100Y23370D01*
X691270Y23140D01*
X691470Y23000D01*
X691700Y22970D01*
X691970Y23040D01*
X692170Y23200D01*
X692370Y23500D01*
G01X693900Y22200D02*
X693830Y22240D01*
Y22300D01*
X693900Y22340D01*
X693970Y22300D01*
Y22240D01*
X693900Y22200D01*
G01X696500Y22270D02*
Y24270D01*
X695270Y22840D01*
X696930D01*
G01X677770Y58000D02*
X677970Y57830D01*
X678200Y57730D01*
X678500Y57700D01*
X678800Y57770D01*
X679030Y57900D01*
X679200Y58130D01*
X679230Y58400D01*
X679170Y58670D01*
X679000Y58830D01*
X678770Y58970D01*
X678530Y59000D01*
X678300Y58970D01*
X678000Y58830D01*
X678100Y59700D01*
X679000D01*
G01X680700Y57700D02*
Y59700D01*
X680300Y59300D01*
G01Y57700D02*
X681100D01*
G01X682900Y57630D02*
X682830Y57670D01*
Y57730D01*
X682900Y57770D01*
X682970Y57730D01*
Y57670D01*
X682900Y57630D01*
G01X684470Y59370D02*
X684670Y59570D01*
X684900Y59670D01*
X685170Y59700D01*
X685500Y59630D01*
X685730Y59470D01*
X685800Y59270D01*
X685770Y59070D01*
X685630Y58900D01*
X684970Y58570D01*
X684670Y58330D01*
X684470Y58000D01*
X684400Y57700D01*
X685800D01*
G01X686800Y59030D02*
X687800Y57700D01*
G01Y59030D02*
X686800Y57700D01*
G01X688870Y59370D02*
X689070Y59570D01*
X689300Y59670D01*
X689570Y59700D01*
X689900Y59630D01*
X690130Y59470D01*
X690200Y59270D01*
X690170Y59070D01*
X690030Y58900D01*
X689370Y58570D01*
X689070Y58330D01*
X688870Y58000D01*
X688800Y57700D01*
X690200D01*
G01X690970Y58100D02*
X691170Y57870D01*
X691430Y57730D01*
X691730Y57700D01*
X692000Y57730D01*
X692270Y57900D01*
X692430Y58100D01*
X692470Y58300D01*
X692400Y58530D01*
X692170Y58700D01*
X691930Y58770D01*
X691630D01*
G01X691930D02*
X692130Y58870D01*
X692300Y59030D01*
X692370Y59230D01*
X692300Y59430D01*
X692130Y59600D01*
X691830Y59700D01*
X691530Y59670D01*
X691230Y59530D01*
G01X693900Y57630D02*
X693830Y57670D01*
Y57730D01*
X693900Y57770D01*
X693970Y57730D01*
Y57670D01*
X693900Y57630D01*
G01X695470Y58530D02*
X695700Y58770D01*
X695900Y58900D01*
X696170Y58970D01*
X696400Y58900D01*
X696570Y58770D01*
X696700Y58570D01*
X696730Y58330D01*
X696700Y58130D01*
X696570Y57930D01*
X696370Y57770D01*
X696130Y57700D01*
X695870Y57770D01*
X695630Y57970D01*
X695500Y58270D01*
X695470Y58600D01*
X695530Y59030D01*
X695630Y59270D01*
X695800Y59500D01*
X696030Y59670D01*
X696270Y59700D01*
X696500Y59630D01*
X696670Y59470D01*
G01X683370Y77090D02*
X683570Y77290D01*
X683800Y77390D01*
X684070Y77420D01*
X684400Y77350D01*
X684630Y77190D01*
X684700Y76990D01*
X684670Y76790D01*
X684530Y76620D01*
X683870Y76290D01*
X683570Y76050D01*
X683370Y75720D01*
X683300Y75420D01*
X684700D01*
G01X686130D02*
X686200Y75850D01*
X686300Y76220D01*
X686430Y76550D01*
X686600Y76920D01*
X686870Y77420D01*
X685530D01*
G01X688400Y75350D02*
X688330Y75390D01*
Y75450D01*
X688400Y75490D01*
X688470Y75450D01*
Y75390D01*
X688400Y75350D01*
G01X689970Y76250D02*
X690200Y76490D01*
X690400Y76620D01*
X690670Y76690D01*
X690900Y76620D01*
X691070Y76490D01*
X691200Y76290D01*
X691230Y76050D01*
X691200Y75850D01*
X691070Y75650D01*
X690870Y75490D01*
X690630Y75420D01*
X690370Y75490D01*
X690130Y75690D01*
X690000Y75990D01*
X689970Y76320D01*
X690030Y76750D01*
X690130Y76990D01*
X690300Y77220D01*
X690530Y77390D01*
X690770Y77420D01*
X691000Y77350D01*
X691170Y77190D01*
G01X683370Y94800D02*
X683570Y95000D01*
X683800Y95100D01*
X684070Y95130D01*
X684400Y95060D01*
X684630Y94900D01*
X684700Y94700D01*
X684670Y94500D01*
X684530Y94330D01*
X683870Y94000D01*
X683570Y93760D01*
X683370Y93430D01*
X683300Y93130D01*
X684700D01*
G01X685470Y93430D02*
X685670Y93260D01*
X685900Y93160D01*
X686200Y93130D01*
X686500Y93200D01*
X686730Y93330D01*
X686900Y93560D01*
X686930Y93830D01*
X686870Y94100D01*
X686700Y94260D01*
X686470Y94400D01*
X686230Y94430D01*
X686000Y94400D01*
X685700Y94260D01*
X685800Y95130D01*
X686700D01*
G01X688400Y93060D02*
X688330Y93100D01*
Y93160D01*
X688400Y93200D01*
X688470Y93160D01*
Y93100D01*
X688400Y93060D01*
G01X689970Y93960D02*
X690200Y94200D01*
X690400Y94330D01*
X690670Y94400D01*
X690900Y94330D01*
X691070Y94200D01*
X691200Y94000D01*
X691230Y93760D01*
X691200Y93560D01*
X691070Y93360D01*
X690870Y93200D01*
X690630Y93130D01*
X690370Y93200D01*
X690130Y93400D01*
X690000Y93700D01*
X689970Y94030D01*
X690030Y94460D01*
X690130Y94700D01*
X690300Y94930D01*
X690530Y95100D01*
X690770Y95130D01*
X691000Y95060D01*
X691170Y94900D01*
G01X682900Y110850D02*
Y112850D01*
X682500Y112450D01*
G01Y110850D02*
X683300D01*
G01X685100D02*
Y112850D01*
X684700Y112450D01*
G01Y110850D02*
X685500D01*
G01X687300D02*
X687530Y110880D01*
X687800Y110980D01*
X687970Y111150D01*
X688030Y111380D01*
X687970Y111620D01*
X687770Y111820D01*
X687470Y111920D01*
X687130D01*
X686930Y111980D01*
X686770Y112150D01*
X686700Y112380D01*
X686800Y112620D01*
X687030Y112780D01*
X687300Y112850D01*
X687570Y112780D01*
X687800Y112620D01*
X687900Y112380D01*
X687830Y112150D01*
X687670Y111980D01*
X687470Y111920D01*
X687130D01*
X686830Y111820D01*
X686630Y111620D01*
X686570Y111380D01*
X686630Y111150D01*
X686800Y110980D01*
X687070Y110880D01*
X687300Y110850D01*
G01X689500Y110780D02*
X689430Y110820D01*
Y110880D01*
X689500Y110920D01*
X689570Y110880D01*
Y110820D01*
X689500Y110780D01*
G01X691700Y110850D02*
Y112850D01*
X691300Y112450D01*
G01Y110850D02*
X692100D01*
G01X683370Y147110D02*
X683600Y147350D01*
X683800Y147480D01*
X684070Y147550D01*
X684300Y147480D01*
X684470Y147350D01*
X684600Y147150D01*
X684630Y146910D01*
X684600Y146710D01*
X684470Y146510D01*
X684270Y146350D01*
X684030Y146280D01*
X683770Y146350D01*
X683530Y146550D01*
X683400Y146850D01*
X683370Y147180D01*
X683430Y147610D01*
X683530Y147850D01*
X683700Y148080D01*
X683930Y148250D01*
X684170Y148280D01*
X684400Y148210D01*
X684570Y148050D01*
G01X686200Y146280D02*
X686430Y146310D01*
X686700Y146410D01*
X686870Y146580D01*
X686930Y146810D01*
X686870Y147050D01*
X686670Y147250D01*
X686370Y147350D01*
X686030D01*
X685830Y147410D01*
X685670Y147580D01*
X685600Y147810D01*
X685700Y148050D01*
X685930Y148210D01*
X686200Y148280D01*
X686470Y148210D01*
X686700Y148050D01*
X686800Y147810D01*
X686730Y147580D01*
X686570Y147410D01*
X686370Y147350D01*
X686030D01*
X685730Y147250D01*
X685530Y147050D01*
X685470Y146810D01*
X685530Y146580D01*
X685700Y146410D01*
X685970Y146310D01*
X686200Y146280D01*
G01X688400Y146210D02*
X688330Y146250D01*
Y146310D01*
X688400Y146350D01*
X688470Y146310D01*
Y146250D01*
X688400Y146210D01*
G01X690030Y146510D02*
X690270Y146350D01*
X690530Y146280D01*
X690800Y146350D01*
X691030Y146550D01*
X691200Y146850D01*
X691270Y147150D01*
Y147510D01*
X691200Y147810D01*
X691030Y148080D01*
X690830Y148210D01*
X690600Y148280D01*
X690330Y148210D01*
X690130Y148080D01*
X690000Y147880D01*
X689930Y147610D01*
X690000Y147380D01*
X690170Y147150D01*
X690370Y147010D01*
X690600Y146980D01*
X690870Y147050D01*
X691070Y147210D01*
X691270Y147510D01*
G01X684000Y128560D02*
X684230Y128590D01*
X684500Y128690D01*
X684670Y128860D01*
X684730Y129090D01*
X684670Y129330D01*
X684470Y129530D01*
X684170Y129630D01*
X683830D01*
X683630Y129690D01*
X683470Y129860D01*
X683400Y130090D01*
X683500Y130330D01*
X683730Y130490D01*
X684000Y130560D01*
X684270Y130490D01*
X684500Y130330D01*
X684600Y130090D01*
X684530Y129860D01*
X684370Y129690D01*
X684170Y129630D01*
X683830D01*
X683530Y129530D01*
X683330Y129330D01*
X683270Y129090D01*
X683330Y128860D01*
X683500Y128690D01*
X683770Y128590D01*
X684000Y128560D01*
G01X686200D02*
X686430Y128590D01*
X686700Y128690D01*
X686870Y128860D01*
X686930Y129090D01*
X686870Y129330D01*
X686670Y129530D01*
X686370Y129630D01*
X686030D01*
X685830Y129690D01*
X685670Y129860D01*
X685600Y130090D01*
X685700Y130330D01*
X685930Y130490D01*
X686200Y130560D01*
X686470Y130490D01*
X686700Y130330D01*
X686800Y130090D01*
X686730Y129860D01*
X686570Y129690D01*
X686370Y129630D01*
X686030D01*
X685730Y129530D01*
X685530Y129330D01*
X685470Y129090D01*
X685530Y128860D01*
X685700Y128690D01*
X685970Y128590D01*
X686200Y128560D01*
G01X688400Y128490D02*
X688330Y128530D01*
Y128590D01*
X688400Y128630D01*
X688470Y128590D01*
Y128530D01*
X688400Y128490D01*
G01X689970Y130230D02*
X690170Y130430D01*
X690400Y130530D01*
X690670Y130560D01*
X691000Y130490D01*
X691230Y130330D01*
X691300Y130130D01*
X691270Y129930D01*
X691130Y129760D01*
X690470Y129430D01*
X690170Y129190D01*
X689970Y128860D01*
X689900Y128560D01*
X691300D01*
G01X683370Y164820D02*
X683600Y165060D01*
X683800Y165190D01*
X684070Y165260D01*
X684300Y165190D01*
X684470Y165060D01*
X684600Y164860D01*
X684630Y164620D01*
X684600Y164420D01*
X684470Y164220D01*
X684270Y164060D01*
X684030Y163990D01*
X683770Y164060D01*
X683530Y164260D01*
X683400Y164560D01*
X683370Y164890D01*
X683430Y165320D01*
X683530Y165560D01*
X683700Y165790D01*
X683930Y165960D01*
X684170Y165990D01*
X684400Y165920D01*
X684570Y165760D01*
G01X686200Y163990D02*
X686430Y164020D01*
X686700Y164120D01*
X686870Y164290D01*
X686930Y164520D01*
X686870Y164760D01*
X686670Y164960D01*
X686370Y165060D01*
X686030D01*
X685830Y165120D01*
X685670Y165290D01*
X685600Y165520D01*
X685700Y165760D01*
X685930Y165920D01*
X686200Y165990D01*
X686470Y165920D01*
X686700Y165760D01*
X686800Y165520D01*
X686730Y165290D01*
X686570Y165120D01*
X686370Y165060D01*
X686030D01*
X685730Y164960D01*
X685530Y164760D01*
X685470Y164520D01*
X685530Y164290D01*
X685700Y164120D01*
X685970Y164020D01*
X686200Y163990D01*
G01X688400Y163920D02*
X688330Y163960D01*
Y164020D01*
X688400Y164060D01*
X688470Y164020D01*
Y163960D01*
X688400Y163920D01*
G01X690030Y164220D02*
X690270Y164060D01*
X690530Y163990D01*
X690800Y164060D01*
X691030Y164260D01*
X691200Y164560D01*
X691270Y164860D01*
Y165220D01*
X691200Y165520D01*
X691030Y165790D01*
X690830Y165920D01*
X690600Y165990D01*
X690330Y165920D01*
X690130Y165790D01*
X690000Y165590D01*
X689930Y165320D01*
X690000Y165090D01*
X690170Y164860D01*
X690370Y164720D01*
X690600Y164690D01*
X690870Y164760D01*
X691070Y164920D01*
X691270Y165220D01*
G01X683370Y182540D02*
X683600Y182780D01*
X683800Y182910D01*
X684070Y182980D01*
X684300Y182910D01*
X684470Y182780D01*
X684600Y182580D01*
X684630Y182340D01*
X684600Y182140D01*
X684470Y181940D01*
X684270Y181780D01*
X684030Y181710D01*
X683770Y181780D01*
X683530Y181980D01*
X683400Y182280D01*
X683370Y182610D01*
X683430Y183040D01*
X683530Y183280D01*
X683700Y183510D01*
X683930Y183680D01*
X684170Y183710D01*
X684400Y183640D01*
X684570Y183480D01*
G01X685470Y182010D02*
X685670Y181840D01*
X685900Y181740D01*
X686200Y181710D01*
X686500Y181780D01*
X686730Y181910D01*
X686900Y182140D01*
X686930Y182410D01*
X686870Y182680D01*
X686700Y182840D01*
X686470Y182980D01*
X686230Y183010D01*
X686000Y182980D01*
X685700Y182840D01*
X685800Y183710D01*
X686700D01*
G01X688400Y181640D02*
X688330Y181680D01*
Y181740D01*
X688400Y181780D01*
X688470Y181740D01*
Y181680D01*
X688400Y181640D01*
G01X690600Y183710D02*
X690330Y183640D01*
X690130Y183480D01*
X690000Y183280D01*
X689900Y183010D01*
X689870Y182710D01*
X689900Y182410D01*
X690000Y182140D01*
X690130Y181940D01*
X690330Y181780D01*
X690600Y181710D01*
X690870Y181780D01*
X691070Y181940D01*
X691200Y182140D01*
X691300Y182410D01*
X691330Y182710D01*
X691300Y183010D01*
X691200Y183280D01*
X691070Y183480D01*
X690870Y183640D01*
X690600Y183710D01*
G01X684400Y199420D02*
Y201420D01*
X683170Y199990D01*
X684830D01*
G01X685470Y199820D02*
X685670Y199590D01*
X685930Y199450D01*
X686230Y199420D01*
X686500Y199450D01*
X686770Y199620D01*
X686930Y199820D01*
X686970Y200020D01*
X686900Y200250D01*
X686670Y200420D01*
X686430Y200490D01*
X686130D01*
G01X686430D02*
X686630Y200590D01*
X686800Y200750D01*
X686870Y200950D01*
X686800Y201150D01*
X686630Y201320D01*
X686330Y201420D01*
X686030Y201390D01*
X685730Y201250D01*
G01X688400Y199350D02*
X688330Y199390D01*
Y199450D01*
X688400Y199490D01*
X688470Y199450D01*
Y199390D01*
X688400Y199350D01*
G01X689870Y199820D02*
X690070Y199590D01*
X690330Y199450D01*
X690630Y199420D01*
X690900Y199450D01*
X691170Y199620D01*
X691330Y199820D01*
X691370Y200020D01*
X691300Y200250D01*
X691070Y200420D01*
X690830Y200490D01*
X690530D01*
G01X690830D02*
X691030Y200590D01*
X691200Y200750D01*
X691270Y200950D01*
X691200Y201150D01*
X691030Y201320D01*
X690730Y201420D01*
X690430Y201390D01*
X690130Y201250D01*
G01X684400Y217140D02*
Y219140D01*
X683170Y217710D01*
X684830D01*
G01X686200Y219140D02*
X685930Y219070D01*
X685730Y218910D01*
X685600Y218710D01*
X685500Y218440D01*
X685470Y218140D01*
X685500Y217840D01*
X685600Y217570D01*
X685730Y217370D01*
X685930Y217210D01*
X686200Y217140D01*
X686470Y217210D01*
X686670Y217370D01*
X686800Y217570D01*
X686900Y217840D01*
X686930Y218140D01*
X686900Y218440D01*
X686800Y218710D01*
X686670Y218910D01*
X686470Y219070D01*
X686200Y219140D01*
G01X688400Y217070D02*
X688330Y217110D01*
Y217170D01*
X688400Y217210D01*
X688470Y217170D01*
Y217110D01*
X688400Y217070D01*
G01X690030Y217370D02*
X690270Y217210D01*
X690530Y217140D01*
X690800Y217210D01*
X691030Y217410D01*
X691200Y217710D01*
X691270Y218010D01*
Y218370D01*
X691200Y218670D01*
X691030Y218940D01*
X690830Y219070D01*
X690600Y219140D01*
X690330Y219070D01*
X690130Y218940D01*
X690000Y218740D01*
X689930Y218470D01*
X690000Y218240D01*
X690170Y218010D01*
X690370Y217870D01*
X690600Y217840D01*
X690870Y217910D01*
X691070Y218070D01*
X691270Y218370D01*
G01X683270Y235250D02*
X683470Y235020D01*
X683730Y234880D01*
X684030Y234850D01*
X684300Y234880D01*
X684570Y235050D01*
X684730Y235250D01*
X684770Y235450D01*
X684700Y235680D01*
X684470Y235850D01*
X684230Y235920D01*
X683930D01*
G01X684230D02*
X684430Y236020D01*
X684600Y236180D01*
X684670Y236380D01*
X684600Y236580D01*
X684430Y236750D01*
X684130Y236850D01*
X683830Y236820D01*
X683530Y236680D01*
G01X685630Y235080D02*
X685870Y234920D01*
X686130Y234850D01*
X686400Y234920D01*
X686630Y235120D01*
X686800Y235420D01*
X686870Y235720D01*
Y236080D01*
X686800Y236380D01*
X686630Y236650D01*
X686430Y236780D01*
X686200Y236850D01*
X685930Y236780D01*
X685730Y236650D01*
X685600Y236450D01*
X685530Y236180D01*
X685600Y235950D01*
X685770Y235720D01*
X685970Y235580D01*
X686200Y235550D01*
X686470Y235620D01*
X686670Y235780D01*
X686870Y236080D01*
G01X688400Y234780D02*
X688330Y234820D01*
Y234880D01*
X688400Y234920D01*
X688470Y234880D01*
Y234820D01*
X688400Y234780D01*
G01X691000Y234850D02*
Y236850D01*
X689770Y235420D01*
X691430D01*
G01X683270Y270680D02*
X683470Y270450D01*
X683730Y270310D01*
X684030Y270280D01*
X684300Y270310D01*
X684570Y270480D01*
X684730Y270680D01*
X684770Y270880D01*
X684700Y271110D01*
X684470Y271280D01*
X684230Y271350D01*
X683930D01*
G01X684230D02*
X684430Y271450D01*
X684600Y271610D01*
X684670Y271810D01*
X684600Y272010D01*
X684430Y272180D01*
X684130Y272280D01*
X683830Y272250D01*
X683530Y272110D01*
G01X686130Y270280D02*
X686200Y270710D01*
X686300Y271080D01*
X686430Y271410D01*
X686600Y271780D01*
X686870Y272280D01*
X685530D01*
G01X688400Y270210D02*
X688330Y270250D01*
Y270310D01*
X688400Y270350D01*
X688470Y270310D01*
Y270250D01*
X688400Y270210D01*
G01X691000Y270280D02*
Y272280D01*
X689770Y270850D01*
X691430D01*
G01X683270Y252970D02*
X683470Y252740D01*
X683730Y252600D01*
X684030Y252570D01*
X684300Y252600D01*
X684570Y252770D01*
X684730Y252970D01*
X684770Y253170D01*
X684700Y253400D01*
X684470Y253570D01*
X684230Y253640D01*
X683930D01*
G01X684230D02*
X684430Y253740D01*
X684600Y253900D01*
X684670Y254100D01*
X684600Y254300D01*
X684430Y254470D01*
X684130Y254570D01*
X683830Y254540D01*
X683530Y254400D01*
G01X685630Y252800D02*
X685870Y252640D01*
X686130Y252570D01*
X686400Y252640D01*
X686630Y252840D01*
X686800Y253140D01*
X686870Y253440D01*
Y253800D01*
X686800Y254100D01*
X686630Y254370D01*
X686430Y254500D01*
X686200Y254570D01*
X685930Y254500D01*
X685730Y254370D01*
X685600Y254170D01*
X685530Y253900D01*
X685600Y253670D01*
X685770Y253440D01*
X685970Y253300D01*
X686200Y253270D01*
X686470Y253340D01*
X686670Y253500D01*
X686870Y253800D01*
G01X688400Y252500D02*
X688330Y252540D01*
Y252600D01*
X688400Y252640D01*
X688470Y252600D01*
Y252540D01*
X688400Y252500D01*
G01X691000Y252570D02*
Y254570D01*
X689770Y253140D01*
X691430D01*
G01X683270Y288400D02*
X683470Y288170D01*
X683730Y288030D01*
X684030Y288000D01*
X684300Y288030D01*
X684570Y288200D01*
X684730Y288400D01*
X684770Y288600D01*
X684700Y288830D01*
X684470Y289000D01*
X684230Y289070D01*
X683930D01*
G01X684230D02*
X684430Y289170D01*
X684600Y289330D01*
X684670Y289530D01*
X684600Y289730D01*
X684430Y289900D01*
X684130Y290000D01*
X683830Y289970D01*
X683530Y289830D01*
G01X685470Y288300D02*
X685670Y288130D01*
X685900Y288030D01*
X686200Y288000D01*
X686500Y288070D01*
X686730Y288200D01*
X686900Y288430D01*
X686930Y288700D01*
X686870Y288970D01*
X686700Y289130D01*
X686470Y289270D01*
X686230Y289300D01*
X686000Y289270D01*
X685700Y289130D01*
X685800Y290000D01*
X686700D01*
G01X688400Y287930D02*
X688330Y287970D01*
Y288030D01*
X688400Y288070D01*
X688470Y288030D01*
Y287970D01*
X688400Y287930D01*
G01X691000Y288000D02*
Y290000D01*
X689770Y288570D01*
X691430D01*
G01X683270Y306110D02*
X683470Y305880D01*
X683730Y305740D01*
X684030Y305710D01*
X684300Y305740D01*
X684570Y305910D01*
X684730Y306110D01*
X684770Y306310D01*
X684700Y306540D01*
X684470Y306710D01*
X684230Y306780D01*
X683930D01*
G01X684230D02*
X684430Y306880D01*
X684600Y307040D01*
X684670Y307240D01*
X684600Y307440D01*
X684430Y307610D01*
X684130Y307710D01*
X683830Y307680D01*
X683530Y307540D01*
G01X686200Y305710D02*
Y307710D01*
X685800Y307310D01*
G01Y305710D02*
X686600D01*
G01X688400Y305640D02*
X688330Y305680D01*
Y305740D01*
X688400Y305780D01*
X688470Y305740D01*
Y305680D01*
X688400Y305640D01*
G01X689870Y306010D02*
X690070Y305840D01*
X690300Y305740D01*
X690600Y305710D01*
X690900Y305780D01*
X691130Y305910D01*
X691300Y306140D01*
X691330Y306410D01*
X691270Y306680D01*
X691100Y306840D01*
X690870Y306980D01*
X690630Y307010D01*
X690400Y306980D01*
X690100Y306840D01*
X690200Y307710D01*
X691100D01*
G01X683370Y325100D02*
X683570Y325300D01*
X683800Y325400D01*
X684070Y325430D01*
X684400Y325360D01*
X684630Y325200D01*
X684700Y325000D01*
X684670Y324800D01*
X684530Y324630D01*
X683870Y324300D01*
X683570Y324060D01*
X683370Y323730D01*
X683300Y323430D01*
X684700D01*
G01X686200D02*
Y325430D01*
X685800Y325030D01*
G01Y323430D02*
X686600D01*
G01X688400Y323360D02*
X688330Y323400D01*
Y323460D01*
X688400Y323500D01*
X688470Y323460D01*
Y323400D01*
X688400Y323360D01*
G01X690530Y323430D02*
X690600Y323860D01*
X690700Y324230D01*
X690830Y324560D01*
X691000Y324930D01*
X691270Y325430D01*
X689930D01*
G01X684000Y341140D02*
Y343140D01*
X683600Y342740D01*
G01Y341140D02*
X684400D01*
G01X686200Y343140D02*
X685930Y343070D01*
X685730Y342910D01*
X685600Y342710D01*
X685500Y342440D01*
X685470Y342140D01*
X685500Y341840D01*
X685600Y341570D01*
X685730Y341370D01*
X685930Y341210D01*
X686200Y341140D01*
X686470Y341210D01*
X686670Y341370D01*
X686800Y341570D01*
X686900Y341840D01*
X686930Y342140D01*
X686900Y342440D01*
X686800Y342710D01*
X686670Y342910D01*
X686470Y343070D01*
X686200Y343140D01*
G01X688400Y341070D02*
X688330Y341110D01*
Y341170D01*
X688400Y341210D01*
X688470Y341170D01*
Y341110D01*
X688400Y341070D01*
G01X690600Y343140D02*
X690330Y343070D01*
X690130Y342910D01*
X690000Y342710D01*
X689900Y342440D01*
X689870Y342140D01*
X689900Y341840D01*
X690000Y341570D01*
X690130Y341370D01*
X690330Y341210D01*
X690600Y341140D01*
X690870Y341210D01*
X691070Y341370D01*
X691200Y341570D01*
X691300Y341840D01*
X691330Y342140D01*
X691300Y342440D01*
X691200Y342710D01*
X691070Y342910D01*
X690870Y343070D01*
X690600Y343140D01*
G01X685570Y356000D02*
X686400Y358000D01*
X687230Y356000D01*
G01X686930Y356700D02*
X685870D01*
G01X687930Y358000D02*
Y356000D01*
X689270D01*
G01X690130Y358000D02*
Y356000D01*
X691470D01*
G01X694470Y358000D02*
Y356570D01*
X694600Y356270D01*
X694870Y356070D01*
X695200Y356000D01*
X695530Y356070D01*
X695800Y356270D01*
X695930Y356570D01*
Y358000D01*
G01X696630Y356000D02*
Y358000D01*
X698170Y356000D01*
Y358000D01*
G01X699200D02*
X700000D01*
G01X699600D02*
Y356000D01*
G01X699200D02*
X700000D01*
G01X701800Y358000D02*
Y356000D01*
G01X701030Y358000D02*
X702570D01*
G01X703300Y356270D02*
X703570Y356100D01*
X703870Y356000D01*
X704130D01*
X704400Y356100D01*
X704600Y356270D01*
X704700Y356500D01*
X704630Y356730D01*
X704470Y356930D01*
X704170Y357070D01*
X703770Y357130D01*
X703530Y357270D01*
X703430Y357500D01*
X703500Y357730D01*
X703670Y357900D01*
X703900Y358000D01*
X704130D01*
X704370Y357930D01*
X704570Y357770D01*
G01X707570Y356000D02*
X708400Y358000D01*
X709230Y356000D01*
G01X708930Y356700D02*
X707870D01*
G01X709930Y356000D02*
Y358000D01*
X710770D01*
X711030Y357900D01*
X711200Y357770D01*
X711270Y357500D01*
X711200Y357230D01*
X711000Y357070D01*
X710770Y356970D01*
X709930D01*
G01X710770D02*
X711270Y356000D01*
G01X713470D02*
X712130D01*
Y358000D01*
X713470D01*
G01X712930Y357030D02*
X712130D01*
G01X716800Y358000D02*
X717600D01*
G01X717200D02*
Y356000D01*
G01X716800D02*
X717600D01*
G01X718630D02*
Y358000D01*
X720170Y356000D01*
Y358000D01*
G01X722930Y356000D02*
Y358000D01*
X723800Y356330D01*
X724670Y358000D01*
Y356000D01*
G01X725600Y358000D02*
X726400D01*
G01X726000D02*
Y356000D01*
G01X725600D02*
X726400D01*
G01X727530Y358000D02*
Y356000D01*
X728870D01*
G01X729700Y356270D02*
X729970Y356100D01*
X730270Y356000D01*
X730530D01*
X730800Y356100D01*
X731000Y356270D01*
X731100Y356500D01*
X731030Y356730D01*
X730870Y356930D01*
X730570Y357070D01*
X730170Y357130D01*
X729930Y357270D01*
X729830Y357500D01*
X729900Y357730D01*
X730070Y357900D01*
X730300Y358000D01*
X730530D01*
X730770Y357930D01*
X730970Y357770D01*
G01X680170Y381000D02*
Y383000D01*
X680830D01*
X681100Y382900D01*
X681300Y382770D01*
X681470Y382570D01*
X681600Y382330D01*
X681630Y382000D01*
X681600Y381670D01*
X681470Y381430D01*
X681300Y381230D01*
X681100Y381100D01*
X680830Y381000D01*
X680170D01*
G01X682430D02*
Y383000D01*
X683270D01*
X683530Y382900D01*
X683700Y382770D01*
X683770Y382500D01*
X683700Y382230D01*
X683500Y382070D01*
X683270Y381970D01*
X682430D01*
G01X683270D02*
X683770Y381000D01*
G01X684900Y383000D02*
X685700D01*
G01X685300D02*
Y381000D01*
G01X684900D02*
X685700D01*
G01X686830Y383000D02*
Y381000D01*
X688170D01*
G01X689030Y383000D02*
Y381000D01*
X690370D01*
G01X694830Y382830D02*
X694630Y382930D01*
X694400Y383000D01*
X694130D01*
X693830Y382900D01*
X693600Y382730D01*
X693430Y382530D01*
X693300Y382200D01*
X693270Y381900D01*
X693330Y381600D01*
X693430Y381400D01*
X693630Y381200D01*
X693870Y381070D01*
X694100Y381000D01*
X694330D01*
X694570Y381070D01*
X694770Y381170D01*
X694930Y381300D01*
G01X695600Y381000D02*
Y383000D01*
G01X697000D02*
Y381000D01*
G01Y382000D02*
X695600D01*
G01X697670Y381000D02*
X698500Y383000D01*
X699330Y381000D01*
G01X699030Y381700D02*
X697970D01*
G01X700030Y381000D02*
Y383000D01*
X700870D01*
X701130Y382900D01*
X701300Y382770D01*
X701370Y382500D01*
X701300Y382230D01*
X701100Y382070D01*
X700870Y381970D01*
X700030D01*
G01X700870D02*
X701370Y381000D01*
G01X702900Y383000D02*
Y381000D01*
G01X702130Y383000D02*
X703670D01*
G01X705100Y380930D02*
X705030Y380970D01*
Y381030D01*
X705100Y381070D01*
X705170Y381030D01*
Y380970D01*
X705100Y380930D01*
G01Y381830D02*
X705030Y381870D01*
Y381930D01*
X705100Y381970D01*
X705170Y381930D01*
Y381870D01*
X705100Y381830D01*
G01X709500Y383000D02*
Y381000D01*
G01X708730Y383000D02*
X710270D01*
G01X711700Y381000D02*
X711430Y381030D01*
X711200Y381170D01*
X711000Y381370D01*
X710870Y381600D01*
X710800Y381870D01*
Y382130D01*
X710870Y382400D01*
X711000Y382630D01*
X711200Y382830D01*
X711430Y382970D01*
X711700Y383000D01*
X711970Y382970D01*
X712200Y382830D01*
X712400Y382630D01*
X712530Y382400D01*
X712600Y382130D01*
Y381870D01*
X712530Y381600D01*
X712400Y381370D01*
X712200Y381170D01*
X711970Y381030D01*
X711700Y381000D01*
G01X713230D02*
Y383000D01*
X714030D01*
X714300Y382900D01*
X714500Y382670D01*
X714570Y382400D01*
X714500Y382130D01*
X714330Y381930D01*
X714030Y381830D01*
X713230D01*
G01X718300Y383000D02*
Y381000D01*
G01X717830Y382330D02*
X718770D01*
G01X720500Y381000D02*
X720300Y381030D01*
X720100Y381170D01*
X719970Y381400D01*
X719900Y381670D01*
X719970Y381930D01*
X720100Y382170D01*
X720300Y382300D01*
X720500Y382330D01*
X720700Y382300D01*
X720900Y382170D01*
X721030Y381930D01*
X721070Y381670D01*
X721030Y381400D01*
X720900Y381170D01*
X720700Y381030D01*
X720500Y381000D01*
G01X725170Y382070D02*
X725300Y382170D01*
X725400Y382330D01*
X725470Y382570D01*
X725400Y382770D01*
X725270Y382900D01*
X725030Y383000D01*
X724130D01*
Y381000D01*
X725230D01*
X725470Y381130D01*
X725600Y381330D01*
X725670Y381570D01*
X725600Y381800D01*
X725400Y382000D01*
X725170Y382070D01*
X724130D01*
G01X727100Y381000D02*
X726830Y381030D01*
X726600Y381170D01*
X726400Y381370D01*
X726270Y381600D01*
X726200Y381870D01*
Y382130D01*
X726270Y382400D01*
X726400Y382630D01*
X726600Y382830D01*
X726830Y382970D01*
X727100Y383000D01*
X727370Y382970D01*
X727600Y382830D01*
X727800Y382630D01*
X727930Y382400D01*
X728000Y382130D01*
Y381870D01*
X727930Y381600D01*
X727800Y381370D01*
X727600Y381170D01*
X727370Y381030D01*
X727100Y381000D01*
G01X729300Y383000D02*
Y381000D01*
G01X728530Y383000D02*
X730070D01*
G01X731500D02*
Y381000D01*
G01X730730Y383000D02*
X732270D01*
G01X733700Y381000D02*
X733430Y381030D01*
X733200Y381170D01*
X733000Y381370D01*
X732870Y381600D01*
X732800Y381870D01*
Y382130D01*
X732870Y382400D01*
X733000Y382630D01*
X733200Y382830D01*
X733430Y382970D01*
X733700Y383000D01*
X733970Y382970D01*
X734200Y382830D01*
X734400Y382630D01*
X734530Y382400D01*
X734600Y382130D01*
Y381870D01*
X734530Y381600D01*
X734400Y381370D01*
X734200Y381170D01*
X733970Y381030D01*
X733700Y381000D01*
G01X735030D02*
Y383000D01*
X735900Y381330D01*
X736770Y383000D01*
Y381000D01*
G01X711700Y6560D02*
X711430Y6490D01*
X711230Y6330D01*
X711100Y6130D01*
X711000Y5860D01*
X710970Y5560D01*
X711000Y5260D01*
X711100Y4990D01*
X711230Y4790D01*
X711430Y4630D01*
X711700Y4560D01*
X711970Y4630D01*
X712170Y4790D01*
X712300Y4990D01*
X712400Y5260D01*
X712430Y5560D01*
X712400Y5860D01*
X712300Y6130D01*
X712170Y6330D01*
X711970Y6490D01*
X711700Y6560D01*
G01X713900Y4490D02*
X713830Y4530D01*
Y4590D01*
X713900Y4630D01*
X713970Y4590D01*
Y4530D01*
X713900Y4490D01*
G01X716100Y6560D02*
X715830Y6490D01*
X715630Y6330D01*
X715500Y6130D01*
X715400Y5860D01*
X715370Y5560D01*
X715400Y5260D01*
X715500Y4990D01*
X715630Y4790D01*
X715830Y4630D01*
X716100Y4560D01*
X716370Y4630D01*
X716570Y4790D01*
X716700Y4990D01*
X716800Y5260D01*
X716830Y5560D01*
X716800Y5860D01*
X716700Y6130D01*
X716570Y6330D01*
X716370Y6490D01*
X716100Y6560D01*
G01X718300D02*
X718030Y6490D01*
X717830Y6330D01*
X717700Y6130D01*
X717600Y5860D01*
X717570Y5560D01*
X717600Y5260D01*
X717700Y4990D01*
X717830Y4790D01*
X718030Y4630D01*
X718300Y4560D01*
X718570Y4630D01*
X718770Y4790D01*
X718900Y4990D01*
X719000Y5260D01*
X719030Y5560D01*
X719000Y5860D01*
X718900Y6130D01*
X718770Y6330D01*
X718570Y6490D01*
X718300Y6560D01*
G01X720500D02*
X720230Y6490D01*
X720030Y6330D01*
X719900Y6130D01*
X719800Y5860D01*
X719770Y5560D01*
X719800Y5260D01*
X719900Y4990D01*
X720030Y4790D01*
X720230Y4630D01*
X720500Y4560D01*
X720770Y4630D01*
X720970Y4790D01*
X721100Y4990D01*
X721200Y5260D01*
X721230Y5560D01*
X721200Y5860D01*
X721100Y6130D01*
X720970Y6330D01*
X720770Y6490D01*
X720500Y6560D01*
G01X710030Y40220D02*
X710270Y40060D01*
X710530Y39990D01*
X710800Y40060D01*
X711030Y40260D01*
X711200Y40560D01*
X711270Y40860D01*
Y41220D01*
X711200Y41520D01*
X711030Y41790D01*
X710830Y41920D01*
X710600Y41990D01*
X710330Y41920D01*
X710130Y41790D01*
X710000Y41590D01*
X709930Y41320D01*
X710000Y41090D01*
X710170Y40860D01*
X710370Y40720D01*
X710600Y40690D01*
X710870Y40760D01*
X711070Y40920D01*
X711270Y41220D01*
G01X712800Y41990D02*
X712530Y41920D01*
X712330Y41760D01*
X712200Y41560D01*
X712100Y41290D01*
X712070Y40990D01*
X712100Y40690D01*
X712200Y40420D01*
X712330Y40220D01*
X712530Y40060D01*
X712800Y39990D01*
X713070Y40060D01*
X713270Y40220D01*
X713400Y40420D01*
X713500Y40690D01*
X713530Y40990D01*
X713500Y41290D01*
X713400Y41560D01*
X713270Y41760D01*
X713070Y41920D01*
X712800Y41990D01*
G01X715000Y39920D02*
X714930Y39960D01*
Y40020D01*
X715000Y40060D01*
X715070Y40020D01*
Y39960D01*
X715000Y39920D01*
G01X717200Y41990D02*
X716930Y41920D01*
X716730Y41760D01*
X716600Y41560D01*
X716500Y41290D01*
X716470Y40990D01*
X716500Y40690D01*
X716600Y40420D01*
X716730Y40220D01*
X716930Y40060D01*
X717200Y39990D01*
X717470Y40060D01*
X717670Y40220D01*
X717800Y40420D01*
X717900Y40690D01*
X717930Y40990D01*
X717900Y41290D01*
X717800Y41560D01*
X717670Y41760D01*
X717470Y41920D01*
X717200Y41990D01*
G01X719400D02*
X719130Y41920D01*
X718930Y41760D01*
X718800Y41560D01*
X718700Y41290D01*
X718670Y40990D01*
X718700Y40690D01*
X718800Y40420D01*
X718930Y40220D01*
X719130Y40060D01*
X719400Y39990D01*
X719670Y40060D01*
X719870Y40220D01*
X720000Y40420D01*
X720100Y40690D01*
X720130Y40990D01*
X720100Y41290D01*
X720000Y41560D01*
X719870Y41760D01*
X719670Y41920D01*
X719400Y41990D01*
G01X721600D02*
X721330Y41920D01*
X721130Y41760D01*
X721000Y41560D01*
X720900Y41290D01*
X720870Y40990D01*
X720900Y40690D01*
X721000Y40420D01*
X721130Y40220D01*
X721330Y40060D01*
X721600Y39990D01*
X721870Y40060D01*
X722070Y40220D01*
X722200Y40420D01*
X722300Y40690D01*
X722330Y40990D01*
X722300Y41290D01*
X722200Y41560D01*
X722070Y41760D01*
X721870Y41920D01*
X721600Y41990D01*
G01X710030Y22500D02*
X710270Y22340D01*
X710530Y22270D01*
X710800Y22340D01*
X711030Y22540D01*
X711200Y22840D01*
X711270Y23140D01*
Y23500D01*
X711200Y23800D01*
X711030Y24070D01*
X710830Y24200D01*
X710600Y24270D01*
X710330Y24200D01*
X710130Y24070D01*
X710000Y23870D01*
X709930Y23600D01*
X710000Y23370D01*
X710170Y23140D01*
X710370Y23000D01*
X710600Y22970D01*
X710870Y23040D01*
X711070Y23200D01*
X711270Y23500D01*
G01X712800Y24270D02*
X712530Y24200D01*
X712330Y24040D01*
X712200Y23840D01*
X712100Y23570D01*
X712070Y23270D01*
X712100Y22970D01*
X712200Y22700D01*
X712330Y22500D01*
X712530Y22340D01*
X712800Y22270D01*
X713070Y22340D01*
X713270Y22500D01*
X713400Y22700D01*
X713500Y22970D01*
X713530Y23270D01*
X713500Y23570D01*
X713400Y23840D01*
X713270Y24040D01*
X713070Y24200D01*
X712800Y24270D01*
G01X715000Y22200D02*
X714930Y22240D01*
Y22300D01*
X715000Y22340D01*
X715070Y22300D01*
Y22240D01*
X715000Y22200D01*
G01X717200Y24270D02*
X716930Y24200D01*
X716730Y24040D01*
X716600Y23840D01*
X716500Y23570D01*
X716470Y23270D01*
X716500Y22970D01*
X716600Y22700D01*
X716730Y22500D01*
X716930Y22340D01*
X717200Y22270D01*
X717470Y22340D01*
X717670Y22500D01*
X717800Y22700D01*
X717900Y22970D01*
X717930Y23270D01*
X717900Y23570D01*
X717800Y23840D01*
X717670Y24040D01*
X717470Y24200D01*
X717200Y24270D01*
G01X719400D02*
X719130Y24200D01*
X718930Y24040D01*
X718800Y23840D01*
X718700Y23570D01*
X718670Y23270D01*
X718700Y22970D01*
X718800Y22700D01*
X718930Y22500D01*
X719130Y22340D01*
X719400Y22270D01*
X719670Y22340D01*
X719870Y22500D01*
X720000Y22700D01*
X720100Y22970D01*
X720130Y23270D01*
X720100Y23570D01*
X720000Y23840D01*
X719870Y24040D01*
X719670Y24200D01*
X719400Y24270D01*
G01X721600D02*
X721330Y24200D01*
X721130Y24040D01*
X721000Y23840D01*
X720900Y23570D01*
X720870Y23270D01*
X720900Y22970D01*
X721000Y22700D01*
X721130Y22500D01*
X721330Y22340D01*
X721600Y22270D01*
X721870Y22340D01*
X722070Y22500D01*
X722200Y22700D01*
X722300Y22970D01*
X722330Y23270D01*
X722300Y23570D01*
X722200Y23840D01*
X722070Y24040D01*
X721870Y24200D01*
X721600Y24270D01*
G01X710030Y57930D02*
X710270Y57770D01*
X710530Y57700D01*
X710800Y57770D01*
X711030Y57970D01*
X711200Y58270D01*
X711270Y58570D01*
Y58930D01*
X711200Y59230D01*
X711030Y59500D01*
X710830Y59630D01*
X710600Y59700D01*
X710330Y59630D01*
X710130Y59500D01*
X710000Y59300D01*
X709930Y59030D01*
X710000Y58800D01*
X710170Y58570D01*
X710370Y58430D01*
X710600Y58400D01*
X710870Y58470D01*
X711070Y58630D01*
X711270Y58930D01*
G01X712800Y59700D02*
X712530Y59630D01*
X712330Y59470D01*
X712200Y59270D01*
X712100Y59000D01*
X712070Y58700D01*
X712100Y58400D01*
X712200Y58130D01*
X712330Y57930D01*
X712530Y57770D01*
X712800Y57700D01*
X713070Y57770D01*
X713270Y57930D01*
X713400Y58130D01*
X713500Y58400D01*
X713530Y58700D01*
X713500Y59000D01*
X713400Y59270D01*
X713270Y59470D01*
X713070Y59630D01*
X712800Y59700D01*
G01X715000Y57630D02*
X714930Y57670D01*
Y57730D01*
X715000Y57770D01*
X715070Y57730D01*
Y57670D01*
X715000Y57630D01*
G01X717200Y59700D02*
X716930Y59630D01*
X716730Y59470D01*
X716600Y59270D01*
X716500Y59000D01*
X716470Y58700D01*
X716500Y58400D01*
X716600Y58130D01*
X716730Y57930D01*
X716930Y57770D01*
X717200Y57700D01*
X717470Y57770D01*
X717670Y57930D01*
X717800Y58130D01*
X717900Y58400D01*
X717930Y58700D01*
X717900Y59000D01*
X717800Y59270D01*
X717670Y59470D01*
X717470Y59630D01*
X717200Y59700D01*
G01X719400D02*
X719130Y59630D01*
X718930Y59470D01*
X718800Y59270D01*
X718700Y59000D01*
X718670Y58700D01*
X718700Y58400D01*
X718800Y58130D01*
X718930Y57930D01*
X719130Y57770D01*
X719400Y57700D01*
X719670Y57770D01*
X719870Y57930D01*
X720000Y58130D01*
X720100Y58400D01*
X720130Y58700D01*
X720100Y59000D01*
X720000Y59270D01*
X719870Y59470D01*
X719670Y59630D01*
X719400Y59700D01*
G01X721600D02*
X721330Y59630D01*
X721130Y59470D01*
X721000Y59270D01*
X720900Y59000D01*
X720870Y58700D01*
X720900Y58400D01*
X721000Y58130D01*
X721130Y57930D01*
X721330Y57770D01*
X721600Y57700D01*
X721870Y57770D01*
X722070Y57930D01*
X722200Y58130D01*
X722300Y58400D01*
X722330Y58700D01*
X722300Y59000D01*
X722200Y59270D01*
X722070Y59470D01*
X721870Y59630D01*
X721600Y59700D01*
G01X715670Y76090D02*
X716530D01*
G01X715670Y93800D02*
X716530D01*
G01X715670Y111520D02*
X716530D01*
G01X715670Y146950D02*
X716530D01*
G01X715670Y129230D02*
X716530D01*
G01X715670Y164660D02*
X716530D01*
G01X715670Y182380D02*
X716530D01*
G01X715670Y200090D02*
X716530D01*
G01X715670Y217810D02*
X716530D01*
G01X715670Y235520D02*
X716530D01*
G01X715670Y270950D02*
X716530D01*
G01X715670Y253240D02*
X716530D01*
G01X715670Y288670D02*
X716530D01*
G01X715670Y306380D02*
X716530D01*
G01X715670Y324100D02*
X716530D01*
G01X707730Y352000D02*
Y354000D01*
X708570D01*
X708830Y353900D01*
X709000Y353770D01*
X709070Y353500D01*
X709000Y353230D01*
X708800Y353070D01*
X708570Y352970D01*
X707730D01*
G01X708570D02*
X709070Y352000D01*
G01X710600D02*
X710330Y352030D01*
X710100Y352170D01*
X709900Y352370D01*
X709770Y352600D01*
X709700Y352870D01*
Y353130D01*
X709770Y353400D01*
X709900Y353630D01*
X710100Y353830D01*
X710330Y353970D01*
X710600Y354000D01*
X710870Y353970D01*
X711100Y353830D01*
X711300Y353630D01*
X711430Y353400D01*
X711500Y353130D01*
Y352870D01*
X711430Y352600D01*
X711300Y352370D01*
X711100Y352170D01*
X710870Y352030D01*
X710600Y352000D01*
G01X712800Y354000D02*
Y352000D01*
G01X712030Y354000D02*
X713570D01*
G01X714170Y352000D02*
X715000Y354000D01*
X715830Y352000D01*
G01X715530Y352700D02*
X714470D01*
G01X717200Y354000D02*
Y352000D01*
G01X716430Y354000D02*
X717970D01*
G01X719000D02*
X719800D01*
G01X719400D02*
Y352000D01*
G01X719000D02*
X719800D01*
G01X721600D02*
X721330Y352030D01*
X721100Y352170D01*
X720900Y352370D01*
X720770Y352600D01*
X720700Y352870D01*
Y353130D01*
X720770Y353400D01*
X720900Y353630D01*
X721100Y353830D01*
X721330Y353970D01*
X721600Y354000D01*
X721870Y353970D01*
X722100Y353830D01*
X722300Y353630D01*
X722430Y353400D01*
X722500Y353130D01*
Y352870D01*
X722430Y352600D01*
X722300Y352370D01*
X722100Y352170D01*
X721870Y352030D01*
X721600Y352000D01*
G01X723030D02*
Y354000D01*
X724570Y352000D01*
Y354000D01*
G01X715670Y341810D02*
X716530D01*
G01X732130Y4560D02*
Y6560D01*
X732930D01*
X733200Y6460D01*
X733400Y6230D01*
X733470Y5960D01*
X733400Y5690D01*
X733230Y5490D01*
X732930Y5390D01*
X732130D01*
G01X734330Y6560D02*
Y4560D01*
X735670D01*
G01X736370D02*
X737200Y6560D01*
X738030Y4560D01*
G01X737730Y5260D02*
X736670D01*
G01X739400Y6560D02*
Y4560D01*
G01X738630Y6560D02*
X740170D01*
G01X742270Y4560D02*
X740930D01*
Y6560D01*
X742270D01*
G01X741730Y5590D02*
X740930D01*
G01X743070Y4560D02*
Y6560D01*
X743730D01*
X744000Y6460D01*
X744200Y6330D01*
X744370Y6130D01*
X744500Y5890D01*
X744530Y5560D01*
X744500Y5230D01*
X744370Y4990D01*
X744200Y4790D01*
X744000Y4660D01*
X743730Y4560D01*
X743070D01*
G01X732130Y39990D02*
Y41990D01*
X732930D01*
X733200Y41890D01*
X733400Y41660D01*
X733470Y41390D01*
X733400Y41120D01*
X733230Y40920D01*
X732930Y40820D01*
X732130D01*
G01X734330Y41990D02*
Y39990D01*
X735670D01*
G01X736370D02*
X737200Y41990D01*
X738030Y39990D01*
G01X737730Y40690D02*
X736670D01*
G01X739400Y41990D02*
Y39990D01*
G01X738630Y41990D02*
X740170D01*
G01X742270Y39990D02*
X740930D01*
Y41990D01*
X742270D01*
G01X741730Y41020D02*
X740930D01*
G01X743070Y39990D02*
Y41990D01*
X743730D01*
X744000Y41890D01*
X744200Y41760D01*
X744370Y41560D01*
X744500Y41320D01*
X744530Y40990D01*
X744500Y40660D01*
X744370Y40420D01*
X744200Y40220D01*
X744000Y40090D01*
X743730Y39990D01*
X743070D01*
G01X732130Y22270D02*
Y24270D01*
X732930D01*
X733200Y24170D01*
X733400Y23940D01*
X733470Y23670D01*
X733400Y23400D01*
X733230Y23200D01*
X732930Y23100D01*
X732130D01*
G01X734330Y24270D02*
Y22270D01*
X735670D01*
G01X736370D02*
X737200Y24270D01*
X738030Y22270D01*
G01X737730Y22970D02*
X736670D01*
G01X739400Y24270D02*
Y22270D01*
G01X738630Y24270D02*
X740170D01*
G01X742270Y22270D02*
X740930D01*
Y24270D01*
X742270D01*
G01X741730Y23300D02*
X740930D01*
G01X743070Y22270D02*
Y24270D01*
X743730D01*
X744000Y24170D01*
X744200Y24040D01*
X744370Y23840D01*
X744500Y23600D01*
X744530Y23270D01*
X744500Y22940D01*
X744370Y22700D01*
X744200Y22500D01*
X744000Y22370D01*
X743730Y22270D01*
X743070D01*
G01X732130Y57700D02*
Y59700D01*
X732930D01*
X733200Y59600D01*
X733400Y59370D01*
X733470Y59100D01*
X733400Y58830D01*
X733230Y58630D01*
X732930Y58530D01*
X732130D01*
G01X734330Y59700D02*
Y57700D01*
X735670D01*
G01X736370D02*
X737200Y59700D01*
X738030Y57700D01*
G01X737730Y58400D02*
X736670D01*
G01X739400Y59700D02*
Y57700D01*
G01X738630Y59700D02*
X740170D01*
G01X742270Y57700D02*
X740930D01*
Y59700D01*
X742270D01*
G01X741730Y58730D02*
X740930D01*
G01X743070Y57700D02*
Y59700D01*
X743730D01*
X744000Y59600D01*
X744200Y59470D01*
X744370Y59270D01*
X744500Y59030D01*
X744530Y58700D01*
X744500Y58370D01*
X744370Y58130D01*
X744200Y57930D01*
X744000Y57800D01*
X743730Y57700D01*
X743070D01*
G01X727630Y75420D02*
Y77420D01*
X729170Y75420D01*
Y77420D01*
G01X730600Y75420D02*
X730330Y75450D01*
X730100Y75590D01*
X729900Y75790D01*
X729770Y76020D01*
X729700Y76290D01*
Y76550D01*
X729770Y76820D01*
X729900Y77050D01*
X730100Y77250D01*
X730330Y77390D01*
X730600Y77420D01*
X730870Y77390D01*
X731100Y77250D01*
X731300Y77050D01*
X731430Y76820D01*
X731500Y76550D01*
Y76290D01*
X731430Y76020D01*
X731300Y75790D01*
X731100Y75590D01*
X730870Y75450D01*
X730600Y75420D01*
G01X732030D02*
Y77420D01*
X733570Y75420D01*
Y77420D01*
G01X734570Y76090D02*
X735430D01*
G01X736530Y75420D02*
Y77420D01*
X737330D01*
X737600Y77320D01*
X737800Y77090D01*
X737870Y76820D01*
X737800Y76550D01*
X737630Y76350D01*
X737330Y76250D01*
X736530D01*
G01X738730Y77420D02*
Y75420D01*
X740070D01*
G01X740770D02*
X741600Y77420D01*
X742430Y75420D01*
G01X742130Y76120D02*
X741070D01*
G01X743800Y77420D02*
Y75420D01*
G01X743030Y77420D02*
X744570D01*
G01X746670Y75420D02*
X745330D01*
Y77420D01*
X746670D01*
G01X746130Y76450D02*
X745330D01*
G01X747470Y75420D02*
Y77420D01*
X748130D01*
X748400Y77320D01*
X748600Y77190D01*
X748770Y76990D01*
X748900Y76750D01*
X748930Y76420D01*
X748900Y76090D01*
X748770Y75850D01*
X748600Y75650D01*
X748400Y75520D01*
X748130Y75420D01*
X747470D01*
G01X727630Y93130D02*
Y95130D01*
X729170Y93130D01*
Y95130D01*
G01X730600Y93130D02*
X730330Y93160D01*
X730100Y93300D01*
X729900Y93500D01*
X729770Y93730D01*
X729700Y94000D01*
Y94260D01*
X729770Y94530D01*
X729900Y94760D01*
X730100Y94960D01*
X730330Y95100D01*
X730600Y95130D01*
X730870Y95100D01*
X731100Y94960D01*
X731300Y94760D01*
X731430Y94530D01*
X731500Y94260D01*
Y94000D01*
X731430Y93730D01*
X731300Y93500D01*
X731100Y93300D01*
X730870Y93160D01*
X730600Y93130D01*
G01X732030D02*
Y95130D01*
X733570Y93130D01*
Y95130D01*
G01X734570Y93800D02*
X735430D01*
G01X736530Y93130D02*
Y95130D01*
X737330D01*
X737600Y95030D01*
X737800Y94800D01*
X737870Y94530D01*
X737800Y94260D01*
X737630Y94060D01*
X737330Y93960D01*
X736530D01*
G01X738730Y95130D02*
Y93130D01*
X740070D01*
G01X740770D02*
X741600Y95130D01*
X742430Y93130D01*
G01X742130Y93830D02*
X741070D01*
G01X743800Y95130D02*
Y93130D01*
G01X743030Y95130D02*
X744570D01*
G01X746670Y93130D02*
X745330D01*
Y95130D01*
X746670D01*
G01X746130Y94160D02*
X745330D01*
G01X747470Y93130D02*
Y95130D01*
X748130D01*
X748400Y95030D01*
X748600Y94900D01*
X748770Y94700D01*
X748900Y94460D01*
X748930Y94130D01*
X748900Y93800D01*
X748770Y93560D01*
X748600Y93360D01*
X748400Y93230D01*
X748130Y93130D01*
X747470D01*
G01X732130Y110850D02*
Y112850D01*
X732930D01*
X733200Y112750D01*
X733400Y112520D01*
X733470Y112250D01*
X733400Y111980D01*
X733230Y111780D01*
X732930Y111680D01*
X732130D01*
G01X734330Y112850D02*
Y110850D01*
X735670D01*
G01X736370D02*
X737200Y112850D01*
X738030Y110850D01*
G01X737730Y111550D02*
X736670D01*
G01X739400Y112850D02*
Y110850D01*
G01X738630Y112850D02*
X740170D01*
G01X742270Y110850D02*
X740930D01*
Y112850D01*
X742270D01*
G01X741730Y111880D02*
X740930D01*
G01X743070Y110850D02*
Y112850D01*
X743730D01*
X744000Y112750D01*
X744200Y112620D01*
X744370Y112420D01*
X744500Y112180D01*
X744530Y111850D01*
X744500Y111520D01*
X744370Y111280D01*
X744200Y111080D01*
X744000Y110950D01*
X743730Y110850D01*
X743070D01*
G01X732130Y146280D02*
Y148280D01*
X732930D01*
X733200Y148180D01*
X733400Y147950D01*
X733470Y147680D01*
X733400Y147410D01*
X733230Y147210D01*
X732930Y147110D01*
X732130D01*
G01X734330Y148280D02*
Y146280D01*
X735670D01*
G01X736370D02*
X737200Y148280D01*
X738030Y146280D01*
G01X737730Y146980D02*
X736670D01*
G01X739400Y148280D02*
Y146280D01*
G01X738630Y148280D02*
X740170D01*
G01X742270Y146280D02*
X740930D01*
Y148280D01*
X742270D01*
G01X741730Y147310D02*
X740930D01*
G01X743070Y146280D02*
Y148280D01*
X743730D01*
X744000Y148180D01*
X744200Y148050D01*
X744370Y147850D01*
X744500Y147610D01*
X744530Y147280D01*
X744500Y146950D01*
X744370Y146710D01*
X744200Y146510D01*
X744000Y146380D01*
X743730Y146280D01*
X743070D01*
G01X732130Y128560D02*
Y130560D01*
X732930D01*
X733200Y130460D01*
X733400Y130230D01*
X733470Y129960D01*
X733400Y129690D01*
X733230Y129490D01*
X732930Y129390D01*
X732130D01*
G01X734330Y130560D02*
Y128560D01*
X735670D01*
G01X736370D02*
X737200Y130560D01*
X738030Y128560D01*
G01X737730Y129260D02*
X736670D01*
G01X739400Y130560D02*
Y128560D01*
G01X738630Y130560D02*
X740170D01*
G01X742270Y128560D02*
X740930D01*
Y130560D01*
X742270D01*
G01X741730Y129590D02*
X740930D01*
G01X743070Y128560D02*
Y130560D01*
X743730D01*
X744000Y130460D01*
X744200Y130330D01*
X744370Y130130D01*
X744500Y129890D01*
X744530Y129560D01*
X744500Y129230D01*
X744370Y128990D01*
X744200Y128790D01*
X744000Y128660D01*
X743730Y128560D01*
X743070D01*
G01X732130Y163990D02*
Y165990D01*
X732930D01*
X733200Y165890D01*
X733400Y165660D01*
X733470Y165390D01*
X733400Y165120D01*
X733230Y164920D01*
X732930Y164820D01*
X732130D01*
G01X734330Y165990D02*
Y163990D01*
X735670D01*
G01X736370D02*
X737200Y165990D01*
X738030Y163990D01*
G01X737730Y164690D02*
X736670D01*
G01X739400Y165990D02*
Y163990D01*
G01X738630Y165990D02*
X740170D01*
G01X742270Y163990D02*
X740930D01*
Y165990D01*
X742270D01*
G01X741730Y165020D02*
X740930D01*
G01X743070Y163990D02*
Y165990D01*
X743730D01*
X744000Y165890D01*
X744200Y165760D01*
X744370Y165560D01*
X744500Y165320D01*
X744530Y164990D01*
X744500Y164660D01*
X744370Y164420D01*
X744200Y164220D01*
X744000Y164090D01*
X743730Y163990D01*
X743070D01*
G01X732130Y181710D02*
Y183710D01*
X732930D01*
X733200Y183610D01*
X733400Y183380D01*
X733470Y183110D01*
X733400Y182840D01*
X733230Y182640D01*
X732930Y182540D01*
X732130D01*
G01X734330Y183710D02*
Y181710D01*
X735670D01*
G01X736370D02*
X737200Y183710D01*
X738030Y181710D01*
G01X737730Y182410D02*
X736670D01*
G01X739400Y183710D02*
Y181710D01*
G01X738630Y183710D02*
X740170D01*
G01X742270Y181710D02*
X740930D01*
Y183710D01*
X742270D01*
G01X741730Y182740D02*
X740930D01*
G01X743070Y181710D02*
Y183710D01*
X743730D01*
X744000Y183610D01*
X744200Y183480D01*
X744370Y183280D01*
X744500Y183040D01*
X744530Y182710D01*
X744500Y182380D01*
X744370Y182140D01*
X744200Y181940D01*
X744000Y181810D01*
X743730Y181710D01*
X743070D01*
G01X732130Y199420D02*
Y201420D01*
X732930D01*
X733200Y201320D01*
X733400Y201090D01*
X733470Y200820D01*
X733400Y200550D01*
X733230Y200350D01*
X732930Y200250D01*
X732130D01*
G01X734330Y201420D02*
Y199420D01*
X735670D01*
G01X736370D02*
X737200Y201420D01*
X738030Y199420D01*
G01X737730Y200120D02*
X736670D01*
G01X739400Y201420D02*
Y199420D01*
G01X738630Y201420D02*
X740170D01*
G01X742270Y199420D02*
X740930D01*
Y201420D01*
X742270D01*
G01X741730Y200450D02*
X740930D01*
G01X743070Y199420D02*
Y201420D01*
X743730D01*
X744000Y201320D01*
X744200Y201190D01*
X744370Y200990D01*
X744500Y200750D01*
X744530Y200420D01*
X744500Y200090D01*
X744370Y199850D01*
X744200Y199650D01*
X744000Y199520D01*
X743730Y199420D01*
X743070D01*
G01X732130Y217140D02*
Y219140D01*
X732930D01*
X733200Y219040D01*
X733400Y218810D01*
X733470Y218540D01*
X733400Y218270D01*
X733230Y218070D01*
X732930Y217970D01*
X732130D01*
G01X734330Y219140D02*
Y217140D01*
X735670D01*
G01X736370D02*
X737200Y219140D01*
X738030Y217140D01*
G01X737730Y217840D02*
X736670D01*
G01X739400Y219140D02*
Y217140D01*
G01X738630Y219140D02*
X740170D01*
G01X742270Y217140D02*
X740930D01*
Y219140D01*
X742270D01*
G01X741730Y218170D02*
X740930D01*
G01X743070Y217140D02*
Y219140D01*
X743730D01*
X744000Y219040D01*
X744200Y218910D01*
X744370Y218710D01*
X744500Y218470D01*
X744530Y218140D01*
X744500Y217810D01*
X744370Y217570D01*
X744200Y217370D01*
X744000Y217240D01*
X743730Y217140D01*
X743070D01*
G01X732130Y234850D02*
Y236850D01*
X732930D01*
X733200Y236750D01*
X733400Y236520D01*
X733470Y236250D01*
X733400Y235980D01*
X733230Y235780D01*
X732930Y235680D01*
X732130D01*
G01X734330Y236850D02*
Y234850D01*
X735670D01*
G01X736370D02*
X737200Y236850D01*
X738030Y234850D01*
G01X737730Y235550D02*
X736670D01*
G01X739400Y236850D02*
Y234850D01*
G01X738630Y236850D02*
X740170D01*
G01X742270Y234850D02*
X740930D01*
Y236850D01*
X742270D01*
G01X741730Y235880D02*
X740930D01*
G01X743070Y234850D02*
Y236850D01*
X743730D01*
X744000Y236750D01*
X744200Y236620D01*
X744370Y236420D01*
X744500Y236180D01*
X744530Y235850D01*
X744500Y235520D01*
X744370Y235280D01*
X744200Y235080D01*
X744000Y234950D01*
X743730Y234850D01*
X743070D01*
G01X732130Y270280D02*
Y272280D01*
X732930D01*
X733200Y272180D01*
X733400Y271950D01*
X733470Y271680D01*
X733400Y271410D01*
X733230Y271210D01*
X732930Y271110D01*
X732130D01*
G01X734330Y272280D02*
Y270280D01*
X735670D01*
G01X736370D02*
X737200Y272280D01*
X738030Y270280D01*
G01X737730Y270980D02*
X736670D01*
G01X739400Y272280D02*
Y270280D01*
G01X738630Y272280D02*
X740170D01*
G01X742270Y270280D02*
X740930D01*
Y272280D01*
X742270D01*
G01X741730Y271310D02*
X740930D01*
G01X743070Y270280D02*
Y272280D01*
X743730D01*
X744000Y272180D01*
X744200Y272050D01*
X744370Y271850D01*
X744500Y271610D01*
X744530Y271280D01*
X744500Y270950D01*
X744370Y270710D01*
X744200Y270510D01*
X744000Y270380D01*
X743730Y270280D01*
X743070D01*
G01X732130Y252570D02*
Y254570D01*
X732930D01*
X733200Y254470D01*
X733400Y254240D01*
X733470Y253970D01*
X733400Y253700D01*
X733230Y253500D01*
X732930Y253400D01*
X732130D01*
G01X734330Y254570D02*
Y252570D01*
X735670D01*
G01X736370D02*
X737200Y254570D01*
X738030Y252570D01*
G01X737730Y253270D02*
X736670D01*
G01X739400Y254570D02*
Y252570D01*
G01X738630Y254570D02*
X740170D01*
G01X742270Y252570D02*
X740930D01*
Y254570D01*
X742270D01*
G01X741730Y253600D02*
X740930D01*
G01X743070Y252570D02*
Y254570D01*
X743730D01*
X744000Y254470D01*
X744200Y254340D01*
X744370Y254140D01*
X744500Y253900D01*
X744530Y253570D01*
X744500Y253240D01*
X744370Y253000D01*
X744200Y252800D01*
X744000Y252670D01*
X743730Y252570D01*
X743070D01*
G01X732130Y288000D02*
Y290000D01*
X732930D01*
X733200Y289900D01*
X733400Y289670D01*
X733470Y289400D01*
X733400Y289130D01*
X733230Y288930D01*
X732930Y288830D01*
X732130D01*
G01X734330Y290000D02*
Y288000D01*
X735670D01*
G01X736370D02*
X737200Y290000D01*
X738030Y288000D01*
G01X737730Y288700D02*
X736670D01*
G01X739400Y290000D02*
Y288000D01*
G01X738630Y290000D02*
X740170D01*
G01X742270Y288000D02*
X740930D01*
Y290000D01*
X742270D01*
G01X741730Y289030D02*
X740930D01*
G01X743070Y288000D02*
Y290000D01*
X743730D01*
X744000Y289900D01*
X744200Y289770D01*
X744370Y289570D01*
X744500Y289330D01*
X744530Y289000D01*
X744500Y288670D01*
X744370Y288430D01*
X744200Y288230D01*
X744000Y288100D01*
X743730Y288000D01*
X743070D01*
G01X732130Y305710D02*
Y307710D01*
X732930D01*
X733200Y307610D01*
X733400Y307380D01*
X733470Y307110D01*
X733400Y306840D01*
X733230Y306640D01*
X732930Y306540D01*
X732130D01*
G01X734330Y307710D02*
Y305710D01*
X735670D01*
G01X736370D02*
X737200Y307710D01*
X738030Y305710D01*
G01X737730Y306410D02*
X736670D01*
G01X739400Y307710D02*
Y305710D01*
G01X738630Y307710D02*
X740170D01*
G01X742270Y305710D02*
X740930D01*
Y307710D01*
X742270D01*
G01X741730Y306740D02*
X740930D01*
G01X743070Y305710D02*
Y307710D01*
X743730D01*
X744000Y307610D01*
X744200Y307480D01*
X744370Y307280D01*
X744500Y307040D01*
X744530Y306710D01*
X744500Y306380D01*
X744370Y306140D01*
X744200Y305940D01*
X744000Y305810D01*
X743730Y305710D01*
X743070D01*
G01X732130Y323430D02*
Y325430D01*
X732930D01*
X733200Y325330D01*
X733400Y325100D01*
X733470Y324830D01*
X733400Y324560D01*
X733230Y324360D01*
X732930Y324260D01*
X732130D01*
G01X734330Y325430D02*
Y323430D01*
X735670D01*
G01X736370D02*
X737200Y325430D01*
X738030Y323430D01*
G01X737730Y324130D02*
X736670D01*
G01X739400Y325430D02*
Y323430D01*
G01X738630Y325430D02*
X740170D01*
G01X742270Y323430D02*
X740930D01*
Y325430D01*
X742270D01*
G01X741730Y324460D02*
X740930D01*
G01X743070Y323430D02*
Y325430D01*
X743730D01*
X744000Y325330D01*
X744200Y325200D01*
X744370Y325000D01*
X744500Y324760D01*
X744530Y324430D01*
X744500Y324100D01*
X744370Y323860D01*
X744200Y323660D01*
X744000Y323530D01*
X743730Y323430D01*
X743070D01*
G01X732130Y352000D02*
Y354000D01*
X732930D01*
X733200Y353900D01*
X733400Y353670D01*
X733470Y353400D01*
X733400Y353130D01*
X733230Y352930D01*
X732930Y352830D01*
X732130D01*
G01X734330Y354000D02*
Y352000D01*
X735670D01*
G01X736370D02*
X737200Y354000D01*
X738030Y352000D01*
G01X737730Y352700D02*
X736670D01*
G01X739400Y354000D02*
Y352000D01*
G01X738630Y354000D02*
X740170D01*
G01X742270Y352000D02*
X740930D01*
Y354000D01*
X742270D01*
G01X741730Y353030D02*
X740930D01*
G01X743070Y352000D02*
Y354000D01*
X743730D01*
X744000Y353900D01*
X744200Y353770D01*
X744370Y353570D01*
X744500Y353330D01*
X744530Y353000D01*
X744500Y352670D01*
X744370Y352430D01*
X744200Y352230D01*
X744000Y352100D01*
X743730Y352000D01*
X743070D01*
G01X732130Y341140D02*
Y343140D01*
X732930D01*
X733200Y343040D01*
X733400Y342810D01*
X733470Y342540D01*
X733400Y342270D01*
X733230Y342070D01*
X732930Y341970D01*
X732130D01*
G01X734330Y343140D02*
Y341140D01*
X735670D01*
G01X736370D02*
X737200Y343140D01*
X738030Y341140D01*
G01X737730Y341840D02*
X736670D01*
G01X739400Y343140D02*
Y341140D01*
G01X738630Y343140D02*
X740170D01*
G01X742270Y341140D02*
X740930D01*
Y343140D01*
X742270D01*
G01X741730Y342170D02*
X740930D01*
G01X743070Y341140D02*
Y343140D01*
X743730D01*
X744000Y343040D01*
X744200Y342910D01*
X744370Y342710D01*
X744500Y342470D01*
X744530Y342140D01*
X744500Y341810D01*
X744370Y341570D01*
X744200Y341370D01*
X744000Y341240D01*
X743730Y341140D01*
X743070D01*
G01X756500Y4560D02*
Y6560D01*
X755270Y5130D01*
X756930D01*
G01X755470Y41660D02*
X755670Y41860D01*
X755900Y41960D01*
X756170Y41990D01*
X756500Y41920D01*
X756730Y41760D01*
X756800Y41560D01*
X756770Y41360D01*
X756630Y41190D01*
X755970Y40860D01*
X755670Y40620D01*
X755470Y40290D01*
X755400Y39990D01*
X756800D01*
G01X756500Y22270D02*
Y24270D01*
X755270Y22840D01*
X756930D01*
G01X755470Y59370D02*
X755670Y59570D01*
X755900Y59670D01*
X756170Y59700D01*
X756500Y59630D01*
X756730Y59470D01*
X756800Y59270D01*
X756770Y59070D01*
X756630Y58900D01*
X755970Y58570D01*
X755670Y58330D01*
X755470Y58000D01*
X755400Y57700D01*
X756800D01*
G01X756500Y75420D02*
Y77420D01*
X755270Y75990D01*
X756930D01*
G01X755470Y94800D02*
X755670Y95000D01*
X755900Y95100D01*
X756170Y95130D01*
X756500Y95060D01*
X756730Y94900D01*
X756800Y94700D01*
X756770Y94500D01*
X756630Y94330D01*
X755970Y94000D01*
X755670Y93760D01*
X755470Y93430D01*
X755400Y93130D01*
X756800D01*
G01X756500Y110850D02*
Y112850D01*
X755270Y111420D01*
X756930D01*
G01X755470Y147950D02*
X755670Y148150D01*
X755900Y148250D01*
X756170Y148280D01*
X756500Y148210D01*
X756730Y148050D01*
X756800Y147850D01*
X756770Y147650D01*
X756630Y147480D01*
X755970Y147150D01*
X755670Y146910D01*
X755470Y146580D01*
X755400Y146280D01*
X756800D01*
G01X755470Y129390D02*
X755700Y129630D01*
X755900Y129760D01*
X756170Y129830D01*
X756400Y129760D01*
X756570Y129630D01*
X756700Y129430D01*
X756730Y129190D01*
X756700Y128990D01*
X756570Y128790D01*
X756370Y128630D01*
X756130Y128560D01*
X755870Y128630D01*
X755630Y128830D01*
X755500Y129130D01*
X755470Y129460D01*
X755530Y129890D01*
X755630Y130130D01*
X755800Y130360D01*
X756030Y130530D01*
X756270Y130560D01*
X756500Y130490D01*
X756670Y130330D01*
G01X755470Y165660D02*
X755670Y165860D01*
X755900Y165960D01*
X756170Y165990D01*
X756500Y165920D01*
X756730Y165760D01*
X756800Y165560D01*
X756770Y165360D01*
X756630Y165190D01*
X755970Y164860D01*
X755670Y164620D01*
X755470Y164290D01*
X755400Y163990D01*
X756800D01*
G01X755470Y182540D02*
X755700Y182780D01*
X755900Y182910D01*
X756170Y182980D01*
X756400Y182910D01*
X756570Y182780D01*
X756700Y182580D01*
X756730Y182340D01*
X756700Y182140D01*
X756570Y181940D01*
X756370Y181780D01*
X756130Y181710D01*
X755870Y181780D01*
X755630Y181980D01*
X755500Y182280D01*
X755470Y182610D01*
X755530Y183040D01*
X755630Y183280D01*
X755800Y183510D01*
X756030Y183680D01*
X756270Y183710D01*
X756500Y183640D01*
X756670Y183480D01*
G01X755000Y199420D02*
Y201420D01*
X754600Y201020D01*
G01Y199420D02*
X755400D01*
G01X757200D02*
X757430Y199450D01*
X757700Y199550D01*
X757870Y199720D01*
X757930Y199950D01*
X757870Y200190D01*
X757670Y200390D01*
X757370Y200490D01*
X757030D01*
X756830Y200550D01*
X756670Y200720D01*
X756600Y200950D01*
X756700Y201190D01*
X756930Y201350D01*
X757200Y201420D01*
X757470Y201350D01*
X757700Y201190D01*
X757800Y200950D01*
X757730Y200720D01*
X757570Y200550D01*
X757370Y200490D01*
X757030D01*
X756730Y200390D01*
X756530Y200190D01*
X756470Y199950D01*
X756530Y199720D01*
X756700Y199550D01*
X756970Y199450D01*
X757200Y199420D01*
G01X754270Y217440D02*
X754470Y217270D01*
X754700Y217170D01*
X755000Y217140D01*
X755300Y217210D01*
X755530Y217340D01*
X755700Y217570D01*
X755730Y217840D01*
X755670Y218110D01*
X755500Y218270D01*
X755270Y218410D01*
X755030Y218440D01*
X754800Y218410D01*
X754500Y218270D01*
X754600Y219140D01*
X755500D01*
G01X757200D02*
X756930Y219070D01*
X756730Y218910D01*
X756600Y218710D01*
X756500Y218440D01*
X756470Y218140D01*
X756500Y217840D01*
X756600Y217570D01*
X756730Y217370D01*
X756930Y217210D01*
X757200Y217140D01*
X757470Y217210D01*
X757670Y217370D01*
X757800Y217570D01*
X757900Y217840D01*
X757930Y218140D01*
X757900Y218440D01*
X757800Y218710D01*
X757670Y218910D01*
X757470Y219070D01*
X757200Y219140D01*
G01X753900Y234850D02*
Y236850D01*
X753500Y236450D01*
G01Y234850D02*
X754300D01*
G01X755370Y235250D02*
X755570Y235020D01*
X755830Y234880D01*
X756130Y234850D01*
X756400Y234880D01*
X756670Y235050D01*
X756830Y235250D01*
X756870Y235450D01*
X756800Y235680D01*
X756570Y235850D01*
X756330Y235920D01*
X756030D01*
G01X756330D02*
X756530Y236020D01*
X756700Y236180D01*
X756770Y236380D01*
X756700Y236580D01*
X756530Y236750D01*
X756230Y236850D01*
X755930Y236820D01*
X755630Y236680D01*
G01X758300Y236850D02*
X758030Y236780D01*
X757830Y236620D01*
X757700Y236420D01*
X757600Y236150D01*
X757570Y235850D01*
X757600Y235550D01*
X757700Y235280D01*
X757830Y235080D01*
X758030Y234920D01*
X758300Y234850D01*
X758570Y234920D01*
X758770Y235080D01*
X758900Y235280D01*
X759000Y235550D01*
X759030Y235850D01*
X759000Y236150D01*
X758900Y236420D01*
X758770Y236620D01*
X758570Y236780D01*
X758300Y236850D01*
G01X755000Y270280D02*
Y272280D01*
X754600Y271880D01*
G01Y270280D02*
X755400D01*
G01X756570Y271950D02*
X756770Y272150D01*
X757000Y272250D01*
X757270Y272280D01*
X757600Y272210D01*
X757830Y272050D01*
X757900Y271850D01*
X757870Y271650D01*
X757730Y271480D01*
X757070Y271150D01*
X756770Y270910D01*
X756570Y270580D01*
X756500Y270280D01*
X757900D01*
G01X755000Y252570D02*
Y254570D01*
X754600Y254170D01*
G01Y252570D02*
X755400D01*
G01X756570Y254240D02*
X756770Y254440D01*
X757000Y254540D01*
X757270Y254570D01*
X757600Y254500D01*
X757830Y254340D01*
X757900Y254140D01*
X757870Y253940D01*
X757730Y253770D01*
X757070Y253440D01*
X756770Y253200D01*
X756570Y252870D01*
X756500Y252570D01*
X757900D01*
G01X754430Y288230D02*
X754670Y288070D01*
X754930Y288000D01*
X755200Y288070D01*
X755430Y288270D01*
X755600Y288570D01*
X755670Y288870D01*
Y289230D01*
X755600Y289530D01*
X755430Y289800D01*
X755230Y289930D01*
X755000Y290000D01*
X754730Y289930D01*
X754530Y289800D01*
X754400Y289600D01*
X754330Y289330D01*
X754400Y289100D01*
X754570Y288870D01*
X754770Y288730D01*
X755000Y288700D01*
X755270Y288770D01*
X755470Y288930D01*
X755670Y289230D01*
G01X757200Y290000D02*
X756930Y289930D01*
X756730Y289770D01*
X756600Y289570D01*
X756500Y289300D01*
X756470Y289000D01*
X756500Y288700D01*
X756600Y288430D01*
X756730Y288230D01*
X756930Y288070D01*
X757200Y288000D01*
X757470Y288070D01*
X757670Y288230D01*
X757800Y288430D01*
X757900Y288700D01*
X757930Y289000D01*
X757900Y289300D01*
X757800Y289570D01*
X757670Y289770D01*
X757470Y289930D01*
X757200Y290000D01*
G01X754370Y306540D02*
X754600Y306780D01*
X754800Y306910D01*
X755070Y306980D01*
X755300Y306910D01*
X755470Y306780D01*
X755600Y306580D01*
X755630Y306340D01*
X755600Y306140D01*
X755470Y305940D01*
X755270Y305780D01*
X755030Y305710D01*
X754770Y305780D01*
X754530Y305980D01*
X754400Y306280D01*
X754370Y306610D01*
X754430Y307040D01*
X754530Y307280D01*
X754700Y307510D01*
X754930Y307680D01*
X755170Y307710D01*
X755400Y307640D01*
X755570Y307480D01*
G01X756470Y306110D02*
X756670Y305880D01*
X756930Y305740D01*
X757230Y305710D01*
X757500Y305740D01*
X757770Y305910D01*
X757930Y306110D01*
X757970Y306310D01*
X757900Y306540D01*
X757670Y306710D01*
X757430Y306780D01*
X757130D01*
G01X757430D02*
X757630Y306880D01*
X757800Y307040D01*
X757870Y307240D01*
X757800Y307440D01*
X757630Y307610D01*
X757330Y307710D01*
X757030Y307680D01*
X756730Y307540D01*
G01X755370Y323730D02*
X755570Y323560D01*
X755800Y323460D01*
X756100Y323430D01*
X756400Y323500D01*
X756630Y323630D01*
X756800Y323860D01*
X756830Y324130D01*
X756770Y324400D01*
X756600Y324560D01*
X756370Y324700D01*
X756130Y324730D01*
X755900Y324700D01*
X755600Y324560D01*
X755700Y325430D01*
X756600D01*
G01X753900Y352000D02*
X753630Y352030D01*
X753400Y352170D01*
X753200Y352370D01*
X753070Y352600D01*
X753000Y352870D01*
Y353130D01*
X753070Y353400D01*
X753200Y353630D01*
X753400Y353830D01*
X753630Y353970D01*
X753900Y354000D01*
X754170Y353970D01*
X754400Y353830D01*
X754600Y353630D01*
X754730Y353400D01*
X754800Y353130D01*
Y352870D01*
X754730Y352600D01*
X754600Y352370D01*
X754400Y352170D01*
X754170Y352030D01*
X753900Y352000D01*
G01X754170Y352530D02*
X754570Y352000D01*
G01X756100Y354000D02*
Y352000D01*
G01X755330Y354000D02*
X756870D01*
G01X758300Y352000D02*
Y352900D01*
X757630Y354000D01*
G01X758970D02*
X758300Y352900D01*
G01X752800Y341140D02*
Y343140D01*
X752400Y342740D01*
G01Y341140D02*
X753200D01*
G01X755000Y343140D02*
X754730Y343070D01*
X754530Y342910D01*
X754400Y342710D01*
X754300Y342440D01*
X754270Y342140D01*
X754300Y341840D01*
X754400Y341570D01*
X754530Y341370D01*
X754730Y341210D01*
X755000Y341140D01*
X755270Y341210D01*
X755470Y341370D01*
X755600Y341570D01*
X755700Y341840D01*
X755730Y342140D01*
X755700Y342440D01*
X755600Y342710D01*
X755470Y342910D01*
X755270Y343070D01*
X755000Y343140D01*
G01X756470Y341540D02*
X756670Y341310D01*
X756930Y341170D01*
X757230Y341140D01*
X757500Y341170D01*
X757770Y341340D01*
X757930Y341540D01*
X757970Y341740D01*
X757900Y341970D01*
X757670Y342140D01*
X757430Y342210D01*
X757130D01*
G01X757430D02*
X757630Y342310D01*
X757800Y342470D01*
X757870Y342670D01*
X757800Y342870D01*
X757630Y343040D01*
X757330Y343140D01*
X757030Y343110D01*
X756730Y342970D01*
G01X759400Y343140D02*
X759130Y343070D01*
X758930Y342910D01*
X758800Y342710D01*
X758700Y342440D01*
X758670Y342140D01*
X758700Y341840D01*
X758800Y341570D01*
X758930Y341370D01*
X759130Y341210D01*
X759400Y341140D01*
X759670Y341210D01*
X759870Y341370D01*
X760000Y341570D01*
X760100Y341840D01*
X760130Y342140D01*
X760100Y342440D01*
X760000Y342710D01*
X759870Y342910D01*
X759670Y343070D01*
X759400Y343140D01*
G54D12*
X12670Y167030D03*
Y198450D03*
X661800Y164990D03*
G54D21*
X120000Y15990D03*
Y5990D03*
Y25990D03*
X122010Y185000D03*
X132010D03*
X142010D03*
X183000Y15990D03*
Y5990D03*
Y25990D03*
X246000Y15990D03*
Y5990D03*
Y25990D03*
X309000Y15990D03*
Y5990D03*
Y25990D03*
X372000Y15990D03*
Y5990D03*
Y25990D03*
X661800Y200420D03*
G54D31*
G01X70Y-10090D02*
Y-37000D01*
G01X255250Y-27000D02*
X70D01*
G01X15070Y-24500D02*
X70Y-27000D01*
X15070Y-29500D01*
Y-24500D01*
G01X70Y385740D02*
Y-90D01*
X543380D01*
Y385740D01*
X70D01*
G01X329850Y-30000D02*
X326850D01*
Y-24000D01*
X329850D01*
G01X355250Y-30000D02*
X358250D01*
Y-24000D01*
X355250D01*
G01X362750Y-27000D02*
X543380D01*
G01X528380Y-29500D02*
X543380Y-27000D01*
X528380Y-24500D01*
Y-29500D01*
G01X543380Y-10090D02*
Y-37000D01*
G01X553380Y-90D02*
X607000D01*
G01X553380Y385740D02*
X607000D01*
G01X597000Y126600D02*
Y-90D01*
G01X594500Y14910D02*
X597000Y-90D01*
X599500Y14910D01*
X594500D01*
G01X600000Y201200D02*
Y198200D01*
X594000D01*
Y201200D01*
G01X597000Y227400D02*
Y385740D01*
G01X600000Y219900D02*
Y222900D01*
X594000D01*
Y219900D01*
G01X599500Y370740D02*
X597000Y385740D01*
X594500Y370740D01*
X599500D01*
G01X654000Y-3300D02*
Y384000D01*
X762800D01*
Y-3300D01*
X654000D01*
G01X669600Y355000D02*
Y-3300D01*
G01X654000Y14410D02*
X762800D01*
G01X654000Y32130D02*
X762800D01*
G01X654000Y49840D02*
X762800D01*
G01X654000Y67560D02*
X762800D01*
G01X654000Y102990D02*
X762800D01*
G01X654000Y85270D02*
X762800D01*
G01X654000Y120700D02*
X762800D01*
G01X654000Y138420D02*
X762800D01*
G01X654000Y156130D02*
X762800D01*
G01X654000Y173850D02*
X762800D01*
G01X654000Y191560D02*
X762800D01*
G01X654000Y226990D02*
X762800D01*
G01X654000Y209280D02*
X762800D01*
G01X654000Y244710D02*
X762800D01*
G01X654000Y262420D02*
X762800D01*
G01X654000Y280140D02*
X762800D01*
G01X654000Y297850D02*
X762800D01*
G01X654000Y333280D02*
X762800D01*
G01X654000Y315570D02*
X762800D01*
G01X654000Y351000D02*
X762800D01*
G01X654000Y359000D02*
X762800D01*
G01X654000Y355000D02*
X762800D01*
G01X705000D02*
Y-3300D01*
G01X727200Y355000D02*
Y-3300D01*
G01X749400Y355000D02*
Y-3300D01*
G54D22*
X119970Y62000D03*
Y82000D03*
Y72000D03*
Y102000D03*
Y92000D03*
Y122000D03*
Y112000D03*
Y132000D03*
X149970Y62000D03*
X169970D03*
X159970D03*
X169970Y72000D03*
Y82000D03*
Y92000D03*
Y102000D03*
Y112000D03*
Y122000D03*
Y132000D03*
X182970Y62000D03*
Y82000D03*
Y72000D03*
Y102000D03*
Y92000D03*
Y122000D03*
Y112000D03*
Y132000D03*
X212970Y62000D03*
X232970D03*
X222970D03*
X232970Y72000D03*
Y82000D03*
Y92000D03*
Y102000D03*
Y112000D03*
Y122000D03*
Y132000D03*
X245970Y62000D03*
Y82000D03*
Y72000D03*
Y102000D03*
Y92000D03*
Y122000D03*
Y112000D03*
Y132000D03*
X275970Y62000D03*
X295970D03*
X285970D03*
X295970Y72000D03*
Y82000D03*
Y92000D03*
Y102000D03*
Y112000D03*
Y122000D03*
Y132000D03*
X308970Y62000D03*
Y82000D03*
Y72000D03*
Y102000D03*
Y92000D03*
Y122000D03*
Y112000D03*
Y132000D03*
X338970Y62000D03*
X358970D03*
X348970D03*
X358970Y72000D03*
Y82000D03*
Y92000D03*
Y102000D03*
Y112000D03*
Y122000D03*
Y132000D03*
X371970Y62000D03*
Y82000D03*
Y72000D03*
Y102000D03*
Y92000D03*
Y122000D03*
Y112000D03*
Y132000D03*
X401970Y62000D03*
X421970D03*
X411970D03*
X421970Y72000D03*
Y82000D03*
Y92000D03*
Y102000D03*
Y112000D03*
Y122000D03*
Y132000D03*
X661800Y289000D03*
G54D13*
X21000Y9830D03*
X31000D03*
X11000D03*
X31000Y40830D03*
Y69830D03*
Y99830D03*
X41000Y40830D03*
Y69830D03*
Y99830D03*
X156000Y10840D03*
X146000D03*
X136000D03*
X166000D03*
X219000D03*
X209000D03*
X199000D03*
X229000D03*
X272000D03*
X262000D03*
X282000D03*
X292000D03*
X335000D03*
X325000D03*
X345000D03*
X355000D03*
X359000Y167990D03*
Y157990D03*
Y187990D03*
Y177990D03*
Y197990D03*
X398000Y10840D03*
X388000D03*
X408000D03*
X418000D03*
X440840Y20000D03*
Y10000D03*
Y30000D03*
Y40000D03*
X503990Y160000D03*
X493990D03*
X522000Y62010D03*
Y72010D03*
Y91010D03*
Y101010D03*
X533170Y23000D03*
Y33000D03*
Y43000D03*
Y170000D03*
Y160000D03*
Y180000D03*
X661800Y218140D03*
G54D32*
G01X261300Y-29100D02*
X261900Y-29600D01*
X262600Y-29900D01*
X263500Y-30000D01*
X264400Y-29800D01*
X265100Y-29400D01*
X265600Y-28700D01*
X265700Y-27900D01*
X265500Y-27100D01*
X265000Y-26600D01*
X264300Y-26200D01*
X263600Y-26100D01*
X262900Y-26200D01*
X262000Y-26600D01*
X262300Y-24000D01*
X265000D01*
G01X271400Y-30000D02*
Y-24000D01*
X267700Y-28300D01*
X272700D01*
G01X274700Y-28800D02*
X275300Y-29500D01*
X276100Y-29900D01*
X277000Y-30000D01*
X277800Y-29900D01*
X278600Y-29400D01*
X279100Y-28800D01*
X279200Y-28200D01*
X279000Y-27500D01*
X278300Y-27000D01*
X277600Y-26800D01*
X276700D01*
G01X277600D02*
X278200Y-26500D01*
X278700Y-26000D01*
X278900Y-25400D01*
X278700Y-24800D01*
X278200Y-24300D01*
X277300Y-24000D01*
X276400Y-24100D01*
X275500Y-24500D01*
G01X281400Y-28800D02*
X282000Y-29500D01*
X282800Y-29900D01*
X283700Y-30000D01*
X284500Y-29900D01*
X285300Y-29400D01*
X285800Y-28800D01*
X285900Y-28200D01*
X285700Y-27500D01*
X285000Y-27000D01*
X284300Y-26800D01*
X283400D01*
G01X284300D02*
X284900Y-26500D01*
X285400Y-26000D01*
X285600Y-25400D01*
X285400Y-24800D01*
X284900Y-24300D01*
X284000Y-24000D01*
X283100Y-24100D01*
X282200Y-24500D01*
G01X290300Y-30200D02*
X290100Y-30100D01*
Y-29900D01*
X290300Y-29800D01*
X290500Y-29900D01*
Y-30100D01*
X290300Y-30200D01*
G01X297000Y-30000D02*
Y-24000D01*
X295800Y-25200D01*
G01Y-30000D02*
X298200D01*
G01X303700Y-24000D02*
X302900Y-24200D01*
X302300Y-24700D01*
X301900Y-25300D01*
X301600Y-26100D01*
X301500Y-27000D01*
X301600Y-27900D01*
X301900Y-28700D01*
X302300Y-29300D01*
X302900Y-29800D01*
X303700Y-30000D01*
X304500Y-29800D01*
X305100Y-29300D01*
X305500Y-28700D01*
X305800Y-27900D01*
X305900Y-27000D01*
X305800Y-26100D01*
X305500Y-25300D01*
X305100Y-24700D01*
X304500Y-24200D01*
X303700Y-24000D01*
G01X310400D02*
X309600Y-24200D01*
X309000Y-24700D01*
X308600Y-25300D01*
X308300Y-26100D01*
X308200Y-27000D01*
X308300Y-27900D01*
X308600Y-28700D01*
X309000Y-29300D01*
X309600Y-29800D01*
X310400Y-30000D01*
X311200Y-29800D01*
X311800Y-29300D01*
X312200Y-28700D01*
X312500Y-27900D01*
X312600Y-27000D01*
X312500Y-26100D01*
X312200Y-25300D01*
X311800Y-24700D01*
X311200Y-24200D01*
X310400Y-24000D01*
G01X317100D02*
X316300Y-24200D01*
X315700Y-24700D01*
X315300Y-25300D01*
X315000Y-26100D01*
X314900Y-27000D01*
X315000Y-27900D01*
X315300Y-28700D01*
X315700Y-29300D01*
X316300Y-29800D01*
X317100Y-30000D01*
X317900Y-29800D01*
X318500Y-29300D01*
X318900Y-28700D01*
X319200Y-27900D01*
X319300Y-27000D01*
X319200Y-26100D01*
X318900Y-25300D01*
X318500Y-24700D01*
X317900Y-24200D01*
X317100Y-24000D01*
G01X335850Y-30000D02*
Y-24000D01*
X334650Y-25200D01*
G01Y-30000D02*
X337050D01*
G01X340350Y-28800D02*
X340950Y-29500D01*
X341750Y-29900D01*
X342650Y-30000D01*
X343450Y-29900D01*
X344250Y-29400D01*
X344750Y-28800D01*
X344850Y-28200D01*
X344650Y-27500D01*
X343950Y-27000D01*
X343250Y-26800D01*
X342350D01*
G01X343250D02*
X343850Y-26500D01*
X344350Y-26000D01*
X344550Y-25400D01*
X344350Y-24800D01*
X343850Y-24300D01*
X342950Y-24000D01*
X342050Y-24100D01*
X341150Y-24500D01*
G01X349250Y-30000D02*
X349950Y-29900D01*
X350750Y-29600D01*
X351250Y-29100D01*
X351450Y-28400D01*
X351250Y-27700D01*
X350650Y-27100D01*
X349750Y-26800D01*
X348750D01*
X348150Y-26600D01*
X347650Y-26100D01*
X347450Y-25400D01*
X347750Y-24700D01*
X348450Y-24200D01*
X349250Y-24000D01*
X350050Y-24200D01*
X350750Y-24700D01*
X351050Y-25400D01*
X350850Y-26100D01*
X350350Y-26600D01*
X349750Y-26800D01*
X348750D01*
X347850Y-27100D01*
X347250Y-27700D01*
X347050Y-28400D01*
X347250Y-29100D01*
X347750Y-29600D01*
X348550Y-29900D01*
X349250Y-30000D01*
G01X598800Y132650D02*
X599500Y133250D01*
X599900Y134050D01*
X600000Y134950D01*
X599900Y135750D01*
X599400Y136550D01*
X598800Y137050D01*
X598200Y137150D01*
X597500Y136950D01*
X597000Y136250D01*
X596800Y135550D01*
Y134650D01*
G01Y135550D02*
X596500Y136150D01*
X596000Y136650D01*
X595400Y136850D01*
X594800Y136650D01*
X594300Y136150D01*
X594000Y135250D01*
X594100Y134350D01*
X594500Y133450D01*
G01X600000Y141550D02*
X599900Y142250D01*
X599600Y143050D01*
X599100Y143550D01*
X598400Y143750D01*
X597700Y143550D01*
X597100Y142950D01*
X596800Y142050D01*
Y141050D01*
X596600Y140450D01*
X596100Y139950D01*
X595400Y139750D01*
X594700Y140050D01*
X594200Y140750D01*
X594000Y141550D01*
X594200Y142350D01*
X594700Y143050D01*
X595400Y143350D01*
X596100Y143150D01*
X596600Y142650D01*
X596800Y142050D01*
Y141050D01*
X597100Y140150D01*
X597700Y139550D01*
X598400Y139350D01*
X599100Y139550D01*
X599600Y140050D01*
X599900Y140850D01*
X600000Y141550D01*
G01X599100Y146050D02*
X599600Y146650D01*
X599900Y147350D01*
X600000Y148250D01*
X599800Y149150D01*
X599400Y149850D01*
X598700Y150350D01*
X597900Y150450D01*
X597100Y150250D01*
X596600Y149750D01*
X596200Y149050D01*
X596100Y148350D01*
X596200Y147650D01*
X596600Y146750D01*
X594000Y147050D01*
Y149750D01*
G01X600000Y154950D02*
X599900Y155650D01*
X599600Y156450D01*
X599100Y156950D01*
X598400Y157150D01*
X597700Y156950D01*
X597100Y156350D01*
X596800Y155450D01*
Y154450D01*
X596600Y153850D01*
X596100Y153350D01*
X595400Y153150D01*
X594700Y153450D01*
X594200Y154150D01*
X594000Y154950D01*
X594200Y155750D01*
X594700Y156450D01*
X595400Y156750D01*
X596100Y156550D01*
X596600Y156050D01*
X596800Y155450D01*
Y154450D01*
X597100Y153550D01*
X597700Y152950D01*
X598400Y152750D01*
X599100Y152950D01*
X599600Y153450D01*
X599900Y154250D01*
X600000Y154950D01*
G01X600200Y161650D02*
X600100Y161450D01*
X599900D01*
X599800Y161650D01*
X599900Y161850D01*
X600100D01*
X600200Y161650D01*
G01X598800Y166150D02*
X599500Y166750D01*
X599900Y167550D01*
X600000Y168450D01*
X599900Y169250D01*
X599400Y170050D01*
X598800Y170550D01*
X598200Y170650D01*
X597500Y170450D01*
X597000Y169750D01*
X596800Y169050D01*
Y168150D01*
G01Y169050D02*
X596500Y169650D01*
X596000Y170150D01*
X595400Y170350D01*
X594800Y170150D01*
X594300Y169650D01*
X594000Y168750D01*
X594100Y167850D01*
X594500Y166950D01*
G01X594000Y175050D02*
X594200Y174250D01*
X594700Y173650D01*
X595300Y173250D01*
X596100Y172950D01*
X597000Y172850D01*
X597900Y172950D01*
X598700Y173250D01*
X599300Y173650D01*
X599800Y174250D01*
X600000Y175050D01*
X599800Y175850D01*
X599300Y176450D01*
X598700Y176850D01*
X597900Y177150D01*
X597000Y177250D01*
X596100Y177150D01*
X595300Y176850D01*
X594700Y176450D01*
X594200Y175850D01*
X594000Y175050D01*
G01Y181750D02*
X594200Y180950D01*
X594700Y180350D01*
X595300Y179950D01*
X596100Y179650D01*
X597000Y179550D01*
X597900Y179650D01*
X598700Y179950D01*
X599300Y180350D01*
X599800Y180950D01*
X600000Y181750D01*
X599800Y182550D01*
X599300Y183150D01*
X598700Y183550D01*
X597900Y183850D01*
X597000Y183950D01*
X596100Y183850D01*
X595300Y183550D01*
X594700Y183150D01*
X594200Y182550D01*
X594000Y181750D01*
G01Y188450D02*
X594200Y187650D01*
X594700Y187050D01*
X595300Y186650D01*
X596100Y186350D01*
X597000Y186250D01*
X597900Y186350D01*
X598700Y186650D01*
X599300Y187050D01*
X599800Y187650D01*
X600000Y188450D01*
X599800Y189250D01*
X599300Y189850D01*
X598700Y190250D01*
X597900Y190550D01*
X597000Y190650D01*
X596100Y190550D01*
X595300Y190250D01*
X594700Y189850D01*
X594200Y189250D01*
X594000Y188450D01*
G01X599300Y205500D02*
X599800Y206200D01*
X600000Y207000D01*
X599800Y207800D01*
X599200Y208500D01*
X598300Y209000D01*
X597400Y209200D01*
X596300D01*
X595400Y209000D01*
X594600Y208500D01*
X594200Y207900D01*
X594000Y207200D01*
X594200Y206400D01*
X594600Y205800D01*
X595200Y205400D01*
X596000Y205200D01*
X596700Y205400D01*
X597400Y205900D01*
X597800Y206500D01*
X597900Y207200D01*
X597700Y208000D01*
X597200Y208600D01*
X596300Y209200D01*
G01X600000Y213900D02*
X599900Y214600D01*
X599600Y215400D01*
X599100Y215900D01*
X598400Y216100D01*
X597700Y215900D01*
X597100Y215300D01*
X596800Y214400D01*
Y213400D01*
X596600Y212800D01*
X596100Y212300D01*
X595400Y212100D01*
X594700Y212400D01*
X594200Y213100D01*
X594000Y213900D01*
X594200Y214700D01*
X594700Y215400D01*
X595400Y215700D01*
X596100Y215500D01*
X596600Y215000D01*
X596800Y214400D01*
Y213400D01*
X597100Y212500D01*
X597700Y211900D01*
X598400Y211700D01*
X599100Y211900D01*
X599600Y212400D01*
X599900Y213200D01*
X600000Y213900D01*
G54D23*
X438120Y366490D03*
X460880D03*
X661800Y94130D03*
G54D14*
X16000Y28990D03*
Y58990D03*
Y88990D03*
X26010Y129000D03*
X40990Y370000D03*
X96000Y294840D03*
X135160Y87000D03*
X198160D03*
X192000Y362500D03*
X261160Y87000D03*
X324160D03*
X387160D03*
X661800Y253570D03*
G54D24*
X432470Y364520D03*
X466530D03*
X661800Y40990D03*
G54D15*
X12670Y182630D03*
Y214050D03*
X661800Y147280D03*
G54D25*
X432470Y380980D03*
X466530D03*
X661800Y58700D03*
G54D16*
X20820Y232010D03*
Y252010D03*
Y273010D03*
Y293010D03*
X523180Y118990D03*
Y138990D03*
X661800Y182710D03*
G54D26*
X478990Y99770D03*
Y114340D03*
Y145840D03*
Y131270D03*
X661800Y5560D03*
G54D17*
X20160Y313990D03*
X34730D03*
X51660D03*
X66230D03*
X661800Y23270D03*
G54D27*
X522370Y208060D03*
Y225940D03*
Y218060D03*
Y235940D03*
Y273060D03*
Y290940D03*
Y283060D03*
Y300940D03*
Y355940D03*
Y348060D03*
Y338060D03*
Y365940D03*
X661800Y271280D03*
G54D18*
X29000Y374000D03*
X40530Y138030D03*
Y156970D03*
X48000Y229740D03*
Y225740D03*
Y249740D03*
Y245740D03*
Y241740D03*
Y237740D03*
Y233740D03*
Y253740D03*
X59000Y37500D03*
X54880Y137120D03*
X51000Y139500D03*
X55380Y157880D03*
X68000Y225740D03*
X64000D03*
Y229740D03*
X68000D03*
X60000D03*
Y225740D03*
X56000D03*
Y229740D03*
X52000D03*
Y225740D03*
X64000Y233740D03*
X68000D03*
Y241740D03*
Y237740D03*
X64000D03*
Y241740D03*
X60000D03*
Y237740D03*
Y233740D03*
X56000D03*
Y237740D03*
Y241740D03*
X52000D03*
Y237740D03*
Y233740D03*
X68000Y249740D03*
X64000D03*
X60000D03*
X56000D03*
X52000D03*
Y245740D03*
X56000D03*
X60000D03*
X64000D03*
X68000D03*
Y253740D03*
X64000D03*
X60000D03*
X56000D03*
X52000D03*
X91000Y37000D03*
X72000D03*
X89500Y80000D03*
X85500D03*
Y84000D03*
X89500D03*
X72380Y95880D03*
X85500Y88000D03*
X89500D03*
Y92000D03*
Y96000D03*
Y100000D03*
X85500D03*
Y96000D03*
Y92000D03*
X89500Y104000D03*
X85500D03*
X82620Y95880D03*
X72380Y115880D03*
X87000Y114500D03*
X92120Y127380D03*
X84380Y159880D03*
X79050Y159950D03*
X84500Y173000D03*
X88500D03*
Y177000D03*
Y181000D03*
X84500D03*
X80500D03*
Y177000D03*
Y173000D03*
X84500Y177000D03*
X80500Y207000D03*
X88500D03*
X84500D03*
X78050Y193950D03*
X88500Y215000D03*
X84500D03*
X80500D03*
Y211000D03*
X88500D03*
X84500D03*
X72000Y229740D03*
Y225740D03*
X76000D03*
Y229740D03*
X72000Y233740D03*
Y237740D03*
Y241740D03*
X76000Y233740D03*
Y237740D03*
Y241740D03*
Y245740D03*
Y249740D03*
X72000D03*
Y245740D03*
X92000Y257500D03*
Y261500D03*
Y265500D03*
Y269500D03*
Y253500D03*
X76000Y253740D03*
X72000D03*
X112500Y39500D03*
X97500Y49000D03*
X104000Y78500D03*
X108000D03*
Y82500D03*
Y74500D03*
X104000D03*
X108560Y106000D03*
X102000Y96000D03*
X101750Y99000D03*
X99000Y96000D03*
X93000D03*
X96000D03*
X93000Y103000D03*
X96000D03*
X99000D03*
Y100000D03*
X93000D03*
X104620Y91120D03*
X109670D03*
X102950Y123050D03*
X107620Y118380D03*
X96000Y109000D03*
X99000D03*
X93000D03*
Y114500D03*
X96000D03*
X99000D03*
X107510Y123990D03*
X104000Y149500D03*
X94380Y182380D03*
X99500Y179000D03*
X95250Y204250D03*
X94380Y215880D03*
X99500Y213000D03*
X113000Y210500D03*
X101000Y240000D03*
X108000Y257500D03*
X104000D03*
X100000D03*
X96000D03*
Y261500D03*
X100000D03*
X104000D03*
X108000D03*
Y269500D03*
Y265500D03*
X104000D03*
Y269500D03*
X96000Y265500D03*
X100000D03*
Y269500D03*
X96000D03*
Y253500D03*
X104000Y273500D03*
X109500Y324500D03*
X113500Y123500D03*
Y119500D03*
X113550Y116500D03*
X133250Y142500D03*
X119500Y138000D03*
X115500Y154500D03*
X114000Y179000D03*
X121000Y171000D03*
X114000Y175000D03*
X114500Y206500D03*
X127000Y213000D03*
X131000D03*
X123000D03*
X131000Y217000D03*
X123000D03*
X131000Y221000D03*
X127000D03*
X123000D03*
X120000Y279000D03*
X130620Y291880D03*
X125500Y324500D03*
X121500D03*
X117500D03*
X113500D03*
X126000Y354000D03*
X132620Y368000D03*
X129380Y363380D03*
X128000Y368500D03*
X149500Y27000D03*
X140500D03*
X151000Y40500D03*
Y36500D03*
Y38500D03*
X148000Y40500D03*
Y38500D03*
Y36500D03*
X142000Y38500D03*
Y36500D03*
Y40500D03*
X147000Y24000D03*
X142000D03*
X147000Y30000D03*
X142500D03*
X151000Y24000D03*
X151500Y30000D03*
X144000Y148000D03*
Y158000D03*
X154000Y160000D03*
Y186000D03*
X134500Y169000D03*
X143000Y223000D03*
X152000Y228000D03*
Y224000D03*
X148000Y228000D03*
Y224000D03*
X140000Y228000D03*
Y224000D03*
X144000Y228000D03*
X152000Y232000D03*
X148000D03*
X144000D03*
Y236000D03*
Y240000D03*
X140000D03*
Y236000D03*
Y232000D03*
X147500Y313000D03*
X149990Y303500D03*
X147500Y307000D03*
X154440Y341440D03*
X144000Y363500D03*
X158500Y27000D03*
X167500D03*
X160000Y40500D03*
Y36500D03*
Y38500D03*
X166000Y36500D03*
Y38500D03*
Y40500D03*
X169000D03*
Y36500D03*
Y38500D03*
X175000Y40500D03*
Y38500D03*
Y36500D03*
X157000D03*
Y38500D03*
Y40500D03*
X174500Y30000D03*
X169000Y24000D03*
X174500D03*
X169500Y30000D03*
X156000Y24000D03*
Y30000D03*
X165000Y24000D03*
X160000D03*
X165000Y30000D03*
X160500D03*
X162500Y154500D03*
X158000Y150000D03*
X170000Y148620D03*
X160050Y189550D03*
X164500Y200000D03*
X169720Y201500D03*
X167160Y198000D03*
X172280Y199000D03*
X174840Y202000D03*
X172000Y216380D03*
X156000Y228000D03*
X160000D03*
Y231000D03*
X156000Y225000D03*
Y231000D03*
X160000Y225000D03*
X172500Y223000D03*
Y227000D03*
Y231000D03*
X164500Y251500D03*
X157500D03*
X172500Y235000D03*
Y239000D03*
Y243000D03*
Y251000D03*
Y247000D03*
X168500D03*
Y251000D03*
X157500Y256000D03*
X161000D03*
X164500D03*
X172500Y267000D03*
Y263000D03*
Y259000D03*
Y255000D03*
X168500D03*
Y259000D03*
Y263000D03*
Y267000D03*
X173000Y293000D03*
X163500D03*
X166500D03*
X159040Y303500D03*
X163050Y309000D03*
X165500Y315500D03*
X171500Y365500D03*
X159000D03*
X167000D03*
X176500Y144450D03*
X192500Y159000D03*
X196000Y160500D03*
X193000Y165500D03*
X179500Y154500D03*
X187000Y173000D03*
X186000Y198620D03*
X177500Y199000D03*
X179960Y202000D03*
X176500Y231000D03*
Y227000D03*
Y223000D03*
Y235000D03*
Y239000D03*
Y243000D03*
Y247000D03*
Y251000D03*
Y255000D03*
Y259000D03*
Y263000D03*
Y267000D03*
X194000Y291500D03*
Y288500D03*
Y285000D03*
X190500D03*
Y288500D03*
Y291500D03*
X195820Y310180D03*
Y314180D03*
X191820Y310180D03*
Y314180D03*
X183820Y310180D03*
Y314180D03*
X191820Y306180D03*
X183820D03*
X191820Y302180D03*
X183820D03*
X195820Y318180D03*
X191820D03*
X183820D03*
X188000Y330500D03*
X203500Y27000D03*
X212500D03*
X214000Y40500D03*
Y36500D03*
Y38500D03*
X211000Y40500D03*
Y38500D03*
Y36500D03*
X205000Y38500D03*
Y36500D03*
Y40500D03*
X210000Y24000D03*
X205000D03*
X210000Y30000D03*
X205500D03*
X214000Y24000D03*
X214500Y30000D03*
X208030Y151940D03*
X213000Y158000D03*
X206000D03*
X200500Y189000D03*
Y185000D03*
X207500Y180000D03*
X203500Y175000D03*
X199000D03*
X207500D03*
X214500Y181500D03*
Y184500D03*
X216000Y198620D03*
X201000Y222000D03*
X210000Y231000D03*
Y223000D03*
Y227000D03*
X214000Y224000D03*
Y230000D03*
Y227000D03*
X206000Y231000D03*
Y223000D03*
Y227000D03*
X202000Y231000D03*
X198000D03*
Y227000D03*
Y223000D03*
X202000Y227000D03*
X215500Y250500D03*
X202000Y235000D03*
Y239000D03*
X198000D03*
Y235000D03*
X215500Y255000D03*
X197500Y285000D03*
Y288500D03*
Y291500D03*
X205380Y286000D03*
X199820Y310180D03*
Y314180D03*
X203820Y310180D03*
Y314180D03*
X207820Y310180D03*
Y314180D03*
X211820Y310180D03*
Y314180D03*
X215820D03*
Y310180D03*
Y302180D03*
X199820Y318180D03*
X203820D03*
X207820D03*
X211820D03*
X215820D03*
X221500Y27000D03*
X230500D03*
X223000Y40500D03*
Y36500D03*
Y38500D03*
X229000Y36500D03*
Y38500D03*
Y40500D03*
X238000D03*
Y38500D03*
Y36500D03*
X232000Y40500D03*
Y36500D03*
Y38500D03*
X220000Y36500D03*
Y38500D03*
Y40500D03*
X237500Y30000D03*
X232000Y24000D03*
X237500D03*
X232500Y30000D03*
X219000Y24000D03*
Y30000D03*
X228000Y24000D03*
X223000D03*
X228000Y30000D03*
X223500D03*
X234500Y142980D03*
X218500Y155500D03*
X217380Y168120D03*
X225920Y155920D03*
X220620Y165500D03*
X223110Y185110D03*
X217500Y184500D03*
Y181640D03*
X233000Y201500D03*
X238000D03*
X236000Y220000D03*
Y216000D03*
X232000Y220000D03*
Y216000D03*
X224620Y215380D03*
X237000Y247000D03*
Y243500D03*
X222500Y250500D03*
X227000D03*
X222500Y255000D03*
X219000D03*
X233000Y261000D03*
X227000Y255000D03*
X222000Y284000D03*
X226000D03*
X230000D03*
X222000Y292000D03*
Y288000D03*
X226000D03*
X230000D03*
Y292000D03*
X226000D03*
X219820Y310180D03*
Y314180D03*
X222000Y296000D03*
X230000D03*
X226000D03*
X219820Y318180D03*
X255000Y156000D03*
X240000Y153500D03*
X253000Y166000D03*
X250120Y171620D03*
X246500Y172000D03*
X258000Y201500D03*
X248000D03*
X253000D03*
X243000D03*
X253000Y210000D03*
X240000Y220000D03*
Y216000D03*
X252000Y229000D03*
Y225000D03*
X248000Y221000D03*
Y225000D03*
Y229000D03*
X258500Y219000D03*
X241000Y247000D03*
Y243500D03*
X252000Y249000D03*
Y245000D03*
Y241000D03*
Y237000D03*
Y233000D03*
X249500Y272600D03*
X248000Y261000D03*
Y257000D03*
X252000Y261000D03*
Y257000D03*
Y253000D03*
X257850Y264500D03*
Y267490D03*
X253000Y270550D03*
X257000Y270500D03*
X240000Y281350D03*
X249500Y285000D03*
Y281000D03*
X246620Y303380D03*
X258000Y342500D03*
X275500Y27000D03*
X266500D03*
X277000Y40500D03*
Y36500D03*
Y38500D03*
X268000Y40500D03*
Y36500D03*
Y38500D03*
X274000Y36500D03*
Y38500D03*
Y40500D03*
X273000Y24000D03*
X268000D03*
X273000Y30000D03*
X268500D03*
X277000Y24000D03*
X277500Y30000D03*
X279620Y163500D03*
X260000Y167500D03*
Y183000D03*
X269560Y188940D03*
X265000Y193500D03*
X269450Y229500D03*
X259950Y222000D03*
X274000Y230500D03*
X265950Y224900D03*
X269450Y232680D03*
X269000Y237000D03*
X269400Y248500D03*
X264900Y238500D03*
X259900Y232500D03*
X266000Y233000D03*
X278500Y240500D03*
X264670Y242280D03*
X277000Y289000D03*
X265000Y286500D03*
X265800Y281200D03*
X279000Y294330D03*
X269500D03*
X272000Y297000D03*
X264400Y308000D03*
X260000Y305000D03*
Y296000D03*
X268950Y322000D03*
X268000Y351500D03*
X295000Y40500D03*
Y36500D03*
Y38500D03*
X286000Y40500D03*
Y36500D03*
Y38500D03*
X292000Y36500D03*
Y38500D03*
Y40500D03*
X284500Y27000D03*
X293500D03*
X283000Y36500D03*
Y38500D03*
Y40500D03*
X282000Y24000D03*
Y30000D03*
X291000Y24000D03*
X286000D03*
X291000Y30000D03*
X286500D03*
X300500D03*
X295000Y24000D03*
X300500D03*
X295500Y30000D03*
X297000Y144500D03*
X289500D03*
X298160Y168000D03*
X295100Y158690D03*
X293000Y150000D03*
X300000D03*
X290480Y181020D03*
X288000Y201500D03*
X298000D03*
X293000D03*
X283000D03*
X288750Y210250D03*
X297100Y229000D03*
X293500D03*
X281000Y230500D03*
X285500Y210500D03*
X281000Y227500D03*
Y251360D03*
X299300Y239550D03*
X297000Y241950D03*
X286500Y258000D03*
X280380Y260620D03*
X286000Y284080D03*
X287150Y307000D03*
X280500Y310000D03*
X300000Y322500D03*
X285000Y348000D03*
X289000Y351500D03*
X301000Y40500D03*
Y38500D03*
Y36500D03*
X302000Y119500D03*
X315000Y150000D03*
X302500Y168000D03*
X318500Y150500D03*
X321050Y155500D03*
X315000Y158250D03*
X308000Y150000D03*
X312300D03*
X318000Y201500D03*
X303000D03*
X313000D03*
X308000D03*
X314500Y231050D03*
X308050Y222500D03*
X301350D03*
X314000Y218400D03*
X317000Y224900D03*
X320000Y237000D03*
X313500Y243000D03*
X307000Y241500D03*
X304000Y241950D03*
X313500Y272450D03*
X317500Y279500D03*
Y276500D03*
X311050Y279000D03*
X308000Y304050D03*
X301000Y297000D03*
X321500Y299500D03*
X318380Y322120D03*
X315600Y334000D03*
Y328500D03*
X301500Y333000D03*
X313160Y318840D03*
X312000Y339500D03*
X315600Y338000D03*
X301500Y337000D03*
X317000Y342000D03*
X337000Y36500D03*
Y38500D03*
Y40500D03*
X331000D03*
Y38500D03*
Y36500D03*
X329500Y27000D03*
X338500D03*
X340000Y40500D03*
Y38500D03*
Y36500D03*
X336000Y30000D03*
X331500D03*
X336000Y24000D03*
X331000D03*
X340500Y30000D03*
X340000Y24000D03*
X324500Y126500D03*
X332500Y164000D03*
X327550Y159500D03*
X327580Y156570D03*
X340990Y154000D03*
X323450Y178000D03*
X337000Y172000D03*
X323000Y201500D03*
X324000Y206550D03*
X342050Y192000D03*
X324890Y230500D03*
X322500Y229000D03*
X332500Y225500D03*
X335000Y222500D03*
X334950Y219500D03*
X330500Y218400D03*
X339000Y238000D03*
X330500Y237000D03*
X329500Y243500D03*
X335000Y267000D03*
X330000D03*
X328550Y289500D03*
X335050Y278500D03*
X330000Y276500D03*
X325000Y299500D03*
X340000Y322750D03*
X335000D03*
Y331000D03*
X340000D03*
X332400Y330000D03*
Y334000D03*
X324000Y342000D03*
X330920D03*
X337500Y345500D03*
X358000Y40500D03*
Y38500D03*
Y36500D03*
X349000Y40500D03*
X355000Y36500D03*
Y38500D03*
Y40500D03*
X349000Y38500D03*
Y36500D03*
X347500Y27000D03*
X356500D03*
X346000Y36500D03*
Y38500D03*
Y40500D03*
X345000Y30000D03*
Y24000D03*
X349500Y30000D03*
X354000D03*
Y24000D03*
X349000D03*
X358500Y30000D03*
X358000Y24000D03*
X351000Y153500D03*
X354000Y151450D03*
X350000Y179500D03*
X361550Y215000D03*
X361730Y211920D03*
X352000Y246500D03*
Y238000D03*
X348000D03*
X343000D03*
X363000Y242000D03*
X358500Y272190D03*
Y269500D03*
X348500Y286500D03*
X359000Y307620D03*
X348690Y295810D03*
X361050Y314500D03*
X359000Y316500D03*
X352500Y335000D03*
X350450Y333000D03*
X356600Y335000D03*
X356750Y330250D03*
X344000Y339000D03*
X364000Y36500D03*
Y38500D03*
Y40500D03*
X363500Y30000D03*
Y24000D03*
X364000Y118500D03*
X367000Y144400D03*
X364500Y159000D03*
X364450Y163500D03*
X369500Y152500D03*
X368550Y209000D03*
X363500Y228500D03*
X366950Y214060D03*
X363500Y231500D03*
X378500Y258500D03*
X378550Y255500D03*
X366050Y291000D03*
X373000Y285050D03*
X364000Y293760D03*
X375450Y282950D03*
X367000Y302000D03*
X373500Y297500D03*
Y301000D03*
X375500Y331000D03*
X374520Y319480D03*
X383480D03*
X378950Y335950D03*
X392500Y27000D03*
X401500D03*
X403000Y40500D03*
Y36500D03*
Y38500D03*
X394000Y40500D03*
Y36500D03*
Y38500D03*
X400000Y36500D03*
Y38500D03*
Y40500D03*
X399000Y30000D03*
Y24000D03*
X394000D03*
X394500Y30000D03*
X403000Y24000D03*
X403500Y30000D03*
X404000Y202620D03*
X394000Y215050D03*
X388500Y224000D03*
X397500Y227500D03*
X388000Y220000D03*
X391000Y246500D03*
X401500Y263500D03*
X402500Y285500D03*
X394520D03*
X397000Y275500D03*
X394250Y273250D03*
X385000Y284000D03*
Y287000D03*
X390000Y310000D03*
Y303500D03*
X403000Y294500D03*
X394500Y294000D03*
X394000Y315000D03*
X401500D03*
X401650Y335950D03*
X410500Y27000D03*
X419500D03*
X412000Y40500D03*
Y36500D03*
Y38500D03*
X418000Y36500D03*
Y38500D03*
Y40500D03*
X421000D03*
Y36500D03*
Y38500D03*
X409000Y36500D03*
Y38500D03*
Y40500D03*
X421000Y24000D03*
X421500Y30000D03*
X408000D03*
Y24000D03*
X417000Y30000D03*
Y24000D03*
X412000D03*
X412500Y30000D03*
X423120Y157380D03*
X419000Y195500D03*
X414000Y215050D03*
X407000Y227500D03*
X415000Y241000D03*
Y237500D03*
X407500Y251500D03*
X416950Y261500D03*
X405160Y263500D03*
X425000Y253000D03*
X424500Y268000D03*
X417960Y285910D03*
X407500Y310500D03*
Y304000D03*
X418000Y305000D03*
X420880Y302620D03*
X418000Y296500D03*
X427000Y40500D03*
Y38500D03*
Y36500D03*
X426500Y30000D03*
Y24000D03*
X446480Y52020D03*
X433500Y124000D03*
X446000Y151000D03*
X430000Y160620D03*
X437500Y200000D03*
Y196000D03*
X427500Y227500D03*
Y222500D03*
X429500Y217000D03*
X435500Y223000D03*
X437500Y210500D03*
X427500Y237500D03*
Y232500D03*
X444500Y266000D03*
X445000Y292500D03*
X431500Y290000D03*
Y286000D03*
X427050Y310550D03*
Y294000D03*
Y304000D03*
X445000Y303000D03*
X443620Y312380D03*
X437000Y331000D03*
Y333500D03*
X435000Y321000D03*
X441000D03*
X430000Y318000D03*
X454520Y56480D03*
X463480Y51020D03*
X464500Y68500D03*
Y100500D03*
Y88000D03*
X458500Y116500D03*
X457000Y156500D03*
X457500Y172500D03*
Y177500D03*
Y197500D03*
X457550Y203500D03*
X449000Y199000D03*
X455000Y209000D03*
X462000D03*
Y217500D03*
X455030D03*
X457000Y244500D03*
X452000Y260000D03*
X466500Y262380D03*
X448000Y268000D03*
X456000Y260000D03*
X466500Y265620D03*
X453000Y281000D03*
X457000D03*
Y285000D03*
X453000D03*
X449000D03*
Y281000D03*
Y277000D03*
X453000D03*
X457000D03*
X462000Y314500D03*
X464000Y304000D03*
X456000Y298000D03*
Y301500D03*
X456750Y321130D03*
X462000Y318000D03*
X458000D03*
X459000Y329000D03*
X463000Y321000D03*
X470620Y51120D03*
X477120Y82620D03*
X472000Y67550D03*
X479500Y162000D03*
X471000D03*
X467500Y177500D03*
X473380Y184500D03*
X488000Y183000D03*
X484000Y206500D03*
Y212500D03*
Y264500D03*
Y258500D03*
X473000Y272000D03*
X470000Y257000D03*
X468550Y268000D03*
X484000Y270500D03*
X473000Y278000D03*
X476500Y290500D03*
X484000Y276500D03*
X480000Y310000D03*
Y314000D03*
X484000Y310000D03*
X476000D03*
Y314000D03*
X472000Y310000D03*
X475600Y295500D03*
X482500Y326500D03*
Y332500D03*
X476500D03*
Y326500D03*
X470500Y332500D03*
X486000Y328000D03*
X506120Y38500D03*
X507000Y56750D03*
X498000Y72500D03*
X490000Y65000D03*
X489000Y78000D03*
X499000Y65000D03*
X492500Y168000D03*
X491500Y189000D03*
X490000Y206500D03*
X506000Y229500D03*
Y214500D03*
X490000Y212500D03*
X508000Y246500D03*
X502000D03*
Y240500D03*
Y234500D03*
X496000D03*
Y240500D03*
Y246500D03*
Y264500D03*
X502000D03*
X508000D03*
Y258500D03*
Y252500D03*
X496000Y258500D03*
X502000D03*
Y252500D03*
X496000D03*
X490000Y270500D03*
X506000Y280000D03*
X490000Y276500D03*
X506000Y294000D03*
X500000D03*
Y300000D03*
X494000D03*
X495000Y310000D03*
Y306000D03*
X499000Y310000D03*
Y306000D03*
X500500Y319500D03*
Y325500D03*
Y331500D03*
X494500Y332500D03*
X488500D03*
X506000Y344500D03*
Y359500D03*
X516000Y39500D03*
Y53000D03*
X513380Y55620D03*
X511000Y61500D03*
X513000Y78500D03*
X519000Y175000D03*
X533500Y83000D03*
X539170Y109830D03*
X534000Y107000D03*
X661800Y342140D03*
G54D28*
X533000Y196130D03*
Y247870D03*
Y261130D03*
Y312870D03*
Y326130D03*
Y377870D03*
X661800Y129560D03*
G54D19*
X85270Y58980D03*
X85280Y348890D03*
X414410D03*
X499050Y18400D03*
X661800Y111850D03*
G54D29*
X538380Y63650D03*
Y70350D03*
Y91650D03*
Y98350D03*
X661800Y76420D03*
M02*
