G04 ================== begin FILE IDENTIFICATION RECORD ==================*
G04 Layout Name:  D:/MaxRuan/Projects/SPB/K1_MAX_MB/MainBoard/PCB/CATALYSTK_260107.brd*
G04 Film Name:    pasttop*
G04 File Format:  Gerber RS274X*
G04 File Origin:  Cadence Allegro 17.2-S071*
G04 Origin Date:  Mon Jan 12 17:40:34 2026*
G04 *
G04 Layer:  BOARD GEOMETRY/OUTLINE*
G04 Layer:  VIA CLASS/PASTEMASK_TOP*
G04 Layer:  PIN/PASTEMASK_TOP*
G04 Layer:  PACKAGE GEOMETRY/PASTEMASK_TOP*
G04 Layer:  BOARD GEOMETRY/SPELL*
G04 *
G04 Offset:    (0.0 0.0)*
G04 Mirror:    No*
G04 Mode:      Positive*
G04 Rotation:  0*
G04 FullContactRelief:  No*
G04 UndefLineWidth:     6.0*
G04 ================== end FILE IDENTIFICATION RECORD ====================*
%FSLAX25Y25*MOIN*%
%IR0*IPPOS*OFA0.00000B0.00000*MIA0B0*SFA1.00000B1.00000*%
%ADD24R,.1114X.048*%
%ADD38R,.0638X.122*%
%ADD32R,.098X.134*%
%ADD27R,.159X.0552*%
%ADD61R,.0098X.0258*%
%ADD53R,.0258X.0098*%
%ADD19R,.1299X.0866*%
%AMMACRO64*
4,1,5,.0049,.0128,
.0049,-.0079,
0.0,-.0128,
-.0049,-.0128,
-.0049,.0128,
.0049,.0128,
0.0*
%
%ADD64MACRO64*%
%AMMACRO63*
4,1,5,.0049,-.0128,
0.0,-.0128,
-.0049,-.0079,
-.0049,.0128,
.0049,.0128,
.0049,-.0128,
0.0*
%
%ADD63MACRO63*%
%AMMACRO59*
4,1,5,.0128,-.0049,
-.0079,-.0049,
-.0128,0.0,
-.0128,.0049,
.0128,.0049,
.0128,-.0049,
0.0*
%
%ADD59MACRO59*%
%AMMACRO58*
4,1,5,-.0128,-.0049,
-.0128,0.0,
-.0079,.0049,
.0128,.0049,
.0128,-.0049,
-.0128,-.0049,
0.0*
%
%ADD58MACRO58*%
%ADD57R,.0102X.052*%
%ADD69R,.02X.018*%
%ADD49R,.018X.02*%
%ADD36R,.0402X.015*%
%ADD28C,.04*%
%ADD65R,.0232X.0441*%
%ADD68R,.0441X.0232*%
%ADD37R,.0152X.054*%
%ADD42R,.045X.035*%
%ADD34R,.0102X.0339*%
%ADD10R,.04X.04*%
%ADD66R,.0224X.0472*%
%ADD67R,.0472X.0224*%
%ADD45R,.0141X.0349*%
%ADD43R,.197X.126*%
%ADD31R,.0142X.0339*%
%ADD14R,.0228X.0226*%
%ADD71R,.0551X.0551*%
%ADD55R,.0118X.0472*%
%ADD40R,.024X.0476*%
%ADD18R,.034X.034*%
%ADD16R,.0226X.0228*%
%ADD11R,.0366X.0323*%
%ADD56R,.0236X.0472*%
%ADD46R,.0102X.0579*%
%ADD29R,.0323X.0366*%
%ADD70R,.0472X.0551*%
%ADD47R,.0579X.0102*%
%ADD15R,.0276X.0217*%
%ADD51R,.0752X.0236*%
%ADD48R,.0433X.0394*%
%ADD26R,.0217X.0276*%
%ADD44R,.0653X.0256*%
%ADD22R,.0197X.0236*%
%AMMACRO21*
4,1,6,.0423,-.0467,
-.0423,-.0467,
-.0423,-.0309,
-.0246,-.0309,
-.0246,.0467,
.0423,.0467,
.0423,-.0467,
0.0*
%
%ADD21MACRO21*%
%ADD20R,.0276X.0157*%
%ADD25R,.0717X.0457*%
%ADD17R,.0362X.0299*%
%ADD33R,.0457X.0717*%
%ADD23R,.0299X.0362*%
%ADD12R,.0543X.0299*%
%ADD50R,.0248X.0685*%
%ADD39R,.0299X.0543*%
%ADD35R,.0236X.0689*%
%ADD41R,.0689X.0236*%
%ADD13R,.3565X.3737*%
%AMMACRO62*
4,1,5,-.0049,-.0128,
-.0049,.0079,
0.0,.0128,
.0049,.0128,
.0049,-.0128,
-.0049,-.0128,
0.0*
%
%ADD62MACRO62*%
%AMMACRO60*
4,1,5,-.0049,.0128,
0.0,.0128,
.0049,.0079,
.0049,-.0128,
-.0049,-.0128,
-.0049,.0128,
0.0*
%
%ADD60MACRO60*%
%AMMACRO54*
4,1,5,-.0128,.0049,
.0079,.0049,
.0128,0.0,
.0128,-.0049,
-.0128,-.0049,
-.0128,.0049,
0.0*
%
%ADD54MACRO54*%
%AMMACRO52*
4,1,5,.0128,.0049,
.0128,0.0,
.0079,-.0049,
-.0128,-.0049,
-.0128,.0049,
.0128,.0049,
0.0*
%
%ADD52MACRO52*%
%ADD30R,.0748X.0669*%
%ADD72C,.006*%
G75*
%LPD*%
G75*
G36*
G01X53000Y172350D02*
Y165060D01*
X47170D01*
Y172350D01*
X53000D01*
G37*
G36*
G01Y182940D02*
Y175650D01*
X47170D01*
Y182940D01*
X53000D01*
G37*
G36*
G01Y206350D02*
Y199060D01*
X47170D01*
Y206350D01*
X53000D01*
G37*
G36*
G01Y216940D02*
Y209650D01*
X47170D01*
Y216940D01*
X53000D01*
G37*
G36*
G01X61030Y172350D02*
Y165060D01*
X55200D01*
Y172350D01*
X61030D01*
G37*
G36*
G01X69060D02*
Y165060D01*
X63240D01*
Y172350D01*
X69060D01*
G37*
G36*
G01X61030Y182940D02*
Y175650D01*
X55200D01*
Y182940D01*
X61030D01*
G37*
G36*
G01X69060D02*
Y175650D01*
X63240D01*
Y182940D01*
X69060D01*
G37*
G36*
G01X61030Y206350D02*
Y199060D01*
X55200D01*
Y206350D01*
X61030D01*
G37*
G36*
G01X69060D02*
Y199060D01*
X63240D01*
Y206350D01*
X69060D01*
G37*
G36*
G01X61030Y216940D02*
Y209650D01*
X55200D01*
Y216940D01*
X61030D01*
G37*
G36*
G01X69060D02*
Y209650D01*
X63240D01*
Y216940D01*
X69060D01*
G37*
G36*
G01X151040Y227530D02*
X155530D01*
Y224770D01*
X151040D01*
Y227530D01*
G37*
G36*
G01Y231230D02*
X155530D01*
Y228470D01*
X151040D01*
Y231230D01*
G37*
G36*
G01X156470Y227530D02*
X160960D01*
Y224770D01*
X156470D01*
Y227530D01*
G37*
G36*
G01Y231200D02*
X160930D01*
Y228470D01*
X156470D01*
Y231200D01*
G37*
G36*
G01X214470Y226530D02*
X218960D01*
Y223770D01*
X214470D01*
Y226530D01*
G37*
G36*
G01Y230200D02*
X218930D01*
Y227470D01*
X214470D01*
Y230200D01*
G37*
G36*
G01X209040Y226530D02*
X213530D01*
Y223770D01*
X209040D01*
Y226530D01*
G37*
G36*
G01Y230230D02*
X213530D01*
Y227470D01*
X209040D01*
Y230230D01*
G37*
G36*
G01X226470Y287040D02*
Y291530D01*
X229230D01*
Y287040D01*
X226470D01*
G37*
G36*
G01X222770D02*
Y291530D01*
X225530D01*
Y287040D01*
X222770D01*
G37*
G36*
G01X226470Y292470D02*
Y296960D01*
X229230D01*
Y292470D01*
X226470D01*
G37*
G36*
G01X222800D02*
Y296930D01*
X225530D01*
Y292470D01*
X222800D01*
G37*
G36*
G01X448630Y285370D02*
X452250D01*
Y281750D01*
X448630D01*
Y285370D01*
G37*
G36*
G01Y280250D02*
X452250D01*
Y276630D01*
X448630D01*
Y280250D01*
G37*
G36*
G01X453750Y285130D02*
X457130D01*
Y281750D01*
X453750D01*
Y285130D01*
G37*
G36*
G01Y280250D02*
X457370D01*
Y276630D01*
X453750D01*
Y280250D01*
G37*
G54D10*
X24770Y27000D03*
X39230D03*
X36000Y166770D03*
Y181230D03*
Y195770D03*
Y210230D03*
X55000Y40770D03*
Y55230D03*
Y65770D03*
Y80230D03*
Y94770D03*
Y109230D03*
X68000Y117770D03*
Y132230D03*
G54D20*
X82510Y80160D03*
Y82720D03*
X71490D03*
X82510Y85280D03*
Y87840D03*
X71490D03*
Y85280D03*
X82510Y100160D03*
Y102720D03*
Y105280D03*
X71490D03*
Y102720D03*
X82510Y107840D03*
X71490D03*
X104510Y80160D03*
Y82720D03*
X93490D03*
X104510Y85280D03*
Y87840D03*
X93490D03*
Y85280D03*
G54D11*
X44000Y143970D03*
Y138030D03*
Y151030D03*
Y156970D03*
X154000Y32030D03*
Y37970D03*
X145000Y32030D03*
Y37970D03*
X172000Y32030D03*
Y37970D03*
X163000Y32030D03*
Y37970D03*
X217000Y32030D03*
Y37970D03*
X208000Y32030D03*
Y37970D03*
X212000Y177970D03*
Y172030D03*
X235000Y32030D03*
Y37970D03*
X226000Y32030D03*
Y37970D03*
X280000Y32030D03*
Y37970D03*
X271000Y32030D03*
Y37970D03*
X298000Y32030D03*
Y37970D03*
X289000Y32030D03*
Y37970D03*
X334000Y32030D03*
Y37970D03*
X361000Y32030D03*
Y37970D03*
X352000Y32030D03*
Y37970D03*
X343000Y32030D03*
Y37970D03*
X397000Y32030D03*
Y37970D03*
X424000Y32030D03*
Y37970D03*
X415000Y32030D03*
Y37970D03*
X406000Y32030D03*
Y37970D03*
X459000Y309030D03*
Y314970D03*
G54D30*
X135740Y38000D03*
X118260D03*
X181260D03*
X198740D03*
X244260D03*
X261740D03*
X307260D03*
X324740D03*
X370260D03*
X387740D03*
G54D12*
X51000Y137120D03*
Y144880D03*
Y157880D03*
Y150120D03*
G54D21*
X74340Y84040D03*
Y104040D03*
X96340Y84040D03*
G54D13*
X65780Y243000D03*
G54D22*
X84650Y121000D03*
X91350D03*
G54D40*
X195260Y179940D03*
Y170060D03*
X202740Y179940D03*
Y170060D03*
X199000D03*
X239260Y242940D03*
X246740D03*
Y233060D03*
X243000D03*
X239260D03*
X485260Y72060D03*
Y81940D03*
X492740Y72060D03*
X489000Y81940D03*
X492740D03*
G54D31*
X132850Y59340D03*
Y64660D03*
X139150Y59340D03*
Y64660D03*
X202150Y59340D03*
X195850D03*
Y64660D03*
X202150D03*
X265150Y59340D03*
X258850D03*
Y64660D03*
X265150D03*
X328150Y59340D03*
X321850D03*
Y64660D03*
X328150D03*
X391150Y59340D03*
X384850D03*
Y64660D03*
X391150D03*
G54D41*
X215820Y284500D03*
Y289500D03*
Y294500D03*
Y299500D03*
X236180Y289500D03*
Y284500D03*
Y299500D03*
Y294500D03*
G54D50*
X401500Y168570D03*
X396500D03*
X391500D03*
Y189430D03*
X396500D03*
X401500D03*
X421500Y168570D03*
X416500D03*
X411500D03*
X406500D03*
Y189430D03*
X411500D03*
X416500D03*
X421500D03*
X426500Y168570D03*
Y189430D03*
G54D23*
X79050Y157000D03*
X72950D03*
X78050Y191000D03*
X71950D03*
X102950Y245000D03*
X109050D03*
X124950Y306000D03*
X131050D03*
X124950Y299000D03*
X131050D03*
X124950Y313000D03*
X131050D03*
X124950Y320000D03*
X131050D03*
X153950Y193000D03*
X160050D03*
G54D14*
X44000Y333380D03*
Y355380D03*
Y344380D03*
Y347620D03*
Y336620D03*
Y358620D03*
X68000Y49380D03*
Y52620D03*
X67000Y158620D03*
Y155380D03*
X62000Y333380D03*
Y355380D03*
Y347620D03*
Y344380D03*
Y336620D03*
Y358620D03*
X91000Y42620D03*
Y39380D03*
X72000Y42620D03*
Y39380D03*
X84000Y140380D03*
Y143620D03*
X89000Y130620D03*
Y127380D03*
X111000Y42620D03*
Y39380D03*
X104000Y139620D03*
Y136380D03*
Y146620D03*
Y143380D03*
X122000Y339380D03*
Y342620D03*
Y350620D03*
Y347380D03*
X118000Y342620D03*
Y339380D03*
X151000Y145380D03*
X154000Y165620D03*
Y162380D03*
X151000Y148620D03*
X154000Y183620D03*
Y180380D03*
X135000Y216380D03*
Y219620D03*
X143000Y216380D03*
Y219620D03*
X139000D03*
Y216380D03*
X149000Y285380D03*
Y288620D03*
X144000Y357380D03*
Y360620D03*
X167000Y145380D03*
Y148620D03*
X169000Y223380D03*
Y226620D03*
Y216380D03*
Y219620D03*
Y236380D03*
Y239620D03*
X162000Y357380D03*
Y360620D03*
X187000Y167380D03*
Y170620D03*
X183000Y195380D03*
Y198620D03*
X193000Y215380D03*
Y218620D03*
X191000Y326380D03*
Y329620D03*
X214000Y149380D03*
Y152620D03*
X201000Y215380D03*
Y218620D03*
X197000D03*
Y215380D03*
X201000Y284380D03*
Y287620D03*
X230000Y152620D03*
Y149380D03*
X223000Y198620D03*
Y195380D03*
X228000Y198620D03*
Y195380D03*
X233000Y198620D03*
Y195380D03*
X219000Y198620D03*
Y195380D03*
X227000Y222380D03*
Y225620D03*
Y215380D03*
Y218620D03*
Y235380D03*
Y238620D03*
X253000Y171620D03*
Y168380D03*
X238000Y198620D03*
Y195380D03*
X243000Y198620D03*
Y195380D03*
X248000Y198620D03*
Y195380D03*
X253000Y198620D03*
Y195380D03*
X258000D03*
Y198620D03*
X247000Y293380D03*
X243000D03*
X247000Y296620D03*
X243000D03*
X260000Y180620D03*
Y177380D03*
X293000Y155620D03*
Y152380D03*
X300000Y155620D03*
Y152380D03*
X283000Y198620D03*
Y195380D03*
X288000Y198620D03*
Y195380D03*
X293000Y198620D03*
Y195380D03*
X298000Y198620D03*
Y195380D03*
X300000Y328620D03*
Y325380D03*
X315000Y152380D03*
Y155620D03*
X308000D03*
Y152380D03*
X303000Y198620D03*
Y195380D03*
X308000Y198620D03*
Y195380D03*
X313000Y198620D03*
Y195380D03*
X318000D03*
Y198620D03*
X312000Y333380D03*
Y328620D03*
Y325380D03*
Y336620D03*
X323000Y195380D03*
Y198620D03*
X339000Y240380D03*
Y243620D03*
X340000Y328620D03*
Y325380D03*
X335000Y328620D03*
Y325380D03*
X348000Y240380D03*
Y243620D03*
X352000Y240380D03*
Y243620D03*
X343000Y240380D03*
Y243620D03*
X344000Y328620D03*
Y325380D03*
X383000Y202620D03*
Y199380D03*
X392000Y160620D03*
Y157380D03*
X396000Y160620D03*
Y157380D03*
X402000Y160620D03*
Y157380D03*
X401000Y202620D03*
Y199380D03*
X395000D03*
Y202620D03*
X391000Y199380D03*
Y202620D03*
X387000D03*
Y199380D03*
X403000Y255380D03*
Y258620D03*
X406000Y157380D03*
Y160620D03*
X421000Y202620D03*
Y199380D03*
X407000D03*
Y202620D03*
Y258620D03*
Y255380D03*
X418000Y302620D03*
Y299380D03*
X426000Y157380D03*
Y160620D03*
Y202620D03*
Y199380D03*
X441000Y326620D03*
Y323380D03*
X435000Y326620D03*
Y323380D03*
X455000Y176620D03*
Y173380D03*
X462000Y211380D03*
Y214620D03*
X455000Y211380D03*
Y214620D03*
X451000D03*
Y211380D03*
X452000Y262380D03*
Y265620D03*
X448000Y262380D03*
Y265620D03*
X456000D03*
Y262380D03*
X461000Y265620D03*
Y262380D03*
X448000Y307620D03*
Y304380D03*
X452000Y307620D03*
Y304380D03*
X459000Y326620D03*
Y323380D03*
X463000Y326620D03*
Y323380D03*
X482000Y59380D03*
Y62620D03*
X486000Y59380D03*
Y62620D03*
X478000Y59380D03*
Y62620D03*
X480000Y71380D03*
Y74620D03*
Y79380D03*
Y82620D03*
X479000Y318380D03*
Y321620D03*
X507000Y62620D03*
Y59380D03*
X503000D03*
Y62620D03*
X490000Y59380D03*
Y62620D03*
X494000Y59380D03*
Y62620D03*
X499000Y59380D03*
Y62620D03*
X498000Y78620D03*
Y75380D03*
X510000Y36380D03*
Y39620D03*
Y44380D03*
Y47620D03*
Y52380D03*
Y55620D03*
X513000Y75620D03*
Y72380D03*
G54D32*
X125820Y257000D03*
X150180D03*
X183820D03*
X208180D03*
X218820Y335000D03*
X243180D03*
G54D60*
X458510Y273430D03*
G54D33*
X125190Y238000D03*
X136810D03*
X194810Y237000D03*
X183190D03*
X197190Y343000D03*
X208810D03*
G54D51*
X402140Y222500D03*
Y227500D03*
Y232500D03*
Y237500D03*
X421860Y227500D03*
Y222500D03*
Y237500D03*
Y232500D03*
X462140Y167500D03*
Y172500D03*
Y177500D03*
Y182500D03*
X481140Y38500D03*
Y43500D03*
Y48500D03*
Y53500D03*
X481860Y167500D03*
Y182500D03*
Y177500D03*
Y172500D03*
X500860Y38500D03*
Y53500D03*
Y48500D03*
Y43500D03*
G54D15*
X49080Y335000D03*
Y346000D03*
Y357000D03*
X60080Y41000D03*
X67920Y38440D03*
Y43560D03*
X56920Y332440D03*
Y337560D03*
Y348560D03*
Y343440D03*
Y354440D03*
Y359560D03*
X79080Y41000D03*
X86920Y38440D03*
Y43560D03*
X83920Y126440D03*
X76080Y129000D03*
X83920Y131560D03*
X99080Y41000D03*
X106920Y38440D03*
Y43560D03*
X149080Y356440D03*
Y361560D03*
X155080Y147000D03*
X162920Y144440D03*
Y149560D03*
X156920Y359000D03*
X218080Y151000D03*
X225920Y153560D03*
Y148440D03*
G54D42*
X223550Y308380D03*
Y315620D03*
G54D24*
X84300Y165000D03*
Y183000D03*
Y199000D03*
Y217000D03*
G54D52*
X445430Y275490D03*
G54D25*
X96000Y100190D03*
Y111810D03*
X127000Y218190D03*
Y229810D03*
X161000Y264810D03*
Y253190D03*
X185000Y217190D03*
Y228810D03*
X196000Y294190D03*
Y305810D03*
X198000Y322190D03*
Y333810D03*
X219000Y252190D03*
Y263810D03*
X206000Y294190D03*
Y305810D03*
X208000Y322190D03*
Y333810D03*
X485000Y228810D03*
Y217190D03*
Y292810D03*
Y281190D03*
X472000Y314190D03*
Y325810D03*
X485000Y346190D03*
Y357810D03*
G54D70*
X531690Y60700D03*
Y73300D03*
Y88700D03*
Y101300D03*
G54D16*
X63380Y34000D03*
X66620D03*
X63620Y68000D03*
X60380D03*
X63620Y96000D03*
X60380D03*
X63380Y191000D03*
X66620D03*
X82380Y34000D03*
X85620D03*
X82620Y93000D03*
X79380D03*
X72380D03*
X75620D03*
X82620Y113000D03*
X79380D03*
X72380D03*
X75620D03*
X76380Y121000D03*
X79620D03*
X87620Y157000D03*
X84380D03*
X87120Y191500D03*
X83880D03*
X102380Y34000D03*
X105620D03*
X104620Y93000D03*
X101380D03*
X94380D03*
X97620D03*
X107620Y99000D03*
X104380D03*
Y115000D03*
X107620D03*
X101380Y179000D03*
X104620D03*
X94380D03*
X97620D03*
X101380Y213000D03*
X104620D03*
X94380D03*
X97620D03*
X104380Y240000D03*
X107620D03*
X127380Y285000D03*
X130620D03*
Y289000D03*
X127380D03*
X129380Y354000D03*
X132620D03*
Y361000D03*
X129380D03*
X151380Y27000D03*
X142380D03*
X145620D03*
X150380Y140000D03*
X153620D03*
X137620Y230000D03*
X134380D03*
X160380Y27000D03*
X163620D03*
X154620D03*
X169380D03*
X172620D03*
X162620Y247000D03*
X159380D03*
X195620Y229000D03*
X192380D03*
X214380Y27000D03*
X205380D03*
X208620D03*
X213380Y140000D03*
X216620D03*
X208620Y288000D03*
X205380D03*
X208620Y284000D03*
X205380D03*
X232380Y27000D03*
X235620D03*
X223380D03*
X226620D03*
X217620D03*
X220620Y171000D03*
X217380D03*
X220620Y175000D03*
X217380D03*
X220620Y179000D03*
X217380D03*
X220620Y246000D03*
X217380D03*
X243380Y289000D03*
X246620D03*
X243380Y285000D03*
X246620D03*
Y281000D03*
X243380D03*
Y301000D03*
X246620D03*
X277380Y27000D03*
X268380D03*
X271620D03*
X276620Y140000D03*
X273380D03*
X276380Y167000D03*
Y185000D03*
X295380Y27000D03*
X298620D03*
X286380D03*
X289620D03*
X280620D03*
X279620Y167000D03*
Y185000D03*
X280380Y258000D03*
X283620D03*
X280380Y263000D03*
X283620D03*
X280380Y254000D03*
X283620D03*
Y289000D03*
X280380D03*
Y307000D03*
X283620D03*
X307620Y325000D03*
X304380D03*
X307620Y329000D03*
X304380D03*
X318380Y325000D03*
X307620Y333000D03*
X304380D03*
Y337000D03*
X307620D03*
X340380Y27000D03*
X331380D03*
X334620D03*
X339620Y140000D03*
X336380D03*
X329620Y325000D03*
X326380D03*
X321620D03*
X358380Y27000D03*
X361620D03*
X349380D03*
X352620D03*
X343620D03*
X366620Y305000D03*
X363380D03*
X403380Y27000D03*
X394380D03*
X397620D03*
X402620Y140000D03*
X399380D03*
X391380Y224000D03*
X394620D03*
X391380Y229000D03*
X394620D03*
X391380Y237000D03*
X394620D03*
X391380Y233000D03*
X394620D03*
X391380Y241000D03*
X394620D03*
X393380Y298000D03*
X396620D03*
X401380D03*
X421380Y27000D03*
X424620D03*
X412380D03*
X415620D03*
X406620D03*
X404620Y298000D03*
X413620Y310000D03*
X410380D03*
X434380Y286000D03*
X437620D03*
Y290000D03*
X434380D03*
Y309000D03*
X437620D03*
X461620Y304000D03*
X458380D03*
X461620Y300000D03*
X458380D03*
X467380Y54000D03*
X470620D03*
Y58000D03*
X467380D03*
X473380Y162000D03*
X476620D03*
X473380Y188000D03*
X476620D03*
X467380Y272000D03*
X470620D03*
Y278000D03*
X467380D03*
X495380Y168000D03*
X498620D03*
X494380Y189000D03*
X497620D03*
X495380Y220000D03*
X498620D03*
X495380Y224000D03*
X498620D03*
X495380Y285000D03*
X498620D03*
X495380Y289000D03*
X498620D03*
X488380Y328000D03*
X491620D03*
X495380Y350000D03*
X498620D03*
X495380Y354000D03*
X498620D03*
G54D43*
X238850Y312000D03*
G54D34*
X136980Y59340D03*
X135020D03*
Y64660D03*
X136980D03*
X199980Y59340D03*
X198020D03*
Y64660D03*
X199980D03*
X262980Y59340D03*
X261020D03*
Y64660D03*
X262980D03*
X325980Y59340D03*
X324020D03*
Y64660D03*
X325980D03*
X388980Y59340D03*
X387020D03*
Y64660D03*
X388980D03*
G54D61*
X456940Y273430D03*
X455360D03*
X453790D03*
X452210D03*
X450640D03*
X449060D03*
Y288570D03*
X450640D03*
X452210D03*
X453790D03*
X455360D03*
X456940D03*
G54D62*
X447490Y273430D03*
G54D35*
X153500Y217820D03*
X148500D03*
Y238180D03*
X153500D03*
X163500Y217820D03*
X158500D03*
Y238180D03*
X163500D03*
X216500Y216820D03*
X211500D03*
X206500D03*
Y237180D03*
X211500D03*
X216500D03*
X221500Y216820D03*
Y237180D03*
G54D17*
X62000Y55050D03*
Y48950D03*
Y79050D03*
Y72950D03*
Y101950D03*
Y108050D03*
X412000Y298950D03*
Y305050D03*
G54D44*
X259030Y324500D03*
Y329500D03*
X288970D03*
Y324500D03*
G54D26*
X106000Y103080D03*
X103440Y110920D03*
X108560D03*
X278000Y173080D03*
X275440Y180920D03*
X280560D03*
G54D71*
X539170Y56370D03*
Y77630D03*
Y84370D03*
Y105630D03*
G54D53*
X445430Y277060D03*
Y278640D03*
Y280210D03*
Y281790D03*
Y283360D03*
Y284940D03*
X460570D03*
Y283360D03*
Y281790D03*
Y280210D03*
Y278640D03*
Y277060D03*
G54D72*
G01X70Y385740D02*
Y-90D01*
X543380D01*
Y385740D01*
X70D01*
G54D54*
X445430Y286510D03*
G54D18*
X69500Y142000D03*
X78500Y138250D03*
Y145750D03*
X89500Y142000D03*
X98500Y138250D03*
Y145750D03*
X99000Y164500D03*
X102750Y173500D03*
X95250D03*
X102750Y207500D03*
X95250D03*
X99000Y198500D03*
X126500Y348750D03*
Y341250D03*
X135500Y345000D03*
X506500Y178750D03*
Y171250D03*
X515500Y175000D03*
G54D45*
X269560Y175210D03*
X267000D03*
X264440D03*
Y182790D03*
X267000D03*
X269560D03*
G54D36*
X143760Y289560D03*
Y287000D03*
Y284440D03*
X136240D03*
Y287000D03*
Y289560D03*
X143240Y341440D03*
Y344000D03*
Y346560D03*
X150760D03*
Y344000D03*
Y341440D03*
G54D63*
X447490Y288570D03*
G54D27*
X106090Y253000D03*
Y233000D03*
G54D46*
X299380Y253760D03*
Y314240D03*
X319060Y253760D03*
X317090D03*
X315130D03*
X313160D03*
X311190D03*
X309220D03*
X307250D03*
X305280D03*
X303310D03*
X301350D03*
Y314240D03*
X303310D03*
X305280D03*
X307250D03*
X309220D03*
X311190D03*
X313160D03*
X315130D03*
X317090D03*
X319060D03*
X340720Y253760D03*
X338750D03*
X336780D03*
X334810D03*
X332840D03*
X330870D03*
X328910D03*
X326940D03*
X324970D03*
X323000D03*
X321030D03*
Y314240D03*
X323000D03*
X324970D03*
X326940D03*
X328910D03*
X330870D03*
X332840D03*
X334810D03*
X336780D03*
X338750D03*
X340720D03*
X346620Y253760D03*
X344650D03*
X342690D03*
Y314240D03*
X344650D03*
X346620D03*
G54D55*
X444580Y360920D03*
X442610D03*
X456390D03*
X454420D03*
X452450D03*
X450480D03*
X448520D03*
X446550D03*
G54D37*
X172280Y162890D03*
X169720D03*
X167160D03*
X164600D03*
X162040D03*
X159480D03*
Y185110D03*
X162040D03*
X164600D03*
X167160D03*
X169720D03*
X172280D03*
X182520Y162890D03*
X179960D03*
X177400D03*
X174840D03*
Y185110D03*
X177400D03*
X179960D03*
X182520D03*
X235720Y162890D03*
X233160D03*
X230600D03*
X228040D03*
X225480D03*
Y185110D03*
X228040D03*
X230600D03*
X233160D03*
X235720D03*
X248520Y162890D03*
X245960D03*
X243400D03*
X240840D03*
X238280D03*
Y185110D03*
X240840D03*
X243400D03*
X245960D03*
X248520D03*
X298160Y162890D03*
X295600D03*
X293040D03*
X290480D03*
Y185110D03*
X293040D03*
X295600D03*
X298160D03*
X313520Y162890D03*
X310960D03*
X308400D03*
X305840D03*
X303280D03*
X300720D03*
Y185110D03*
X303280D03*
X305840D03*
X308400D03*
X310960D03*
X313520D03*
X402600Y267890D03*
X400040D03*
X397480D03*
Y290110D03*
X400040D03*
X402600D03*
X420520Y267890D03*
X417960D03*
X415400D03*
X412840D03*
X410280D03*
X407720D03*
X405160D03*
Y290110D03*
X407720D03*
X410280D03*
X412840D03*
X415400D03*
X417960D03*
X420520D03*
G54D28*
X106000Y341000D03*
X482000Y28000D03*
X485000Y374000D03*
G54D64*
X458510Y288570D03*
G54D19*
X63000Y270240D03*
Y297760D03*
G54D47*
X292760Y260380D03*
Y262350D03*
Y264310D03*
Y266280D03*
Y268250D03*
Y270220D03*
Y272190D03*
Y274160D03*
Y276130D03*
Y278090D03*
Y280060D03*
Y282030D03*
Y284000D03*
Y285970D03*
Y287940D03*
Y289910D03*
Y291870D03*
Y293840D03*
Y295810D03*
Y297780D03*
Y299750D03*
Y301720D03*
Y303690D03*
Y305650D03*
Y307620D03*
X353240Y270220D03*
Y268250D03*
Y266280D03*
Y264310D03*
Y262350D03*
Y260380D03*
Y291870D03*
Y289910D03*
Y287940D03*
Y285970D03*
Y284000D03*
Y282030D03*
Y280060D03*
Y278090D03*
Y276130D03*
Y274160D03*
Y272190D03*
Y307620D03*
Y305650D03*
Y303690D03*
Y301720D03*
Y299750D03*
Y297780D03*
Y295810D03*
Y293840D03*
G54D29*
X131030Y28000D03*
X136970D03*
X154030Y200000D03*
X143970Y306000D03*
X138030D03*
X143970Y313000D03*
X138030D03*
X143970Y299000D03*
X138030D03*
X143970Y320000D03*
X138030D03*
X159970Y200000D03*
X194030Y28000D03*
X196030Y164000D03*
X199970Y28000D03*
X201970Y164000D03*
X256030Y28000D03*
X245970Y225000D03*
X240030D03*
Y264000D03*
X245970D03*
Y258000D03*
X240030D03*
X261970Y28000D03*
X319030D03*
X324970D03*
X382030D03*
X387970D03*
G54D56*
X440050Y360920D03*
X436900D03*
X462100D03*
X458950D03*
G54D65*
X448050Y302060D03*
Y309940D03*
X451950Y302060D03*
Y309940D03*
G54D38*
X175000Y319980D03*
Y340020D03*
G54D39*
X195120Y187000D03*
X202880D03*
X246880Y251000D03*
X239120D03*
X498880Y183000D03*
X491120D03*
G54D48*
X319470Y330160D03*
Y337840D03*
X328530Y330160D03*
Y337840D03*
X394470Y310840D03*
X403530D03*
Y303160D03*
X394470D03*
X440530Y296160D03*
X431470D03*
Y303840D03*
X440530D03*
G54D66*
X453740Y320220D03*
X450000D03*
X446260D03*
Y329780D03*
X450000D03*
X453740D03*
G54D57*
X460940Y222120D03*
X458970D03*
X457000D03*
X455030D03*
X453060D03*
Y239880D03*
X455030D03*
X457000D03*
X458970D03*
X460940D03*
G54D67*
X485220Y315260D03*
Y319000D03*
Y322740D03*
X494780D03*
Y319000D03*
Y315260D03*
G54D49*
X383480Y317000D03*
X380520D03*
X374520D03*
X377480D03*
X436520Y54000D03*
X439480D03*
X446480D03*
X443520D03*
X454520D03*
X457480D03*
X463480D03*
X460520D03*
G54D58*
X460570Y286510D03*
G54D68*
X499940Y173050D03*
X492060D03*
X499940Y176950D03*
X492060D03*
X500940Y220050D03*
X493060D03*
X500940Y223950D03*
X493060D03*
X500940Y285050D03*
X493060D03*
X500940Y288950D03*
X493060D03*
X500940Y350050D03*
X493060D03*
X500940Y353950D03*
X493060D03*
G54D59*
X460570Y275490D03*
G54D69*
X506000Y226980D03*
Y224020D03*
Y217020D03*
Y219980D03*
Y291480D03*
Y288520D03*
Y282520D03*
Y285480D03*
Y354020D03*
Y347020D03*
Y349980D03*
Y356980D03*
X516000Y41520D03*
Y44480D03*
Y50480D03*
Y47520D03*
M02*
