G04 ================== begin FILE IDENTIFICATION RECORD ==================*
G04 Layout Name:  CATALYST_NOZZLE_V1_2601.brd*
G04 Film Name:    Board_SilkBottom*
G04 File Format:  Gerber RS274X*
G04 File Origin:  Cadence Allegro 17.2-S071*
G04 Origin Date:  Tue Jan 13 10:53:27 2026*
G04 *
G04 Layer:  BOARD GEOMETRY/OUTLINE*
G04 Layer:  BOARD GEOMETRY/SILKSCREEN_BOTTOM*
G04 Layer:  PACKAGE GEOMETRY/SILKSCREEN_BOTTOM*
G04 *
G04 Offset:    (0.0 0.0)*
G04 Mirror:    No*
G04 Mode:      Positive*
G04 Rotation:  0*
G04 FullContactRelief:  No*
G04 UndefLineWidth:     6.0*
G04 ================== end FILE IDENTIFICATION RECORD ====================*
%FSLAX25Y25*MOIN*%
%IR0*IPPOS*OFA0.00000B0.00000*MIA0B0*SFA1.00000B1.00000*%
%ADD10C,.006*%
%ADD11C,.007*%
%ADD12C,.0047*%
%ADD13C,.0059*%
%ADD14C,.0079*%
%ADD15C,.0098*%
%ADD16C,.01*%
%ADD17C,.0118*%
G75*
%LPD*%
G75*
G36*
G01X68340Y179250D02*
G03I-588J2D01*
G37*
G36*
G01X139870Y154110D02*
G03I-583J0D01*
G37*
G36*
G01X173840Y161750D02*
G03I-592J-2D01*
G37*
G36*
G01X61680Y65060D02*
X22310D01*
Y72930D01*
X61680D01*
Y65060D01*
G37*
G54D10*
G01X69000Y164000D02*
X68000D01*
Y175000D01*
X69000Y176000D01*
G01X73000D02*
X74000Y175000D01*
Y164000D01*
X73000D01*
G01X155000Y84500D02*
G02X154000Y85500I0J1000D01*
G01X161000Y84500D02*
X155000D01*
G01X154000Y96500D02*
Y85500D01*
G01Y96500D02*
G02X155000Y97500I1000J0D01*
G01X161000D02*
X155000D01*
G01X158500Y104000D02*
G02X157500Y105000I0J1000D01*
G01Y111000D02*
Y105000D01*
G01X158500Y104000D02*
X169500D01*
G01X157500Y111000D02*
G02X158500Y112000I1000J0D01*
G01D02*
X169500D01*
G01X158500Y127000D02*
G02X157500Y128000I0J1000D01*
G01X158500Y127000D02*
X169500D01*
G01X157500Y134000D02*
G02X158500Y135000I1000J0D01*
G01D02*
X169500D01*
G01X157500Y134000D02*
Y128000D01*
G01X162000Y85500D02*
G02X161000Y84500I-1000J0D01*
G01X162000Y96500D02*
Y85500D01*
G01X161000Y97500D02*
G02X162000Y96500I0J-1000D01*
G01X170500Y105000D02*
G02X169500Y104000I-1000J0D01*
G01X170500Y111000D02*
Y105000D01*
G01X169500Y112000D02*
G02X170500Y111000I0J-1000D01*
G01Y128000D02*
G02X169500Y127000I-1000J0D01*
G01Y135000D02*
G02X170500Y134000I0J-1000D01*
G01D02*
Y128000D01*
G01X172000Y177000D02*
X173000D01*
Y166000D01*
X172000Y165000D01*
G01X168000D02*
X167000Y166000D01*
Y177000D01*
X168000D01*
G01X0Y185040D02*
Y0D01*
X173230D01*
Y185040D01*
X0D01*
G54D11*
G01X16700Y52500D02*
Y49500D01*
G01X17850Y52500D02*
X15550D01*
G01X13350Y49500D02*
X13750Y49550D01*
X14100Y49750D01*
X14400Y50050D01*
X14600Y50400D01*
X14700Y50800D01*
Y51200D01*
X14600Y51600D01*
X14400Y51950D01*
X14100Y52250D01*
X13750Y52450D01*
X13350Y52500D01*
X12950Y52450D01*
X12600Y52250D01*
X12300Y51950D01*
X12100Y51600D01*
X12000Y51200D01*
Y50800D01*
X12100Y50400D01*
X12300Y50050D01*
X12600Y49750D01*
X12950Y49550D01*
X13350Y49500D01*
G01X11100Y52500D02*
Y50350D01*
X10900Y49900D01*
X10500Y49600D01*
X10000Y49500D01*
X9500Y49600D01*
X9100Y49900D01*
X8900Y50350D01*
Y52500D01*
G01X5550Y52250D02*
X5850Y52400D01*
X6200Y52500D01*
X6600D01*
X7050Y52350D01*
X7400Y52100D01*
X7650Y51800D01*
X7850Y51300D01*
X7900Y50850D01*
X7800Y50400D01*
X7650Y50100D01*
X7350Y49800D01*
X7000Y49600D01*
X6650Y49500D01*
X6300D01*
X5950Y49600D01*
X5650Y49750D01*
X5400Y49950D01*
G01X4350Y49500D02*
Y52500D01*
G01X2250D02*
Y49500D01*
G01Y51000D02*
X4350D01*
G01X15250Y87500D02*
X14000Y84500D01*
X12750Y87500D01*
G01X13700Y91000D02*
X12700D01*
Y90100D01*
X13000Y89800D01*
X13350Y89600D01*
X13850Y89500D01*
X14350Y89600D01*
X14700Y89800D01*
X15000Y90100D01*
X15200Y90450D01*
X15300Y90850D01*
Y91200D01*
X15200Y91500D01*
X15000Y91850D01*
X14700Y92150D01*
X14400Y92350D01*
X14000Y92500D01*
X13650D01*
X13250Y92400D01*
X12950Y92200D01*
G01X18780Y94500D02*
Y97500D01*
X17780D01*
X17380Y97350D01*
X17080Y97150D01*
X16830Y96850D01*
X16630Y96500D01*
X16580Y96000D01*
X16630Y95500D01*
X16830Y95150D01*
X17080Y94850D01*
X17380Y94650D01*
X17780Y94500D01*
X18780D01*
G01X15630D02*
Y97500D01*
X14330Y95000D01*
X13030Y97500D01*
Y94500D01*
G01X18780Y99500D02*
Y102500D01*
X17780D01*
X17380Y102350D01*
X17080Y102150D01*
X16830Y101850D01*
X16630Y101500D01*
X16580Y101000D01*
X16630Y100500D01*
X16830Y100150D01*
X17080Y99850D01*
X17380Y99650D01*
X17780Y99500D01*
X18780D01*
G01X15330D02*
Y102500D01*
X14130D01*
X13730Y102350D01*
X13430Y102000D01*
X13330Y101600D01*
X13430Y101200D01*
X13680Y100900D01*
X14130Y100750D01*
X15330D01*
G01X10400Y110900D02*
X10000Y110650D01*
X9550Y110500D01*
X9150D01*
X8750Y110650D01*
X8450Y110900D01*
X8300Y111250D01*
X8400Y111600D01*
X8650Y111900D01*
X9100Y112100D01*
X9700Y112200D01*
X10050Y112400D01*
X10200Y112750D01*
X10100Y113100D01*
X9850Y113350D01*
X9500Y113500D01*
X9150D01*
X8800Y113400D01*
X8500Y113150D01*
G01X7050Y110500D02*
Y113500D01*
G01X4950D02*
Y110500D01*
G01Y112000D02*
X7050D01*
G01X2350D02*
X1350D01*
Y111100D01*
X1650Y110800D01*
X2000Y110600D01*
X2500Y110500D01*
X3000Y110600D01*
X3350Y110800D01*
X3650Y111100D01*
X3850Y111450D01*
X3950Y111850D01*
Y112200D01*
X3850Y112500D01*
X3650Y112850D01*
X3350Y113150D01*
X3050Y113350D01*
X2650Y113500D01*
X2300D01*
X1900Y113400D01*
X1600Y113200D01*
G01X17980Y176500D02*
Y179500D01*
X16080D01*
G01X16780Y178050D02*
X17980D01*
G01X14930Y176500D02*
X13680Y179500D01*
X12430Y176500D01*
G01X12880Y177550D02*
X14480D01*
G01X11480Y176500D02*
Y179500D01*
X9180Y176500D01*
Y179500D01*
G01X6980Y176500D02*
Y179500D01*
X7580Y178900D01*
G01Y176500D02*
X6380D01*
G01X32650Y23500D02*
X30750D01*
X32650Y20500D01*
X30750D01*
G01X29000Y21500D02*
X27700D01*
G01X26300Y20500D02*
Y23500D01*
X25000Y21000D01*
X23700Y23500D01*
Y20500D01*
G01X22250Y23500D02*
X21050D01*
G01X21650D02*
Y20500D01*
G01X22250D02*
X21050D01*
G01X19450D02*
Y23500D01*
X17150Y20500D01*
Y23500D01*
G01X21250Y38500D02*
X20000Y35500D01*
X18750Y38500D01*
G01X21050Y30900D02*
X20650Y30650D01*
X20200Y30500D01*
X19800D01*
X19400Y30650D01*
X19100Y30900D01*
X18950Y31250D01*
X19050Y31600D01*
X19300Y31900D01*
X19750Y32100D01*
X20350Y32200D01*
X20700Y32400D01*
X20850Y32750D01*
X20750Y33100D01*
X20500Y33350D01*
X20150Y33500D01*
X19800D01*
X19450Y33400D01*
X19150Y33150D01*
G01X19700Y27000D02*
X18700D01*
Y26100D01*
X19000Y25800D01*
X19350Y25600D01*
X19850Y25500D01*
X20350Y25600D01*
X20700Y25800D01*
X21000Y26100D01*
X21200Y26450D01*
X21300Y26850D01*
Y27200D01*
X21200Y27500D01*
X21000Y27850D01*
X20700Y28150D01*
X20400Y28350D01*
X20000Y28500D01*
X19650D01*
X19250Y28400D01*
X18950Y28200D01*
G01X19700Y42000D02*
X18700D01*
Y41100D01*
X19000Y40800D01*
X19350Y40600D01*
X19850Y40500D01*
X20350Y40600D01*
X20700Y40800D01*
X21000Y41100D01*
X21200Y41450D01*
X21300Y41850D01*
Y42200D01*
X21200Y42500D01*
X21000Y42850D01*
X20700Y43150D01*
X20400Y43350D01*
X20000Y43500D01*
X19650D01*
X19250Y43400D01*
X18950Y43200D01*
G01X73030Y78750D02*
X73330Y78900D01*
X73680Y79000D01*
X74080D01*
X74530Y78850D01*
X74880Y78600D01*
X75130Y78300D01*
X75330Y77800D01*
X75380Y77350D01*
X75280Y76900D01*
X75130Y76600D01*
X74830Y76300D01*
X74480Y76100D01*
X74130Y76000D01*
X73780D01*
X73430Y76100D01*
X73130Y76250D01*
X72880Y76450D01*
G01X72030Y76000D02*
X70780Y79000D01*
X69530Y76000D01*
G01X69980Y77050D02*
X71580D01*
G01X67430Y79000D02*
Y76000D01*
G01X68580Y79000D02*
X66280D01*
G01X65330Y76000D02*
X64080Y79000D01*
X62830Y76000D01*
G01X63280Y77050D02*
X64880D01*
G01X61730Y79000D02*
Y76000D01*
X59730D01*
G01X57380D02*
Y77350D01*
X58380Y79000D01*
G01X56380D02*
X57380Y77350D01*
G01X55080Y76400D02*
X54680Y76150D01*
X54230Y76000D01*
X53830D01*
X53430Y76150D01*
X53130Y76400D01*
X52980Y76750D01*
X53080Y77100D01*
X53330Y77400D01*
X53780Y77600D01*
X54380Y77700D01*
X54730Y77900D01*
X54880Y78250D01*
X54780Y78600D01*
X54530Y78850D01*
X54180Y79000D01*
X53830D01*
X53480Y78900D01*
X53180Y78650D01*
G01X50680Y79000D02*
Y76000D01*
G01X51830Y79000D02*
X49530D01*
G01X48830Y75000D02*
X45830D01*
G01X45130Y76000D02*
Y79000D01*
X42830Y76000D01*
Y79000D01*
G01X40630Y76000D02*
X41030Y76050D01*
X41380Y76250D01*
X41680Y76550D01*
X41880Y76900D01*
X41980Y77300D01*
Y77700D01*
X41880Y78100D01*
X41680Y78450D01*
X41380Y78750D01*
X41030Y78950D01*
X40630Y79000D01*
X40230Y78950D01*
X39880Y78750D01*
X39580Y78450D01*
X39380Y78100D01*
X39280Y77700D01*
Y77300D01*
X39380Y76900D01*
X39580Y76550D01*
X39880Y76250D01*
X40230Y76050D01*
X40630Y76000D01*
G01X38230Y79000D02*
X36330D01*
X38230Y76000D01*
X36330D01*
G01X34880Y79000D02*
X32980D01*
X34880Y76000D01*
X32980D01*
G01X31580Y79000D02*
Y76000D01*
X29580D01*
G01X26230D02*
X28230D01*
Y79000D01*
X26230D01*
G01X27030Y77550D02*
X28230D01*
G01X41400Y156900D02*
X41000Y156650D01*
X40550Y156500D01*
X40150D01*
X39750Y156650D01*
X39450Y156900D01*
X39300Y157250D01*
X39400Y157600D01*
X39650Y157900D01*
X40100Y158100D01*
X40700Y158200D01*
X41050Y158400D01*
X41200Y158750D01*
X41100Y159100D01*
X40850Y159350D01*
X40500Y159500D01*
X40150D01*
X39800Y159400D01*
X39500Y159150D01*
G01X38050Y156500D02*
Y159500D01*
G01X35950D02*
Y156500D01*
G01Y158000D02*
X38050D01*
G01X33350D02*
X32350D01*
Y157100D01*
X32650Y156800D01*
X33000Y156600D01*
X33500Y156500D01*
X34000Y156600D01*
X34350Y156800D01*
X34650Y157100D01*
X34850Y157450D01*
X34950Y157850D01*
Y158200D01*
X34850Y158500D01*
X34650Y158850D01*
X34350Y159150D01*
X34050Y159350D01*
X33650Y159500D01*
X33300D01*
X32900Y159400D01*
X32600Y159200D01*
G01X35580Y174250D02*
X35880Y174400D01*
X36230Y174500D01*
X36630D01*
X37080Y174350D01*
X37430Y174100D01*
X37680Y173800D01*
X37880Y173300D01*
X37930Y172850D01*
X37830Y172400D01*
X37680Y172100D01*
X37380Y171800D01*
X37030Y171600D01*
X36680Y171500D01*
X36330D01*
X35980Y171600D01*
X35680Y171750D01*
X35430Y171950D01*
G01X34330Y174500D02*
Y171500D01*
X32330D01*
G01X35580Y179250D02*
X35880Y179400D01*
X36230Y179500D01*
X36630D01*
X37080Y179350D01*
X37430Y179100D01*
X37680Y178800D01*
X37880Y178300D01*
X37930Y177850D01*
X37830Y177400D01*
X37680Y177100D01*
X37380Y176800D01*
X37030Y176600D01*
X36680Y176500D01*
X36330D01*
X35980Y176600D01*
X35680Y176750D01*
X35430Y176950D01*
G01X34380Y176500D02*
Y179500D01*
G01X32280D02*
Y176500D01*
G01Y178000D02*
X34380D01*
G01X39050Y168000D02*
X38050D01*
Y167100D01*
X38350Y166800D01*
X38700Y166600D01*
X39200Y166500D01*
X39700Y166600D01*
X40050Y166800D01*
X40350Y167100D01*
X40550Y167450D01*
X40650Y167850D01*
Y168200D01*
X40550Y168500D01*
X40350Y168850D01*
X40050Y169150D01*
X39750Y169350D01*
X39350Y169500D01*
X39000D01*
X38600Y169400D01*
X38300Y169200D01*
G01X37150Y166500D02*
Y169500D01*
X34850Y166500D01*
Y169500D01*
G01X33750Y166500D02*
Y169500D01*
X32750D01*
X32350Y169350D01*
X32050Y169150D01*
X31800Y168850D01*
X31600Y168500D01*
X31550Y168000D01*
X31600Y167500D01*
X31800Y167150D01*
X32050Y166850D01*
X32350Y166650D01*
X32750Y166500D01*
X33750D01*
G01X55450Y5100D02*
X55150Y4750D01*
X54750Y4550D01*
X54300Y4500D01*
X53900Y4550D01*
X53500Y4800D01*
X53250Y5100D01*
X53200Y5400D01*
X53300Y5750D01*
X53650Y6000D01*
X54000Y6100D01*
X54450D01*
G01X54000D02*
X53700Y6250D01*
X53450Y6500D01*
X53350Y6800D01*
X53450Y7100D01*
X53700Y7350D01*
X54150Y7500D01*
X54600Y7450D01*
X55050Y7250D01*
G01X52250Y7500D02*
X51000Y4500D01*
X49750Y7500D01*
G01X48750Y5100D02*
X48450Y4750D01*
X48050Y4550D01*
X47600Y4500D01*
X47200Y4550D01*
X46800Y4800D01*
X46550Y5100D01*
X46500Y5400D01*
X46600Y5750D01*
X46950Y6000D01*
X47300Y6100D01*
X47750D01*
G01X47300D02*
X47000Y6250D01*
X46750Y6500D01*
X46650Y6800D01*
X46750Y7100D01*
X47000Y7350D01*
X47450Y7500D01*
X47900Y7450D01*
X48350Y7250D01*
G01X53300Y16100D02*
X53100Y16250D01*
X52950Y16500D01*
X52850Y16850D01*
X52950Y17150D01*
X53150Y17350D01*
X53500Y17500D01*
X54850D01*
Y14500D01*
X53200D01*
X52850Y14700D01*
X52650Y15000D01*
X52550Y15350D01*
X52650Y15700D01*
X52950Y16000D01*
X53300Y16100D01*
X54850D01*
G01X50350Y14500D02*
X50750Y14550D01*
X51100Y14750D01*
X51400Y15050D01*
X51600Y15400D01*
X51700Y15800D01*
Y16200D01*
X51600Y16600D01*
X51400Y16950D01*
X51100Y17250D01*
X50750Y17450D01*
X50350Y17500D01*
X49950Y17450D01*
X49600Y17250D01*
X49300Y16950D01*
X49100Y16600D01*
X49000Y16200D01*
Y15800D01*
X49100Y15400D01*
X49300Y15050D01*
X49600Y14750D01*
X49950Y14550D01*
X50350Y14500D01*
G01X47000D02*
X47400Y14550D01*
X47750Y14750D01*
X48050Y15050D01*
X48250Y15400D01*
X48350Y15800D01*
Y16200D01*
X48250Y16600D01*
X48050Y16950D01*
X47750Y17250D01*
X47400Y17450D01*
X47000Y17500D01*
X46600Y17450D01*
X46250Y17250D01*
X45950Y16950D01*
X45750Y16600D01*
X45650Y16200D01*
Y15800D01*
X45750Y15400D01*
X45950Y15050D01*
X46250Y14750D01*
X46600Y14550D01*
X47000Y14500D01*
G01X43650Y17500D02*
Y14500D01*
G01X44800Y17500D02*
X42500D01*
G01X40300D02*
X40700Y17400D01*
X41000Y17150D01*
X41200Y16850D01*
X41350Y16450D01*
X41400Y16000D01*
X41350Y15550D01*
X41200Y15150D01*
X41000Y14850D01*
X40700Y14600D01*
X40300Y14500D01*
X39900Y14600D01*
X39600Y14850D01*
X39400Y15150D01*
X39250Y15550D01*
X39200Y16000D01*
X39250Y16450D01*
X39400Y16850D01*
X39600Y17150D01*
X39900Y17400D01*
X40300Y17500D01*
G01X54050Y26000D02*
X53050D01*
Y25100D01*
X53350Y24800D01*
X53700Y24600D01*
X54200Y24500D01*
X54700Y24600D01*
X55050Y24800D01*
X55350Y25100D01*
X55550Y25450D01*
X55650Y25850D01*
Y26200D01*
X55550Y26500D01*
X55350Y26850D01*
X55050Y27150D01*
X54750Y27350D01*
X54350Y27500D01*
X54000D01*
X53600Y27400D01*
X53300Y27200D01*
G01X52150Y24500D02*
Y27500D01*
X49850Y24500D01*
Y27500D01*
G01X48750Y24500D02*
Y27500D01*
X47750D01*
X47350Y27350D01*
X47050Y27150D01*
X46800Y26850D01*
X46600Y26500D01*
X46550Y26000D01*
X46600Y25500D01*
X46800Y25150D01*
X47050Y24850D01*
X47350Y24650D01*
X47750Y24500D01*
X48750D01*
G01X54050Y162000D02*
X53050D01*
Y161100D01*
X53350Y160800D01*
X53700Y160600D01*
X54200Y160500D01*
X54700Y160600D01*
X55050Y160800D01*
X55350Y161100D01*
X55550Y161450D01*
X55650Y161850D01*
Y162200D01*
X55550Y162500D01*
X55350Y162850D01*
X55050Y163150D01*
X54750Y163350D01*
X54350Y163500D01*
X54000D01*
X53600Y163400D01*
X53300Y163200D01*
G01X52150Y160500D02*
Y163500D01*
X49850Y160500D01*
Y163500D01*
G01X48750Y160500D02*
Y163500D01*
X47750D01*
X47350Y163350D01*
X47050Y163150D01*
X46800Y162850D01*
X46600Y162500D01*
X46550Y162000D01*
X46600Y161500D01*
X46800Y161150D01*
X47050Y160850D01*
X47350Y160650D01*
X47750Y160500D01*
X48750D01*
G01X53780Y176950D02*
X53480Y176700D01*
X53130Y176550D01*
X52680Y176500D01*
X52230Y176600D01*
X51880Y176800D01*
X51630Y177150D01*
X51580Y177550D01*
X51680Y177950D01*
X51930Y178200D01*
X52280Y178400D01*
X52630Y178450D01*
X52980Y178400D01*
X53430Y178200D01*
X53280Y179500D01*
X51930D01*
G01X50580D02*
X49330Y176500D01*
X48080Y179500D01*
G01X53780Y171500D02*
Y174500D01*
X52780D01*
X52380Y174350D01*
X52080Y174150D01*
X51830Y173850D01*
X51630Y173500D01*
X51580Y173000D01*
X51630Y172500D01*
X51830Y172150D01*
X52080Y171850D01*
X52380Y171650D01*
X52780Y171500D01*
X53780D01*
G01X50630D02*
Y174500D01*
X49330Y172000D01*
X48030Y174500D01*
Y171500D01*
G01X53780Y165500D02*
Y168500D01*
X52780D01*
X52380Y168350D01*
X52080Y168150D01*
X51830Y167850D01*
X51630Y167500D01*
X51580Y167000D01*
X51630Y166500D01*
X51830Y166150D01*
X52080Y165850D01*
X52380Y165650D01*
X52780Y165500D01*
X53780D01*
G01X50330D02*
Y168500D01*
X49130D01*
X48730Y168350D01*
X48430Y168000D01*
X48330Y167600D01*
X48430Y167200D01*
X48680Y166900D01*
X49130Y166750D01*
X50330D01*
G01X75450Y39500D02*
Y42500D01*
X74450D01*
X74050Y42350D01*
X73750Y42150D01*
X73500Y41850D01*
X73300Y41500D01*
X73250Y41000D01*
X73300Y40500D01*
X73500Y40150D01*
X73750Y39850D01*
X74050Y39650D01*
X74450Y39500D01*
X75450D01*
G01X71600Y42500D02*
X70400D01*
G01X71000D02*
Y39500D01*
G01X71600D02*
X70400D01*
G01X67650D02*
X68050Y39550D01*
X68400Y39750D01*
X68700Y40050D01*
X68900Y40400D01*
X69000Y40800D01*
Y41200D01*
X68900Y41600D01*
X68700Y41950D01*
X68400Y42250D01*
X68050Y42450D01*
X67650Y42500D01*
X67250Y42450D01*
X66900Y42250D01*
X66600Y41950D01*
X66400Y41600D01*
X66300Y41200D01*
Y40800D01*
X66400Y40400D01*
X66600Y40050D01*
X66900Y39750D01*
X67250Y39550D01*
X67650Y39500D01*
G01X73250Y48250D02*
X73550Y48400D01*
X73900Y48500D01*
X74300D01*
X74750Y48350D01*
X75100Y48100D01*
X75350Y47800D01*
X75550Y47300D01*
X75600Y46850D01*
X75500Y46400D01*
X75350Y46100D01*
X75050Y45800D01*
X74700Y45600D01*
X74350Y45500D01*
X74000D01*
X73650Y45600D01*
X73350Y45750D01*
X73100Y45950D01*
G01X72000Y48500D02*
Y45500D01*
X70000D01*
G01X68750D02*
Y48500D01*
G01X66850D02*
X68750Y46650D01*
G01X66550Y45500D02*
X67900Y47500D01*
G01X75280Y70000D02*
X74030Y67000D01*
X72780Y70000D01*
G01X70680Y67000D02*
Y70000D01*
X71280Y69400D01*
G01Y67000D02*
X70080D01*
G01X67330Y66900D02*
X67430Y66950D01*
Y67050D01*
X67330Y67100D01*
X67230Y67050D01*
Y66950D01*
X67330Y66900D01*
G01X63980Y70000D02*
X64380Y69900D01*
X64680Y69650D01*
X64880Y69350D01*
X65030Y68950D01*
X65080Y68500D01*
X65030Y68050D01*
X64880Y67650D01*
X64680Y67350D01*
X64380Y67100D01*
X63980Y67000D01*
X63580Y67100D01*
X63280Y67350D01*
X63080Y67650D01*
X62930Y68050D01*
X62880Y68500D01*
X62930Y68950D01*
X63080Y69350D01*
X63280Y69650D01*
X63580Y69900D01*
X63980Y70000D01*
G01X85680Y163500D02*
Y166500D01*
X84430D01*
X84030Y166350D01*
X83780Y166150D01*
X83680Y165750D01*
X83780Y165350D01*
X84080Y165100D01*
X84430Y164950D01*
X85680D01*
G01X84430D02*
X83680Y163500D01*
G01X82380D02*
X80280Y166500D01*
G01X82380D02*
X80280Y163500D01*
G01X84680Y176500D02*
Y173500D01*
G01X85830Y176500D02*
X83530D01*
G01X82380Y173500D02*
X80280Y176500D01*
G01X82380D02*
X80280Y173500D01*
G01X112050Y165000D02*
X111050D01*
Y164100D01*
X111350Y163800D01*
X111700Y163600D01*
X112200Y163500D01*
X112700Y163600D01*
X113050Y163800D01*
X113350Y164100D01*
X113550Y164450D01*
X113650Y164850D01*
Y165200D01*
X113550Y165500D01*
X113350Y165850D01*
X113050Y166150D01*
X112750Y166350D01*
X112350Y166500D01*
X112000D01*
X111600Y166400D01*
X111300Y166200D01*
G01X110150Y163500D02*
Y166500D01*
X107850Y163500D01*
Y166500D01*
G01X106750Y163500D02*
Y166500D01*
X105750D01*
X105350Y166350D01*
X105050Y166150D01*
X104800Y165850D01*
X104600Y165500D01*
X104550Y165000D01*
X104600Y164500D01*
X104800Y164150D01*
X105050Y163850D01*
X105350Y163650D01*
X105750Y163500D01*
X106750D01*
G01X113300Y176000D02*
X113000Y176300D01*
X112650Y176450D01*
X112250Y176500D01*
X111750Y176400D01*
X111400Y176150D01*
X111300Y175850D01*
X111350Y175550D01*
X111550Y175300D01*
X112550Y174800D01*
X113000Y174450D01*
X113300Y173950D01*
X113400Y173500D01*
X111300D01*
G01X108400D02*
Y176500D01*
X110250Y174350D01*
X107750D01*
G01X106900Y176500D02*
X105650Y173500D01*
X104400Y176500D01*
G01X132680Y23500D02*
Y20500D01*
G01X133830Y23500D02*
X131530D01*
G01X129330D02*
X129730Y23400D01*
X130030Y23150D01*
X130230Y22850D01*
X130380Y22450D01*
X130430Y22000D01*
X130380Y21550D01*
X130230Y21150D01*
X130030Y20850D01*
X129730Y20600D01*
X129330Y20500D01*
X128930Y20600D01*
X128630Y20850D01*
X128430Y21150D01*
X128280Y21550D01*
X128230Y22000D01*
X128280Y22450D01*
X128430Y22850D01*
X128630Y23150D01*
X128930Y23400D01*
X129330Y23500D01*
G01X163080Y25500D02*
Y28500D01*
G01X160980D02*
Y25500D01*
G01Y27000D02*
X163080D01*
G01X157680Y25500D02*
X159680D01*
Y28500D01*
X157680D01*
G01X158480Y27050D02*
X159680D01*
G01X156580Y25500D02*
X155330Y28500D01*
X154080Y25500D01*
G01X154530Y26550D02*
X156130D01*
G01X151980Y28500D02*
Y25500D01*
G01X153130Y28500D02*
X150830D01*
G01X154500Y48000D02*
Y46000D01*
X157500D01*
Y48000D01*
G01X156050Y47200D02*
Y46000D01*
G01X154500Y58330D02*
X157500D01*
Y60230D01*
G01X156050Y59530D02*
Y58330D01*
G01X157500Y62030D02*
Y63230D01*
G01Y62630D02*
X154500D01*
G01Y62030D02*
Y63230D01*
G01X157500Y64980D02*
X154500D01*
Y66980D01*
G01Y68080D02*
X157500Y69330D01*
X154500Y70580D01*
G01X155550Y70130D02*
Y68530D01*
G01X154500Y71380D02*
X157500D01*
X155000Y72680D01*
X157500Y73980D01*
X154500D01*
G01Y77030D02*
Y75030D01*
X157500D01*
Y77030D01*
G01X156050Y76230D02*
Y75030D01*
G01X154500Y78230D02*
X157500D01*
X154500Y80530D01*
X157500D01*
G01Y82730D02*
X154500D01*
G01X157500Y81580D02*
Y83880D01*
G01X151630Y88000D02*
X151330Y88300D01*
X150980Y88450D01*
X150580Y88500D01*
X150080Y88400D01*
X149730Y88150D01*
X149630Y87850D01*
X149680Y87550D01*
X149880Y87300D01*
X150880Y86800D01*
X151330Y86450D01*
X151630Y85950D01*
X151730Y85500D01*
X149630D01*
G01X146730D02*
Y88500D01*
X148580Y86350D01*
X146080D01*
G01X152100Y90950D02*
X151800Y90700D01*
X151450Y90550D01*
X151000Y90500D01*
X150550Y90600D01*
X150200Y90800D01*
X149950Y91150D01*
X149900Y91550D01*
X150000Y91950D01*
X150250Y92200D01*
X150600Y92400D01*
X150950Y92450D01*
X151300Y92400D01*
X151750Y92200D01*
X151600Y93500D01*
X150250D01*
G01X152100Y95950D02*
X151800Y95700D01*
X151450Y95550D01*
X151000Y95500D01*
X150550Y95600D01*
X150200Y95800D01*
X149950Y96150D01*
X149900Y96550D01*
X150000Y96950D01*
X150250Y97200D01*
X150600Y97400D01*
X150950Y97450D01*
X151300Y97400D01*
X151750Y97200D01*
X151600Y98500D01*
X150250D01*
G01X158700Y142000D02*
X157700D01*
Y141100D01*
X158000Y140800D01*
X158350Y140600D01*
X158850Y140500D01*
X159350Y140600D01*
X159700Y140800D01*
X160000Y141100D01*
X160200Y141450D01*
X160300Y141850D01*
Y142200D01*
X160200Y142500D01*
X160000Y142850D01*
X159700Y143150D01*
X159400Y143350D01*
X159000Y143500D01*
X158650D01*
X158250Y143400D01*
X157950Y143200D01*
G01X160250Y138500D02*
X159000Y135500D01*
X157750Y138500D01*
G01X160050Y145900D02*
X159650Y145650D01*
X159200Y145500D01*
X158800D01*
X158400Y145650D01*
X158100Y145900D01*
X157950Y146250D01*
X158050Y146600D01*
X158300Y146900D01*
X158750Y147100D01*
X159350Y147200D01*
X159700Y147400D01*
X159850Y147750D01*
X159750Y148100D01*
X159500Y148350D01*
X159150Y148500D01*
X158800D01*
X158450Y148400D01*
X158150Y148150D01*
G01X148950Y128900D02*
X148700Y129200D01*
X148550Y129550D01*
X148500Y130000D01*
X148600Y130450D01*
X148800Y130800D01*
X149150Y131050D01*
X149550Y131100D01*
X149950Y131000D01*
X150200Y130750D01*
X150400Y130400D01*
X150450Y130050D01*
X150400Y129700D01*
X150200Y129250D01*
X151500Y129400D01*
Y130750D01*
G01X152950Y128900D02*
X152700Y129200D01*
X152550Y129550D01*
X152500Y130000D01*
X152600Y130450D01*
X152800Y130800D01*
X153150Y131050D01*
X153550Y131100D01*
X153950Y131000D01*
X154200Y130750D01*
X154400Y130400D01*
X154450Y130050D01*
X154400Y129700D01*
X154200Y129250D01*
X155500Y129400D01*
Y130750D01*
G01X170250Y92500D02*
X169000Y89500D01*
X167750Y92500D01*
G01X170050Y99900D02*
X169650Y99650D01*
X169200Y99500D01*
X168800D01*
X168400Y99650D01*
X168100Y99900D01*
X167950Y100250D01*
X168050Y100600D01*
X168300Y100900D01*
X168750Y101100D01*
X169350Y101200D01*
X169700Y101400D01*
X169850Y101750D01*
X169750Y102100D01*
X169500Y102350D01*
X169150Y102500D01*
X168800D01*
X168450Y102400D01*
X168150Y102150D01*
G01X168700Y96000D02*
X167700D01*
Y95100D01*
X168000Y94800D01*
X168350Y94600D01*
X168850Y94500D01*
X169350Y94600D01*
X169700Y94800D01*
X170000Y95100D01*
X170200Y95450D01*
X170300Y95850D01*
Y96200D01*
X170200Y96500D01*
X170000Y96850D01*
X169700Y97150D01*
X169400Y97350D01*
X169000Y97500D01*
X168650D01*
X168250Y97400D01*
X167950Y97200D01*
G01X168700Y119000D02*
X167700D01*
Y118100D01*
X168000Y117800D01*
X168350Y117600D01*
X168850Y117500D01*
X169350Y117600D01*
X169700Y117800D01*
X170000Y118100D01*
X170200Y118450D01*
X170300Y118850D01*
Y119200D01*
X170200Y119500D01*
X170000Y119850D01*
X169700Y120150D01*
X169400Y120350D01*
X169000Y120500D01*
X168650D01*
X168250Y120400D01*
X167950Y120200D01*
G01X170050Y122900D02*
X169650Y122650D01*
X169200Y122500D01*
X168800D01*
X168400Y122650D01*
X168100Y122900D01*
X167950Y123250D01*
X168050Y123600D01*
X168300Y123900D01*
X168750Y124100D01*
X169350Y124200D01*
X169700Y124400D01*
X169850Y124750D01*
X169750Y125100D01*
X169500Y125350D01*
X169150Y125500D01*
X168800D01*
X168450Y125400D01*
X168150Y125150D01*
G01X170250Y115500D02*
X169000Y112500D01*
X167750Y115500D01*
G01X170500Y137380D02*
X170800Y137680D01*
X170950Y138030D01*
X171000Y138430D01*
X170900Y138930D01*
X170650Y139280D01*
X170350Y139380D01*
X170050Y139330D01*
X169800Y139130D01*
X169300Y138130D01*
X168950Y137680D01*
X168450Y137380D01*
X168000Y137280D01*
Y139380D01*
G01Y142280D02*
X171000D01*
X168850Y140430D01*
Y142930D01*
G54D12*
G01X67150Y91980D02*
Y89540D01*
X70850D01*
Y91980D01*
G01X67150Y94020D02*
Y96460D01*
X70850D01*
Y94020D01*
G01X67980Y110850D02*
X65540D01*
Y107150D01*
X67980D01*
G01X70020Y110850D02*
X72460D01*
Y107150D01*
X70020D01*
G01X72850Y140020D02*
Y142460D01*
X69150D01*
Y140020D01*
G01X72850Y137980D02*
Y135540D01*
X69150D01*
Y137980D01*
G01X89850Y127020D02*
Y129460D01*
X86150D01*
Y127020D01*
G01X89850Y124980D02*
Y122540D01*
X86150D01*
Y124980D01*
G01X76850Y140020D02*
Y142460D01*
X73150D01*
Y140020D01*
G01X76850Y137980D02*
Y135540D01*
X73150D01*
Y137980D01*
G01X102150Y40980D02*
Y38540D01*
X105850D01*
Y40980D01*
G01X102150Y43020D02*
Y45460D01*
X105850D01*
Y43020D01*
G01X102150Y54460D02*
Y47540D01*
X105850D01*
Y54460D01*
G01X102150D02*
X105850D01*
G01X106980Y62150D02*
X104540D01*
Y65850D01*
X106980D01*
G01X89150Y90980D02*
Y88540D01*
X92850D01*
Y90980D01*
G01X93150D02*
Y88540D01*
X96850D01*
Y90980D01*
G01X89150Y93020D02*
Y95460D01*
X92850D01*
Y93020D01*
G01X99150Y109980D02*
Y107540D01*
X102850D01*
Y109980D01*
G01X93150Y93020D02*
Y95460D01*
X96850D01*
Y93020D01*
G01X109460Y104850D02*
X102540D01*
Y101150D01*
X109460D01*
G01X99150Y112020D02*
Y114460D01*
X102850D01*
Y112020D01*
G01X121850Y29020D02*
Y31460D01*
X118150D01*
Y29020D01*
G01X121850Y26980D02*
Y24540D01*
X118150D01*
Y26980D01*
G01X113150D02*
Y24540D01*
X116850D01*
Y26980D01*
G01X113150Y29020D02*
Y31460D01*
X116850D01*
Y29020D01*
G01X123150Y31460D02*
Y24540D01*
X126850D01*
Y31460D01*
G01X123150D02*
X126850D01*
G01X109020Y62150D02*
X111460D01*
Y65850D01*
X109020D01*
G01X129460Y75850D02*
X122540D01*
Y72150D01*
X129460D01*
G01X122540Y68150D02*
X129460D01*
Y71850D01*
X122540D01*
G01Y68150D02*
Y71850D01*
G01X119540Y69760D02*
Y73300D01*
X114460D01*
Y69760D01*
G01X119540Y66240D02*
Y62700D01*
X114460D01*
Y66240D01*
G01X119700Y67540D02*
Y62460D01*
G01Y67540D02*
X130300D01*
Y62460D01*
X119700D01*
G01X121020Y106150D02*
X123460D01*
Y109850D01*
X121020D01*
G01X118980Y106150D02*
X116540D01*
Y109850D01*
X118980D01*
G01X117460Y104850D02*
X110540D01*
Y101150D01*
X117460D01*
G01Y104850D02*
Y101150D01*
G01X109460Y104850D02*
Y101150D01*
G01X118980Y124850D02*
X116540D01*
Y121150D01*
X118980D01*
G01X121020Y124850D02*
X123460D01*
Y121150D01*
X121020D01*
G01X123460Y113850D02*
X116540D01*
Y110150D01*
X123460D01*
G01Y113850D02*
Y110150D01*
G01X116540Y114150D02*
X123460D01*
Y117850D01*
X116540D01*
G01Y114150D02*
Y117850D01*
G01X122160Y171240D02*
X129840D01*
G01Y176760D02*
X122160D01*
G01X129460Y75850D02*
Y72150D01*
G01X141150Y115460D02*
Y108540D01*
X144850D01*
Y115460D01*
G01X137150D02*
Y108540D01*
X140850D01*
Y115460D01*
G01X134460Y111850D02*
X127540D01*
Y108150D01*
X134460D01*
G01Y111850D02*
Y108150D01*
G01Y107850D02*
X127540D01*
Y104150D01*
X134460D01*
G01Y107850D02*
Y104150D01*
G01X130150Y102460D02*
Y95540D01*
X133850D01*
Y102460D01*
G01X130150D02*
X133850D01*
G01X141150Y115460D02*
X144850D01*
G01X137150D02*
X140850D01*
G01X134460Y119850D02*
X127540D01*
Y116150D01*
X134460D01*
G01Y119850D02*
Y116150D01*
G01Y115850D02*
X127540D01*
Y112150D01*
X134460D01*
G01Y115850D02*
Y112150D01*
G01X143840Y176760D02*
X136160D01*
G01Y171240D02*
X143840D01*
G01X148540Y104150D02*
X155460D01*
Y107850D01*
X148540D01*
G01Y104150D02*
Y107850D01*
G01X155460Y111850D02*
X148540D01*
Y108150D01*
X155460D01*
G01Y111850D02*
Y108150D01*
G01X147540Y159150D02*
X154460D01*
Y162850D01*
X147540D01*
G01Y159150D02*
Y162850D01*
G01X154540Y159150D02*
X161460D01*
Y162850D01*
X154540D01*
G01Y159150D02*
Y162850D01*
G54D13*
G01X71000Y170980D02*
X68050Y168030D01*
X73950D01*
X71000Y170980D01*
G01Y173940D02*
Y166060D01*
G01X106460Y125530D02*
X101140D01*
G01X106460Y134470D02*
X101140D01*
Y125530D01*
G01X99470Y122090D02*
Y116770D01*
G01X90530Y122090D02*
Y116770D01*
X99470D01*
G01X90530Y129170D02*
Y134490D01*
G01X99470Y129170D02*
Y134490D01*
X90530D01*
G01X122870Y550D02*
Y3000D01*
G01X118130Y550D02*
Y19450D01*
G01X122730Y550D02*
X118130D01*
G01X122870Y3000D02*
X137000D01*
Y550D01*
G01X118130Y19450D02*
X122730D01*
G01X113540Y125530D02*
X118860D01*
Y134470D01*
G01X113540D02*
X118860D01*
G01X137140Y550D02*
X141750D01*
Y19450D01*
X137140D01*
G01X153860Y42470D02*
X136140D01*
Y33530D01*
G01D02*
X153860D01*
Y42470D01*
G01Y60470D02*
X136140D01*
Y51530D01*
G01D02*
X153860D01*
Y60470D01*
G01X170000Y170020D02*
X172950Y172970D01*
X167050D01*
X170000Y170020D01*
G01Y167060D02*
Y174940D01*
G54D14*
G01X14400Y47750D02*
X1600D01*
Y16250D01*
X14400D01*
Y47750D01*
G01X15160Y152280D02*
X22810D01*
G01X15160Y157790D02*
Y152280D01*
G01X16590Y157790D02*
X15160D01*
G01X13780D02*
X12290D01*
G01X13780Y152280D02*
Y157790D01*
G01X12290Y163690D02*
X16590D01*
G01X12290Y157790D02*
Y163690D01*
G01X11690D02*
Y157790D01*
G01X10220Y152280D02*
X13780D01*
G01X10220Y157790D02*
Y152280D01*
G01X11690Y157790D02*
X10220D01*
G01X8840D02*
X7370D01*
G01X8840Y152280D02*
Y157790D01*
G01X7370Y163690D02*
X11690D01*
G01X7370Y157790D02*
Y163690D01*
G01X1150Y152280D02*
X8840D01*
G01X1150Y170790D02*
Y152280D01*
G01X2910Y170790D02*
X1150D01*
G01X2910Y169410D02*
Y170790D01*
G01X5860Y169410D02*
X2910D01*
G01X22810Y152280D02*
Y170790D01*
G01X16590Y163690D02*
Y157790D01*
G01X21050Y169410D02*
X18140D01*
G01X21050Y170790D02*
Y169410D01*
G01X22810Y170790D02*
X21050D01*
G01X70040Y30440D02*
G03I-383J1D01*
G01X73950Y170980D02*
X68050D01*
G01X74320Y37720D02*
X79680D01*
Y35170D01*
G01X71630Y28280D02*
X79680D01*
Y30830D01*
G01X86630Y28280D02*
X94680D01*
Y30830D01*
G01X85040Y30440D02*
G03I-383J1D01*
G01X73070Y87880D02*
X83460D01*
G01X71890Y90260D02*
G03I-788J0D01*
G01X76540Y100120D02*
X83460D01*
G01X110000Y27000D02*
X100000D01*
Y37000D01*
G01X89320Y37720D02*
X94680D01*
Y35170D01*
G01X110000Y67000D02*
X100000D01*
Y57000D01*
G01X103960Y119380D02*
Y109280D01*
G01X106850Y121350D02*
G03I-590J0D01*
G01X92500Y140130D02*
Y136630D01*
X92940Y136050D01*
X111060D01*
X111500Y136630D01*
Y140130D01*
G01X111000Y150130D02*
X105500D01*
Y139130D01*
X111000D01*
G01X92500Y149130D02*
Y152630D01*
X92940Y153210D01*
X111060D01*
X111500Y152630D01*
Y149130D01*
G01X112360Y36960D02*
X109960D01*
Y39360D01*
G01X112360Y57040D02*
X109960D01*
Y54640D01*
G01X116040Y115980D02*
Y109280D01*
G01X140000Y37000D02*
Y27000D01*
X130000D01*
G01X126500Y34150D02*
G03I-594J-4D01*
G01X127640Y36510D02*
Y36960D01*
X130040D01*
Y39360D01*
G01X127640Y57040D02*
X130040D01*
Y54640D01*
G01X130000Y67000D02*
X140000D01*
Y57000D01*
G01X137590Y153000D02*
G03I-590J0D01*
G01X127690Y168100D02*
X126500D01*
Y155900D01*
X127690D01*
G01X138310Y168100D02*
X139500D01*
Y155900D01*
X138310D01*
G01X150000Y3830D02*
Y580D01*
G01X155000D02*
Y3830D01*
G01X156460Y23410D02*
X172760D01*
Y580D01*
X156460D01*
G01Y23410D02*
X143240D01*
Y580D01*
X156460D01*
G01X155000Y3830D02*
X150000D01*
G01X159600Y33710D02*
X172400D01*
Y60290D01*
X159600D01*
Y33710D01*
G01X153400Y24990D02*
G03I-400J-3D01*
G01X159600Y62170D02*
X172400D01*
Y83830D01*
X159600D01*
Y62170D01*
G01X161000Y3830D02*
Y580D01*
G01X166000D02*
Y3830D01*
G01D02*
X161000D01*
G01X167050Y170020D02*
X172950D01*
G54D15*
G01X118900Y174000D02*
G03I-491J0D01*
G01X148080D02*
G03I-489J0D01*
G54D16*
G01X12000Y142000D02*
Y150000D01*
G01D02*
X10000Y148000D01*
G01X12000Y150000D02*
X14000Y148000D01*
G01X22500Y103500D02*
Y107000D01*
X23500D01*
Y103500D01*
X17800D01*
G01X22500Y116500D02*
Y113000D01*
X23500D01*
Y116500D01*
X17800D01*
G01X59000Y163000D02*
X55000Y167000D01*
G01X59000Y155000D02*
X55000Y159000D01*
G01X59000Y177000D02*
X55000D01*
G01X59000Y169000D02*
X55000Y173000D01*
G01X144500Y105500D02*
Y102000D01*
X145500D01*
Y105500D01*
X139800D01*
G01X144500Y92500D02*
Y96000D01*
X145500D01*
Y92500D01*
X139800D01*
G01X148000Y27000D02*
X144000D01*
G01X146000Y29000D02*
Y25000D01*
G01X145500Y122000D02*
X149000D01*
Y123000D01*
X145500D01*
Y117300D01*
G01X158500Y122000D02*
X155000D01*
Y123000D01*
X158500D01*
Y117300D01*
G01X147500Y173500D02*
X151000D01*
Y174500D01*
X147500D01*
Y168800D01*
G01X160500Y173500D02*
X157000D01*
Y174500D01*
X160500D01*
Y168800D01*
G01X170000Y27000D02*
X166000D01*
G54D17*
G01X134470Y-1220D02*
G03I-596J0D01*
M02*
