G04 ================== begin FILE IDENTIFICATION RECORD ==================*
G04 Layout Name:  CATALYST_NOZZLE_V1_2601.brd*
G04 Film Name:    Board_SilkTop*
G04 File Format:  Gerber RS274X*
G04 File Origin:  Cadence Allegro 17.2-S071*
G04 Origin Date:  Tue Jan 13 09:57:40 2026*
G04 *
G04 Layer:  BOARD GEOMETRY/SILKSCREEN_TOP*
G04 Layer:  BOARD GEOMETRY/OUTLINE*
G04 Layer:  PACKAGE GEOMETRY/SILKSCREEN_TOP*
G04 *
G04 Offset:    (0.0 0.0)*
G04 Mirror:    No*
G04 Mode:      Positive*
G04 Rotation:  0*
G04 FullContactRelief:  No*
G04 UndefLineWidth:     6.0*
G04 ================== end FILE IDENTIFICATION RECORD ====================*
%FSLAX25Y25*MOIN*%
%IR0*IPPOS*OFA0.00000B0.00000*MIA0B0*SFA1.00000B1.00000*%
%ADD10C,.006*%
%ADD11C,.007*%
%ADD12C,.0047*%
%ADD13C,.0059*%
%ADD14C,.0079*%
%ADD15C,.0098*%
%ADD16C,.01*%
%ADD17C,.0118*%
G75*
%LPD*%
G75*
G36*
G01X1800Y152880D02*
G03I-788J2D01*
G37*
G36*
G01X3340Y180250D02*
G03I-592J-2D01*
G37*
G36*
G01X50360Y72410D02*
G02I-978J-4D01*
G37*
G36*
G01X158780Y26120D02*
G03I-792J-2D01*
G37*
G54D10*
G01X18000Y179000D02*
Y180000D01*
X7000D01*
X6000Y179000D01*
G01Y175000D02*
X7000Y174000D01*
X18000D01*
Y175000D01*
G01X85240Y103000D02*
G03I-2240J0D01*
G01Y111000D02*
G03I-2240J0D01*
G01X76240D02*
G03I-2240J0D01*
G01X158000Y67500D02*
G03X159000Y68500I0J1000D01*
G01X151000D02*
G03X152000Y67500I1000J0D01*
G01X151000Y79500D02*
Y68500D01*
G01X152000Y67500D02*
X158000D01*
G01X159000Y79500D02*
Y68500D01*
G01Y79500D02*
G03X158000Y80500I-1000J0D01*
G01X152000D02*
G03X151000Y79500I0J-1000D01*
G01X152000Y80500D02*
X158000D01*
G01X0Y185040D02*
Y0D01*
X173230D01*
Y185040D01*
X0D01*
G54D11*
G01X16750Y133250D02*
X16450Y133400D01*
X16100Y133500D01*
X15700D01*
X15250Y133350D01*
X14900Y133100D01*
X14650Y132800D01*
X14450Y132300D01*
X14400Y131850D01*
X14500Y131400D01*
X14650Y131100D01*
X14950Y130800D01*
X15300Y130600D01*
X15650Y130500D01*
X16000D01*
X16350Y130600D01*
X16650Y130750D01*
X16900Y130950D01*
G01X17750Y130500D02*
X19000Y133500D01*
X20250Y130500D01*
G01X19800Y131550D02*
X18200D01*
G01X21200Y130500D02*
Y133500D01*
X23500Y130500D01*
Y133500D01*
G01X34700Y18100D02*
X34900Y18250D01*
X35050Y18500D01*
X35150Y18850D01*
X35050Y19150D01*
X34850Y19350D01*
X34500Y19500D01*
X33150D01*
Y16500D01*
X34800D01*
X35150Y16700D01*
X35350Y17000D01*
X35450Y17350D01*
X35350Y17700D01*
X35050Y18000D01*
X34700Y18100D01*
X33150D01*
G01X37650Y16500D02*
X37250Y16550D01*
X36900Y16750D01*
X36600Y17050D01*
X36400Y17400D01*
X36300Y17800D01*
Y18200D01*
X36400Y18600D01*
X36600Y18950D01*
X36900Y19250D01*
X37250Y19450D01*
X37650Y19500D01*
X38050Y19450D01*
X38400Y19250D01*
X38700Y18950D01*
X38900Y18600D01*
X39000Y18200D01*
Y17800D01*
X38900Y17400D01*
X38700Y17050D01*
X38400Y16750D01*
X38050Y16550D01*
X37650Y16500D01*
G01X41000D02*
X40600Y16550D01*
X40250Y16750D01*
X39950Y17050D01*
X39750Y17400D01*
X39650Y17800D01*
Y18200D01*
X39750Y18600D01*
X39950Y18950D01*
X40250Y19250D01*
X40600Y19450D01*
X41000Y19500D01*
X41400Y19450D01*
X41750Y19250D01*
X42050Y18950D01*
X42250Y18600D01*
X42350Y18200D01*
Y17800D01*
X42250Y17400D01*
X42050Y17050D01*
X41750Y16750D01*
X41400Y16550D01*
X41000Y16500D01*
G01X44350Y19500D02*
Y16500D01*
G01X43200Y19500D02*
X45500D01*
G01X47700D02*
X47300Y19400D01*
X47000Y19150D01*
X46800Y18850D01*
X46650Y18450D01*
X46600Y18000D01*
X46650Y17550D01*
X46800Y17150D01*
X47000Y16850D01*
X47300Y16600D01*
X47700Y16500D01*
X48100Y16600D01*
X48400Y16850D01*
X48600Y17150D01*
X48750Y17550D01*
X48800Y18000D01*
X48750Y18450D01*
X48600Y18850D01*
X48400Y19150D01*
X48100Y19400D01*
X47700Y19500D01*
G01X20650Y20500D02*
Y23500D01*
X21900D01*
X22300Y23350D01*
X22550Y23150D01*
X22650Y22750D01*
X22550Y22350D01*
X22250Y22100D01*
X21900Y21950D01*
X20650D01*
G01X21900D02*
X22650Y20500D01*
G01X23950Y20900D02*
X24350Y20650D01*
X24800Y20500D01*
X25200D01*
X25600Y20650D01*
X25900Y20900D01*
X26050Y21250D01*
X25950Y21600D01*
X25700Y21900D01*
X25250Y22100D01*
X24650Y22200D01*
X24300Y22400D01*
X24150Y22750D01*
X24250Y23100D01*
X24500Y23350D01*
X24850Y23500D01*
X25200D01*
X25550Y23400D01*
X25850Y23150D01*
G01X28350Y23500D02*
Y20500D01*
G01X27200Y23500D02*
X29500D01*
G01X30700Y66250D02*
X30400Y66400D01*
X30050Y66500D01*
X29650D01*
X29200Y66350D01*
X28850Y66100D01*
X28600Y65800D01*
X28400Y65300D01*
X28350Y64850D01*
X28450Y64400D01*
X28600Y64100D01*
X28900Y63800D01*
X29250Y63600D01*
X29600Y63500D01*
X29950D01*
X30300Y63600D01*
X30600Y63750D01*
X30850Y63950D01*
G01X31700Y63500D02*
X32950Y66500D01*
X34200Y63500D01*
G01X33750Y64550D02*
X32150D01*
G01X36300Y66500D02*
Y63500D01*
G01X35150Y66500D02*
X37450D01*
G01X38400Y63500D02*
X39650Y66500D01*
X40900Y63500D01*
G01X40450Y64550D02*
X38850D01*
G01X42000Y66500D02*
Y63500D01*
X44000D01*
G01X46350D02*
Y64850D01*
X45350Y66500D01*
G01X47350D02*
X46350Y64850D01*
G01X48650Y63900D02*
X49050Y63650D01*
X49500Y63500D01*
X49900D01*
X50300Y63650D01*
X50600Y63900D01*
X50750Y64250D01*
X50650Y64600D01*
X50400Y64900D01*
X49950Y65100D01*
X49350Y65200D01*
X49000Y65400D01*
X48850Y65750D01*
X48950Y66100D01*
X49200Y66350D01*
X49550Y66500D01*
X49900D01*
X50250Y66400D01*
X50550Y66150D01*
G01X53050Y66500D02*
Y63500D01*
G01X51900Y66500D02*
X54200D01*
G01X31480Y58500D02*
Y61500D01*
X33780Y58500D01*
Y61500D01*
G01X35980Y58500D02*
X35580Y58550D01*
X35230Y58750D01*
X34930Y59050D01*
X34730Y59400D01*
X34630Y59800D01*
Y60200D01*
X34730Y60600D01*
X34930Y60950D01*
X35230Y61250D01*
X35580Y61450D01*
X35980Y61500D01*
X36380Y61450D01*
X36730Y61250D01*
X37030Y60950D01*
X37230Y60600D01*
X37330Y60200D01*
Y59800D01*
X37230Y59400D01*
X37030Y59050D01*
X36730Y58750D01*
X36380Y58550D01*
X35980Y58500D01*
G01X38380Y61500D02*
X40280D01*
X38380Y58500D01*
X40280D01*
G01X41730Y61500D02*
X43630D01*
X41730Y58500D01*
X43630D01*
G01X45030Y61500D02*
Y58500D01*
X47030D01*
G01X50380D02*
X48380D01*
Y61500D01*
X50380D01*
G01X49580Y60050D02*
X48380D01*
G01X16500Y81880D02*
X18650D01*
X19100Y82080D01*
X19400Y82480D01*
X19500Y82980D01*
X19400Y83480D01*
X19100Y83880D01*
X18650Y84080D01*
X16500D01*
G01X19100Y85280D02*
X19350Y85680D01*
X19500Y86130D01*
Y86530D01*
X19350Y86930D01*
X19100Y87230D01*
X18750Y87380D01*
X18400Y87280D01*
X18100Y87030D01*
X17900Y86580D01*
X17800Y85980D01*
X17600Y85630D01*
X17250Y85480D01*
X16900Y85580D01*
X16650Y85830D01*
X16500Y86180D01*
Y86530D01*
X16600Y86880D01*
X16850Y87180D01*
G01X17900Y90080D02*
X17750Y90280D01*
X17500Y90430D01*
X17150Y90530D01*
X16850Y90430D01*
X16650Y90230D01*
X16500Y89880D01*
Y88530D01*
X19500D01*
Y90180D01*
X19300Y90530D01*
X19000Y90730D01*
X18650Y90830D01*
X18300Y90730D01*
X18000Y90430D01*
X17900Y90080D01*
Y88530D01*
G01X18900Y91930D02*
X19250Y92230D01*
X19450Y92630D01*
X19500Y93080D01*
X19450Y93480D01*
X19200Y93880D01*
X18900Y94130D01*
X18600Y94180D01*
X18250Y94080D01*
X18000Y93730D01*
X17900Y93380D01*
Y92930D01*
G01Y93380D02*
X17750Y93680D01*
X17500Y93930D01*
X17200Y94030D01*
X16900Y93930D01*
X16650Y93680D01*
X16500Y93230D01*
X16550Y92780D01*
X16750Y92330D01*
G01X26880Y150500D02*
Y148350D01*
X27080Y147900D01*
X27480Y147600D01*
X27980Y147500D01*
X28480Y147600D01*
X28880Y147900D01*
X29080Y148350D01*
Y150500D01*
G01X30280Y147900D02*
X30680Y147650D01*
X31130Y147500D01*
X31530D01*
X31930Y147650D01*
X32230Y147900D01*
X32380Y148250D01*
X32280Y148600D01*
X32030Y148900D01*
X31580Y149100D01*
X30980Y149200D01*
X30630Y149400D01*
X30480Y149750D01*
X30580Y150100D01*
X30830Y150350D01*
X31180Y150500D01*
X31530D01*
X31880Y150400D01*
X32180Y150150D01*
G01X35080Y149100D02*
X35280Y149250D01*
X35430Y149500D01*
X35530Y149850D01*
X35430Y150150D01*
X35230Y150350D01*
X34880Y150500D01*
X33530D01*
Y147500D01*
X35180D01*
X35530Y147700D01*
X35730Y148000D01*
X35830Y148350D01*
X35730Y148700D01*
X35430Y149000D01*
X35080Y149100D01*
X33530D01*
G01X38030Y147500D02*
Y150500D01*
X37430Y149900D01*
G01Y147500D02*
X38630D01*
G01X22750Y160250D02*
X22450Y160400D01*
X22100Y160500D01*
X21700D01*
X21250Y160350D01*
X20900Y160100D01*
X20650Y159800D01*
X20450Y159300D01*
X20400Y158850D01*
X20500Y158400D01*
X20650Y158100D01*
X20950Y157800D01*
X21300Y157600D01*
X21650Y157500D01*
X22000D01*
X22350Y157600D01*
X22650Y157750D01*
X22900Y157950D01*
G01X23750Y157500D02*
X25000Y160500D01*
X26250Y157500D01*
G01X25800Y158550D02*
X24200D01*
G01X27200Y157500D02*
Y160500D01*
X29500Y157500D01*
Y160500D01*
G01X78330Y22500D02*
Y19500D01*
G01X77180Y22500D02*
X79480D01*
G01X80730Y22000D02*
X81030Y22300D01*
X81380Y22450D01*
X81780Y22500D01*
X82280Y22400D01*
X82630Y22150D01*
X82730Y21850D01*
X82680Y21550D01*
X82480Y21300D01*
X81480Y20800D01*
X81030Y20450D01*
X80730Y19950D01*
X80630Y19500D01*
X82730D01*
G01X87330Y146500D02*
Y149500D01*
X88580D01*
X88980Y149350D01*
X89230Y149150D01*
X89330Y148750D01*
X89230Y148350D01*
X88930Y148100D01*
X88580Y147950D01*
X87330D01*
G01X88580D02*
X89330Y146500D01*
G01X90630D02*
X92730Y149500D01*
G01X90630D02*
X92730Y146500D01*
G01X88330Y153500D02*
Y150500D01*
G01X87180Y153500D02*
X89480D01*
G01X90630Y150500D02*
X92730Y153500D01*
G01X90630D02*
X92730Y150500D01*
G01X73500Y161550D02*
X75650D01*
X76100Y161750D01*
X76400Y162150D01*
X76500Y162650D01*
X76400Y163150D01*
X76100Y163550D01*
X75650Y163750D01*
X73500D01*
G01X76100Y164950D02*
X76350Y165350D01*
X76500Y165800D01*
Y166200D01*
X76350Y166600D01*
X76100Y166900D01*
X75750Y167050D01*
X75400Y166950D01*
X75100Y166700D01*
X74900Y166250D01*
X74800Y165650D01*
X74600Y165300D01*
X74250Y165150D01*
X73900Y165250D01*
X73650Y165500D01*
X73500Y165850D01*
Y166200D01*
X73600Y166550D01*
X73850Y166850D01*
G01X74900Y169750D02*
X74750Y169950D01*
X74500Y170100D01*
X74150Y170200D01*
X73850Y170100D01*
X73650Y169900D01*
X73500Y169550D01*
Y168200D01*
X76500D01*
Y169850D01*
X76300Y170200D01*
X76000Y170400D01*
X75650Y170500D01*
X75300Y170400D01*
X75000Y170100D01*
X74900Y169750D01*
Y168200D01*
G01X103330Y22500D02*
Y19500D01*
G01X102180Y22500D02*
X104480D01*
G01X106680Y19500D02*
Y22500D01*
X106080Y21900D01*
G01Y19500D02*
X107280D01*
G01X95300Y93500D02*
Y96500D01*
X96550D01*
X96950Y96350D01*
X97200Y96150D01*
X97300Y95750D01*
X97200Y95350D01*
X96900Y95100D01*
X96550Y94950D01*
X95300D01*
G01X96550D02*
X97300Y93500D01*
G01X98600Y93900D02*
X99000Y93650D01*
X99450Y93500D01*
X99850D01*
X100250Y93650D01*
X100550Y93900D01*
X100700Y94250D01*
X100600Y94600D01*
X100350Y94900D01*
X99900Y95100D01*
X99300Y95200D01*
X98950Y95400D01*
X98800Y95750D01*
X98900Y96100D01*
X99150Y96350D01*
X99500Y96500D01*
X99850D01*
X100200Y96400D01*
X100500Y96150D01*
G01X102050Y96000D02*
X102350Y96300D01*
X102700Y96450D01*
X103100Y96500D01*
X103600Y96400D01*
X103950Y96150D01*
X104050Y95850D01*
X104000Y95550D01*
X103800Y95300D01*
X102800Y94800D01*
X102350Y94450D01*
X102050Y93950D01*
X101950Y93500D01*
X104050D01*
G01X105250Y94100D02*
X105550Y93750D01*
X105950Y93550D01*
X106400Y93500D01*
X106800Y93550D01*
X107200Y93800D01*
X107450Y94100D01*
X107500Y94400D01*
X107400Y94750D01*
X107050Y95000D01*
X106700Y95100D01*
X106250D01*
G01X106700D02*
X107000Y95250D01*
X107250Y95500D01*
X107350Y95800D01*
X107250Y96100D01*
X107000Y96350D01*
X106550Y96500D01*
X106100Y96450D01*
X105650Y96250D01*
G01X108750Y96000D02*
X109050Y96300D01*
X109400Y96450D01*
X109800Y96500D01*
X110300Y96400D01*
X110650Y96150D01*
X110750Y95850D01*
X110700Y95550D01*
X110500Y95300D01*
X109500Y94800D01*
X109050Y94450D01*
X108750Y93950D01*
X108650Y93500D01*
X110750D01*
G01X100750Y101250D02*
X100450Y101400D01*
X100100Y101500D01*
X99700D01*
X99250Y101350D01*
X98900Y101100D01*
X98650Y100800D01*
X98450Y100300D01*
X98400Y99850D01*
X98500Y99400D01*
X98650Y99100D01*
X98950Y98800D01*
X99300Y98600D01*
X99650Y98500D01*
X100000D01*
X100350Y98600D01*
X100650Y98750D01*
X100900Y98950D01*
G01X101750Y98500D02*
X103000Y101500D01*
X104250Y98500D01*
G01X103800Y99550D02*
X102200D01*
G01X105200Y98500D02*
Y101500D01*
X107500Y98500D01*
Y101500D01*
G01X98950Y148000D02*
X99950D01*
Y147100D01*
X99650Y146800D01*
X99300Y146600D01*
X98800Y146500D01*
X98300Y146600D01*
X97950Y146800D01*
X97650Y147100D01*
X97450Y147450D01*
X97350Y147850D01*
Y148200D01*
X97450Y148500D01*
X97650Y148850D01*
X97950Y149150D01*
X98250Y149350D01*
X98650Y149500D01*
X99000D01*
X99400Y149400D01*
X99700Y149200D01*
G01X100850Y146500D02*
Y149500D01*
X103150Y146500D01*
Y149500D01*
G01X104250Y146500D02*
Y149500D01*
X105250D01*
X105650Y149350D01*
X105950Y149150D01*
X106200Y148850D01*
X106400Y148500D01*
X106450Y148000D01*
X106400Y147500D01*
X106200Y147150D01*
X105950Y146850D01*
X105650Y146650D01*
X105250Y146500D01*
X104250D01*
G01X97700Y154000D02*
X98000Y154300D01*
X98350Y154450D01*
X98750Y154500D01*
X99250Y154400D01*
X99600Y154150D01*
X99700Y153850D01*
X99650Y153550D01*
X99450Y153300D01*
X98450Y152800D01*
X98000Y152450D01*
X97700Y151950D01*
X97600Y151500D01*
X99700D01*
G01X102600D02*
Y154500D01*
X100750Y152350D01*
X103250D01*
G01X104100Y154500D02*
X105350Y151500D01*
X106600Y154500D01*
G01X121030Y147500D02*
Y150500D01*
X122930D01*
G01X122230Y149050D02*
X121030D01*
G01X124080Y147500D02*
X125330Y150500D01*
X126580Y147500D01*
G01X126130Y148550D02*
X124530D01*
G01X127530Y147500D02*
Y150500D01*
X129830Y147500D01*
Y150500D01*
G01X130930Y148100D02*
X131230Y147750D01*
X131630Y147550D01*
X132080Y147500D01*
X132480Y147550D01*
X132880Y147800D01*
X133130Y148100D01*
X133180Y148400D01*
X133080Y148750D01*
X132730Y149000D01*
X132380Y149100D01*
X131930D01*
G01X132380D02*
X132680Y149250D01*
X132930Y149500D01*
X133030Y149800D01*
X132930Y150100D01*
X132680Y150350D01*
X132230Y150500D01*
X131780Y150450D01*
X131330Y150250D01*
G01X139700Y67000D02*
X140000Y67300D01*
X140350Y67450D01*
X140750Y67500D01*
X141250Y67400D01*
X141600Y67150D01*
X141700Y66850D01*
X141650Y66550D01*
X141450Y66300D01*
X140450Y65800D01*
X140000Y65450D01*
X139700Y64950D01*
X139600Y64500D01*
X141700D01*
G01X144600D02*
Y67500D01*
X142750Y65350D01*
X145250D01*
G01X146100Y67500D02*
X147350Y64500D01*
X148600Y67500D01*
G01X141230Y69950D02*
X141530Y69700D01*
X141880Y69550D01*
X142330Y69500D01*
X142780Y69600D01*
X143130Y69800D01*
X143380Y70150D01*
X143430Y70550D01*
X143330Y70950D01*
X143080Y71200D01*
X142730Y71400D01*
X142380Y71450D01*
X142030Y71400D01*
X141580Y71200D01*
X141730Y72500D01*
X143080D01*
G01X144430D02*
X145680Y69500D01*
X146930Y72500D01*
G01X141230Y74950D02*
X141530Y74700D01*
X141880Y74550D01*
X142330Y74500D01*
X142780Y74600D01*
X143130Y74800D01*
X143380Y75150D01*
X143430Y75550D01*
X143330Y75950D01*
X143080Y76200D01*
X142730Y76400D01*
X142380Y76450D01*
X142030Y76400D01*
X141580Y76200D01*
X141730Y77500D01*
X143080D01*
G01X144430D02*
X145680Y74500D01*
X146930Y77500D01*
G01X126750Y95250D02*
X126450Y95400D01*
X126100Y95500D01*
X125700D01*
X125250Y95350D01*
X124900Y95100D01*
X124650Y94800D01*
X124450Y94300D01*
X124400Y93850D01*
X124500Y93400D01*
X124650Y93100D01*
X124950Y92800D01*
X125300Y92600D01*
X125650Y92500D01*
X126000D01*
X126350Y92600D01*
X126650Y92750D01*
X126900Y92950D01*
G01X127750Y92500D02*
X129000Y95500D01*
X130250Y92500D01*
G01X129800Y93550D02*
X128200D01*
G01X131200Y92500D02*
Y95500D01*
X133500Y92500D01*
Y95500D01*
G01X124550Y100500D02*
Y98350D01*
X124750Y97900D01*
X125150Y97600D01*
X125650Y97500D01*
X126150Y97600D01*
X126550Y97900D01*
X126750Y98350D01*
Y100500D01*
G01X127950Y97900D02*
X128350Y97650D01*
X128800Y97500D01*
X129200D01*
X129600Y97650D01*
X129900Y97900D01*
X130050Y98250D01*
X129950Y98600D01*
X129700Y98900D01*
X129250Y99100D01*
X128650Y99200D01*
X128300Y99400D01*
X128150Y99750D01*
X128250Y100100D01*
X128500Y100350D01*
X128850Y100500D01*
X129200D01*
X129550Y100400D01*
X129850Y100150D01*
G01X132750Y99100D02*
X132950Y99250D01*
X133100Y99500D01*
X133200Y99850D01*
X133100Y100150D01*
X132900Y100350D01*
X132550Y100500D01*
X131200D01*
Y97500D01*
X132850D01*
X133200Y97700D01*
X133400Y98000D01*
X133500Y98350D01*
X133400Y98700D01*
X133100Y99000D01*
X132750Y99100D01*
X131200D01*
G01X141030Y147500D02*
Y150500D01*
X142930D01*
G01X142230Y149050D02*
X141030D01*
G01X144080Y147500D02*
X145330Y150500D01*
X146580Y147500D01*
G01X146130Y148550D02*
X144530D01*
G01X147530Y147500D02*
Y150500D01*
X149830Y147500D01*
Y150500D01*
G01X151080Y150000D02*
X151380Y150300D01*
X151730Y150450D01*
X152130Y150500D01*
X152630Y150400D01*
X152980Y150150D01*
X153080Y149850D01*
X153030Y149550D01*
X152830Y149300D01*
X151830Y148800D01*
X151380Y148450D01*
X151080Y147950D01*
X150980Y147500D01*
X153080D01*
G01X147700Y4000D02*
X148000Y4300D01*
X148350Y4450D01*
X148750Y4500D01*
X149250Y4400D01*
X149600Y4150D01*
X149700Y3850D01*
X149650Y3550D01*
X149450Y3300D01*
X148450Y2800D01*
X148000Y2450D01*
X147700Y1950D01*
X147600Y1500D01*
X149700D01*
G01X152600D02*
Y4500D01*
X150750Y2350D01*
X153250D01*
G01X154100Y4500D02*
X155350Y1500D01*
X156600Y4500D01*
G01X160950Y3000D02*
X161950D01*
Y2100D01*
X161650Y1800D01*
X161300Y1600D01*
X160800Y1500D01*
X160300Y1600D01*
X159950Y1800D01*
X159650Y2100D01*
X159450Y2450D01*
X159350Y2850D01*
Y3200D01*
X159450Y3500D01*
X159650Y3850D01*
X159950Y4150D01*
X160250Y4350D01*
X160650Y4500D01*
X161000D01*
X161400Y4400D01*
X161700Y4200D01*
G01X162850Y1500D02*
Y4500D01*
X165150Y1500D01*
Y4500D01*
G01X166250Y1500D02*
Y4500D01*
X167250D01*
X167650Y4350D01*
X167950Y4150D01*
X168200Y3850D01*
X168400Y3500D01*
X168450Y3000D01*
X168400Y2500D01*
X168200Y2150D01*
X167950Y1850D01*
X167650Y1650D01*
X167250Y1500D01*
X166250D01*
G01X154500Y94050D02*
Y95250D01*
G01Y94650D02*
X157500D01*
G01Y94050D02*
Y95250D01*
G01Y98000D02*
X157450Y97600D01*
X157250Y97250D01*
X156950Y96950D01*
X156600Y96750D01*
X156200Y96650D01*
X155800D01*
X155400Y96750D01*
X155050Y96950D01*
X154750Y97250D01*
X154550Y97600D01*
X154500Y98000D01*
X154550Y98400D01*
X154750Y98750D01*
X155050Y99050D01*
X155400Y99250D01*
X155800Y99350D01*
X156200D01*
X156600Y99250D01*
X156950Y99050D01*
X157250Y98750D01*
X157450Y98400D01*
X157500Y98000D01*
G01Y101350D02*
X154500D01*
X155100Y100750D01*
G01X157500D02*
Y101950D01*
G01X154500Y117050D02*
Y118250D01*
G01Y117650D02*
X157500D01*
G01Y117050D02*
Y118250D01*
G01Y121000D02*
X157450Y120600D01*
X157250Y120250D01*
X156950Y119950D01*
X156600Y119750D01*
X156200Y119650D01*
X155800D01*
X155400Y119750D01*
X155050Y119950D01*
X154750Y120250D01*
X154550Y120600D01*
X154500Y121000D01*
X154550Y121400D01*
X154750Y121750D01*
X155050Y122050D01*
X155400Y122250D01*
X155800Y122350D01*
X156200D01*
X156600Y122250D01*
X156950Y122050D01*
X157250Y121750D01*
X157450Y121400D01*
X157500Y121000D01*
G01X155000Y123400D02*
X154700Y123700D01*
X154550Y124050D01*
X154500Y124450D01*
X154600Y124950D01*
X154850Y125300D01*
X155150Y125400D01*
X155450Y125350D01*
X155700Y125150D01*
X156200Y124150D01*
X156550Y123700D01*
X157050Y123400D01*
X157500Y123300D01*
Y125400D01*
G01X154500Y135050D02*
Y136250D01*
G01Y135650D02*
X157500D01*
G01Y135050D02*
Y136250D01*
G01Y139000D02*
X157450Y138600D01*
X157250Y138250D01*
X156950Y137950D01*
X156600Y137750D01*
X156200Y137650D01*
X155800D01*
X155400Y137750D01*
X155050Y137950D01*
X154750Y138250D01*
X154550Y138600D01*
X154500Y139000D01*
X154550Y139400D01*
X154750Y139750D01*
X155050Y140050D01*
X155400Y140250D01*
X155800Y140350D01*
X156200D01*
X156600Y140250D01*
X156950Y140050D01*
X157250Y139750D01*
X157450Y139400D01*
X157500Y139000D01*
G01X156900Y141250D02*
X157250Y141550D01*
X157450Y141950D01*
X157500Y142400D01*
X157450Y142800D01*
X157200Y143200D01*
X156900Y143450D01*
X156600Y143500D01*
X156250Y143400D01*
X156000Y143050D01*
X155900Y142700D01*
Y142250D01*
G01Y142700D02*
X155750Y143000D01*
X155500Y143250D01*
X155200Y143350D01*
X154900Y143250D01*
X154650Y143000D01*
X154500Y142550D01*
X154550Y142100D01*
X154750Y141650D01*
G01X160030Y153500D02*
Y156500D01*
X161930D01*
G01X161230Y155050D02*
X160030D01*
G01X163080Y153500D02*
X164330Y156500D01*
X165580Y153500D01*
G01X165130Y154550D02*
X163530D01*
G01X166530Y153500D02*
Y156500D01*
X168830Y153500D01*
Y156500D01*
G01X171030D02*
X170630Y156400D01*
X170330Y156150D01*
X170130Y155850D01*
X169980Y155450D01*
X169930Y155000D01*
X169980Y154550D01*
X170130Y154150D01*
X170330Y153850D01*
X170630Y153600D01*
X171030Y153500D01*
X171430Y153600D01*
X171730Y153850D01*
X171930Y154150D01*
X172080Y154550D01*
X172130Y155000D01*
X172080Y155450D01*
X171930Y155850D01*
X171730Y156150D01*
X171430Y156400D01*
X171030Y156500D01*
G01X169300Y73000D02*
X170300D01*
Y72100D01*
X170000Y71800D01*
X169650Y71600D01*
X169150Y71500D01*
X168650Y71600D01*
X168300Y71800D01*
X168000Y72100D01*
X167800Y72450D01*
X167700Y72850D01*
Y73200D01*
X167800Y73500D01*
X168000Y73850D01*
X168300Y74150D01*
X168600Y74350D01*
X169000Y74500D01*
X169350D01*
X169750Y74400D01*
X170050Y74200D01*
G01X167950Y66900D02*
X168350Y66650D01*
X168800Y66500D01*
X169200D01*
X169600Y66650D01*
X169900Y66900D01*
X170050Y67250D01*
X169950Y67600D01*
X169700Y67900D01*
X169250Y68100D01*
X168650Y68200D01*
X168300Y68400D01*
X168150Y68750D01*
X168250Y69100D01*
X168500Y69350D01*
X168850Y69500D01*
X169200D01*
X169550Y69400D01*
X169850Y69150D01*
G01X167750Y79500D02*
X169000Y76500D01*
X170250Y79500D01*
G54D12*
G01X14020Y18850D02*
X16460D01*
Y15150D01*
X14020D01*
G01X11980Y18850D02*
X9540D01*
Y15150D01*
X11980D01*
G01X15150Y21540D02*
Y28460D01*
X18850D01*
Y21540D01*
G01X15150D02*
X18850D01*
G01X6980Y74150D02*
X4540D01*
Y77850D01*
X6980D01*
G01X9020Y74150D02*
X11460D01*
Y77850D01*
X9020D01*
G01X10460Y114150D02*
X3540D01*
Y117850D01*
X10460D01*
G01Y114150D02*
Y117850D01*
G01X9850Y145460D02*
Y138540D01*
X6150D01*
Y145460D01*
G01X9850D02*
X6150D01*
G01X5850D02*
Y138540D01*
X2150D01*
Y145460D01*
G01X5850D02*
X2150D01*
G01X18850Y156460D02*
Y149540D01*
X15150D01*
Y156460D01*
G01X18850D02*
X15150D01*
G01X18850Y164460D02*
Y157540D01*
X15150D01*
Y164460D01*
G01X18850D02*
X15150D01*
G01X17540Y18850D02*
X24460D01*
Y15150D01*
X17540D01*
G01Y18850D02*
Y15150D01*
G01X21020Y77850D02*
X23460D01*
Y74150D01*
X21020D01*
G01X18980Y77850D02*
X16540D01*
Y74150D01*
X18980D01*
G01X20980Y102150D02*
X18540D01*
Y105850D01*
X20980D01*
G01X23020Y102150D02*
X25460D01*
Y105850D01*
X23020D01*
G01X38460Y99150D02*
X31540D01*
Y102850D01*
X38460D01*
G01X16070Y95750D02*
X27930D01*
G01D02*
Y102250D01*
G01D02*
X16070D01*
Y95750D01*
G01X20980Y114150D02*
X18540D01*
Y117850D01*
X20980D01*
G01X23020Y114150D02*
X25460D01*
Y117850D01*
X23020D01*
G01X33980Y117150D02*
X31540D01*
Y120850D01*
X33980D01*
G01X30540Y160850D02*
X37460D01*
Y157150D01*
X30540D01*
G01Y160850D02*
Y157150D01*
G01X22850Y156460D02*
Y149540D01*
X19150D01*
Y156460D01*
G01X22850D02*
X19150D01*
G01X49150Y73980D02*
Y71540D01*
X52850D01*
Y73980D01*
G01X49150Y76020D02*
Y78460D01*
X52850D01*
Y76020D01*
G01Y81980D02*
Y79540D01*
X49150D01*
Y81980D01*
G01X52850Y84020D02*
Y86460D01*
X49150D01*
Y84020D01*
G01X47150Y108980D02*
Y106540D01*
X50850D01*
Y108980D01*
G01X38460Y99150D02*
Y102850D01*
G01X47150Y111020D02*
Y113460D01*
X50850D01*
Y111020D01*
G01X36020Y117150D02*
X38460D01*
Y120850D01*
X36020D01*
G01X46460Y147150D02*
X39540D01*
Y150850D01*
X46460D01*
G01Y147150D02*
Y150850D01*
G01X56850Y82460D02*
Y75540D01*
X53150D01*
Y82460D01*
G01X56850D02*
X53150D01*
G01X54830Y105950D02*
Y107790D01*
G01X63170Y105950D02*
Y107790D01*
G01X72850Y100980D02*
Y98540D01*
X69150D01*
Y100980D01*
G01X72850Y103020D02*
Y105460D01*
X69150D01*
Y103020D01*
G01X67850Y105460D02*
Y98540D01*
X64150D01*
Y105460D01*
G01X67850D02*
X64150D01*
G01X64410Y113740D02*
G03I-497J4D01*
G01X54830Y112050D02*
Y110210D01*
G01X63170Y112050D02*
Y110210D01*
G01X60020Y126850D02*
X62460D01*
Y123150D01*
X60020D01*
G01X57980Y126850D02*
X55540D01*
Y123150D01*
X57980D01*
G01Y141150D02*
X55540D01*
Y144850D01*
X57980D01*
G01X60020Y141150D02*
X62460D01*
Y144850D01*
X60020D01*
G01X80850Y35460D02*
Y28540D01*
X77150D01*
Y35460D01*
G01X80850D02*
X77150D01*
G01X87150Y28540D02*
Y35460D01*
X90850D01*
Y28540D01*
G01X87150D02*
X90850D01*
G01X72150D02*
Y35460D01*
X75850D01*
Y28540D01*
G01X72150D02*
X75850D01*
G01X77760Y40540D02*
X81300D01*
Y35460D01*
X77760D01*
G01X74240Y40540D02*
X70700D01*
Y35460D01*
X74240D01*
G01X89240Y40540D02*
X85700D01*
Y35460D01*
X89240D01*
G01X85700Y23460D02*
Y28540D01*
G01Y23460D02*
X96300D01*
Y28540D01*
X85700D01*
G01X70700Y23460D02*
Y28540D01*
G01Y23460D02*
X81300D01*
Y28540D01*
X70700D01*
G01X84020Y48850D02*
X86460D01*
Y45150D01*
X84020D01*
G01X81980Y48850D02*
X79540D01*
Y45150D01*
X81980D01*
G01X84020Y52850D02*
X86460D01*
Y49150D01*
X84020D01*
G01X81980Y52850D02*
X79540D01*
Y49150D01*
X81980D01*
G01X87150Y45540D02*
Y52460D01*
X90850D01*
Y45540D01*
G01X87150D02*
X90850D01*
G01X75150D02*
Y52460D01*
X78850D01*
Y45540D01*
G01X75150D02*
X78850D01*
G01X77850Y105460D02*
Y98540D01*
X74150D01*
Y105460D01*
G01X77850D02*
X74150D01*
G01X77850Y149460D02*
Y142540D01*
X74150D01*
Y149460D01*
G01X77850D02*
X74150D01*
G01X99150Y23540D02*
Y30460D01*
X102850D01*
Y23540D01*
G01X99150D02*
X102850D01*
G01X106850Y30460D02*
Y23540D01*
X103150D01*
Y30460D01*
G01X106850D02*
X103150D01*
G01X95850Y35460D02*
Y28540D01*
X92150D01*
Y35460D01*
G01X95850D02*
X92150D01*
G01X92760Y40540D02*
X96300D01*
Y35460D01*
X92760D01*
G01X91150Y50020D02*
Y52460D01*
X94850D01*
Y50020D01*
G01X91150Y47980D02*
Y45540D01*
X94850D01*
Y47980D01*
G01X102150Y88020D02*
Y90460D01*
X105850D01*
Y88020D01*
G01X102150Y85980D02*
Y83540D01*
X105850D01*
Y85980D01*
G01X123000Y104550D02*
X100140D01*
G01X91850Y106980D02*
Y104540D01*
X88150D01*
Y106980D01*
G01X91850Y109020D02*
Y111460D01*
X88150D01*
Y109020D01*
G01X117860Y125450D02*
X100140D01*
G01X104580Y136260D02*
G03I-493J-4D01*
G01X104830Y144050D02*
Y142210D01*
G01Y137950D02*
Y139790D01*
G01X100020Y141850D02*
X102460D01*
Y138150D01*
X100020D01*
G01X97980Y141850D02*
X95540D01*
Y138150D01*
X97980D01*
G01X102460Y142150D02*
X95540D01*
Y145850D01*
X102460D01*
G01Y142150D02*
Y145850D01*
G01X124980Y39850D02*
X122540D01*
Y36150D01*
X124980D01*
G01X118300Y28540D02*
Y23460D01*
G01Y28540D02*
X107700D01*
Y23460D01*
X118300D01*
G01X124980Y57850D02*
X122540D01*
Y54150D01*
X124980D01*
G01X111240Y39460D02*
X107700D01*
Y44540D01*
X111240D01*
G01X114760Y39460D02*
X118300D01*
Y44540D01*
X114760D01*
G01X115020Y103850D02*
X117460D01*
Y100150D01*
X115020D01*
G01X112980Y103850D02*
X110540D01*
Y100150D01*
X112980D01*
G01X115020Y129850D02*
X117460D01*
Y126150D01*
X115020D01*
G01X112980Y129850D02*
X110540D01*
Y126150D01*
X112980D01*
G01X113170Y144050D02*
Y142210D01*
G01Y137950D02*
Y139790D01*
G01X127020Y39850D02*
X129460D01*
Y36150D01*
X127020D01*
G01Y57850D02*
X129460D01*
Y54150D01*
X127020D01*
G01X148460Y79150D02*
X141540D01*
Y82850D01*
X148460D01*
G01X137850Y92460D02*
Y85540D01*
X134150D01*
Y92460D01*
G01X130850Y106980D02*
Y104540D01*
X127150D01*
Y106980D01*
G01X130850Y109020D02*
Y111460D01*
X127150D01*
Y109020D01*
G01X141540Y96850D02*
X148460D01*
Y93150D01*
X141540D01*
G01Y96850D02*
Y93150D01*
G01X148460Y102150D02*
X141540D01*
Y105850D01*
X148460D01*
G01X137850Y92460D02*
X134150D01*
G01X137850Y115460D02*
Y108540D01*
X134150D01*
Y115460D01*
G01X130850Y114980D02*
Y112540D01*
X127150D01*
Y114980D01*
G01X130850Y117020D02*
Y119460D01*
X127150D01*
Y117020D01*
G01X141540Y119850D02*
X148460D01*
Y116150D01*
X141540D01*
G01Y119850D02*
Y116150D01*
G01X137850Y115460D02*
X134150D01*
G01X148460Y79150D02*
Y82850D01*
G01X152150Y83540D02*
Y90460D01*
X155850D01*
Y83540D01*
G01X152150D02*
X155850D01*
G01X148460Y102150D02*
Y105850D01*
G01X152150Y106540D02*
Y113460D01*
X155850D01*
Y106540D01*
G01X152150D02*
X155850D01*
G01X171850Y13460D02*
Y6540D01*
X168150D01*
Y13460D01*
G01X171850D02*
X168150D01*
G01X168460Y28150D02*
X161540D01*
Y31850D01*
X168460D01*
G01Y28150D02*
Y31850D01*
G01X172850Y35460D02*
Y28540D01*
X169150D01*
Y35460D01*
G01X172850D02*
X169150D01*
G01X161540Y36350D02*
X168460D01*
Y32650D01*
X161540D01*
G01Y36350D02*
Y32650D01*
G54D13*
G01X15000Y11940D02*
Y9970D01*
G01Y4060D02*
Y6030D01*
X13030Y9970D01*
G01X9090Y4060D02*
X20910D01*
G01X9090Y11940D02*
X20910D01*
G01X11020Y177000D02*
X13970Y179950D01*
Y174050D01*
X11020Y177000D01*
G01X8060D02*
X15940D01*
G01X34090Y4060D02*
X45910D01*
G01X34090Y11940D02*
X45910D01*
G01X22580Y73310D02*
G03I-678J5D01*
G01X27330Y106080D02*
X18670D01*
G01X27330Y113920D02*
X18670D01*
G01X40000Y11940D02*
Y9970D01*
G01Y4060D02*
Y6030D01*
X38030Y9970D01*
G01X46920Y77030D02*
Y80970D01*
G01X37080Y77030D02*
Y80970D01*
G01X46940Y106180D02*
G03I-594J1D01*
G01X72860Y550D02*
X68250D01*
Y19450D01*
X72860D01*
G01X67650Y135910D02*
G03I-493J-4D01*
G01X63630Y131910D02*
Y135850D01*
G01X53790Y131910D02*
Y135850D01*
G01X54550Y149920D02*
Y145310D01*
X73450D01*
Y149920D01*
G01X54550Y150000D02*
X57000D01*
Y180000D01*
X54550D01*
G01X73450Y180080D02*
Y184690D01*
X54550D01*
Y180080D01*
G01X87130Y3000D02*
X73000D01*
Y550D01*
G01X87130D02*
Y3000D01*
G01X87270Y550D02*
X91870D01*
G01Y19450D02*
X87270D01*
G01X83950Y141080D02*
Y139110D01*
G01X78050Y140090D02*
Y148950D01*
X79030Y149940D01*
G01X82970Y140090D02*
X84940D01*
G01X82970Y149940D02*
X83950Y148950D01*
Y143050D01*
G01X81000Y146980D02*
X82970Y145020D01*
X79030D01*
X81000Y146980D01*
G01X112130Y3000D02*
X98000D01*
Y550D01*
G01X97860D02*
X93250D01*
Y19450D01*
X97860D01*
G01X91870Y550D02*
Y19450D01*
G01X112130Y550D02*
Y3000D01*
G01X116870Y550D02*
Y19450D01*
G01X112270Y550D02*
X116870D01*
G01Y19450D02*
X112270D01*
G01X118000Y156870D02*
Y171000D01*
X115550D01*
G01Y156870D02*
X118000D01*
G01X115550Y152130D02*
X134450D01*
G01X115550Y156730D02*
Y152130D01*
G01Y171140D02*
Y175750D01*
X134450D01*
Y171140D01*
G01X139000Y156870D02*
Y171000D01*
X136550D01*
G01Y156870D02*
X139000D01*
G01X136550Y152130D02*
X155450D01*
G01X136550Y156730D02*
Y152130D01*
G01X134450D02*
Y156730D01*
G01X136550Y171140D02*
Y175750D01*
X155450D01*
Y171140D01*
G01Y152130D02*
Y156730D01*
G54D14*
G01X25470Y1760D02*
X6730D01*
G01X23270Y14240D02*
X6730D01*
G01X3960Y58900D02*
Y63110D01*
G01Y71100D02*
Y66890D01*
G01X13400Y81250D02*
X600D01*
Y112750D01*
X13400D01*
Y81250D01*
G01X26950Y127940D02*
Y120060D01*
X11200D01*
Y127940D01*
X26950D01*
G01X13320Y137280D02*
X18680D01*
Y139830D01*
G01X9050Y144560D02*
G03I-393J-1D01*
G01X1500Y158100D02*
Y164500D01*
X4460D01*
G01X14100D02*
X14500D01*
Y159480D01*
G01X1500Y154560D02*
Y151500D01*
X1900D01*
G01X14100D02*
X14500D01*
Y156520D01*
G01X10630Y146720D02*
X18680D01*
Y144170D01*
G01X11020Y174050D02*
Y179950D01*
G01X50470Y1760D02*
X31730D01*
G01X27830Y4850D02*
G03I-389J0D01*
G01X48270Y14240D02*
X31730D01*
G01X24040Y58900D02*
Y63110D01*
G01Y71100D02*
Y66890D01*
G01X44100Y104700D02*
Y103900D01*
X31900D01*
Y104700D01*
G01X30910Y108130D02*
G03I-390J0D01*
G01X44100Y115300D02*
Y116100D01*
X31900D01*
Y115300D01*
G01X24600Y183750D02*
X37400D01*
Y162090D01*
X24600D01*
Y183750D01*
G01X52830Y4850D02*
G03I-389J0D01*
G01X42000Y85300D02*
Y72700D01*
G01X39600Y183750D02*
X52400D01*
Y152250D01*
X39600D01*
Y183750D01*
G01X66000Y9570D02*
Y990D01*
X56000D01*
Y9570D01*
G01X67960Y5990D02*
G03I-385J0D01*
G01X56000Y50990D02*
Y48120D01*
G01X66000Y50990D02*
X56000D01*
G01X66000Y48120D02*
Y50990D01*
G01X65830Y64440D02*
Y62830D01*
X67440D01*
G01X59690Y87830D02*
G03I-792J-3D01*
G01X61260Y89560D02*
X65830D01*
Y91170D01*
X67440D01*
G01X68900Y128690D02*
Y126900D01*
X70690D01*
G01X58710Y140180D02*
Y127580D01*
G01X68900Y137310D02*
Y139100D01*
X70690D01*
G01X81100Y128690D02*
Y126900D01*
X79310D01*
G01X81100Y137310D02*
Y139100D01*
X79310D01*
G01X78070Y184760D02*
X111930D01*
Y155230D01*
X78070D01*
Y184760D01*
G01X79430Y151520D02*
X82570D01*
G01X78080Y174920D02*
X81080D01*
Y164920D01*
X78080D01*
G01X94170Y64440D02*
Y62830D01*
X92560D01*
G01X94170Y89560D02*
Y91170D01*
X92560D01*
G01X114680Y38720D02*
X109320D01*
Y36170D01*
G01X117370Y29280D02*
X109320D01*
Y31830D01*
G01X119730Y31440D02*
G03I-387J1D01*
G01X118000Y74000D02*
Y70000D01*
X116000Y74000D01*
Y70000D01*
G01X122000Y73000D02*
G03X120000I-1000J0D01*
G01X122000Y71000D02*
G02X120000I-1000J0D01*
G01D02*
Y73000D01*
G01X122000Y71000D02*
Y73000D01*
G01X112040Y91020D02*
X108460D01*
Y68980D01*
X112040D01*
G01X121960Y91020D02*
X125540D01*
Y68980D01*
X121960D01*
G01X118000Y82000D02*
X121000D01*
G01X116000D02*
X113000D01*
G01Y76000D02*
Y86000D01*
X116000D01*
Y78000D01*
X113000D01*
G01X118000Y76000D02*
Y86000D01*
X121000D01*
Y78000D01*
X118000D01*
G01X125280Y106040D02*
G03I-788J3D01*
G01X112190Y176560D02*
Y184440D01*
X135820D01*
Y176560D01*
X112190D01*
G01X142060Y37160D02*
G02Y56840I3182J9840D01*
G01X141630Y33610D02*
X132610D01*
Y55030D01*
X137970Y60390D01*
X141630D01*
G01X135690Y176560D02*
Y184440D01*
X159320D01*
Y176560D01*
X135690D01*
G01X157500Y20900D02*
Y14500D01*
X154540D01*
G01X144900D02*
X144500D01*
Y19520D01*
G01X157500Y24440D02*
Y27500D01*
X157100D01*
G01X144900D02*
X144500D01*
Y22480D01*
G01X149940Y37160D02*
G03Y56840I-3174J9840D01*
G01X150370Y33610D02*
X159390D01*
Y55030D01*
X154030Y60390D01*
X150370D01*
G01X157810Y58810D02*
Y62750D01*
G01X155840Y60780D02*
X159780D01*
G01X150370Y83670D02*
X142320D01*
G01X152620Y85440D02*
G03I-592J1D01*
G01X159600Y106830D02*
X172400D01*
Y85170D01*
X159600D01*
Y106830D01*
G01X150370Y106670D02*
X142320D01*
G01X152620Y108440D02*
G03I-592J1D01*
G01X147680Y92330D02*
X142320D01*
G01X159600Y129830D02*
X172400D01*
Y108170D01*
X159600D01*
Y129830D01*
G01X147680Y115330D02*
X142320D01*
G01X159600Y152830D02*
X172400D01*
Y131170D01*
X159600D01*
Y152830D01*
G01Y184290D02*
X172400D01*
Y157710D01*
X159600D01*
Y184290D01*
G54D15*
G01X29280Y124000D02*
G03I-483J0D01*
G01X110830Y180500D02*
G03I-487J0D01*
G01X134330D02*
G03I-487J0D01*
G54D16*
G01X159500Y18500D02*
X163000D01*
Y17500D01*
X159500D01*
Y23200D01*
G01X172500Y18500D02*
X169000D01*
Y17500D01*
X172500D01*
Y23200D01*
G54D17*
G01X53370Y176810D02*
G03I-590J1D01*
G01X76720Y-1220D02*
G03I-594J0D01*
G01X101720D02*
G03I-594J0D01*
G01X114370Y167870D02*
G03I-590J4D01*
G01X135370D02*
G03I-590J4D01*
M02*
