M48
INCH
T01C.01
T02C.0197
T03C.0315
T04C.0409
T05C.0433
T06C.1594
;LEADER: 12 
;HEADER: 
;CODE  : ASCII 
;FILE  : CATALYST_NOZZLE_V1_2601-1-4.drl for board D:/MaxRuan/Projects/SPB/K1_MAX_MB/NOZZLE/PCB/#Taaaabv49596.tmp ... layers TOP and BOTTOM
;T01 Holesize 1. = 10.000000 Tolerance = +0.000000/-0.000000 PLATED MILS Quantity = 241
;T02 Holesize 2. = 19.700000 Tolerance = +0.000000/-0.000000 PLATED MILS Quantity = 41
;T03 Holesize 3. = 31.500000 Tolerance = +0.000000/-0.000000 PLATED MILS Quantity = 22
;T04 Holesize 4. = 40.900000 Tolerance = +0.000000/-0.000000 PLATED MILS Quantity = 7
;T05 Holesize 5. = 43.300000 Tolerance = +0.000000/-0.000000 PLATED MILS Quantity = 4
;T06 Holesize 6. = 159.400000 Tolerance = +0.000000/-0.000000 PLATED MILS Quantity = 3
%
G90
T01
X000285Y000485
X001500Y000485
X000300Y001700
X000850Y001700
X000300Y002100
R07Y000400
X001000Y005250
X001600Y005250
X001243Y007593
X000400Y007600
X001600Y007600
X001550Y007950
X001550Y008700
X001900Y009000
X001300Y009400
X001300Y009800
X001595Y010805
X001599Y011195
X000850Y011900
X000800Y013800
X000250Y014700
R02X000350
X000250Y015000
R02X000350
X003562Y016138
X003800Y015900
X002100Y014900
X002350Y014350
X003900Y011900
X003100Y011900
X002600Y011600
X003800Y011400
X003800Y011000
X003800Y010600
X002600Y010400
X003900Y010100
X002850Y009900
X002250Y009400
X003449Y008641
X003449Y007900
X002400Y007600
X002700Y006500
X003100Y005950
X002700Y005900
X002038Y002662
X002550Y001700
X005300Y001450
X005300Y002200
X004800Y005100
X004350Y006000
X004800Y006000
X005150Y006000
X005650Y006000
X005950Y006150
X005650Y006400
X005870Y006730
X004150Y007055
X005400Y007450
X005897Y007600
X005400Y008345
X005700Y008350
X004600Y008740
X005500Y010050
X005721Y010212
X004900Y010500
X004584Y010616
X004584Y011384
X004900Y011500
X005500Y012500
X006300Y014300
X007300Y014150
X007650Y013450
X007350Y013450
X007650Y013150
X007350Y013150
X006350Y011450
X006050Y011450
X006500Y010900
X007100Y010625
X007600Y010600
X006600Y010600
X006078Y010212
X006600Y009800
X006600Y009100
X007100Y008800
X006850Y008800
X007200Y008035
X006875Y008025
X007103Y007485
X006849Y007310
X007800Y006750
X007500Y006750
X007170Y006523
X006350Y005650
X006600Y005400
X007857Y005293
X006350Y005195
X006750Y004900
X007900Y004700
X007050Y003800
X007056Y003456
X007056Y003044
X006750Y002550
X008556Y003044
X008092Y003442
X009592Y003442
X008556Y003456
X008550Y003800
X008700Y004700
X009538Y004738
X009950Y004750
X008138Y004900
X008550Y004900
X009538Y005062
X008886Y005400
X009975Y006275
X008112Y006747
X009050Y007422
X008130Y007485
X008640Y008000
X009050Y008112
X009050Y008469
X009350Y009600
X009650Y009600
X009350Y010155
X009000Y010400
X009000Y011200
X008000Y012000
X008300Y012000
X008000Y012350
X008300Y012350
X009987Y013537
X008100Y013950
X011550Y016400
X011150Y016400
X011350Y016200
X011550Y015950
X011150Y015950
X011650Y015450
X010250Y012441
X011350Y012050
X010650Y012050
X010250Y012050
X011850Y010300
X010450Y009780
X011450Y009200
X010700Y009150
R02X-000300
X011950Y009050
X010400Y008350
X011800Y007900
X010150Y007405
X011150Y007155
X010962Y006223
X010950Y005850
X011600Y005100
X011600Y004700
X010650Y004450
X011154Y003247
X010250Y003247
X011149Y002953
X013100Y003750
X013000Y003950
X013200Y003950
X012000Y004300
X012400Y004300
X012000Y004700
X012400Y004700
X012000Y005100
X012400Y005100
X013000Y005450
X013200Y005450
X013100Y005650
X012350Y006250
X012100Y007195
X013050Y007200
X012300Y008000
X013050Y008000
X013800Y008750
X012950Y009050
X012650Y009350
X012600Y010000
X012900Y010000
X012600Y010350
X013600Y010750
X012650Y011200
X012500Y012000
X012500Y012300
X013550Y015000
X012000Y015150
X012350Y015150
X013200Y015250
X012000Y015450
X012350Y015450
X015050Y017000
X014700Y015600
X014050Y015500
X015100Y015199
X014700Y015200
X015110Y014750
X014700Y014750
X014300Y014750
X014700Y014400
X015550Y013350
X015550Y013100
X015550Y012850
X015300Y011850
X015050Y011850
X014055Y011750
X015055Y011645
X015664Y011050
X014100Y009900
X015270Y009500
X015200Y008850
X015350Y008255
X015100Y008050
X015850Y007800
X015050Y007000
X015600Y005800
X015281Y005800
X015600Y005400
X015281Y005400
X015400Y004000
X014750Y004000
X015400Y003600
X014750Y003600
X015650Y002750
X015350Y002750
X015100Y002750
X016800Y011000
X016800Y012650
X016800Y014950
T02
X000987Y002215
X000987Y002708
X000987Y003200
R02Y000492
X000887Y008716
R03Y000492
X000887Y010685
X000708Y016987
X001200Y016987
X001692Y016987
X002913Y016800
R02Y000492
X004413Y017784
R03Y-000492
X004413Y015815
X016413Y017838
X016413Y017346
R02Y-000492
X016413Y014692
R02Y-000492
X016413Y012392
R02Y-000492
X016413Y010092
R02Y-000492
X016413Y007792
R02Y-000492
X016413Y005438
R03Y-000492
T03
X007613Y000744
X008400Y000744
X010113Y000744
X010900Y000744
X012600Y000744
X013387Y000744
X001514Y012400
X002301Y012400
X006144Y015319
X006144Y016106
X006144Y016894
X006144Y017681
X012244Y016000
X012244Y016787
X014344Y016000
X014344Y016787
X015538Y018050
X014750Y018050
X013963Y018050
X013188Y018050
X012400Y018050
X011613Y018050
T04
X006100Y000599
R04Y001000
X015300Y000983
X016300Y000983
T05
X009008Y016508
X009992Y016508
X009992Y017492
X009008Y017492
T06
X003937Y003937
X003937Y013386
X013386Y013386
M30
