G04 ================== begin FILE IDENTIFICATION RECORD ==================*
G04 Layout Name:  CATALYST_NOZZLE_V1_2601.brd*
G04 Film Name:    pastbotm*
G04 File Format:  Gerber RS274X*
G04 File Origin:  Cadence Allegro 17.2-S071*
G04 Origin Date:  Tue Jan 13 09:57:40 2026*
G04 *
G04 Layer:  BOARD GEOMETRY/SPELL*
G04 Layer:  BOARD GEOMETRY/OUTLINE*
G04 Layer:  PACKAGE GEOMETRY/PASTEMASK_BOTTOM*
G04 Layer:  PIN/PASTEMASK_BOTTOM*
G04 Layer:  VIA CLASS/PASTEMASK_BOTTOM*
G04 *
G04 Offset:    (0.0 0.0)*
G04 Mirror:    No*
G04 Mode:      Positive*
G04 Rotation:  0*
G04 FullContactRelief:  No*
G04 UndefLineWidth:     6.0*
G04 ================== end FILE IDENTIFICATION RECORD ====================*
%FSLAX25Y25*MOIN*%
%IR0*IPPOS*OFA0.00000B0.00000*MIA0B0*SFA1.00000B1.00000*%
%AMMACRO26*
4,1,10,-.0248,-.0511,
.0248,-.0511,
.0248,.0511,
.0091,.0511,
.0091,.0393,
-.0008,.0393,
-.0008,.0511,
-.0165,.0511,
-.0165,.0393,
-.0248,.0393,
-.0248,-.0511,
0.0*
%
%ADD26MACRO26*%
%AMMACRO25*
4,1,10,-.0248,-.0511,
.0248,-.0511,
.0248,.0393,
.0165,.0393,
.0165,.0511,
.0008,.0511,
.0008,.0393,
-.0091,.0393,
-.0091,.0511,
-.0248,.0511,
-.0248,-.0511,
0.0*
%
%ADD25MACRO25*%
%ADD29R,.05X.025*%
%ADD30R,.025X.05*%
%ADD28R,.0304X.0303*%
%ADD24R,.0571X.0303*%
%ADD13R,.04X.04*%
%ADD16R,.0224X.0472*%
%ADD20R,.0106X.0339*%
%ADD11R,.0228X.0226*%
%ADD22R,.0366X.0323*%
%ADD21R,.0339X.0106*%
%ADD12R,.0226X.0228*%
%ADD10R,.034X.034*%
%ADD27R,.0157X.0272*%
%ADD23R,.0323X.0366*%
%ADD15R,.0476X.024*%
%ADD14R,.0276X.0217*%
%ADD19R,.0705X.087*%
%ADD18R,.0717X.0457*%
%ADD17R,.0457X.0717*%
%ADD31C,.006*%
G75*
%LPD*%
G75*
G36*
G01X120570Y47570D02*
X124740D01*
Y51740D01*
X120570D01*
Y47570D01*
G37*
G36*
G01Y42260D02*
X124740D01*
Y46430D01*
X120570D01*
Y42260D01*
G37*
G36*
G01X115260Y47570D02*
X119430D01*
Y51740D01*
X115260D01*
Y47570D01*
G37*
G36*
G01Y42260D02*
X119430D01*
Y46430D01*
X115260D01*
Y42260D01*
G37*
G54D10*
X15500Y106250D03*
Y113750D03*
X24500Y110000D03*
X137500Y95250D03*
Y102750D03*
X146500Y99000D03*
X155750Y115000D03*
X148250D03*
X152000Y124000D03*
X157750Y166500D03*
X150250D03*
X154000Y175500D03*
G54D11*
X69000Y91380D03*
Y94620D03*
X88000Y124380D03*
Y127620D03*
X71000Y137380D03*
Y140620D03*
X75000Y137380D03*
Y140620D03*
X104000Y43620D03*
Y40380D03*
Y52620D03*
Y49380D03*
X91000Y90380D03*
X95000D03*
X91000Y93620D03*
X101000Y109380D03*
X95000Y93620D03*
X101000Y112620D03*
X120000Y26380D03*
Y29620D03*
X115000D03*
Y26380D03*
X125000Y29620D03*
Y26380D03*
X139000Y110380D03*
X132000Y100620D03*
Y97380D03*
X139000Y113620D03*
X143000Y110380D03*
Y113620D03*
G54D20*
X114090Y37410D03*
X116060D03*
X118030D03*
X120000D03*
X121970D03*
X123940D03*
Y56590D03*
X121970D03*
X120000D03*
X118030D03*
X116060D03*
X114090D03*
X125910Y37410D03*
Y56590D03*
G54D12*
X70620Y109000D03*
X67380D03*
X106380Y64000D03*
X104380Y103000D03*
X109620Y64000D03*
X124380Y74000D03*
Y70000D03*
X118380Y108000D03*
X121620D03*
X115620Y103000D03*
X112380D03*
X107620D03*
X121620Y123000D03*
X118380D03*
X121620Y112000D03*
X118380D03*
Y116000D03*
X121620D03*
X127620Y74000D03*
Y70000D03*
X132620Y110000D03*
X129380D03*
X132620Y106000D03*
X129380D03*
X132620Y118000D03*
X129380D03*
X132620Y114000D03*
X129380D03*
X150380Y106000D03*
X153620D03*
Y110000D03*
X150380D03*
X149380Y161000D03*
X152620D03*
X156380D03*
X159620D03*
G54D21*
X110410Y52910D03*
Y50940D03*
Y48970D03*
Y47000D03*
Y45030D03*
Y43060D03*
Y41090D03*
X129590D03*
Y43060D03*
Y45030D03*
Y47000D03*
Y48970D03*
Y50940D03*
Y52910D03*
G54D30*
X160000Y108000D03*
Y131000D03*
X164000Y108000D03*
X168000D03*
X164000Y131000D03*
X168000D03*
G54D31*
G01X0Y185040D02*
Y0D01*
X173230D01*
Y185040D01*
X0D01*
G54D22*
X117000Y65030D03*
Y70970D03*
G54D13*
X71000Y162770D03*
Y177230D03*
X170000Y163770D03*
Y178230D03*
G54D14*
X80920Y33000D03*
X73080Y35560D03*
Y30440D03*
X88080Y35560D03*
Y30440D03*
X95920Y33000D03*
G54D23*
X122030Y65000D03*
X127970D03*
G54D15*
X84940Y90260D03*
X75060D03*
X84940Y97740D03*
X75060D03*
Y94000D03*
G54D24*
X122700Y174000D03*
X143300D03*
G54D16*
X106260Y107850D03*
Y117410D03*
X110000Y107850D03*
X113740D03*
Y117410D03*
X110000D03*
G54D25*
X135970Y164180D03*
G54D17*
X104190Y130000D03*
X115810D03*
X139190Y38000D03*
Y56000D03*
X150810Y38000D03*
Y56000D03*
G54D26*
X130030Y164180D03*
G54D18*
X95000Y119820D03*
Y131440D03*
G54D27*
X129160Y156070D03*
X131720D03*
X134280D03*
X136840D03*
X134280Y167930D03*
X131720D03*
G54D19*
X93990Y144630D03*
X110010D03*
G54D28*
X135390Y174000D03*
X130610D03*
G54D29*
X158000Y91000D03*
Y87000D03*
Y95000D03*
M02*
