G04 ================== begin FILE IDENTIFICATION RECORD ==================*
G04 Layout Name:  CATALYST_NOZZLE_V1_2601.brd*
G04 Film Name:    soldtop*
G04 File Format:  Gerber RS274X*
G04 File Origin:  Cadence Allegro 17.2-S071*
G04 Origin Date:  Tue Jan 13 09:57:40 2026*
G04 *
G04 Layer:  BOARD GEOMETRY/SOLDERMASK_TOP*
G04 Layer:  BOARD GEOMETRY/OUTLINE*
G04 Layer:  PACKAGE GEOMETRY/SOLDERMASK_TOP*
G04 Layer:  PIN/SOLDERMASK_TOP*
G04 Layer:  VIA CLASS/SOLDERMASK_TOP*
G04 Layer:  BOARD GEOMETRY/SPELL*
G04 *
G04 Offset:    (0.0 0.0)*
G04 Mirror:    No*
G04 Mode:      Positive*
G04 Rotation:  0*
G04 FullContactRelief:  No*
G04 UndefLineWidth:     6.0*
G04 ================== end FILE IDENTIFICATION RECORD ====================*
%FSLAX25Y25*MOIN*%
%IR0*IPPOS*OFA0.00000B0.00000*MIA0B0*SFA1.00000B1.00000*%
%ADD45R,.0638X.122*%
%ADD22C,.2362*%
%AMMACRO28*
4,1,5,.0236,.0423,
.0236,-.0325,
.0138,-.0423,
-.0236,-.0423,
-.0236,.0423,
.0236,.0423,
0.0*
%
%ADD28MACRO28*%
%ADD37R,.0098X.0299*%
%ADD35R,.0299X.0098*%
%AMMACRO38*
4,1,5,-.0315,-.0315,
-.0315,.0177,
-.0177,.0315,
.0315,.0315,
.0315,-.0315,
-.0315,-.0315,
0.0*
%
%ADD38MACRO38*%
%ADD34R,.0101X.026*%
%ADD33R,.026X.0101*%
%ADD44R,.0402X.015*%
%ADD31R,.011X.0606*%
%ADD32R,.0606X.011*%
%ADD46R,.052X.027*%
%ADD24R,.0441X.0232*%
%ADD29C,.0614*%
%ADD21R,.04X.04*%
%ADD23R,.028X.0118*%
%ADD18R,.0228X.0226*%
%ADD14R,.0205X.0457*%
%ADD11R,.0226X.0228*%
%ADD36R,.0323X.0366*%
%ADD15R,.0457X.0205*%
%ADD17R,.0276X.0217*%
%ADD12C,.0394*%
%ADD16C,.0476*%
%ADD43R,.0256X.0653*%
%ADD30R,.0614X.0614*%
%ADD27R,.0394X.0433*%
%ADD19R,.0157X.0276*%
%ADD42R,.0591X.0157*%
%ADD41C,.0669*%
%ADD39R,.0362X.0299*%
%ADD13R,.0394X.0394*%
%ADD26R,.0476X.0476*%
%ADD25R,.0299X.0543*%
%ADD20R,.0933X.0846*%
%ADD10R,.0488X.0382*%
%ADD40R,.0669X.0669*%
%ADD47C,.006*%
G75*
%LPD*%
G75*
G54D10*
X6570Y4850D03*
Y11150D03*
X23430D03*
Y4850D03*
X31570D03*
Y11150D03*
X48430D03*
Y4850D03*
G54D20*
X8040Y160660D03*
X150960Y18340D03*
G54D11*
X11380Y17000D03*
X14620D03*
X9620Y76000D03*
X6380D03*
X8620Y116000D03*
X5380D03*
X19380Y17000D03*
X22620D03*
X18380Y76000D03*
X21620D03*
X23620Y104000D03*
X20380D03*
X33380Y101000D03*
X23620Y116000D03*
X20380D03*
X33380Y119000D03*
X32380Y159000D03*
X36620Y101000D03*
Y119000D03*
X35620Y159000D03*
X44620Y149000D03*
X41380D03*
X57380Y125000D03*
X60620D03*
Y143000D03*
X57380D03*
X81380Y47000D03*
X84620D03*
X81380Y51000D03*
X84620D03*
X97380Y140000D03*
X100620D03*
Y144000D03*
X97380D03*
X124380Y38000D03*
Y56000D03*
X112380Y102000D03*
X115620D03*
X112380Y128000D03*
X115620D03*
X127620Y38000D03*
Y56000D03*
X146620Y81000D03*
X143380D03*
Y95000D03*
X146620D03*
Y104000D03*
X143380D03*
Y118000D03*
X146620D03*
X166620Y30000D03*
X163380D03*
Y34500D03*
X166620D03*
G54D30*
X61000Y5990D03*
X153000Y9830D03*
G54D12*
X9870Y22150D03*
Y27080D03*
Y32000D03*
Y36920D03*
X8870Y92080D03*
Y106850D03*
Y101920D03*
Y97000D03*
X16920Y169870D03*
X12000D03*
X29130Y168000D03*
Y172920D03*
X44130Y158150D03*
Y163080D03*
Y168000D03*
Y172920D03*
X83000Y103000D03*
Y111000D03*
X74000D03*
X164130Y54380D03*
Y49460D03*
Y44540D03*
Y73000D03*
Y91080D03*
Y77920D03*
Y96000D03*
Y114080D03*
Y119000D03*
Y137080D03*
Y142000D03*
Y163620D03*
Y168540D03*
Y173460D03*
G54D21*
X4770Y177000D03*
X19230D03*
X166000Y16500D03*
X169750Y25500D03*
X162250D03*
G54D40*
X90080Y165080D03*
G54D13*
X9870Y41840D03*
X8870Y87160D03*
X7080Y169870D03*
X29130Y177840D03*
X44130D03*
X164130Y39620D03*
Y68080D03*
Y100920D03*
Y123920D03*
Y146920D03*
Y178380D03*
G54D31*
X69170Y60500D03*
Y93500D03*
X86890Y60500D03*
X84920D03*
X82950D03*
X80980D03*
X79020D03*
X77050D03*
X75080D03*
X73110D03*
X71140D03*
Y93500D03*
X73110D03*
X75080D03*
X77050D03*
X79020D03*
X80980D03*
X82950D03*
X84920D03*
X86890D03*
X90830Y60500D03*
X88860D03*
Y93500D03*
X90830D03*
G54D22*
X39370Y39370D03*
Y133860D03*
X133860D03*
G54D41*
X90080Y174920D03*
X99920Y165080D03*
Y174920D03*
G54D14*
X15570Y60330D03*
X12430D03*
X9280D03*
X6130D03*
Y69670D03*
X9280D03*
X12430D03*
X15570D03*
X21870Y60330D03*
X18720D03*
Y69670D03*
X21870D03*
G54D23*
X32510Y106160D03*
Y108720D03*
Y111280D03*
Y113840D03*
X43490Y108720D03*
Y106160D03*
Y113840D03*
Y111280D03*
G54D32*
X63500Y66170D03*
Y68140D03*
Y70110D03*
Y72080D03*
Y74050D03*
Y76020D03*
Y77980D03*
Y79950D03*
Y81920D03*
Y83890D03*
Y85860D03*
Y87830D03*
X96500Y74050D03*
Y72080D03*
Y70110D03*
Y68140D03*
Y66170D03*
Y87830D03*
Y85860D03*
Y83890D03*
Y81920D03*
Y79950D03*
Y77980D03*
Y76020D03*
G54D42*
X97720Y106040D03*
Y108600D03*
Y111160D03*
Y113720D03*
Y116280D03*
Y118840D03*
Y121400D03*
Y123960D03*
X120280Y108600D03*
Y106040D03*
Y123960D03*
Y121400D03*
Y118840D03*
Y116280D03*
Y113720D03*
Y111160D03*
G54D15*
X5400Y65000D03*
X22600D03*
G54D24*
X19060Y108050D03*
X26940D03*
X19060Y111950D03*
X26940D03*
G54D33*
X62620Y109000D03*
X55380D03*
X105380Y141000D03*
X112620D03*
G54D25*
X18120Y99000D03*
X25880D03*
G54D43*
X119500Y65030D03*
X114500D03*
Y94970D03*
X119500D03*
G54D16*
X15140Y124000D03*
X61440Y153190D03*
Y161060D03*
Y168940D03*
X84000Y7440D03*
X126000D03*
X109000D03*
X122440Y160000D03*
X124000Y180500D03*
X143440Y160000D03*
X131880Y180500D03*
X155380D03*
X147500D03*
G54D34*
X61950Y106360D03*
X59980D03*
X58020D03*
X56050D03*
Y111640D03*
X58020D03*
X59980D03*
X61950D03*
X106050Y143640D03*
Y138360D03*
X108020Y143640D03*
X109980D03*
X111950D03*
Y138360D03*
X109980D03*
X108020D03*
G54D26*
X23010Y124000D03*
X61440Y176810D03*
X76130Y7440D03*
X101130D03*
X122440Y167870D03*
X116130Y180500D03*
X133870Y7440D03*
X143440Y167870D03*
X139630Y180500D03*
G54D17*
X12080Y139440D03*
Y144560D03*
X19920Y142000D03*
X108080Y34000D03*
X115920Y36560D03*
Y31440D03*
G54D44*
X141240Y85440D03*
Y88000D03*
Y90560D03*
Y108440D03*
Y111000D03*
Y113560D03*
X148760Y90560D03*
Y88000D03*
Y85440D03*
Y108440D03*
Y113560D03*
Y111000D03*
G54D35*
X69550Y130050D03*
Y132020D03*
Y133980D03*
Y135950D03*
X80450D03*
Y133980D03*
Y132020D03*
Y130050D03*
G54D27*
X38160Y74470D03*
X45840D03*
X38160Y83530D03*
X45840D03*
X54870Y129350D03*
X62550D03*
X54870Y138410D03*
X62550D03*
G54D36*
X73030Y38000D03*
X78970D03*
X88030D03*
Y26000D03*
X78970D03*
X73030D03*
X93970Y38000D03*
Y26000D03*
X110030D03*
X115970D03*
Y42000D03*
X110030D03*
G54D18*
X8000Y143620D03*
Y140380D03*
X4000Y143620D03*
Y140380D03*
X17000Y23380D03*
Y26620D03*
X21000Y154620D03*
Y151380D03*
X17000Y154620D03*
Y151380D03*
Y162620D03*
Y159380D03*
X51000Y73380D03*
Y76620D03*
Y84620D03*
Y81380D03*
X49000Y108380D03*
Y111620D03*
X55000Y80620D03*
Y77380D03*
X66000Y103620D03*
Y100380D03*
X79000Y33620D03*
Y30380D03*
X74000D03*
Y33620D03*
X77000Y47380D03*
Y50620D03*
X71000Y103620D03*
Y100380D03*
X76000Y103620D03*
Y100380D03*
Y144380D03*
Y147620D03*
X101000Y25380D03*
Y28620D03*
X89000Y30380D03*
Y33620D03*
X105000Y28620D03*
Y25380D03*
X94000Y33620D03*
Y30380D03*
X93000Y47380D03*
Y50620D03*
X89000Y47380D03*
Y50620D03*
X104000Y85380D03*
Y88620D03*
X90000Y109620D03*
Y106380D03*
X136000Y90620D03*
Y87380D03*
X129000Y109620D03*
Y106380D03*
X136000Y110380D03*
X129000Y117620D03*
Y114380D03*
X136000Y113620D03*
X154000Y85380D03*
Y88620D03*
Y108380D03*
Y111620D03*
X170000Y11620D03*
Y8380D03*
X171000Y33620D03*
Y30380D03*
G54D45*
X146000Y36980D03*
Y57020D03*
G54D19*
X4160Y152490D03*
X6720D03*
X9280D03*
X11840D03*
Y163510D03*
X9280D03*
X6720D03*
X147160Y15490D03*
X149720D03*
X152280D03*
X154840Y26510D03*
X152280D03*
X149720D03*
X147160D03*
G54D46*
X155000Y74000D03*
Y70000D03*
Y78000D03*
G54D37*
X77950Y127550D03*
X75980D03*
X74020D03*
X72050D03*
Y138450D03*
X74020D03*
X75980D03*
X77950D03*
G54D28*
X38000Y110000D03*
G54D47*
G01X0Y185040D02*
Y0D01*
X173230D01*
Y185040D01*
X0D01*
G54D29*
X61000Y15990D03*
Y35990D03*
Y25990D03*
Y45990D03*
X163000Y9830D03*
G54D38*
X75000Y133000D03*
G54D39*
X81000Y142950D03*
Y149050D03*
M02*
