G04 ================== begin FILE IDENTIFICATION RECORD ==================*
G04 Layout Name:  CATALYST_NOZZLE_V1_2601.brd*
G04 Film Name:    soldbotm*
G04 File Format:  Gerber RS274X*
G04 File Origin:  Cadence Allegro 17.2-S071*
G04 Origin Date:  Tue Jan 13 09:57:40 2026*
G04 *
G04 Layer:  BOARD GEOMETRY/SOLDERMASK_BOTTOM*
G04 Layer:  BOARD GEOMETRY/OUTLINE*
G04 Layer:  PACKAGE GEOMETRY/SOLDERMASK_BOTTOM*
G04 Layer:  PIN/SOLDERMASK_BOTTOM*
G04 Layer:  VIA CLASS/SOLDERMASK_BOTTOM*
G04 Layer:  BOARD GEOMETRY/SPELL*
G04 *
G04 Offset:    (0.0 0.0)*
G04 Mirror:    No*
G04 Mode:      Positive*
G04 Rotation:  0*
G04 FullContactRelief:  No*
G04 UndefLineWidth:     6.0*
G04 ================== end FILE IDENTIFICATION RECORD ====================*
%FSLAX25Y25*MOIN*%
%IR0*IPPOS*OFA0.00000B0.00000*MIA0B0*SFA1.00000B1.00000*%
%AMMACRO35*
4,1,10,-.0248,-.0511,
.0248,-.0511,
.0248,.0511,
.0091,.0511,
.0091,.0393,
-.0008,.0393,
-.0008,.0511,
-.0165,.0511,
-.0165,.0393,
-.0248,.0393,
-.0248,-.0511,
0.0*
%
%ADD35MACRO35*%
%ADD14C,.2362*%
%AMMACRO34*
4,1,10,-.0248,-.0511,
.0248,-.0511,
.0248,.0393,
.0165,.0393,
.0165,.0511,
.0008,.0511,
.0008,.0393,
-.0091,.0393,
-.0091,.0511,
-.0248,.0511,
-.0248,-.0511,
0.0*
%
%ADD34MACRO34*%
%ADD37R,.0304X.0303*%
%AMMACRO29*
4,1,5,-.0591,-.0591,
.0453,-.0591,
.0591,-.0453,
.0591,.0591,
-.0591,.0591,
-.0591,-.0591,
0.0*
%
%ADD29MACRO29*%
%ADD38R,.052X.027*%
%ADD39R,.027X.052*%
%ADD33R,.0571X.0303*%
%ADD16C,.0614*%
%ADD12R,.04X.04*%
%ADD24R,.0224X.0472*%
%ADD28R,.0106X.0339*%
%ADD18R,.0228X.0226*%
%ADD31R,.0366X.0323*%
%ADD30R,.0339X.0106*%
%ADD19R,.0226X.0228*%
%ADD36R,.0157X.0272*%
%ADD32R,.0323X.0366*%
%ADD21R,.0476X.024*%
%ADD20R,.0276X.0217*%
%ADD10C,.0394*%
%ADD13C,.0476*%
%ADD17R,.0614X.0614*%
%ADD27R,.0705X.087*%
%ADD23C,.0669*%
%ADD26R,.0717X.0457*%
%ADD25R,.0457X.0717*%
%ADD11R,.0394X.0394*%
%ADD15R,.0476X.0476*%
%ADD22R,.0669X.0669*%
%ADD40C,.006*%
G75*
%LPD*%
G75*
G54D10*
X9870Y22150D03*
Y27080D03*
Y32000D03*
Y36920D03*
X8870Y92080D03*
Y106850D03*
Y101920D03*
Y97000D03*
X16920Y169870D03*
X12000D03*
X29130Y168000D03*
Y172920D03*
X44130Y158150D03*
Y163080D03*
Y168000D03*
Y172920D03*
X164130Y54380D03*
Y49460D03*
Y44540D03*
Y73000D03*
Y91080D03*
Y77920D03*
Y96000D03*
Y114080D03*
Y119000D03*
Y137080D03*
Y142000D03*
Y163620D03*
Y168540D03*
Y173460D03*
G54D11*
X9870Y41840D03*
X8870Y87160D03*
X7080Y169870D03*
X29130Y177840D03*
X44130D03*
X164130Y39620D03*
Y68080D03*
Y100920D03*
Y123920D03*
Y146920D03*
Y178380D03*
G54D20*
X80920Y33000D03*
X73080Y35560D03*
Y30440D03*
X88080Y35560D03*
Y30440D03*
X95920Y33000D03*
G54D21*
X84940Y90260D03*
X75060D03*
X84940Y97740D03*
X75060D03*
Y94000D03*
G54D30*
X110410Y52910D03*
Y50940D03*
Y48970D03*
Y47000D03*
Y45030D03*
Y43060D03*
Y41090D03*
X129590D03*
Y43060D03*
Y45030D03*
Y47000D03*
Y48970D03*
Y50940D03*
Y52910D03*
G54D12*
X15500Y106250D03*
Y113750D03*
X24500Y110000D03*
X71000Y162770D03*
Y177230D03*
X137500Y95250D03*
Y102750D03*
X146500Y99000D03*
X155750Y115000D03*
X148250D03*
X152000Y124000D03*
X157750Y166500D03*
X150250D03*
X154000Y175500D03*
X170000Y163770D03*
Y178230D03*
G54D40*
G01X0Y185040D02*
Y0D01*
X173230D01*
Y185040D01*
X0D01*
G54D22*
X90080Y165080D03*
G54D13*
X15140Y124000D03*
X61440Y153190D03*
Y161060D03*
Y168940D03*
X84000Y7440D03*
X126000D03*
X109000D03*
X122440Y160000D03*
X124000Y180500D03*
X143440Y160000D03*
X131880Y180500D03*
X155380D03*
X147500D03*
G54D31*
X117000Y65030D03*
Y70970D03*
G54D23*
X90080Y174920D03*
X99920Y165080D03*
Y174920D03*
G54D32*
X122030Y65000D03*
X127970D03*
G54D14*
X39370Y39370D03*
Y133860D03*
X133860D03*
G54D15*
X23010Y124000D03*
X61440Y176810D03*
X76130Y7440D03*
X101130D03*
X122440Y167870D03*
X116130Y180500D03*
X133870Y7440D03*
X143440Y167870D03*
X139630Y180500D03*
G54D24*
X106260Y107850D03*
Y117410D03*
X110000Y107850D03*
X113740D03*
Y117410D03*
X110000D03*
G54D33*
X122700Y174000D03*
X143300D03*
G54D25*
X104190Y130000D03*
X115810D03*
X139190Y38000D03*
Y56000D03*
X150810Y38000D03*
Y56000D03*
G54D16*
X61000Y15990D03*
Y35990D03*
Y25990D03*
Y45990D03*
X163000Y9830D03*
G54D34*
X135970Y164180D03*
G54D26*
X95000Y119820D03*
Y131440D03*
G54D17*
X61000Y5990D03*
X153000Y9830D03*
G54D35*
X130030Y164180D03*
G54D27*
X93990Y144630D03*
X110010D03*
G54D36*
X129160Y156070D03*
X131720D03*
X134280D03*
X136840D03*
X134280Y167930D03*
X131720D03*
G54D18*
X69000Y91380D03*
Y94620D03*
X88000Y124380D03*
Y127620D03*
X71000Y137380D03*
Y140620D03*
X75000Y137380D03*
Y140620D03*
X104000Y43620D03*
Y40380D03*
Y52620D03*
Y49380D03*
X91000Y90380D03*
X95000D03*
X91000Y93620D03*
X101000Y109380D03*
X95000Y93620D03*
X101000Y112620D03*
X120000Y26380D03*
Y29620D03*
X115000D03*
Y26380D03*
X125000Y29620D03*
Y26380D03*
X139000Y110380D03*
X132000Y100620D03*
Y97380D03*
X139000Y113620D03*
X143000Y110380D03*
Y113620D03*
G54D19*
X70620Y109000D03*
X67380D03*
X106380Y64000D03*
X104380Y103000D03*
X109620Y64000D03*
X124380Y74000D03*
Y70000D03*
X118380Y108000D03*
X121620D03*
X115620Y103000D03*
X112380D03*
X107620D03*
X121620Y123000D03*
X118380D03*
X121620Y112000D03*
X118380D03*
Y116000D03*
X121620D03*
X127620Y74000D03*
Y70000D03*
X132620Y110000D03*
X129380D03*
X132620Y106000D03*
X129380D03*
X132620Y118000D03*
X129380D03*
X132620Y114000D03*
X129380D03*
X150380Y106000D03*
X153620D03*
Y110000D03*
X150380D03*
X149380Y161000D03*
X152620D03*
X156380D03*
X159620D03*
G54D28*
X114090Y37410D03*
X116060D03*
X118030D03*
X120000D03*
X121970D03*
X123940D03*
Y56590D03*
X121970D03*
X120000D03*
X118030D03*
X116060D03*
X114090D03*
X125910Y37410D03*
Y56590D03*
G54D37*
X135390Y174000D03*
X130610D03*
G54D38*
X158000Y91000D03*
Y87000D03*
Y95000D03*
G54D29*
X120000Y47000D03*
G54D39*
X160000Y108000D03*
Y131000D03*
X164000Y108000D03*
X168000D03*
X164000Y131000D03*
X168000D03*
M02*
