G04 ================== begin FILE IDENTIFICATION RECORD ==================*
G04 Layout Name:  CATALYST_NOZZLE_V1_2601.brd*
G04 Film Name:    TOP*
G04 File Format:  Gerber RS274X*
G04 File Origin:  Cadence Allegro 17.2-S071*
G04 Origin Date:  Tue Jan 13 09:57:40 2026*
G04 *
G04 Layer:  ETCH/TOP*
G04 Layer:  PIN/TOP*
G04 Layer:  VIA CLASS/TOP*
G04 *
G04 Offset:    (0.0 0.0)*
G04 Mirror:    No*
G04 Mode:      Positive*
G04 Rotation:  0*
G04 FullContactRelief:  No*
G04 UndefLineWidth:     6.0*
G04 ================== end FILE IDENTIFICATION RECORD ====================*
%FSLAX25Y25*MOIN*%
%IR0*IPPOS*OFA0.00000B0.00000*MIA0B0*SFA1.00000B1.00000*%
%AMMACRO46*
4,1,6,.0467,.0423,
.0467,-.0423,
.0309,-.0423,
.0309,-.0246,
-.0467,-.0246,
-.0467,.0423,
.0467,.0423,
0.0*
%
%ADD46MACRO46*%
%ADD47R,.0638X.122*%
%ADD23C,.2362*%
%AMMACRO29*
4,1,5,.0236,.0423,
.0236,-.0325,
.0138,-.0423,
-.0236,-.0423,
-.0236,.0423,
.0236,.0423,
0.0*
%
%ADD29MACRO29*%
%ADD38R,.0098X.0299*%
%ADD36R,.0299X.0098*%
%AMMACRO39*
4,1,5,-.0315,-.0315,
-.0315,.0177,
-.0177,.0315,
.0315,.0315,
.0315,-.0315,
-.0315,-.0315,
0.0*
%
%ADD39MACRO39*%
%ADD35R,.0101X.026*%
%ADD34R,.026X.0101*%
%ADD12C,.02*%
%ADD48R,.05X.025*%
%ADD45R,.0402X.015*%
%ADD32R,.011X.0606*%
%ADD33R,.0606X.011*%
%AMMACRO21*
4,1,6,-.0467,-.0423,
-.0467,.0423,
-.0309,.0423,
-.0309,.0246,
.0467,.0246,
.0467,-.0423,
-.0467,-.0423,
0.0*
%
%ADD21MACRO21*%
%ADD25R,.0441X.0232*%
%ADD30C,.0614*%
%ADD22R,.04X.04*%
%ADD24R,.028X.0118*%
%ADD19R,.0228X.0226*%
%ADD15R,.0205X.0457*%
%ADD11R,.0226X.0228*%
%ADD37R,.0323X.0366*%
%ADD16R,.0457X.0205*%
%ADD50R,.036X.036*%
%ADD18R,.0276X.0217*%
%ADD13C,.0394*%
%ADD17C,.0476*%
%ADD44R,.0256X.0653*%
%ADD31R,.0614X.0614*%
%ADD28R,.0394X.0433*%
%ADD20R,.0157X.0276*%
%ADD43R,.0591X.0157*%
%ADD42C,.0669*%
%ADD40R,.0362X.0299*%
%ADD14R,.0394X.0394*%
%ADD49R,.0197X.0197*%
%ADD27R,.0476X.0476*%
%ADD26R,.0299X.0543*%
%ADD10R,.0488X.0382*%
%ADD41R,.0669X.0669*%
%ADD51C,.007*%
%ADD52C,.0066*%
%ADD53C,.01*%
%ADD54C,.017*%
%ADD55C,.0344*%
G75*
%LPD*%
G75*
G36*
G01X11340Y5480D02*
X9010Y6760D01*
X6320Y4850D01*
X9010Y2940D01*
X11340Y4220D01*
G03Y5480I-770J630D01*
G37*
G36*
G01X2050Y4310D02*
X4130Y2940D01*
X6820Y4850D01*
X4130Y6760D01*
X2050Y5390D01*
G03Y4310I840J-540D01*
G37*
G36*
G01X9750Y17430D02*
X8990Y17860D01*
X8380Y17000D01*
X8990Y16140D01*
X9750Y16570D01*
G03Y17430I-250J430D01*
G37*
G36*
G01X8800Y16650D02*
X10250Y15860D01*
X11500Y17000D01*
X10250Y18140D01*
X8800Y17350D01*
G03Y16650I360J-350D01*
G37*
G36*
G01X12100Y73230D02*
X11400Y71960D01*
X12430Y69540D01*
X13460Y71960D01*
X12760Y73230D01*
G03X12100I-330J-380D01*
G37*
G36*
G01X8950D02*
X8260Y71960D01*
X9280Y69540D01*
X10300Y71960D01*
X9610Y73230D01*
G03X8950I-330J-380D01*
G37*
G36*
G01X9940Y73520D02*
X10750Y74860D01*
X9620Y76120D01*
X8490Y74860D01*
X9300Y73520D01*
G03X9940I320J380D01*
G37*
G36*
G01X5800Y73230D02*
X5100Y71960D01*
X6130Y69540D01*
X7160Y71960D01*
X6460Y73230D01*
G03X5800I-330J-380D01*
G37*
G36*
G01X6700Y73520D02*
X7510Y74860D01*
X6380Y76120D01*
X5250Y74860D01*
X6060Y73520D01*
G03X6700I320J380D01*
G37*
G36*
G01X15800Y75650D02*
X17250Y74860D01*
X18500Y76000D01*
X17250Y77140D01*
X15800Y76350D01*
G03Y75650I360J-350D01*
G37*
G36*
G01X11060Y75570D02*
X11940Y75080D01*
X12550Y75920D01*
X11990Y76810D01*
X11120Y76460D01*
G03X11060Y75570I192J-460D01*
G37*
G36*
G01X12860Y74680D02*
X13290Y75440D01*
X12430Y76060D01*
X11570Y75440D01*
X12000Y74680D01*
G03X12860I430J250D01*
G37*
G36*
G01X12200Y76350D02*
X10750Y77140D01*
X9500Y76000D01*
X10750Y74860D01*
X12200Y75650D01*
G03Y76350I-360J350D01*
G37*
G36*
G01X5250Y76430D02*
X4490Y76860D01*
X3880Y76000D01*
X4490Y75140D01*
X5250Y75570D01*
G03Y76430I-250J430D01*
G37*
G36*
G01X3800Y75650D02*
X5250Y74860D01*
X6500Y76000D01*
X5250Y77140D01*
X3800Y76350D01*
G03Y75650I360J-350D01*
G37*
G36*
G01X7250Y118570D02*
X8010Y118140D01*
X8620Y119000D01*
X8010Y119860D01*
X7250Y119430D01*
G03Y118570I250J-430D01*
G37*
G36*
G01X5060Y118480D02*
X4250Y117140D01*
X5380Y115880D01*
X6510Y117140D01*
X5700Y118480D01*
G03X5060I-320J-380D01*
G37*
G36*
G01X7900Y139990D02*
X10700Y138360D01*
X12200Y139410D01*
X13460Y140520D01*
X8210Y140880D01*
G03X7900Y139990I7J-501D01*
G37*
G36*
G01X7570Y139250D02*
X7140Y138490D01*
X8000Y137880D01*
X8860Y138490D01*
X8430Y139250D01*
G03X7570I-430J-250D01*
G37*
G36*
G01X10580Y140730D02*
X9140Y141510D01*
X7880Y140380D01*
X9140Y139250D01*
X10580Y140030D01*
G03Y140730I-360J350D01*
G37*
G36*
G01X8350Y137800D02*
X9140Y139250D01*
X8000Y140500D01*
X6860Y139250D01*
X7650Y137800D01*
G03X8350I350J360D01*
G37*
G36*
G01X4270Y137670D02*
X5140Y139250D01*
X4000Y140470D01*
X2860Y139250D01*
X3730Y137670D01*
G03X4270I270J230D01*
G37*
G36*
G01X4600Y167900D02*
G03X5110Y167390I510J0D01*
G01X9050D01*
G03X9410Y167530I8J513D01*
G02X9970I280J-283D01*
G01X13000Y164500D01*
Y157000D01*
X12500Y156500D01*
X2000D01*
X1500Y157000D01*
Y180000D01*
X2500Y181000D01*
X8000D01*
X9000Y180000D01*
Y172350D01*
X5110D01*
G03X4600Y171840I0J-510D01*
G01Y167900D01*
G37*
G36*
G01X2000Y146000D02*
X1500Y146500D01*
Y153500D01*
X2000Y154000D01*
X9500D01*
X10000Y153500D01*
Y151000D01*
X11000Y150000D01*
Y147000D01*
X10000Y146000D01*
X2000D01*
G37*
G36*
G01X16000Y181000D02*
X21500D01*
X22500Y180000D01*
Y174850D01*
X22490Y174820D01*
G03X22440Y174500I999J-320D01*
G01Y167940D01*
X22000Y167500D01*
X19030D01*
G02X18740Y168170I4J400D01*
G03X19410Y169870I-1822J1700D01*
G03X16920Y172360I-2490J0D01*
G03X15610Y171990I0J-2504D01*
G02X15000Y172330I-211J339D01*
G01Y180000D01*
X16000Y181000D01*
G37*
G36*
G01X14630Y167670D02*
X13890Y170380D01*
X11940Y169930D01*
X11490Y167980D01*
X14200Y167240D01*
G03X14630Y167670I90J340D01*
G37*
G36*
G01X18660Y4220D02*
X20990Y2940D01*
X23680Y4850D01*
X20990Y6760D01*
X18660Y5480D01*
G03Y4220I770J-630D01*
G37*
G36*
G01X36340Y5480D02*
X34010Y6760D01*
X31320Y4850D01*
X34010Y2940D01*
X36340Y4220D01*
G03Y5480I-770J630D01*
G37*
G36*
G01X24250Y16570D02*
X25010Y16140D01*
X25620Y17000D01*
X25010Y17860D01*
X24250Y17430D01*
G03Y16570I250J-430D01*
G37*
G36*
G01X25200Y17350D02*
X23750Y18140D01*
X22500Y17000D01*
X23750Y15860D01*
X25200Y16650D01*
G03Y17350I-360J350D01*
G37*
G36*
G01X36750Y11540D02*
X34010Y13060D01*
X31440Y11150D01*
X34010Y9240D01*
X36750Y10760D01*
G03Y11540I-310J390D01*
G37*
G36*
G01X19130Y26190D02*
X19890Y25760D01*
X20500Y26620D01*
X19890Y27480D01*
X19130Y27050D01*
G03Y26190I250J-430D01*
G37*
G36*
G01X19580Y26970D02*
X18140Y27750D01*
X16880Y26620D01*
X18140Y25490D01*
X19580Y26270D01*
G03Y26970I-360J350D01*
G37*
G36*
G01X18390Y73230D02*
X17700Y71960D01*
X18720Y69540D01*
X19740Y71960D01*
X19050Y73230D01*
G03X18390I-330J-380D01*
G37*
G36*
G01X18700Y73520D02*
X19510Y74860D01*
X18380Y76120D01*
X17250Y74860D01*
X18060Y73520D01*
G03X18700I320J380D01*
G37*
G36*
G01X21540Y73230D02*
X20840Y71960D01*
X21870Y69540D01*
X22900Y71960D01*
X22200Y73230D01*
G03X21540I-330J-380D01*
G37*
G36*
G01X21940Y73520D02*
X22750Y74860D01*
X21620Y76120D01*
X20490Y74860D01*
X21300Y73520D01*
G03X21940I320J380D01*
G37*
G36*
G01X33790Y73880D02*
X36190Y72300D01*
X38410Y74470D01*
X36190Y76640D01*
X33790Y75060D01*
G03Y73880I810J-590D01*
G37*
G36*
G01X17250Y76430D02*
X16490Y76860D01*
X15880Y76000D01*
X16490Y75140D01*
X17250Y75570D01*
G03Y76430I-250J430D01*
G37*
G36*
G01X22750Y75570D02*
X23510Y75140D01*
X24120Y76000D01*
X23510Y76860D01*
X22750Y76430D01*
G03Y75570I250J-430D01*
G37*
G36*
G01X24200Y76350D02*
X22750Y77140D01*
X21500Y76000D01*
X22750Y74860D01*
X24200Y75650D01*
G03Y76350I-360J350D01*
G37*
G36*
G01X24750Y103570D02*
X25510Y103140D01*
X26120Y104000D01*
X25510Y104860D01*
X24750Y104430D01*
G03Y103570I250J-430D01*
G37*
G36*
G01X26200Y104350D02*
X24750Y105140D01*
X23500Y104000D01*
X24750Y102860D01*
X26200Y103650D01*
G03Y104350I-360J350D01*
G37*
G36*
G01X28930Y99260D02*
X27360Y100840D01*
X25760Y99000D01*
X27360Y97160D01*
X28930Y98740D01*
G03Y99260I-430J260D01*
G37*
G36*
G01X24750Y115570D02*
X25510Y115140D01*
X26120Y116000D01*
X25510Y116860D01*
X24750Y116430D01*
G03Y115570I250J-430D01*
G37*
G36*
G01X26200Y116350D02*
X24750Y117140D01*
X23500Y116000D01*
X24750Y114860D01*
X26200Y115650D01*
G03Y116350I-360J350D01*
G37*
G36*
G01X32250Y119430D02*
X31490Y119860D01*
X30880Y119000D01*
X31490Y118140D01*
X32250Y118570D01*
G03Y119430I-250J430D01*
G37*
G36*
G01X30800Y118650D02*
X32250Y117860D01*
X33500Y119000D01*
X32250Y120140D01*
X30800Y119350D01*
G03Y118650I360J-350D01*
G37*
G36*
G01X33730Y116420D02*
X34510Y117860D01*
X33380Y119120D01*
X32250Y117860D01*
X33030Y116420D01*
G03X33730I350J360D01*
G37*
G36*
G01X32220Y115830D02*
X31110Y114430D01*
X32510Y113720D01*
X33910Y114430D01*
X32800Y115830D01*
G03X32220I-290J-410D01*
G37*
G36*
G01X19720Y144350D02*
X18540Y143080D01*
X19920Y141910D01*
X21300Y143080D01*
X20120Y144350D01*
G03X19720I-200J-280D01*
G37*
G36*
G01X16760Y165080D02*
X15860Y163750D01*
X17000Y162530D01*
X18140Y163750D01*
X17240Y165080D01*
G03X16760I-240J-250D01*
G37*
G36*
G01X17270Y148670D02*
X18140Y150250D01*
X17000Y151470D01*
X15860Y150250D01*
X16730Y148670D01*
G03X17270I270J230D01*
G37*
G36*
G01X20570Y150250D02*
X20140Y149490D01*
X21000Y148880D01*
X21860Y149490D01*
X21430Y150250D01*
G03X20570I-430J-250D01*
G37*
G36*
G01X21350Y148800D02*
X22140Y150250D01*
X21000Y151500D01*
X19860Y150250D01*
X20650Y148800D01*
G03X21350I350J360D01*
G37*
G36*
G01X53200Y5480D02*
X50870Y6760D01*
X48180Y4850D01*
X50870Y2940D01*
X53200Y4220D01*
G03Y5480I-770J630D01*
G37*
G36*
G01X43660Y4220D02*
X45990Y2940D01*
X48680Y4850D01*
X45990Y6760D01*
X43660Y5480D01*
G03Y4220I770J-630D01*
G37*
G36*
G01X53610Y11540D02*
X50870Y13060D01*
X48300Y11150D01*
X50870Y9240D01*
X53610Y10760D01*
G03Y11540I-310J390D01*
G37*
G36*
G01X43250Y10760D02*
X45990Y9240D01*
X48560Y11150D01*
X45990Y13060D01*
X43250Y11540D01*
G03Y10760I310J-390D01*
G37*
G36*
G01X53290Y73650D02*
X52140Y74510D01*
X50880Y73380D01*
X52140Y72250D01*
X53290Y73110D01*
G03Y73650I-420J270D01*
G37*
G36*
G01X45240Y87980D02*
X43870Y85700D01*
X45840Y83280D01*
X47810Y85700D01*
X46440Y87980D01*
G03X45240I-600J-800D01*
G37*
G36*
G01X53260Y84880D02*
X52140Y85750D01*
X50880Y84620D01*
X52140Y83490D01*
X53260Y84360D01*
G03Y84880I-430J260D01*
G37*
G36*
G01X48570Y106250D02*
X48140Y105490D01*
X49000Y104880D01*
X49860Y105490D01*
X49430Y106250D01*
G03X48570I-430J-250D01*
G37*
G36*
G01X49350Y105800D02*
X50140Y107250D01*
X49000Y108500D01*
X47860Y107250D01*
X48650Y105800D01*
G03X49350I350J360D01*
G37*
G36*
G01X45860Y108340D02*
X47860Y107250D01*
X49120Y108360D01*
X47860Y109510D01*
X45980Y109170D01*
G03X45860Y108340I209J-454D01*
G37*
G36*
G01X45520Y108840D02*
X44890Y109310D01*
X43360Y108720D01*
X44890Y108130D01*
X45520Y108600D01*
G03Y108840I-490J120D01*
G37*
G36*
G01X37750Y100570D02*
X38510Y100140D01*
X39120Y101000D01*
X38510Y101860D01*
X37750Y101430D01*
G03Y100570I250J-430D01*
G37*
G36*
G01X39200Y101350D02*
X37750Y102140D01*
X36500Y101000D01*
X37750Y99860D01*
X39200Y100650D01*
G03Y101350I-360J350D01*
G37*
G36*
G01X37750Y118570D02*
X38510Y118140D01*
X39120Y119000D01*
X38510Y119860D01*
X37750Y119430D01*
G03Y118570I250J-430D01*
G37*
G36*
G01X39200Y119350D02*
X37750Y120140D01*
X36500Y119000D01*
X37750Y117860D01*
X39200Y118650D01*
G03Y119350I-360J350D01*
G37*
G36*
G01X36750Y158570D02*
X37510Y158140D01*
X38120Y159000D01*
X37510Y159860D01*
X36750Y159430D01*
G03Y158570I250J-430D01*
G37*
G36*
G01X36050Y160130D02*
X36480Y160890D01*
X35620Y161500D01*
X34760Y160890D01*
X35190Y160130D01*
G03X36050I430J250D01*
G37*
G36*
G01X38200Y159350D02*
X36750Y160140D01*
X35500Y159000D01*
X36750Y157860D01*
X38200Y158650D01*
G03Y159350I-360J350D01*
G37*
G36*
G01X35270Y161580D02*
X34490Y160140D01*
X35620Y158880D01*
X36750Y160140D01*
X35970Y161580D01*
G03X35270I-350J-360D01*
G37*
G36*
G01X41030Y151580D02*
X40250Y150140D01*
X41380Y148880D01*
X42510Y150140D01*
X41730Y151580D01*
G03X41030I-350J-360D01*
G37*
G36*
G01X42180Y160520D02*
X44640Y161190D01*
X44220Y163170D01*
X42240Y163590D01*
X41570Y161130D01*
G03X42180Y160520I480J-130D01*
G37*
G36*
G01X54730Y5370D02*
X57930Y2920D01*
X61250Y5990D01*
X57930Y9060D01*
X54730Y6610D01*
G03Y5370I790J-620D01*
G37*
G36*
G01X56810Y19750D02*
X58040Y15200D01*
X61060Y15930D01*
X61790Y18950D01*
X57240Y20180D01*
G03X56810Y19750I-90J-340D01*
G37*
G36*
G01X57500Y11880D02*
X61800Y13040D01*
X61090Y16080D01*
X58050Y16790D01*
X56890Y12490D01*
G03X57500Y11880I480J-130D01*
G37*
G36*
G01X70990Y29190D02*
X71420Y29950D01*
X70560Y30560D01*
X69700Y29950D01*
X70130Y29190D01*
G03X70990I430J250D01*
G37*
G36*
G01X60700Y51610D02*
X58350Y47520D01*
X61000Y45900D01*
X63650Y47520D01*
X61300Y51610D01*
G03X60700I-300J-180D01*
G37*
G36*
G01X53420Y73310D02*
X54260Y73550D01*
X54090Y74590D01*
X53050Y74760D01*
X52810Y73920D01*
G03X53420Y73310I480J-130D01*
G37*
G36*
G01X59840Y69930D02*
X60470Y69560D01*
X63590Y70110D01*
X60470Y70660D01*
X59840Y70290D01*
G03Y69930I300J-180D01*
G37*
G36*
G01X59800Y60030D02*
X60360Y61010D01*
X59500Y61590D01*
X58640Y61010D01*
X59200Y60030D01*
G03X59800I300J170D01*
G37*
G36*
G01X52810Y84030D02*
X53050Y83190D01*
X54090Y83360D01*
X54260Y84400D01*
X53420Y84640D01*
G03X52810Y84030I-130J-480D01*
G37*
G36*
G01X67490Y81080D02*
X67790Y79990D01*
X68810Y80190D01*
X69010Y81210D01*
X67920Y81510D01*
G03X67490Y81080I-90J-340D01*
G37*
G36*
G01X67160Y82100D02*
X66530Y82470D01*
X63410Y81920D01*
X66530Y81370D01*
X67160Y81740D01*
G03Y82100I-300J180D01*
G37*
G36*
G01X65570Y99250D02*
X65140Y98490D01*
X66000Y97880D01*
X66860Y98490D01*
X66430Y99250D01*
G03X65570I-430J-250D01*
G37*
G36*
G01X66350Y97800D02*
X67140Y99250D01*
X66000Y100500D01*
X64860Y99250D01*
X65650Y97800D01*
G03X66350I350J360D01*
G37*
G36*
G01X54570Y101750D02*
X54140Y100990D01*
X55000Y100380D01*
X55860Y100990D01*
X55430Y101750D01*
G03X54570I-430J-250D01*
G37*
G36*
G01X54370Y106590D02*
X56400Y108620D01*
X55450Y109100D01*
X54080Y109500D01*
X53580Y107000D01*
G03X54370Y106590I501J0D01*
G37*
G36*
G01X66250Y109430D02*
X65490Y109860D01*
X64880Y109000D01*
X65490Y108140D01*
X66250Y108570D01*
G03Y109430I-250J430D01*
G37*
G36*
G01X63750Y108570D02*
X64510Y108140D01*
X65120Y109000D01*
X64510Y109860D01*
X63750Y109430D01*
G03Y108570I250J-430D01*
G37*
G36*
G01X69140Y100250D02*
X69870Y99430D01*
X71120Y100380D01*
X69870Y101330D01*
X69140Y100510D01*
G03Y100250I480J-130D01*
G37*
G36*
G01X57840Y126930D02*
X56840Y131520D01*
X54780Y129440D01*
X52900Y127180D01*
X57310Y126380D01*
G03X57840Y126930I31J500D01*
G37*
G36*
G01X56250Y125430D02*
X55490Y125860D01*
X54880Y125000D01*
X55490Y124140D01*
X56250Y124570D01*
G03Y125430I-250J430D01*
G37*
G36*
G01X57120Y127260D02*
X56250Y126140D01*
X57380Y124880D01*
X58510Y126140D01*
X57640Y127260D01*
G03X57120I-260J-430D01*
G37*
G36*
G01X54800Y124650D02*
X56250Y123860D01*
X57500Y125000D01*
X56250Y126140D01*
X54800Y125350D01*
G03Y124650I360J-350D01*
G37*
G36*
G01X60120Y143000D02*
X60580Y136240D01*
X62600Y138290D01*
X64270Y140060D01*
X60930Y143390D01*
G03X60120Y143000I-311J-390D01*
G37*
G36*
G01X60970Y140420D02*
X61750Y141860D01*
X60620Y143120D01*
X59490Y141860D01*
X60270Y140420D01*
G03X60970I350J360D01*
G37*
G36*
G01X63200Y143350D02*
X61750Y144140D01*
X60500Y143000D01*
X61750Y141860D01*
X63200Y142650D01*
G03Y143350I-360J350D01*
G37*
G36*
G01X61750Y142570D02*
X62510Y142140D01*
X63120Y143000D01*
X62510Y143860D01*
X61750Y143430D01*
G03Y142570I250J-430D01*
G37*
G36*
G01X83570Y11450D02*
X81950Y8630D01*
X84000Y7320D01*
X86050Y8630D01*
X84430Y11450D01*
G03X83570I-430J-250D01*
G37*
G36*
G01X75770Y12610D02*
X73750Y9820D01*
X76130Y7320D01*
X78510Y9820D01*
X76490Y12610D01*
G03X75770I-360J-350D01*
G37*
G36*
G01X76580Y30730D02*
X75140Y31510D01*
X73880Y30380D01*
X75140Y29250D01*
X76580Y30030D01*
G03Y30730I-360J350D01*
G37*
G36*
G01X76420Y30030D02*
X77860Y29250D01*
X79120Y30380D01*
X77860Y31510D01*
X76420Y30730D01*
G03Y30030I360J-350D01*
G37*
G36*
G01X79170Y28390D02*
X80110Y29270D01*
X79000Y30500D01*
X77890Y29270D01*
X78830Y28390D01*
G03X79170I170J470D01*
G37*
G36*
G01X78710Y29250D02*
X77360Y27830D01*
X78970Y25880D01*
X80580Y27830D01*
X79230Y29250D01*
G03X78710I-260J-420D01*
G37*
G36*
G01X79350Y21930D02*
X80580Y24170D01*
X78970Y26120D01*
X77360Y24170D01*
X78590Y21930D01*
G03X79350I380J320D01*
G37*
G36*
G01X85070Y37750D02*
X86430Y36370D01*
X88160Y38000D01*
X86430Y39630D01*
X85070Y38250D01*
G03Y37750I430J-250D01*
G37*
G36*
G01X70070D02*
X71430Y36370D01*
X73160Y38000D01*
X71430Y39630D01*
X70070Y38250D01*
G03Y37750I430J-250D01*
G37*
G36*
G01X70160Y28290D02*
X71420Y24170D01*
X73120Y25910D01*
X74640Y27830D01*
X70720Y28880D01*
G03X70160Y28290I-68J-496D01*
G37*
G36*
G01X73410Y21930D02*
X74640Y24170D01*
X73030Y26120D01*
X71420Y24170D01*
X72650Y21930D01*
G03X73410I380J320D01*
G37*
G36*
G01X85160Y28290D02*
X86420Y24170D01*
X88120Y25910D01*
X89640Y27830D01*
X85720Y28880D01*
G03X85160Y28290I-68J-496D01*
G37*
G36*
G01X88410Y21930D02*
X89640Y24170D01*
X88030Y26120D01*
X86420Y24170D01*
X87650Y21930D01*
G03X88410I380J320D01*
G37*
G36*
G01X85990Y29190D02*
X86420Y29950D01*
X85560Y30560D01*
X84700Y29950D01*
X85130Y29190D01*
G03X85990I430J250D01*
G37*
G36*
G01X80250Y47430D02*
X79490Y47860D01*
X78880Y47000D01*
X79490Y46140D01*
X80250Y46570D01*
G03Y47430I-250J430D01*
G37*
G36*
G01X77750Y46570D02*
X78510Y46140D01*
X79120Y47000D01*
X78510Y47860D01*
X77750Y47430D01*
G03Y46570I250J-430D01*
G37*
G36*
G01X81680Y48600D02*
X82510Y49860D01*
X81380Y51120D01*
X80250Y49860D01*
X81080Y48600D01*
G03X81680I300J400D01*
G37*
G36*
G01X81060Y53480D02*
X80250Y52140D01*
X81380Y50880D01*
X82510Y52140D01*
X81700Y53480D01*
G03X81060I-320J-380D01*
G37*
G36*
G01X78800Y46650D02*
X80250Y45860D01*
X81500Y47000D01*
X80250Y48140D01*
X78800Y47350D01*
G03Y46650I360J-350D01*
G37*
G36*
G01X81080Y49400D02*
X80250Y48140D01*
X81380Y46880D01*
X82510Y48140D01*
X81680Y49400D01*
G03X81080I-300J-400D01*
G37*
G36*
G01X79430Y47250D02*
X78140Y48510D01*
X76880Y47400D01*
X78140Y46250D01*
X79330Y46620D01*
G03X79430Y47250I-331J375D01*
G37*
G36*
G01X84000Y45500D02*
X83500Y46000D01*
Y54000D01*
X84500Y55000D01*
X85500D01*
X87000Y53500D01*
Y49000D01*
X87500Y48500D01*
X90000D01*
X90500Y48000D01*
Y46000D01*
X90000Y45500D01*
X84000D01*
G37*
G36*
G01X77990Y51740D02*
X78830Y51980D01*
X78660Y53020D01*
X77620Y53190D01*
X77380Y52350D01*
G03X77990Y51740I480J-130D01*
G37*
G36*
G01X78320Y53330D02*
X75860Y51750D01*
X76930Y50520D01*
X78140Y49490D01*
X79010Y52820D01*
G03X78320Y53330I-498J48D01*
G37*
G36*
G01X74700Y68970D02*
X74140Y67990D01*
X75000Y67410D01*
X75860Y67990D01*
X75300Y68970D01*
G03X74700I-300J-170D01*
G37*
G36*
G01X86710Y64160D02*
X86340Y63530D01*
X86890Y60410D01*
X87440Y63530D01*
X87070Y64160D01*
G03X86710I-180J-300D01*
G37*
G36*
G01X71330Y73380D02*
X71880Y74350D01*
X71030Y74940D01*
X70180Y74350D01*
X70730Y73380D01*
G03X71330I300J170D01*
G37*
G36*
G01X75260Y89840D02*
X75630Y90470D01*
X75080Y93590D01*
X74530Y90470D01*
X74900Y89840D01*
G03X75260I180J300D01*
G37*
G36*
G01X86700Y78530D02*
X87260Y79510D01*
X86400Y80090D01*
X85540Y79510D01*
X86100Y78530D01*
G03X86700I300J170D01*
G37*
G36*
G01X82130Y76110D02*
X81040Y75810D01*
X81240Y74790D01*
X82260Y74590D01*
X82560Y75680D01*
G03X82130Y76110I-340J90D01*
G37*
G36*
G01X76430Y104750D02*
X76860Y105510D01*
X76000Y106120D01*
X75140Y105510D01*
X75570Y104750D01*
G03X76430I430J250D01*
G37*
G36*
G01X75650Y106200D02*
X74860Y104750D01*
X76000Y103500D01*
X77140Y104750D01*
X76350Y106200D01*
G03X75650I-350J-360D01*
G37*
G36*
G01X71430Y105000D02*
X71860Y105760D01*
X71000Y106380D01*
X70140Y105760D01*
X70570Y105000D01*
G03X71430I430J250D01*
G37*
G36*
G01X70650Y106200D02*
X69860Y104750D01*
X71000Y103500D01*
X72140Y104750D01*
X71350Y106200D01*
G03X70650I-350J-360D01*
G37*
G36*
G01X72850Y103740D02*
X72130Y104560D01*
X70880Y103620D01*
X72130Y102680D01*
X72850Y103500D01*
G03Y103740I-480J120D01*
G37*
G36*
G01X74900Y97160D02*
X74530Y96530D01*
X75080Y93410D01*
X75630Y96530D01*
X75260Y97160D01*
G03X74900I-180J-300D01*
G37*
G36*
G01X76200Y98150D02*
X77140Y99250D01*
X76000Y100470D01*
X74860Y99250D01*
X75800Y98150D01*
G03X76200I200J280D01*
G37*
G36*
G01X80570Y140750D02*
X80140Y139990D01*
X81000Y139380D01*
X81860Y139990D01*
X81430Y140750D01*
G03X80570I-430J-250D01*
G37*
G36*
G01X81360Y139220D02*
X82810Y141460D01*
X81000Y143080D01*
X79190Y141460D01*
X80640Y139220D01*
G03X81360I360J340D01*
G37*
G36*
G01X74190Y140920D02*
X73950Y141760D01*
X72910Y141590D01*
X72740Y140550D01*
X73580Y140310D01*
G03X74190Y140920I130J480D01*
G37*
G36*
G01X72420Y140310D02*
X73260Y140550D01*
X73090Y141590D01*
X72050Y141760D01*
X71810Y140920D01*
G03X72420Y140310I480J-130D01*
G37*
G36*
G01X96710Y11250D02*
X98750Y5060D01*
X101220Y7350D01*
X103510Y9820D01*
X97320Y11860D01*
G03X96710Y11250I-120J-490D01*
G37*
G36*
G01X91580Y30730D02*
X90140Y31510D01*
X88880Y30380D01*
X90140Y29250D01*
X91580Y30030D01*
G03Y30730I-360J350D01*
G37*
G36*
G01X93710Y29250D02*
X92360Y27830D01*
X93970Y25880D01*
X95580Y27830D01*
X94230Y29250D01*
G03X93710I-260J-420D01*
G37*
G36*
G01X94330Y22130D02*
X95580Y24170D01*
X93970Y26120D01*
X92360Y24170D01*
X93610Y22130D01*
G03X94330I360J340D01*
G37*
G36*
G01X91420Y30030D02*
X92860Y29250D01*
X94120Y30380D01*
X92860Y31510D01*
X91420Y30730D01*
G03Y30030I360J-350D01*
G37*
G36*
G01X94170Y28390D02*
X95110Y29270D01*
X94000Y30500D01*
X92890Y29270D01*
X93830Y28390D01*
G03X94170I170J470D01*
G37*
G36*
G01X105790Y24930D02*
X108420Y24170D01*
X110150Y26020D01*
X108420Y27830D01*
X105660Y25730D01*
G03X105790Y24930I358J-352D01*
G37*
G36*
G01X107580Y25730D02*
X106140Y26510D01*
X104880Y25380D01*
X106140Y24250D01*
X107580Y25030D01*
G03Y25730I-360J350D01*
G37*
G36*
G01X102420Y25030D02*
X103860Y24250D01*
X105120Y25380D01*
X103860Y26510D01*
X102420Y25730D01*
G03Y25030I360J-350D01*
G37*
G36*
G01X103580Y25730D02*
X102140Y26510D01*
X100880Y25380D01*
X102140Y24250D01*
X103580Y25030D01*
G03Y25730I-360J350D01*
G37*
G36*
G01X99200Y48970D02*
X98640Y47990D01*
X99500Y47410D01*
X100360Y47990D01*
X99800Y48970D01*
G03X99200I-300J-170D01*
G37*
G36*
G01X119710Y33730D02*
Y39260D01*
G03X119520Y39920I-1212J8D01*
G01X119500Y39940D01*
X119000Y41600D01*
Y43500D01*
X117500Y45000D01*
X108500D01*
X107000Y43500D01*
X104000D01*
X102500Y45000D01*
Y59000D01*
X103500Y60000D01*
X112000D01*
X113500Y58500D01*
X124500D01*
X125490Y57510D01*
Y35580D01*
X125500Y35570D01*
Y35500D01*
X127000Y34000D01*
X127070D01*
X127080Y33990D01*
X134920D01*
X134930Y34000D01*
X135000D01*
X136500Y35500D01*
Y35570D01*
X136510Y35580D01*
Y44010D01*
X137500Y45000D01*
X149000D01*
X150000Y44000D01*
Y31500D01*
X148000Y29500D01*
X146500D01*
X145500Y28500D01*
Y24500D01*
X143500Y22500D01*
X119500D01*
X118500Y23500D01*
Y30590D01*
X119530Y32850D01*
G03X119600Y33240I-1428J458D01*
G03X119710Y33730I-1094J503D01*
G37*
G36*
G01X94130Y46950D02*
X94890Y46520D01*
X95500Y47380D01*
X94890Y48240D01*
X94130Y47810D01*
G03Y46950I250J-430D01*
G37*
G36*
G01X95580Y47730D02*
X94140Y48510D01*
X92880Y47380D01*
X94140Y46250D01*
X95580Y47030D01*
G03Y47730I-360J350D01*
G37*
G36*
G01X88430Y55250D02*
X88000Y54490D01*
X88860Y53880D01*
X89720Y54490D01*
X89290Y55250D01*
G03X88430I-430J-250D01*
G37*
G36*
G01X94130Y50190D02*
X94890Y49760D01*
X95500Y50620D01*
X94890Y51480D01*
X94130Y51050D01*
G03Y50190I250J-430D01*
G37*
G36*
G01X95580Y50970D02*
X94140Y51750D01*
X92880Y50620D01*
X94140Y49490D01*
X95580Y50270D01*
G03Y50970I-360J350D01*
G37*
G36*
G01X92650Y53200D02*
X91860Y51750D01*
X93000Y50500D01*
X94140Y51750D01*
X93350Y53200D01*
G03X92650I-350J-360D01*
G37*
G36*
G01X90420Y50270D02*
X91860Y49490D01*
X93120Y50620D01*
X91860Y51750D01*
X90420Y50970D01*
G03Y50270I360J-350D01*
G37*
G36*
G01X91580Y50970D02*
X90140Y51750D01*
X88880Y50620D01*
X90140Y49490D01*
X91580Y50270D01*
G03Y50970I-360J350D01*
G37*
G36*
G01X91010Y89840D02*
X91380Y90470D01*
X90830Y93590D01*
X90280Y90470D01*
X90650Y89840D01*
G03X91010I180J300D01*
G37*
G36*
G01X104270Y83090D02*
X105140Y84250D01*
X104000Y85500D01*
X102860Y84250D01*
X103730Y83090D01*
G03X104270I270J420D01*
G37*
G36*
G01X101520Y85060D02*
X102860Y84250D01*
X104120Y85380D01*
X102860Y86510D01*
X101520Y85700D01*
G03Y85060I380J-320D01*
G37*
G36*
G01X104430Y90250D02*
X104860Y91010D01*
X104000Y91620D01*
X103140Y91010D01*
X103570Y90250D01*
G03X104430I430J250D01*
G37*
G36*
G01X103650Y91200D02*
X102860Y89750D01*
X104000Y88500D01*
X105140Y89750D01*
X104350Y91200D01*
G03X103650I-350J-360D01*
G37*
G36*
G01X101520Y88300D02*
X102860Y87490D01*
X104120Y88620D01*
X102860Y89750D01*
X101520Y88940D01*
G03Y88300I380J-320D01*
G37*
G36*
G01X89040Y89840D02*
X89410Y90470D01*
X88860Y93590D01*
X88310Y90470D01*
X88680Y89840D01*
G03X89040I180J300D01*
G37*
G36*
G01X89650Y112200D02*
X88860Y110750D01*
X90000Y109500D01*
X91140Y110750D01*
X90350Y112200D01*
G03X89650I-350J-360D01*
G37*
G36*
G01X92580Y109970D02*
X91140Y110750D01*
X89880Y109620D01*
X91140Y108490D01*
X92580Y109270D01*
G03Y109970I-360J350D01*
G37*
G36*
G01X93860Y108340D02*
X94760Y107820D01*
X97840Y108600D01*
X94760Y109380D01*
X93860Y108860D01*
G03Y108340I430J-260D01*
G37*
G36*
G01Y105780D02*
X94760Y105260D01*
X97840Y106040D01*
X94760Y106820D01*
X93860Y106300D01*
G03Y105780I430J-260D01*
G37*
G36*
G01X88140Y106250D02*
X88870Y105430D01*
X90120Y106380D01*
X88870Y107330D01*
X88140Y106510D01*
G03Y106250I480J-130D01*
G37*
G36*
G01X92580Y106730D02*
X91140Y107510D01*
X89880Y106380D01*
X91140Y105250D01*
X92580Y106030D01*
G03Y106730I-360J350D01*
G37*
G36*
G01X90350Y103800D02*
X91140Y105250D01*
X90000Y106500D01*
X88860Y105250D01*
X89650Y103800D01*
G03X90350I350J360D01*
G37*
G36*
G01X89570Y105250D02*
X89140Y104490D01*
X90000Y103880D01*
X90860Y104490D01*
X90430Y105250D01*
G03X89570I-430J-250D01*
G37*
G36*
G01X103080Y125600D02*
X102240Y125360D01*
X102410Y124320D01*
X103450Y124150D01*
X103690Y124990D01*
G03X103080Y125600I-480J130D01*
G37*
G36*
G01X90430Y110750D02*
X90860Y111510D01*
X90000Y112120D01*
X89140Y111510D01*
X89570Y110750D01*
G03X90430I430J250D01*
G37*
G36*
G01X98680Y135950D02*
X98920Y135110D01*
X99960Y135280D01*
X100130Y136320D01*
X99290Y136560D01*
G03X98680Y135950I-130J-480D01*
G37*
G36*
G01X97730Y141420D02*
X98510Y142860D01*
X97380Y144120D01*
X96250Y142860D01*
X97030Y141420D01*
G03X97730I350J360D01*
G37*
G36*
G01X97700Y137520D02*
X98510Y138860D01*
X97380Y140120D01*
X96250Y138860D01*
X97060Y137520D01*
G03X97700I320J380D01*
G37*
G36*
G01X97030Y142580D02*
X96250Y141140D01*
X97380Y139880D01*
X98510Y141140D01*
X97730Y142580D01*
G03X97030I-350J-360D01*
G37*
G36*
G01X103520Y140840D02*
X104080Y140500D01*
X105470Y141000D01*
X104080Y141500D01*
X103520Y141160D01*
G03Y140840I310J-160D01*
G37*
G36*
G01X100940Y137520D02*
X101750Y138860D01*
X100620Y140120D01*
X99490Y138860D01*
X100300Y137520D01*
G03X100940I320J380D01*
G37*
G36*
G01X104210Y141350D02*
X99490Y141140D01*
X100540Y139980D01*
X101750Y138860D01*
X104430Y140740D01*
G03X104210Y141350I-232J261D01*
G37*
G36*
G01Y162020D02*
X103150Y165950D01*
X99740Y165260D01*
X99050Y161850D01*
X102980Y160790D01*
G03X104210Y162020I260J970D01*
G37*
G36*
G01X105860Y9970D02*
X106710Y6820D01*
X109090Y7350D01*
X109620Y9730D01*
X106470Y10580D01*
G03X105860Y9970I-130J-480D01*
G37*
G36*
G01X122860D02*
X123710Y6820D01*
X126090Y7350D01*
X126620Y9730D01*
X123470Y10580D01*
G03X122860Y9970I-130J-480D01*
G37*
G36*
G01X118000Y33830D02*
X114540Y32520D01*
X115830Y31360D01*
X117300Y30360D01*
X118590Y33210D01*
G03X118000Y33830I-482J132D01*
G37*
G36*
G01X116280Y28580D02*
X117300Y30360D01*
X115920Y31560D01*
X114540Y30360D01*
X115560Y28580D01*
G03X116280I360J350D01*
G37*
G36*
G01X116250Y22650D02*
X117580Y24170D01*
X115970Y26120D01*
X114360Y24170D01*
X115690Y22650D01*
G03X116250I280J410D01*
G37*
G36*
G01X115710Y29250D02*
X114360Y27830D01*
X115970Y25880D01*
X117580Y27830D01*
X116230Y29250D01*
G03X115710I-260J-420D01*
G37*
G36*
G01X110410Y21930D02*
X111640Y24170D01*
X110030Y26120D01*
X108420Y24170D01*
X109650Y21930D01*
G03X110410I380J320D01*
G37*
G36*
G01X118920Y39420D02*
X117580Y43830D01*
X115890Y42090D01*
X114360Y40170D01*
X118330Y38840D01*
G03X118920Y39420I99J490D01*
G37*
G36*
G01X110630Y64730D02*
X113230Y62130D01*
X114620Y65030D01*
X113230Y67930D01*
X110630Y65330D01*
G03Y64730I400J-300D01*
G37*
G36*
G01X114850Y60150D02*
X115780Y61760D01*
X114500Y65160D01*
X113220Y61760D01*
X114150Y60150D01*
G03X114850I350J360D01*
G37*
G36*
G01X119810Y60370D02*
X120780Y61760D01*
X119500Y65160D01*
X118220Y61760D01*
X119190Y60370D01*
G03X119810I310J390D01*
G37*
G36*
G01X109190Y63480D02*
X108760Y62720D01*
X109620Y62100D01*
X110480Y62720D01*
X110050Y63480D01*
G03X109190I-430J-250D01*
G37*
G36*
G01X112030Y104580D02*
X111250Y103140D01*
X112380Y101880D01*
X113510Y103140D01*
X112730Y104580D01*
G03X112030I-350J-360D01*
G37*
G36*
G01X109800Y127650D02*
X111250Y126860D01*
X112500Y128000D01*
X111250Y129140D01*
X109800Y128350D01*
G03Y127650I360J-350D01*
G37*
G36*
G01X107690Y119920D02*
X107450Y120760D01*
X106410Y120590D01*
X106240Y119550D01*
X107080Y119310D01*
G03X107690Y119920I130J480D01*
G37*
G36*
G01X157920Y183000D02*
X159000D01*
X160000Y182000D01*
Y173000D01*
X159000Y172000D01*
X119500D01*
X117000Y169500D01*
Y159500D01*
X115000Y157500D01*
X112000D01*
X109500Y160000D01*
Y174000D01*
X113170Y177670D01*
X113310Y177560D01*
G03X113750Y177410I440J570D01*
G01X118510D01*
G03X119220Y178120I0J710D01*
G01Y183000D01*
X121200D01*
G02X121520Y182360I1J-400D01*
G03X126480I2480J-1860D01*
G02X126800Y183000I319J240D01*
G01X129340D01*
G02X129640Y182350I-8J-398D01*
G03X128980Y180500I2243J-1843D01*
G03X134780I2900J0D01*
G03X134120Y182350I-2903J7D01*
G02X134420Y183000I308J252D01*
G01X136540D01*
Y178120D01*
G03X137250Y177410I710J0D01*
G01X142010D01*
G03X142720Y178120I0J710D01*
G01Y183000D01*
X144700D01*
G02X145020Y182360I1J-400D01*
G03X149980I2480J-1860D01*
G02X150300Y183000I319J240D01*
G01X152840D01*
G02X153140Y182350I-8J-398D01*
G03X152480Y180500I2243J-1843D01*
G03X158280I2900J0D01*
G03X157620Y182350I-2903J7D01*
G02X157920Y183000I308J252D01*
G37*
G36*
G01X129450Y11250D02*
X131490Y5060D01*
X133960Y7350D01*
X136250Y9820D01*
X130060Y11860D01*
G03X129450Y11250I-120J-490D01*
G37*
G36*
G01X128500Y66000D02*
X148650D01*
X148680Y65990D01*
G03X149000Y65940I320J999D01*
G01X158560D01*
X161000Y63500D01*
Y30990D01*
X160890Y30940D01*
G03X160640Y30750I511J-931D01*
G01X158250Y28360D01*
G03X157940Y27610I752J-750D01*
G01Y26440D01*
X156500Y25000D01*
X150000D01*
X149000Y26000D01*
Y28500D01*
X151500Y31000D01*
Y48000D01*
X149500Y50000D01*
X137500D01*
X135500Y48000D01*
Y36000D01*
X134500Y35000D01*
X127500D01*
X126500Y36000D01*
Y64000D01*
X128500Y66000D01*
G37*
G36*
G01X138290Y87650D02*
X137140Y88510D01*
X135880Y87380D01*
X137140Y86250D01*
X138290Y87110D01*
G03Y87650I-420J270D01*
G37*
G36*
G01X138370Y87760D02*
X139230Y87250D01*
X141360Y88000D01*
X139230Y88750D01*
X138370Y88240D01*
G03Y87760I440J-240D01*
G37*
G36*
G01X136640Y86900D02*
X137600Y86600D01*
X138120Y87510D01*
X137510Y88360D01*
X136540Y87810D01*
G03X136640Y86900I250J-433D01*
G37*
G36*
G01X139870Y88000D02*
X138500D01*
X137880Y87470D01*
X138490Y86650D01*
X140120Y87570D01*
X139870Y88000D01*
G37*
G36*
G01X135570Y108750D02*
X135140Y107990D01*
X136000Y107380D01*
X136860Y107990D01*
X136430Y108750D01*
G03X135570I-430J-250D01*
G37*
G36*
G01X136350Y107800D02*
X137140Y109250D01*
X136000Y110500D01*
X134860Y109250D01*
X135650Y107800D01*
G03X136350I350J360D01*
G37*
G36*
G01X139410Y111490D02*
X137140Y111510D01*
X135880Y110360D01*
X137140Y109250D01*
X139610Y110610D01*
G03X139410Y111490I-320J390D01*
G37*
G36*
G01X143730Y106320D02*
X143250Y109190D01*
X141180Y108500D01*
X139230Y107690D01*
X143270Y105970D01*
G03X143730Y106320I111J331D01*
G37*
G36*
G01X138370Y110760D02*
X139230Y110250D01*
X141360Y111000D01*
X139230Y111750D01*
X138370Y111240D01*
G03Y110760I440J-240D01*
G37*
G36*
G01X140250Y118970D02*
X139690Y117990D01*
X140550Y117410D01*
X141410Y117990D01*
X140850Y118970D01*
G03X140250I-300J-170D01*
G37*
G36*
G01X144220Y157000D02*
X151000D01*
X152090Y155910D01*
Y153990D01*
G02X151560Y153620I-399J6D01*
G03X151000Y153710I-549J-1632D01*
G03X149280Y151990I0J-1720D01*
G01Y151870D01*
X149290Y151780D01*
X148300Y150790D01*
G03X147990Y150040I752J-750D01*
G01Y146490D01*
X147210Y145710D01*
X147120Y145720D01*
X147000D01*
G03X148720Y144000I0J-1720D01*
G01Y144120D01*
X148710Y144210D01*
X149800Y145300D01*
G03X150110Y146050I-752J750D01*
G01Y149600D01*
X150790Y150280D01*
X150880Y150270D01*
X151000D01*
G03X151560Y150360I11J1722D01*
G02X152090Y149990I131J-376D01*
G01Y138090D01*
X151500Y137500D01*
X147000D01*
X145100Y139400D01*
G03X139400Y145100I-11240J-5540D01*
G01X137500Y147000D01*
X131000D01*
X129000Y149000D01*
Y156000D01*
X130000Y157000D01*
X142660D01*
X142680Y156990D01*
G03X143440Y156900I742J3012D01*
G03X144200Y156990I18J3102D01*
G01X144220Y157000D01*
G37*
G36*
G01X157000Y5000D02*
X145500D01*
X145000Y5500D01*
Y22000D01*
X145500Y22500D01*
X157000D01*
X157500Y22000D01*
Y5500D01*
X157000Y5000D01*
G37*
G36*
G01X151130Y69680D02*
X152500Y68750D01*
X155250Y70000D01*
X152500Y71250D01*
X151130Y70320D01*
G03Y69680I950J-320D01*
G37*
G36*
G01X152470Y80800D02*
X151490Y81360D01*
X150910Y80500D01*
X151490Y79640D01*
X152470Y80200D01*
G03Y80800I-170J300D01*
G37*
G36*
G01X153360Y89100D02*
X152400Y89400D01*
X151880Y88490D01*
X152490Y87640D01*
X153460Y88190D01*
G03X153360Y89100I-250J433D01*
G37*
G36*
G01X150130Y88000D02*
X151500D01*
X152120Y88530D01*
X151510Y89350D01*
X149880Y88430D01*
X150130Y88000D01*
G37*
G36*
G01X151630Y88240D02*
X150770Y88750D01*
X148640Y88000D01*
X150770Y87250D01*
X151630Y87760D01*
G03Y88240I-440J240D01*
G37*
G36*
G01X151710Y88350D02*
X152860Y87490D01*
X154120Y88620D01*
X152860Y89750D01*
X151710Y88890D01*
G03Y88350I420J-270D01*
G37*
G36*
G01Y90800D02*
X150770Y91310D01*
X148670Y90560D01*
X150770Y89810D01*
X151710Y90320D01*
G03Y90800I-260J240D01*
G37*
G36*
G01X146270Y92680D02*
X146750Y89810D01*
X148820Y90500D01*
X150770Y91310D01*
X146730Y93030D01*
G03X146270Y92680I-111J-331D01*
G37*
G36*
G01X149330Y104270D02*
X147750Y105140D01*
X146530Y104000D01*
X147750Y102860D01*
X149330Y103730D01*
G03Y104270I-230J270D01*
G37*
G36*
G01X143570Y101830D02*
X144510Y102860D01*
X143380Y104090D01*
X142250Y102860D01*
X143190Y101830D01*
G03X143570I190J290D01*
G37*
G36*
G01X143130Y106510D02*
X142250Y105140D01*
X143380Y103910D01*
X144510Y105140D01*
X143630Y106510D01*
G03X143130I-250J-250D01*
G37*
G36*
G01X146870Y92490D02*
X147750Y93860D01*
X146620Y95090D01*
X145490Y93860D01*
X146370Y92490D01*
G03X146870I250J250D01*
G37*
G36*
G01X155450Y111080D02*
X155690Y110240D01*
X156730Y110410D01*
X156900Y111450D01*
X156060Y111690D01*
G03X155450Y111080I-130J-480D01*
G37*
G36*
G01X155990Y111790D02*
X155130Y112710D01*
X153880Y111620D01*
X155130Y110530D01*
X155990Y111450D01*
G03Y111790I-470J170D01*
G37*
G36*
G01X150590Y110510D02*
X152860Y110490D01*
X154120Y111640D01*
X152860Y112750D01*
X150390Y111390D01*
G03X150590Y110510I320J-390D01*
G37*
G36*
G01X151630Y111240D02*
X150770Y111750D01*
X148640Y111000D01*
X150770Y110250D01*
X151630Y110760D01*
G03Y111240I-440J240D01*
G37*
G36*
G01X143170Y120280D02*
X142250Y119140D01*
X143380Y117910D01*
X144510Y119140D01*
X143590Y120280D01*
G03X143170I-210J-280D01*
G37*
G36*
G01X146350Y120710D02*
X145490Y119140D01*
X146620Y117910D01*
X147750Y119140D01*
X146890Y120710D01*
G03X146350I-270J-230D01*
G37*
G36*
G01X146870Y115490D02*
X147750Y116860D01*
X146620Y118090D01*
X145490Y116860D01*
X146370Y115490D01*
G03X146870I250J250D01*
G37*
G36*
G01X146270Y115680D02*
X146750Y112810D01*
X148820Y113500D01*
X150770Y114310D01*
X146730Y116030D01*
G03X146270Y115680I-111J-331D01*
G37*
G36*
G01X166230Y166000D02*
X168000D01*
X170000Y164000D01*
Y160000D01*
X160000Y150000D01*
Y129000D01*
X158000Y127000D01*
X154000D01*
X153500Y127500D01*
Y131500D01*
X153900Y131900D01*
G03X154210Y132650I-752J750D01*
G01Y157710D01*
X161030Y164530D01*
G02X161700Y164160I279J-287D01*
G03X161640Y163620I2430J-543D01*
G03X166620I2490J0D01*
G03X165940Y165330I-2490J0D01*
G02X166230Y166000I294J270D01*
G37*
G36*
G01X167420Y8030D02*
X168860Y7250D01*
X170120Y8380D01*
X168860Y9510D01*
X167420Y8730D01*
G03Y8030I360J-350D01*
G37*
G36*
G01X168430Y8730D02*
X165180Y12000D01*
X162880Y9860D01*
X164880Y7520D01*
X168140Y7880D01*
G03X168430Y8730I-62J496D01*
G37*
G36*
G01X161290Y14650D02*
X160380Y11310D01*
X163040Y9580D01*
X165470Y11630D01*
X163060Y14970D01*
G03X161290Y14650I-807J-590D01*
G37*
G36*
G01X169730Y14330D02*
X168860Y12750D01*
X170000Y11530D01*
X171140Y12750D01*
X170270Y14330D01*
G03X169730I-270J-230D01*
G37*
G36*
G01X162860Y21530D02*
X164050Y23700D01*
X162250Y25750D01*
X160450Y23700D01*
X161640Y21530D01*
G03X162860I610J800D01*
G37*
G36*
G01X170730Y36330D02*
X169860Y34750D01*
X171000Y33530D01*
X172140Y34750D01*
X171270Y36330D01*
G03X170730I-270J-230D01*
G37*
G36*
G01X170030Y21000D02*
X171550Y23700D01*
X169750Y25590D01*
X167950Y23700D01*
X169470Y21000D01*
G03X170030I280J200D01*
G37*
G36*
G01X169500Y29330D02*
X167950Y27300D01*
X169750Y25410D01*
X171550Y27300D01*
X170000Y29330D01*
G03X169500I-250J-250D01*
G37*
G36*
G01X169780Y28790D02*
X172140Y29250D01*
X171060Y30440D01*
X169860Y31510D01*
X169410Y29150D01*
G03X169780Y28790I350J-10D01*
G37*
G36*
G01X160800Y34150D02*
X162250Y33360D01*
X163500Y34500D01*
X162250Y35640D01*
X160800Y34850D01*
G03Y34150I360J-350D01*
G37*
G36*
G01X166540Y98870D02*
X166100Y102890D01*
X164070Y100980D01*
X162160Y98950D01*
X166180Y98510D01*
G03X166540Y98870I10J350D01*
G37*
G36*
G01X161930Y111450D02*
X164640Y112190D01*
X164190Y114140D01*
X162240Y114590D01*
X161500Y111880D01*
G03X161930Y111450I340J-90D01*
G37*
G36*
G01X166540Y121870D02*
X166100Y125890D01*
X164070Y123980D01*
X162160Y121950D01*
X166180Y121510D01*
G03X166540Y121870I10J350D01*
G37*
G36*
G01X164430Y133670D02*
X165820Y136100D01*
X164130Y137170D01*
X162440Y136100D01*
X163830Y133670D01*
G03X164430I300J170D01*
G37*
G36*
G01X166540Y144870D02*
X166100Y148890D01*
X164070Y146980D01*
X162160Y144950D01*
X166180Y144510D01*
G03X166540Y144870I10J350D01*
G37*
G36*
G01X161160Y168260D02*
X162980Y166950D01*
X164220Y168540D01*
X162980Y170130D01*
X161160Y168820D01*
G03Y168260I210J-280D01*
G37*
%LPC*%
G75*
G36*
G01X154710Y52870D02*
G03X154100I-305J-266D01*
G02X152810Y52280I-1296J1127D01*
G02Y55720I0J1720D01*
G02X154100Y55130I-6J-1717D01*
G03X154710I305J266D01*
G02X156000Y55720I1296J-1127D01*
G02Y52280I0J-1720D01*
G02X154710Y52870I6J1717D01*
G37*
G36*
G01Y56870D02*
G03X154100I-305J-266D01*
G02X152810Y56280I-1296J1127D01*
G02Y59720I0J1720D01*
G02X154100Y59130I-6J-1717D01*
G03X154710I305J266D01*
G02X156000Y59720I1296J-1127D01*
G02Y56280I0J-1720D01*
G02X154710Y56870I6J1717D01*
G37*
G36*
G01X149420Y6760D02*
Y12900D01*
G02X149930Y13410I510J0D01*
G01X156070D01*
G02X156580Y12900I0J-510D01*
G01Y6760D01*
G02X156070Y6250I-510J0D01*
G01X149930D01*
G02X149420Y6760I0J510D01*
G37*
G54D55*
X154000Y36000D03*
Y40000D03*
%LPD*%
G75*
G36*
G01X27250Y98570D02*
X28010Y98140D01*
X28620Y99000D01*
X28010Y99860D01*
X27250Y99430D01*
G03Y98570I250J-430D01*
G37*
G36*
G01X86750Y38430D02*
X85990Y38860D01*
X85380Y38000D01*
X85990Y37140D01*
X86750Y37570D01*
G03Y38430I-250J430D01*
G37*
G36*
G01X71750D02*
X70990Y38860D01*
X70380Y38000D01*
X70990Y37140D01*
X71750Y37570D01*
G03Y38430I-250J430D01*
G37*
G36*
G01X81810Y47750D02*
X82240Y48510D01*
X81380Y49120D01*
X80520Y48510D01*
X80950Y47750D01*
G03X81810I430J250D01*
G37*
G36*
G01X80950Y50250D02*
X80520Y49490D01*
X81380Y48880D01*
X82240Y49490D01*
X81810Y50250D01*
G03X80950I-430J-250D01*
G37*
G36*
G01X103570Y84750D02*
X103140Y83990D01*
X104000Y83380D01*
X104860Y83990D01*
X104430Y84750D01*
G03X103570I-430J-250D01*
G37*
G54D10*
X6570Y4850D03*
Y11150D03*
X23430D03*
Y4850D03*
X31570D03*
Y11150D03*
X48430D03*
Y4850D03*
G54D20*
X4160Y152490D03*
X6720D03*
X9280D03*
X11840D03*
Y163510D03*
X9280D03*
X6720D03*
X147160Y15490D03*
X149720D03*
X152280D03*
X154840Y26510D03*
X152280D03*
X149720D03*
X147160D03*
G54D11*
X11380Y17000D03*
X14620D03*
X9620Y76000D03*
X6380D03*
X8620Y116000D03*
X5380D03*
X19380Y17000D03*
X22620D03*
X18380Y76000D03*
X21620D03*
X23620Y104000D03*
X20380D03*
X33380Y101000D03*
X23620Y116000D03*
X20380D03*
X33380Y119000D03*
X32380Y159000D03*
X36620Y101000D03*
Y119000D03*
X35620Y159000D03*
X44620Y149000D03*
X41380D03*
X57380Y125000D03*
X60620D03*
Y143000D03*
X57380D03*
X81380Y47000D03*
X84620D03*
X81380Y51000D03*
X84620D03*
X97380Y140000D03*
X100620D03*
Y144000D03*
X97380D03*
X124380Y38000D03*
Y56000D03*
X112380Y102000D03*
X115620D03*
X112380Y128000D03*
X115620D03*
X127620Y38000D03*
Y56000D03*
X146620Y81000D03*
X143380D03*
Y95000D03*
X146620D03*
Y104000D03*
X143380D03*
Y118000D03*
X146620D03*
X166620Y30000D03*
X163380D03*
Y34500D03*
X166620D03*
G54D30*
X61000Y15990D03*
Y35990D03*
Y25990D03*
Y45990D03*
X163000Y9830D03*
G54D21*
X8040Y160660D03*
G54D12*
G01X23430Y4850D02*
X15000D01*
G01X6570D02*
X2850D01*
G01X15000D02*
X6570D01*
G01X31570D02*
X48430D01*
G01X38160Y74470D02*
X34530D01*
X34500Y74500D01*
G01D02*
X34490Y74510D01*
Y79000D01*
G01X41500Y70550D02*
X34970D01*
X34500Y71020D01*
Y74500D01*
G01X34490Y79000D02*
Y86410D01*
G01D02*
X35480Y87400D01*
X46000D01*
G01X61000Y5990D02*
X54430D01*
X53290Y4850D01*
X48430D01*
G01X51000Y73380D02*
Y72000D01*
X49550Y70550D01*
X41500D01*
G01X46000Y87400D02*
X49600D01*
X51000Y86000D01*
Y84620D01*
G01X45840Y83530D02*
Y87240D01*
X46000Y87400D01*
G01X111950Y148690D02*
X103360Y157280D01*
Y161640D01*
X99920Y165080D01*
G01X155000Y74000D02*
Y75500D01*
G01X164130Y77920D02*
X162420D01*
X158500Y74000D01*
X155000D01*
G01Y70000D02*
X150500D01*
G01X155000Y78000D02*
Y76500D01*
G01Y78000D02*
X158500D01*
G01X162250Y25500D02*
Y10580D01*
X163000Y9830D01*
X8500Y17000D03*
X2850Y4850D03*
X15000D03*
X3000Y17000D03*
Y21000D03*
Y25000D03*
Y29000D03*
Y33000D03*
Y37000D03*
Y41000D03*
Y45000D03*
Y49000D03*
X10000Y52500D03*
X16000D03*
X12430Y75930D03*
X16000Y76000D03*
X15500Y79500D03*
Y87000D03*
X4000Y76000D03*
X13000Y98000D03*
Y94000D03*
X15950Y108050D03*
X8500Y119000D03*
X15990Y111950D03*
X8000Y138000D03*
X6000Y147000D03*
X9500D03*
X2500D03*
X9500Y150000D03*
X2500D03*
X6000D03*
X25500Y17000D03*
X20380Y26620D03*
X27000Y65000D03*
Y59000D03*
X31000Y59500D03*
X34490Y79000D03*
Y86410D03*
X19000Y90000D03*
X24000Y76000D03*
X26000Y104000D03*
X22500Y94000D03*
X28500Y99000D03*
X26000Y116000D03*
X31000Y119000D03*
X23500Y143500D03*
X21000Y149000D03*
X53000Y14500D03*
Y22000D03*
X48000Y51000D03*
X41500Y70550D03*
X48000Y60000D03*
X43500D03*
X51500D03*
X46000Y87400D03*
X38000Y110000D03*
Y106000D03*
X39000Y101000D03*
X49000Y105000D03*
X45840Y106160D03*
X38000Y114000D03*
X39000Y119000D03*
X49000Y115000D03*
X45840Y113840D03*
X35620Y161380D03*
X38000Y159000D03*
X67500Y25500D03*
X70560Y30440D03*
X70500Y38000D03*
X70560Y34560D03*
X67500Y49000D03*
X63500Y56500D03*
Y51950D03*
X66000Y54000D03*
X54000Y74500D03*
X56500Y64000D03*
X58700Y67300D03*
X56500Y60000D03*
X68490Y73100D03*
X59500Y61500D03*
X71030Y74850D03*
X54000Y83450D03*
X68750Y80250D03*
X58970Y76000D03*
X57000Y83500D03*
X71000Y88000D03*
X68500D03*
X66000Y91000D03*
X55000Y100500D03*
X71000Y106250D03*
X66000Y98000D03*
X65000Y109000D03*
X57210Y102120D03*
X60780D03*
X66000Y106000D03*
X55000Y125000D03*
X63500Y114500D03*
X60500D03*
X63000Y143000D03*
X85560Y30440D03*
X85500Y38000D03*
X85560Y34560D03*
X80920Y34420D03*
X79000Y47000D03*
X81380Y49000D03*
X87000Y47000D03*
X85500Y49000D03*
X88860Y54000D03*
X78570Y52930D03*
X71700Y65230D03*
X78000Y67500D03*
X81120Y67470D03*
X75000Y67500D03*
X81300Y74850D03*
X72000Y80350D03*
X86400Y80000D03*
X76000Y106000D03*
X83000Y123500D03*
Y120000D03*
X80000D03*
Y123500D03*
X76500Y134500D03*
Y131500D03*
X73500D03*
Y134500D03*
X73000Y141500D03*
X81000Y139500D03*
X102500Y32470D03*
X95920Y34420D03*
X99500Y47500D03*
X95380Y47380D03*
X106500Y44500D03*
X95380Y50620D03*
X99750Y62750D03*
X101500Y74050D03*
X90500Y74220D03*
X107000Y91500D03*
X104000Y83500D03*
Y91500D03*
X101000D03*
X90500Y81120D03*
Y84690D03*
X93500Y96000D03*
X96500D03*
X90000Y104000D03*
X93500Y101550D03*
X104500Y97800D03*
X90000Y112000D03*
X102500Y124410D03*
Y120500D03*
X106500D03*
X99870Y135370D03*
X111540Y32470D03*
X111490Y29530D03*
X120000Y47000D03*
X124000D03*
Y43000D03*
X120000D03*
X116000Y47000D03*
Y51000D03*
X120000D03*
X124000D03*
X123500Y62500D03*
X121000Y71950D03*
X109500Y58500D03*
X109620Y62230D03*
X111500Y71550D03*
X118000Y79000D03*
X123000Y80000D03*
X119500Y90500D03*
X114500Y92000D03*
X118500Y103000D03*
X125000Y123000D03*
Y120000D03*
X113500Y120500D03*
X111500Y159500D03*
X115500D03*
X111500Y164000D03*
X115500D03*
X113500Y162000D03*
X123500Y151500D03*
Y154500D03*
X120000D03*
Y151500D03*
X116500Y154500D03*
X131000Y37500D03*
X130000Y39500D03*
Y54500D03*
X131000Y56500D03*
X132000Y39500D03*
Y54500D03*
X130500Y72000D03*
X129500Y90500D03*
X138000Y87500D03*
X130500Y80000D03*
X129000Y100000D03*
X126500Y93500D03*
X126000Y103500D03*
Y100000D03*
X136000Y107500D03*
X141000Y99000D03*
X126500Y112000D03*
X140550Y117500D03*
X143000Y147500D03*
X135500Y150000D03*
X132000Y152500D03*
X140500Y155000D03*
X147500Y36000D03*
X154000D03*
X156500Y27500D03*
X153500D03*
X151000D03*
X147500Y40000D03*
X154000D03*
X156000Y54000D03*
X152810D03*
X156000Y58000D03*
X152810D03*
X150500Y70000D03*
X151000Y80500D03*
X153500Y82550D03*
X152000Y88500D03*
X158500Y78000D03*
X156640Y110500D03*
X152700Y95000D03*
X150550Y116450D03*
X153000Y118500D03*
X150500D03*
X155500Y128500D03*
X147000Y144000D03*
X155500Y131000D03*
Y133500D03*
X151100Y147500D03*
X147000D03*
Y152000D03*
Y156000D03*
X151000Y151990D03*
X150500Y170000D03*
X168000Y110000D03*
Y126500D03*
Y149500D03*
G54D40*
X81000Y142950D03*
Y149050D03*
G54D31*
X61000Y5990D03*
X153000Y9830D03*
G54D13*
X9870Y22150D03*
Y27080D03*
Y32000D03*
Y36920D03*
X8870Y92080D03*
Y106850D03*
Y101920D03*
Y97000D03*
X16920Y169870D03*
X12000D03*
X29130Y168000D03*
Y172920D03*
X44130Y158150D03*
Y163080D03*
Y168000D03*
Y172920D03*
X83000Y103000D03*
Y111000D03*
X74000D03*
X164130Y54380D03*
Y49460D03*
Y44540D03*
Y73000D03*
Y91080D03*
Y77920D03*
Y96000D03*
Y114080D03*
Y119000D03*
Y137080D03*
Y142000D03*
Y163620D03*
Y168540D03*
Y173460D03*
G54D22*
X4770Y177000D03*
X19230D03*
G54D41*
X90080Y165080D03*
G54D14*
X9870Y41840D03*
X8870Y87160D03*
X7080Y169870D03*
X29130Y177840D03*
X44130D03*
X164130Y39620D03*
Y68080D03*
Y100920D03*
Y123920D03*
Y146920D03*
Y178380D03*
G54D50*
X166000Y16500D03*
X169750Y25500D03*
X162250D03*
G54D32*
X69170Y60500D03*
Y93500D03*
X86890Y60500D03*
X84920D03*
X82950D03*
X80980D03*
X79020D03*
X77050D03*
X75080D03*
X73110D03*
X71140D03*
Y93500D03*
X73110D03*
X75080D03*
X77050D03*
X79020D03*
X80980D03*
X82950D03*
X84920D03*
X86890D03*
X90830Y60500D03*
X88860D03*
Y93500D03*
X90830D03*
G54D23*
X39370Y39370D03*
Y133860D03*
X133860D03*
G54D51*
G01X51500Y60000D02*
Y57500D01*
X52680Y56320D01*
Y31680D01*
X46000Y25000D01*
X27000D01*
X20000Y32000D01*
X9870D01*
G01X63500Y72080D02*
X57580D01*
X50000Y64500D01*
X41500D01*
X27000Y50000D01*
X15400D01*
X10400Y55000D01*
X8500D01*
X6130Y57370D01*
Y60330D01*
G01X10000Y52500D02*
X7000D01*
X3500Y56000D01*
Y64500D01*
X4000Y65000D01*
X5400D01*
G01X16000Y52500D02*
X27500D01*
X41000Y66000D01*
X49000D01*
X56950Y73950D01*
X59510D01*
X59610Y74050D01*
X63500D01*
G01X4000Y140380D02*
Y123990D01*
X1500Y121490D01*
Y55000D01*
X8000Y48500D01*
X27500D01*
X42000Y63000D01*
X50500D01*
X57610Y70110D01*
X63500D01*
G01X15950Y108050D02*
X19060D01*
G01X15950D02*
X12500Y111500D01*
Y120990D01*
X11500Y121990D01*
Y127010D01*
X26270Y141780D01*
Y158250D01*
X23500Y161020D01*
Y174500D01*
X25000Y176000D01*
X27290D01*
X29130Y177840D01*
G01X15990Y111950D02*
X19060D01*
G01X15990D02*
X14500Y113440D01*
Y123360D01*
X15140Y124000D01*
G01D02*
Y128640D01*
X27670Y141170D01*
Y158830D01*
X25000Y161500D01*
Y173500D01*
X25500Y174000D01*
X28050D01*
X29130Y172920D01*
G01X4000Y141380D02*
Y140380D01*
G01X8000Y143620D02*
X4000D01*
G01X12080Y144560D02*
X8940D01*
X8000Y143620D01*
G01X17000Y154620D02*
X13380D01*
X11840Y153080D01*
Y152490D01*
G01X12000Y169870D02*
X17000Y164870D01*
Y162620D01*
G01X56500Y60000D02*
Y58000D01*
X55480Y56980D01*
Y28980D01*
X48000Y21500D01*
X21500D01*
X19380Y19380D01*
Y17000D01*
G01X17000Y23380D02*
X47380D01*
X54080Y30080D01*
Y62080D01*
X56000Y64000D01*
X56500D01*
G01X31000Y59500D02*
Y59000D01*
X26000Y54000D01*
X21500D01*
X18720Y56780D01*
Y60330D01*
G01X22600Y65000D02*
X27000D01*
G01Y59000D02*
X25670Y60330D01*
X21870D01*
G01X20380Y104000D02*
Y106730D01*
X19060Y108050D01*
G01X32510Y108720D02*
X27610D01*
X26940Y108050D01*
G01X32510Y111280D02*
X27610D01*
X26940Y111950D01*
G01X20380Y116000D02*
Y113270D01*
X19060Y111950D01*
G01X17000Y151380D02*
Y146990D01*
X19920Y144070D01*
Y142000D01*
G01X23500Y143500D02*
Y156500D01*
X20620Y159380D01*
X17000D01*
G01X21000Y154620D02*
X17000D01*
G01X29130Y177840D02*
X30970Y176000D01*
X34020D01*
X40990Y182970D01*
X102520D01*
X108000Y177490D01*
Y159790D01*
X119000Y148790D01*
Y136510D01*
X116490Y134000D01*
X112000D01*
X109980Y136020D01*
Y138360D01*
G01X111950D02*
Y136200D01*
X112650Y135500D01*
X116000D01*
X117550Y137050D01*
Y147950D01*
X106500Y159000D01*
Y177000D01*
X102000Y181500D01*
X41500D01*
X34600Y174600D01*
X30810D01*
X29130Y172920D01*
G01X55000Y80620D02*
X51760D01*
X51000Y81380D01*
G01X38160Y83530D02*
Y83330D01*
X42490Y79000D01*
X48610D01*
X50990Y81380D01*
X51000D01*
G01X55000Y77380D02*
X51760D01*
X51000Y76620D01*
G01D02*
X47990D01*
X45840Y74470D01*
G01X59500Y61500D02*
Y58000D01*
X56880Y55380D01*
Y20110D01*
X61000Y15990D01*
G01X67500Y25500D02*
Y49000D01*
G01X63500Y51950D02*
X68460D01*
X73110Y56600D01*
Y60500D01*
G01X66000Y54000D02*
X68010D01*
X71140Y57130D01*
Y60500D01*
G01X71030Y74850D02*
Y67630D01*
X61000Y57600D01*
Y45990D01*
G01X63500Y56500D02*
X67650D01*
X69170Y58020D01*
Y60500D01*
G01X58700Y67300D02*
X59540Y68140D01*
X63500D01*
G01X68490Y73100D02*
Y67990D01*
X66670Y66170D01*
X63500D01*
G01Y79950D02*
X57670D01*
X57000Y80620D01*
X55000D01*
G01X68750Y80250D02*
X67080Y81920D01*
X63500D01*
G01X72000Y80350D02*
X68460Y83890D01*
X63500D01*
G01Y76020D02*
X59020D01*
X59000Y76000D01*
X58970D01*
G01X57000Y83500D02*
X59360Y85860D01*
X63500D01*
G01Y77980D02*
X59610D01*
X59520Y78070D01*
X57670D01*
X56980Y77380D01*
X55000D01*
G01X61950Y106360D02*
Y104200D01*
X62530Y103620D01*
X66000D01*
G01D02*
Y106000D01*
G01X63500Y114500D02*
X61950Y112950D01*
Y111640D01*
G01X60620Y125000D02*
Y127420D01*
X62550Y129350D01*
G01X59980Y111640D02*
Y113980D01*
X60500Y114500D01*
G01X57380Y143000D02*
Y140920D01*
X54870Y138410D01*
G01D02*
Y138210D01*
X59080Y134000D01*
X64490D01*
X66440Y135950D01*
X69550D01*
G01Y133980D02*
X66980D01*
X62550Y129550D01*
Y129350D01*
G01X75080Y60500D02*
Y56420D01*
X71700Y53040D01*
Y44300D01*
X75000Y41000D01*
X76180D01*
X78970Y38210D01*
Y38000D01*
G01X110030Y42000D02*
X101500D01*
X99500Y44000D01*
X76430D01*
X74500Y45930D01*
Y51880D01*
X79020Y56400D01*
Y60500D01*
G01X93970Y38000D02*
Y38210D01*
X89580Y42600D01*
X75850D01*
X73100Y45350D01*
Y52460D01*
X77050Y56410D01*
Y60500D01*
G01X73110Y93500D02*
Y84900D01*
X74050Y83960D01*
Y74060D01*
X72950Y72960D01*
Y66480D01*
X71700Y65230D01*
G01X77050Y93500D02*
Y70310D01*
X78000Y69360D01*
Y67500D01*
G01X79020Y93500D02*
Y70960D01*
X79800Y70180D01*
Y68790D01*
X81120Y67470D01*
G01X75000Y67500D02*
Y71510D01*
X75450Y71960D01*
Y85050D01*
X75080Y85420D01*
Y93500D01*
G01X86400Y80000D02*
Y68090D01*
X86890Y67600D01*
Y66200D01*
X87010Y66080D01*
Y64380D01*
X86890Y64260D01*
Y60500D01*
G01X81300Y74850D02*
X82620Y76170D01*
Y82090D01*
X88860Y88330D01*
Y93500D01*
G01X107000Y91500D02*
X100400Y98100D01*
X88100D01*
X86890Y96890D01*
Y93500D01*
G01X75080D02*
Y97470D01*
X76000Y98390D01*
Y100380D01*
G01X74000Y111000D02*
X78500Y106500D01*
Y100000D01*
X80980Y97520D01*
Y93500D01*
G01X82950D02*
Y98050D01*
X79980Y101020D01*
Y107980D01*
X83000Y111000D01*
G01X93500Y101550D02*
X89450D01*
X86020Y104980D01*
Y124510D01*
X94000Y132490D01*
Y145500D01*
X95500Y147000D01*
X99620D01*
X100620Y146000D01*
Y144000D01*
G01X84920Y93500D02*
Y98260D01*
X83000Y100180D01*
Y103000D01*
G01X104500Y97800D02*
X102800Y99500D01*
X89320D01*
X85820Y103000D01*
X83000D01*
G01X108020Y143640D02*
Y147200D01*
X103680Y151540D01*
X95460D01*
X86320Y160680D01*
X86300D01*
X85680Y161300D01*
Y161320D01*
X85500Y161500D01*
Y170340D01*
X90080Y174920D01*
G01X81000Y149050D02*
X77430D01*
X76000Y147620D01*
G01X90830Y93500D02*
Y88320D01*
X88450Y85940D01*
Y68550D01*
X99500Y57500D01*
Y47500D01*
G01X96500Y72080D02*
X100570D01*
X100650Y72000D01*
X104000D01*
X107500Y75500D01*
X124500D01*
X128180Y79180D01*
Y89180D01*
X129500Y90500D01*
G01X136000Y90620D02*
X134000D01*
X132950Y89570D01*
Y78950D01*
X128000Y74000D01*
X108490D01*
X104600Y70110D01*
X96500D01*
G01Y74050D02*
X101500D01*
G01X136000Y113620D02*
X134000D01*
X133500Y113120D01*
Y97500D01*
X126500Y90500D01*
Y80000D01*
X123450Y76950D01*
X106260D01*
X103360Y74050D01*
X101500D01*
G01X111500Y71550D02*
X108550D01*
X105140Y68140D01*
X96500D01*
G01X130500Y72000D02*
X128000Y69500D01*
X121900D01*
X121850Y69450D01*
X120150D01*
X120100Y69500D01*
X109010D01*
X105680Y66170D01*
X96500D01*
G01X90500Y74220D02*
X92300Y76020D01*
X96500D01*
G01X97720Y118840D02*
X101160D01*
X109500Y110500D01*
Y99500D01*
X110500Y98500D01*
Y83500D01*
X104980Y77980D01*
X96500D01*
G01Y79950D02*
X104450D01*
X109000Y84500D01*
Y90600D01*
X109050Y90650D01*
Y92350D01*
X109000Y92400D01*
Y97500D01*
X108000Y98500D01*
Y109820D01*
X101540Y116280D01*
X97720D01*
G01Y113720D02*
X93900D01*
X92500Y115120D01*
Y124330D01*
X95170Y127000D01*
X102000D01*
X108020Y133020D01*
Y138360D01*
G01X97720Y111160D02*
X93900D01*
X91000Y114060D01*
Y124810D01*
X94640Y128450D01*
X100940D01*
X106050Y133560D01*
Y138360D01*
G01X105380Y141000D02*
X101620D01*
X100620Y140000D01*
G01Y144000D02*
X104320D01*
X104680Y143640D01*
X106050D01*
G01X90080Y165080D02*
Y158920D01*
X96000Y153000D01*
X104500D01*
X109980Y147520D01*
Y143640D01*
G01X118000Y79000D02*
X122500Y83500D01*
Y100000D01*
X126000Y103500D01*
G01X123000Y80000D02*
X124450Y81450D01*
Y96590D01*
X126000Y98140D01*
Y100000D01*
G01X119500Y94970D02*
Y90500D01*
G01X114500Y94970D02*
Y92000D01*
G01X115620Y102000D02*
Y107760D01*
X116460Y108600D01*
X120280D01*
G01X129000Y106380D02*
X126000D01*
X125660Y106040D01*
X120280D01*
G01X129000Y109620D02*
X124980D01*
X123440Y111160D01*
X120280D01*
G01X115620Y128000D02*
Y119680D01*
X116460Y118840D01*
X120280D01*
G01X129000Y114380D02*
X124760D01*
X124100Y113720D01*
X120280D01*
G01X129000Y117620D02*
X125440D01*
X124100Y116280D01*
X120280D01*
G01X141240Y90560D02*
X138060D01*
X138000Y90620D01*
X136000D01*
G01X130500Y80000D02*
Y86000D01*
X131550Y87050D01*
Y92050D01*
X135000Y95500D01*
X137500D01*
X141000Y99000D01*
G01X143380Y81000D02*
Y83300D01*
X141240Y85440D01*
G01X126500Y93500D02*
X131450Y98450D01*
Y113450D01*
X134000Y116000D01*
X138500D01*
X139000Y115500D01*
X139990D01*
X140040Y115450D01*
X141740D01*
X141790Y115500D01*
X144010D01*
X145000Y114510D01*
Y109330D01*
X145890Y108440D01*
X148760D01*
G01X143380Y104000D02*
Y106300D01*
X141240Y108440D01*
G01Y113560D02*
X138060D01*
X138000Y113620D01*
X136000D01*
G01X164130Y168540D02*
X161310D01*
X153150Y160380D01*
Y132650D01*
X140550Y120050D01*
Y117500D01*
G01X163380Y30000D02*
X161390D01*
X159000Y27610D01*
Y25000D01*
X157620Y23620D01*
X147810D01*
X147160Y24270D01*
Y26510D01*
G01X143380Y81000D02*
Y72620D01*
X149000Y67000D01*
X160000D01*
X161080Y68080D01*
X164130D01*
G01X151000Y80500D02*
X154990D01*
X155990Y81500D01*
X165500D01*
X168500Y78500D01*
Y39500D01*
X171000Y37000D01*
Y33620D01*
G01X154000Y85380D02*
X151690D01*
X151630Y85440D01*
X148760D01*
G01X154000Y85380D02*
Y83050D01*
X153500Y82550D01*
G01X146620Y95000D02*
Y92700D01*
X148760Y90560D01*
G01D02*
X152180D01*
X152620Y91000D01*
X157000D01*
X160500Y87500D01*
X165500D01*
X168000Y90000D01*
Y97050D01*
X164130Y100920D01*
G01X148760Y108440D02*
X151940D01*
X152000Y108380D01*
X154000D01*
G01X164130Y91080D02*
X156210Y99000D01*
X144500D01*
X143380Y97880D01*
Y95000D01*
G01X164130Y114080D02*
X159500Y109450D01*
Y108000D01*
X155500Y104000D01*
X146620D01*
G01X164130Y123920D02*
X167500Y120550D01*
Y112500D01*
X156000Y101000D01*
X144500D01*
X143380Y102120D01*
Y104000D01*
G01X164130Y137080D02*
Y131630D01*
X157000Y124500D01*
X147880D01*
X143380Y120000D01*
Y118000D01*
G01X146620D02*
Y115700D01*
X148760Y113560D01*
G01X146620Y118000D02*
Y120620D01*
X149000Y123000D01*
X157490D01*
X167500Y133010D01*
Y143550D01*
X164130Y146920D01*
G01X151000Y151990D02*
X149050Y150040D01*
Y146050D01*
X147000Y144000D01*
G01X166620Y30000D02*
Y22620D01*
X166000Y22000D01*
Y16500D01*
G01X169750Y25500D02*
Y19260D01*
X170000Y19010D01*
Y11620D01*
G01X166620Y34500D02*
Y33620D01*
X165310Y32310D01*
X164310D01*
X163380Y31380D01*
Y30000D01*
G01X169750Y25500D02*
Y29130D01*
X171000Y30380D01*
G54D42*
X90080Y174920D03*
X99920Y165080D03*
Y174920D03*
G54D15*
X15570Y60330D03*
X12430D03*
X9280D03*
X6130D03*
Y69670D03*
X9280D03*
X12430D03*
X15570D03*
X21870Y60330D03*
X18720D03*
Y69670D03*
X21870D03*
G54D24*
X32510Y106160D03*
Y108720D03*
Y111280D03*
Y113840D03*
X43490Y108720D03*
Y106160D03*
Y113840D03*
Y111280D03*
G54D33*
X63500Y66170D03*
Y68140D03*
Y70110D03*
Y72080D03*
Y74050D03*
Y76020D03*
Y77980D03*
Y79950D03*
Y81920D03*
Y83890D03*
Y85860D03*
Y87830D03*
X96500Y74050D03*
Y72080D03*
Y70110D03*
Y68140D03*
Y66170D03*
Y87830D03*
Y85860D03*
Y83890D03*
Y81920D03*
Y79950D03*
Y77980D03*
Y76020D03*
G54D52*
G01X8870Y101920D02*
X6930Y99980D01*
X5480D01*
X4000Y98500D01*
Y84500D01*
X6000Y82500D01*
X21000D01*
X31440Y92940D01*
X41930D01*
X52550Y103560D01*
Y116560D01*
X56490Y120500D01*
X71510D01*
X73560Y122550D01*
Y124770D01*
X74020Y125230D01*
Y127550D01*
G01X72050D02*
Y125230D01*
X72510Y124770D01*
Y122990D01*
X71070Y121550D01*
X69870D01*
X69210Y122210D01*
X68010D01*
X67350Y121550D01*
X66150D01*
X65490Y122210D01*
X64290D01*
X63630Y121550D01*
X62430D01*
X61770Y122210D01*
X60570D01*
X59910Y121550D01*
X56050D01*
X51500Y117000D01*
Y104000D01*
X50150Y102650D01*
X49200D01*
X48350Y101800D01*
Y100850D01*
X47510Y100010D01*
X46560D01*
X45710Y99160D01*
Y98210D01*
X44870Y97370D01*
X43920D01*
X43070Y96520D01*
Y95570D01*
X41490Y93990D01*
X31000D01*
X20560Y83550D01*
X6440D01*
X5050Y84940D01*
Y86900D01*
X5710Y87560D01*
Y88760D01*
X5050Y89420D01*
Y90620D01*
X5710Y91280D01*
Y92480D01*
X5050Y93140D01*
Y94340D01*
X5710Y95000D01*
Y96200D01*
X5050Y96860D01*
Y98060D01*
X5920Y98930D01*
X6940D01*
X8870Y97000D01*
G01X80450Y132020D02*
X82770D01*
X83230Y131560D01*
X87060D01*
X90000Y134500D01*
Y135700D01*
X89340Y136360D01*
Y137560D01*
X90000Y138220D01*
Y139420D01*
X89340Y140080D01*
Y141280D01*
X90000Y141940D01*
Y143140D01*
X89340Y143800D01*
Y145000D01*
X90000Y145660D01*
Y147740D01*
X89340Y148400D01*
Y149600D01*
X90000Y150260D01*
Y151520D01*
X72410Y169110D01*
X71460D01*
X70610Y169960D01*
Y170910D01*
X69170Y172350D01*
X67260D01*
X66600Y171690D01*
X65400D01*
X64740Y172350D01*
X55020D01*
X52600Y169930D01*
X46060D01*
X44130Y168000D01*
G01X80450Y130050D02*
X82770D01*
X83230Y130510D01*
X87500D01*
X91050Y134060D01*
Y151960D01*
X69610Y173400D01*
X54580D01*
X52160Y170980D01*
X46070D01*
X44130Y172920D01*
G01X57210Y102120D02*
X58470Y103380D01*
Y104530D01*
X58020Y104980D01*
Y106360D01*
G01X60780Y102120D02*
X59520Y103380D01*
Y104530D01*
X59980Y104990D01*
Y106360D01*
G01X75980Y127550D02*
Y125230D01*
X76440Y124770D01*
Y121430D01*
X73060Y118050D01*
X58060D01*
X56510Y116500D01*
Y114130D01*
X56050Y113670D01*
Y111640D01*
G01X77950Y127550D02*
Y125230D01*
X77490Y124770D01*
Y120990D01*
X73500Y117000D01*
X58500D01*
X57560Y116060D01*
Y114240D01*
X58020Y113780D01*
Y111640D01*
G01X80450Y135950D02*
X82770D01*
X83230Y135490D01*
X84490D01*
X86000Y137000D01*
Y138200D01*
X85340Y138860D01*
Y140060D01*
X86000Y140720D01*
Y141920D01*
X85340Y142580D01*
Y143780D01*
X86000Y144440D01*
Y149520D01*
X78970Y156550D01*
X78020D01*
X77170Y157400D01*
Y158350D01*
X76330Y159190D01*
X75380D01*
X74530Y160040D01*
Y160990D01*
X73690Y161830D01*
X72740D01*
X71890Y162680D01*
Y163630D01*
X71050Y164470D01*
X68570D01*
X67910Y163810D01*
X66710D01*
X66050Y164470D01*
X64850D01*
X61440Y161060D01*
G01Y168940D02*
X64860Y165520D01*
X71490D01*
X87050Y149960D01*
Y136560D01*
X84930Y134440D01*
X83230D01*
X82770Y133980D01*
X80450D01*
G01X90500Y81120D02*
X91760Y82380D01*
X92620D01*
X93080Y81920D01*
X96500D01*
G01X90500Y84690D02*
X91760Y83430D01*
X92940D01*
X93400Y83890D01*
X96500D01*
G54D43*
X97720Y106040D03*
Y108600D03*
Y111160D03*
Y113720D03*
Y116280D03*
Y118840D03*
Y121400D03*
Y123960D03*
X120280Y108600D03*
Y106040D03*
Y123960D03*
Y121400D03*
Y118840D03*
Y116280D03*
Y113720D03*
Y111160D03*
G54D16*
X5400Y65000D03*
X22600D03*
G54D25*
X19060Y108050D03*
X26940D03*
X19060Y111950D03*
X26940D03*
G54D34*
X62620Y109000D03*
X55380D03*
X105380Y141000D03*
X112620D03*
G54D53*
G01X11380Y17000D02*
X8500D01*
G01X14620D02*
Y13620D01*
X12150Y11150D01*
X6570D01*
G01X14620Y17000D02*
X19380D01*
G01X9870Y22150D02*
X13630D01*
X14860Y23380D01*
X17000D01*
G01X9280Y69670D02*
Y73520D01*
X9620Y73860D01*
Y76000D01*
G01X12430Y69670D02*
Y75930D01*
G01X6130Y69670D02*
Y73610D01*
X6380Y73860D01*
Y76000D01*
G01X9620D02*
X12360D01*
X12430Y75930D01*
G01X18380Y76000D02*
X16000D01*
G01X6380D02*
X4000D01*
G01X8870Y106850D02*
Y113610D01*
X8620Y113860D01*
Y116000D01*
G01X8500Y119000D02*
X6240D01*
X5380Y118140D01*
Y116000D01*
G01X8000Y140380D02*
Y138000D01*
G01Y140380D02*
X11140D01*
X12080Y139440D01*
G01X19380Y17000D02*
Y14670D01*
X22900Y11150D01*
X23430D01*
G01X22620Y17000D02*
X25500D01*
G01X31570Y11150D02*
X48430D01*
G01X17000Y26620D02*
X20380D01*
G01X18720Y69670D02*
Y73520D01*
X18380Y73860D01*
Y76000D01*
G01X21870Y69670D02*
Y73610D01*
X21620Y73860D01*
Y76000D01*
G01D02*
X24000D01*
G01X23620Y104000D02*
X26000D01*
G01X33380Y101000D02*
Y103700D01*
X32510Y104570D01*
Y106160D01*
G01X20380Y104000D02*
Y101260D01*
X18120Y99000D01*
G01X25880D02*
X28500D01*
G01X23620Y116000D02*
X26000D01*
G01X33380Y119000D02*
Y116300D01*
X32510Y115430D01*
Y113840D01*
G01X33380Y119000D02*
X31000D01*
G01X21000Y151380D02*
Y149000D01*
G01X29130Y168000D02*
Y162260D01*
X32380Y159010D01*
Y159000D01*
G01X48430Y11150D02*
X56160D01*
X61000Y15990D01*
G01X51000Y73380D02*
X52880D01*
X54000Y74500D01*
G01Y83450D02*
X52830Y84620D01*
X51000D01*
G01X36620Y101000D02*
X39000D01*
G01X43490Y108720D02*
X48660D01*
X49000Y108380D01*
G01D02*
Y105000D01*
G01X43490Y106160D02*
X45840D01*
G01X36620Y119000D02*
X39000D01*
G01X43490Y111280D02*
X48660D01*
X49000Y111620D01*
G01D02*
Y115000D01*
G01X43490Y113840D02*
X45840D01*
G01X44130Y163080D02*
X40500Y159450D01*
Y153010D01*
X41380Y152130D01*
Y149000D01*
G01X35620Y159000D02*
Y161380D01*
G01Y159000D02*
X38000D01*
G01X44130Y158150D02*
Y151630D01*
X44620Y151140D01*
Y149000D01*
G01X55000Y103500D02*
X56050Y104550D01*
Y106360D01*
G01X55000Y103500D02*
X54080Y104420D01*
Y108580D01*
X54500Y109000D01*
X55380D01*
G01X55000Y100500D02*
Y103500D01*
G01X66000Y100380D02*
Y98000D01*
G01X69170Y93500D02*
Y98550D01*
X71000Y100380D01*
G01X62620Y109000D02*
X65000D01*
G01X71000Y100380D02*
X69620D01*
X68660Y101340D01*
Y107340D01*
X67000Y109000D01*
X65000D01*
G01X57380Y125000D02*
X55000D01*
G01X57380D02*
Y126840D01*
X54870Y129350D01*
G01X60620Y143000D02*
X63000D01*
G01X60620D02*
Y140340D01*
X62550Y138410D01*
G01X84000Y7440D02*
Y13500D01*
X78970Y18530D01*
Y26000D01*
G01X76130Y7440D02*
Y12870D01*
X73030Y15970D01*
Y26000D01*
G01X78970D02*
Y28830D01*
X79000Y28860D01*
Y30380D01*
G01X74000D02*
X79000D01*
G01X101130Y7440D02*
X88030Y20540D01*
Y26000D01*
G01X85560Y30440D02*
Y28470D01*
X88030Y26000D01*
G01X70560Y30440D02*
Y28470D01*
X73030Y26000D01*
G01Y38000D02*
X70500D01*
G01X88030D02*
X85500D01*
G01X89000Y33620D02*
X86500D01*
X85560Y34560D01*
G01X74000Y33620D02*
X71500D01*
X70560Y34560D01*
G01X79000Y33620D02*
X80120D01*
X80920Y34420D01*
G01X79000Y33620D02*
Y36140D01*
X78970Y36170D01*
Y38000D01*
G01X81380Y47000D02*
X79000D01*
G01X81380D02*
Y49000D01*
G01X80980Y60500D02*
Y53540D01*
X81380Y53140D01*
Y51000D01*
G01X79000Y47000D02*
X77380D01*
X77000Y47380D01*
G01X81380Y49000D02*
Y51000D01*
G01X84620D02*
Y47000D01*
G01D02*
X87000D01*
G01D02*
X88620D01*
X89000Y47380D01*
G01X84920Y60500D02*
Y54580D01*
G01X82950Y60500D02*
Y54050D01*
X84620Y52380D01*
G01X84920Y54580D02*
X86000Y53500D01*
Y52380D01*
X84620Y51000D01*
G01Y52380D02*
Y51000D01*
G01X78570Y52930D02*
X77000Y51360D01*
Y50620D01*
G01X76000Y103620D02*
Y106000D01*
G01X71000Y103620D02*
X72370D01*
X73340Y102650D01*
Y98750D01*
X72640Y98050D01*
X72060D01*
X71140Y97130D01*
Y93500D01*
G01X71000Y106250D02*
Y103620D01*
G01X100620Y140000D02*
Y137860D01*
X102480Y136000D01*
Y133480D01*
X99000Y130000D01*
X93990D01*
X87570Y123580D01*
Y107430D01*
X88620Y106380D01*
X90000D01*
G01X72050Y138450D02*
Y140550D01*
X73000Y141500D01*
G01X74020Y138450D02*
Y140480D01*
X73000Y141500D01*
G01X81000Y142950D02*
Y139500D01*
G01X75980Y138450D02*
Y142230D01*
X76000Y142250D01*
Y144380D01*
G01X93970Y26000D02*
Y22470D01*
X109000Y7440D01*
G01X102500Y32470D02*
X101000Y30970D01*
Y28620D01*
G01X108080Y34000D02*
Y31690D01*
X105010Y28620D01*
X105000D01*
G01X94000Y33620D02*
X95120D01*
X95920Y34420D01*
G01X94000Y33620D02*
Y36140D01*
X93970Y36170D01*
Y38000D01*
G01X94000Y30380D02*
Y28860D01*
X93970Y28830D01*
Y26000D01*
G01X89000Y30380D02*
X94000D01*
G01X105000Y25380D02*
X101000D01*
G01X105000D02*
X109410D01*
X110030Y26000D01*
G01X93000Y47380D02*
X95380D01*
G01X88860Y60500D02*
Y54000D01*
G01X93000Y50620D02*
X89000D01*
G01X90830Y60500D02*
Y56470D01*
X93000Y54300D01*
Y50620D01*
G01D02*
X95380D01*
G01X96500Y85860D02*
X101380D01*
X101860Y85380D01*
X104000D01*
G01D02*
Y83500D01*
G01X96500Y87830D02*
X101070D01*
X101860Y88620D01*
X104000D01*
G01D02*
Y91500D01*
G01X90000Y109620D02*
X92870D01*
X93890Y108600D01*
X97720D01*
G01X90000Y109620D02*
Y112000D01*
G01Y106380D02*
Y104000D01*
G01Y106380D02*
X93140D01*
X93480Y106040D01*
X97720D01*
G01X112380Y128000D02*
X106090D01*
X102500Y124410D01*
G01X97380Y144000D02*
Y140000D01*
G01X99870Y135370D02*
X97380Y137860D01*
Y140000D01*
G01X133870Y7440D02*
X123810Y17500D01*
X121500D01*
X115970Y23030D01*
Y26000D01*
G01X126000Y7440D02*
X119940Y13500D01*
X117000D01*
X110030Y20470D01*
Y26000D01*
G01X115920Y31440D02*
Y28880D01*
X115970Y28830D01*
Y26000D01*
G01X115920Y31440D02*
X116210D01*
X118500Y33730D01*
Y39260D01*
X115970Y41790D01*
Y42000D01*
G01X111540Y32470D02*
X115630Y36560D01*
X115920D01*
G01X108080Y34000D02*
Y37220D01*
X110030Y39170D01*
Y42000D01*
G01X114500Y65030D02*
Y60500D01*
X115000Y60000D01*
X118740D01*
X119500Y60760D01*
Y65030D01*
G01X114500D02*
X111030D01*
X109620Y63620D01*
Y62230D01*
G01X112380Y102000D02*
Y114620D01*
X106500Y120500D01*
G01X112620Y141000D02*
X114500D01*
X115220Y141720D01*
Y145420D01*
X111950Y148690D01*
G01D02*
Y143640D01*
G01X136000Y87380D02*
X137880D01*
X138000Y87500D01*
G01D02*
X138500Y88000D01*
X141240D01*
G01Y111000D02*
X136620D01*
X136000Y110380D01*
G01D02*
Y107500D01*
G01X163380Y34500D02*
X159000D01*
G01X146620Y81000D02*
Y76380D01*
X149000Y74000D01*
X155000D01*
G01X154000Y88620D02*
X152120D01*
X152000Y88500D01*
G01D02*
X151500Y88000D01*
X148760D01*
G01Y111000D02*
X153380D01*
X154000Y111620D01*
G01D02*
X155520D01*
X156640Y110500D01*
G01X170000Y8380D02*
X164450D01*
X163000Y9830D01*
G54D26*
X18120Y99000D03*
X25880D03*
G54D44*
X119500Y65030D03*
X114500D03*
Y94970D03*
X119500D03*
G54D17*
X15140Y124000D03*
X61440Y153190D03*
Y161060D03*
Y168940D03*
X84000Y7440D03*
X126000D03*
X109000D03*
X122440Y160000D03*
X124000Y180500D03*
X143440Y160000D03*
X131880Y180500D03*
X155380D03*
X147500D03*
G54D35*
X61950Y106360D03*
X59980D03*
X58020D03*
X56050D03*
Y111640D03*
X58020D03*
X59980D03*
X61950D03*
X106050Y143640D03*
Y138360D03*
X108020Y143640D03*
X109980D03*
X111950D03*
Y138360D03*
X109980D03*
X108020D03*
G54D54*
G01X7080Y167190D02*
Y169870D01*
G01D02*
Y172550D01*
G01X4400Y169870D02*
X7080D01*
G01X16920D02*
Y172550D01*
G01Y169870D02*
X19600D01*
G01X131880Y177410D02*
Y180500D01*
G01X128790D02*
X131880D01*
G01D02*
X134970D01*
G01X153000Y6050D02*
Y9830D01*
G01D02*
Y13610D01*
G01X149220Y9830D02*
X153000D01*
G01X155380Y177410D02*
Y180500D01*
G01X152290D02*
X155380D01*
G01D02*
X158470D01*
G01X164130Y160940D02*
Y163620D01*
G01X161450D02*
X164130D01*
G01D02*
X166810D01*
G54D27*
X23010Y124000D03*
X61440Y176810D03*
X76130Y7440D03*
X101130D03*
X122440Y167870D03*
X116130Y180500D03*
X133870Y7440D03*
X143440Y167870D03*
X139630Y180500D03*
G54D18*
X12080Y139440D03*
Y144560D03*
X19920Y142000D03*
X108080Y34000D03*
X115920Y36560D03*
Y31440D03*
G54D45*
X141240Y85440D03*
Y88000D03*
Y90560D03*
Y108440D03*
Y111000D03*
Y113560D03*
X148760Y90560D03*
Y88000D03*
Y85440D03*
Y108440D03*
Y113560D03*
Y111000D03*
G54D36*
X69550Y130050D03*
Y132020D03*
Y133980D03*
Y135950D03*
X80450D03*
Y133980D03*
Y132020D03*
Y130050D03*
G54D28*
X38160Y74470D03*
X45840D03*
X38160Y83530D03*
X45840D03*
X54870Y129350D03*
X62550D03*
X54870Y138410D03*
X62550D03*
G54D37*
X73030Y38000D03*
X78970D03*
X88030D03*
Y26000D03*
X78970D03*
X73030D03*
X93970Y38000D03*
Y26000D03*
X110030D03*
X115970D03*
Y42000D03*
X110030D03*
G54D19*
X8000Y143620D03*
Y140380D03*
X4000Y143620D03*
Y140380D03*
X17000Y23380D03*
Y26620D03*
X21000Y154620D03*
Y151380D03*
X17000Y154620D03*
Y151380D03*
Y162620D03*
Y159380D03*
X51000Y73380D03*
Y76620D03*
Y84620D03*
Y81380D03*
X49000Y108380D03*
Y111620D03*
X55000Y80620D03*
Y77380D03*
X66000Y103620D03*
Y100380D03*
X79000Y33620D03*
Y30380D03*
X74000D03*
Y33620D03*
X77000Y47380D03*
Y50620D03*
X71000Y103620D03*
Y100380D03*
X76000Y103620D03*
Y100380D03*
Y144380D03*
Y147620D03*
X101000Y25380D03*
Y28620D03*
X89000Y30380D03*
Y33620D03*
X105000Y28620D03*
Y25380D03*
X94000Y33620D03*
Y30380D03*
X93000Y47380D03*
Y50620D03*
X89000Y47380D03*
Y50620D03*
X104000Y85380D03*
Y88620D03*
X90000Y109620D03*
Y106380D03*
X136000Y90620D03*
Y87380D03*
X129000Y109620D03*
Y106380D03*
X136000Y110380D03*
X129000Y117620D03*
Y114380D03*
X136000Y113620D03*
X154000Y85380D03*
Y88620D03*
Y108380D03*
Y111620D03*
X170000Y11620D03*
Y8380D03*
X171000Y33620D03*
Y30380D03*
G54D46*
X150960Y18340D03*
G54D38*
X77950Y127550D03*
X75980D03*
X74020D03*
X72050D03*
Y138450D03*
X74020D03*
X75980D03*
X77950D03*
G54D29*
X38000Y110000D03*
G54D47*
X146000Y36980D03*
Y57020D03*
G54D48*
X155000Y74000D03*
Y70000D03*
Y78000D03*
G54D39*
X75000Y133000D03*
G54D49*
X155000Y76500D03*
Y75500D03*
M02*
